G04*
G04 #@! TF.GenerationSoftware,Altium Limited,Altium Designer,24.4.1 (13)*
G04*
G04 Layer_Color=16711935*
%FSTAX25Y25*%
%MOIN*%
G70*
G04*
G04 #@! TF.SameCoordinates,D68B6D5F-11C5-45A1-AF62-CA48ED7D446B*
G04*
G04*
G04 #@! TF.FilePolarity,Positive*
G04*
G01*
G75*
%ADD25C,0.01000*%
D25*
Y0225D01*
X0003Y0228D01*
X0004D01*
X00095D01*
X0014Y02325D01*
Y0234D01*
Y0391D01*
X0315D01*
Y01655D02*
Y0391D01*
X03125Y0163D02*
X0315Y01655D01*
X0311Y0163D02*
X03125D01*
X03045D02*
X0311D01*
X0304Y01625D02*
X03045Y0163D01*
X0301Y01595D02*
X0304Y01625D01*
X0301Y0158D02*
Y01595D01*
Y0D02*
Y0158D01*
X0Y0D02*
X0301D01*
X0004028Y0228063D02*
G03*
X0000028Y0223063I00005J-00045D01*
G01*
X0008028Y0228063D02*
G03*
X0014028Y0234063I0J0006D01*
G01*
X0000028Y0196063D02*
Y0223063D01*
Y0196063D02*
X0315028D01*
X0004028Y0228063D02*
X0008028D01*
X0014028Y0390945D02*
X0014028Y0234063D01*
X0315028Y0196063D02*
Y0390945D01*
X0014028Y0390945D02*
X0315028Y0390945D01*
X0310933Y0162882D02*
G03*
X0314933Y0167882I-00005J00045D01*
G01*
X0306933Y0162882D02*
G03*
X0300933Y0156882I0J-0006D01*
G01*
X0314933Y0194882D02*
Y0167882D01*
Y0194882D02*
X-0000067D01*
X0310933Y0162882D02*
X0306933D01*
X0300933Y0D02*
X0300933Y0156882D01*
X-0000067Y0194882D02*
Y0D01*
X0300933Y0D02*
X-0000067Y0D01*
M02*
