M48
;Layer_Color=9474304
;FILE_FORMAT=2:4
INCH,LZ
;TYPE=PLATED
T01F00S00C0.0080
T02F00S00C0.0100
T03F00S00C0.0276
T04F00S00C0.0295
T05F00S00C0.0320
T06F00S00C0.0394
T07F00S00C0.0400
T08F00S00C0.0402
%
T01
X001Y00945
Y01185
X0111Y01085
X0097Y01445
X0153Y01275
X0198Y0124
X01945Y0112
X02195
Y012
X02255Y01305
X0208Y0139
X0235Y0105
X02215Y00725
X02185
X022Y00705
X01935Y0069
X0189
X0191Y00725
X0185Y01715
X0238Y0188
X022Y026656
X02215Y026856
X02185
X0191
X0189Y026506
X01935
X01945Y030806
X02195
X0235Y030106
X0111Y030456
X001Y029056
X0078Y01655
X00735Y016
X0092Y01695
X009208Y016958
X009549Y01705
X00935Y0178
X01165Y0181
X0097Y034056
X009549Y036656
X009208Y036565
X0092Y036556
X00935Y037406
X01165Y037706
X0078Y036156
X00735Y035606
X001Y031456
X0153Y032356
X0198Y032006
X0208Y033506
X02255Y032656
X02195Y031606
X0185Y036756
X0238Y038406
T02
X0159Y00135
Y020956
T03
X02755Y00105
X02855
X028548Y003
X027548
X027558Y00495
X028558
X028556Y00695
X027556
X02755Y00895
X02855
Y020656
X02755
X027548Y022606
X028548
X028558Y024556
X027558
X027556Y026556
X028556
X02855Y028556
X02755
T04
X00365Y004372
Y007128
X0087Y006678
Y003922
X01195Y004022
X012572Y0031
X015328
X01195Y006778
X01965Y003628
Y000872
X023722Y00105
Y003
Y00495
Y00695
Y00895
X026478
Y00695
Y00495
Y003
Y00105
Y020656
Y022606
Y024556
Y026556
Y028556
X023722
Y026556
Y024556
Y022606
Y020656
X01965Y020478
Y023234
X015328Y022706
X012572
X01195Y023628
Y026384
X0087Y026284
Y023528
X00365Y023978
Y026734
T05
X02155Y01565
X02255
X02355
X0225Y0188
X0215
X0205
X02155Y035256
X02255
X02355
X0225Y038406
X0215
X0205
T06
X0051Y0034
Y0044
X0071
Y0034
X007259Y00625
Y00725
X005259
Y00625
X01325Y006509
X01425
Y004509
X01325
X0161
X0171
Y006509
X0161
X02085Y003359
X02185
Y001359
X02085
X02815Y010541
X02915
Y012541
X02815
Y013641
X02915
Y015641
X02815
Y01675
X02915
Y01875
X02815
X02185Y020965
X02085
Y022965
X02185
X0171Y024115
X0161
Y026115
X0171
X02815Y030147
X02915
X01425Y026115
X01325
Y024115
X01425
X0071Y024006
Y023006
X0051
Y024006
X005259Y025856
Y026856
X007259
Y025856
X02815Y032147
X02915
Y033247
X02815
Y035247
X02915
Y036356
X02815
Y038356
X02915
T07
X0005Y0008
X0015
X0025
X0035
X0045
X0055
X0065
X0075
X0085
X0095
X0105
X0261Y01055
Y01155
Y01255
Y01355
Y01455
Y01555
Y01655
Y01755
Y01855
Y030156
Y031156
X0105Y020406
X0095
X0085
X0075
X0065
X0055
X0045
X0035
X0025
X0015
X0005
X0261Y032156
Y033156
Y034156
Y035156
Y036156
Y037156
Y038156
T08
X0005Y0018
X0015
X0025
X0035
X0045
X0055
X0065
X0075
X0085
X0095
X0105
X0115
X0125
X0135
X0145
X0142Y0098
X0152
X0132
X0122
X0162
X0172
X0182
X0192
X0169Y01735
X0159
X0162Y029406
X0172
X0182
X0192
X0152
X0142
X0132
X0122
X0125Y021406
X0135
X0145
X0115
X0105
X0095
X0085
X0075
X0065
X0055
X0045
X0035
X0025
X0015
X0005
Y0188
X0015
X0025
X0035
X0045
X0055
X0139Y01735
X0149
Y036956
X0139
X0055Y038406
X0045
X0035
X0025
X0015
X0005
X0159Y036956
X0169
M30
