G04*
G04 #@! TF.GenerationSoftware,Altium Limited,Altium Designer,24.4.1 (13)*
G04*
G04 Layer_Color=32896*
%FSTAX25Y25*%
%MOIN*%
G70*
G04*
G04 #@! TF.SameCoordinates,020C5614-C29D-4F9E-ABEE-A2FB782F7328*
G04*
G04*
G04 #@! TF.FilePolarity,Positive*
G04*
G01*
G75*
%ADD26C,0.01000*%
%ADD27C,0.00500*%
D26*
X01575Y0041D02*
G03*
X01575Y0041I-00005J0D01*
G01*
X0129D02*
G03*
X0129Y0041I-00005J0D01*
G01*
X0296Y01605D02*
G03*
X0296Y01605I-00005J0D01*
G01*
Y01295D02*
G03*
X0296Y01295I-00005J0D01*
G01*
Y0191591D02*
G03*
X0296Y0191591I-00005J0D01*
G01*
X0205Y00095D02*
G03*
X0205Y00095I-00005J0D01*
G01*
X0049Y00765D02*
G03*
X0049Y00765I-00005J0D01*
G01*
X0075591Y003D02*
G03*
X0075591Y003I-00005J0D01*
G01*
X0190999Y0027998D02*
X0187001D01*
Y0025999D01*
X0187667Y0025333D01*
X0189D01*
X0189666Y0025999D01*
Y0027998D01*
Y0026665D02*
X0190999Y0025333D01*
Y0024D02*
Y0022667D01*
Y0023333D01*
X0187001D01*
X0187667Y0024D01*
Y0020667D02*
X0187001Y0020001D01*
Y0018668D01*
X0187667Y0018002D01*
X0190333D01*
X0190999Y0018668D01*
Y0020001D01*
X0190333Y0020667D01*
X0187667D01*
X01575Y0237063D02*
G03*
X01575Y0237063I-00005J0D01*
G01*
X0129D02*
G03*
X0129Y0237063I-00005J0D01*
G01*
X0296Y0356563D02*
G03*
X0296Y0356563I-00005J0D01*
G01*
Y0325563D02*
G03*
X0296Y0325563I-00005J0D01*
G01*
Y0387654D02*
G03*
X0296Y0387654I-00005J0D01*
G01*
X0205Y0205563D02*
G03*
X0205Y0205563I-00005J0D01*
G01*
X0049Y0272563D02*
G03*
X0049Y0272563I-00005J0D01*
G01*
X0075591Y0226063D02*
G03*
X0075591Y0226063I-00005J0D01*
G01*
X0190999Y0224061D02*
X0187001D01*
Y0222062D01*
X0187667Y0221396D01*
X0189D01*
X0189666Y0222062D01*
Y0224061D01*
Y0222728D02*
X0190999Y0221396D01*
Y0220063D02*
Y021873D01*
Y0219396D01*
X0187001D01*
X0187667Y0220063D01*
Y021673D02*
X0187001Y0216064D01*
Y0214731D01*
X0187667Y0214065D01*
X0190333D01*
X0190999Y0214731D01*
Y0216064D01*
X0190333Y021673D01*
X0187667D01*
D27*
X01965Y002939D02*
Y0032539D01*
X0192858Y0027106D02*
Y002939D01*
X0200142Y0027106D02*
Y002939D01*
X0192858D02*
X01965D01*
X0200142D01*
X01965Y0012461D02*
Y001561D01*
X0192858D02*
Y0017894D01*
Y001561D02*
X01965D01*
X0200142D01*
Y0017894D01*
X01965Y0225453D02*
Y0228602D01*
X0192858Y0223169D02*
Y0225453D01*
X0200142Y0223169D02*
Y0225453D01*
X0192858D02*
X01965D01*
X0200142D01*
X01965Y0208524D02*
Y0211673D01*
X0192858D02*
Y0213957D01*
Y0211673D02*
X01965D01*
X0200142D01*
Y0213957D01*
M02*
