G04*
G04 #@! TF.GenerationSoftware,Altium Limited,Altium Designer,24.4.1 (13)*
G04*
G04 Layer_Color=32768*
%FSTAX25Y25*%
%MOIN*%
G70*
G04*
G04 #@! TF.SameCoordinates,D68B6D5F-11C5-45A1-AF62-CA48ED7D446B*
G04*
G04*
G04 #@! TF.FilePolarity,Positive*
G04*
G01*
G75*
%ADD26C,0.00500*%
%ADD27C,0.00600*%
%ADD40C,0.00197*%
G36*
X0311839Y0363579D02*
X0311855D01*
Y0359626D01*
X0294028D01*
Y0363579D01*
Y0389201D01*
X0311839D01*
Y0363579D01*
D02*
G37*
G36*
Y0332488D02*
X0311855D01*
Y0328535D01*
X0294028D01*
Y0332488D01*
Y035811D01*
X0311839D01*
Y0332488D01*
D02*
G37*
G36*
Y0301488D02*
X0311855D01*
Y0297535D01*
X0294028D01*
Y0301488D01*
Y032711D01*
X0311839D01*
Y0301488D01*
D02*
G37*
G36*
X0093055Y0254563D02*
X006348D01*
Y0272374D01*
X0089103D01*
Y027239D01*
X0093055D01*
Y0254563D01*
D02*
G37*
G36*
X0191528Y0261138D02*
Y0235516D01*
X0173717D01*
Y0261138D01*
X0173701D01*
Y026509D01*
X0191528D01*
Y0261138D01*
D02*
G37*
G36*
X0163028D02*
Y0235516D01*
X0145217D01*
Y0261138D01*
X0145201D01*
Y026509D01*
X0163028D01*
Y0261138D01*
D02*
G37*
G36*
X0093165Y0226252D02*
X0067543D01*
Y0226236D01*
X0063591D01*
Y0244063D01*
X0093165D01*
Y0226252D01*
D02*
G37*
G36*
X0239028Y0229638D02*
Y0204016D01*
X0221217D01*
Y0229638D01*
X0221201D01*
Y0233591D01*
X0239028D01*
Y0229638D01*
D02*
G37*
G36*
X0093744Y0161307D02*
X009376D01*
Y0157354D01*
X0075933D01*
Y0161307D01*
Y0186929D01*
X0093744D01*
Y0161307D01*
D02*
G37*
G36*
X025137Y0146882D02*
X0221795D01*
Y0164693D01*
X0247417D01*
Y0164709D01*
X025137D01*
Y0146882D01*
D02*
G37*
G36*
X0169744Y0129807D02*
X016976D01*
Y0125854D01*
X0151933D01*
Y0129807D01*
Y0155429D01*
X0169744D01*
Y0129807D01*
D02*
G37*
G36*
X0141244D02*
X014126D01*
Y0125854D01*
X0123433D01*
Y0129807D01*
Y0155429D01*
X0141244D01*
Y0129807D01*
D02*
G37*
G36*
X025148Y0118571D02*
X0225858D01*
Y0118555D01*
X0221905D01*
Y0136382D01*
X025148D01*
Y0118571D01*
D02*
G37*
G36*
X0020933Y0089457D02*
Y0063835D01*
X0003122D01*
Y0089457D01*
X0003106D01*
Y009341D01*
X0020933D01*
Y0089457D01*
D02*
G37*
G36*
Y0058457D02*
Y0032835D01*
X0003122D01*
Y0058457D01*
X0003106D01*
Y006241D01*
X0020933D01*
Y0058457D01*
D02*
G37*
G36*
Y0027366D02*
Y0001744D01*
X0003122D01*
Y0027366D01*
X0003106D01*
Y0031319D01*
X0020933D01*
Y0027366D01*
D02*
G37*
D26*
X0305689Y0206563D02*
G03*
X0305689Y0206563I-0008661J0D01*
G01*
X0305671Y0226063D02*
G03*
X0305671Y0226063I-0008661J0D01*
G01*
X0305768Y0245563D02*
G03*
X0305768Y0245563I-0008661J0D01*
G01*
X030575Y0265563D02*
G03*
X030575Y0265563I-0008661J0D01*
G01*
X0305689Y0285563D02*
G03*
X0305689Y0285563I-0008661J0D01*
G01*
X0009272Y0184382D02*
G03*
X0009272Y0184382I0008661J0D01*
G01*
X000929Y0164882D02*
G03*
X000929Y0164882I0008661J0D01*
G01*
X0009193Y0145382D02*
G03*
X0009193Y0145382I0008661J0D01*
G01*
X0009211Y0125382D02*
G03*
X0009211Y0125382I0008661J0D01*
G01*
X0009272Y0105382D02*
G03*
X0009272Y0105382I0008661J0D01*
G01*
D27*
X0191528Y0235563D02*
Y0265122D01*
X0173559Y0235547D02*
X0173575D01*
X0191528Y0235563D02*
X0191543Y0235547D01*
X0173559Y0261169D02*
X0173575D01*
X0173559Y0235547D02*
X0191543D01*
X0173559Y0261169D02*
Y0265122D01*
X0191528D01*
X0173575Y0235547D02*
Y0261169D01*
X0163028Y0235563D02*
Y0265122D01*
X0145059Y0235547D02*
X0145075D01*
X0163028Y0235563D02*
X0163043Y0235547D01*
X0145059Y0261169D02*
X0145075D01*
X0145059Y0235547D02*
X0163043D01*
X0145059Y0261169D02*
Y0265122D01*
X0163028D01*
X0145075Y0235547D02*
Y0261169D01*
X0294028Y0328504D02*
Y0358063D01*
X031198Y0358079D02*
X0311996D01*
X0294012D02*
X0294028Y0358063D01*
X031198Y0332457D02*
X0311996D01*
X0294012Y0358079D02*
X0311996D01*
Y0328504D02*
Y0332457D01*
X0294028Y0328504D02*
X0311996D01*
X031198Y0332457D02*
Y0358079D01*
X0294028Y0297504D02*
Y0327063D01*
X031198Y0327079D02*
X0311996D01*
X0294012D02*
X0294028Y0327063D01*
X031198Y0301457D02*
X0311996D01*
X0294012Y0327079D02*
X0311996D01*
Y0297504D02*
Y0301457D01*
X0294028Y0297504D02*
X0311996D01*
X031198Y0301457D02*
Y0327079D01*
X0294028Y0359594D02*
Y0389154D01*
X031198Y0389169D02*
X0311996D01*
X0294012D02*
X0294028Y0389154D01*
X031198Y0363547D02*
X0311996D01*
X0294012Y0389169D02*
X0311996D01*
Y0359594D02*
Y0363547D01*
X0294028Y0359594D02*
X0311996D01*
X031198Y0363547D02*
Y0389169D01*
X0221075Y0204047D02*
Y0229669D01*
X0221059Y0233622D02*
X0239028D01*
X0221059Y0229669D02*
Y0233622D01*
Y0204047D02*
X0239043D01*
X0221059Y0229669D02*
X0221075D01*
X0239028Y0204063D02*
X0239043Y0204047D01*
X0221059D02*
X0221075D01*
X0239028Y0204063D02*
Y0233622D01*
X0063512Y0254547D02*
X0063528Y0254563D01*
X0063512Y0272516D02*
Y0272532D01*
X0063528Y0254563D02*
X0093087D01*
X0063512Y0272516D02*
X0089134D01*
X0093087Y0254563D02*
Y0272532D01*
X0089134D02*
X0093087D01*
X0063512Y0254547D02*
Y0272532D01*
X0089134Y0272516D02*
Y0272532D01*
X0067512Y022611D02*
X0093134D01*
X0063559Y0226095D02*
Y0244063D01*
Y0226095D02*
X0067512D01*
X0093134D02*
Y0244079D01*
X0067512Y0226095D02*
Y022611D01*
X0093118Y0244063D02*
X0093134Y0244079D01*
Y0226095D02*
Y022611D01*
X0063559Y0244063D02*
X0093118D01*
X0123433Y0155382D02*
Y0125823D01*
X0141401Y0155398D02*
X0141386D01*
X0123433Y0155382D02*
X0123417Y0155398D01*
X0141401Y0129776D02*
X0141386D01*
X0141401Y0155398D02*
X0123417D01*
X0141401Y0129776D02*
Y0125823D01*
X0123433D01*
X0141386Y0155398D02*
Y0129776D01*
X0151933Y0155382D02*
Y0125823D01*
X0169901Y0155398D02*
X0169886D01*
X0151933Y0155382D02*
X0151917Y0155398D01*
X0169901Y0129776D02*
X0169886D01*
X0169901Y0155398D02*
X0151917D01*
X0169901Y0129776D02*
Y0125823D01*
X0151933D01*
X0169886Y0155398D02*
Y0129776D01*
X0020933Y0062441D02*
Y0032882D01*
X000298Y0032866D02*
X0002964D01*
X0020949D02*
X0020933Y0032882D01*
X000298Y0058488D02*
X0002964D01*
X0020949Y0032866D02*
X0002964D01*
Y0062441D02*
Y0058488D01*
X0020933Y0062441D02*
X0002964D01*
X000298Y0058488D02*
Y0032866D01*
X0020933Y0093441D02*
Y0063882D01*
X000298Y0063866D02*
X0002964D01*
X0020949D02*
X0020933Y0063882D01*
X000298Y0089488D02*
X0002964D01*
X0020949Y0063866D02*
X0002964D01*
Y0093441D02*
Y0089488D01*
X0020933Y0093441D02*
X0002964D01*
X000298Y0089488D02*
Y0063866D01*
X0020933Y003135D02*
Y0001791D01*
X000298Y0001776D02*
X0002964D01*
X0020949D02*
X0020933Y0001791D01*
X000298Y0027398D02*
X0002964D01*
X0020949Y0001776D02*
X0002964D01*
Y003135D02*
Y0027398D01*
X0020933Y003135D02*
X0002964D01*
X000298Y0027398D02*
Y0001776D01*
X0093886Y0186898D02*
Y0161276D01*
X0093901Y0157323D02*
X0075933D01*
X0093901Y0161276D02*
Y0157323D01*
Y0186898D02*
X0075917D01*
X0093901Y0161276D02*
X0093886D01*
X0075933Y0186882D02*
X0075917Y0186898D01*
X0093901D02*
X0093886D01*
X0075933Y0186882D02*
Y0157323D01*
X0251449Y0136398D02*
X0251433Y0136382D01*
X0251449Y0118429D02*
Y0118413D01*
X0251433Y0136382D02*
X0221874D01*
X0251449Y0118429D02*
X0225827D01*
X0221874Y0136382D02*
Y0118413D01*
X0225827D02*
X0221874D01*
X0251449Y0136398D02*
Y0118413D01*
X0225827Y0118429D02*
Y0118413D01*
X0247449Y0164835D02*
X0221827D01*
X0251401Y016485D02*
Y0146882D01*
Y016485D02*
X0247449D01*
X0221827D02*
Y0146866D01*
X0247449Y016485D02*
Y0164835D01*
X0221842Y0146882D02*
X0221827Y0146866D01*
Y016485D02*
Y0164835D01*
X0251401Y0146882D02*
X0221842D01*
D40*
X0214512Y0288079D02*
Y0300047D01*
X0132543Y0288079D02*
X0214512D01*
X0132543D02*
Y0300047D01*
X0214512D01*
X0191512Y0363579D02*
Y0375547D01*
X0149543Y0363579D02*
X0191512Y0363579D01*
X0149543Y0363579D02*
Y0375547D01*
X0191512Y0375547D01*
X0015543Y0378079D02*
Y0390047D01*
X0077512D01*
Y0378079D02*
Y0390047D01*
X0015543Y0378079D02*
X0077512D01*
X0275402Y0269028D02*
X0284772D01*
X0275402D02*
Y0270189D01*
X0259654D02*
X0275402D01*
X0259654Y0229528D02*
Y0230689D01*
X0250284Y0229528D02*
X0259654D01*
X0250284Y0222598D02*
Y0229528D01*
Y0222598D02*
X0259654D01*
Y0221437D02*
Y0222598D01*
Y0221437D02*
X0275402D01*
Y0222598D01*
X0284772D01*
Y0229528D01*
X0275402D02*
X0284772D01*
X0275402D02*
Y0230689D01*
X0259654D02*
X0275402D01*
X0215543Y0378079D02*
X0247512D01*
Y0390047D01*
X0215543D02*
X0247512D01*
X0215543Y0378079D02*
Y0390047D01*
X0014539Y0219791D02*
X0168516D01*
X0014539Y0208335D02*
Y0219791D01*
Y0208335D02*
X0168516D01*
Y0219791D01*
X0106992Y0256937D02*
X0108154D01*
X0106992D02*
Y0266307D01*
X0100063D02*
X0106992D01*
X0100063Y0256937D02*
Y0266307D01*
X0098902Y0256937D02*
X0100063D01*
X0098902Y0241189D02*
Y0256937D01*
Y0241189D02*
X0100063D01*
Y0231819D02*
Y0241189D01*
Y0231819D02*
X0106992D01*
Y0241189D01*
X0108154D01*
Y0256937D01*
X0226043Y0346579D02*
X0258012Y0346579D01*
Y0358547D01*
X0226043Y0358547D02*
X0258012Y0358547D01*
X0226043Y0346579D02*
Y0358547D01*
X0259654Y0211189D02*
X0275402D01*
Y0210028D02*
Y0211189D01*
Y0210028D02*
X0284772D01*
Y0203098D02*
Y0210028D01*
X0275402Y0203098D02*
X0284772D01*
X0275402Y0201937D02*
Y0203098D01*
X0259654Y0201937D02*
X0275402D01*
X0259654D02*
Y0203098D01*
X0250284D02*
X0259654D01*
X0250284D02*
Y0210028D01*
X0259654D01*
Y0211189D01*
Y0289028D02*
Y0290189D01*
X0250284Y0289028D02*
X0259654D01*
X0250284Y0282098D02*
Y0289028D01*
Y0282098D02*
X0259654D01*
Y0280937D02*
Y0282098D01*
Y0280937D02*
X0275402D01*
Y0282098D01*
X0284772D01*
Y0289028D01*
X0275402D02*
X0284772D01*
X0275402D02*
Y0290189D01*
X0259654D02*
X0275402D01*
X0259654Y0249028D02*
Y0250189D01*
X0250284Y0249028D02*
X0259654D01*
X0250284Y0242098D02*
Y0249028D01*
Y0242098D02*
X0259654D01*
Y0240937D02*
Y0242098D01*
Y0240937D02*
X0275402D01*
Y0242098D01*
X0284772D01*
Y0249028D01*
X0275402D02*
X0284772D01*
X0275402D02*
Y0250189D01*
X0259654D02*
X0275402D01*
X0259654Y0269028D02*
Y0270189D01*
X0250284Y0269028D02*
X0259654D01*
X0250284Y0262098D02*
Y0269028D01*
Y0262098D02*
X0259654D01*
Y0260937D02*
Y0262098D01*
Y0260937D02*
X0275402D01*
Y0262098D01*
X0284772D01*
Y0269028D01*
X0208402Y0210689D02*
Y0226437D01*
X0209563D01*
Y0235807D01*
X0216492D01*
Y0226437D02*
Y0235807D01*
Y0226437D02*
X0217654D01*
Y0210689D02*
Y0226437D01*
X0056492Y0261437D02*
X0057654D01*
X0056492D02*
Y0270807D01*
X0049563D02*
X0056492D01*
X0049563Y0261437D02*
Y0270807D01*
X0048402Y0261437D02*
X0049563D01*
X0048402Y0245689D02*
Y0261437D01*
Y0245689D02*
X0049563D01*
Y0236319D02*
Y0245689D01*
Y0236319D02*
X0056492D01*
Y0245689D01*
X0057654D01*
Y0261437D01*
X0139492Y0257937D02*
X0140654D01*
X0139492D02*
Y0267307D01*
X0132563D02*
X0139492D01*
X0132563Y0257937D02*
Y0267307D01*
X0131402Y0257937D02*
X0132563D01*
X0131402Y0242189D02*
Y0257937D01*
Y0242189D02*
X0132563D01*
Y0232819D02*
Y0242189D01*
Y0232819D02*
X0139492D01*
Y0242189D01*
X0140654D01*
Y0257937D01*
X0163902Y0222437D02*
Y0223598D01*
X0173272D01*
Y0230528D01*
X0163902D02*
X0173272D01*
X0163902D02*
Y0231689D01*
X0148154D02*
X0163902D01*
X0148154Y0230528D02*
Y0231689D01*
X0138784Y0230528D02*
X0148154D01*
X0138784Y0223598D02*
Y0230528D01*
Y0223598D02*
X0148154D01*
Y0222437D02*
Y0223598D01*
Y0222437D02*
X0163902D01*
X0216492Y0210689D02*
X0217654D01*
X0216492Y0201319D02*
Y0210689D01*
X0209563Y0201319D02*
X0216492D01*
X0209563D02*
Y0210689D01*
X0208402D02*
X0209563D01*
X0100449Y0102866D02*
Y0090898D01*
X0182417Y0102866D02*
X0100449D01*
X0182417D02*
Y0090898D01*
X0100449D01*
X0123449Y0027366D02*
Y0015398D01*
X0165417Y0027366D02*
X0123449Y0027366D01*
X0165417Y0027366D02*
Y0015398D01*
X0123449Y0015398D01*
X0299417Y0012866D02*
Y0000898D01*
X0237449D01*
Y0012866D02*
Y0000898D01*
X0299417Y0012866D02*
X0237449D01*
X0039559Y0121917D02*
X0030189D01*
X0039559D02*
Y0120756D01*
X0055307D02*
X0039559D01*
X0055307Y0161417D02*
Y0160256D01*
X0064677Y0161417D02*
X0055307D01*
X0064677Y0168347D02*
Y0161417D01*
Y0168347D02*
X0055307D01*
Y0169508D02*
Y0168347D01*
Y0169508D02*
X0039559D01*
Y0168347D01*
X0030189D01*
Y0161417D01*
X0039559D02*
X0030189D01*
X0039559D02*
Y0160256D01*
X0055307D02*
X0039559D01*
X0099417Y0012866D02*
X0067449D01*
Y0000898D01*
X0099417D02*
X0067449D01*
X0099417Y0012866D02*
Y0000898D01*
X0300421Y0171153D02*
X0146445D01*
X0300421Y018261D02*
Y0171153D01*
Y018261D02*
X0146445D01*
Y0171153D01*
X0207968Y0134008D02*
X0206807D01*
X0207968D02*
Y0124638D01*
X0214897D02*
X0207968D01*
X0214897Y0134008D02*
Y0124638D01*
X0216059Y0134008D02*
X0214897D01*
X0216059Y0149756D02*
Y0134008D01*
Y0149756D02*
X0214897D01*
Y0159126D02*
Y0149756D01*
Y0159126D02*
X0207968D01*
Y0149756D01*
X0206807D01*
Y0134008D01*
X0088917Y0044366D02*
X0056949Y0044366D01*
Y0032398D01*
X0088917Y0032398D02*
X0056949Y0032398D01*
X0088917Y0044366D02*
Y0032398D01*
X0055307Y0179756D02*
X0039559D01*
Y0180917D02*
Y0179756D01*
Y0180917D02*
X0030189D01*
Y0187847D02*
Y0180917D01*
X0039559Y0187847D02*
X0030189D01*
X0039559Y0189008D02*
Y0187847D01*
X0055307Y0189008D02*
X0039559D01*
X0055307D02*
Y0187847D01*
X0064677D02*
X0055307D01*
X0064677D02*
Y0180917D01*
X0055307D01*
Y0179756D01*
Y0101917D02*
Y0100756D01*
X0064677Y0101917D02*
X0055307D01*
X0064677Y0108846D02*
Y0101917D01*
Y0108846D02*
X0055307D01*
Y0110008D02*
Y0108846D01*
Y0110008D02*
X0039559D01*
Y0108846D01*
X0030189D01*
Y0101917D01*
X0039559D02*
X0030189D01*
X0039559D02*
Y0100756D01*
X0055307D02*
X0039559D01*
X0055307Y0141917D02*
Y0140756D01*
X0064677Y0141917D02*
X0055307D01*
X0064677Y0148846D02*
Y0141917D01*
Y0148846D02*
X0055307D01*
Y0150008D02*
Y0148846D01*
Y0150008D02*
X0039559D01*
Y0148846D01*
X0030189D01*
Y0141917D01*
X0039559D02*
X0030189D01*
X0039559D02*
Y0140756D01*
X0055307D02*
X0039559D01*
X0055307Y0121917D02*
Y0120756D01*
X0064677Y0121917D02*
X0055307D01*
X0064677Y0128847D02*
Y0121917D01*
Y0128847D02*
X0055307D01*
Y0130008D02*
Y0128847D01*
Y0130008D02*
X0039559D01*
Y0128847D01*
X0030189D01*
Y0121917D01*
X0106559Y0180256D02*
Y0164508D01*
X0105397D01*
Y0155138D01*
X0098468D01*
Y0164508D02*
Y0155138D01*
Y0164508D02*
X0097307D01*
Y0180256D02*
Y0164508D01*
X0258468Y0129508D02*
X0257307D01*
X0258468D02*
Y0120138D01*
X0265398D02*
X0258468D01*
X0265398Y0129508D02*
Y0120138D01*
X0266559Y0129508D02*
X0265398D01*
X0266559Y0145256D02*
Y0129508D01*
Y0145256D02*
X0265398D01*
Y0154626D02*
Y0145256D01*
Y0154626D02*
X0258468D01*
Y0145256D01*
X0257307D01*
Y0129508D01*
X0175468Y0133008D02*
X0174307D01*
X0175468D02*
Y0123638D01*
X0182397D02*
X0175468D01*
X0182397Y0133008D02*
Y0123638D01*
X0183559Y0133008D02*
X0182397D01*
X0183559Y0148756D02*
Y0133008D01*
Y0148756D02*
X0182397D01*
Y0158126D02*
Y0148756D01*
Y0158126D02*
X0175468D01*
Y0148756D01*
X0174307D01*
Y0133008D01*
X0151059Y0168508D02*
Y0167347D01*
X0141689D01*
Y0160417D01*
X0151059D02*
X0141689D01*
X0151059D02*
Y0159256D01*
X0166807D02*
X0151059D01*
X0166807Y0160417D02*
Y0159256D01*
X0176177Y0160417D02*
X0166807D01*
X0176177Y0167347D02*
Y0160417D01*
Y0167347D02*
X0166807D01*
Y0168508D02*
Y0167347D01*
Y0168508D02*
X0151059D01*
X0098468Y0180256D02*
X0097307D01*
X0098468Y0189626D02*
Y0180256D01*
X0105397Y0189626D02*
X0098468D01*
X0105397D02*
Y0180256D01*
X0106559D02*
X0105397D01*
M02*
