G04*
G04 #@! TF.GenerationSoftware,Altium Limited,Altium Designer,24.4.1 (13)*
G04*
G04 Layer_Physical_Order=1*
G04 Layer_Color=255*
%FSTAX25Y25*%
%MOIN*%
G70*
G04*
G04 #@! TF.SameCoordinates,4F89C50D-CA39-40AE-AD00-445C0AD72F43*
G04*
G04*
G04 #@! TF.FilePolarity,Positive*
G04*
G01*
G75*
%ADD10C,0.02178*%
%ADD11C,0.03000*%
%ADD12C,0.02000*%
%ADD13C,0.01500*%
%ADD14C,0.04953*%
%ADD15C,0.05394*%
%ADD16R,0.05394X0.05394*%
%ADD17R,0.04578X0.04578*%
%ADD18C,0.04578*%
%ADD19C,0.06000*%
%ADD20C,0.05937*%
%ADD21R,0.05394X0.05394*%
%ADD22C,0.04756*%
%ADD23R,0.04756X0.04756*%
%ADD24C,0.02200*%
D10*
X0100708Y0154288D02*
G03*
X0103788Y0154288I000154J000154D01*
G01*
X0100012Y0154985D02*
G03*
X0097057Y0154985I-0001477J-0001477D01*
G01*
X0097057Y0154985D02*
G03*
X0097057Y015203I0001477J-0001477D01*
G01*
X0102059Y0144074D02*
G03*
X0102059Y0147028I-0001477J0001477D01*
G01*
X0099104Y0144074D02*
G03*
X0102059Y0144074I0001477J0001477D01*
G01*
X0094103Y0149076D02*
G03*
X0091148Y0149076I-0001477J-0001477D01*
G01*
X0091148Y0149076D02*
G03*
X0091148Y0146121I0001477J-0001477D01*
G01*
X009615Y0138165D02*
G03*
X009615Y0141119I-0001477J0001477D01*
G01*
X0093195Y0138165D02*
G03*
X009615Y0138165I0001477J0001477D01*
G01*
X0088194Y0143166D02*
G03*
X0085239Y0143167I-0001477J-0001477D01*
G01*
X0085239Y0143166D02*
G03*
X0085239Y0140212I0001477J-0001477D01*
G01*
X00905Y0133474D02*
G03*
X0089457Y0135994I-0003566J0D01*
G01*
X0163322Y0074159D02*
G03*
X01655Y0076337I0J0002178D01*
G01*
X0161589Y0074159D02*
G03*
X01595Y007207I0J-0002089D01*
G01*
Y007207D02*
G03*
X0161589Y0069981I0002089J0D01*
G01*
X01715Y0067892D02*
G03*
X0169411Y0069981I-0002089J0D01*
G01*
Y0065802D02*
G03*
X01715Y0067892I0J0002089D01*
G01*
X0161589Y0065802D02*
G03*
X01595Y0063713I0J-0002089D01*
G01*
Y0063713D02*
G03*
X0161589Y0061624I0002089J0D01*
G01*
X0170911Y0059535D02*
G03*
X0168822Y0061624I-0002089J0D01*
G01*
Y0057446D02*
G03*
X0170911Y0059535I0J0002089D01*
G01*
X0161589Y0057446D02*
G03*
X01595Y0055357I0J-0002089D01*
G01*
Y0055357D02*
G03*
X0161589Y0053268I0002089J0D01*
G01*
X01655Y0051089D02*
G03*
X0163322Y0053268I-0002178J0D01*
G01*
X0132213Y0157089D02*
G03*
X0134802Y01545I0002589J0D01*
G01*
X0132213Y017489D02*
G03*
X0129624Y0177479I-0002589J0D01*
G01*
X0129624D02*
G03*
X0127035Y017489I0J-0002589D01*
G01*
X0124446Y0153898D02*
G03*
X0127035Y0156488I0J0002589D01*
G01*
X0121857D02*
G03*
X0124446Y0153898I0002589J0D01*
G01*
X0121857Y017489D02*
G03*
X0119267Y0177479I-0002589J0D01*
G01*
X0119267D02*
G03*
X0116678Y017489I0J-0002589D01*
G01*
X0114089Y01545D02*
G03*
X0116678Y0157089I0J0002589D01*
G01*
X0043Y00405D02*
X0059Y00245D01*
X0043Y00975D02*
X005Y01045D01*
X0043Y00405D02*
Y00975D01*
X00535Y0082D02*
X00565Y0079D01*
X00535Y0087D02*
X0061Y00945D01*
X00535Y0082D02*
Y0087D01*
X0061Y00945D02*
X0062D01*
X00565Y0037D02*
Y0079D01*
Y0037D02*
X0064Y00295D01*
X0062Y0083466D02*
X0064Y0081466D01*
Y004D02*
X00695Y00345D01*
X0062Y0083466D02*
Y00845D01*
X0064Y004D02*
Y0081466D01*
X02645Y01215D02*
X03D01*
X03Y01215D01*
X01645Y01245D02*
X02615D01*
X02645Y01215D01*
X02915Y0144D02*
Y0153D01*
X03Y01615D01*
X01655Y0104D02*
X01805Y0119D01*
X0253D01*
X018Y014D02*
X021D01*
X0179996Y0139996D02*
X018Y014D01*
X01865Y0113D02*
X0253D01*
X01175Y0149D02*
X01485D01*
X01755Y0102D02*
X01865Y0113D01*
X01755Y00945D02*
Y0102D01*
X01655Y00945D02*
Y0104D01*
X01455Y00945D02*
Y01055D01*
X01645Y01245D01*
X0097Y01285D02*
X01175Y0149D01*
X0097Y00435D02*
Y01285D01*
X0104Y01545D02*
X011192D01*
X0103788Y0154288D02*
X0104Y01545D01*
X0100012Y0154985D02*
X0100708Y0154288D01*
X0100012Y0154985D02*
X0100012Y0154985D01*
X0097057Y0154985D02*
X0097057Y0154985D01*
X0097057Y015203D02*
X0097057Y015203D01*
X0102059Y0147028D01*
X0102059Y0147028D02*
X0102059Y0147028D01*
X0102059Y0144074D02*
X0102059Y0144074D01*
X0099104Y0144074D02*
X0099104Y0144074D01*
X0094103Y0149076D02*
X0099104Y0144074D01*
X0094103Y0149076D02*
X0094103Y0149076D01*
X0091148Y0149076D02*
X0091148Y0149076D01*
X0091148Y0146121D02*
X0091148Y0146121D01*
X009615Y0141119D01*
X009615Y0141119D02*
X009615Y0141119D01*
X009615Y0138165D02*
X009615Y0138165D01*
X0093195Y0138165D02*
X0093195Y0138165D01*
X0088194Y0143167D02*
X0093195Y0138165D01*
X0088194Y0143166D02*
X0088194Y0143167D01*
X0085239Y0143166D02*
X0085239Y0143167D01*
X0085239Y0140212D02*
X0085239Y0140212D01*
X0089457Y0135994D01*
X00905Y0131934D02*
Y0133474D01*
Y00975D02*
Y0131934D01*
X01655Y0076337D02*
Y0083D01*
X0161589Y0074159D02*
X0163322D01*
X01595Y007207D02*
Y007207D01*
X0161589Y0069981D02*
X0169411D01*
X01715Y0067892D02*
Y0067892D01*
X0161589Y0065802D02*
X0169411D01*
X01595Y0063713D02*
Y0063713D01*
X0161589Y0061624D02*
X0168822D01*
X0170911Y0059535D02*
Y0059535D01*
X0161589Y0057446D02*
X0168822D01*
X01595Y0055357D02*
Y0055357D01*
X0161589Y0053268D02*
X0163322D01*
X01655Y005D02*
Y0051089D01*
Y0083D02*
Y00945D01*
Y0042D02*
Y005D01*
X0088994Y0086D02*
X0089D01*
X00915Y00885D02*
Y00885D01*
X0089Y0086D02*
X00915Y00885D01*
X0072Y00845D02*
X0087494D01*
X0088994Y0086D01*
X00845Y00915D02*
X00905Y00975D01*
X0075Y00915D02*
X00845D01*
X0083Y00295D02*
X0097Y00435D01*
X0072Y00945D02*
X0075Y00915D01*
X01525Y00425D02*
Y0084D01*
X01455Y00945D02*
X0145789Y0094211D01*
Y0090711D02*
Y0094211D01*
Y0090711D02*
X01525Y0084D01*
X0142Y0032D02*
X01525Y00425D01*
X00975Y0032D02*
X0142D01*
X00995Y0025D02*
X01485D01*
X01655Y0042D01*
X009Y00245D02*
X00975Y0032D01*
X0059Y00245D02*
X009D01*
X0134802Y01545D02*
X0139D01*
X0132213Y0157089D02*
Y017489D01*
X0129624Y0177479D02*
X0129624D01*
X0127035Y0156488D02*
Y017489D01*
X0124446Y0153898D02*
X0124446D01*
X0121857Y0156488D02*
Y017489D01*
X0119267Y0177479D02*
X0119267D01*
X0116678Y0157089D02*
Y017489D01*
X0113Y01545D02*
X0114089D01*
X0139D02*
X0163D01*
X011192D02*
X0113D01*
X0174885Y0168885D02*
X01755Y01695D01*
X0174885Y0166385D02*
Y0168885D01*
X0163Y01545D02*
X0174885Y0166385D01*
X0064Y00295D02*
X0083D01*
X005Y01045D02*
X0062D01*
X00695Y00345D02*
X0080083D01*
X0100708Y0344446D02*
G03*
X0103788Y0344446I000154J000154D01*
G01*
X0100012Y0345142D02*
G03*
X0097057Y0345142I-0001477J-0001477D01*
G01*
X0097057Y0345142D02*
G03*
X0097057Y0342188I0001477J-0001477D01*
G01*
X0102059Y0334231D02*
G03*
X0102059Y0337186I-0001477J0001477D01*
G01*
X0099104Y0334231D02*
G03*
X0102059Y0334231I0001477J0001477D01*
G01*
X0094103Y0339233D02*
G03*
X0091148Y0339233I-0001477J-0001477D01*
G01*
X0091148Y0339233D02*
G03*
X0091148Y0336279I0001477J-0001477D01*
G01*
X009615Y0328322D02*
G03*
X009615Y0331277I-0001477J0001477D01*
G01*
X0093195Y0328322D02*
G03*
X009615Y0328322I0001477J0001477D01*
G01*
X0088194Y0333324D02*
G03*
X0085239Y0333324I-0001477J-0001477D01*
G01*
X0085239Y0333324D02*
G03*
X0085239Y0330369I0001477J-0001477D01*
G01*
X00905Y0323631D02*
G03*
X0089457Y0326151I-0003566J0D01*
G01*
X0163322Y0264317D02*
G03*
X01655Y0266495I0J0002178D01*
G01*
X0161589Y0264317D02*
G03*
X01595Y0262227I0J-0002089D01*
G01*
Y0262227D02*
G03*
X0161589Y0260138I0002089J0D01*
G01*
X01715Y0258049D02*
G03*
X0169411Y0260138I-0002089J0D01*
G01*
Y025596D02*
G03*
X01715Y0258049I0J0002089D01*
G01*
X0161589Y025596D02*
G03*
X01595Y0253871I0J-0002089D01*
G01*
Y0253871D02*
G03*
X0161589Y0251782I0002089J0D01*
G01*
X0170911Y0249693D02*
G03*
X0168822Y0251782I-0002089J0D01*
G01*
Y0247603D02*
G03*
X0170911Y0249693I0J0002089D01*
G01*
X0161589Y0247603D02*
G03*
X01595Y0245514I0J-0002089D01*
G01*
Y0245514D02*
G03*
X0161589Y0243425I0002089J0D01*
G01*
X01655Y0241247D02*
G03*
X0163322Y0243425I-0002178J0D01*
G01*
X0132213Y0347247D02*
G03*
X0134802Y0344657I0002589J0D01*
G01*
X0132213Y0365048D02*
G03*
X0129624Y0367637I-0002589J0D01*
G01*
X0129624D02*
G03*
X0127035Y0365048I0J-0002589D01*
G01*
X0124446Y0344056D02*
G03*
X0127035Y0346645I0J0002589D01*
G01*
X0121857D02*
G03*
X0124446Y0344056I0002589J0D01*
G01*
X0121857Y0365048D02*
G03*
X0119267Y0367637I-0002589J0D01*
G01*
X0119267D02*
G03*
X0116678Y0365048I0J-0002589D01*
G01*
X0114089Y0344657D02*
G03*
X0116678Y0347247I0J0002589D01*
G01*
X0043Y0230658D02*
X0059Y0214657D01*
X0043Y0287657D02*
X005Y0294657D01*
X0043Y0230658D02*
Y0287657D01*
X00535Y0272158D02*
X00565Y0269158D01*
X00535Y0277157D02*
X0061Y0284658D01*
X00535Y0272158D02*
Y0277157D01*
X0061Y0284658D02*
X0062D01*
X00565Y0227157D02*
Y0269158D01*
Y0227157D02*
X0064Y0219657D01*
X0062Y0273623D02*
X0064Y0271623D01*
Y0230157D02*
X00695Y0224658D01*
X0062Y0273623D02*
Y0274658D01*
X0064Y0230157D02*
Y0271623D01*
X02645Y0311658D02*
X03D01*
X03Y0311658D01*
X01645Y0314657D02*
X02615D01*
X02645Y0311658D01*
X02915Y0334157D02*
Y0343158D01*
X03Y0351658D01*
X01655Y0294158D02*
X01805Y0309157D01*
X0253D01*
X018Y0330157D02*
X021D01*
X0179996Y0330153D02*
X018Y0330157D01*
X01865Y0303157D02*
X0253D01*
X01175Y0339158D02*
X01485D01*
X01755Y0292158D02*
X01865Y0303157D01*
X01755Y0284658D02*
Y0292158D01*
X01655Y0284658D02*
Y0294158D01*
X01455Y0284658D02*
Y0295657D01*
X01645Y0314657D01*
X0097Y0318657D02*
X01175Y0339158D01*
X0097Y0233658D02*
Y0318657D01*
X0104Y0344657D02*
X011192D01*
X0103788Y0344446D02*
X0104Y0344657D01*
X0100012Y0345142D02*
X0100708Y0344446D01*
X0100012Y0345142D02*
X0100012Y0345142D01*
X0097057Y0345142D02*
X0097057Y0345142D01*
X0097057Y0342188D02*
X0097057Y0342188D01*
X0102059Y0337186D01*
X0102059Y0337186D02*
X0102059Y0337186D01*
X0102059Y0334231D02*
X0102059Y0334231D01*
X0099104Y0334231D02*
X0099104Y0334231D01*
X0094103Y0339233D02*
X0099104Y0334231D01*
X0094103Y0339233D02*
X0094103Y0339233D01*
X0091148Y0339233D02*
X0091148Y0339233D01*
X0091148Y0336279D02*
X0091148Y0336279D01*
X009615Y0331277D01*
X009615Y0331277D02*
X009615Y0331277D01*
X009615Y0328322D02*
X009615Y0328322D01*
X0093195Y0328322D02*
X0093195Y0328322D01*
X0088194Y0333324D02*
X0093195Y0328322D01*
X0088194Y0333324D02*
X0088194Y0333324D01*
X0085239Y0333324D02*
X0085239Y0333324D01*
X0085239Y0330369D02*
X0085239Y0330369D01*
X0089457Y0326151D01*
X00905Y0322091D02*
Y0323631D01*
Y0287657D02*
Y0322091D01*
X01655Y0266495D02*
Y0273158D01*
X0161589Y0264317D02*
X0163322D01*
X01595Y0262227D02*
Y0262227D01*
X0161589Y0260138D02*
X0169411D01*
X01715Y0258049D02*
Y0258049D01*
X0161589Y025596D02*
X0169411D01*
X01595Y0253871D02*
Y0253871D01*
X0161589Y0251782D02*
X0168822D01*
X0170911Y0249693D02*
Y0249693D01*
X0161589Y0247603D02*
X0168822D01*
X01595Y0245514D02*
Y0245514D01*
X0161589Y0243425D02*
X0163322D01*
X01655Y0240158D02*
Y0241247D01*
Y0273158D02*
Y0284658D01*
Y0232157D02*
Y0240158D01*
X0088994Y0276157D02*
X0089D01*
X00915Y0278658D02*
Y0278658D01*
X0089Y0276157D02*
X00915Y0278658D01*
X0072Y0274658D02*
X0087494D01*
X0088994Y0276157D01*
X00845Y0281658D02*
X00905Y0287657D01*
X0075Y0281658D02*
X00845D01*
X0083Y0219657D02*
X0097Y0233658D01*
X0072Y0284658D02*
X0075Y0281658D01*
X01525Y0232658D02*
Y0274158D01*
X01455Y0284658D02*
X0145789Y0284368D01*
Y0280868D02*
Y0284368D01*
Y0280868D02*
X01525Y0274158D01*
X0142Y0222158D02*
X01525Y0232658D01*
X00975Y0222158D02*
X0142D01*
X00995Y0215158D02*
X01485D01*
X01655Y0232157D01*
X009Y0214657D02*
X00975Y0222158D01*
X0059Y0214657D02*
X009D01*
X0134802Y0344657D02*
X0139D01*
X0132213Y0347247D02*
Y0365048D01*
X0129624Y0367637D02*
X0129624D01*
X0127035Y0346645D02*
Y0365048D01*
X0124446Y0344056D02*
X0124446D01*
X0121857Y0346645D02*
Y0365048D01*
X0119267Y0367637D02*
X0119267D01*
X0116678Y0347247D02*
Y0365048D01*
X0113Y0344657D02*
X0114089D01*
X0139D02*
X0163D01*
X011192D02*
X0113D01*
X0174885Y0359042D02*
X01755Y0359658D01*
X0174885Y0356542D02*
Y0359042D01*
X0163Y0344657D02*
X0174885Y0356542D01*
X0064Y0219657D02*
X0083D01*
X005Y0294657D02*
X0062D01*
X00695Y0224658D02*
X0080083D01*
D11*
X00185Y0009D02*
X01195D01*
X00155D02*
X00185D01*
X00155Y0012D02*
X00185Y0009D01*
X0295688Y0105D02*
X0299188Y01015D01*
X0191Y0105D02*
X0295688D01*
X0185958Y0099958D02*
X0191Y0105D01*
X0299188Y01015D02*
X03D01*
X0185958Y0094958D02*
Y0099958D01*
X01855Y00945D02*
X0185958Y0094958D01*
X01255Y0015D02*
X01875D01*
X02095Y0037D02*
Y00465D01*
X01875Y0015D02*
X02095Y0037D01*
X02035Y00525D02*
Y0058D01*
Y00525D02*
X02095Y00465D01*
X02035Y0058D02*
X0208Y00625D01*
X01855Y00945D02*
Y00945D01*
Y00945D02*
X0208Y0072D01*
Y00625D02*
Y0072D01*
X01695Y0023D02*
X0172Y00255D01*
X01195Y0009D02*
X01255Y0015D01*
X00615Y002D02*
X00685D01*
X00155Y0009D02*
Y0012D01*
X0023221Y00405D02*
X00325Y0049779D01*
X0021168Y0038447D02*
X0023221Y00405D01*
X00325Y0049779D02*
Y0135D01*
X0004343Y0043657D02*
Y0054D01*
X0028Y002D02*
X00615D01*
X0004421Y0054079D02*
Y0132421D01*
X0004343Y0043657D02*
X0028Y002D01*
X00325Y0135D02*
X0062Y01645D01*
X01745Y0028D02*
Y004828D01*
X01815Y0055279D02*
Y0069279D01*
X01745Y004828D02*
X01815Y0055279D01*
X0172Y00255D02*
X01745Y0028D01*
X0128811Y0005D02*
X022D01*
X02495Y00345D01*
X0137Y01845D02*
X0252D01*
X0072D02*
X0137D01*
X0145Y00485D02*
Y0063D01*
X0139062Y0042562D02*
X0145Y00485D01*
X0138562Y0069438D02*
X0145Y0063D01*
X0135591Y007D02*
X0136153Y0069438D01*
X0138562D01*
X0135591Y0042D02*
X0136153Y0042562D01*
X0139062D01*
X0062Y01745D02*
X01065D01*
X01115Y01695D01*
Y01655D02*
Y01695D01*
X01455D02*
Y0176D01*
X0137Y01845D02*
X01455Y0176D01*
X02495Y00345D02*
X02625D01*
X02675Y00395D01*
Y0056591D01*
X0259Y0065091D02*
X02675Y0056591D01*
X0062Y01845D02*
X0072D01*
X0072Y01845D01*
X00565Y01845D02*
X0062D01*
X00045Y01325D02*
X00565Y01845D01*
X0004421Y0132421D02*
X00045Y01325D01*
X0004343Y0054D02*
X0004421Y0054079D01*
X00185Y0199158D02*
X01195D01*
X00155D02*
X00185D01*
X00155Y0202157D02*
X00185Y0199158D01*
X0295688Y0295158D02*
X0299188Y0291657D01*
X0191Y0295158D02*
X0295688D01*
X0185958Y0290115D02*
X0191Y0295158D01*
X0299188Y0291657D02*
X03D01*
X0185958Y0285116D02*
Y0290115D01*
X01855Y0284658D02*
X0185958Y0285116D01*
X01255Y0205157D02*
X01875D01*
X02095Y0227157D02*
Y0236658D01*
X01875Y0205157D02*
X02095Y0227157D01*
X02035Y0242657D02*
Y0248158D01*
Y0242657D02*
X02095Y0236658D01*
X02035Y0248158D02*
X0208Y0252658D01*
X01855Y0284658D02*
Y0284658D01*
Y0284658D02*
X0208Y0262158D01*
Y0252658D02*
Y0262158D01*
X01695Y0213158D02*
X0172Y0215657D01*
X01195Y0199158D02*
X01255Y0205157D01*
X00615Y0210157D02*
X00685D01*
X00155Y0199158D02*
Y0202157D01*
X0023221Y0230658D02*
X00325Y0239937D01*
X0021168Y0228605D02*
X0023221Y0230658D01*
X00325Y0239937D02*
Y0325157D01*
X0004343Y0233815D02*
Y0244158D01*
X0028Y0210157D02*
X00615D01*
X0004421Y0244236D02*
Y0322579D01*
X0004343Y0233815D02*
X0028Y0210157D01*
X00325Y0325157D02*
X0062Y0354658D01*
X01745Y0218158D02*
Y0238437D01*
X01815Y0245437D02*
Y0259437D01*
X01745Y0238437D02*
X01815Y0245437D01*
X0172Y0215657D02*
X01745Y0218158D01*
X0128811Y0195158D02*
X022D01*
X02495Y0224658D01*
X0137Y0374658D02*
X0252D01*
X0072D02*
X0137D01*
X0145Y0238657D02*
Y0253157D01*
X0139062Y0232719D02*
X0145Y0238657D01*
X0138562Y0259595D02*
X0145Y0253157D01*
X0135591Y0260157D02*
X0136153Y0259595D01*
X0138562D01*
X0135591Y0232157D02*
X0136153Y0232719D01*
X0139062D01*
X0062Y0364657D02*
X01065D01*
X01115Y0359658D01*
Y0355658D02*
Y0359658D01*
X01455D02*
Y0366158D01*
X0137Y0374658D02*
X01455Y0366158D01*
X02495Y0224658D02*
X02625D01*
X02675Y0229658D01*
Y0246748D01*
X0259Y0255248D02*
X02675Y0246748D01*
X0062Y0374658D02*
X0072D01*
X0072Y0374658D01*
X00565Y0374658D02*
X0062D01*
X00045Y0322657D02*
X00565Y0374658D01*
X0004421Y0322579D02*
X00045Y0322657D01*
X0004343Y0244158D02*
X0004421Y0244236D01*
D12*
X0265054Y01315D02*
X03D01*
X0263Y01335D02*
X0263054D01*
X0265054Y01315D01*
X0252Y01345D02*
X02555Y0138D01*
X02965D01*
X03Y01415D01*
X0251351Y0145149D02*
X0252Y01445D01*
X0249482Y0145149D02*
X0251351D01*
X0249132Y01455D02*
X0249482Y0145149D01*
X0157Y01455D02*
X0249132D01*
X01355Y0124D02*
X0157Y01455D01*
X027075Y0164D02*
X0278D01*
X02855Y01715D02*
X03D01*
X0278Y0164D02*
X02855Y01715D01*
X0184054Y01345D02*
X0252D01*
X0181554Y0132D02*
X0184054Y01345D01*
X01815Y0132D02*
X0181554D01*
X01555Y0101D02*
X01655Y0111D01*
X01555Y00945D02*
Y0101D01*
X01355Y00945D02*
Y0124D01*
X0303697Y0186803D02*
X0307Y01835D01*
X0255172Y0186803D02*
X0303697D01*
X0252868Y01845D02*
X0255172Y0186803D01*
X0252Y01845D02*
X0252868D01*
X03Y01115D02*
X0300743Y0112243D01*
X0303743D02*
X0307Y01155D01*
Y01835D01*
X0300743Y0112243D02*
X0303743D01*
X0273409Y0073D02*
X02845Y0061909D01*
X024422Y0073D02*
X0273409D01*
X024Y0068779D02*
X024422Y0073D01*
X024Y0068779D02*
X0240799D01*
X02845Y00535D02*
Y0061909D01*
X0299684Y00385D02*
X0300749D01*
X0298088Y0040096D02*
X0299684Y00385D01*
X0297904Y0040096D02*
X0298088D01*
X02845Y00535D02*
X0297904Y0040096D01*
X02845Y0061909D02*
X03015Y0078909D01*
X0062Y01645D02*
X0072D01*
X0014343Y0054D02*
X0023221D01*
X0014324Y00735D02*
X0023221D01*
X0014324Y00735D02*
X0014324Y00735D01*
X0014306Y00935D02*
X0014806Y0093D01*
X002272D01*
X0023221Y00925D01*
X0014403Y0113D02*
X0023221D01*
X0265054Y0321657D02*
X03D01*
X0263Y0323657D02*
X0263054D01*
X0265054Y0321657D01*
X0252Y0324658D02*
X02555Y0328157D01*
X02965D01*
X03Y0331658D01*
X0251351Y0335307D02*
X0252Y0334658D01*
X0249482Y0335307D02*
X0251351D01*
X0249132Y0335658D02*
X0249482Y0335307D01*
X0157Y0335658D02*
X0249132D01*
X01355Y0314158D02*
X0157Y0335658D01*
X027075Y0354157D02*
X0278D01*
X02855Y0361658D02*
X03D01*
X0278Y0354157D02*
X02855Y0361658D01*
X0184054Y0324658D02*
X0252D01*
X0181554Y0322158D02*
X0184054Y0324658D01*
X01815Y0322158D02*
X0181554D01*
X01555Y0291158D02*
X01655Y0301157D01*
X01555Y0284658D02*
Y0291158D01*
X01355Y0284658D02*
Y0314158D01*
X0303697Y0376961D02*
X0307Y0373657D01*
X0255172Y0376961D02*
X0303697D01*
X0252868Y0374658D02*
X0255172Y0376961D01*
X0252Y0374658D02*
X0252868D01*
X03Y0301658D02*
X0300743Y03024D01*
X0303743D02*
X0307Y0305658D01*
Y0373657D01*
X0300743Y03024D02*
X0303743D01*
X0273409Y0263158D02*
X02845Y0252067D01*
X024422Y0263158D02*
X0273409D01*
X024Y0258937D02*
X024422Y0263158D01*
X024Y0258937D02*
X0240799D01*
X02845Y0243657D02*
Y0252067D01*
X0299684Y0228658D02*
X0300749D01*
X0298088Y0230253D02*
X0299684Y0228658D01*
X0297904Y0230253D02*
X0298088D01*
X02845Y0243657D02*
X0297904Y0230253D01*
X02845Y0252067D02*
X03015Y0269067D01*
X0062Y0354658D02*
X0072D01*
X0014343Y0244158D02*
X0023221D01*
X0014324Y0263657D02*
X0023221D01*
X0014324Y0263657D02*
X0014324Y0263657D01*
X0014306Y0283658D02*
X0014806Y0283157D01*
X002272D01*
X0023221Y0282658D01*
X0014403Y0303157D02*
X0023221D01*
D13*
X0103Y006678D02*
X0114742Y0055038D01*
Y0052849D02*
X0115591Y0052D01*
X0114742Y0052849D02*
Y0055038D01*
X00805Y01005D02*
Y0116D01*
Y00975D02*
Y01005D01*
X0072Y01245D02*
X00805Y0116D01*
X0086Y01005D02*
Y01205D01*
X0072Y01345D02*
X0086Y01205D01*
X01035Y007872D02*
X0104434D01*
X0105714Y008D02*
X0115591D01*
X0104434Y007872D02*
X0105714Y008D01*
X01035Y0098311D02*
X01045Y0099311D01*
X01035Y007872D02*
Y0098311D01*
X01045Y0099311D02*
Y00995D01*
X0107D01*
X0067Y01195D02*
X0072Y01245D01*
X0057279Y01195D02*
X0067D01*
X0050779Y0113D02*
X0057279Y01195D01*
X0054464Y012975D02*
X006725D01*
X0051714Y01325D02*
X0054464Y012975D01*
X0050779Y01325D02*
X0051714D01*
X006725Y012975D02*
X0072Y01345D01*
X00145Y01325D02*
X00145Y01325D01*
X0023221D01*
X0103Y0256937D02*
X0114742Y0245195D01*
Y0243006D02*
X0115591Y0242158D01*
X0114742Y0243006D02*
Y0245195D01*
X00805Y0290657D02*
Y0306157D01*
Y0287657D02*
Y0290657D01*
X0072Y0314657D02*
X00805Y0306157D01*
X0086Y0290657D02*
Y0310658D01*
X0072Y0324658D02*
X0086Y0310658D01*
X01035Y0268878D02*
X0104434D01*
X0105714Y0270158D02*
X0115591D01*
X0104434Y0268878D02*
X0105714Y0270158D01*
X01035Y0288468D02*
X01045Y0289468D01*
X01035Y0268878D02*
Y0288468D01*
X01045Y0289468D02*
Y0289657D01*
X0107D01*
X0067Y0309658D02*
X0072Y0314657D01*
X0057279Y0309658D02*
X0067D01*
X0050779Y0303157D02*
X0057279Y0309658D01*
X0054464Y0319907D02*
X006725D01*
X0051714Y0322657D02*
X0054464Y0319907D01*
X0050779Y0322657D02*
X0051714D01*
X006725Y0319907D02*
X0072Y0324658D01*
X00145Y0322657D02*
X00145Y0322657D01*
X0023221D01*
D14*
X0103Y003922D02*
D03*
Y006678D02*
D03*
X01035Y010628D02*
D03*
Y007872D02*
D03*
X02105Y0083059D02*
D03*
Y00555D02*
D03*
X01815Y0069279D02*
D03*
Y0041721D02*
D03*
X0050779Y0054D02*
D03*
X0023221Y0054D02*
D03*
X0050779Y00735D02*
D03*
X0023221D02*
D03*
X0050779Y0113D02*
D03*
X0023221Y0113D02*
D03*
X0050779Y00935D02*
D03*
X0023221D02*
D03*
X0050779Y01325D02*
D03*
X0023221Y01325D02*
D03*
X024Y0041221D02*
D03*
Y0068779D02*
D03*
X0103Y0229378D02*
D03*
Y0256937D02*
D03*
X01035Y0296437D02*
D03*
Y0268878D02*
D03*
X02105Y0273217D02*
D03*
Y0245657D02*
D03*
X01815Y0259437D02*
D03*
Y0231878D02*
D03*
X0050779Y0244158D02*
D03*
X0023221Y0244158D02*
D03*
X0050779Y0263657D02*
D03*
X0023221D02*
D03*
X0050779Y0303157D02*
D03*
X0023221Y0303157D02*
D03*
X0050779Y0283658D02*
D03*
X0023221D02*
D03*
X0050779Y0322657D02*
D03*
X0023221Y0322657D02*
D03*
X024Y0231378D02*
D03*
Y0258937D02*
D03*
D15*
X01755Y01695D02*
D03*
X01655D02*
D03*
X01555D02*
D03*
X0252Y01845D02*
D03*
Y01745D02*
D03*
Y01645D02*
D03*
Y01545D02*
D03*
Y01445D02*
D03*
X01955Y00945D02*
D03*
X01855D02*
D03*
X01755D02*
D03*
X01655D02*
D03*
X01555D02*
D03*
X01455D02*
D03*
X01355D02*
D03*
X0072Y00545D02*
D03*
Y00645D02*
D03*
Y00745D02*
D03*
X0072Y00845D02*
D03*
X0072Y00945D02*
D03*
Y01045D02*
D03*
Y01145D02*
D03*
Y01245D02*
D03*
Y01345D02*
D03*
Y01445D02*
D03*
Y01545D02*
D03*
Y01645D02*
D03*
X0072Y01745D02*
D03*
X0072Y01845D02*
D03*
X01755Y0359658D02*
D03*
X01655D02*
D03*
X01555D02*
D03*
X0252Y0374658D02*
D03*
Y0364657D02*
D03*
Y0354658D02*
D03*
Y0344657D02*
D03*
Y0334658D02*
D03*
X01955Y0284658D02*
D03*
X01855D02*
D03*
X01755D02*
D03*
X01655D02*
D03*
X01555D02*
D03*
X01455D02*
D03*
X01355D02*
D03*
X0072Y0244657D02*
D03*
Y0254658D02*
D03*
Y0264657D02*
D03*
X0072Y0274658D02*
D03*
X0072Y0284658D02*
D03*
Y0294657D02*
D03*
Y0304658D02*
D03*
Y0314657D02*
D03*
Y0324658D02*
D03*
Y0334658D02*
D03*
Y0344657D02*
D03*
Y0354658D02*
D03*
X0072Y0364657D02*
D03*
X0072Y0374658D02*
D03*
D16*
X01455Y01695D02*
D03*
X02055Y00945D02*
D03*
X01455Y0359658D02*
D03*
X02055Y0284658D02*
D03*
D17*
X0252Y0005D02*
D03*
X027075Y0154D02*
D03*
X0252Y0195158D02*
D03*
X027075Y0344158D02*
D03*
D18*
X0252Y0015D02*
D03*
Y0025D02*
D03*
X027075Y0164D02*
D03*
Y0174D02*
D03*
X0252Y0205157D02*
D03*
Y0215158D02*
D03*
X027075Y0354157D02*
D03*
Y0364158D02*
D03*
D19*
X001Y01815D02*
D03*
Y01715D02*
D03*
X001Y01615D02*
D03*
X03Y01815D02*
D03*
X03Y01715D02*
D03*
Y01615D02*
D03*
Y01215D02*
D03*
Y01115D02*
D03*
Y01015D02*
D03*
Y01415D02*
D03*
Y01315D02*
D03*
X001Y01515D02*
D03*
X03Y01515D02*
D03*
X0062Y01345D02*
D03*
Y01445D02*
D03*
Y01045D02*
D03*
Y01145D02*
D03*
Y01245D02*
D03*
Y01545D02*
D03*
Y01645D02*
D03*
Y01745D02*
D03*
X0062Y01845D02*
D03*
X0062Y00845D02*
D03*
X0062Y00945D02*
D03*
X001Y0371657D02*
D03*
Y0361658D02*
D03*
X001Y0351658D02*
D03*
X03Y0371657D02*
D03*
X03Y0361658D02*
D03*
Y0351658D02*
D03*
Y0311658D02*
D03*
Y0301658D02*
D03*
Y0291657D02*
D03*
Y0331658D02*
D03*
Y0321657D02*
D03*
X001Y0341657D02*
D03*
X03Y0341657D02*
D03*
X0062Y0324658D02*
D03*
Y0334658D02*
D03*
Y0294657D02*
D03*
Y0304658D02*
D03*
Y0314657D02*
D03*
Y0344657D02*
D03*
Y0354658D02*
D03*
Y0364657D02*
D03*
X0062Y0374658D02*
D03*
X0062Y0274658D02*
D03*
X0062Y0284658D02*
D03*
D20*
X02915Y0078909D02*
D03*
X03015D02*
D03*
X02915Y0058909D02*
D03*
X03015D02*
D03*
X0290749Y00385D02*
D03*
X0300749D02*
D03*
X0290749Y00185D02*
D03*
X0300749D02*
D03*
X023Y0045091D02*
D03*
X022D02*
D03*
X023Y0065091D02*
D03*
X022D02*
D03*
X02015Y0045091D02*
D03*
X01915D02*
D03*
X02015Y0065091D02*
D03*
X01915D02*
D03*
X0249D02*
D03*
X0259D02*
D03*
X0249Y0045091D02*
D03*
X0259D02*
D03*
X0135591Y008D02*
D03*
Y007D02*
D03*
X0115591Y008D02*
D03*
Y007D02*
D03*
X0135591Y0052D02*
D03*
Y0042D02*
D03*
X0115591Y0052D02*
D03*
X0115591Y0042D02*
D03*
X02915Y0269067D02*
D03*
X03015D02*
D03*
X02915Y0249067D02*
D03*
X03015D02*
D03*
X0290749Y0228658D02*
D03*
X0300749D02*
D03*
X0290749Y0208658D02*
D03*
X0300749D02*
D03*
X023Y0235248D02*
D03*
X022D02*
D03*
X023Y0255248D02*
D03*
X022D02*
D03*
X02015Y0235248D02*
D03*
X01915D02*
D03*
X02015Y0255248D02*
D03*
X01915D02*
D03*
X0249D02*
D03*
X0259D02*
D03*
X0249Y0235248D02*
D03*
X0259D02*
D03*
X0135591Y0270158D02*
D03*
Y0260157D02*
D03*
X0115591Y0270158D02*
D03*
Y0260157D02*
D03*
X0135591Y0242158D02*
D03*
Y0232157D02*
D03*
X0115591Y0242158D02*
D03*
X0115591Y0232157D02*
D03*
D21*
X0252Y01345D02*
D03*
X0072Y00445D02*
D03*
X0252Y0324658D02*
D03*
X0072Y0234658D02*
D03*
D22*
X0004343Y0054D02*
D03*
X0004324Y00735D02*
D03*
X0004306Y00935D02*
D03*
X0004403Y0113D02*
D03*
X00045Y01325D02*
D03*
X0004343Y0244158D02*
D03*
X0004324Y0263657D02*
D03*
X0004306Y0283658D02*
D03*
X0004403Y0303157D02*
D03*
X00045Y0322657D02*
D03*
D23*
X0014343Y0054D02*
D03*
X0014324Y00735D02*
D03*
X0014306Y00935D02*
D03*
X0014403Y0113D02*
D03*
X00145Y01325D02*
D03*
X0014343Y0244158D02*
D03*
X0014324Y0263657D02*
D03*
X0014306Y0283658D02*
D03*
X0014403Y0303157D02*
D03*
X00145Y0322657D02*
D03*
D24*
X01695Y0023D02*
D03*
X00685Y002D02*
D03*
X00155Y0012D02*
D03*
Y0009D02*
D03*
X0023221Y00405D02*
D03*
X0021168Y0038447D02*
D03*
X0138596Y0005D02*
D03*
X0128811D02*
D03*
X0133473D02*
D03*
X0263Y01335D02*
D03*
X02915Y0144D02*
D03*
X0253Y0119D02*
D03*
X018Y014D02*
D03*
X021D02*
D03*
X0253Y0113D02*
D03*
X01815Y0132D02*
D03*
X01485Y0149D02*
D03*
X01655Y0111D02*
D03*
X0086Y01045D02*
D03*
X0089Y0086D02*
D03*
X00915Y00885D02*
D03*
X00805Y01005D02*
D03*
Y00975D02*
D03*
X0086Y01005D02*
D03*
X01045Y00995D02*
D03*
X0107D02*
D03*
X00995Y0025D02*
D03*
X01115Y01695D02*
D03*
Y01655D02*
D03*
X0080083Y00345D02*
D03*
X00615Y002D02*
D03*
X0172Y00255D02*
D03*
X01695Y0213158D02*
D03*
X00685Y0210157D02*
D03*
X00155Y0202157D02*
D03*
Y0199158D02*
D03*
X0023221Y0230658D02*
D03*
X0021168Y0228605D02*
D03*
X0138596Y0195158D02*
D03*
X0128811D02*
D03*
X0133473D02*
D03*
X0263Y0323657D02*
D03*
X02915Y0334157D02*
D03*
X0253Y0309157D02*
D03*
X018Y0330157D02*
D03*
X021D02*
D03*
X0253Y0303157D02*
D03*
X01815Y0322158D02*
D03*
X01485Y0339158D02*
D03*
X01655Y0301157D02*
D03*
X0086Y0294657D02*
D03*
X0089Y0276157D02*
D03*
X00915Y0278658D02*
D03*
X00805Y0290657D02*
D03*
Y0287657D02*
D03*
X0086Y0290657D02*
D03*
X01045Y0289657D02*
D03*
X0107D02*
D03*
X00995Y0215158D02*
D03*
X01115Y0359658D02*
D03*
Y0355658D02*
D03*
X0080083Y0224658D02*
D03*
X00615Y0210157D02*
D03*
X0172Y0215657D02*
D03*
M02*
