G04*
G04 #@! TF.GenerationSoftware,Altium Limited,Altium Designer,24.4.1 (13)*
G04*
G04 Layer_Color=65535*
%FSTAX25Y25*%
%MOIN*%
G70*
G04*
G04 #@! TF.SameCoordinates,020C5614-C29D-4F9E-ABEE-A2FB782F7328*
G04*
G04*
G04 #@! TF.FilePolarity,Positive*
G04*
G01*
G75*
%ADD25C,0.00787*%
%ADD26C,0.01000*%
%ADD27C,0.00500*%
%ADD28C,0.00600*%
D25*
X0199953Y0098D02*
G03*
X0199953Y0098I-0000394J0D01*
G01*
X0131835Y01735D02*
G03*
X0131835Y01735I-0000394J0D01*
G01*
X0062953Y0188D02*
G03*
X0062953Y0188I-0000394J0D01*
G01*
X0197835D02*
G03*
X0197835Y0188I-0000394J0D01*
G01*
X0153957Y0018D02*
G03*
X0153957Y0018I-0000394J0D01*
G01*
X0208335Y01565D02*
G03*
X0208335Y01565I-0000394J0D01*
G01*
X0197Y0093D02*
Y0103D01*
X0117Y0093D02*
Y0103D01*
Y0093D02*
X0197D01*
X0117Y0103D02*
X0197D01*
X0174Y01685D02*
Y01785D01*
X0134Y01685D02*
Y01785D01*
Y01685D02*
X0174Y01685D01*
X0134Y01785D02*
X0174Y01785D01*
X0Y0183D02*
Y0193D01*
X006Y0183D02*
Y0193D01*
X0D02*
X006D01*
X0Y0183D02*
X006D01*
X02105Y01515D02*
X02405Y01515D01*
X02105Y01615D02*
X02405Y01615D01*
Y01515D02*
Y01615D01*
X02105Y01515D02*
Y01615D01*
X02Y0183D02*
X023D01*
X02Y0193D02*
X023D01*
Y0183D02*
Y0193D01*
X02Y0183D02*
Y0193D01*
X0Y0022744D02*
X0151004D01*
X0Y0013256D02*
X0151004D01*
X0D02*
Y0022744D01*
X0151004Y0013256D02*
Y0022744D01*
X0199953Y0294063D02*
G03*
X0199953Y0294063I-0000394J0D01*
G01*
X0131835Y0369563D02*
G03*
X0131835Y0369563I-0000394J0D01*
G01*
X0062953Y0384063D02*
G03*
X0062953Y0384063I-0000394J0D01*
G01*
X0197835D02*
G03*
X0197835Y0384063I-0000394J0D01*
G01*
X0153957Y0214063D02*
G03*
X0153957Y0214063I-0000394J0D01*
G01*
X0208335Y0352563D02*
G03*
X0208335Y0352563I-0000394J0D01*
G01*
X0197Y0289063D02*
Y0299063D01*
X0117Y0289063D02*
Y0299063D01*
Y0289063D02*
X0197D01*
X0117Y0299063D02*
X0197D01*
X0174Y0364563D02*
Y0374563D01*
X0134Y0364563D02*
Y0374563D01*
Y0364563D02*
X0174Y0364563D01*
X0134Y0374563D02*
X0174Y0374563D01*
X0Y0379063D02*
Y0389063D01*
X006Y0379063D02*
Y0389063D01*
X0D02*
X006D01*
X0Y0379063D02*
X006D01*
X02105Y0347563D02*
X02405Y0347563D01*
X02105Y0357563D02*
X02405Y0357563D01*
Y0347563D02*
Y0357563D01*
X02105Y0347563D02*
Y0357563D01*
X02Y0379063D02*
X023D01*
X02Y0389063D02*
X023D01*
Y0379063D02*
Y0389063D01*
X02Y0379063D02*
Y0389063D01*
X0Y0218807D02*
X0151004D01*
X0Y0209319D02*
X0151004D01*
X0D02*
Y0218807D01*
X0151004Y0209319D02*
Y0218807D01*
D26*
X01575Y0041D02*
G03*
X01575Y0041I-00005J0D01*
G01*
X0129D02*
G03*
X0129Y0041I-00005J0D01*
G01*
X0296Y01605D02*
G03*
X0296Y01605I-00005J0D01*
G01*
Y01295D02*
G03*
X0296Y01295I-00005J0D01*
G01*
Y0191591D02*
G03*
X0296Y0191591I-00005J0D01*
G01*
X0205Y00095D02*
G03*
X0205Y00095I-00005J0D01*
G01*
X0049Y00765D02*
G03*
X0049Y00765I-00005J0D01*
G01*
X0075591Y003D02*
G03*
X0075591Y003I-00005J0D01*
G01*
X0005Y0018D02*
Y0188D01*
X0128009Y0106501D02*
Y0112499D01*
X0132008Y0106501D01*
Y0112499D01*
X0135007Y0106501D02*
X0137006D01*
X0138006Y0107501D01*
Y01095D01*
X0137006Y01105D01*
X0135007D01*
X0134007Y01095D01*
Y0107501D01*
X0135007Y0106501D01*
X0140005D02*
Y0112499D01*
Y01085D02*
X0143004Y01105D01*
X0140005Y01085D02*
X0143004Y0106501D01*
X0146003D02*
X0148002D01*
X0147003D01*
Y01105D01*
X0146003D01*
X0152001D02*
X0154D01*
X0155Y01095D01*
Y0106501D01*
X0152001D01*
X0151002Y0107501D01*
X0152001Y01085D01*
X0155D01*
X0166996Y0112499D02*
X0162998D01*
Y01095D01*
X0164997Y01105D01*
X0165997D01*
X0166996Y01095D01*
Y0107501D01*
X0165997Y0106501D01*
X0163997D01*
X0162998Y0107501D01*
X0168996Y0106501D02*
X0170995D01*
X0169995D01*
Y0112499D01*
X0168996Y0111499D01*
X0173994Y0106501D02*
X0175993D01*
X0174994D01*
Y0112499D01*
X0173994Y0111499D01*
X0178992D02*
X0179992Y0112499D01*
X0181991D01*
X0182991Y0111499D01*
Y0107501D01*
X0181991Y0106501D01*
X0179992D01*
X0178992Y0107501D01*
Y0111499D01*
X0275999Y0138503D02*
X0270001D01*
Y0141502D01*
X0271001Y0142501D01*
X0273D01*
X0274Y0141502D01*
Y0138503D01*
X0270001Y0144501D02*
X0275999D01*
X0274Y01465D01*
X0275999Y0148499D01*
X0270001D01*
X0275999Y0150499D02*
X0270001D01*
Y0153498D01*
X0271001Y0154497D01*
X0273D01*
X0274Y0153498D01*
Y0150499D01*
Y0152498D02*
X0275999Y0154497D01*
X0275499Y0103504D02*
X0269501D01*
Y0106503D01*
X0270501Y0107503D01*
X02725D01*
X02735Y0106503D01*
Y0103504D01*
Y0105504D02*
X0275499Y0107503D01*
Y0112501D02*
Y0110502D01*
X0274499Y0109502D01*
X02725D01*
X02715Y0110502D01*
Y0112501D01*
X02725Y0113501D01*
X02735D01*
Y0109502D01*
X0275499Y01155D02*
Y0118499D01*
X0274499Y0119499D01*
X02735Y0118499D01*
Y01165D01*
X02725Y01155D01*
X02715Y01165D01*
Y0119499D01*
X0275499Y0124497D02*
Y0122498D01*
X0274499Y0121498D01*
X02725D01*
X02715Y0122498D01*
Y0124497D01*
X02725Y0125497D01*
X02735D01*
Y0121498D01*
X0270501Y0128496D02*
X02715D01*
Y0127497D01*
Y0129496D01*
Y0128496D01*
X0274499D01*
X0275499Y0129496D01*
X0269501Y0168003D02*
X0275499D01*
Y0171002D01*
X0274499Y0172002D01*
X02735D01*
X02725Y0171002D01*
Y0168003D01*
Y0171002D01*
X02715Y0172002D01*
X0270501D01*
X0269501Y0171002D01*
Y0168003D01*
X0275499Y0175001D02*
Y0177D01*
X0274499Y0178D01*
X02725D01*
X02715Y0177D01*
Y0175001D01*
X02725Y0174001D01*
X0274499D01*
X0275499Y0175001D01*
Y0180999D02*
Y0182998D01*
X0274499Y0183998D01*
X02725D01*
X02715Y0182998D01*
Y0180999D01*
X02725Y0179999D01*
X0274499D01*
X0275499Y0180999D01*
X0270501Y0186997D02*
X02715D01*
Y0185997D01*
Y0187997D01*
Y0186997D01*
X0274499D01*
X0275499Y0187997D01*
X0239001Y0111006D02*
Y0113005D01*
Y0112005D01*
X0244999D01*
Y0111006D01*
Y0113005D01*
X0239001Y0116004D02*
X0244999D01*
Y0120003D01*
X0239001Y0122002D02*
Y0124002D01*
Y0123002D01*
X0244999D01*
Y0122002D01*
Y0124002D01*
X0243999Y0127001D02*
X0244999Y0128D01*
Y013D01*
X0243999Y0130999D01*
X0240001D01*
X0239001Y013D01*
Y0128D01*
X0240001Y0127001D01*
X0241D01*
X0242Y0128D01*
Y0130999D01*
X0240001Y0132999D02*
X0239001Y0133998D01*
Y0135998D01*
X0240001Y0136997D01*
X0241D01*
X0242Y0135998D01*
Y0134998D01*
Y0135998D01*
X0243Y0136997D01*
X0243999D01*
X0244999Y0135998D01*
Y0133998D01*
X0243999Y0132999D01*
X0244999Y0141996D02*
X0239001D01*
X0242Y0138997D01*
Y0142996D01*
X0244999Y0144995D02*
Y0146994D01*
Y0145994D01*
X0239001D01*
X0240001Y0144995D01*
X0135699Y0187598D02*
X0134699Y0188598D01*
X01327D01*
X01317Y0187598D01*
Y0186599D01*
X01327Y0185599D01*
X0134699D01*
X0135699Y0184599D01*
Y01836D01*
X0134699Y01826D01*
X01327D01*
X01317Y01836D01*
X0141697Y0187598D02*
X0140697Y0188598D01*
X0138698D01*
X0137698Y0187598D01*
Y0186599D01*
X0138698Y0185599D01*
X0140697D01*
X0141697Y0184599D01*
Y01836D01*
X0140697Y01826D01*
X0138698D01*
X0137698Y01836D01*
X0143696Y0188598D02*
Y01826D01*
X0146695D01*
X0147695Y01836D01*
Y0187598D01*
X0146695Y0188598D01*
X0143696D01*
X0149694Y01826D02*
X0151693D01*
X0150694D01*
Y0188598D01*
X0149694Y0187598D01*
X0154693D02*
X0155692Y0188598D01*
X0157692D01*
X0158691Y0187598D01*
Y0186599D01*
X0157692Y0185599D01*
X0156692D01*
X0157692D01*
X0158691Y0184599D01*
Y01836D01*
X0157692Y01826D01*
X0155692D01*
X0154693Y01836D01*
X0160691Y0187598D02*
X016169Y0188598D01*
X016369D01*
X0164689Y0187598D01*
Y01836D01*
X016369Y01826D01*
X016169D01*
X0160691Y01836D01*
Y0187598D01*
X0170687Y0188598D02*
X0168688Y0187598D01*
X0166689Y0185599D01*
Y01836D01*
X0167688Y01826D01*
X0169688D01*
X0170687Y01836D01*
Y0184599D01*
X0169688Y0185599D01*
X0166689D01*
X01875Y0189999D02*
X0185501D01*
X0186501D01*
Y0185001D01*
X0185501Y0184001D01*
X0184501D01*
X0183502Y0185001D01*
X01895Y0188999D02*
X0190499Y0189999D01*
X0192499D01*
X0193498Y0188999D01*
Y0188D01*
X0192499Y0187D01*
X0191499D01*
X0192499D01*
X0193498Y0186D01*
Y0185001D01*
X0192499Y0184001D01*
X0190499D01*
X01895Y0185001D01*
X00695Y0190499D02*
X0067501D01*
X0068501D01*
Y0185501D01*
X0067501Y0184501D01*
X0066501D01*
X0065502Y0185501D01*
X0074499Y0184501D02*
Y0190499D01*
X00715Y01875D01*
X0075498D01*
X0224181Y0169499D02*
X0222182D01*
X0223182D01*
Y0164501D01*
X0222182Y0163501D01*
X0221182D01*
X0220183Y0164501D01*
X0230179Y0169499D02*
X0226181D01*
Y01665D01*
X022818Y01675D01*
X022918D01*
X0230179Y01665D01*
Y0164501D01*
X022918Y0163501D01*
X022718D01*
X0226181Y0164501D01*
X0159834Y0019999D02*
X0158501D01*
X0159167D01*
Y0016667D01*
X0158501Y0016001D01*
X0157834D01*
X0157168Y0016667D01*
X0163832Y0016001D02*
X0161167D01*
X0163832Y0018666D01*
Y0019333D01*
X0163166Y0019999D01*
X0161833D01*
X0161167Y0019333D01*
X0061001Y0081333D02*
X0060334Y0081999D01*
X0059001D01*
X0058335Y0081333D01*
Y0080667D01*
X0059001Y008D01*
X0060334D01*
X0061001Y0079334D01*
Y0078667D01*
X0060334Y0078001D01*
X0059001D01*
X0058335Y0078667D01*
X0062334Y0081999D02*
Y0078001D01*
X0063666Y0079334D01*
X0064999Y0078001D01*
Y0081999D01*
X0066332Y0078001D02*
X0067665D01*
X0066999D01*
Y0081999D01*
X0066332Y0081333D01*
X0158168Y0029001D02*
Y0032999D01*
X0160167D01*
X0160834Y0032333D01*
Y0031D01*
X0160167Y0030334D01*
X0158168D01*
X0159501D02*
X0160834Y0029001D01*
X0162167Y0032333D02*
X0162833Y0032999D01*
X0164166D01*
X0164832Y0032333D01*
Y0031666D01*
X0164166Y0031D01*
X0164832Y0030334D01*
Y0029667D01*
X0164166Y0029001D01*
X0162833D01*
X0162167Y0029667D01*
Y0030334D01*
X0162833Y0031D01*
X0162167Y0031666D01*
Y0032333D01*
X0162833Y0031D02*
X0164166D01*
X0108168Y0041001D02*
Y0044999D01*
X0110167D01*
X0110834Y0044333D01*
Y0043D01*
X0110167Y0042334D01*
X0108168D01*
X0109501D02*
X0110834Y0041001D01*
X0114832Y0044999D02*
X0113499Y0044333D01*
X0112167Y0043D01*
Y0041667D01*
X0112833Y0041001D01*
X0114166D01*
X0114832Y0041667D01*
Y0042334D01*
X0114166Y0043D01*
X0112167D01*
X0093168Y0060501D02*
Y0064499D01*
X0095167D01*
X0095834Y0063833D01*
Y00625D01*
X0095167Y0061834D01*
X0093168D01*
X0094501D02*
X0095834Y0060501D01*
X0099166D02*
Y0064499D01*
X0097167Y00625D01*
X0099832D01*
X0024668Y0055001D02*
Y0058999D01*
X0026667D01*
X0027334Y0058333D01*
Y0057D01*
X0026667Y0056334D01*
X0024668D01*
X0026001D02*
X0027334Y0055001D01*
X0031332D02*
X0028666D01*
X0031332Y0057666D01*
Y0058333D01*
X0030666Y0058999D01*
X0029333D01*
X0028666Y0058333D01*
X0211334Y0043333D02*
X0210668Y0043999D01*
X0209335D01*
X0208668Y0043333D01*
Y0042667D01*
X0209335Y0042D01*
X0210668D01*
X0211334Y0041334D01*
Y0040667D01*
X0210668Y0040001D01*
X0209335D01*
X0208668Y0040667D01*
X0212667Y0043999D02*
Y0040001D01*
X0214Y0041334D01*
X0215333Y0040001D01*
Y0043999D01*
X0219332D02*
X0216666D01*
Y0042D01*
X0217999Y0042667D01*
X0218665D01*
X0219332Y0042D01*
Y0040667D01*
X0218665Y0040001D01*
X0217332D01*
X0216666Y0040667D01*
X0163834Y0074833D02*
X0163168Y0075499D01*
X0161835D01*
X0161168Y0074833D01*
Y0074167D01*
X0161835Y00735D01*
X0163168D01*
X0163834Y0072834D01*
Y0072167D01*
X0163168Y0071501D01*
X0161835D01*
X0161168Y0072167D01*
X0165167Y0075499D02*
Y0071501D01*
X01665Y0072834D01*
X0167833Y0071501D01*
Y0075499D01*
X0171165Y0071501D02*
Y0075499D01*
X0169166Y00735D01*
X0171832D01*
X0135334Y0074833D02*
X0134668Y0075499D01*
X0133335D01*
X0132668Y0074833D01*
Y0074167D01*
X0133335Y00735D01*
X0134668D01*
X0135334Y0072834D01*
Y0072167D01*
X0134668Y0071501D01*
X0133335D01*
X0132668Y0072167D01*
X0136667Y0075499D02*
Y0071501D01*
X0138Y0072834D01*
X0139333Y0071501D01*
Y0075499D01*
X0140666Y0074833D02*
X0141332Y0075499D01*
X0142665D01*
X0143332Y0074833D01*
Y0074167D01*
X0142665Y00735D01*
X0141999D01*
X0142665D01*
X0143332Y0072834D01*
Y0072167D01*
X0142665Y0071501D01*
X0141332D01*
X0140666Y0072167D01*
X0059925Y0053333D02*
X0059258Y0053999D01*
X0057925D01*
X0057259Y0053333D01*
Y0052666D01*
X0057925Y0052D01*
X0059258D01*
X0059925Y0051334D01*
Y0050667D01*
X0059258Y0050001D01*
X0057925D01*
X0057259Y0050667D01*
X0061258Y0053999D02*
Y0050001D01*
X0062591Y0051334D01*
X0063924Y0050001D01*
Y0053999D01*
X0067922Y0050001D02*
X0065256D01*
X0067922Y0052666D01*
Y0053333D01*
X0067256Y0053999D01*
X0065923D01*
X0065256Y0053333D01*
X0247668Y0035501D02*
Y0039499D01*
X0249667D01*
X0250334Y0038833D01*
Y00375D01*
X0249667Y0036834D01*
X0247668D01*
X0249001D02*
X0250334Y0035501D01*
X0251666Y0039499D02*
X0254332D01*
Y0038833D01*
X0251666Y0036167D01*
Y0035501D01*
X0248168Y0055001D02*
Y0058999D01*
X0250167D01*
X0250834Y0058333D01*
Y0057D01*
X0250167Y0056334D01*
X0248168D01*
X0249501D02*
X0250834Y0055001D01*
X0254832Y0058999D02*
X0252167D01*
Y0057D01*
X0253499Y0057666D01*
X0254166D01*
X0254832Y0057D01*
Y0055667D01*
X0254166Y0055001D01*
X0252833D01*
X0252167Y0055667D01*
X0248668Y0075001D02*
Y0078999D01*
X0250667D01*
X0251334Y0078333D01*
Y0077D01*
X0250667Y0076334D01*
X0248668D01*
X0250001D02*
X0251334Y0075001D01*
X0252666Y0078333D02*
X0253333Y0078999D01*
X0254666D01*
X0255332Y0078333D01*
Y0077666D01*
X0254666Y0077D01*
X0253999D01*
X0254666D01*
X0255332Y0076334D01*
Y0075667D01*
X0254666Y0075001D01*
X0253333D01*
X0252666Y0075667D01*
X0248834Y0095001D02*
Y0098999D01*
X0250834D01*
X02515Y0098333D01*
Y0097D01*
X0250834Y0096334D01*
X0248834D01*
X0250167D02*
X02515Y0095001D01*
X0252833D02*
X0254166D01*
X0253499D01*
Y0098999D01*
X0252833Y0098333D01*
X0288149Y0040499D02*
Y0036501D01*
X0290149D01*
X0290815Y0037167D01*
Y0039833D01*
X0290149Y0040499D01*
X0288149D01*
X0294147Y0036501D02*
Y0040499D01*
X0292148Y00385D01*
X0294814D01*
X0288246Y0060999D02*
Y0057001D01*
X0290246D01*
X0290912Y0057667D01*
Y0060333D01*
X0290246Y0060999D01*
X0288246D01*
X0292245Y0060333D02*
X0292912Y0060999D01*
X0294245D01*
X0294911Y0060333D01*
Y0059667D01*
X0294245Y0059D01*
X0293578D01*
X0294245D01*
X0294911Y0058334D01*
Y0057667D01*
X0294245Y0057001D01*
X0292912D01*
X0292245Y0057667D01*
X0248168Y0016001D02*
Y0019999D01*
X0250167D01*
X0250834Y0019333D01*
Y0018D01*
X0250167Y0017334D01*
X0248168D01*
X0249501D02*
X0250834Y0016001D01*
X0252167Y0016667D02*
X0252833Y0016001D01*
X0254166D01*
X0254832Y0016667D01*
Y0019333D01*
X0254166Y0019999D01*
X0252833D01*
X0252167Y0019333D01*
Y0018666D01*
X0252833Y0018D01*
X0254832D01*
X0287728Y0080999D02*
Y0077001D01*
X0289727D01*
X0290394Y0077667D01*
Y0080333D01*
X0289727Y0080999D01*
X0287728D01*
X0294393Y0077001D02*
X0291727D01*
X0294393Y0079667D01*
Y0080333D01*
X0293726Y0080999D01*
X0292393D01*
X0291727Y0080333D01*
X0289334Y0100999D02*
Y0097001D01*
X0291334D01*
X0292Y0097667D01*
Y0100333D01*
X0291334Y0100999D01*
X0289334D01*
X0293333Y0097001D02*
X0294666D01*
X0293999D01*
Y0100999D01*
X0293333Y0100333D01*
X0288168Y0020999D02*
Y0017001D01*
X0290167D01*
X0290834Y0017667D01*
Y0020333D01*
X0290167Y0020999D01*
X0288168D01*
X0294832D02*
X0292166D01*
Y0019D01*
X0293499Y0019667D01*
X0294166D01*
X0294832Y0019D01*
Y0017667D01*
X0294166Y0017001D01*
X0292833D01*
X0292166Y0017667D01*
X0116Y0009999D02*
X0114667D01*
X0115333D01*
Y0006667D01*
X0114667Y0006001D01*
X0114001D01*
X0113334Y0006667D01*
X0117333Y0006001D02*
X0118666D01*
X0117999D01*
Y0009999D01*
X0117333Y0009333D01*
X01575Y0237063D02*
G03*
X01575Y0237063I-00005J0D01*
G01*
X0129D02*
G03*
X0129Y0237063I-00005J0D01*
G01*
X0296Y0356563D02*
G03*
X0296Y0356563I-00005J0D01*
G01*
Y0325563D02*
G03*
X0296Y0325563I-00005J0D01*
G01*
Y0387654D02*
G03*
X0296Y0387654I-00005J0D01*
G01*
X0205Y0205563D02*
G03*
X0205Y0205563I-00005J0D01*
G01*
X0049Y0272563D02*
G03*
X0049Y0272563I-00005J0D01*
G01*
X0075591Y0226063D02*
G03*
X0075591Y0226063I-00005J0D01*
G01*
X0005Y0214063D02*
Y0384063D01*
X0128009Y0302564D02*
Y0308562D01*
X0132008Y0302564D01*
Y0308562D01*
X0135007Y0302564D02*
X0137006D01*
X0138006Y0303564D01*
Y0305563D01*
X0137006Y0306563D01*
X0135007D01*
X0134007Y0305563D01*
Y0303564D01*
X0135007Y0302564D01*
X0140005D02*
Y0308562D01*
Y0304563D02*
X0143004Y0306563D01*
X0140005Y0304563D02*
X0143004Y0302564D01*
X0146003D02*
X0148002D01*
X0147003D01*
Y0306563D01*
X0146003D01*
X0152001D02*
X0154D01*
X0155Y0305563D01*
Y0302564D01*
X0152001D01*
X0151002Y0303564D01*
X0152001Y0304563D01*
X0155D01*
X0166996Y0308562D02*
X0162998D01*
Y0305563D01*
X0164997Y0306563D01*
X0165997D01*
X0166996Y0305563D01*
Y0303564D01*
X0165997Y0302564D01*
X0163997D01*
X0162998Y0303564D01*
X0168996Y0302564D02*
X0170995D01*
X0169995D01*
Y0308562D01*
X0168996Y0307562D01*
X0173994Y0302564D02*
X0175993D01*
X0174994D01*
Y0308562D01*
X0173994Y0307562D01*
X0178992D02*
X0179992Y0308562D01*
X0181991D01*
X0182991Y0307562D01*
Y0303564D01*
X0181991Y0302564D01*
X0179992D01*
X0178992Y0303564D01*
Y0307562D01*
X0275999Y0334566D02*
X0270001D01*
Y0337565D01*
X0271001Y0338564D01*
X0273D01*
X0274Y0337565D01*
Y0334566D01*
X0270001Y0340564D02*
X0275999D01*
X0274Y0342563D01*
X0275999Y0344562D01*
X0270001D01*
X0275999Y0346562D02*
X0270001D01*
Y0349561D01*
X0271001Y035056D01*
X0273D01*
X0274Y0349561D01*
Y0346562D01*
Y0348561D02*
X0275999Y035056D01*
X0275499Y0299567D02*
X0269501D01*
Y0302566D01*
X0270501Y0303566D01*
X02725D01*
X02735Y0302566D01*
Y0299567D01*
Y0301567D02*
X0275499Y0303566D01*
Y0308564D02*
Y0306565D01*
X0274499Y0305565D01*
X02725D01*
X02715Y0306565D01*
Y0308564D01*
X02725Y0309564D01*
X02735D01*
Y0305565D01*
X0275499Y0311563D02*
Y0314562D01*
X0274499Y0315562D01*
X02735Y0314562D01*
Y0312563D01*
X02725Y0311563D01*
X02715Y0312563D01*
Y0315562D01*
X0275499Y032056D02*
Y0318561D01*
X0274499Y0317561D01*
X02725D01*
X02715Y0318561D01*
Y032056D01*
X02725Y032156D01*
X02735D01*
Y0317561D01*
X0270501Y0324559D02*
X02715D01*
Y0323559D01*
Y0325559D01*
Y0324559D01*
X0274499D01*
X0275499Y0325559D01*
X0269501Y0364066D02*
X0275499D01*
Y0367065D01*
X0274499Y0368065D01*
X02735D01*
X02725Y0367065D01*
Y0364066D01*
Y0367065D01*
X02715Y0368065D01*
X0270501D01*
X0269501Y0367065D01*
Y0364066D01*
X0275499Y0371064D02*
Y0373063D01*
X0274499Y0374063D01*
X02725D01*
X02715Y0373063D01*
Y0371064D01*
X02725Y0370064D01*
X0274499D01*
X0275499Y0371064D01*
Y0377062D02*
Y0379061D01*
X0274499Y0380061D01*
X02725D01*
X02715Y0379061D01*
Y0377062D01*
X02725Y0376062D01*
X0274499D01*
X0275499Y0377062D01*
X0270501Y038306D02*
X02715D01*
Y038206D01*
Y038406D01*
Y038306D01*
X0274499D01*
X0275499Y038406D01*
X0239001Y0307069D02*
Y0309068D01*
Y0308068D01*
X0244999D01*
Y0307069D01*
Y0309068D01*
X0239001Y0312067D02*
X0244999D01*
Y0316066D01*
X0239001Y0318065D02*
Y0320065D01*
Y0319065D01*
X0244999D01*
Y0318065D01*
Y0320065D01*
X0243999Y0323064D02*
X0244999Y0324063D01*
Y0326063D01*
X0243999Y0327062D01*
X0240001D01*
X0239001Y0326063D01*
Y0324063D01*
X0240001Y0323064D01*
X0241D01*
X0242Y0324063D01*
Y0327062D01*
X0240001Y0329062D02*
X0239001Y0330061D01*
Y0332061D01*
X0240001Y033306D01*
X0241D01*
X0242Y0332061D01*
Y0331061D01*
Y0332061D01*
X0243Y033306D01*
X0243999D01*
X0244999Y0332061D01*
Y0330061D01*
X0243999Y0329062D01*
X0244999Y0338059D02*
X0239001D01*
X0242Y033506D01*
Y0339058D01*
X0244999Y0341058D02*
Y0343057D01*
Y0342057D01*
X0239001D01*
X0240001Y0341058D01*
X0135699Y0383661D02*
X0134699Y0384661D01*
X01327D01*
X01317Y0383661D01*
Y0382662D01*
X01327Y0381662D01*
X0134699D01*
X0135699Y0380662D01*
Y0379663D01*
X0134699Y0378663D01*
X01327D01*
X01317Y0379663D01*
X0141697Y0383661D02*
X0140697Y0384661D01*
X0138698D01*
X0137698Y0383661D01*
Y0382662D01*
X0138698Y0381662D01*
X0140697D01*
X0141697Y0380662D01*
Y0379663D01*
X0140697Y0378663D01*
X0138698D01*
X0137698Y0379663D01*
X0143696Y0384661D02*
Y0378663D01*
X0146695D01*
X0147695Y0379663D01*
Y0383661D01*
X0146695Y0384661D01*
X0143696D01*
X0149694Y0378663D02*
X0151693D01*
X0150694D01*
Y0384661D01*
X0149694Y0383661D01*
X0154693D02*
X0155692Y0384661D01*
X0157692D01*
X0158691Y0383661D01*
Y0382662D01*
X0157692Y0381662D01*
X0156692D01*
X0157692D01*
X0158691Y0380662D01*
Y0379663D01*
X0157692Y0378663D01*
X0155692D01*
X0154693Y0379663D01*
X0160691Y0383661D02*
X016169Y0384661D01*
X016369D01*
X0164689Y0383661D01*
Y0379663D01*
X016369Y0378663D01*
X016169D01*
X0160691Y0379663D01*
Y0383661D01*
X0170687Y0384661D02*
X0168688Y0383661D01*
X0166689Y0381662D01*
Y0379663D01*
X0167688Y0378663D01*
X0169688D01*
X0170687Y0379663D01*
Y0380662D01*
X0169688Y0381662D01*
X0166689D01*
X01875Y0386062D02*
X0185501D01*
X0186501D01*
Y0381064D01*
X0185501Y0380064D01*
X0184501D01*
X0183502Y0381064D01*
X01895Y0385062D02*
X0190499Y0386062D01*
X0192499D01*
X0193498Y0385062D01*
Y0384063D01*
X0192499Y0383063D01*
X0191499D01*
X0192499D01*
X0193498Y0382063D01*
Y0381064D01*
X0192499Y0380064D01*
X0190499D01*
X01895Y0381064D01*
X00695Y0386562D02*
X0067501D01*
X0068501D01*
Y0381564D01*
X0067501Y0380564D01*
X0066501D01*
X0065502Y0381564D01*
X0074499Y0380564D02*
Y0386562D01*
X00715Y0383563D01*
X0075498D01*
X0224181Y0365562D02*
X0222182D01*
X0223182D01*
Y0360564D01*
X0222182Y0359564D01*
X0221182D01*
X0220183Y0360564D01*
X0230179Y0365562D02*
X0226181D01*
Y0362563D01*
X022818Y0363563D01*
X022918D01*
X0230179Y0362563D01*
Y0360564D01*
X022918Y0359564D01*
X022718D01*
X0226181Y0360564D01*
X0159834Y0216062D02*
X0158501D01*
X0159167D01*
Y021273D01*
X0158501Y0212064D01*
X0157834D01*
X0157168Y021273D01*
X0163832Y0212064D02*
X0161167D01*
X0163832Y0214729D01*
Y0215396D01*
X0163166Y0216062D01*
X0161833D01*
X0161167Y0215396D01*
X0061001Y0277396D02*
X0060334Y0278062D01*
X0059001D01*
X0058335Y0277396D01*
Y0276729D01*
X0059001Y0276063D01*
X0060334D01*
X0061001Y0275397D01*
Y027473D01*
X0060334Y0274064D01*
X0059001D01*
X0058335Y027473D01*
X0062334Y0278062D02*
Y0274064D01*
X0063666Y0275397D01*
X0064999Y0274064D01*
Y0278062D01*
X0066332Y0274064D02*
X0067665D01*
X0066999D01*
Y0278062D01*
X0066332Y0277396D01*
X0158168Y0225064D02*
Y0229062D01*
X0160167D01*
X0160834Y0228396D01*
Y0227063D01*
X0160167Y0226397D01*
X0158168D01*
X0159501D02*
X0160834Y0225064D01*
X0162167Y0228396D02*
X0162833Y0229062D01*
X0164166D01*
X0164832Y0228396D01*
Y022773D01*
X0164166Y0227063D01*
X0164832Y0226397D01*
Y022573D01*
X0164166Y0225064D01*
X0162833D01*
X0162167Y022573D01*
Y0226397D01*
X0162833Y0227063D01*
X0162167Y022773D01*
Y0228396D01*
X0162833Y0227063D02*
X0164166D01*
X0108168Y0237064D02*
Y0241062D01*
X0110167D01*
X0110834Y0240396D01*
Y0239063D01*
X0110167Y0238397D01*
X0108168D01*
X0109501D02*
X0110834Y0237064D01*
X0114832Y0241062D02*
X0113499Y0240396D01*
X0112167Y0239063D01*
Y023773D01*
X0112833Y0237064D01*
X0114166D01*
X0114832Y023773D01*
Y0238397D01*
X0114166Y0239063D01*
X0112167D01*
X0093168Y0256564D02*
Y0260562D01*
X0095167D01*
X0095834Y0259896D01*
Y0258563D01*
X0095167Y0257897D01*
X0093168D01*
X0094501D02*
X0095834Y0256564D01*
X0099166D02*
Y0260562D01*
X0097167Y0258563D01*
X0099832D01*
X0024668Y0251064D02*
Y0255062D01*
X0026667D01*
X0027334Y0254396D01*
Y0253063D01*
X0026667Y0252397D01*
X0024668D01*
X0026001D02*
X0027334Y0251064D01*
X0031332D02*
X0028666D01*
X0031332Y025373D01*
Y0254396D01*
X0030666Y0255062D01*
X0029333D01*
X0028666Y0254396D01*
X0211334Y0239396D02*
X0210668Y0240062D01*
X0209335D01*
X0208668Y0239396D01*
Y023873D01*
X0209335Y0238063D01*
X0210668D01*
X0211334Y0237397D01*
Y023673D01*
X0210668Y0236064D01*
X0209335D01*
X0208668Y023673D01*
X0212667Y0240062D02*
Y0236064D01*
X0214Y0237397D01*
X0215333Y0236064D01*
Y0240062D01*
X0219332D02*
X0216666D01*
Y0238063D01*
X0217999Y023873D01*
X0218665D01*
X0219332Y0238063D01*
Y023673D01*
X0218665Y0236064D01*
X0217332D01*
X0216666Y023673D01*
X0163834Y0270896D02*
X0163168Y0271562D01*
X0161835D01*
X0161168Y0270896D01*
Y027023D01*
X0161835Y0269563D01*
X0163168D01*
X0163834Y0268897D01*
Y026823D01*
X0163168Y0267564D01*
X0161835D01*
X0161168Y026823D01*
X0165167Y0271562D02*
Y0267564D01*
X01665Y0268897D01*
X0167833Y0267564D01*
Y0271562D01*
X0171165Y0267564D02*
Y0271562D01*
X0169166Y0269563D01*
X0171832D01*
X0135334Y0270896D02*
X0134668Y0271562D01*
X0133335D01*
X0132668Y0270896D01*
Y027023D01*
X0133335Y0269563D01*
X0134668D01*
X0135334Y0268897D01*
Y026823D01*
X0134668Y0267564D01*
X0133335D01*
X0132668Y026823D01*
X0136667Y0271562D02*
Y0267564D01*
X0138Y0268897D01*
X0139333Y0267564D01*
Y0271562D01*
X0140666Y0270896D02*
X0141332Y0271562D01*
X0142665D01*
X0143332Y0270896D01*
Y027023D01*
X0142665Y0269563D01*
X0141999D01*
X0142665D01*
X0143332Y0268897D01*
Y026823D01*
X0142665Y0267564D01*
X0141332D01*
X0140666Y026823D01*
X0059925Y0249396D02*
X0059258Y0250062D01*
X0057925D01*
X0057259Y0249396D01*
Y0248729D01*
X0057925Y0248063D01*
X0059258D01*
X0059925Y0247397D01*
Y024673D01*
X0059258Y0246064D01*
X0057925D01*
X0057259Y024673D01*
X0061258Y0250062D02*
Y0246064D01*
X0062591Y0247397D01*
X0063924Y0246064D01*
Y0250062D01*
X0067922Y0246064D02*
X0065256D01*
X0067922Y0248729D01*
Y0249396D01*
X0067256Y0250062D01*
X0065923D01*
X0065256Y0249396D01*
X0247668Y0231564D02*
Y0235562D01*
X0249667D01*
X0250334Y0234896D01*
Y0233563D01*
X0249667Y0232897D01*
X0247668D01*
X0249001D02*
X0250334Y0231564D01*
X0251666Y0235562D02*
X0254332D01*
Y0234896D01*
X0251666Y023223D01*
Y0231564D01*
X0248168Y0251064D02*
Y0255062D01*
X0250167D01*
X0250834Y0254396D01*
Y0253063D01*
X0250167Y0252397D01*
X0248168D01*
X0249501D02*
X0250834Y0251064D01*
X0254832Y0255062D02*
X0252167D01*
Y0253063D01*
X0253499Y025373D01*
X0254166D01*
X0254832Y0253063D01*
Y025173D01*
X0254166Y0251064D01*
X0252833D01*
X0252167Y025173D01*
X0248668Y0271064D02*
Y0275062D01*
X0250667D01*
X0251334Y0274396D01*
Y0273063D01*
X0250667Y0272397D01*
X0248668D01*
X0250001D02*
X0251334Y0271064D01*
X0252666Y0274396D02*
X0253333Y0275062D01*
X0254666D01*
X0255332Y0274396D01*
Y0273729D01*
X0254666Y0273063D01*
X0253999D01*
X0254666D01*
X0255332Y0272397D01*
Y027173D01*
X0254666Y0271064D01*
X0253333D01*
X0252666Y027173D01*
X0248834Y0291064D02*
Y0295062D01*
X0250834D01*
X02515Y0294396D01*
Y0293063D01*
X0250834Y0292397D01*
X0248834D01*
X0250167D02*
X02515Y0291064D01*
X0252833D02*
X0254166D01*
X0253499D01*
Y0295062D01*
X0252833Y0294396D01*
X0288149Y0236562D02*
Y0232564D01*
X0290149D01*
X0290815Y023323D01*
Y0235896D01*
X0290149Y0236562D01*
X0288149D01*
X0294147Y0232564D02*
Y0236562D01*
X0292148Y0234563D01*
X0294814D01*
X0288246Y0257062D02*
Y0253064D01*
X0290246D01*
X0290912Y025373D01*
Y0256396D01*
X0290246Y0257062D01*
X0288246D01*
X0292245Y0256396D02*
X0292912Y0257062D01*
X0294245D01*
X0294911Y0256396D01*
Y025573D01*
X0294245Y0255063D01*
X0293578D01*
X0294245D01*
X0294911Y0254397D01*
Y025373D01*
X0294245Y0253064D01*
X0292912D01*
X0292245Y025373D01*
X0248168Y0212064D02*
Y0216062D01*
X0250167D01*
X0250834Y0215396D01*
Y0214063D01*
X0250167Y0213397D01*
X0248168D01*
X0249501D02*
X0250834Y0212064D01*
X0252167Y021273D02*
X0252833Y0212064D01*
X0254166D01*
X0254832Y021273D01*
Y0215396D01*
X0254166Y0216062D01*
X0252833D01*
X0252167Y0215396D01*
Y0214729D01*
X0252833Y0214063D01*
X0254832D01*
X0287728Y0277062D02*
Y0273064D01*
X0289727D01*
X0290394Y027373D01*
Y0276396D01*
X0289727Y0277062D01*
X0287728D01*
X0294393Y0273064D02*
X0291727D01*
X0294393Y0275729D01*
Y0276396D01*
X0293726Y0277062D01*
X0292393D01*
X0291727Y0276396D01*
X0289334Y0297062D02*
Y0293064D01*
X0291334D01*
X0292Y029373D01*
Y0296396D01*
X0291334Y0297062D01*
X0289334D01*
X0293333Y0293064D02*
X0294666D01*
X0293999D01*
Y0297062D01*
X0293333Y0296396D01*
X0288168Y0217062D02*
Y0213064D01*
X0290167D01*
X0290834Y021373D01*
Y0216396D01*
X0290167Y0217062D01*
X0288168D01*
X0294832D02*
X0292166D01*
Y0215063D01*
X0293499Y0215729D01*
X0294166D01*
X0294832Y0215063D01*
Y021373D01*
X0294166Y0213064D01*
X0292833D01*
X0292166Y021373D01*
X0116Y0206062D02*
X0114667D01*
X0115333D01*
Y020273D01*
X0114667Y0202064D01*
X0114001D01*
X0113334Y020273D01*
X0117333Y0202064D02*
X0118666D01*
X0117999D01*
Y0206062D01*
X0117333Y0205396D01*
D27*
X0275321Y0007783D02*
G03*
X0285873Y0007783I0005276J000246D01*
G01*
X0285757Y0013138D02*
G03*
X0275206Y0013138I-0005276J-000246D01*
G01*
X0285739Y0032638D02*
G03*
X0275187Y0032638I-0005276J-000246D01*
G01*
X0275303Y0027283D02*
G03*
X0285855Y0027283I0005276J000246D01*
G01*
X0285836Y0052138D02*
G03*
X0275285Y0052138I-0005276J-000246D01*
G01*
X02754Y0046783D02*
G03*
X0285952Y0046783I0005276J000246D01*
G01*
X0275382Y0066783D02*
G03*
X0285933Y0066783I0005276J000246D01*
G01*
X0285818Y0072138D02*
G03*
X0275266Y0072138I-0005276J-000246D01*
G01*
X0275321Y0086783D02*
G03*
X0285873Y0086783I0005276J000246D01*
G01*
X0285757Y0092138D02*
G03*
X0275206Y0092138I-0005276J-000246D01*
G01*
X0087Y0042961D02*
Y004611D01*
X0083358D02*
Y0048394D01*
X0090642Y004611D02*
Y0048394D01*
X0083358Y004611D02*
X0087D01*
X0090642D01*
X0087Y005989D02*
Y0063039D01*
X0083358Y0057606D02*
Y005989D01*
X0087D01*
X0090642D01*
Y0057606D02*
Y005989D01*
X024411Y0014142D02*
X0246394D01*
X024411Y00105D02*
Y0014142D01*
Y0006858D02*
Y00105D01*
Y0006858D02*
X0246394D01*
X0240961Y00105D02*
X024411D01*
X025789D02*
Y0014142D01*
Y0006858D02*
Y00105D01*
X0255606Y0014142D02*
X025789D01*
X0255606Y0006858D02*
X025789D01*
Y00105D02*
X0261039D01*
X025789Y00895D02*
X0261039D01*
X0255606Y0085858D02*
X025789D01*
X0255606Y0093142D02*
X025789D01*
Y0085858D02*
Y00895D01*
Y0093142D01*
X0240961Y00895D02*
X024411D01*
Y0085858D02*
X0246394D01*
X024411D02*
Y00895D01*
Y0093142D01*
X0246394D01*
X025789Y00495D02*
X0261039D01*
X0255606Y0045858D02*
X025789D01*
X0255606Y0053142D02*
X025789D01*
Y0045858D02*
Y00495D01*
Y0053142D01*
X0240961Y00495D02*
X024411D01*
Y0045858D02*
X0246394D01*
X024411D02*
Y00495D01*
Y0053142D01*
X0246394D01*
X025789Y00695D02*
X0261039D01*
X0255606Y0065858D02*
X025789D01*
X0255606Y0073142D02*
X025789D01*
Y0065858D02*
Y00695D01*
Y0073142D01*
X0240961Y00695D02*
X024411D01*
Y0065858D02*
X0246394D01*
X024411D02*
Y00695D01*
Y0073142D01*
X0246394D01*
X025789Y003D02*
X0261039D01*
X00365Y0047461D02*
Y005061D01*
X0032858D02*
Y0052894D01*
X0040142Y005061D02*
Y0052894D01*
X0032858Y005061D02*
X00365D01*
X0040142D01*
X00365Y006439D02*
Y0067539D01*
X0032858Y0062106D02*
Y006439D01*
X00365D01*
X0040142D01*
Y0062106D02*
Y006439D01*
X01195Y0043961D02*
Y004711D01*
X0115858D02*
Y0049394D01*
X0123142Y004711D02*
Y0049394D01*
X0115858Y004711D02*
X01195D01*
X0123142D01*
X01195Y006089D02*
Y0064039D01*
X0115858Y0058606D02*
Y006089D01*
X01195D01*
X0123142D01*
Y0058606D02*
Y006089D01*
X0129461Y0031D02*
X013261D01*
Y0034642D02*
X0134894D01*
X013261Y0027358D02*
X0134894D01*
X013261Y0031D02*
Y0034642D01*
Y0027358D02*
Y0031D01*
X014639D02*
X0149539D01*
X0144106Y0034642D02*
X014639D01*
Y0031D02*
Y0034642D01*
Y0027358D02*
Y0031D01*
X0144106Y0027358D02*
X014639D01*
X0255606Y0026358D02*
X025789D01*
X0255606Y0033642D02*
X025789D01*
Y0026358D02*
Y003D01*
Y0033642D01*
X0240961Y003D02*
X024411D01*
Y0026358D02*
X0246394D01*
X024411D02*
Y003D01*
Y0033642D01*
X0246394D01*
X0275321Y0203846D02*
G03*
X0285873Y0203846I0005276J000246D01*
G01*
X0285757Y0209201D02*
G03*
X0275206Y0209201I-0005276J-000246D01*
G01*
X0285739Y0228701D02*
G03*
X0275187Y0228701I-0005276J-000246D01*
G01*
X0275303Y0223346D02*
G03*
X0285855Y0223346I0005276J000246D01*
G01*
X0285836Y0248201D02*
G03*
X0275285Y0248201I-0005276J-000246D01*
G01*
X02754Y0242846D02*
G03*
X0285952Y0242846I0005276J000246D01*
G01*
X0275382Y0262846D02*
G03*
X0285933Y0262846I0005276J000246D01*
G01*
X0285818Y0268201D02*
G03*
X0275266Y0268201I-0005276J-000246D01*
G01*
X0275321Y0282846D02*
G03*
X0285873Y0282846I0005276J000246D01*
G01*
X0285757Y0288201D02*
G03*
X0275206Y0288201I-0005276J-000246D01*
G01*
X0087Y0239024D02*
Y0242173D01*
X0083358D02*
Y0244457D01*
X0090642Y0242173D02*
Y0244457D01*
X0083358Y0242173D02*
X0087D01*
X0090642D01*
X0087Y0255953D02*
Y0259102D01*
X0083358Y0253669D02*
Y0255953D01*
X0087D01*
X0090642D01*
Y0253669D02*
Y0255953D01*
X024411Y0210205D02*
X0246394D01*
X024411Y0206563D02*
Y0210205D01*
Y0202921D02*
Y0206563D01*
Y0202921D02*
X0246394D01*
X0240961Y0206563D02*
X024411D01*
X025789D02*
Y0210205D01*
Y0202921D02*
Y0206563D01*
X0255606Y0210205D02*
X025789D01*
X0255606Y0202921D02*
X025789D01*
Y0206563D02*
X0261039D01*
X025789Y0285563D02*
X0261039D01*
X0255606Y0281921D02*
X025789D01*
X0255606Y0289205D02*
X025789D01*
Y0281921D02*
Y0285563D01*
Y0289205D01*
X0240961Y0285563D02*
X024411D01*
Y0281921D02*
X0246394D01*
X024411D02*
Y0285563D01*
Y0289205D01*
X0246394D01*
X025789Y0245563D02*
X0261039D01*
X0255606Y0241921D02*
X025789D01*
X0255606Y0249205D02*
X025789D01*
Y0241921D02*
Y0245563D01*
Y0249205D01*
X0240961Y0245563D02*
X024411D01*
Y0241921D02*
X0246394D01*
X024411D02*
Y0245563D01*
Y0249205D01*
X0246394D01*
X025789Y0265563D02*
X0261039D01*
X0255606Y0261921D02*
X025789D01*
X0255606Y0269205D02*
X025789D01*
Y0261921D02*
Y0265563D01*
Y0269205D01*
X0240961Y0265563D02*
X024411D01*
Y0261921D02*
X0246394D01*
X024411D02*
Y0265563D01*
Y0269205D01*
X0246394D01*
X025789Y0226063D02*
X0261039D01*
X00365Y0243524D02*
Y0246673D01*
X0032858D02*
Y0248957D01*
X0040142Y0246673D02*
Y0248957D01*
X0032858Y0246673D02*
X00365D01*
X0040142D01*
X00365Y0260453D02*
Y0263602D01*
X0032858Y0258169D02*
Y0260453D01*
X00365D01*
X0040142D01*
Y0258169D02*
Y0260453D01*
X01195Y0240024D02*
Y0243173D01*
X0115858D02*
Y0245457D01*
X0123142Y0243173D02*
Y0245457D01*
X0115858Y0243173D02*
X01195D01*
X0123142D01*
X01195Y0256953D02*
Y0260102D01*
X0115858Y0254669D02*
Y0256953D01*
X01195D01*
X0123142D01*
Y0254669D02*
Y0256953D01*
X0129461Y0227063D02*
X013261D01*
Y0230705D02*
X0134894D01*
X013261Y0223421D02*
X0134894D01*
X013261Y0227063D02*
Y0230705D01*
Y0223421D02*
Y0227063D01*
X014639D02*
X0149539D01*
X0144106Y0230705D02*
X014639D01*
Y0227063D02*
Y0230705D01*
Y0223421D02*
Y0227063D01*
X0144106Y0223421D02*
X014639D01*
X0255606Y0222421D02*
X025789D01*
X0255606Y0229705D02*
X025789D01*
Y0222421D02*
Y0226063D01*
Y0229705D01*
X0240961Y0226063D02*
X024411D01*
Y0222421D02*
X0246394D01*
X024411D02*
Y0226063D01*
Y0229705D01*
X0246394D01*
D28*
X01575Y0044463D02*
Y0065D01*
X01615Y0041D02*
X0170714D01*
X0161751Y0068606D02*
X0170966D01*
X01745Y0044463D02*
Y0065D01*
X0133Y0041D02*
X0142215D01*
X0133251Y0068606D02*
X0142465D01*
X0146Y0044463D02*
Y0065D01*
X0129Y0044463D02*
Y0065D01*
X0295Y01365D02*
Y0157037D01*
X0281785Y01605D02*
X0291D01*
X0281535Y0132894D02*
X0290749D01*
X0278Y01365D02*
Y0157037D01*
X0295Y01055D02*
Y0126037D01*
X0281785Y01295D02*
X0291D01*
X0281535Y0101894D02*
X0290749D01*
X0278Y01055D02*
Y0126037D01*
X0295Y0167591D02*
Y0188128D01*
X0281785Y0191591D02*
X0291D01*
X0281535Y0163984D02*
X0290749D01*
X0278Y0167591D02*
Y0188128D01*
X0051963Y0059D02*
X00725D01*
X0076106Y0062534D02*
Y0071749D01*
X00485Y0062786D02*
Y0072D01*
X0051963Y0076D02*
X00725D01*
X0222Y0012963D02*
Y00335D01*
X0209251Y0037106D02*
X0218465D01*
X0209Y00095D02*
X0218215D01*
X0205Y0012963D02*
Y00335D01*
X0051091Y00475D02*
X0071628D01*
X0047484Y0034751D02*
Y0043966D01*
X0075091Y00345D02*
Y0043715D01*
X0051091Y00305D02*
X0071628D01*
X01239Y00831D02*
X0120901D01*
Y00846D01*
X0121401Y0085099D01*
X01224D01*
X01229Y00846D01*
Y00831D01*
Y00841D02*
X01239Y0085099D01*
X0121401Y0088098D02*
X0120901Y0087599D01*
Y0086599D01*
X0121401Y0086099D01*
X0121901D01*
X01224Y0086599D01*
Y0087599D01*
X01229Y0088098D01*
X01234D01*
X01239Y0087599D01*
Y0086599D01*
X01234Y0086099D01*
X0120901Y0089098D02*
Y0091097D01*
Y0090098D01*
X01239D01*
X0131401Y0087599D02*
X0130901Y0087099D01*
Y00861D01*
X0131401Y00856D01*
X01334D01*
X01339Y00861D01*
Y0087099D01*
X01334Y0087599D01*
X0131401Y0090598D02*
X0130901Y0090099D01*
Y0089099D01*
X0131401Y0088599D01*
X0131901D01*
X0132401Y0089099D01*
Y0090099D01*
X01329Y0090598D01*
X01334D01*
X01339Y0090099D01*
Y0089099D01*
X01334Y0088599D01*
X0140901Y00856D02*
X01439D01*
Y00871D01*
X01434Y0087599D01*
X0141401D01*
X0140901Y00871D01*
Y00856D01*
X0141401Y0090598D02*
X0140901Y0090099D01*
Y0089099D01*
X0141401Y0088599D01*
X01434D01*
X01439Y0089099D01*
Y0090099D01*
X01434Y0090598D01*
X0151401Y00856D02*
X01544D01*
Y00871D01*
X01539Y0087599D01*
X0151901D01*
X0151401Y00871D01*
Y00856D01*
X0151901Y0088599D02*
X0151401Y0089099D01*
Y0090099D01*
X0151901Y0090598D01*
X01539D01*
X01544Y0090099D01*
Y0089099D01*
X01539Y0088599D01*
X0151901D01*
X0161401Y0084599D02*
X0160901Y00841D01*
Y00831D01*
X0161401Y00826D01*
X01634D01*
X01639Y00831D01*
Y00841D01*
X01634Y0084599D01*
X0160901Y0085599D02*
X01639D01*
Y0087598D01*
X0160901Y0088598D02*
X01639D01*
X01629D01*
X0160901Y0090597D01*
X01624Y0089098D01*
X01639Y0090597D01*
X0171401Y00831D02*
X0170901Y00836D01*
Y00846D01*
X0171401Y0085099D01*
X0171901D01*
X01724Y00846D01*
Y00841D01*
Y00846D01*
X01729Y0085099D01*
X01734D01*
X01739Y00846D01*
Y00836D01*
X01734Y00831D01*
X0170901Y0086099D02*
X01729D01*
X01739Y0087099D01*
X01729Y0088098D01*
X0170901D01*
X0171401Y0089098D02*
X0170901Y0089598D01*
Y0090598D01*
X0171401Y0091097D01*
X0171901D01*
X01724Y0090598D01*
Y0090098D01*
Y0090598D01*
X01729Y0091097D01*
X01734D01*
X01739Y0090598D01*
Y0089598D01*
X01734Y0089098D01*
X0191401Y0084599D02*
X0190901Y00841D01*
Y00831D01*
X0191401Y00826D01*
X01934D01*
X01939Y00831D01*
Y00841D01*
X01934Y0084599D01*
X0192401D01*
Y00836D01*
X01939Y0085599D02*
X0190901D01*
X01939Y0087598D01*
X0190901D01*
Y0088598D02*
X01939D01*
Y0090098D01*
X01934Y0090597D01*
X0191401D01*
X0190901Y0090098D01*
Y0088598D01*
X0180401Y00831D02*
X01834D01*
Y0085099D01*
X0180401Y0088098D02*
Y0086099D01*
X01834D01*
Y0088098D01*
X0181901Y0086099D02*
Y0087099D01*
X0180401Y0089098D02*
X01834D01*
Y0090598D01*
X01829Y0091097D01*
X0180901D01*
X0180401Y0090598D01*
Y0089098D01*
X02486Y0187599D02*
Y01846D01*
X0250099D01*
X0250599Y01851D01*
Y0187099D01*
X0250099Y0187599D01*
X02486D01*
X0251599Y01846D02*
X0252599D01*
X0252099D01*
Y0187599D01*
X0251599Y0187099D01*
X02456Y0177099D02*
Y01741D01*
X0247599D01*
X0250598Y0177099D02*
X0248599D01*
Y01741D01*
X0250598D01*
X0248599Y01756D02*
X0249599D01*
X0251598Y0177099D02*
Y01741D01*
X0253098D01*
X0253597Y01746D01*
Y0176599D01*
X0253098Y0177099D01*
X0251598D01*
X0248099Y0166599D02*
X02476Y0167099D01*
X02466D01*
X02461Y0166599D01*
Y01646D01*
X02466Y01641D01*
X02476D01*
X0248099Y01646D01*
X0249099Y0167099D02*
Y01641D01*
X0251098D01*
X0252098Y0167099D02*
Y01641D01*
Y01651D01*
X0254097Y0167099D01*
X0252598Y01656D01*
X0254097Y01641D01*
X02486Y0156599D02*
Y01536D01*
X0250099D01*
X0250599Y01541D01*
Y0156099D01*
X0250099Y0156599D01*
X02486D01*
X0251599Y0156099D02*
X0252099Y0156599D01*
X0253099D01*
X0253598Y0156099D01*
Y01541D01*
X0253099Y01536D01*
X0252099D01*
X0251599Y01541D01*
Y0156099D01*
X02486Y0147099D02*
Y01441D01*
X0250099D01*
X0250599Y01446D01*
Y0146599D01*
X0250099Y0147099D01*
X02486D01*
X0253598Y0146599D02*
X0253099Y0147099D01*
X0252099D01*
X0251599Y0146599D01*
Y01446D01*
X0252099Y01441D01*
X0253099D01*
X0253598Y01446D01*
X02471Y01341D02*
Y0137099D01*
X02486D01*
X0249099Y0136599D01*
Y01356D01*
X02486Y01351D01*
X02471D01*
X02481D02*
X0249099Y01341D01*
X0252098Y0136599D02*
X0251599Y0137099D01*
X0250599D01*
X0250099Y0136599D01*
Y0136099D01*
X0250599Y01356D01*
X0251599D01*
X0252098Y01351D01*
Y01346D01*
X0251599Y01341D01*
X0250599D01*
X0250099Y01346D01*
X0253098Y0137099D02*
X0255097D01*
X0254098D01*
Y01341D01*
X01106Y00076D02*
Y00081D01*
X01111D01*
Y00076D01*
X01106D01*
X0251599Y0126599D02*
X0251099Y0127099D01*
X02501D01*
X02496Y0126599D01*
Y01246D01*
X02501Y01241D01*
X0251099D01*
X0251599Y01246D01*
X0254598Y0126599D02*
X0254099Y0127099D01*
X0253099D01*
X0252599Y0126599D01*
Y0126099D01*
X0253099Y01256D01*
X0254099D01*
X0254598Y01251D01*
Y01246D01*
X0254099Y01241D01*
X0253099D01*
X0252599Y01246D01*
X0249099Y0116599D02*
X02486Y0117099D01*
X02476D01*
X02471Y0116599D01*
Y01146D01*
X02476Y01141D01*
X02486D01*
X0249099Y01146D01*
Y01156D01*
X02481D01*
X0250099Y01141D02*
Y0117099D01*
X0252098Y01141D01*
Y0117099D01*
X0253098D02*
Y01141D01*
X0254598D01*
X0255097Y01146D01*
Y0116599D01*
X0254598Y0117099D01*
X0253098D01*
X0246994Y0106599D02*
X0247494Y0107099D01*
X0248493D01*
X0248993Y0106599D01*
Y0106099D01*
X0248493Y0105599D01*
X0247993D01*
X0248493D01*
X0248993Y01051D01*
Y01046D01*
X0248493Y01041D01*
X0247494D01*
X0246994Y01046D01*
X0249993Y0107099D02*
Y01051D01*
X0250992Y01041D01*
X0251992Y01051D01*
Y0107099D01*
X0252992Y0106599D02*
X0253492Y0107099D01*
X0254491D01*
X0254991Y0106599D01*
Y0106099D01*
X0254491Y0105599D01*
X0253991D01*
X0254491D01*
X0254991Y01051D01*
Y01046D01*
X0254491Y01041D01*
X0253492D01*
X0252992Y01046D01*
X0168401Y0160599D02*
X0167901Y0160099D01*
Y01591D01*
X0168401Y01586D01*
X0168901D01*
X0169401Y01591D01*
Y0160099D01*
X01699Y0160599D01*
X01704D01*
X01709Y0160099D01*
Y01591D01*
X01704Y01586D01*
X0167901Y0161599D02*
X01709D01*
Y0163099D01*
X01704Y0163598D01*
X0168401D01*
X0167901Y0163099D01*
Y0161599D01*
X01709Y0164598D02*
X0168901D01*
X0167901Y0165598D01*
X0168901Y0166597D01*
X01709D01*
X0169401D01*
Y0164598D01*
X0158401Y0160599D02*
X0157901Y0160099D01*
Y01591D01*
X0158401Y01586D01*
X0158901D01*
X01594Y01591D01*
Y0160099D01*
X01599Y0160599D01*
X01604D01*
X01609Y0160099D01*
Y01591D01*
X01604Y01586D01*
X0158401Y0163598D02*
X0157901Y0163099D01*
Y0162099D01*
X0158401Y0161599D01*
X01604D01*
X01609Y0162099D01*
Y0163099D01*
X01604Y0163598D01*
X0157901Y0164598D02*
X01609D01*
Y0166597D01*
X0147901Y0160599D02*
X0147401Y0160099D01*
Y01591D01*
X0147901Y01586D01*
X01499D01*
X01504Y01591D01*
Y0160099D01*
X01499Y0160599D01*
X01489D01*
Y01596D01*
X01504Y0161599D02*
X0147401D01*
X01504Y0163598D01*
X0147401D01*
Y0164598D02*
X01504D01*
Y0166098D01*
X01499Y0166597D01*
X0147901D01*
X0147401Y0166098D01*
Y0164598D01*
X0137901Y01586D02*
X0137401Y01591D01*
Y0160099D01*
X0137901Y0160599D01*
X0138401D01*
X01389Y0160099D01*
Y01596D01*
Y0160099D01*
X01394Y0160599D01*
X01399D01*
X01404Y0160099D01*
Y01591D01*
X01399Y01586D01*
X0137401Y0161599D02*
X01394D01*
X01404Y0162599D01*
X01394Y0163598D01*
X0137401D01*
X0137901Y0164598D02*
X0137401Y0165098D01*
Y0166098D01*
X0137901Y0166597D01*
X0138401D01*
X01389Y0166098D01*
Y0165598D01*
Y0166098D01*
X01394Y0166597D01*
X01399D01*
X01404Y0166098D01*
Y0165098D01*
X01399Y0164598D01*
X01575Y0240526D02*
Y0261063D01*
X01615Y0237063D02*
X0170714D01*
X0161751Y0264669D02*
X0170966D01*
X01745Y0240526D02*
Y0261063D01*
X0133Y0237063D02*
X0142215D01*
X0133251Y0264669D02*
X0142465D01*
X0146Y0240526D02*
Y0261063D01*
X0129Y0240526D02*
Y0261063D01*
X0295Y0332563D02*
Y03531D01*
X0281785Y0356563D02*
X0291D01*
X0281535Y0328957D02*
X0290749D01*
X0278Y0332563D02*
Y03531D01*
X0295Y0301563D02*
Y03221D01*
X0281785Y0325563D02*
X0291D01*
X0281535Y0297957D02*
X0290749D01*
X0278Y0301563D02*
Y03221D01*
X0295Y0363654D02*
Y0384191D01*
X0281785Y0387654D02*
X0291D01*
X0281535Y0360047D02*
X0290749D01*
X0278Y0363654D02*
Y0384191D01*
X0051963Y0255063D02*
X00725D01*
X0076106Y0258597D02*
Y0267812D01*
X00485Y0258849D02*
Y0268063D01*
X0051963Y0272063D02*
X00725D01*
X0222Y0209026D02*
Y0229563D01*
X0209251Y0233169D02*
X0218465D01*
X0209Y0205563D02*
X0218215D01*
X0205Y0209026D02*
Y0229563D01*
X0051091Y0243563D02*
X0071628D01*
X0047484Y0230814D02*
Y0240029D01*
X0075091Y0230563D02*
Y0239777D01*
X0051091Y0226563D02*
X0071628D01*
X01239Y0279163D02*
X0120901D01*
Y0280662D01*
X0121401Y0281162D01*
X01224D01*
X01229Y0280662D01*
Y0279163D01*
Y0280163D02*
X01239Y0281162D01*
X0121401Y0284161D02*
X0120901Y0283662D01*
Y0282662D01*
X0121401Y0282162D01*
X0121901D01*
X01224Y0282662D01*
Y0283662D01*
X01229Y0284161D01*
X01234D01*
X01239Y0283662D01*
Y0282662D01*
X01234Y0282162D01*
X0120901Y0285161D02*
Y028716D01*
Y0286161D01*
X01239D01*
X0131401Y0283662D02*
X0130901Y0283162D01*
Y0282163D01*
X0131401Y0281663D01*
X01334D01*
X01339Y0282163D01*
Y0283162D01*
X01334Y0283662D01*
X0131401Y0286661D02*
X0130901Y0286162D01*
Y0285162D01*
X0131401Y0284662D01*
X0131901D01*
X0132401Y0285162D01*
Y0286162D01*
X01329Y0286661D01*
X01334D01*
X01339Y0286162D01*
Y0285162D01*
X01334Y0284662D01*
X0140901Y0281663D02*
X01439D01*
Y0283163D01*
X01434Y0283662D01*
X0141401D01*
X0140901Y0283163D01*
Y0281663D01*
X0141401Y0286661D02*
X0140901Y0286162D01*
Y0285162D01*
X0141401Y0284662D01*
X01434D01*
X01439Y0285162D01*
Y0286162D01*
X01434Y0286661D01*
X0151401Y0281663D02*
X01544D01*
Y0283163D01*
X01539Y0283662D01*
X0151901D01*
X0151401Y0283163D01*
Y0281663D01*
X0151901Y0284662D02*
X0151401Y0285162D01*
Y0286162D01*
X0151901Y0286661D01*
X01539D01*
X01544Y0286162D01*
Y0285162D01*
X01539Y0284662D01*
X0151901D01*
X0161401Y0280662D02*
X0160901Y0280163D01*
Y0279163D01*
X0161401Y0278663D01*
X01634D01*
X01639Y0279163D01*
Y0280163D01*
X01634Y0280662D01*
X0160901Y0281662D02*
X01639D01*
Y0283661D01*
X0160901Y0284661D02*
X01639D01*
X01629D01*
X0160901Y028666D01*
X01624Y0285161D01*
X01639Y028666D01*
X0171401Y0279163D02*
X0170901Y0279663D01*
Y0280662D01*
X0171401Y0281162D01*
X0171901D01*
X01724Y0280662D01*
Y0280163D01*
Y0280662D01*
X01729Y0281162D01*
X01734D01*
X01739Y0280662D01*
Y0279663D01*
X01734Y0279163D01*
X0170901Y0282162D02*
X01729D01*
X01739Y0283162D01*
X01729Y0284161D01*
X0170901D01*
X0171401Y0285161D02*
X0170901Y0285661D01*
Y0286661D01*
X0171401Y028716D01*
X0171901D01*
X01724Y0286661D01*
Y0286161D01*
Y0286661D01*
X01729Y028716D01*
X01734D01*
X01739Y0286661D01*
Y0285661D01*
X01734Y0285161D01*
X0191401Y0280662D02*
X0190901Y0280163D01*
Y0279163D01*
X0191401Y0278663D01*
X01934D01*
X01939Y0279163D01*
Y0280163D01*
X01934Y0280662D01*
X0192401D01*
Y0279663D01*
X01939Y0281662D02*
X0190901D01*
X01939Y0283661D01*
X0190901D01*
Y0284661D02*
X01939D01*
Y0286161D01*
X01934Y028666D01*
X0191401D01*
X0190901Y0286161D01*
Y0284661D01*
X0180401Y0279163D02*
X01834D01*
Y0281162D01*
X0180401Y0284161D02*
Y0282162D01*
X01834D01*
Y0284161D01*
X0181901Y0282162D02*
Y0283162D01*
X0180401Y0285161D02*
X01834D01*
Y0286661D01*
X01829Y028716D01*
X0180901D01*
X0180401Y0286661D01*
Y0285161D01*
X02486Y0383662D02*
Y0380663D01*
X0250099D01*
X0250599Y0381163D01*
Y0383162D01*
X0250099Y0383662D01*
X02486D01*
X0251599Y0380663D02*
X0252599D01*
X0252099D01*
Y0383662D01*
X0251599Y0383162D01*
X02456Y0373162D02*
Y0370163D01*
X0247599D01*
X0250598Y0373162D02*
X0248599D01*
Y0370163D01*
X0250598D01*
X0248599Y0371662D02*
X0249599D01*
X0251598Y0373162D02*
Y0370163D01*
X0253098D01*
X0253597Y0370663D01*
Y0372662D01*
X0253098Y0373162D01*
X0251598D01*
X0248099Y0362662D02*
X02476Y0363162D01*
X02466D01*
X02461Y0362662D01*
Y0360663D01*
X02466Y0360163D01*
X02476D01*
X0248099Y0360663D01*
X0249099Y0363162D02*
Y0360163D01*
X0251098D01*
X0252098Y0363162D02*
Y0360163D01*
Y0361163D01*
X0254097Y0363162D01*
X0252598Y0361663D01*
X0254097Y0360163D01*
X02486Y0352662D02*
Y0349663D01*
X0250099D01*
X0250599Y0350163D01*
Y0352162D01*
X0250099Y0352662D01*
X02486D01*
X0251599Y0352162D02*
X0252099Y0352662D01*
X0253099D01*
X0253598Y0352162D01*
Y0350163D01*
X0253099Y0349663D01*
X0252099D01*
X0251599Y0350163D01*
Y0352162D01*
X02486Y0343162D02*
Y0340163D01*
X0250099D01*
X0250599Y0340663D01*
Y0342662D01*
X0250099Y0343162D01*
X02486D01*
X0253598Y0342662D02*
X0253099Y0343162D01*
X0252099D01*
X0251599Y0342662D01*
Y0340663D01*
X0252099Y0340163D01*
X0253099D01*
X0253598Y0340663D01*
X02471Y0330163D02*
Y0333162D01*
X02486D01*
X0249099Y0332662D01*
Y0331663D01*
X02486Y0331163D01*
X02471D01*
X02481D02*
X0249099Y0330163D01*
X0252098Y0332662D02*
X0251599Y0333162D01*
X0250599D01*
X0250099Y0332662D01*
Y0332162D01*
X0250599Y0331663D01*
X0251599D01*
X0252098Y0331163D01*
Y0330663D01*
X0251599Y0330163D01*
X0250599D01*
X0250099Y0330663D01*
X0253098Y0333162D02*
X0255097D01*
X0254098D01*
Y0330163D01*
X01106Y0203663D02*
Y0204163D01*
X01111D01*
Y0203663D01*
X01106D01*
X0251599Y0322662D02*
X0251099Y0323162D01*
X02501D01*
X02496Y0322662D01*
Y0320663D01*
X02501Y0320163D01*
X0251099D01*
X0251599Y0320663D01*
X0254598Y0322662D02*
X0254099Y0323162D01*
X0253099D01*
X0252599Y0322662D01*
Y0322162D01*
X0253099Y0321662D01*
X0254099D01*
X0254598Y0321163D01*
Y0320663D01*
X0254099Y0320163D01*
X0253099D01*
X0252599Y0320663D01*
X0249099Y0312662D02*
X02486Y0313162D01*
X02476D01*
X02471Y0312662D01*
Y0310663D01*
X02476Y0310163D01*
X02486D01*
X0249099Y0310663D01*
Y0311663D01*
X02481D01*
X0250099Y0310163D02*
Y0313162D01*
X0252098Y0310163D01*
Y0313162D01*
X0253098D02*
Y0310163D01*
X0254598D01*
X0255097Y0310663D01*
Y0312662D01*
X0254598Y0313162D01*
X0253098D01*
X0246994Y0302662D02*
X0247494Y0303162D01*
X0248493D01*
X0248993Y0302662D01*
Y0302162D01*
X0248493Y0301662D01*
X0247993D01*
X0248493D01*
X0248993Y0301163D01*
Y0300663D01*
X0248493Y0300163D01*
X0247494D01*
X0246994Y0300663D01*
X0249993Y0303162D02*
Y0301163D01*
X0250992Y0300163D01*
X0251992Y0301163D01*
Y0303162D01*
X0252992Y0302662D02*
X0253492Y0303162D01*
X0254491D01*
X0254991Y0302662D01*
Y0302162D01*
X0254491Y0301662D01*
X0253991D01*
X0254491D01*
X0254991Y0301163D01*
Y0300663D01*
X0254491Y0300163D01*
X0253492D01*
X0252992Y0300663D01*
X0168401Y0356662D02*
X0167901Y0356163D01*
Y0355163D01*
X0168401Y0354663D01*
X0168901D01*
X0169401Y0355163D01*
Y0356163D01*
X01699Y0356662D01*
X01704D01*
X01709Y0356163D01*
Y0355163D01*
X01704Y0354663D01*
X0167901Y0357662D02*
X01709D01*
Y0359162D01*
X01704Y0359661D01*
X0168401D01*
X0167901Y0359162D01*
Y0357662D01*
X01709Y0360661D02*
X0168901D01*
X0167901Y0361661D01*
X0168901Y036266D01*
X01709D01*
X0169401D01*
Y0360661D01*
X0158401Y0356662D02*
X0157901Y0356163D01*
Y0355163D01*
X0158401Y0354663D01*
X0158901D01*
X01594Y0355163D01*
Y0356163D01*
X01599Y0356662D01*
X01604D01*
X01609Y0356163D01*
Y0355163D01*
X01604Y0354663D01*
X0158401Y0359661D02*
X0157901Y0359162D01*
Y0358162D01*
X0158401Y0357662D01*
X01604D01*
X01609Y0358162D01*
Y0359162D01*
X01604Y0359661D01*
X0157901Y0360661D02*
X01609D01*
Y036266D01*
X0147901Y0356662D02*
X0147401Y0356163D01*
Y0355163D01*
X0147901Y0354663D01*
X01499D01*
X01504Y0355163D01*
Y0356163D01*
X01499Y0356662D01*
X01489D01*
Y0355663D01*
X01504Y0357662D02*
X0147401D01*
X01504Y0359661D01*
X0147401D01*
Y0360661D02*
X01504D01*
Y0362161D01*
X01499Y036266D01*
X0147901D01*
X0147401Y0362161D01*
Y0360661D01*
X0137901Y0354663D02*
X0137401Y0355163D01*
Y0356163D01*
X0137901Y0356662D01*
X0138401D01*
X01389Y0356163D01*
Y0355663D01*
Y0356163D01*
X01394Y0356662D01*
X01399D01*
X01404Y0356163D01*
Y0355163D01*
X01399Y0354663D01*
X0137401Y0357662D02*
X01394D01*
X01404Y0358662D01*
X01394Y0359661D01*
X0137401D01*
X0137901Y0360661D02*
X0137401Y0361161D01*
Y0362161D01*
X0137901Y036266D01*
X0138401D01*
X01389Y0362161D01*
Y0361661D01*
Y0362161D01*
X01394Y036266D01*
X01399D01*
X01404Y0362161D01*
Y0361161D01*
X01399Y0360661D01*
M02*
