M48
;Layer_Color=9474304
;FILE_FORMAT=2:4
INCH,LZ
;TYPE=PLATED
T01F00S00C0.0080
T02F00S00C0.0100
T03F00S00C0.0276
T04F00S00C0.0295
T05F00S00C0.0320
T06F00S00C0.0394
T07F00S00C0.0400
T08F00S00C0.0402
%
T01
X011343Y002338
X009043Y005588
X010043Y007088
X010393Y008288
X007893
Y007488
X007293Y006438
X006343Y008988
X007693Y012238
X007993
X007843Y012438
X010493Y012588
X010943
X010743Y012238
X014543Y006738
X018743Y008638
X020143Y005038
X020294Y002438
X020635Y00253
X020643Y002538
X020493Y001688
X018643Y001638
X022043Y002938
X022493Y003488
X023653Y026656
X023803Y026856
X023503
X020753
X020553Y026506
X021003
X021103Y030806
X023603
X025153Y030106
X012753Y030456
X011353Y034056
X011202Y036656
X010861Y036565
X010853Y036556
X011003Y037406
X012853Y037456
X009453Y036156
X009003Y035606
X016953Y032356
X021453Y032006
X022453Y033506
X024203Y032656
X023603Y031606
X020153Y036756
T02
X017553Y020956
X013943Y018138
T03
X001293Y010538
X002293
X002287Y012538
X001287
X001285Y014538
X002285
X029203Y020656
X030203
X030201Y022606
X029201
X029211Y024556
X030211
X030209Y026556
X029209
X029203Y028556
X030203
X002293Y018438
X001293
X001295Y016488
X002295
T04
X003365Y010538
Y012538
Y014538
X006121
Y012538
Y010538
X017893Y01271
Y015466
X021143Y015566
Y01281
X026193Y01236
Y015116
X025375Y020656
Y022606
Y024556
Y026556
Y028556
X028131
Y026556
Y024556
Y022606
Y020656
X021303Y020478
Y023234
X016981Y022706
X017271Y016388
X014515
X010193Y01586
Y018616
X006121Y018438
Y016488
X003365
Y018438
X005303Y023978
Y026734
X010353Y026284
Y023528
X013603Y023628
X014225Y022706
X013603Y026384
T05
X007343Y000688
X008343
X009343
X008293Y003838
X007293
X006293
X023203Y035256
X024203
X025203
X024153Y038406
X023153
X022153
T06
X000693Y000738
X001693
Y002738
X000693
Y003847
X001693
Y005847
X000693
Y006947
X001693
Y008947
X000693
X012743Y012979
X013743
X015593
Y014979
X013743
X012743
X016593
Y012979
X022584Y013238
Y012238
X024584
Y013238
X024743Y015088
X022743
Y016088
X024743
X023503Y020965
X022503
Y022965
X023503
X018753Y024115
X017753
X015903
Y026115
X017753
X018753
X029803Y030147
X030803
X014903Y026115
Y024115
X008753Y024006
Y023006
X006753
Y024006
X006912Y025856
Y026856
X008912
Y025856
X008993Y018129
X007993
Y016129
X008993
X029803Y032147
X030803
Y033247
X029803
Y035247
X030803
Y036356
X029803
Y038356
X030803
T07
X003743Y000938
Y001938
Y002938
Y003938
Y004938
Y005938
Y006938
Y007938
Y008938
X019343Y018688
X020343
X021343
X022343
X023343
X024343
X025343
X026343
X027343
X028343
X029343
X027753Y030156
Y031156
X012153Y020406
X011153
X010153
X009153
X008153
X007153
X006153
X005153
X004153
X003153
X002153
X027753Y032156
Y033156
Y034156
Y035156
Y036156
Y037156
Y038156
T08
X012943Y002138
X013943
X014943
X014643Y009688
X013643
X012643
X011643
X010643
X015643
X016643
X017643
X015943Y002138
X024343Y000688
X025343
X026343
X027343
X028343
X029343
Y017688
X028343
X027343
X026343
X025343
X024343
X023343
X022343
X021343
X020343
X019343
X018343
X017343
X016343
X016153Y021406
X015853Y029406
X016853
X017853
X018853
X019853
X020853
X014853
X013853
X014153Y021406
X015153
X013153
X012153
X011153
X010153
X009153
X008153
X007153
X006153
X005153
X004153
X003153
X002153
X015343Y017688
X015553Y036956
X007153Y038406
X006153
X005153
X004153
X003153
X002153
X016553Y036956
X017553
X018553
M30
