G04*
G04 #@! TF.GenerationSoftware,Altium Limited,Altium Designer,24.4.1 (13)*
G04*
G04 Layer_Color=32896*
%FSTAX25Y25*%
%MOIN*%
G70*
G04*
G04 #@! TF.SameCoordinates,D68B6D5F-11C5-45A1-AF62-CA48ED7D446B*
G04*
G04*
G04 #@! TF.FilePolarity,Positive*
G04*
G01*
G75*
%ADD25C,0.01000*%
%ADD26C,0.00500*%
D25*
X0174028Y0237063D02*
G03*
X0174028Y0237063I-00005J0D01*
G01*
X0145528D02*
G03*
X0145528Y0237063I-00005J0D01*
G01*
X0312528Y0356563D02*
G03*
X0312528Y0356563I-00005J0D01*
G01*
Y0325563D02*
G03*
X0312528Y0325563I-00005J0D01*
G01*
Y0387653D02*
G03*
X0312528Y0387653I-00005J0D01*
G01*
X0221528Y0205563D02*
G03*
X0221528Y0205563I-00005J0D01*
G01*
X0065528Y0272563D02*
G03*
X0065528Y0272563I-00005J0D01*
G01*
X0092118Y0226063D02*
G03*
X0092118Y0226063I-00005J0D01*
G01*
X0207527Y0224061D02*
X0203528D01*
Y0222062D01*
X0204195Y0221396D01*
X0205528D01*
X0206194Y0222062D01*
Y0224061D01*
Y0222728D02*
X0207527Y0221396D01*
Y0220063D02*
Y021873D01*
Y0219396D01*
X0203528D01*
X0204195Y0220063D01*
Y021673D02*
X0203528Y0216064D01*
Y0214731D01*
X0204195Y0214065D01*
X0206861D01*
X0207527Y0214731D01*
Y0216064D01*
X0206861Y021673D01*
X0204195D01*
X0140933Y0153882D02*
G03*
X0140933Y0153882I00005J0D01*
G01*
X0169433D02*
G03*
X0169433Y0153882I00005J0D01*
G01*
X0002433Y0034382D02*
G03*
X0002433Y0034382I00005J0D01*
G01*
Y0065382D02*
G03*
X0002433Y0065382I00005J0D01*
G01*
Y0003291D02*
G03*
X0002433Y0003291I00005J0D01*
G01*
X0093433Y0185382D02*
G03*
X0093433Y0185382I00005J0D01*
G01*
X0249433Y0118382D02*
G03*
X0249433Y0118382I00005J0D01*
G01*
X0222842Y0164882D02*
G03*
X0222842Y0164882I00005J0D01*
G01*
X0107434Y0166884D02*
X0111432D01*
Y0168883D01*
X0110766Y0169549D01*
X0109433D01*
X0108766Y0168883D01*
Y0166884D01*
Y0168216D02*
X0107434Y0169549D01*
Y0170882D02*
Y0172215D01*
Y0171549D01*
X0111432D01*
X0110766Y0170882D01*
Y0174214D02*
X0111432Y0174881D01*
Y0176214D01*
X0110766Y017688D01*
X01081D01*
X0107434Y0176214D01*
Y0174881D01*
X01081Y0174214D01*
X0110766D01*
D26*
X0213028Y0225453D02*
Y0228602D01*
X0209386Y0223169D02*
Y0225453D01*
X0216669Y0223169D02*
Y0225453D01*
X0209386D02*
X0213028D01*
X0216669D01*
X0213028Y0208524D02*
Y0211673D01*
X0209386D02*
Y0213957D01*
Y0211673D02*
X0213028D01*
X0216669D01*
Y0213957D01*
X0101933Y0165492D02*
Y0162343D01*
X0105575Y0167776D02*
Y0165492D01*
X0098291Y0167776D02*
Y0165492D01*
X0105575D02*
X0101933D01*
X0098291D01*
X0101933Y0182421D02*
Y0179272D01*
X0105575D02*
Y0176988D01*
Y0179272D02*
X0101933D01*
X0098291D01*
Y0176988D01*
M02*
