G04*
G04 #@! TF.GenerationSoftware,Altium Limited,Altium Designer,24.4.1 (13)*
G04*
G04 Layer_Color=255*
%FSTAX25Y25*%
%MOIN*%
G70*
G04*
G04 #@! TF.SameCoordinates,020C5614-C29D-4F9E-ABEE-A2FB782F7328*
G04*
G04*
G04 #@! TF.FilePolarity,Positive*
G04*
G01*
G75*
%ADD15R,0.05394X0.05394*%
%ADD16C,0.05394*%
%ADD17C,0.05937*%
%ADD18C,0.06000*%
%ADD19C,0.04578*%
%ADD20R,0.04578X0.04578*%
%ADD21C,0.04953*%
%ADD22C,0.04756*%
%ADD23R,0.04756X0.04756*%
D15*
X0192Y0098D02*
D03*
X0139Y01735D02*
D03*
X0055Y0188D02*
D03*
X0145Y0018D02*
D03*
X0192Y0294063D02*
D03*
X0139Y0369563D02*
D03*
X0055Y0384063D02*
D03*
X0145Y0214063D02*
D03*
D16*
X0182Y0098D02*
D03*
X0172D02*
D03*
X0162D02*
D03*
X0152D02*
D03*
X0142D02*
D03*
X0132D02*
D03*
X0122D02*
D03*
X0149Y01735D02*
D03*
X0159D02*
D03*
X0169D02*
D03*
X0045Y0188D02*
D03*
X0035D02*
D03*
X0025D02*
D03*
X0015D02*
D03*
X0005D02*
D03*
X0135Y0018D02*
D03*
X0125D02*
D03*
X0115D02*
D03*
X0105D02*
D03*
X0095D02*
D03*
X0085D02*
D03*
X0075D02*
D03*
X0065D02*
D03*
X0055D02*
D03*
X0045D02*
D03*
X0035D02*
D03*
X0025D02*
D03*
X0015D02*
D03*
X0005D02*
D03*
X0182Y0294063D02*
D03*
X0172D02*
D03*
X0162D02*
D03*
X0152D02*
D03*
X0142D02*
D03*
X0132D02*
D03*
X0122D02*
D03*
X0149Y0369563D02*
D03*
X0159D02*
D03*
X0169D02*
D03*
X0045Y0384063D02*
D03*
X0035D02*
D03*
X0025D02*
D03*
X0015D02*
D03*
X0005D02*
D03*
X0135Y0214063D02*
D03*
X0125D02*
D03*
X0115D02*
D03*
X0105D02*
D03*
X0095D02*
D03*
X0085D02*
D03*
X0075D02*
D03*
X0065D02*
D03*
X0055D02*
D03*
X0045D02*
D03*
X0035D02*
D03*
X0025D02*
D03*
X0015D02*
D03*
X0005D02*
D03*
D17*
X0171Y0045091D02*
D03*
X0161D02*
D03*
X0171Y0065091D02*
D03*
X0161D02*
D03*
X01425Y0045091D02*
D03*
X01325D02*
D03*
X01425Y0065091D02*
D03*
X01325D02*
D03*
X02915Y0136409D02*
D03*
X02815D02*
D03*
X02915Y015641D02*
D03*
X02815D02*
D03*
X02915Y010541D02*
D03*
X02815D02*
D03*
X02915Y0125409D02*
D03*
X02815D02*
D03*
X02915Y01675D02*
D03*
X02815D02*
D03*
X02915Y01875D02*
D03*
X02815D02*
D03*
X02085Y0033591D02*
D03*
X02185D02*
D03*
X02085Y0013591D02*
D03*
X02185D02*
D03*
X0072591Y00725D02*
D03*
Y00625D02*
D03*
X0052591Y00725D02*
D03*
Y00625D02*
D03*
X0051Y0034D02*
D03*
Y0044D02*
D03*
X0071Y0034D02*
D03*
Y0044D02*
D03*
X0171Y0241154D02*
D03*
X0161D02*
D03*
X0171Y0261154D02*
D03*
X0161D02*
D03*
X01425Y0241154D02*
D03*
X01325D02*
D03*
X01425Y0261154D02*
D03*
X01325D02*
D03*
X02915Y0332472D02*
D03*
X02815D02*
D03*
X02915Y0352472D02*
D03*
X02815D02*
D03*
X02915Y0301472D02*
D03*
X02815D02*
D03*
X02915Y0321473D02*
D03*
X02815D02*
D03*
X02915Y0363563D02*
D03*
X02815D02*
D03*
X02915Y0383563D02*
D03*
X02815D02*
D03*
X02085Y0229654D02*
D03*
X02185D02*
D03*
X02085Y0209654D02*
D03*
X02185D02*
D03*
X0072591Y0268563D02*
D03*
Y0258563D02*
D03*
X0052591Y0268563D02*
D03*
Y0258563D02*
D03*
X0051Y0230063D02*
D03*
Y0240063D02*
D03*
X0071Y0230063D02*
D03*
Y0240063D02*
D03*
D18*
X0261Y01855D02*
D03*
Y01755D02*
D03*
Y01655D02*
D03*
Y01555D02*
D03*
Y01255D02*
D03*
Y01155D02*
D03*
Y01055D02*
D03*
Y01455D02*
D03*
Y01355D02*
D03*
X0055Y0008D02*
D03*
X0045D02*
D03*
X0085D02*
D03*
X0075D02*
D03*
X0065D02*
D03*
X0035D02*
D03*
X0025D02*
D03*
X0015D02*
D03*
X0005D02*
D03*
X0105D02*
D03*
X0095D02*
D03*
X0261Y0381563D02*
D03*
Y0371563D02*
D03*
Y0361563D02*
D03*
Y0351563D02*
D03*
Y0321563D02*
D03*
Y0311563D02*
D03*
Y0301563D02*
D03*
Y0341563D02*
D03*
Y0331563D02*
D03*
X0055Y0204063D02*
D03*
X0045D02*
D03*
X0085D02*
D03*
X0075D02*
D03*
X0065D02*
D03*
X0035D02*
D03*
X0025D02*
D03*
X0015D02*
D03*
X0005D02*
D03*
X0105D02*
D03*
X0095D02*
D03*
D19*
X0225Y0188D02*
D03*
X0215D02*
D03*
X02255Y01565D02*
D03*
X02355D02*
D03*
X0225Y0384063D02*
D03*
X0215D02*
D03*
X02255Y0352563D02*
D03*
X02355D02*
D03*
D20*
X0205Y0188D02*
D03*
X02155Y01565D02*
D03*
X0205Y0384063D02*
D03*
X02155Y0352563D02*
D03*
D21*
X0237221Y003D02*
D03*
X0264779D02*
D03*
X0237221Y00695D02*
D03*
X0264779D02*
D03*
X0237221Y00495D02*
D03*
X0264779D02*
D03*
X0237221Y00895D02*
D03*
X0264779D02*
D03*
Y00105D02*
D03*
X0237221D02*
D03*
X0087Y006678D02*
D03*
Y003922D02*
D03*
X0153279Y0031D02*
D03*
X0125721D02*
D03*
X01195Y006778D02*
D03*
Y004022D02*
D03*
X00365Y007128D02*
D03*
Y004372D02*
D03*
X01965Y0008721D02*
D03*
Y003628D02*
D03*
X0237221Y0226063D02*
D03*
X0264779D02*
D03*
X0237221Y0265563D02*
D03*
X0264779D02*
D03*
X0237221Y0245563D02*
D03*
X0264779D02*
D03*
X0237221Y0285563D02*
D03*
X0264779D02*
D03*
Y0206563D02*
D03*
X0237221D02*
D03*
X0087Y0262842D02*
D03*
Y0235283D02*
D03*
X0153279Y0227063D02*
D03*
X0125721D02*
D03*
X01195Y0263843D02*
D03*
Y0236283D02*
D03*
X00365Y0267342D02*
D03*
Y0239784D02*
D03*
X01965Y0204784D02*
D03*
Y0232343D02*
D03*
D22*
X02855Y00105D02*
D03*
X0285482Y003D02*
D03*
X0285579Y00495D02*
D03*
X028556Y00695D02*
D03*
X02855Y00895D02*
D03*
Y0206563D02*
D03*
X0285482Y0226063D02*
D03*
X0285579Y0245563D02*
D03*
X028556Y0265563D02*
D03*
X02855Y0285563D02*
D03*
D23*
X02755Y00105D02*
D03*
X0275482Y003D02*
D03*
X0275579Y00495D02*
D03*
X027556Y00695D02*
D03*
X02755Y00895D02*
D03*
Y0206563D02*
D03*
X0275482Y0226063D02*
D03*
X0275579Y0245563D02*
D03*
X027556Y0265563D02*
D03*
X02755Y0285563D02*
D03*
M02*
