G04*
G04 #@! TF.GenerationSoftware,Altium Limited,Altium Designer,24.4.1 (13)*
G04*
G04 Layer_Physical_Order=2*
G04 Layer_Color=16711680*
%FSTAX25Y25*%
%MOIN*%
G70*
G04*
G04 #@! TF.SameCoordinates,D68B6D5F-11C5-45A1-AF62-CA48ED7D446B*
G04*
G04*
G04 #@! TF.FilePolarity,Positive*
G04*
G01*
G75*
%ADD10C,0.02178*%
%ADD11C,0.03000*%
%ADD12C,0.02000*%
%ADD13C,0.01500*%
%ADD14R,0.05394X0.05394*%
%ADD15C,0.05394*%
%ADD16C,0.05937*%
%ADD17C,0.06000*%
%ADD18C,0.04578*%
%ADD19R,0.04578X0.04578*%
%ADD20C,0.04953*%
%ADD21C,0.04756*%
%ADD22R,0.04756X0.04756*%
%ADD23C,0.02200*%
G36*
X0313498Y0197592D02*
X0167223D01*
X0167031Y0198054D01*
X0177034Y0208057D01*
X017712Y0208185D01*
X0177308Y0208373D01*
X017741Y020862D01*
X0177496Y0208748D01*
X0177526Y0208899D01*
X0177628Y0209145D01*
Y0209412D01*
X0177658Y0209563D01*
X0177628Y0209714D01*
Y0209981D01*
X0177526Y0210227D01*
X0177496Y0210378D01*
X017741Y0210506D01*
X0177308Y0210753D01*
X017712Y0210941D01*
X0177034Y0211069D01*
X0176906Y0211155D01*
X0176717Y0211343D01*
X0176471Y0211445D01*
X0176343Y0211531D01*
X0176192Y0211561D01*
X0175945Y0211663D01*
X0175679D01*
X0175528Y0211693D01*
X0175376Y0211663D01*
X017511D01*
X0174864Y0211561D01*
X0174713Y0211531D01*
X0174584Y0211445D01*
X0174338Y0211343D01*
X017415Y0211155D01*
X0174021Y0211069D01*
X0164056Y0201104D01*
X0124879D01*
X0124687Y0201566D01*
X0124729Y0201607D01*
X0125255Y0202519D01*
X0125528Y0203536D01*
Y020459D01*
X0125255Y0205607D01*
X0124729Y0206519D01*
X0123984Y0207264D01*
X0123072Y020779D01*
X0122054Y0208063D01*
X0121001D01*
X0119984Y020779D01*
X0119072Y0207264D01*
X0118327Y0206519D01*
X01178Y0205607D01*
X0117528Y020459D01*
Y0203536D01*
X01178Y0202519D01*
X0118327Y0201607D01*
X0118368Y0201566D01*
X0118177Y0201104D01*
X0114879D01*
X0114687Y0201566D01*
X0114728Y0201607D01*
X0115255Y0202519D01*
X0115528Y0203536D01*
Y020459D01*
X0115255Y0205607D01*
X0114728Y0206519D01*
X0113984Y0207264D01*
X0113072Y020779D01*
X0112054Y0208063D01*
X0111001D01*
X0109984Y020779D01*
X0109072Y0207264D01*
X0108327Y0206519D01*
X01078Y0205607D01*
X0107528Y020459D01*
Y0203536D01*
X01078Y0202519D01*
X0108327Y0201607D01*
X0108368Y0201566D01*
X0108177Y0201104D01*
X0107499D01*
X010543Y0203173D01*
X0105528Y0203536D01*
Y020459D01*
X0105255Y0205607D01*
X0104728Y0206519D01*
X0103984Y0207264D01*
X0103072Y020779D01*
X0102054Y0208063D01*
X0101001D01*
X0099984Y020779D01*
X0099072Y0207264D01*
X0098327Y0206519D01*
X00978Y0205607D01*
X0097528Y020459D01*
Y0203536D01*
X00978Y0202519D01*
X0098327Y0201607D01*
X0099072Y0200862D01*
X0099984Y0200336D01*
X0101001Y0200063D01*
X0102054D01*
X0102418Y020016D01*
X0104524Y0198054D01*
X0104333Y0197592D01*
X0058648D01*
X0058441Y0198092D01*
X0060536Y0200188D01*
X0061001Y0200063D01*
X0062054D01*
X0063072Y0200336D01*
X0063984Y0200862D01*
X0064728Y0201607D01*
X0065255Y0202519D01*
X0065528Y0203536D01*
Y020459D01*
X0065255Y0205607D01*
X0064728Y0206519D01*
X0063984Y0207264D01*
X0063072Y020779D01*
X0062054Y0208063D01*
X0061001D01*
X0059984Y020779D01*
X0059072Y0207264D01*
X0058327Y0206519D01*
X00578Y0205607D01*
X0057528Y020459D01*
Y0203536D01*
X0057652Y0203071D01*
X0055683Y0201102D01*
X0054877D01*
X0054686Y0201564D01*
X0054729Y0201607D01*
X0055255Y0202519D01*
X0055528Y0203536D01*
Y020459D01*
X0055255Y0205607D01*
X0054729Y0206519D01*
X0053984Y0207264D01*
X0053072Y020779D01*
X0052054Y0208063D01*
X0051001D01*
X0049984Y020779D01*
X0049072Y0207264D01*
X0048327Y0206519D01*
X00478Y0205607D01*
X0047528Y020459D01*
Y0203536D01*
X00478Y0202519D01*
X0048327Y0201607D01*
X004837Y0201564D01*
X0048178Y0201102D01*
X0044877D01*
X0044686Y0201564D01*
X0044728Y0201607D01*
X0045255Y0202519D01*
X0045528Y0203536D01*
Y020459D01*
X0045255Y0205607D01*
X0044728Y0206519D01*
X0043984Y0207264D01*
X0043072Y020779D01*
X0042054Y0208063D01*
X0041001D01*
X0039984Y020779D01*
X0039072Y0207264D01*
X0038327Y0206519D01*
X00378Y0205607D01*
X0037528Y020459D01*
Y0203536D01*
X00378Y0202519D01*
X0038327Y0201607D01*
X003837Y0201564D01*
X0038178Y0201102D01*
X0034877D01*
X0034686Y0201564D01*
X0034729Y0201607D01*
X0035255Y0202519D01*
X0035528Y0203536D01*
Y020459D01*
X0035255Y0205607D01*
X0034729Y0206519D01*
X0033984Y0207264D01*
X0033072Y020779D01*
X0032054Y0208063D01*
X0031001D01*
X0029984Y020779D01*
X0029072Y0207264D01*
X0028327Y0206519D01*
X00278Y0205607D01*
X0027528Y020459D01*
Y0203536D01*
X00278Y0202519D01*
X0028327Y0201607D01*
X002837Y0201564D01*
X0028178Y0201102D01*
X0024877D01*
X0024686Y0201564D01*
X0024728Y0201607D01*
X0025255Y0202519D01*
X0025528Y0203536D01*
Y0203563D01*
X0021528D01*
X0017528D01*
Y0203536D01*
X00178Y0202519D01*
X0018327Y0201607D01*
X001837Y0201564D01*
X0018178Y0201102D01*
X0017372D01*
X0014567Y0203908D01*
Y0216218D01*
X002147Y0223121D01*
X0021912Y0223783D01*
X0022067Y0224563D01*
Y0308218D01*
X0098872Y0385024D01*
X0202683D01*
X0213586Y0374121D01*
X0214247Y0373679D01*
X0215028Y0373524D01*
X0215028Y0373524D01*
X0257028D01*
X0257808Y0373679D01*
X025847Y0374121D01*
X0270372Y0386024D01*
X0276789D01*
X0276855Y0385524D01*
X0275984Y038529D01*
X0275072Y0384764D01*
X0274327Y0384019D01*
X02738Y0383107D01*
X0273528Y038209D01*
Y0381036D01*
X0273625Y0380673D01*
X0264145Y0371193D01*
X0215028D01*
X0214212Y0371031D01*
X0213522Y0370569D01*
X0197145Y0354193D01*
X015183D01*
X0151769Y0354181D01*
X0150716Y0354042D01*
X0149678Y0353612D01*
X0148787Y0352928D01*
X0148102Y0352037D01*
X0147604Y0352139D01*
Y0355974D01*
X0147589Y0356046D01*
X0147455Y0357065D01*
X0147034Y0358081D01*
X0146364Y0358954D01*
X0145492Y0359624D01*
X0144475Y0360045D01*
X0143457Y0360179D01*
X0143384Y0360193D01*
X0143312Y0360179D01*
X0142294Y0360045D01*
X0141277Y0359624D01*
X0140404Y0358954D01*
X0139735Y0358081D01*
X0139314Y0357065D01*
X013918Y0356046D01*
X0139165Y0355974D01*
Y0354241D01*
X0139159D01*
X0139147Y0354211D01*
X0139117Y0354199D01*
Y0354193D01*
X0125028D01*
X0124213Y0354031D01*
X0123521Y0353569D01*
X0112022Y0342069D01*
X0111936Y0341941D01*
X0111747Y0341753D01*
X0111645Y0341506D01*
X011156Y0341378D01*
X011153Y0341227D01*
X0111428Y0340981D01*
Y0340714D01*
X0111398Y0340563D01*
X0111428Y0340412D01*
Y0340145D01*
X011153Y0339899D01*
X011156Y0339748D01*
X0111645Y033962D01*
X0111747Y0339373D01*
X0111936Y0339185D01*
X0112022Y0339057D01*
X011215Y0338971D01*
X0112338Y0338783D01*
X0112584Y0338681D01*
X0112713Y0338595D01*
X0112864Y0338565D01*
X011311Y0338463D01*
X0113376D01*
X0113528Y0338433D01*
X0113679Y0338463D01*
X0113945D01*
X0114192Y0338565D01*
X0114343Y0338595D01*
X0114471Y0338681D01*
X0114717Y0338783D01*
X0114906Y0338971D01*
X0115034Y0339057D01*
X012591Y0349933D01*
X0139117D01*
X0139178Y0349945D01*
X0140231Y0350084D01*
X0141269Y0350514D01*
X014216Y0351198D01*
X0142844Y0352089D01*
X0143343Y0351987D01*
Y0348152D01*
X0143358Y034808D01*
X0143492Y0347061D01*
X0143913Y0346045D01*
X0144583Y0345172D01*
X0145456Y0344502D01*
X0146472Y0344081D01*
X014749Y0343947D01*
X0147563Y0343933D01*
X0147635Y0343947D01*
X0148653Y0344081D01*
X014967Y0344502D01*
X0150543Y0345172D01*
X0151212Y0346045D01*
X0151633Y0347061D01*
X0151768Y034808D01*
X0151782Y0348152D01*
Y0349885D01*
X0151788D01*
X01518Y0349915D01*
X015183Y0349927D01*
Y0349933D01*
X0198028D01*
X0198843Y0350095D01*
X0199534Y0350557D01*
X021591Y0366933D01*
X0265028D01*
X0265843Y0367095D01*
X0266534Y0367557D01*
X0276638Y037766D01*
X0277001Y0377563D01*
X0278054D01*
X0279072Y0377836D01*
X0279984Y0378362D01*
X0280729Y0379107D01*
X0281255Y0380019D01*
X0281528Y0381036D01*
Y038209D01*
X0281255Y0383107D01*
X0280729Y0384019D01*
X0279984Y0384764D01*
X0279072Y038529D01*
X0278201Y0385524D01*
X0278266Y0386024D01*
X0283183D01*
X0288988Y0380218D01*
Y0346563D01*
X0289144Y0345783D01*
X0289586Y0345121D01*
X0295988Y0338718D01*
Y0335877D01*
X0295591Y0335648D01*
X0294852Y0334909D01*
X029433Y0334004D01*
X0294059Y0332995D01*
Y033195D01*
X029433Y0330941D01*
X0294852Y0330036D01*
X0295591Y0329297D01*
X0296496Y0328774D01*
X0297505Y0328504D01*
X029855D01*
X0299559Y0328774D01*
X0300464Y0329297D01*
X0301203Y0330036D01*
X0301726Y0330941D01*
X0301996Y033195D01*
Y0332995D01*
X0301726Y0334004D01*
X0301203Y0334909D01*
X0300464Y0335648D01*
X0300067Y0335877D01*
Y0339563D01*
X0299912Y0340343D01*
X029947Y0341005D01*
X029947Y0341005D01*
X0293067Y0347408D01*
Y0381063D01*
X0292912Y0381843D01*
X029247Y0382505D01*
X029247Y0382505D01*
X0286021Y0388953D01*
X0286212Y0389416D01*
X0313498D01*
Y0197592D01*
D02*
G37*
G36*
X0096925Y0389332D02*
X0096806Y0388652D01*
X0096586Y0388505D01*
X0018586Y0310505D01*
X0018144Y0309843D01*
X0017988Y0309063D01*
Y0225408D01*
X0011086Y0218505D01*
X0010644Y0217843D01*
X0010488Y0217063D01*
Y0203063D01*
X0010644Y0202283D01*
X0011086Y0201621D01*
X0014615Y0198092D01*
X0014407Y0197592D01*
X0001557D01*
Y0222574D01*
X0001557Y0222756D01*
X0001568Y0223234D01*
X0001568Y0223234D01*
X0001545Y0223722D01*
X0001627Y022434D01*
X0001927Y0225065D01*
X0002404Y0225687D01*
X0003026Y0226164D01*
X0003712Y0226448D01*
X0004199Y0226523D01*
D01*
X0004673Y0226534D01*
X0008028D01*
Y0226527D01*
X0009498Y0226672D01*
X0010912Y02271D01*
X0012215Y0227797D01*
X0013357Y0228734D01*
X0014294Y0229876D01*
X001499Y0231179D01*
X0015419Y0232593D01*
X0015564Y0234063D01*
X0015557D01*
X0015557Y0389416D01*
X0096864Y0389416D01*
X0096925Y0389332D01*
D02*
G37*
G36*
X025652Y0192852D02*
X0254425Y0190757D01*
X0253959Y0190882D01*
X0252906D01*
X0251889Y0190609D01*
X0250977Y0190083D01*
X0250232Y0189338D01*
X0249706Y0188426D01*
X0249433Y0187408D01*
Y0186355D01*
X0249706Y0185338D01*
X0250232Y0184426D01*
X0250977Y0183681D01*
X0251889Y0183154D01*
X0252906Y0182882D01*
X0253959D01*
X0254977Y0183154D01*
X0255889Y0183681D01*
X0256634Y0184426D01*
X025716Y0185338D01*
X0257433Y0186355D01*
Y0187408D01*
X0257308Y0187873D01*
X0259278Y0189843D01*
X0260084D01*
X0260275Y0189381D01*
X0260232Y0189338D01*
X0259705Y0188426D01*
X0259433Y0187408D01*
Y0186355D01*
X0259705Y0185338D01*
X0260232Y0184426D01*
X0260977Y0183681D01*
X0261889Y0183154D01*
X0262906Y0182882D01*
X026396D01*
X0264977Y0183154D01*
X0265889Y0183681D01*
X0266634Y0184426D01*
X026716Y0185338D01*
X0267433Y0186355D01*
Y0187408D01*
X026716Y0188426D01*
X0266634Y0189338D01*
X0266591Y0189381D01*
X0266782Y0189843D01*
X0270084D01*
X0270275Y0189381D01*
X0270232Y0189338D01*
X0269706Y0188426D01*
X0269433Y0187408D01*
Y0186355D01*
X0269706Y0185338D01*
X0270232Y0184426D01*
X0270977Y0183681D01*
X0271889Y0183154D01*
X0272906Y0182882D01*
X0273959D01*
X0274977Y0183154D01*
X0275889Y0183681D01*
X0276634Y0184426D01*
X027716Y0185338D01*
X0277433Y0186355D01*
Y0187408D01*
X027716Y0188426D01*
X0276634Y0189338D01*
X0276591Y0189381D01*
X0276782Y0189843D01*
X0280084D01*
X0280275Y0189381D01*
X0280232Y0189338D01*
X0279706Y0188426D01*
X0279433Y0187408D01*
Y0186355D01*
X0279706Y0185338D01*
X0280232Y0184426D01*
X0280977Y0183681D01*
X0281889Y0183154D01*
X0282906Y0182882D01*
X028396D01*
X0284977Y0183154D01*
X0285889Y0183681D01*
X0286634Y0184426D01*
X028716Y0185338D01*
X0287433Y0186355D01*
Y0187408D01*
X028716Y0188426D01*
X0286634Y0189338D01*
X0286591Y0189381D01*
X0286782Y0189843D01*
X0290084D01*
X0290275Y0189381D01*
X0290232Y0189338D01*
X0289705Y0188426D01*
X0289433Y0187408D01*
Y0187382D01*
X0297433D01*
Y0187408D01*
X029716Y0188426D01*
X0296634Y0189338D01*
X0296591Y0189381D01*
X0296782Y0189843D01*
X0297588D01*
X0300394Y0187037D01*
Y0174726D01*
X0293491Y0167824D01*
X0293049Y0167162D01*
X0292894Y0166382D01*
Y0082727D01*
X0216088Y0005921D01*
X0112278D01*
X0101375Y0016824D01*
X0100713Y0017266D01*
X0099933Y0017421D01*
X0099933Y0017421D01*
X0057933D01*
X0057153Y0017266D01*
X0056491Y0016824D01*
X0044588Y0004921D01*
X0038172D01*
X0038106Y0005421D01*
X0038977Y0005655D01*
X0039889Y0006181D01*
X0040634Y0006926D01*
X004116Y0007838D01*
X0041433Y0008855D01*
Y0009909D01*
X0041335Y0010272D01*
X0050815Y0019752D01*
X0099933D01*
X0100748Y0019914D01*
X0101439Y0020376D01*
X0117815Y0036752D01*
X016313D01*
X0163192Y0036764D01*
X0164244Y0036903D01*
X0165283Y0037333D01*
X0166174Y0038017D01*
X0166858Y0038908D01*
X0167357Y0038806D01*
Y0034971D01*
X0167371Y0034898D01*
X0167506Y003388D01*
X0167927Y0032864D01*
X0168596Y0031991D01*
X0169469Y0031321D01*
X0170485Y00309D01*
X0171504Y0030766D01*
X0171576Y0030752D01*
X0171649Y0030766D01*
X0172667Y00309D01*
X0173683Y0031321D01*
X0174556Y0031991D01*
X0175226Y0032864D01*
X0175647Y003388D01*
X0175781Y0034898D01*
X0175795Y0034971D01*
Y0036704D01*
X0175801D01*
X0175814Y0036734D01*
X0175844Y0036746D01*
Y0036752D01*
X0189933D01*
X0190748Y0036914D01*
X0191439Y0037376D01*
X0202939Y0048876D01*
X0203025Y0049004D01*
X0203213Y0049192D01*
X0203315Y0049439D01*
X0203401Y0049567D01*
X0203431Y0049718D01*
X0203533Y0049964D01*
Y0050231D01*
X0203563Y0050382D01*
X0203533Y0050533D01*
Y00508D01*
X0203431Y0051046D01*
X0203401Y0051197D01*
X0203315Y0051325D01*
X0203213Y0051571D01*
X0203025Y005176D01*
X0202939Y0051888D01*
X0202811Y0051974D01*
X0202623Y0052162D01*
X0202376Y0052264D01*
X0202248Y005235D01*
X0202097Y005238D01*
X0201851Y0052482D01*
X0201584D01*
X0201433Y0052512D01*
X0201282Y0052482D01*
X0201015D01*
X0200769Y005238D01*
X0200618Y005235D01*
X020049Y0052264D01*
X0200243Y0052162D01*
X0200055Y0051974D01*
X0199927Y0051888D01*
X0189051Y0041012D01*
X0175844D01*
X0175783Y0041D01*
X017473Y0040861D01*
X0173692Y0040431D01*
X01728Y0039747D01*
X0172116Y0038856D01*
X0171617Y0038958D01*
Y0042793D01*
X0171603Y0042865D01*
X0171469Y0043883D01*
X0171048Y00449D01*
X0170378Y0045773D01*
X0169505Y0046442D01*
X0168489Y0046863D01*
X0167471Y0046997D01*
X0167398Y0047012D01*
X0167325Y0046997D01*
X0166307Y0046863D01*
X0165291Y0046442D01*
X0164418Y0045773D01*
X0163748Y00449D01*
X0163327Y0043883D01*
X0163193Y0042865D01*
X0163179Y0042793D01*
Y004106D01*
X0163173D01*
X0163161Y004103D01*
X016313Y0041018D01*
Y0041012D01*
X0116933D01*
X0116118Y004085D01*
X0115427Y0040388D01*
X0099051Y0024012D01*
X0049933D01*
X0049118Y002385D01*
X0048427Y0023388D01*
X0038323Y0013284D01*
X003796Y0013382D01*
X0036906D01*
X0035889Y0013109D01*
X0034977Y0012583D01*
X0034232Y0011838D01*
X0033705Y0010926D01*
X0033433Y0009909D01*
Y0008855D01*
X0033705Y0007838D01*
X0034232Y0006926D01*
X0034977Y0006181D01*
X0035889Y0005655D01*
X003676Y0005421D01*
X0036694Y0004921D01*
X0031778D01*
X0025972Y0010727D01*
Y0044382D01*
X0025817Y0045162D01*
X0025375Y0045824D01*
X0018972Y0052227D01*
Y0055067D01*
X001937Y0055297D01*
X0020109Y0056036D01*
X0020631Y0056941D01*
X0020901Y005795D01*
Y0058995D01*
X0020631Y0060004D01*
X0020109Y0060909D01*
X001937Y0061648D01*
X0018465Y006217D01*
X0017455Y0062441D01*
X001641D01*
X0015401Y006217D01*
X0014496Y0061648D01*
X0013757Y0060909D01*
X0013235Y0060004D01*
X0012964Y0058995D01*
Y005795D01*
X0013235Y0056941D01*
X0013757Y0056036D01*
X0014496Y0055297D01*
X0014894Y0055067D01*
Y0051382D01*
X0015049Y0050602D01*
X0015491Y004994D01*
X0015491Y004994D01*
X0021894Y0043537D01*
Y0009882D01*
X0022049Y0009102D01*
X0022491Y000844D01*
X0022491Y000844D01*
X002894Y0001991D01*
X0028748Y0001529D01*
X0001462D01*
Y0193352D01*
X0147738D01*
X0147929Y0192891D01*
X0137927Y0182888D01*
X0137841Y018276D01*
X0137653Y0182571D01*
X0137551Y0182325D01*
X0137465Y0182197D01*
X0137435Y0182046D01*
X0137333Y01818D01*
Y0181533D01*
X0137303Y0181382D01*
X0137333Y0181231D01*
Y0180964D01*
X0137435Y0180718D01*
X0137465Y0180567D01*
X0137551Y0180438D01*
X0137653Y0180192D01*
X0137841Y0180004D01*
X0137927Y0179876D01*
X0138055Y017979D01*
X0138243Y0179602D01*
X013849Y01795D01*
X0138618Y0179414D01*
X0138769Y0179384D01*
X0139015Y0179282D01*
X0139282D01*
X0139433Y0179252D01*
X0139584Y0179282D01*
X0139851D01*
X0140097Y0179384D01*
X0140248Y0179414D01*
X0140376Y01795D01*
X0140622Y0179602D01*
X0140811Y017979D01*
X0140939Y0179876D01*
X0150904Y0189841D01*
X0190082D01*
X0190273Y0189379D01*
X0190232Y0189338D01*
X0189706Y0188426D01*
X0189433Y0187408D01*
Y0186355D01*
X0189706Y0185338D01*
X0190232Y0184426D01*
X0190977Y0183681D01*
X0191889Y0183154D01*
X0192906Y0182882D01*
X0193959D01*
X0194977Y0183154D01*
X0195889Y0183681D01*
X0196634Y0184426D01*
X019716Y0185338D01*
X0197433Y0186355D01*
Y0187408D01*
X019716Y0188426D01*
X0196634Y0189338D01*
X0196593Y0189379D01*
X0196784Y0189841D01*
X0200082D01*
X0200273Y0189379D01*
X0200232Y0189338D01*
X0199706Y0188426D01*
X0199433Y0187408D01*
Y0186355D01*
X0199706Y0185338D01*
X0200232Y0184426D01*
X0200977Y0183681D01*
X0201889Y0183154D01*
X0202906Y0182882D01*
X0203959D01*
X0204977Y0183154D01*
X0205889Y0183681D01*
X0206634Y0184426D01*
X020716Y0185338D01*
X0207433Y0186355D01*
Y0187408D01*
X020716Y0188426D01*
X0206634Y0189338D01*
X0206593Y0189379D01*
X0206784Y0189841D01*
X0207462D01*
X020953Y0187772D01*
X0209433Y0187408D01*
Y0186355D01*
X0209705Y0185338D01*
X0210232Y0184426D01*
X0210977Y0183681D01*
X0211889Y0183154D01*
X0212906Y0182882D01*
X021396D01*
X0214977Y0183154D01*
X0215889Y0183681D01*
X0216634Y0184426D01*
X021716Y0185338D01*
X0217433Y0186355D01*
Y0187408D01*
X021716Y0188426D01*
X0216634Y0189338D01*
X0215889Y0190083D01*
X0214977Y0190609D01*
X021396Y0190882D01*
X0212906D01*
X0212543Y0190785D01*
X0210437Y0192891D01*
X0210628Y0193352D01*
X0256313D01*
X025652Y0192852D01*
D02*
G37*
G36*
X0313404Y016837D02*
X0313404Y0168189D01*
X0313393Y0167711D01*
X0313393Y0167711D01*
X0313415Y0167223D01*
X0313334Y0166605D01*
X0313034Y016588D01*
X0312557Y0165258D01*
X0311935Y0164781D01*
X0311248Y0164497D01*
X0310762Y0164422D01*
X0310288Y0164411D01*
X0306933D01*
Y0164418D01*
X0305463Y0164273D01*
X0304049Y0163845D01*
X0302746Y0163148D01*
X0301604Y0162211D01*
X0300667Y0161069D01*
X029997Y0159766D01*
X0299541Y0158352D01*
X0299397Y0156882D01*
X0299404D01*
X0299404Y0001529D01*
X0218096Y0001529D01*
X0218035Y0001613D01*
X0218155Y0002293D01*
X0218375Y000244D01*
X0296375Y008044D01*
X0296817Y0081102D01*
X0296972Y0081882D01*
Y0165537D01*
X0303875Y017244D01*
X0304317Y0173101D01*
X0304472Y0173882D01*
Y0187882D01*
X0304317Y0188662D01*
X0303875Y0189324D01*
X0300346Y0192852D01*
X0300553Y0193352D01*
X0313404D01*
Y016837D01*
D02*
G37*
%LPC*%
G36*
X030855Y0387531D02*
X0308528D01*
Y0384063D01*
X0311996D01*
Y0384085D01*
X0311726Y0385095D01*
X0311203Y0386D01*
X0310464Y0386739D01*
X0309559Y0387261D01*
X030855Y0387531D01*
D02*
G37*
G36*
X0307528D02*
X0307505D01*
X0306496Y0387261D01*
X0305591Y0386739D01*
X0304852Y0386D01*
X030433Y0385095D01*
X0304059Y0384085D01*
Y0384063D01*
X0307528D01*
Y0387531D01*
D02*
G37*
G36*
X0311996Y0383063D02*
X0308528D01*
Y0379594D01*
X030855D01*
X0309559Y0379865D01*
X0310464Y0380387D01*
X0311203Y0381126D01*
X0311726Y0382031D01*
X0311996Y038304D01*
Y0383063D01*
D02*
G37*
G36*
X0307528D02*
X0304059D01*
Y038304D01*
X030433Y0382031D01*
X0304852Y0381126D01*
X0305591Y0380387D01*
X0306496Y0379865D01*
X0307505Y0379594D01*
X0307528D01*
Y0383063D01*
D02*
G37*
G36*
X029855Y0387531D02*
X0297505D01*
X0296496Y0387261D01*
X0295591Y0386739D01*
X0294852Y0386D01*
X029433Y0385095D01*
X0294059Y0384085D01*
Y038304D01*
X029433Y0382031D01*
X0294852Y0381126D01*
X0295591Y0380387D01*
X0296496Y0379865D01*
X0297505Y0379594D01*
X029855D01*
X0299559Y0379865D01*
X0300464Y0380387D01*
X0301203Y0381126D01*
X0301726Y0382031D01*
X0301996Y038304D01*
Y0384085D01*
X0301726Y0385095D01*
X0301203Y0386D01*
X0300464Y0386739D01*
X0299559Y0387261D01*
X029855Y0387531D01*
D02*
G37*
G36*
X0110528Y0376129D02*
Y0374563D01*
X0112094D01*
X0111808Y0375253D01*
X0111217Y0375843D01*
X0110528Y0376129D01*
D02*
G37*
G36*
X0109528D02*
X0108838Y0375843D01*
X0108247Y0375253D01*
X0107962Y0374563D01*
X0109528D01*
Y0376129D01*
D02*
G37*
G36*
X0112094Y0373563D02*
X0110528D01*
Y0371997D01*
X0111217Y0372283D01*
X0111808Y0372873D01*
X0112094Y0373563D01*
D02*
G37*
G36*
X0109528D02*
X0107962D01*
X0108247Y0372873D01*
X0108838Y0372283D01*
X0109528Y0371997D01*
Y0373563D01*
D02*
G37*
G36*
X0166028Y0373256D02*
Y0370063D01*
X0169221D01*
X0168973Y037099D01*
X0168486Y0371833D01*
X0167798Y0372521D01*
X0166955Y0373008D01*
X0166028Y0373256D01*
D02*
G37*
G36*
X0165028Y0373256D02*
X0164101Y0373008D01*
X0163258Y0372521D01*
X0162569Y0371833D01*
X0162083Y037099D01*
X0161834Y0370063D01*
X0165028D01*
Y0373256D01*
D02*
G37*
G36*
X0278054Y0375563D02*
X0277001D01*
X0275984Y037529D01*
X0275072Y0374764D01*
X0274327Y0374019D01*
X02738Y0373107D01*
X0273528Y037209D01*
Y0371036D01*
X02738Y0370019D01*
X0274327Y0369107D01*
X0275072Y0368362D01*
X0275984Y0367836D01*
X0277001Y0367563D01*
X0278054D01*
X0279072Y0367836D01*
X0279984Y0368362D01*
X0280729Y0369107D01*
X0281255Y0370019D01*
X0281528Y0371036D01*
Y037209D01*
X0281255Y0373107D01*
X0280729Y0374019D01*
X0279984Y0374764D01*
X0279072Y037529D01*
X0278054Y0375563D01*
D02*
G37*
G36*
X0165028Y0369063D02*
X0161834D01*
X0162083Y0368136D01*
X0162569Y0367293D01*
X0163258Y0366605D01*
X0164101Y0366118D01*
X0165028Y036587D01*
Y0369063D01*
D02*
G37*
G36*
X0169221D02*
X0166028D01*
Y036587D01*
X0166955Y0366118D01*
X0167798Y0366605D01*
X0168486Y0367293D01*
X0168973Y0368136D01*
X0169221Y0369063D01*
D02*
G37*
G36*
X0186014Y037326D02*
X0185041D01*
X0184101Y0373008D01*
X0183258Y0372521D01*
X018257Y0371833D01*
X0182083Y037099D01*
X0181831Y037005D01*
Y0369076D01*
X0182083Y0368136D01*
X018257Y0367293D01*
X0183258Y0366605D01*
X0184101Y0366118D01*
X0185041Y0365866D01*
X0186014D01*
X0186955Y0366118D01*
X0187798Y0366605D01*
X0188486Y0367293D01*
X0188973Y0368136D01*
X0189225Y0369076D01*
Y037005D01*
X0188973Y037099D01*
X0188486Y0371833D01*
X0187798Y0372521D01*
X0186955Y0373008D01*
X0186014Y037326D01*
D02*
G37*
G36*
X0176014D02*
X0175041D01*
X0174101Y0373008D01*
X0173258Y0372521D01*
X017257Y0371833D01*
X0172083Y037099D01*
X0171831Y037005D01*
Y0369076D01*
X0172083Y0368136D01*
X017257Y0367293D01*
X0173258Y0366605D01*
X0174101Y0366118D01*
X0175041Y0365866D01*
X0176014D01*
X0176955Y0366118D01*
X0177798Y0366605D01*
X0178486Y0367293D01*
X0178973Y0368136D01*
X0179225Y0369076D01*
Y037005D01*
X0178973Y037099D01*
X0178486Y0371833D01*
X0177798Y0372521D01*
X0176955Y0373008D01*
X0176014Y037326D01*
D02*
G37*
G36*
X0193028Y0379347D02*
X0131528D01*
X0130845Y0379211D01*
X0130266Y0378825D01*
X01281Y0376659D01*
X0127338Y0376343D01*
X0126747Y0375752D01*
X0126428Y0374981D01*
Y0374145D01*
X0126747Y0373373D01*
X0127338Y0372783D01*
X012775Y0372612D01*
X0127651Y0372112D01*
X0115021D01*
X0114045Y0371918D01*
X0113218Y0371365D01*
X0110965Y0369112D01*
X0109528D01*
X0108552Y0368918D01*
X0107725Y0368365D01*
X0106725Y0367365D01*
X0106173Y0366538D01*
X0105979Y0365563D01*
X0106173Y0364587D01*
X0106725Y0363761D01*
X0107552Y0363208D01*
X0108528Y0363014D01*
X0109503Y0363208D01*
X011033Y0363761D01*
X0110583Y0364014D01*
X0112021D01*
X0112996Y0364208D01*
X0113823Y0364761D01*
X0116077Y0367014D01*
X0151831D01*
Y0365866D01*
X0159224D01*
Y037326D01*
X0151831D01*
Y0372112D01*
X0129404D01*
X0129305Y0372612D01*
X0129717Y0372783D01*
X0130308Y0373373D01*
X0130624Y0374136D01*
X0132267Y0375779D01*
X0192289D01*
X0199621Y0368447D01*
X0199428Y0367981D01*
Y0367145D01*
X0199747Y0366373D01*
X0200338Y0365783D01*
X020111Y0365463D01*
X0201945D01*
X0202717Y0365783D01*
X0203308Y0366373D01*
X0203628Y0367145D01*
Y0367981D01*
X0203308Y0368753D01*
X0203193Y0368867D01*
Y0369182D01*
X0203057Y0369865D01*
X0202671Y0370444D01*
X0202671Y0370444D01*
X0194289Y0378825D01*
X019371Y0379211D01*
X0193028Y0379347D01*
D02*
G37*
G36*
X030855Y0367531D02*
X0307505D01*
X0306496Y0367261D01*
X0305591Y0366739D01*
X0304852Y0366D01*
X030433Y0365095D01*
X0304059Y0364085D01*
Y036304D01*
X030433Y0362031D01*
X0304852Y0361126D01*
X0305591Y0360387D01*
X0306496Y0359865D01*
X0307505Y0359594D01*
X030855D01*
X0309559Y0359865D01*
X0310464Y0360387D01*
X0311203Y0361126D01*
X0311726Y0362031D01*
X0311996Y036304D01*
Y0364085D01*
X0311726Y0365095D01*
X0311203Y0366D01*
X0310464Y0366739D01*
X0309559Y0367261D01*
X030855Y0367531D01*
D02*
G37*
G36*
X029855D02*
X0297505D01*
X0296496Y0367261D01*
X0295591Y0366739D01*
X0294852Y0366D01*
X029433Y0365095D01*
X0294059Y0364085D01*
Y036304D01*
X029433Y0362031D01*
X0294852Y0361126D01*
X0295591Y0360387D01*
X0296496Y0359865D01*
X0297505Y0359594D01*
X029855D01*
X0299559Y0359865D01*
X0300464Y0360387D01*
X0301203Y0361126D01*
X0301726Y0362031D01*
X0301996Y036304D01*
Y0364085D01*
X0301726Y0365095D01*
X0301203Y0366D01*
X0300464Y0366739D01*
X0299559Y0367261D01*
X029855Y0367531D01*
D02*
G37*
G36*
X0278054Y0365563D02*
X0277001D01*
X0275984Y036529D01*
X0275072Y0364764D01*
X0274327Y0364019D01*
X02738Y0363107D01*
X0273528Y036209D01*
Y0361036D01*
X02738Y0360019D01*
X0274327Y0359107D01*
X0275072Y0358362D01*
X0275984Y0357836D01*
X0277001Y0357563D01*
X0278054D01*
X0279072Y0357836D01*
X0279984Y0358362D01*
X0280729Y0359107D01*
X0281255Y0360019D01*
X0281528Y0361036D01*
Y036209D01*
X0281255Y0363107D01*
X0280729Y0364019D01*
X0279984Y0364764D01*
X0279072Y036529D01*
X0278054Y0365563D01*
D02*
G37*
G36*
X030855Y0356441D02*
X0308528D01*
Y0352972D01*
X0311996D01*
Y0352995D01*
X0311726Y0354004D01*
X0311203Y0354909D01*
X0310464Y0355648D01*
X0309559Y0356171D01*
X030855Y0356441D01*
D02*
G37*
G36*
X0307528D02*
X0307505D01*
X0306496Y0356171D01*
X0305591Y0355648D01*
X0304852Y0354909D01*
X030433Y0354004D01*
X0304059Y0352995D01*
Y0352972D01*
X0307528D01*
Y0356441D01*
D02*
G37*
G36*
X0252461Y0355852D02*
X0251595D01*
X0250758Y0355628D01*
X0250008Y0355195D01*
X0249396Y0354583D01*
X0248963Y0353833D01*
X0248739Y0352996D01*
Y035213D01*
X0248963Y0351293D01*
X0249396Y0350543D01*
X0250008Y0349931D01*
X0250758Y0349498D01*
X0251595Y0349274D01*
X0252461D01*
X0253297Y0349498D01*
X0254047Y0349931D01*
X025466Y0350543D01*
X0255093Y0351293D01*
X0255317Y035213D01*
Y0352996D01*
X0255093Y0353833D01*
X025466Y0354583D01*
X0254047Y0355195D01*
X0253297Y0355628D01*
X0252461Y0355852D01*
D02*
G37*
G36*
X0311996Y0351972D02*
X0308528D01*
Y0348504D01*
X030855D01*
X0309559Y0348774D01*
X0310464Y0349297D01*
X0311203Y0350036D01*
X0311726Y0350941D01*
X0311996Y035195D01*
Y0351972D01*
D02*
G37*
G36*
X0307528D02*
X0304059D01*
Y035195D01*
X030433Y0350941D01*
X0304852Y0350036D01*
X0305591Y0349297D01*
X0306496Y0348774D01*
X0307505Y0348504D01*
X0307528D01*
Y0351972D01*
D02*
G37*
G36*
X029855Y0356441D02*
X0297505D01*
X0296496Y0356171D01*
X0295591Y0355648D01*
X0294852Y0354909D01*
X029433Y0354004D01*
X0294059Y0352995D01*
Y035195D01*
X029433Y0350941D01*
X0294852Y0350036D01*
X0295591Y0349297D01*
X0296496Y0348774D01*
X0297505Y0348504D01*
X029855D01*
X0299559Y0348774D01*
X0300464Y0349297D01*
X0301203Y0350036D01*
X0301726Y0350941D01*
X0301996Y035195D01*
Y0352995D01*
X0301726Y0354004D01*
X0301203Y0354909D01*
X0300464Y0355648D01*
X0299559Y0356171D01*
X029855Y0356441D01*
D02*
G37*
G36*
X0278054Y0355563D02*
X0277001D01*
X0275984Y035529D01*
X0275072Y0354764D01*
X0274327Y0354019D01*
X02738Y0353107D01*
X0273528Y035209D01*
Y0351036D01*
X02738Y0350019D01*
X0274327Y0349107D01*
X0275072Y0348362D01*
X0275984Y0347836D01*
X0277001Y0347563D01*
X0278054D01*
X0279072Y0347836D01*
X0279984Y0348362D01*
X0280729Y0349107D01*
X0281255Y0350019D01*
X0281528Y0351036D01*
Y035209D01*
X0281255Y0353107D01*
X0280729Y0354019D01*
X0279984Y0354764D01*
X0279072Y035529D01*
X0278054Y0355563D01*
D02*
G37*
G36*
Y0345563D02*
X0277001D01*
X0275984Y034529D01*
X0275072Y0344764D01*
X0274327Y0344019D01*
X02738Y0343107D01*
X0273528Y034209D01*
Y0341036D01*
X02738Y0340019D01*
X0274327Y0339107D01*
X0275072Y0338362D01*
X0275984Y0337836D01*
X0277001Y0337563D01*
X0278054D01*
X0279072Y0337836D01*
X0279984Y0338362D01*
X0280729Y0339107D01*
X0281255Y0340019D01*
X0281528Y0341036D01*
Y034209D01*
X0281255Y0343107D01*
X0280729Y0344019D01*
X0279984Y0344764D01*
X0279072Y034529D01*
X0278054Y0345563D01*
D02*
G37*
G36*
X0224528Y0337193D02*
X0217028D01*
X0216213Y0337031D01*
X0215522Y0336569D01*
X0214021Y0335069D01*
X0214021Y0335069D01*
X0211041Y0332089D01*
X0210362D01*
X0207192Y0335259D01*
X0207131Y03353D01*
X0206316Y0335925D01*
X02053Y0336346D01*
X0204209Y033649D01*
X0203118Y0336346D01*
X0202102Y0335925D01*
X0201287Y03353D01*
X0201226Y0335259D01*
Y0335259D01*
X0201185Y0335197D01*
X0200559Y0334382D01*
X0200138Y0333366D01*
X0199995Y0332275D01*
X0200138Y0331184D01*
X0200396Y0330562D01*
X0200014Y0330179D01*
X0199391Y0330437D01*
X01983Y033058D01*
X0197209Y0330437D01*
X0196193Y0330016D01*
X0195378Y0329391D01*
X0195317Y032935D01*
Y0329349D01*
X0195276Y0329288D01*
X019465Y0328473D01*
X0194229Y0327457D01*
X0194086Y0326366D01*
X0194229Y0325275D01*
X019465Y0324259D01*
X0195275Y0323444D01*
X0195317Y0323383D01*
X0195317Y0323383D01*
X0198792Y0319908D01*
X0198792Y0319908D01*
X0198787Y0319903D01*
X01988Y0319873D01*
X0198787Y0319844D01*
X0198792Y0319839D01*
X0198021Y0319069D01*
X0198021Y0319069D01*
X0177637Y0298684D01*
X0177175Y0297993D01*
X0177076Y0297493D01*
X0176258Y0297021D01*
X0175569Y0296333D01*
X0175083Y029549D01*
X0174831Y029455D01*
Y0293576D01*
X0175083Y0292636D01*
X0175569Y0291793D01*
X0176258Y0291105D01*
X0177101Y0290618D01*
X0178041Y0290366D01*
X0179014D01*
X0179955Y0290618D01*
X0180798Y0291105D01*
X0181486Y0291793D01*
X0181973Y0292636D01*
X0182225Y0293576D01*
Y029455D01*
X0181973Y029549D01*
X0181486Y0296333D01*
X0181398Y0296421D01*
X0201034Y0316057D01*
X0201034Y0316057D01*
X0201804Y0316827D01*
X0201839Y0316879D01*
X0202485Y0317721D01*
X0202915Y0318759D01*
X0203062Y0319873D01*
X0202915Y0320988D01*
X020334Y0321268D01*
X0203802Y0320806D01*
X0203802Y0320806D01*
X0203863Y0320765D01*
X0204678Y032014D01*
X0205695Y0319719D01*
X0206785Y0319576D01*
X0207876Y0319719D01*
X0208892Y032014D01*
X0209707Y0320765D01*
X0209769Y0320806D01*
X0209769D01*
X020981Y0320868D01*
X0210435Y0321683D01*
X0210856Y0322699D01*
X0211Y032379D01*
X0210856Y0324881D01*
X0210435Y0325897D01*
X020981Y0326712D01*
X0209769Y0326773D01*
X0209307Y0327235D01*
X0209588Y032766D01*
X0210702Y0327513D01*
X0211816Y032766D01*
X0212854Y032809D01*
X0213697Y0328737D01*
X0213748Y0328771D01*
X0217034Y0332057D01*
X0217034Y0332057D01*
X021791Y0332933D01*
X0224528D01*
X0224679Y0332963D01*
X0224945D01*
X0225192Y0333065D01*
X0225343Y0333095D01*
X0225471Y0333181D01*
X0225717Y0333283D01*
X0225906Y0333471D01*
X0226034Y0333557D01*
X0226119Y0333685D01*
X0226308Y0333873D01*
X022641Y033412D01*
X0226496Y0334248D01*
X0226526Y0334399D01*
X0226628Y0334645D01*
Y0334912D01*
X0226658Y0335063D01*
X0226628Y0335214D01*
Y0335481D01*
X0226526Y0335727D01*
X0226496Y0335878D01*
X022641Y0336006D01*
X0226308Y0336252D01*
X0226119Y0336441D01*
X0226034Y0336569D01*
X0225906Y0336655D01*
X0225717Y0336843D01*
X0225471Y0336945D01*
X0225343Y0337031D01*
X0225192Y0337061D01*
X0224945Y0337163D01*
X0224679D01*
X0224528Y0337193D01*
D02*
G37*
G36*
X030855Y0336441D02*
X0307505D01*
X0306496Y0336171D01*
X0305591Y0335648D01*
X0304852Y0334909D01*
X030433Y0334004D01*
X0304059Y0332995D01*
Y033195D01*
X030433Y0330941D01*
X0304852Y0330036D01*
X0305591Y0329297D01*
X0306496Y0328774D01*
X0307505Y0328504D01*
X030855D01*
X0309559Y0328774D01*
X0310464Y0329297D01*
X0311203Y0330036D01*
X0311726Y0330941D01*
X0311996Y033195D01*
Y0332995D01*
X0311726Y0334004D01*
X0311203Y0334909D01*
X0310464Y0335648D01*
X0309559Y0336171D01*
X030855Y0336441D01*
D02*
G37*
G36*
X0278054Y0335563D02*
X0277001D01*
X0275984Y033529D01*
X0275072Y0334764D01*
X0274327Y0334019D01*
X02738Y0333107D01*
X0273528Y033209D01*
Y0331036D01*
X02738Y0330019D01*
X0274327Y0329107D01*
X0275072Y0328362D01*
X0275984Y0327836D01*
X0277001Y0327563D01*
X0278054D01*
X0279072Y0327836D01*
X0279984Y0328362D01*
X0280729Y0329107D01*
X0281255Y0330019D01*
X0281528Y0331036D01*
Y033209D01*
X0281255Y0333107D01*
X0280729Y0334019D01*
X0279984Y0334764D01*
X0279072Y033529D01*
X0278054Y0335563D01*
D02*
G37*
G36*
X0225028Y0345693D02*
X0198528D01*
X0197713Y0345531D01*
X0197021Y0345069D01*
X0167022Y0315069D01*
X016656Y0314378D01*
X0166398Y0313563D01*
Y0297102D01*
X0166258Y0297021D01*
X0165569Y0296333D01*
X0165083Y029549D01*
X0164831Y029455D01*
Y0293576D01*
X0165083Y0292636D01*
X0165569Y0291793D01*
X0166258Y0291105D01*
X0167101Y0290618D01*
X0168041Y0290366D01*
X0169014D01*
X0169955Y0290618D01*
X0170798Y0291105D01*
X0171486Y0291793D01*
X0171973Y0292636D01*
X0172224Y0293576D01*
Y029455D01*
X0171973Y029549D01*
X0171486Y0296333D01*
X0170798Y0297021D01*
X0170658Y0297102D01*
Y0312681D01*
X019941Y0341433D01*
X0224145D01*
X0240522Y0325057D01*
X024065Y0324971D01*
X0240838Y0324783D01*
X0241084Y0324681D01*
X0241213Y0324595D01*
X0241364Y0324565D01*
X024161Y0324463D01*
X0241877D01*
X0242028Y0324433D01*
X0242179Y0324463D01*
X0242445D01*
X0242692Y0324565D01*
X0242843Y0324595D01*
X0242971Y0324681D01*
X0243217Y0324783D01*
X0243406Y0324971D01*
X0243534Y0325057D01*
X0243619Y0325185D01*
X0243808Y0325373D01*
X024391Y032562D01*
X0243996Y0325748D01*
X0244026Y0325899D01*
X0244128Y0326145D01*
Y0326412D01*
X0244158Y0326563D01*
X0244128Y0326714D01*
Y0326981D01*
X0244026Y0327227D01*
X0243996Y0327378D01*
X024391Y0327506D01*
X0243808Y0327752D01*
X0243619Y0327941D01*
X0243534Y0328069D01*
X0226534Y0345069D01*
X0225843Y0345531D01*
X0225028Y0345693D01*
D02*
G37*
G36*
X030855Y0325441D02*
X0308528D01*
Y0321972D01*
X0311996D01*
Y0321995D01*
X0311726Y0323004D01*
X0311203Y0323909D01*
X0310464Y0324648D01*
X0309559Y032517D01*
X030855Y0325441D01*
D02*
G37*
G36*
X0307528D02*
X0307505D01*
X0306496Y032517D01*
X0305591Y0324648D01*
X0304852Y0323909D01*
X030433Y0323004D01*
X0304059Y0321995D01*
Y0321972D01*
X0307528D01*
Y0325441D01*
D02*
G37*
G36*
X0094945Y0363663D02*
X009411D01*
X0093338Y0363343D01*
X0092747Y0362753D01*
X0092428Y0361981D01*
Y0361145D01*
X0092747Y0360373D01*
X0093338Y0359783D01*
X0093485Y0359722D01*
X0098488Y0354718D01*
Y0342063D01*
X0098644Y0341283D01*
X0099086Y0340621D01*
X0135586Y0304121D01*
X0135586Y0304121D01*
X0136247Y0303679D01*
X0137028Y0303524D01*
X0137028Y0303524D01*
X0146183D01*
X01549Y0294807D01*
X0154831Y029455D01*
Y0293576D01*
X0155083Y0292636D01*
X015557Y0291793D01*
X0156258Y0291105D01*
X0157101Y0290618D01*
X0158041Y0290366D01*
X0159014D01*
X0159955Y0290618D01*
X0160798Y0291105D01*
X0161486Y0291793D01*
X0161973Y0292636D01*
X0162224Y0293576D01*
Y029455D01*
X0161973Y029549D01*
X0161486Y0296333D01*
X0160798Y0297021D01*
X0160567Y0297154D01*
Y0314718D01*
X0167372Y0321524D01*
X0168963D01*
X016911Y0321463D01*
X0169945D01*
X0170717Y0321783D01*
X0171308Y0322373D01*
X0171628Y0323145D01*
Y0323981D01*
X0171308Y0324752D01*
X0170717Y0325343D01*
X0169945Y0325663D01*
X016911D01*
X0168963Y0325602D01*
X0166528D01*
X0165747Y0325447D01*
X0165086Y0325005D01*
X0157086Y0317005D01*
X0156644Y0316343D01*
X0156489Y0315563D01*
Y0299639D01*
X0156027Y0299448D01*
X014847Y0307005D01*
X0147808Y0307447D01*
X0147028Y0307602D01*
X0137872D01*
X0102567Y0342908D01*
Y0355563D01*
X0102412Y0356343D01*
X010197Y0357005D01*
X0096369Y0362606D01*
X0096308Y0362753D01*
X0095717Y0363343D01*
X0094945Y0363663D01*
D02*
G37*
G36*
X0278054Y0325563D02*
X0277001D01*
X0275984Y032529D01*
X0275072Y0324764D01*
X0274327Y0324019D01*
X02738Y0323107D01*
X0273528Y032209D01*
Y0321036D01*
X02738Y0320019D01*
X0274327Y0319107D01*
X0275072Y0318362D01*
X0275984Y0317836D01*
X0277001Y0317563D01*
X0278054D01*
X0279072Y0317836D01*
X0279984Y0318362D01*
X0280729Y0319107D01*
X0281255Y0320019D01*
X0281528Y0321036D01*
Y032209D01*
X0281255Y0323107D01*
X0280729Y0324019D01*
X0279984Y0324764D01*
X0279072Y032529D01*
X0278054Y0325563D01*
D02*
G37*
G36*
X0311996Y0320972D02*
X0308528D01*
Y0317504D01*
X030855D01*
X0309559Y0317774D01*
X0310464Y0318297D01*
X0311203Y0319036D01*
X0311726Y0319941D01*
X0311996Y032095D01*
Y0320972D01*
D02*
G37*
G36*
X0307528D02*
X0304059D01*
Y032095D01*
X030433Y0319941D01*
X0304852Y0319036D01*
X0305591Y0318297D01*
X0306496Y0317774D01*
X0307505Y0317504D01*
X0307528D01*
Y0320972D01*
D02*
G37*
G36*
X029855Y0325441D02*
X0297505D01*
X0296496Y032517D01*
X0295591Y0324648D01*
X0294852Y0323909D01*
X029433Y0323004D01*
X0294059Y0321995D01*
Y032095D01*
X029433Y0319941D01*
X0294852Y0319036D01*
X0295591Y0318297D01*
X0296496Y0317774D01*
X0297505Y0317504D01*
X029855D01*
X0299559Y0317774D01*
X0300464Y0318297D01*
X0301203Y0319036D01*
X0301726Y0319941D01*
X0301996Y032095D01*
Y0321995D01*
X0301726Y0323004D01*
X0301203Y0323909D01*
X0300464Y0324648D01*
X0299559Y032517D01*
X029855Y0325441D01*
D02*
G37*
G36*
X0214945Y0322163D02*
X021411D01*
X0213338Y0321843D01*
X0212747Y0321252D01*
X0212428Y0320481D01*
Y0319645D01*
X0212747Y0318873D01*
X0213338Y0318283D01*
X0213485Y0318222D01*
X0217086Y0314621D01*
X0217747Y0314179D01*
X0218528Y0314024D01*
X0235463D01*
X023561Y0313963D01*
X0236445D01*
X0237217Y0314283D01*
X0237808Y0314873D01*
X0238128Y0315645D01*
Y0316481D01*
X0237808Y0317252D01*
X0237217Y0317843D01*
X0236445Y0318163D01*
X023561D01*
X0235463Y0318102D01*
X0219372D01*
X0216369Y0321106D01*
X0216308Y0321252D01*
X0215717Y0321843D01*
X0214945Y0322163D01*
D02*
G37*
G36*
X0278054Y0315563D02*
X0278028D01*
Y0312063D01*
X0281528D01*
Y031209D01*
X0281255Y0313107D01*
X0280729Y0314019D01*
X0279984Y0314764D01*
X0279072Y031529D01*
X0278054Y0315563D01*
D02*
G37*
G36*
X0277028D02*
X0277001D01*
X0275984Y031529D01*
X0275072Y0314764D01*
X0274327Y0314019D01*
X02738Y0313107D01*
X0273528Y031209D01*
Y0312063D01*
X0277028D01*
Y0315563D01*
D02*
G37*
G36*
X0236445Y0310163D02*
X023561D01*
X0235463Y0310102D01*
X0211592D01*
X0211445Y0310163D01*
X021061D01*
X0209838Y0309843D01*
X0209247Y0309253D01*
X0208928Y0308481D01*
Y0307645D01*
X0209247Y0306873D01*
X0209838Y0306283D01*
X021061Y0305963D01*
X0211445D01*
X0211592Y0306024D01*
X0235463D01*
X023561Y0305963D01*
X0236445D01*
X0237217Y0306283D01*
X0237808Y0306873D01*
X0238128Y0307645D01*
Y0308481D01*
X0237808Y0309253D01*
X0237217Y0309843D01*
X0236445Y0310163D01*
D02*
G37*
G36*
X0281528Y0311063D02*
X0278028D01*
Y0307563D01*
X0278054D01*
X0279072Y0307836D01*
X0279984Y0308362D01*
X0280729Y0309107D01*
X0281255Y0310019D01*
X0281528Y0311036D01*
Y0311063D01*
D02*
G37*
G36*
X0277028D02*
X0273528D01*
Y0311036D01*
X02738Y0310019D01*
X0274327Y0309107D01*
X0275072Y0308362D01*
X0275984Y0307836D01*
X0277001Y0307563D01*
X0277028D01*
Y0311063D01*
D02*
G37*
G36*
X0242461Y0355852D02*
X0241595D01*
X0240758Y0355628D01*
X0240008Y0355195D01*
X0239396Y0354583D01*
X0238963Y0353833D01*
X0238739Y0352996D01*
Y035213D01*
X0238963Y0351293D01*
X0239396Y0350543D01*
X0239988Y0349951D01*
Y0344563D01*
X0240144Y0343783D01*
X0240586Y0343121D01*
X0250488Y0333218D01*
Y0314908D01*
X0238683Y0303102D01*
X0205528D01*
X0204747Y0302947D01*
X0204086Y0302505D01*
X0204086Y0302505D01*
X0199272Y0297691D01*
X0199014Y029776D01*
X0198041D01*
X0197101Y0297508D01*
X0196258Y0297021D01*
X019557Y0296333D01*
X0195083Y029549D01*
X0194831Y029455D01*
Y0293576D01*
X0195083Y0292636D01*
X019557Y0291793D01*
X0196258Y0291105D01*
X0197101Y0290618D01*
X0198041Y0290366D01*
X0199014D01*
X0199955Y0290618D01*
X0200798Y0291105D01*
X0201486Y0291793D01*
X0201973Y0292636D01*
X0202224Y0293576D01*
Y029455D01*
X0202156Y0294807D01*
X0204369Y029702D01*
X0204831Y0296829D01*
Y0294563D01*
X0208028D01*
Y029776D01*
X0205762D01*
X020557Y0298222D01*
X0206372Y0299024D01*
X0239528D01*
X0240308Y0299179D01*
X024097Y0299621D01*
X025397Y0312621D01*
X0254412Y0313283D01*
X0254567Y0314063D01*
X0254567Y0314063D01*
Y0334063D01*
X0254412Y0334843D01*
X025397Y0335505D01*
X0244067Y0345408D01*
Y0349951D01*
X0244659Y0350543D01*
X0245093Y0351293D01*
X0245317Y035213D01*
Y0352996D01*
X0245093Y0353833D01*
X0244659Y0354583D01*
X0244047Y0355195D01*
X0243297Y0355628D01*
X0242461Y0355852D01*
D02*
G37*
G36*
X0260528Y0363602D02*
X0241028D01*
X0240247Y0363447D01*
X0239586Y0363005D01*
X0232433Y0355852D01*
X0228739D01*
Y0349274D01*
X0235317D01*
Y0352968D01*
X0241872Y0359524D01*
X0259683D01*
X0266489Y0352718D01*
Y0310563D01*
X0266644Y0309783D01*
X0267086Y0309121D01*
X0273652Y0302555D01*
X0273528Y030209D01*
Y0301036D01*
X02738Y0300019D01*
X0274327Y0299107D01*
X0275072Y0298362D01*
X0275984Y0297836D01*
X0277001Y0297563D01*
X0278054D01*
X0279072Y0297836D01*
X0279984Y0298362D01*
X0280729Y0299107D01*
X0281255Y0300019D01*
X0281528Y0301036D01*
Y030209D01*
X0281255Y0303107D01*
X0280729Y0304019D01*
X0279984Y0304764D01*
X0279072Y030529D01*
X0278054Y0305563D01*
X0277001D01*
X0276536Y0305438D01*
X0270567Y0311408D01*
Y0353563D01*
X0270412Y0354343D01*
X026997Y0355005D01*
X026197Y0363005D01*
X0261308Y0363447D01*
X0260528Y0363602D01*
D02*
G37*
G36*
X030855Y0305441D02*
X0307505D01*
X0306496Y030517D01*
X0305591Y0304648D01*
X0304852Y0303909D01*
X030433Y0303004D01*
X0304059Y0301995D01*
Y030095D01*
X030433Y0299941D01*
X0304852Y0299036D01*
X0305591Y0298297D01*
X0306496Y0297774D01*
X0307505Y0297504D01*
X030855D01*
X0309559Y0297774D01*
X0310464Y0298297D01*
X0311203Y0299036D01*
X0311726Y0299941D01*
X0311996Y030095D01*
Y0301995D01*
X0311726Y0303004D01*
X0311203Y0303909D01*
X0310464Y0304648D01*
X0309559Y030517D01*
X030855Y0305441D01*
D02*
G37*
G36*
X029855D02*
X0297505D01*
X0296496Y030517D01*
X0295591Y0304648D01*
X0294852Y0303909D01*
X029433Y0303004D01*
X0294059Y0301995D01*
Y030095D01*
X0294178Y0300507D01*
X0286208Y0292536D01*
X0285766Y0291875D01*
X0285611Y0291094D01*
Y0284201D01*
X0282511Y0281102D01*
X0273372D01*
X027097Y0283505D01*
X027097Y0283505D01*
X026047Y0294005D01*
X0259808Y0294447D01*
X0259028Y0294602D01*
X0251528D01*
X0250747Y0294447D01*
X0250086Y0294005D01*
X0238183Y0282102D01*
X0070528D01*
X0069747Y0281947D01*
X0069086Y0281505D01*
X0067183Y0279602D01*
X0053528D01*
X0052747Y0279447D01*
X0052086Y0279005D01*
X0044586Y0271505D01*
X0044144Y0270843D01*
X0043988Y0270063D01*
Y0231563D01*
X0044144Y0230783D01*
X0044586Y0230121D01*
X0058498Y0216209D01*
X0058083Y021549D01*
X0057831Y021455D01*
Y0213576D01*
X0058083Y0212636D01*
X005857Y0211793D01*
X0059258Y0211105D01*
X0060101Y0210618D01*
X0061041Y0210366D01*
X0062014D01*
X0062955Y0210618D01*
X0063798Y0211105D01*
X0064486Y0211793D01*
X0064973Y0212636D01*
X0065224Y0213576D01*
Y021455D01*
X0064973Y021549D01*
X0064486Y0216333D01*
X0063798Y0217021D01*
X0062955Y0217508D01*
X0062708Y0217574D01*
X006232Y0218154D01*
X0048067Y0232408D01*
Y0269218D01*
X0054372Y0275524D01*
X0068028D01*
X0068808Y0275679D01*
X006947Y0276121D01*
X0071372Y0278024D01*
X0239028D01*
X0239808Y0278179D01*
X024047Y0278621D01*
X0252372Y0290524D01*
X0258183D01*
X0268086Y0280621D01*
X0268086Y0280621D01*
X0271086Y0277621D01*
X0271747Y0277179D01*
X0272528Y0277024D01*
X0283356D01*
X0284137Y0277179D01*
X0284798Y0277621D01*
X0289092Y0281915D01*
X0289092Y0281915D01*
X0289272Y0282185D01*
X0295406D01*
Y0288941D01*
X0289689D01*
Y029025D01*
X0297062Y0297623D01*
X0297505Y0297504D01*
X029855D01*
X0299559Y0297774D01*
X0300464Y0298297D01*
X0301203Y0299036D01*
X0301726Y0299941D01*
X0301996Y030095D01*
Y0301995D01*
X0301726Y0303004D01*
X0301203Y0303909D01*
X0300464Y0304648D01*
X0299559Y030517D01*
X029855Y0305441D01*
D02*
G37*
G36*
X0212225Y029776D02*
X0209028D01*
Y0294563D01*
X0212225D01*
Y029776D01*
D02*
G37*
G36*
Y0293563D02*
X0209028D01*
Y0290366D01*
X0212225D01*
Y0293563D01*
D02*
G37*
G36*
X0208028D02*
X0204831D01*
Y0290366D01*
X0208028D01*
Y0293563D01*
D02*
G37*
G36*
X0189014Y029776D02*
X0188041D01*
X0187101Y0297508D01*
X0186258Y0297021D01*
X018557Y0296333D01*
X0185083Y029549D01*
X0184831Y029455D01*
Y0293576D01*
X0185083Y0292636D01*
X018557Y0291793D01*
X0186258Y0291105D01*
X0187101Y0290618D01*
X0188041Y0290366D01*
X0189014D01*
X0189955Y0290618D01*
X0190798Y0291105D01*
X0191486Y0291793D01*
X0191973Y0292636D01*
X0192225Y0293576D01*
Y029455D01*
X0191973Y029549D01*
X0191486Y0296333D01*
X0190798Y0297021D01*
X0189955Y0297508D01*
X0189014Y029776D01*
D02*
G37*
G36*
X0090445Y0358163D02*
X008961D01*
X0088838Y0357843D01*
X0088247Y0357253D01*
X0087928Y0356481D01*
Y0355645D01*
X0087989Y0355498D01*
Y0342063D01*
X0088144Y0341283D01*
X0088586Y0340621D01*
X0125687Y030352D01*
X0125747Y0303373D01*
X0126338Y0302783D01*
X0126485Y0302722D01*
X0134831Y0294376D01*
Y0293576D01*
X0135083Y0292636D01*
X013557Y0291793D01*
X0136258Y0291105D01*
X0137101Y0290618D01*
X0138041Y0290366D01*
X0139014D01*
X0139955Y0290618D01*
X0140798Y0291105D01*
X0141486Y0291793D01*
X0141973Y0292636D01*
X0142225Y0293576D01*
Y029455D01*
X0141973Y029549D01*
X0141486Y0296333D01*
X0140798Y0297021D01*
X0139955Y0297508D01*
X0139014Y029776D01*
X0138041D01*
X0137389Y0297585D01*
X0129369Y0305606D01*
X0129308Y0305752D01*
X0128717Y0306343D01*
X012857Y0306404D01*
X0092067Y0342908D01*
Y0355498D01*
X0092128Y0355645D01*
Y0356481D01*
X0091808Y0357253D01*
X0091217Y0357843D01*
X0090445Y0358163D01*
D02*
G37*
G36*
X0251528Y0303193D02*
X0249528D01*
X0248712Y0303031D01*
X0248022Y0302569D01*
X0233645Y0288193D01*
X015741D01*
X0152183Y029342D01*
X0152225Y0293576D01*
Y029455D01*
X0151973Y029549D01*
X0151486Y0296333D01*
X0150798Y0297021D01*
X0149955Y0297508D01*
X0149014Y029776D01*
X0148041D01*
X0147101Y0297508D01*
X0146258Y0297021D01*
X014557Y0296333D01*
X0145083Y029549D01*
X0144831Y029455D01*
Y0293576D01*
X0145083Y0292636D01*
X014557Y0291793D01*
X0146258Y0291105D01*
X0147101Y0290618D01*
X0148041Y0290366D01*
X0149014D01*
X014917Y0290408D01*
X0155022Y0284557D01*
X0155712Y0284095D01*
X0156528Y0283933D01*
X0234528D01*
X0235343Y0284095D01*
X0236034Y0284557D01*
X025041Y0298933D01*
X0251528D01*
X0251679Y0298963D01*
X0251945D01*
X0252192Y0299065D01*
X0252343Y0299095D01*
X0252471Y0299181D01*
X0252717Y0299283D01*
X0252906Y0299471D01*
X0253034Y0299557D01*
X0253119Y0299685D01*
X0253308Y0299873D01*
X025341Y030012D01*
X0253496Y0300248D01*
X0253526Y0300399D01*
X0253628Y0300645D01*
Y0300912D01*
X0253658Y0301063D01*
X0253628Y0301214D01*
Y0301481D01*
X0253526Y0301727D01*
X0253496Y0301878D01*
X025341Y0302006D01*
X0253308Y0302253D01*
X0253119Y0302441D01*
X0253034Y0302569D01*
X0252906Y0302655D01*
X0252717Y0302843D01*
X0252471Y0302945D01*
X0252343Y0303031D01*
X0252192Y0303061D01*
X0251945Y0303163D01*
X0251679D01*
X0251528Y0303193D01*
D02*
G37*
G36*
X0302528Y0288926D02*
Y0286063D01*
X0305391D01*
X0305175Y0286867D01*
X0304731Y0287637D01*
X0304102Y0288266D01*
X0303331Y0288711D01*
X0302528Y0288926D01*
D02*
G37*
G36*
X0301528D02*
X0300724Y0288711D01*
X0299954Y0288266D01*
X0299325Y0287637D01*
X029888Y0286867D01*
X0298665Y0286063D01*
X0301528D01*
Y0288926D01*
D02*
G37*
G36*
X0305391Y0285063D02*
X0302528D01*
Y02822D01*
X0303331Y0282415D01*
X0304102Y028286D01*
X0304731Y0283489D01*
X0305175Y0284259D01*
X0305391Y0285063D01*
D02*
G37*
G36*
X0301528D02*
X0298665D01*
X029888Y0284259D01*
X0299325Y0283489D01*
X0299954Y028286D01*
X0300724Y0282415D01*
X0301528Y02822D01*
Y0285063D01*
D02*
G37*
G36*
X0281765Y0289039D02*
X028085D01*
X0279965Y0288803D01*
X0279173Y0288345D01*
X0278525Y0287698D01*
X0278068Y0286905D01*
X0277831Y0286021D01*
Y0285105D01*
X0278068Y0284221D01*
X0278525Y0283428D01*
X0279173Y0282781D01*
X0279965Y0282324D01*
X028085Y0282087D01*
X0281765D01*
X0282649Y0282324D01*
X0283442Y0282781D01*
X0284089Y0283428D01*
X0284547Y0284221D01*
X0284784Y0285105D01*
Y0286021D01*
X0284547Y0286905D01*
X0284089Y0287698D01*
X0283442Y0288345D01*
X0282649Y0288803D01*
X0281765Y0289039D01*
D02*
G37*
G36*
X0254206D02*
X0253291D01*
X0252406Y0288803D01*
X0251614Y0288345D01*
X0250966Y0287698D01*
X0250509Y0286905D01*
X0250272Y0286021D01*
Y0285905D01*
X0240969Y0276602D01*
X0084028D01*
X0083247Y0276447D01*
X0082586Y0276005D01*
X0077183Y0270602D01*
X0072523D01*
X0072294Y0271D01*
X0071555Y0271739D01*
X007065Y0272261D01*
X0069641Y0272532D01*
X0068596D01*
X0067586Y0272261D01*
X0066681Y0271739D01*
X0065943Y0271D01*
X006542Y0270095D01*
X0065229Y0269382D01*
X0055865D01*
X0055809Y0269477D01*
X0055162Y0270124D01*
X0054369Y0270582D01*
X0053485Y0270819D01*
X005257D01*
X0051686Y0270582D01*
X0050893Y0270124D01*
X0050246Y0269477D01*
X0049788Y0268684D01*
X0049551Y02678D01*
Y0266885D01*
X0049788Y0266001D01*
X0050246Y0265208D01*
X0050893Y0264561D01*
X0051686Y0264103D01*
X005257Y0263866D01*
X0053485D01*
X0054369Y0264103D01*
X0055162Y0264561D01*
X0055809Y0265208D01*
X0055865Y0265303D01*
X0066827D01*
X0067586Y0264865D01*
X0068596Y0264595D01*
X0069641D01*
X007065Y0264865D01*
X0071555Y0265387D01*
X0072294Y0266126D01*
X0072523Y0266524D01*
X0078028D01*
X0078808Y0266679D01*
X007947Y0267121D01*
X0084872Y0272524D01*
X0087042D01*
X0087176Y0272024D01*
X0086681Y0271739D01*
X0085943Y0271D01*
X008542Y0270095D01*
X008515Y0269085D01*
Y026804D01*
X008542Y0267031D01*
X0085943Y0266126D01*
X0086681Y0265387D01*
X0087586Y0264865D01*
X0088596Y0264595D01*
X0089641D01*
X009065Y0264865D01*
X0091555Y0265387D01*
X0092294Y0266126D01*
X0092816Y0267031D01*
X0093087Y026804D01*
Y0269085D01*
X0092816Y0270095D01*
X0092294Y0271D01*
X0091555Y0271739D01*
X0091061Y0272024D01*
X0091195Y0272524D01*
X0099626D01*
X0099675Y0272024D01*
X0099143Y0271918D01*
X0098316Y0271365D01*
X0089482Y0262531D01*
X0088596D01*
X0087586Y0262261D01*
X0086681Y0261739D01*
X0085943Y0261D01*
X0085618Y0260437D01*
X0085353D01*
X0084377Y0260243D01*
X008355Y025969D01*
X0067891Y0244032D01*
X0067005D01*
X0065996Y0243761D01*
X0065091Y0243239D01*
X0064352Y02425D01*
X006383Y0241595D01*
X0063559Y0240585D01*
Y0239541D01*
X006383Y0238531D01*
X0064352Y0237626D01*
X0065091Y0236887D01*
X0065996Y0236365D01*
X0067005Y0236094D01*
X006805D01*
X0069059Y0236365D01*
X0069964Y0236887D01*
X0070703Y0237626D01*
X0071226Y0238531D01*
X0071496Y0239541D01*
Y0240427D01*
X0086408Y0255339D01*
X0086765D01*
X0087586Y0254865D01*
X0088596Y0254594D01*
X0089641D01*
X009065Y0254865D01*
X0091555Y0255387D01*
X0092294Y0256126D01*
X0092816Y0257031D01*
X0093087Y025804D01*
Y0258927D01*
X0101174Y0267014D01*
X0133627D01*
X0133783Y0266514D01*
X0133246Y0265977D01*
X0132788Y0265184D01*
X0132551Y02643D01*
Y0263385D01*
X0132788Y0262501D01*
X0133246Y0261708D01*
X0133893Y0261061D01*
X0134686Y0260603D01*
X013557Y0260366D01*
X0136485D01*
X013737Y0260603D01*
X0138162Y0261061D01*
X013881Y0261708D01*
X0139267Y0262501D01*
X0139504Y0263385D01*
Y02643D01*
X0139267Y0265184D01*
X013881Y0265977D01*
X0138273Y0266514D01*
X0138429Y0267014D01*
X0149562D01*
X0155059Y0261517D01*
Y0260631D01*
X015533Y0259622D01*
X0155852Y0258717D01*
X0156591Y0257978D01*
X0157496Y0257455D01*
X0158505Y0257185D01*
X015955D01*
X0160559Y0257455D01*
X0161464Y0257978D01*
X0162203Y0258717D01*
X0162726Y0259622D01*
X0162996Y0260631D01*
Y0261517D01*
X0166993Y0265514D01*
X0176536D01*
X0176602Y0265014D01*
X0175996Y0264852D01*
X0175091Y0264329D01*
X0174352Y026359D01*
X017383Y0262685D01*
X0173559Y0261676D01*
Y0260631D01*
X017383Y0259622D01*
X0174352Y0258717D01*
X0175091Y0257978D01*
X0175996Y0257455D01*
X0177005Y0257185D01*
X017805D01*
X017906Y0257455D01*
X0179964Y0257978D01*
X0180703Y0258717D01*
X0181226Y0259622D01*
X0181496Y0260631D01*
Y0261676D01*
X0181226Y0262685D01*
X0180703Y026359D01*
X0179964Y0264329D01*
X017906Y0264852D01*
X0178453Y0265014D01*
X0178519Y0265514D01*
X0179562D01*
X0183559Y0261517D01*
Y0260631D01*
X018383Y0259622D01*
X0184352Y0258717D01*
X0185091Y0257978D01*
X0185996Y0257455D01*
X0187005Y0257185D01*
X018805D01*
X0189059Y0257455D01*
X0189964Y0257978D01*
X0190591Y0258605D01*
X0240618D01*
X0241594Y0258799D01*
X0242421Y0259351D01*
X0249997Y0266928D01*
X0250446Y0266669D01*
X0250272Y0266021D01*
Y0265105D01*
X0250509Y0264221D01*
X0250966Y0263428D01*
X0251614Y0262781D01*
X0251709Y0262726D01*
Y0260128D01*
X0247683Y0256102D01*
X0113152D01*
X0106976Y0262279D01*
X0107004Y0262385D01*
Y02633D01*
X0106767Y0264184D01*
X0106309Y0264977D01*
X0105662Y0265624D01*
X0104869Y0266082D01*
X0103985Y0266319D01*
X010307D01*
X0102186Y0266082D01*
X0101393Y0265624D01*
X0100746Y0264977D01*
X0100288Y0264184D01*
X0100051Y02633D01*
Y0262385D01*
X010008Y0262279D01*
X0098586Y0260784D01*
X0098144Y0260123D01*
X0097988Y0259343D01*
Y0242908D01*
X0088888Y0233807D01*
X008805Y0234032D01*
X0087005D01*
X0085996Y0233761D01*
X0085091Y0233239D01*
X0084352Y02325D01*
X008383Y0231595D01*
X0083559Y0230585D01*
Y022954D01*
X008383Y0228531D01*
X0084352Y0227626D01*
X0085091Y0226887D01*
X0085996Y0226365D01*
X0087005Y0226095D01*
X008805D01*
X008906Y0226365D01*
X0089964Y0226887D01*
X0090703Y0227626D01*
X0091226Y0228531D01*
X0091496Y022954D01*
Y0230585D01*
X0091483Y0230634D01*
X010147Y0240621D01*
X0101912Y0241283D01*
X0102067Y0242063D01*
Y0258498D01*
X0102964Y0259395D01*
X010307Y0259366D01*
X0103985D01*
X0104092Y0259395D01*
X0110865Y0252621D01*
X0111527Y0252179D01*
X0112307Y0252024D01*
X0248528D01*
X0249308Y0252179D01*
X024997Y0252621D01*
X025519Y0257841D01*
X0255632Y0258503D01*
X0255787Y0259283D01*
Y0262726D01*
X0255883Y0262781D01*
X025653Y0263428D01*
X0256988Y0264221D01*
X0257224Y0265105D01*
Y0266021D01*
X0256988Y0266905D01*
X025653Y0267698D01*
X0255883Y0268345D01*
X025509Y0268802D01*
X0254206Y0269039D01*
X0253291D01*
X0252642Y0268866D01*
X0252383Y0269314D01*
X0253584Y0270514D01*
X0260472D01*
X0262979Y0268007D01*
Y0228619D01*
X0256472Y0222112D01*
X0254366D01*
X02543Y0222612D01*
X025509Y0222824D01*
X0255883Y0223281D01*
X025653Y0223928D01*
X0256988Y0224721D01*
X0257224Y0225605D01*
Y0226521D01*
X0256988Y0227405D01*
X025653Y0228198D01*
X0255883Y0228845D01*
X025509Y0229303D01*
X0254206Y0229539D01*
X0253291D01*
X0253184Y0229511D01*
X024169Y0241005D01*
X0241028Y0241447D01*
X0240248Y0241602D01*
X0202528D01*
X0202528Y0241602D01*
X0201747Y0241447D01*
X0201086Y0241005D01*
X0197463Y0237382D01*
X0189932D01*
X0189798Y0237882D01*
X0189964Y0237978D01*
X0190703Y0238717D01*
X0191226Y0239622D01*
X0191496Y0240631D01*
Y0241676D01*
X0191226Y0242685D01*
X0190703Y024359D01*
X0189964Y0244329D01*
X0189059Y0244852D01*
X018805Y0245122D01*
X0187005D01*
X0185996Y0244852D01*
X0185091Y0244329D01*
X0184352Y024359D01*
X018383Y0242685D01*
X0183559Y0241676D01*
Y0240631D01*
X018383Y0239622D01*
X0184352Y0238717D01*
X0185091Y0237978D01*
X0185258Y0237882D01*
X0185124Y0237382D01*
X0184183D01*
X0181377Y0240188D01*
X0181496Y0240631D01*
Y0241676D01*
X0181226Y0242685D01*
X0180703Y024359D01*
X0179964Y0244329D01*
X017906Y0244852D01*
X017805Y0245122D01*
X0177005D01*
X0175996Y0244852D01*
X0175091Y0244329D01*
X0174352Y024359D01*
X017383Y0242685D01*
X0173559Y0241676D01*
Y0240631D01*
X0173678Y0240188D01*
X0168365Y0234875D01*
X0167923Y0234213D01*
X0167768Y0233433D01*
Y02299D01*
X0167673Y0229845D01*
X0167025Y0229198D01*
X0166568Y0228405D01*
X0166331Y0227521D01*
Y0226605D01*
X0166568Y0225721D01*
X0167025Y0224928D01*
X0167673Y0224281D01*
X0168465Y0223823D01*
X016935Y0223587D01*
X0170265D01*
X0171149Y0223823D01*
X0171942Y0224281D01*
X0172589Y0224928D01*
X0173047Y0225721D01*
X0173284Y0226605D01*
Y0227521D01*
X0173047Y0228405D01*
X0172589Y0229198D01*
X0171942Y0229845D01*
X0171846Y02299D01*
Y0232588D01*
X0176562Y0237304D01*
X0177005Y0237185D01*
X017805D01*
X0178493Y0237304D01*
X0181897Y0233901D01*
X0182558Y0233459D01*
X0183339Y0233303D01*
X0198307D01*
X0199088Y0233459D01*
X0199749Y0233901D01*
X0203372Y0237524D01*
X0239404D01*
X02503Y0226627D01*
X0250272Y0226521D01*
Y0225605D01*
X0250509Y0224721D01*
X0250966Y0223928D01*
X0251614Y0223281D01*
X0252406Y0222824D01*
X0253196Y0222612D01*
X025313Y0222112D01*
X0246174D01*
X0238996Y022929D01*
Y0230176D01*
X0238726Y0231185D01*
X0238203Y023209D01*
X0237464Y0232829D01*
X023656Y0233352D01*
X023555Y0233622D01*
X0234505D01*
X0233496Y0233352D01*
X0232591Y0232829D01*
X0231852Y023209D01*
X023133Y0231185D01*
X0231059Y0230176D01*
Y0229131D01*
X023133Y0228122D01*
X0231852Y0227217D01*
X0232591Y0226478D01*
X0233496Y0225956D01*
X0234505Y0225685D01*
X0235391D01*
X0243316Y0217761D01*
X0244143Y0217208D01*
X0245118Y0217014D01*
X0257528D01*
X0258503Y0217208D01*
X025933Y0217761D01*
X026733Y0225761D01*
X0267883Y0226588D01*
X0268077Y0227563D01*
Y0269063D01*
X0267883Y0270039D01*
X026733Y0270865D01*
X026333Y0274865D01*
X0262503Y0275418D01*
X0261528Y0275612D01*
X0252528D01*
X0251552Y0275418D01*
X0250725Y0274865D01*
X0239562Y0263703D01*
X0237525D01*
X0237475Y0264202D01*
X0237503Y0264208D01*
X023833Y0264761D01*
X0238368Y0264799D01*
X0238921Y0265626D01*
X0238964Y026584D01*
X023983Y0266706D01*
X0240383Y0267533D01*
X0240577Y0268509D01*
Y0268563D01*
X0240383Y0269538D01*
X023983Y0270365D01*
X0239003Y0270918D01*
X0238028Y0271112D01*
X0237052Y0270918D01*
X0236528Y0270567D01*
X0236003Y0270918D01*
X0235028Y0271112D01*
X0207528D01*
X0206552Y0270918D01*
X0205725Y0270365D01*
X0203725Y0268365D01*
X0203173Y0267538D01*
X0203125Y02673D01*
X0202475Y0266865D01*
X0202222Y0266612D01*
X0190528D01*
X0189552Y0266418D01*
X0188725Y0265865D01*
X0187982Y0265122D01*
X0187164D01*
X0182421Y0269865D01*
X0181594Y0270418D01*
X0180618Y0270612D01*
X0165937D01*
X0164962Y0270418D01*
X0164135Y0269865D01*
X0159391Y0265122D01*
X0158664D01*
X0152421Y0271365D01*
X0151594Y0271918D01*
X0151061Y0272024D01*
X0151111Y0272524D01*
X0241814D01*
X0242594Y0272679D01*
X0243256Y0273121D01*
X0252447Y0282313D01*
X0253291Y0282087D01*
X0254206D01*
X025509Y0282324D01*
X0255883Y0282781D01*
X025653Y0283428D01*
X0256988Y0284221D01*
X0257224Y0285105D01*
Y0286021D01*
X0256988Y0286905D01*
X025653Y0287698D01*
X0255883Y0288345D01*
X025509Y0288803D01*
X0254206Y0289039D01*
D02*
G37*
G36*
X0302588Y0268926D02*
Y0266063D01*
X0305451D01*
X0305236Y0266867D01*
X0304791Y0267637D01*
X0304162Y0268266D01*
X0303392Y0268711D01*
X0302588Y0268926D01*
D02*
G37*
G36*
X0301588D02*
X0300784Y0268711D01*
X0300014Y0268266D01*
X0299385Y0267637D01*
X029894Y0266867D01*
X0298725Y0266063D01*
X0301588D01*
Y0268926D01*
D02*
G37*
G36*
X0305451Y0265063D02*
X0302588D01*
Y02622D01*
X0303392Y0262415D01*
X0304162Y026286D01*
X0304791Y0263489D01*
X0305236Y0264259D01*
X0305451Y0265063D01*
D02*
G37*
G36*
X0301588D02*
X0298725D01*
X029894Y0264259D01*
X0299385Y0263489D01*
X0300014Y026286D01*
X0300784Y0262415D01*
X0301588Y02622D01*
Y0265063D01*
D02*
G37*
G36*
X0295466Y0268941D02*
X028871D01*
Y0262185D01*
X0295466D01*
Y0268941D01*
D02*
G37*
G36*
X0281765Y0269039D02*
X028085D01*
X0279965Y0268802D01*
X0279173Y0268345D01*
X0278525Y0267698D01*
X0278068Y0266905D01*
X0277831Y0266021D01*
Y0265105D01*
X0278068Y0264221D01*
X0278525Y0263428D01*
X0279173Y0262781D01*
X0279965Y0262323D01*
X028085Y0262087D01*
X0281765D01*
X0282649Y0262323D01*
X0283442Y0262781D01*
X0284089Y0263428D01*
X0284547Y0264221D01*
X0284784Y0265105D01*
Y0266021D01*
X0284547Y0266905D01*
X0284089Y0267698D01*
X0283442Y0268345D01*
X0282649Y0268802D01*
X0281765Y0269039D01*
D02*
G37*
G36*
X014955Y0265122D02*
X0148505D01*
X0147496Y0264852D01*
X0146591Y0264329D01*
X0145852Y026359D01*
X014533Y0262685D01*
X0145059Y0261676D01*
Y0260631D01*
X014533Y0259622D01*
X0145852Y0258717D01*
X0146591Y0257978D01*
X0147496Y0257455D01*
X0148505Y0257185D01*
X014955D01*
X0150559Y0257455D01*
X0151464Y0257978D01*
X0152203Y0258717D01*
X0152726Y0259622D01*
X0152996Y0260631D01*
Y0261676D01*
X0152726Y0262685D01*
X0152203Y026359D01*
X0151464Y0264329D01*
X0150559Y0264852D01*
X014955Y0265122D01*
D02*
G37*
G36*
X0069641Y0262531D02*
X0068596D01*
X0067586Y0262261D01*
X0066681Y0261739D01*
X0065943Y0261D01*
X006542Y0260095D01*
X006515Y0259085D01*
Y025804D01*
X006542Y0257031D01*
X0065943Y0256126D01*
X0066681Y0255387D01*
X0067586Y0254865D01*
X0068596Y0254594D01*
X0069641D01*
X007065Y0254865D01*
X0071555Y0255387D01*
X0072294Y0256126D01*
X0072816Y0257031D01*
X0073087Y025804D01*
Y0259085D01*
X0072816Y0260095D01*
X0072294Y0261D01*
X0071555Y0261739D01*
X007065Y0262261D01*
X0069641Y0262531D01*
D02*
G37*
G36*
X0302606Y0248926D02*
Y0246063D01*
X030547D01*
X0305254Y0246867D01*
X0304809Y0247637D01*
X0304181Y0248266D01*
X030341Y0248711D01*
X0302606Y0248926D01*
D02*
G37*
G36*
X0301606D02*
X0300803Y0248711D01*
X0300032Y0248266D01*
X0299403Y0247637D01*
X0298959Y0246867D01*
X0298743Y0246063D01*
X0301606D01*
Y0248926D01*
D02*
G37*
G36*
X030547Y0245063D02*
X0302606D01*
Y02422D01*
X030341Y0242415D01*
X0304181Y024286D01*
X0304809Y0243489D01*
X0305254Y0244259D01*
X030547Y0245063D01*
D02*
G37*
G36*
X0301606D02*
X0298743D01*
X0298959Y0244259D01*
X0299403Y0243489D01*
X0300032Y024286D01*
X0300803Y0242415D01*
X0301606Y02422D01*
Y0245063D01*
D02*
G37*
G36*
X0295484Y0248941D02*
X0288728D01*
Y0242185D01*
X0295484D01*
Y0248941D01*
D02*
G37*
G36*
X0281765Y0249039D02*
X028085D01*
X0279965Y0248802D01*
X0279173Y0248345D01*
X0278525Y0247697D01*
X0278068Y0246905D01*
X0277831Y0246021D01*
Y0245105D01*
X0278068Y0244221D01*
X0278525Y0243428D01*
X0279173Y0242781D01*
X0279965Y0242323D01*
X028085Y0242087D01*
X0281765D01*
X0282649Y0242323D01*
X0283442Y0242781D01*
X0284089Y0243428D01*
X0284547Y0244221D01*
X0284784Y0245105D01*
Y0246021D01*
X0284547Y0246905D01*
X0284089Y0247697D01*
X0283442Y0248345D01*
X0282649Y0248802D01*
X0281765Y0249039D01*
D02*
G37*
G36*
X0251143Y0250102D02*
X0155937D01*
X0155157Y0249947D01*
X0154495Y0249505D01*
X0149994Y0245003D01*
X014955Y0245122D01*
X0148505D01*
X0147496Y0244852D01*
X0146591Y0244329D01*
X0145852Y024359D01*
X014533Y0242685D01*
X0145059Y0241676D01*
Y0240631D01*
X014533Y0239622D01*
X0145852Y0238717D01*
X0146591Y0237978D01*
X0147496Y0237456D01*
X0148505Y0237185D01*
X014955D01*
X0150559Y0237456D01*
X0151464Y0237978D01*
X0152203Y0238717D01*
X0152726Y0239622D01*
X0152996Y0240631D01*
Y0241676D01*
X0152877Y0242119D01*
X0156782Y0246024D01*
X0250269D01*
X0250272Y0246021D01*
Y0245105D01*
X0250509Y0244221D01*
X0250966Y0243428D01*
X0251614Y0242781D01*
X0252406Y0242323D01*
X0253291Y0242087D01*
X0254206D01*
X025509Y0242323D01*
X0255883Y0242781D01*
X025653Y0243428D01*
X0256988Y0244221D01*
X0257224Y0245105D01*
Y0246021D01*
X0256988Y0246905D01*
X025653Y0247697D01*
X0255883Y0248345D01*
X025509Y0248802D01*
X0254206Y0249039D01*
X0253291D01*
X0253101Y0248989D01*
X0252585Y0249505D01*
X0251923Y0249947D01*
X0251143Y0250102D01*
D02*
G37*
G36*
X0053528Y0243249D02*
Y0240283D01*
X0056493D01*
X0056267Y0241125D01*
X0055809Y0241918D01*
X0055162Y0242565D01*
X0054369Y0243023D01*
X0053528Y0243249D01*
D02*
G37*
G36*
X0052528D02*
X0051686Y0243023D01*
X0050893Y0242565D01*
X0050246Y0241918D01*
X0049788Y0241125D01*
X0049563Y0240283D01*
X0052528D01*
Y0243249D01*
D02*
G37*
G36*
X015955Y0245122D02*
X0158505D01*
X0157496Y0244852D01*
X0156591Y0244329D01*
X0155852Y024359D01*
X015533Y0242685D01*
X0155059Y0241676D01*
Y0240631D01*
X015533Y0239622D01*
X0155852Y0238717D01*
X0156591Y0237978D01*
X0157496Y0237456D01*
X0158505Y0237185D01*
X015955D01*
X0160559Y0237456D01*
X0161464Y0237978D01*
X0162203Y0238717D01*
X0162726Y0239622D01*
X0162996Y0240631D01*
Y0241676D01*
X0162726Y0242685D01*
X0162203Y024359D01*
X0161464Y0244329D01*
X0160559Y0244852D01*
X015955Y0245122D01*
D02*
G37*
G36*
X0136528Y0239749D02*
Y0236784D01*
X0139493D01*
X0139267Y0237625D01*
X013881Y0238418D01*
X0138162Y0239065D01*
X013737Y0239523D01*
X0136528Y0239749D01*
D02*
G37*
G36*
X0135528D02*
X0134686Y0239523D01*
X0133893Y0239065D01*
X0133246Y0238418D01*
X0132788Y0237625D01*
X0132563Y0236784D01*
X0135528D01*
Y0239749D01*
D02*
G37*
G36*
X0056493Y0239283D02*
X0053528D01*
Y0236318D01*
X0054369Y0236544D01*
X0055162Y0237002D01*
X0055809Y0237649D01*
X0056267Y0238442D01*
X0056493Y0239283D01*
D02*
G37*
G36*
X0052528D02*
X0049563D01*
X0049788Y0238442D01*
X0050246Y0237649D01*
X0050893Y0237002D01*
X0051686Y0236544D01*
X0052528Y0236318D01*
Y0239283D01*
D02*
G37*
G36*
X008805Y0244032D02*
X0087005D01*
X0085996Y0243761D01*
X0085091Y0243239D01*
X0084352Y02425D01*
X008383Y0241595D01*
X0083559Y0240585D01*
Y0239541D01*
X008383Y0238531D01*
X0084352Y0237626D01*
X0085091Y0236887D01*
X0085996Y0236365D01*
X0087005Y0236094D01*
X008805D01*
X008906Y0236365D01*
X0089964Y0236887D01*
X0090703Y0237626D01*
X0091226Y0238531D01*
X0091496Y0239541D01*
Y0240585D01*
X0091226Y0241595D01*
X0090703Y02425D01*
X0089964Y0243239D01*
X008906Y0243761D01*
X008805Y0244032D01*
D02*
G37*
G36*
X0104028Y0238749D02*
Y0235784D01*
X0106993D01*
X0106767Y0236625D01*
X0106309Y0237418D01*
X0105662Y0238065D01*
X0104869Y0238523D01*
X0104028Y0238749D01*
D02*
G37*
G36*
X0103028D02*
X0102186Y0238523D01*
X0101393Y0238065D01*
X0100746Y0237418D01*
X0100288Y0236625D01*
X0100063Y0235784D01*
X0103028D01*
Y0238749D01*
D02*
G37*
G36*
X0213528Y0235808D02*
Y0232842D01*
X0216493D01*
X0216267Y0233684D01*
X0215809Y0234477D01*
X0215162Y0235124D01*
X021437Y0235582D01*
X0213528Y0235808D01*
D02*
G37*
G36*
X0212528D02*
X0211686Y0235582D01*
X0210893Y0235124D01*
X0210246Y0234477D01*
X0209788Y0233684D01*
X0209563Y0232842D01*
X0212528D01*
Y0235808D01*
D02*
G37*
G36*
X0139493Y0235784D02*
X0136528D01*
Y0232818D01*
X013737Y0233044D01*
X0138162Y0233502D01*
X013881Y0234149D01*
X0139267Y0234942D01*
X0139493Y0235784D01*
D02*
G37*
G36*
X0135528D02*
X0132563D01*
X0132788Y0234942D01*
X0133246Y0234149D01*
X0133893Y0233502D01*
X0134686Y0233044D01*
X0135528Y0232818D01*
Y0235784D01*
D02*
G37*
G36*
X0106993Y0234784D02*
X0104028D01*
Y0231818D01*
X0104869Y0232044D01*
X0105662Y0232502D01*
X0106309Y0233149D01*
X0106767Y0233942D01*
X0106993Y0234784D01*
D02*
G37*
G36*
X0103028D02*
X0100063D01*
X0100288Y0233942D01*
X0100746Y0233149D01*
X0101393Y0232502D01*
X0102186Y0232044D01*
X0103028Y0231818D01*
Y0234784D01*
D02*
G37*
G36*
X0216493Y0231842D02*
X0213528D01*
Y0228877D01*
X021437Y0229103D01*
X0215162Y0229561D01*
X0215809Y0230208D01*
X0216267Y0231001D01*
X0216493Y0231842D01*
D02*
G37*
G36*
X0212528D02*
X0209563D01*
X0209788Y0231001D01*
X0210246Y0230208D01*
X0210893Y0229561D01*
X0211686Y0229103D01*
X0212528Y0228877D01*
Y0231842D01*
D02*
G37*
G36*
X0142748Y0230528D02*
Y0227563D01*
X0145713D01*
X0145488Y0228405D01*
X014503Y0229198D01*
X0144383Y0229845D01*
X014359Y0230303D01*
X0142748Y0230528D01*
D02*
G37*
G36*
X0141748Y0230528D02*
X0140906Y0230303D01*
X0140114Y0229845D01*
X0139466Y0229198D01*
X0139009Y0228405D01*
X0138783Y0227563D01*
X0141748D01*
Y0230528D01*
D02*
G37*
G36*
X0302509Y0229426D02*
Y0226563D01*
X0305373D01*
X0305157Y0227367D01*
X0304712Y0228137D01*
X0304083Y0228766D01*
X0303313Y0229211D01*
X0302509Y0229426D01*
D02*
G37*
G36*
X0301509D02*
X0300706Y0229211D01*
X0299935Y0228766D01*
X0299306Y0228137D01*
X0298862Y0227367D01*
X0298646Y0226563D01*
X0301509D01*
Y0229426D01*
D02*
G37*
G36*
X006805Y0234032D02*
X0067005D01*
X0065996Y0233761D01*
X0065091Y0233239D01*
X0064352Y02325D01*
X006383Y0231595D01*
X0063559Y0230585D01*
Y022954D01*
X006383Y0228531D01*
X0064352Y0227626D01*
X0065091Y0226887D01*
X0065996Y0226365D01*
X0067005Y0226095D01*
X006805D01*
X0069059Y0226365D01*
X0069964Y0226887D01*
X0070703Y0227626D01*
X0071226Y0228531D01*
X0071496Y022954D01*
Y0230585D01*
X0071226Y0231595D01*
X0070703Y02325D01*
X0069964Y0233239D01*
X0069059Y0233761D01*
X006805Y0234032D01*
D02*
G37*
G36*
X022555Y0233622D02*
X0224505D01*
X0223496Y0233352D01*
X0222591Y0232829D01*
X0221852Y023209D01*
X022133Y0231185D01*
X0221059Y0230176D01*
Y0229131D01*
X022133Y0228122D01*
X0221852Y0227217D01*
X0222591Y0226478D01*
X0223496Y0225956D01*
X0224505Y0225685D01*
X022555D01*
X0226559Y0225956D01*
X0227464Y0226478D01*
X0228203Y0227217D01*
X0228726Y0228122D01*
X0228996Y0229131D01*
Y0230176D01*
X0228726Y0231185D01*
X0228203Y023209D01*
X0227464Y0232829D01*
X0226559Y0233352D01*
X022555Y0233622D01*
D02*
G37*
G36*
X0145713Y0226563D02*
X0142748D01*
Y0223598D01*
X014359Y0223823D01*
X0144383Y0224281D01*
X014503Y0224928D01*
X0145488Y0225721D01*
X0145713Y0226563D01*
D02*
G37*
G36*
X0141748D02*
X0138783D01*
X0139009Y0225721D01*
X0139466Y0224928D01*
X0140114Y0224281D01*
X0140906Y0223823D01*
X0141748Y0223598D01*
Y0226563D01*
D02*
G37*
G36*
X0305373Y0225563D02*
X0302509D01*
Y02227D01*
X0303313Y0222915D01*
X0304083Y022336D01*
X0304712Y0223989D01*
X0305157Y0224759D01*
X0305373Y0225563D01*
D02*
G37*
G36*
X0301509D02*
X0298646D01*
X0298862Y0224759D01*
X0299306Y0223989D01*
X0299935Y022336D01*
X0300706Y0222915D01*
X0301509Y02227D01*
Y0225563D01*
D02*
G37*
G36*
X0295387Y0229441D02*
X0288631D01*
Y0222685D01*
X0295387D01*
Y0229441D01*
D02*
G37*
G36*
X0281765Y0229539D02*
X028085D01*
X0279965Y0229303D01*
X0279173Y0228845D01*
X0278525Y0228198D01*
X0278068Y0227405D01*
X0277831Y0226521D01*
Y0225605D01*
X0278068Y0224721D01*
X0278525Y0223928D01*
X0279173Y0223281D01*
X0279965Y0222824D01*
X028085Y0222587D01*
X0281765D01*
X0282649Y0222824D01*
X0283442Y0223281D01*
X0284089Y0223928D01*
X0284547Y0224721D01*
X0284784Y0225605D01*
Y0226521D01*
X0284547Y0227405D01*
X0284089Y0228198D01*
X0283442Y0228845D01*
X0282649Y0229303D01*
X0281765Y0229539D01*
D02*
G37*
G36*
X0022028Y0217756D02*
Y0214563D01*
X0025221D01*
X0024973Y021549D01*
X0024486Y0216333D01*
X0023798Y0217021D01*
X0022955Y0217508D01*
X0022028Y0217756D01*
D02*
G37*
G36*
X0021028D02*
X0020101Y0217508D01*
X0019258Y0217021D01*
X001857Y0216333D01*
X0018083Y021549D01*
X0017834Y0214563D01*
X0021028D01*
Y0217756D01*
D02*
G37*
G36*
X0025221Y0213563D02*
X0022028D01*
Y021037D01*
X0022955Y0210618D01*
X0023798Y0211105D01*
X0024486Y0211793D01*
X0024973Y0212636D01*
X0025221Y0213563D01*
D02*
G37*
G36*
X0021028D02*
X0017834D01*
X0018083Y0212636D01*
X001857Y0211793D01*
X0019258Y0211105D01*
X0020101Y0210618D01*
X0021028Y021037D01*
Y0213563D01*
D02*
G37*
G36*
X0152014Y021776D02*
X0151041D01*
X0150101Y0217508D01*
X0149258Y0217021D01*
X014857Y0216333D01*
X0148083Y021549D01*
X0147831Y021455D01*
Y0213576D01*
X0148083Y0212636D01*
X014857Y0211793D01*
X0149258Y0211105D01*
X0150101Y0210618D01*
X0151041Y0210366D01*
X0152014D01*
X0152955Y0210618D01*
X0153798Y0211105D01*
X0154486Y0211793D01*
X0154973Y0212636D01*
X0155225Y0213576D01*
Y021455D01*
X0154973Y021549D01*
X0154486Y0216333D01*
X0153798Y0217021D01*
X0152955Y0217508D01*
X0152014Y021776D01*
D02*
G37*
G36*
X0142014D02*
X0141041D01*
X0140101Y0217508D01*
X0139258Y0217021D01*
X0138569Y0216333D01*
X0138083Y021549D01*
X0137831Y021455D01*
Y0213576D01*
X0138083Y0212636D01*
X0138569Y0211793D01*
X0139258Y0211105D01*
X0140101Y0210618D01*
X0141041Y0210366D01*
X0142014D01*
X0142955Y0210618D01*
X0143798Y0211105D01*
X0144486Y0211793D01*
X0144973Y0212636D01*
X0145224Y0213576D01*
Y021455D01*
X0144973Y021549D01*
X0144486Y0216333D01*
X0143798Y0217021D01*
X0142955Y0217508D01*
X0142014Y021776D01*
D02*
G37*
G36*
X0132014D02*
X0131041D01*
X0130101Y0217508D01*
X0129258Y0217021D01*
X0128569Y0216333D01*
X0128083Y021549D01*
X0127831Y021455D01*
Y0213576D01*
X0128083Y0212636D01*
X0128569Y0211793D01*
X0129258Y0211105D01*
X0130101Y0210618D01*
X0131041Y0210366D01*
X0132014D01*
X0132955Y0210618D01*
X0133798Y0211105D01*
X0134486Y0211793D01*
X0134973Y0212636D01*
X0135224Y0213576D01*
Y021455D01*
X0134973Y021549D01*
X0134486Y0216333D01*
X0133798Y0217021D01*
X0132955Y0217508D01*
X0132014Y021776D01*
D02*
G37*
G36*
X0122014D02*
X0121041D01*
X0120101Y0217508D01*
X0119258Y0217021D01*
X011857Y0216333D01*
X0118083Y021549D01*
X0117831Y021455D01*
Y0213576D01*
X0118083Y0212636D01*
X011857Y0211793D01*
X0119258Y0211105D01*
X0120101Y0210618D01*
X0121041Y0210366D01*
X0122014D01*
X0122955Y0210618D01*
X0123798Y0211105D01*
X0124486Y0211793D01*
X0124973Y0212636D01*
X0125224Y0213576D01*
Y021455D01*
X0124973Y021549D01*
X0124486Y0216333D01*
X0123798Y0217021D01*
X0122955Y0217508D01*
X0122014Y021776D01*
D02*
G37*
G36*
X0112014D02*
X0111041D01*
X0110101Y0217508D01*
X0109258Y0217021D01*
X010857Y0216333D01*
X0108083Y021549D01*
X0107831Y021455D01*
Y0213576D01*
X0108083Y0212636D01*
X010857Y0211793D01*
X0109258Y0211105D01*
X0110101Y0210618D01*
X0111041Y0210366D01*
X0112014D01*
X0112955Y0210618D01*
X0113798Y0211105D01*
X0114486Y0211793D01*
X0114973Y0212636D01*
X0115225Y0213576D01*
Y021455D01*
X0114973Y021549D01*
X0114486Y0216333D01*
X0113798Y0217021D01*
X0112955Y0217508D01*
X0112014Y021776D01*
D02*
G37*
G36*
X0102014D02*
X0101041D01*
X0100101Y0217508D01*
X0099258Y0217021D01*
X009857Y0216333D01*
X0098083Y021549D01*
X0097831Y021455D01*
Y0213576D01*
X0098083Y0212636D01*
X009857Y0211793D01*
X0099258Y0211105D01*
X0100101Y0210618D01*
X0101041Y0210366D01*
X0102014D01*
X0102955Y0210618D01*
X0103798Y0211105D01*
X0104486Y0211793D01*
X0104973Y0212636D01*
X0105225Y0213576D01*
Y021455D01*
X0104973Y021549D01*
X0104486Y0216333D01*
X0103798Y0217021D01*
X0102955Y0217508D01*
X0102014Y021776D01*
D02*
G37*
G36*
X0092014D02*
X0091041D01*
X0090101Y0217508D01*
X0089258Y0217021D01*
X0088569Y0216333D01*
X0088083Y021549D01*
X0087831Y021455D01*
Y0213576D01*
X0088083Y0212636D01*
X0088569Y0211793D01*
X0089258Y0211105D01*
X0090101Y0210618D01*
X0091041Y0210366D01*
X0092014D01*
X0092955Y0210618D01*
X0093798Y0211105D01*
X0094486Y0211793D01*
X0094973Y0212636D01*
X0095224Y0213576D01*
Y021455D01*
X0094973Y021549D01*
X0094486Y0216333D01*
X0093798Y0217021D01*
X0092955Y0217508D01*
X0092014Y021776D01*
D02*
G37*
G36*
X0082014D02*
X0081041D01*
X0080101Y0217508D01*
X0079258Y0217021D01*
X007857Y0216333D01*
X0078083Y021549D01*
X0077831Y021455D01*
Y0213576D01*
X0078083Y0212636D01*
X007857Y0211793D01*
X0079258Y0211105D01*
X0080101Y0210618D01*
X0081041Y0210366D01*
X0082014D01*
X0082955Y0210618D01*
X0083798Y0211105D01*
X0084486Y0211793D01*
X0084973Y0212636D01*
X0085224Y0213576D01*
Y021455D01*
X0084973Y021549D01*
X0084486Y0216333D01*
X0083798Y0217021D01*
X0082955Y0217508D01*
X0082014Y021776D01*
D02*
G37*
G36*
X0072014D02*
X0071041D01*
X0070101Y0217508D01*
X0069258Y0217021D01*
X0068569Y0216333D01*
X0068083Y021549D01*
X0067831Y021455D01*
Y0213576D01*
X0068083Y0212636D01*
X0068569Y0211793D01*
X0069258Y0211105D01*
X0070101Y0210618D01*
X0071041Y0210366D01*
X0072014D01*
X0072955Y0210618D01*
X0073798Y0211105D01*
X0074486Y0211793D01*
X0074973Y0212636D01*
X0075225Y0213576D01*
Y021455D01*
X0074973Y021549D01*
X0074486Y0216333D01*
X0073798Y0217021D01*
X0072955Y0217508D01*
X0072014Y021776D01*
D02*
G37*
G36*
X0052014D02*
X0051041D01*
X0050101Y0217508D01*
X0049258Y0217021D01*
X004857Y0216333D01*
X0048083Y021549D01*
X0047831Y021455D01*
Y0213576D01*
X0048083Y0212636D01*
X004857Y0211793D01*
X0049258Y0211105D01*
X0050101Y0210618D01*
X0051041Y0210366D01*
X0052014D01*
X0052955Y0210618D01*
X0053798Y0211105D01*
X0054486Y0211793D01*
X0054973Y0212636D01*
X0055225Y0213576D01*
Y021455D01*
X0054973Y021549D01*
X0054486Y0216333D01*
X0053798Y0217021D01*
X0052955Y0217508D01*
X0052014Y021776D01*
D02*
G37*
G36*
X0042014D02*
X0041041D01*
X0040101Y0217508D01*
X0039258Y0217021D01*
X003857Y0216333D01*
X0038083Y021549D01*
X0037831Y021455D01*
Y0213576D01*
X0038083Y0212636D01*
X003857Y0211793D01*
X0039258Y0211105D01*
X0040101Y0210618D01*
X0041041Y0210366D01*
X0042014D01*
X0042955Y0210618D01*
X0043798Y0211105D01*
X0044486Y0211793D01*
X0044973Y0212636D01*
X0045224Y0213576D01*
Y021455D01*
X0044973Y021549D01*
X0044486Y0216333D01*
X0043798Y0217021D01*
X0042955Y0217508D01*
X0042014Y021776D01*
D02*
G37*
G36*
X0032014D02*
X0031041D01*
X0030101Y0217508D01*
X0029258Y0217021D01*
X0028569Y0216333D01*
X0028083Y021549D01*
X0027831Y021455D01*
Y0213576D01*
X0028083Y0212636D01*
X0028569Y0211793D01*
X0029258Y0211105D01*
X0030101Y0210618D01*
X0031041Y0210366D01*
X0032014D01*
X0032955Y0210618D01*
X0033798Y0211105D01*
X0034486Y0211793D01*
X0034973Y0212636D01*
X0035225Y0213576D01*
Y021455D01*
X0034973Y021549D01*
X0034486Y0216333D01*
X0033798Y0217021D01*
X0032955Y0217508D01*
X0032014Y021776D01*
D02*
G37*
G36*
X0302528Y0209926D02*
Y0207063D01*
X0305391D01*
X0305175Y0207867D01*
X0304731Y0208637D01*
X0304102Y0209266D01*
X0303331Y0209711D01*
X0302528Y0209926D01*
D02*
G37*
G36*
X0301528D02*
X0300724Y0209711D01*
X0299954Y0209266D01*
X0299325Y0208637D01*
X029888Y0207867D01*
X0298665Y0207063D01*
X0301528D01*
Y0209926D01*
D02*
G37*
G36*
X023555Y0213622D02*
X0234505D01*
X0233496Y0213352D01*
X0232591Y0212829D01*
X0231852Y021209D01*
X023133Y0211185D01*
X0231059Y0210176D01*
Y0209131D01*
X023133Y0208122D01*
X0231852Y0207217D01*
X0232591Y0206478D01*
X0233496Y0205956D01*
X0234505Y0205685D01*
X023555D01*
X023656Y0205956D01*
X0237464Y0206478D01*
X0238203Y0207217D01*
X0238726Y0208122D01*
X0238996Y0209131D01*
Y0210176D01*
X0238726Y0211185D01*
X0238203Y021209D01*
X0237464Y0212829D01*
X023656Y0213352D01*
X023555Y0213622D01*
D02*
G37*
G36*
X0165225Y021776D02*
X0157831D01*
Y0210366D01*
X0165225D01*
Y0213524D01*
X0199904D01*
X0209716Y0203711D01*
X0209788Y0203442D01*
X0210246Y0202649D01*
X0210893Y0202002D01*
X0211686Y0201544D01*
X021257Y0201307D01*
X0213485D01*
X021437Y0201544D01*
X0215162Y0202002D01*
X0215809Y0202649D01*
X0216267Y0203442D01*
X0216289Y0203524D01*
X0220937D01*
X0221718Y0203679D01*
X0222379Y0204121D01*
X0224062Y0205804D01*
X0224505Y0205685D01*
X022555D01*
X0226559Y0205956D01*
X0227464Y0206478D01*
X0228203Y0207217D01*
X0228726Y0208122D01*
X0228996Y0209131D01*
Y0210176D01*
X0228726Y0211185D01*
X0228203Y021209D01*
X0227464Y0212829D01*
X0226559Y0213352D01*
X022555Y0213622D01*
X0224505D01*
X0223496Y0213352D01*
X0222591Y0212829D01*
X0221852Y021209D01*
X022133Y0211185D01*
X0221059Y0210176D01*
Y0209131D01*
X0221178Y0208688D01*
X0220093Y0207602D01*
X0215098D01*
X021437Y0208023D01*
X0213485Y020826D01*
X021257D01*
X0211686Y0208023D01*
X021136Y0207835D01*
X020219Y0217005D01*
X0201529Y0217447D01*
X0200748Y0217602D01*
X0165225D01*
Y021776D01*
D02*
G37*
G36*
X0022054Y0208063D02*
X0022028D01*
Y0204563D01*
X0025528D01*
Y020459D01*
X0025255Y0205607D01*
X0024728Y0206519D01*
X0023984Y0207264D01*
X0023072Y020779D01*
X0022054Y0208063D01*
D02*
G37*
G36*
X0021028D02*
X0021001D01*
X0019984Y020779D01*
X0019072Y0207264D01*
X0018327Y0206519D01*
X00178Y0205607D01*
X0017528Y020459D01*
Y0204563D01*
X0021028D01*
Y0208063D01*
D02*
G37*
G36*
X0305391Y0206063D02*
X0302528D01*
Y02032D01*
X0303331Y0203415D01*
X0304102Y020386D01*
X0304731Y0204489D01*
X0305175Y0205259D01*
X0305391Y0206063D01*
D02*
G37*
G36*
X0301528D02*
X0298665D01*
X029888Y0205259D01*
X0299325Y0204489D01*
X0299954Y020386D01*
X0300724Y0203415D01*
X0301528Y02032D01*
Y0206063D01*
D02*
G37*
G36*
X0295406Y0209941D02*
X028865D01*
Y0203185D01*
X0295406D01*
Y0209941D01*
D02*
G37*
G36*
X0281765Y0210039D02*
X028085D01*
X0279965Y0209803D01*
X0279173Y0209345D01*
X0278525Y0208698D01*
X0278068Y0207905D01*
X0277831Y0207021D01*
Y0206105D01*
X0278068Y0205221D01*
X0278525Y0204428D01*
X0279173Y0203781D01*
X0279965Y0203324D01*
X028085Y0203087D01*
X0281765D01*
X0282649Y0203324D01*
X0283442Y0203781D01*
X0284089Y0204428D01*
X0284547Y0205221D01*
X0284784Y0206105D01*
Y0207021D01*
X0284547Y0207905D01*
X0284089Y0208698D01*
X0283442Y0209345D01*
X0282649Y0209803D01*
X0281765Y0210039D01*
D02*
G37*
G36*
X0254206D02*
X0253291D01*
X0252406Y0209803D01*
X0251614Y0209345D01*
X0250966Y0208698D01*
X0250509Y0207905D01*
X0250272Y0207021D01*
Y0206105D01*
X0250509Y0205221D01*
X0250966Y0204428D01*
X0251614Y0203781D01*
X0252406Y0203324D01*
X0253291Y0203087D01*
X0254206D01*
X025509Y0203324D01*
X0255883Y0203781D01*
X025653Y0204428D01*
X0256988Y0205221D01*
X0257224Y0206105D01*
Y0207021D01*
X0256988Y0207905D01*
X025653Y0208698D01*
X0255883Y0209345D01*
X025509Y0209803D01*
X0254206Y0210039D01*
D02*
G37*
G36*
X0092054Y0208063D02*
X0091001D01*
X0089984Y020779D01*
X0089072Y0207264D01*
X0088327Y0206519D01*
X00878Y0205607D01*
X0087528Y020459D01*
Y0203536D01*
X00878Y0202519D01*
X0088327Y0201607D01*
X0089072Y0200862D01*
X0089984Y0200336D01*
X0091001Y0200063D01*
X0092054D01*
X0093072Y0200336D01*
X0093984Y0200862D01*
X0094728Y0201607D01*
X0095255Y0202519D01*
X0095528Y0203536D01*
Y020459D01*
X0095255Y0205607D01*
X0094728Y0206519D01*
X0093984Y0207264D01*
X0093072Y020779D01*
X0092054Y0208063D01*
D02*
G37*
G36*
X0082054D02*
X0081001D01*
X0079984Y020779D01*
X0079072Y0207264D01*
X0078327Y0206519D01*
X00778Y0205607D01*
X0077528Y020459D01*
Y0203536D01*
X00778Y0202519D01*
X0078327Y0201607D01*
X0079072Y0200862D01*
X0079984Y0200336D01*
X0081001Y0200063D01*
X0082054D01*
X0083072Y0200336D01*
X0083984Y0200862D01*
X0084728Y0201607D01*
X0085255Y0202519D01*
X0085528Y0203536D01*
Y020459D01*
X0085255Y0205607D01*
X0084728Y0206519D01*
X0083984Y0207264D01*
X0083072Y020779D01*
X0082054Y0208063D01*
D02*
G37*
G36*
X0072054D02*
X0071001D01*
X0069984Y020779D01*
X0069072Y0207264D01*
X0068327Y0206519D01*
X00678Y0205607D01*
X0067528Y020459D01*
Y0203536D01*
X00678Y0202519D01*
X0068327Y0201607D01*
X0069072Y0200862D01*
X0069984Y0200336D01*
X0071001Y0200063D01*
X0072054D01*
X0073072Y0200336D01*
X0073984Y0200862D01*
X0074729Y0201607D01*
X0075255Y0202519D01*
X0075528Y0203536D01*
Y020459D01*
X0075255Y0205607D01*
X0074729Y0206519D01*
X0073984Y0207264D01*
X0073072Y020779D01*
X0072054Y0208063D01*
D02*
G37*
G36*
X0022028Y0387756D02*
Y0384563D01*
X0025221D01*
X0024973Y038549D01*
X0024486Y0386333D01*
X0023798Y0387021D01*
X0022955Y0387508D01*
X0022028Y0387756D01*
D02*
G37*
G36*
X0021028D02*
X0020101Y0387508D01*
X0019258Y0387021D01*
X001857Y0386333D01*
X0018083Y038549D01*
X0017834Y0384563D01*
X0021028D01*
Y0387756D01*
D02*
G37*
G36*
X0025221Y0383563D02*
X0022028D01*
Y038037D01*
X0022955Y0380618D01*
X0023798Y0381105D01*
X0024486Y0381793D01*
X0024973Y0382636D01*
X0025221Y0383563D01*
D02*
G37*
G36*
X0021028D02*
X0017834D01*
X0018083Y0382636D01*
X001857Y0381793D01*
X0019258Y0381105D01*
X0020101Y0380618D01*
X0021028Y038037D01*
Y0383563D01*
D02*
G37*
G36*
X0075225Y038776D02*
X0067831D01*
Y0380366D01*
X0075225D01*
Y038776D01*
D02*
G37*
G36*
X0062014D02*
X0061041D01*
X0060101Y0387508D01*
X0059258Y0387021D01*
X005857Y0386333D01*
X0058083Y038549D01*
X0057831Y038455D01*
Y0383576D01*
X0058083Y0382636D01*
X005857Y0381793D01*
X0059258Y0381105D01*
X0060101Y0380618D01*
X0061041Y0380366D01*
X0062014D01*
X0062955Y0380618D01*
X0063798Y0381105D01*
X0064486Y0381793D01*
X0064973Y0382636D01*
X0065224Y0383576D01*
Y038455D01*
X0064973Y038549D01*
X0064486Y0386333D01*
X0063798Y0387021D01*
X0062955Y0387508D01*
X0062014Y038776D01*
D02*
G37*
G36*
X0052014D02*
X0051041D01*
X0050101Y0387508D01*
X0049258Y0387021D01*
X004857Y0386333D01*
X0048083Y038549D01*
X0047831Y038455D01*
Y0383576D01*
X0048083Y0382636D01*
X004857Y0381793D01*
X0049258Y0381105D01*
X0050101Y0380618D01*
X0051041Y0380366D01*
X0052014D01*
X0052955Y0380618D01*
X0053798Y0381105D01*
X0054486Y0381793D01*
X0054973Y0382636D01*
X0055225Y0383576D01*
Y038455D01*
X0054973Y038549D01*
X0054486Y0386333D01*
X0053798Y0387021D01*
X0052955Y0387508D01*
X0052014Y038776D01*
D02*
G37*
G36*
X0042014D02*
X0041041D01*
X0040101Y0387508D01*
X0039258Y0387021D01*
X003857Y0386333D01*
X0038083Y038549D01*
X0037831Y038455D01*
Y0383576D01*
X0038083Y0382636D01*
X003857Y0381793D01*
X0039258Y0381105D01*
X0040101Y0380618D01*
X0041041Y0380366D01*
X0042014D01*
X0042955Y0380618D01*
X0043798Y0381105D01*
X0044486Y0381793D01*
X0044973Y0382636D01*
X0045224Y0383576D01*
Y038455D01*
X0044973Y038549D01*
X0044486Y0386333D01*
X0043798Y0387021D01*
X0042955Y0387508D01*
X0042014Y038776D01*
D02*
G37*
G36*
X0032014D02*
X0031041D01*
X0030101Y0387508D01*
X0029258Y0387021D01*
X0028569Y0386333D01*
X0028083Y038549D01*
X0027831Y038455D01*
Y0383576D01*
X0028083Y0382636D01*
X0028569Y0381793D01*
X0029258Y0381105D01*
X0030101Y0380618D01*
X0031041Y0380366D01*
X0032014D01*
X0032955Y0380618D01*
X0033798Y0381105D01*
X0034486Y0381793D01*
X0034973Y0382636D01*
X0035225Y0383576D01*
Y038455D01*
X0034973Y038549D01*
X0034486Y0386333D01*
X0033798Y0387021D01*
X0032955Y0387508D01*
X0032014Y038776D01*
D02*
G37*
G36*
X0102391Y0189638D02*
X0101475D01*
X0100591Y0189401D01*
X0099798Y0188943D01*
X0099151Y0188296D01*
X0098694Y0187503D01*
X0098672Y0187421D01*
X0094024D01*
X0093243Y0187266D01*
X0092582Y0186824D01*
X0090899Y0185141D01*
X0090455Y018526D01*
X0089411D01*
X0088401Y0184989D01*
X0087496Y0184467D01*
X0086757Y0183728D01*
X0086235Y0182823D01*
X0085964Y0181814D01*
Y0180769D01*
X0086235Y017976D01*
X0086757Y0178855D01*
X0087496Y0178116D01*
X0088401Y0177593D01*
X0089411Y0177323D01*
X0090455D01*
X0091465Y0177593D01*
X009237Y0178116D01*
X0093108Y0178855D01*
X0093631Y017976D01*
X0093901Y0180769D01*
Y0181814D01*
X0093783Y0182257D01*
X0094868Y0183343D01*
X0099862D01*
X0100591Y0182922D01*
X0101475Y0182685D01*
X0102391D01*
X0103275Y0182922D01*
X0103601Y018311D01*
X0112771Y017394D01*
X0113432Y0173498D01*
X0114213Y0173343D01*
X0149736D01*
Y0173185D01*
X015713D01*
Y0180579D01*
X0149736D01*
Y0177421D01*
X0115057D01*
X0105245Y0187233D01*
X0105172Y0187503D01*
X0104715Y0188296D01*
X0104068Y0188943D01*
X0103275Y0189401D01*
X0102391Y0189638D01*
D02*
G37*
G36*
X0013433Y0187745D02*
Y0184882D01*
X0016296D01*
X0016081Y0185686D01*
X0015636Y0186456D01*
X0015007Y0187085D01*
X0014237Y018753D01*
X0013433Y0187745D01*
D02*
G37*
G36*
X0012433D02*
X0011629Y018753D01*
X0010859Y0187085D01*
X001023Y0186456D01*
X0009785Y0185686D01*
X000957Y0184882D01*
X0012433D01*
Y0187745D01*
D02*
G37*
G36*
X0297433Y0186382D02*
X0293933D01*
Y0182882D01*
X0293959D01*
X0294977Y0183154D01*
X0295889Y0183681D01*
X0296634Y0184426D01*
X029716Y0185338D01*
X0297433Y0186355D01*
Y0186382D01*
D02*
G37*
G36*
X0292933D02*
X0289433D01*
Y0186355D01*
X0289705Y0185338D01*
X0290232Y0184426D01*
X0290977Y0183681D01*
X0291889Y0183154D01*
X0292906Y0182882D01*
X0292933D01*
Y0186382D01*
D02*
G37*
G36*
X0243959Y0190882D02*
X0242906D01*
X0241889Y0190609D01*
X0240977Y0190083D01*
X0240232Y0189338D01*
X0239705Y0188426D01*
X0239433Y0187408D01*
Y0186355D01*
X0239705Y0185338D01*
X0240232Y0184426D01*
X0240977Y0183681D01*
X0241889Y0183154D01*
X0242906Y0182882D01*
X0243959D01*
X0244977Y0183154D01*
X0245889Y0183681D01*
X0246634Y0184426D01*
X024716Y0185338D01*
X0247433Y0186355D01*
Y0187408D01*
X024716Y0188426D01*
X0246634Y0189338D01*
X0245889Y0190083D01*
X0244977Y0190609D01*
X0243959Y0190882D01*
D02*
G37*
G36*
X023396D02*
X0232906D01*
X0231889Y0190609D01*
X0230977Y0190083D01*
X0230232Y0189338D01*
X0229706Y0188426D01*
X0229433Y0187408D01*
Y0186355D01*
X0229706Y0185338D01*
X0230232Y0184426D01*
X0230977Y0183681D01*
X0231889Y0183154D01*
X0232906Y0182882D01*
X023396D01*
X0234977Y0183154D01*
X0235889Y0183681D01*
X0236634Y0184426D01*
X023716Y0185338D01*
X0237433Y0186355D01*
Y0187408D01*
X023716Y0188426D01*
X0236634Y0189338D01*
X0235889Y0190083D01*
X0234977Y0190609D01*
X023396Y0190882D01*
D02*
G37*
G36*
X0223959D02*
X0222906D01*
X0221889Y0190609D01*
X0220977Y0190083D01*
X0220232Y0189338D01*
X0219706Y0188426D01*
X0219433Y0187408D01*
Y0186355D01*
X0219706Y0185338D01*
X0220232Y0184426D01*
X0220977Y0183681D01*
X0221889Y0183154D01*
X0222906Y0182882D01*
X0223959D01*
X0224977Y0183154D01*
X0225889Y0183681D01*
X0226634Y0184426D01*
X022716Y0185338D01*
X0227433Y0186355D01*
Y0187408D01*
X022716Y0188426D01*
X0226634Y0189338D01*
X0225889Y0190083D01*
X0224977Y0190609D01*
X0223959Y0190882D01*
D02*
G37*
G36*
X0016296Y0183882D02*
X0013433D01*
Y0181019D01*
X0014237Y0181234D01*
X0015007Y0181679D01*
X0015636Y0182308D01*
X0016081Y0183078D01*
X0016296Y0183882D01*
D02*
G37*
G36*
X0012433D02*
X000957D01*
X0009785Y0183078D01*
X001023Y0182308D01*
X0010859Y0181679D01*
X0011629Y0181234D01*
X0012433Y0181019D01*
Y0183882D01*
D02*
G37*
G36*
X0026311Y018776D02*
X0019555D01*
Y0181004D01*
X0026311D01*
Y018776D01*
D02*
G37*
G36*
X006167Y0187858D02*
X0060755D01*
X0059871Y0187621D01*
X0059078Y0187164D01*
X0058431Y0186516D01*
X0057973Y0185724D01*
X0057736Y018484D01*
Y0183924D01*
X0057973Y018304D01*
X0058431Y0182247D01*
X0059078Y01816D01*
X0059871Y0181142D01*
X0060755Y0180905D01*
X006167D01*
X0062554Y0181142D01*
X0063347Y01816D01*
X0063994Y0182247D01*
X0064452Y018304D01*
X0064689Y0183924D01*
Y018484D01*
X0064452Y0185724D01*
X0063994Y0186516D01*
X0063347Y0187164D01*
X0062554Y0187621D01*
X006167Y0187858D01*
D02*
G37*
G36*
X0034111D02*
X0033196D01*
X0032312Y0187621D01*
X0031519Y0187164D01*
X0030872Y0186516D01*
X0030414Y0185724D01*
X0030177Y018484D01*
Y0183924D01*
X0030414Y018304D01*
X0030872Y0182247D01*
X0031519Y01816D01*
X0032312Y0181142D01*
X0033196Y0180905D01*
X0034111D01*
X0034995Y0181142D01*
X0035788Y01816D01*
X0036435Y0182247D01*
X0036893Y018304D01*
X003713Y0183924D01*
Y018484D01*
X0036893Y0185724D01*
X0036435Y0186516D01*
X0035788Y0187164D01*
X0034995Y0187621D01*
X0034111Y0187858D01*
D02*
G37*
G36*
X0293933Y0180575D02*
Y0177382D01*
X0297126D01*
X0296878Y0178309D01*
X0296391Y0179152D01*
X0295703Y017984D01*
X029486Y0180327D01*
X0293933Y0180575D01*
D02*
G37*
G36*
X0292933D02*
X0292006Y0180327D01*
X0291163Y017984D01*
X0290475Y0179152D01*
X0289988Y0178309D01*
X028974Y0177382D01*
X0292933D01*
Y0180575D01*
D02*
G37*
G36*
X0080455Y018526D02*
X007941D01*
X0078401Y0184989D01*
X0077496Y0184467D01*
X0076757Y0183728D01*
X0076235Y0182823D01*
X0075964Y0181814D01*
Y0180769D01*
X0076235Y017976D01*
X0076757Y0178855D01*
X0077496Y0178116D01*
X0078401Y0177593D01*
X007941Y0177323D01*
X0080455D01*
X0081465Y0177593D01*
X008237Y0178116D01*
X0083109Y0178855D01*
X0083631Y017976D01*
X0083901Y0180769D01*
Y0181814D01*
X0083631Y0182823D01*
X0083109Y0183728D01*
X008237Y0184467D01*
X0081465Y0184989D01*
X0080455Y018526D01*
D02*
G37*
G36*
X0297126Y0176382D02*
X0293933D01*
Y0173189D01*
X029486Y0173437D01*
X0295703Y0173924D01*
X0296391Y0174612D01*
X0296878Y0175455D01*
X0297126Y0176382D01*
D02*
G37*
G36*
X0292933D02*
X028974D01*
X0289988Y0175455D01*
X0290475Y0174612D01*
X0291163Y0173924D01*
X0292006Y0173437D01*
X0292933Y0173189D01*
Y0176382D01*
D02*
G37*
G36*
X028392Y0180579D02*
X0282946D01*
X0282006Y0180327D01*
X0281163Y017984D01*
X0280475Y0179152D01*
X0279988Y0178309D01*
X0279736Y0177369D01*
Y0176395D01*
X0279988Y0175455D01*
X0280475Y0174612D01*
X0281163Y0173924D01*
X0282006Y0173437D01*
X0282946Y0173185D01*
X028392D01*
X028486Y0173437D01*
X0285703Y0173924D01*
X0286391Y0174612D01*
X0286878Y0175455D01*
X028713Y0176395D01*
Y0177369D01*
X0286878Y0178309D01*
X0286391Y0179152D01*
X0285703Y017984D01*
X028486Y0180327D01*
X028392Y0180579D01*
D02*
G37*
G36*
X027392D02*
X0272946D01*
X0272006Y0180327D01*
X0271163Y017984D01*
X0270475Y0179152D01*
X0269988Y0178309D01*
X0269736Y0177369D01*
Y0176395D01*
X0269988Y0175455D01*
X0270475Y0174612D01*
X0271163Y0173924D01*
X0272006Y0173437D01*
X0272946Y0173185D01*
X027392D01*
X027486Y0173437D01*
X0275703Y0173924D01*
X0276391Y0174612D01*
X0276878Y0175455D01*
X027713Y0176395D01*
Y0177369D01*
X0276878Y0178309D01*
X0276391Y0179152D01*
X0275703Y017984D01*
X027486Y0180327D01*
X027392Y0180579D01*
D02*
G37*
G36*
X026392D02*
X0262946D01*
X0262006Y0180327D01*
X0261163Y017984D01*
X0260475Y0179152D01*
X0259988Y0178309D01*
X0259736Y0177369D01*
Y0176395D01*
X0259988Y0175455D01*
X0260475Y0174612D01*
X0261163Y0173924D01*
X0262006Y0173437D01*
X0262946Y0173185D01*
X026392D01*
X026486Y0173437D01*
X0265703Y0173924D01*
X0266391Y0174612D01*
X0266878Y0175455D01*
X026713Y0176395D01*
Y0177369D01*
X0266878Y0178309D01*
X0266391Y0179152D01*
X0265703Y017984D01*
X026486Y0180327D01*
X026392Y0180579D01*
D02*
G37*
G36*
X024392D02*
X0242946D01*
X0242006Y0180327D01*
X0241163Y017984D01*
X0240475Y0179152D01*
X0239988Y0178309D01*
X0239736Y0177369D01*
Y0176395D01*
X0239988Y0175455D01*
X0240475Y0174612D01*
X0241163Y0173924D01*
X0242006Y0173437D01*
X0242946Y0173185D01*
X024392D01*
X024486Y0173437D01*
X0245703Y0173924D01*
X0246391Y0174612D01*
X0246878Y0175455D01*
X024713Y0176395D01*
Y0177369D01*
X0246878Y0178309D01*
X0246391Y0179152D01*
X0245703Y017984D01*
X024486Y0180327D01*
X024392Y0180579D01*
D02*
G37*
G36*
X023392D02*
X0232946D01*
X0232006Y0180327D01*
X0231163Y017984D01*
X0230475Y0179152D01*
X0229988Y0178309D01*
X0229736Y0177369D01*
Y0176395D01*
X0229988Y0175455D01*
X0230475Y0174612D01*
X0231163Y0173924D01*
X0232006Y0173437D01*
X0232946Y0173185D01*
X023392D01*
X023486Y0173437D01*
X0235703Y0173924D01*
X0236391Y0174612D01*
X0236878Y0175455D01*
X023713Y0176395D01*
Y0177369D01*
X0236878Y0178309D01*
X0236391Y0179152D01*
X0235703Y017984D01*
X023486Y0180327D01*
X023392Y0180579D01*
D02*
G37*
G36*
X022392D02*
X0222946D01*
X0222006Y0180327D01*
X0221163Y017984D01*
X0220475Y0179152D01*
X0219988Y0178309D01*
X0219736Y0177369D01*
Y0176395D01*
X0219988Y0175455D01*
X0220475Y0174612D01*
X0221163Y0173924D01*
X0222006Y0173437D01*
X0222946Y0173185D01*
X022392D01*
X022486Y0173437D01*
X0225703Y0173924D01*
X0226391Y0174612D01*
X0226878Y0175455D01*
X022713Y0176395D01*
Y0177369D01*
X0226878Y0178309D01*
X0226391Y0179152D01*
X0225703Y017984D01*
X022486Y0180327D01*
X022392Y0180579D01*
D02*
G37*
G36*
X021392D02*
X0212946D01*
X0212006Y0180327D01*
X0211163Y017984D01*
X0210475Y0179152D01*
X0209988Y0178309D01*
X0209736Y0177369D01*
Y0176395D01*
X0209988Y0175455D01*
X0210475Y0174612D01*
X0211163Y0173924D01*
X0212006Y0173437D01*
X0212946Y0173185D01*
X021392D01*
X021486Y0173437D01*
X0215703Y0173924D01*
X0216391Y0174612D01*
X0216878Y0175455D01*
X021713Y0176395D01*
Y0177369D01*
X0216878Y0178309D01*
X0216391Y0179152D01*
X0215703Y017984D01*
X021486Y0180327D01*
X021392Y0180579D01*
D02*
G37*
G36*
X020392D02*
X0202946D01*
X0202006Y0180327D01*
X0201163Y017984D01*
X0200475Y0179152D01*
X0199988Y0178309D01*
X0199736Y0177369D01*
Y0176395D01*
X0199988Y0175455D01*
X0200475Y0174612D01*
X0201163Y0173924D01*
X0202006Y0173437D01*
X0202946Y0173185D01*
X020392D01*
X020486Y0173437D01*
X0205703Y0173924D01*
X0206391Y0174612D01*
X0206878Y0175455D01*
X020713Y0176395D01*
Y0177369D01*
X0206878Y0178309D01*
X0206391Y0179152D01*
X0205703Y017984D01*
X020486Y0180327D01*
X020392Y0180579D01*
D02*
G37*
G36*
X019392D02*
X0192946D01*
X0192006Y0180327D01*
X0191163Y017984D01*
X0190475Y0179152D01*
X0189988Y0178309D01*
X0189736Y0177369D01*
Y0176395D01*
X0189988Y0175455D01*
X0190475Y0174612D01*
X0191163Y0173924D01*
X0192006Y0173437D01*
X0192946Y0173185D01*
X019392D01*
X019486Y0173437D01*
X0195703Y0173924D01*
X0196391Y0174612D01*
X0196878Y0175455D01*
X019713Y0176395D01*
Y0177369D01*
X0196878Y0178309D01*
X0196391Y0179152D01*
X0195703Y017984D01*
X019486Y0180327D01*
X019392Y0180579D01*
D02*
G37*
G36*
X018392D02*
X0182946D01*
X0182006Y0180327D01*
X0181163Y017984D01*
X0180475Y0179152D01*
X0179988Y0178309D01*
X0179736Y0177369D01*
Y0176395D01*
X0179988Y0175455D01*
X0180475Y0174612D01*
X0181163Y0173924D01*
X0182006Y0173437D01*
X0182946Y0173185D01*
X018392D01*
X018486Y0173437D01*
X0185703Y0173924D01*
X0186391Y0174612D01*
X0186878Y0175455D01*
X018713Y0176395D01*
Y0177369D01*
X0186878Y0178309D01*
X0186391Y0179152D01*
X0185703Y017984D01*
X018486Y0180327D01*
X018392Y0180579D01*
D02*
G37*
G36*
X017392D02*
X0172946D01*
X0172006Y0180327D01*
X0171163Y017984D01*
X0170475Y0179152D01*
X0169988Y0178309D01*
X0169736Y0177369D01*
Y0176395D01*
X0169988Y0175455D01*
X0170475Y0174612D01*
X0171163Y0173924D01*
X0172006Y0173437D01*
X0172946Y0173185D01*
X017392D01*
X017486Y0173437D01*
X0175703Y0173924D01*
X0176391Y0174612D01*
X0176878Y0175455D01*
X017713Y0176395D01*
Y0177369D01*
X0176878Y0178309D01*
X0176391Y0179152D01*
X0175703Y017984D01*
X017486Y0180327D01*
X017392Y0180579D01*
D02*
G37*
G36*
X016392D02*
X0162946D01*
X0162006Y0180327D01*
X0161163Y017984D01*
X0160475Y0179152D01*
X0159988Y0178309D01*
X0159736Y0177369D01*
Y0176395D01*
X0159988Y0175455D01*
X0160475Y0174612D01*
X0161163Y0173924D01*
X0162006Y0173437D01*
X0162946Y0173185D01*
X016392D01*
X016486Y0173437D01*
X0165703Y0173924D01*
X0166391Y0174612D01*
X0166878Y0175455D01*
X016713Y0176395D01*
Y0177369D01*
X0166878Y0178309D01*
X0166391Y0179152D01*
X0165703Y017984D01*
X016486Y0180327D01*
X016392Y0180579D01*
D02*
G37*
G36*
X0013451Y0168245D02*
Y0165382D01*
X0016314D01*
X0016099Y0166186D01*
X0015654Y0166956D01*
X0015025Y0167585D01*
X0014255Y016803D01*
X0013451Y0168245D01*
D02*
G37*
G36*
X0012451D02*
X0011648Y016803D01*
X0010877Y0167585D01*
X0010248Y0166956D01*
X0009804Y0166186D01*
X0009588Y0165382D01*
X0012451D01*
Y0168245D01*
D02*
G37*
G36*
X0173212Y0167347D02*
Y0164382D01*
X0176178D01*
X0175952Y0165224D01*
X0175494Y0166016D01*
X0174847Y0166664D01*
X0174054Y0167121D01*
X0173212Y0167347D01*
D02*
G37*
G36*
X0172212Y0167347D02*
X0171371Y0167121D01*
X0170578Y0166664D01*
X0169931Y0166016D01*
X0169473Y0165224D01*
X0169247Y0164382D01*
X0172212D01*
Y0167347D01*
D02*
G37*
G36*
X0016314Y0164382D02*
X0013451D01*
Y0161519D01*
X0014255Y0161734D01*
X0015025Y0162179D01*
X0015654Y0162808D01*
X0016099Y0163578D01*
X0016314Y0164382D01*
D02*
G37*
G36*
X0012451D02*
X0009588D01*
X0009804Y0163578D01*
X0010248Y0162808D01*
X0010877Y0162179D01*
X0011648Y0161734D01*
X0012451Y0161519D01*
Y0164382D01*
D02*
G37*
G36*
X0026329Y016826D02*
X0019573D01*
Y0161504D01*
X0026329D01*
Y016826D01*
D02*
G37*
G36*
X0034111Y0168358D02*
X0033196D01*
X0032312Y0168121D01*
X0031519Y0167664D01*
X0030872Y0167016D01*
X0030414Y0166224D01*
X0030177Y016534D01*
Y0164424D01*
X0030414Y016354D01*
X0030872Y0162747D01*
X0031519Y01621D01*
X0032312Y0161642D01*
X0033196Y0161406D01*
X0034111D01*
X0034995Y0161642D01*
X0035788Y01621D01*
X0036435Y0162747D01*
X0036893Y016354D01*
X003713Y0164424D01*
Y016534D01*
X0036893Y0166224D01*
X0036435Y0167016D01*
X0035788Y0167664D01*
X0034995Y0168121D01*
X0034111Y0168358D01*
D02*
G37*
G36*
X0172212Y0163382D02*
X0169247D01*
X0169473Y016254D01*
X0169931Y0161747D01*
X0170578Y01611D01*
X0171371Y0160642D01*
X0172212Y0160417D01*
Y0163382D01*
D02*
G37*
G36*
X0176178D02*
X0173212D01*
Y0160417D01*
X0174054Y0160642D01*
X0174847Y01611D01*
X0175494Y0161747D01*
X0175952Y016254D01*
X0176178Y0163382D01*
D02*
G37*
G36*
X0102433Y0162067D02*
Y0159102D01*
X0105398D01*
X0105172Y0159944D01*
X0104715Y0160737D01*
X0104068Y0161384D01*
X0103275Y0161842D01*
X0102433Y0162067D01*
D02*
G37*
G36*
X0101433D02*
X0100591Y0161842D01*
X0099798Y0161384D01*
X0099151Y0160737D01*
X0098694Y0159944D01*
X0098468Y0159102D01*
X0101433D01*
Y0162067D01*
D02*
G37*
G36*
X0090455Y016526D02*
X0089411D01*
X0088401Y0164989D01*
X0087496Y0164467D01*
X0086757Y0163728D01*
X0086235Y0162823D01*
X0085964Y0161814D01*
Y0160769D01*
X0086235Y0159759D01*
X0086757Y0158855D01*
X0087496Y0158116D01*
X0088401Y0157593D01*
X0089411Y0157323D01*
X0090455D01*
X0091465Y0157593D01*
X009237Y0158116D01*
X0093108Y0158855D01*
X0093631Y0159759D01*
X0093901Y0160769D01*
Y0161814D01*
X0093631Y0162823D01*
X0093108Y0163728D01*
X009237Y0164467D01*
X0091465Y0164989D01*
X0090455Y016526D01*
D02*
G37*
G36*
X0069842Y0173931D02*
X0057433D01*
X0056458Y0173737D01*
X005563Y0173184D01*
X0047631Y0165184D01*
X0047078Y0164357D01*
X0046884Y0163382D01*
Y0121882D01*
X0047078Y0120906D01*
X0047631Y012008D01*
X0051631Y0116079D01*
X0052457Y0115527D01*
X0053433Y0115333D01*
X0062433D01*
X0063408Y0115527D01*
X0064235Y0116079D01*
X0075398Y0127242D01*
X0077436D01*
X0077485Y0126742D01*
X0077457Y0126737D01*
X0076631Y0126184D01*
X0076592Y0126146D01*
X007604Y0125319D01*
X0075997Y0125105D01*
X007513Y0124238D01*
X0074578Y0123412D01*
X0074384Y0122436D01*
Y0122382D01*
X0074578Y0121406D01*
X007513Y012058D01*
X0075958Y0120027D01*
X0076933Y0119833D01*
X0077908Y0120027D01*
X0078433Y0120377D01*
X0078957Y0120027D01*
X0079933Y0119833D01*
X0107433D01*
X0108408Y0120027D01*
X0109235Y012058D01*
X0111235Y012258D01*
X0111788Y0123406D01*
X0111835Y0123645D01*
X0112485Y012408D01*
X0112739Y0124333D01*
X0124433D01*
X0125408Y0124527D01*
X0126235Y012508D01*
X0126979Y0125823D01*
X0127797D01*
X013254Y012108D01*
X0133367Y0120527D01*
X0134342Y0120333D01*
X0149023D01*
X0149999Y0120527D01*
X0150826Y012108D01*
X0155569Y0125823D01*
X0156297D01*
X016254Y011958D01*
X0163367Y0119027D01*
X0163899Y0118921D01*
X016385Y0118421D01*
X0073147D01*
X0072366Y0118266D01*
X0071705Y0117824D01*
X0062513Y0108632D01*
X006167Y0108858D01*
X0060755D01*
X0059871Y0108621D01*
X0059078Y0108164D01*
X0058431Y0107516D01*
X0057973Y0106724D01*
X0057736Y010584D01*
Y0104924D01*
X0057973Y010404D01*
X0058431Y0103247D01*
X0059078Y01026D01*
X0059871Y0102142D01*
X0060755Y0101906D01*
X006167D01*
X0062554Y0102142D01*
X0063347Y01026D01*
X0063994Y0103247D01*
X0064452Y010404D01*
X0064689Y0104924D01*
Y010504D01*
X0073991Y0114343D01*
X0230933D01*
X0231713Y0114498D01*
X0232375Y011494D01*
X0237778Y0120343D01*
X0242437D01*
X0242667Y0119945D01*
X0243406Y0119206D01*
X0244311Y0118684D01*
X024532Y0118413D01*
X0246365D01*
X0247374Y0118684D01*
X0248279Y0119206D01*
X0249018Y0119945D01*
X024954Y012085D01*
X0249731Y0121563D01*
X0259096D01*
X0259151Y0121468D01*
X0259798Y0120821D01*
X0260591Y0120363D01*
X0261475Y0120126D01*
X0262391D01*
X0263275Y0120363D01*
X0264068Y0120821D01*
X0264715Y0121468D01*
X0265172Y012226D01*
X0265409Y0123145D01*
Y012406D01*
X0265172Y0124944D01*
X0264715Y0125737D01*
X0264068Y0126384D01*
X0263275Y0126842D01*
X0262391Y0127079D01*
X0261475D01*
X0260591Y0126842D01*
X0259798Y0126384D01*
X0259151Y0125737D01*
X0259096Y0125642D01*
X0248133D01*
X0247374Y012608D01*
X0246365Y012635D01*
X024532D01*
X0244311Y012608D01*
X0243406Y0125557D01*
X0242667Y0124819D01*
X0242437Y0124421D01*
X0236933D01*
X0236153Y0124266D01*
X0235491Y0123824D01*
X0230088Y0118421D01*
X0227919D01*
X0227785Y0118921D01*
X0228279Y0119206D01*
X0229018Y0119945D01*
X022954Y012085D01*
X0229811Y0121859D01*
Y0122904D01*
X022954Y0123914D01*
X0229018Y0124819D01*
X0228279Y0125557D01*
X0227374Y012608D01*
X0226365Y012635D01*
X022532D01*
X0224311Y012608D01*
X0223406Y0125557D01*
X0222667Y0124819D01*
X0222144Y0123914D01*
X0221874Y0122904D01*
Y0121859D01*
X0222144Y012085D01*
X0222667Y0119945D01*
X0223406Y0119206D01*
X02239Y0118921D01*
X0223766Y0118421D01*
X0215335D01*
X0215286Y0118921D01*
X0215818Y0119027D01*
X0216645Y011958D01*
X0225479Y0128413D01*
X0226365D01*
X0227374Y0128684D01*
X0228279Y0129206D01*
X0229018Y0129945D01*
X0229343Y0130508D01*
X0229608D01*
X0230584Y0130702D01*
X023141Y0131255D01*
X0247069Y0146913D01*
X0247955D01*
X0248965Y0147184D01*
X024987Y0147706D01*
X0250608Y0148445D01*
X0251131Y014935D01*
X0251401Y0150359D01*
Y0151404D01*
X0251131Y0152414D01*
X0250608Y0153319D01*
X024987Y0154058D01*
X0248965Y015458D01*
X0247955Y015485D01*
X0246911D01*
X0245901Y015458D01*
X0244996Y0154058D01*
X0244257Y0153319D01*
X0243735Y0152414D01*
X0243464Y0151404D01*
Y0150518D01*
X0228552Y0135606D01*
X0228195D01*
X0227374Y013608D01*
X0226365Y013635D01*
X022532D01*
X0224311Y013608D01*
X0223406Y0135557D01*
X0222667Y0134819D01*
X0222144Y0133914D01*
X0221874Y0132904D01*
Y0132018D01*
X0213787Y0123931D01*
X0181334D01*
X0181178Y0124431D01*
X0181715Y0124968D01*
X0182172Y012576D01*
X0182409Y0126645D01*
Y012756D01*
X0182172Y0128444D01*
X0181715Y0129237D01*
X0181068Y0129884D01*
X0180275Y0130342D01*
X0179391Y0130579D01*
X0178475D01*
X0177591Y0130342D01*
X0176798Y0129884D01*
X0176151Y0129237D01*
X0175694Y0128444D01*
X0175457Y012756D01*
Y0126645D01*
X0175694Y012576D01*
X0176151Y0124968D01*
X0176688Y0124431D01*
X0176532Y0123931D01*
X0165398D01*
X0159901Y0129428D01*
Y0130314D01*
X0159631Y0131323D01*
X0159108Y0132228D01*
X015837Y0132967D01*
X0157465Y0133489D01*
X0156455Y013376D01*
X0155411D01*
X0154401Y0133489D01*
X0153496Y0132967D01*
X0152757Y0132228D01*
X0152235Y0131323D01*
X0151964Y0130314D01*
Y0129428D01*
X0147968Y0125431D01*
X0138424D01*
X0138359Y0125931D01*
X0138965Y0126093D01*
X013987Y0126616D01*
X0140609Y0127355D01*
X0141131Y012826D01*
X0141401Y0129269D01*
Y0130314D01*
X0141131Y0131323D01*
X0140609Y0132228D01*
X013987Y0132967D01*
X0138965Y0133489D01*
X0137955Y013376D01*
X013691D01*
X0135901Y0133489D01*
X0134996Y0132967D01*
X0134257Y0132228D01*
X0133735Y0131323D01*
X0133464Y0130314D01*
Y0129269D01*
X0133735Y012826D01*
X0134257Y0127355D01*
X0134996Y0126616D01*
X0135901Y0126093D01*
X0136507Y0125931D01*
X0136441Y0125431D01*
X0135398D01*
X0131401Y0129428D01*
Y0130314D01*
X0131131Y0131323D01*
X0130608Y0132228D01*
X012987Y0132967D01*
X0128965Y0133489D01*
X0127955Y013376D01*
X012691D01*
X0125901Y0133489D01*
X0124996Y0132967D01*
X012437Y013234D01*
X0074342D01*
X0073367Y0132146D01*
X007254Y0131594D01*
X0064964Y0124017D01*
X0064515Y0124276D01*
X0064689Y0124924D01*
Y012584D01*
X0064452Y0126724D01*
X0063994Y0127516D01*
X0063347Y0128164D01*
X0063252Y0128219D01*
Y0130817D01*
X0067278Y0134843D01*
X0201809D01*
X0207985Y0128666D01*
X0207957Y012856D01*
Y0127645D01*
X0208193Y012676D01*
X0208651Y0125968D01*
X0209298Y0125321D01*
X0210091Y0124863D01*
X0210975Y0124626D01*
X0211891D01*
X0212775Y0124863D01*
X0213567Y0125321D01*
X0214215Y0125968D01*
X0214672Y012676D01*
X0214909Y0127645D01*
Y012856D01*
X0214881Y0128666D01*
X0216375Y013016D01*
X0216817Y0130822D01*
X0216972Y0131602D01*
Y0148037D01*
X0226073Y0157138D01*
X022691Y0156913D01*
X0227955D01*
X0228965Y0157184D01*
X022987Y0157706D01*
X0230609Y0158445D01*
X0231131Y015935D01*
X0231401Y0160359D01*
Y0161404D01*
X0231131Y0162414D01*
X0230609Y0163319D01*
X022987Y0164058D01*
X0228965Y016458D01*
X0227955Y016485D01*
X022691D01*
X0225901Y016458D01*
X0224996Y0164058D01*
X0224257Y0163319D01*
X0223735Y0162414D01*
X0223464Y0161404D01*
Y0160359D01*
X0223478Y016031D01*
X0213491Y0150324D01*
X0213049Y0149662D01*
X0212894Y0148882D01*
Y0132447D01*
X0211997Y013155D01*
X0211891Y0131579D01*
X0210975D01*
X0210869Y013155D01*
X0204095Y0138324D01*
X0203434Y0138766D01*
X0202653Y0138921D01*
X0066433D01*
X0065653Y0138766D01*
X0064991Y0138324D01*
X0059771Y0133103D01*
X0059329Y0132442D01*
X0059173Y0131661D01*
Y0128219D01*
X0059078Y0128164D01*
X0058431Y0127516D01*
X0057973Y0126724D01*
X0057736Y012584D01*
Y0124924D01*
X0057973Y012404D01*
X0058431Y0123247D01*
X0059078Y01226D01*
X0059871Y0122142D01*
X0060755Y0121906D01*
X006167D01*
X0062318Y0122079D01*
X0062577Y0121631D01*
X0061377Y0120431D01*
X0054489D01*
X0051982Y0122938D01*
Y0162326D01*
X0058489Y0168833D01*
X0060594D01*
X006066Y0168333D01*
X0059871Y0168121D01*
X0059078Y0167664D01*
X0058431Y0167016D01*
X0057973Y0166224D01*
X0057736Y016534D01*
Y0164424D01*
X0057973Y016354D01*
X0058431Y0162747D01*
X0059078Y01621D01*
X0059871Y0161642D01*
X0060755Y0161406D01*
X006167D01*
X0061777Y0161434D01*
X0073271Y014994D01*
X0073932Y0149498D01*
X0074713Y0149343D01*
X0112433D01*
X0112433Y0149343D01*
X0113213Y0149498D01*
X0113875Y014994D01*
X0117498Y0153563D01*
X0125029D01*
X0125163Y0153063D01*
X0124996Y0152967D01*
X0124257Y0152228D01*
X0123735Y0151323D01*
X0123464Y0150314D01*
Y0149269D01*
X0123735Y0148259D01*
X0124257Y0147355D01*
X0124996Y0146616D01*
X0125901Y0146093D01*
X012691Y0145823D01*
X0127955D01*
X0128965Y0146093D01*
X012987Y0146616D01*
X0130608Y0147355D01*
X0131131Y0148259D01*
X0131401Y0149269D01*
Y0150314D01*
X0131131Y0151323D01*
X0130608Y0152228D01*
X012987Y0152967D01*
X0129703Y0153063D01*
X0129837Y0153563D01*
X0130777D01*
X0133583Y0150757D01*
X0133464Y0150314D01*
Y0149269D01*
X0133735Y0148259D01*
X0134257Y0147355D01*
X0134996Y0146616D01*
X0135901Y0146093D01*
X013691Y0145823D01*
X0137955D01*
X0138965Y0146093D01*
X013987Y0146616D01*
X0140609Y0147355D01*
X0141131Y0148259D01*
X0141401Y0149269D01*
Y0150314D01*
X0141283Y0150757D01*
X0146595Y015607D01*
X0147037Y0156731D01*
X0147193Y0157512D01*
Y0161045D01*
X0147288Y01611D01*
X0147935Y0161747D01*
X0148393Y016254D01*
X014863Y0163424D01*
Y016434D01*
X0148393Y0165224D01*
X0147935Y0166016D01*
X0147288Y0166664D01*
X0146495Y0167121D01*
X0145611Y0167358D01*
X0144696D01*
X0143812Y0167121D01*
X0143019Y0166664D01*
X0142372Y0166016D01*
X0141914Y0165224D01*
X0141677Y016434D01*
Y0163424D01*
X0141914Y016254D01*
X0142372Y0161747D01*
X0143019Y01611D01*
X0143114Y0161045D01*
Y0158356D01*
X0138399Y0153641D01*
X0137955Y015376D01*
X013691D01*
X0136467Y0153641D01*
X0133064Y0157044D01*
X0132402Y0157486D01*
X0131622Y0157641D01*
X0116653D01*
X0115873Y0157486D01*
X0115211Y0157044D01*
X0111588Y0153421D01*
X0075557D01*
X006466Y0164318D01*
X0064689Y0164424D01*
Y016534D01*
X0064452Y0166224D01*
X0063994Y0167016D01*
X0063347Y0167664D01*
X0062554Y0168121D01*
X0061765Y0168333D01*
X0061831Y0168833D01*
X0068787D01*
X0075964Y0161655D01*
Y0160769D01*
X0076235Y0159759D01*
X0076757Y0158855D01*
X0077496Y0158116D01*
X0078401Y0157593D01*
X007941Y0157323D01*
X0080455D01*
X0081465Y0157593D01*
X008237Y0158116D01*
X0083109Y0158855D01*
X0083631Y0159759D01*
X0083901Y0160769D01*
Y0161814D01*
X0083631Y0162823D01*
X0083109Y0163728D01*
X008237Y0164467D01*
X0081465Y0164989D01*
X0080455Y016526D01*
X0079569D01*
X0071645Y0173184D01*
X0070818Y0173737D01*
X0069842Y0173931D01*
D02*
G37*
G36*
X0247955Y016485D02*
X0246911D01*
X0245901Y016458D01*
X0244996Y0164058D01*
X0244257Y0163319D01*
X0243735Y0162414D01*
X0243464Y0161404D01*
Y0160359D01*
X0243735Y015935D01*
X0244257Y0158445D01*
X0244996Y0157706D01*
X0245901Y0157184D01*
X0246911Y0156913D01*
X0247955D01*
X0248965Y0157184D01*
X024987Y0157706D01*
X0250608Y0158445D01*
X0251131Y015935D01*
X0251401Y0160359D01*
Y0161404D01*
X0251131Y0162414D01*
X0250608Y0163319D01*
X024987Y0164058D01*
X0248965Y016458D01*
X0247955Y016485D01*
D02*
G37*
G36*
X0211933Y0159126D02*
Y0156161D01*
X0214898D01*
X0214672Y0157003D01*
X0214215Y0157796D01*
X0213567Y0158443D01*
X0212775Y0158901D01*
X0211933Y0159126D01*
D02*
G37*
G36*
X0210933D02*
X0210091Y0158901D01*
X0209298Y0158443D01*
X0208651Y0157796D01*
X0208193Y0157003D01*
X0207968Y0156161D01*
X0210933D01*
Y0159126D01*
D02*
G37*
G36*
X0179433Y0158126D02*
Y0155161D01*
X0182398D01*
X0182172Y0156003D01*
X0181715Y0156796D01*
X0181068Y0157443D01*
X0180275Y0157901D01*
X0179433Y0158126D01*
D02*
G37*
G36*
X0178433D02*
X0177591Y0157901D01*
X0176798Y0157443D01*
X0176151Y0156796D01*
X0175694Y0156003D01*
X0175468Y0155161D01*
X0178433D01*
Y0158126D01*
D02*
G37*
G36*
X0105398Y0158102D02*
X0102433D01*
Y0155137D01*
X0103275Y0155363D01*
X0104068Y0155821D01*
X0104715Y0156468D01*
X0105172Y0157261D01*
X0105398Y0158102D01*
D02*
G37*
G36*
X0101433D02*
X0098468D01*
X0098694Y0157261D01*
X0099151Y0156468D01*
X0099798Y0155821D01*
X0100591Y0155363D01*
X0101433Y0155137D01*
Y0158102D01*
D02*
G37*
G36*
X0214898Y0155161D02*
X0211933D01*
Y0152196D01*
X0212775Y0152422D01*
X0213567Y015288D01*
X0214215Y0153527D01*
X0214672Y015432D01*
X0214898Y0155161D01*
D02*
G37*
G36*
X0210933D02*
X0207968D01*
X0208193Y015432D01*
X0208651Y0153527D01*
X0209298Y015288D01*
X0210091Y0152422D01*
X0210933Y0152196D01*
Y0155161D01*
D02*
G37*
G36*
X0262433Y0154627D02*
Y0151661D01*
X0265398D01*
X0265172Y0152503D01*
X0264715Y0153296D01*
X0264068Y0153943D01*
X0263275Y0154401D01*
X0262433Y0154627D01*
D02*
G37*
G36*
X0261433D02*
X0260591Y0154401D01*
X0259798Y0153943D01*
X0259151Y0153296D01*
X0258694Y0152503D01*
X0258468Y0151661D01*
X0261433D01*
Y0154627D01*
D02*
G37*
G36*
X0182398Y0154161D02*
X0179433D01*
Y0151196D01*
X0180275Y0151422D01*
X0181068Y015188D01*
X0181715Y0152527D01*
X0182172Y015332D01*
X0182398Y0154161D01*
D02*
G37*
G36*
X0178433D02*
X0175468D01*
X0175694Y015332D01*
X0176151Y0152527D01*
X0176798Y015188D01*
X0177591Y0151422D01*
X0178433Y0151196D01*
Y0154161D01*
D02*
G37*
G36*
X0265398Y0150661D02*
X0262433D01*
Y0147696D01*
X0263275Y0147922D01*
X0264068Y014838D01*
X0264715Y0149027D01*
X0265172Y014982D01*
X0265398Y0150661D01*
D02*
G37*
G36*
X0261433D02*
X0258468D01*
X0258694Y014982D01*
X0259151Y0149027D01*
X0259798Y014838D01*
X0260591Y0147922D01*
X0261433Y0147696D01*
Y0150661D01*
D02*
G37*
G36*
X0227955Y015485D02*
X022691D01*
X0225901Y015458D01*
X0224996Y0154058D01*
X0224257Y0153319D01*
X0223735Y0152414D01*
X0223464Y0151404D01*
Y0150359D01*
X0223735Y014935D01*
X0224257Y0148445D01*
X0224996Y0147706D01*
X0225901Y0147184D01*
X022691Y0146913D01*
X0227955D01*
X0228965Y0147184D01*
X022987Y0147706D01*
X0230609Y0148445D01*
X0231131Y014935D01*
X0231401Y0150359D01*
Y0151404D01*
X0231131Y0152414D01*
X0230609Y0153319D01*
X022987Y0154058D01*
X0228965Y015458D01*
X0227955Y015485D01*
D02*
G37*
G36*
X0013354Y0148745D02*
Y0145882D01*
X0016217D01*
X0016002Y0146686D01*
X0015557Y0147456D01*
X0014928Y0148085D01*
X0014158Y014853D01*
X0013354Y0148745D01*
D02*
G37*
G36*
X0012354D02*
X001155Y014853D01*
X001078Y0148085D01*
X0010151Y0147456D01*
X0009706Y0146686D01*
X0009491Y0145882D01*
X0012354D01*
Y0148745D01*
D02*
G37*
G36*
X0156455Y015376D02*
X0155411D01*
X0154401Y0153489D01*
X0153496Y0152967D01*
X0152757Y0152228D01*
X0152235Y0151323D01*
X0151964Y0150314D01*
Y0149269D01*
X0152235Y0148259D01*
X0152757Y0147355D01*
X0153496Y0146616D01*
X0154401Y0146093D01*
X0155411Y0145823D01*
X0156455D01*
X0157465Y0146093D01*
X015837Y0146616D01*
X0159108Y0147355D01*
X0159631Y0148259D01*
X0159901Y0149269D01*
Y0150314D01*
X0159631Y0151323D01*
X0159108Y0152228D01*
X015837Y0152967D01*
X0157465Y0153489D01*
X0156455Y015376D01*
D02*
G37*
G36*
X0166455D02*
X016541D01*
X0164401Y0153489D01*
X0163496Y0152967D01*
X0162757Y0152228D01*
X0162235Y0151323D01*
X0161964Y0150314D01*
Y0149269D01*
X0162083Y0148826D01*
X0158179Y0144921D01*
X0064691D01*
X0064689Y0144924D01*
Y014584D01*
X0064452Y0146724D01*
X0063994Y0147516D01*
X0063347Y0148164D01*
X0062554Y0148621D01*
X006167Y0148858D01*
X0060755D01*
X0059871Y0148621D01*
X0059078Y0148164D01*
X0058431Y0147516D01*
X0057973Y0146724D01*
X0057736Y014584D01*
Y0144924D01*
X0057973Y014404D01*
X0058431Y0143247D01*
X0059078Y01426D01*
X0059871Y0142142D01*
X0060755Y0141905D01*
X006167D01*
X0061859Y0141956D01*
X0062376Y014144D01*
X0063037Y0140998D01*
X0063818Y0140843D01*
X0159023D01*
X0159804Y0140998D01*
X0160465Y014144D01*
X0164967Y0145942D01*
X016541Y0145823D01*
X0166455D01*
X0167465Y0146093D01*
X016837Y0146616D01*
X0169108Y0147355D01*
X0169631Y0148259D01*
X0169901Y0149269D01*
Y0150314D01*
X0169631Y0151323D01*
X0169108Y0152228D01*
X016837Y0152967D01*
X0167465Y0153489D01*
X0166455Y015376D01*
D02*
G37*
G36*
X0016217Y0144882D02*
X0013354D01*
Y0142019D01*
X0014158Y0142234D01*
X0014928Y0142679D01*
X0015557Y0143308D01*
X0016002Y0144078D01*
X0016217Y0144882D01*
D02*
G37*
G36*
X0012354D02*
X0009491D01*
X0009706Y0144078D01*
X0010151Y0143308D01*
X001078Y0142679D01*
X001155Y0142234D01*
X0012354Y0142019D01*
Y0144882D01*
D02*
G37*
G36*
X0026232Y014876D02*
X0019476D01*
Y0142004D01*
X0026232D01*
Y014876D01*
D02*
G37*
G36*
X0034111Y0148858D02*
X0033196D01*
X0032312Y0148621D01*
X0031519Y0148164D01*
X0030872Y0147516D01*
X0030414Y0146724D01*
X0030177Y014584D01*
Y0144924D01*
X0030414Y014404D01*
X0030872Y0143247D01*
X0031519Y01426D01*
X0032312Y0142142D01*
X0033196Y0141905D01*
X0034111D01*
X0034995Y0142142D01*
X0035788Y01426D01*
X0036435Y0143247D01*
X0036893Y014404D01*
X003713Y0144924D01*
Y014584D01*
X0036893Y0146724D01*
X0036435Y0147516D01*
X0035788Y0148164D01*
X0034995Y0148621D01*
X0034111Y0148858D01*
D02*
G37*
G36*
X0246365Y013635D02*
X024532D01*
X0244311Y013608D01*
X0243406Y0135557D01*
X0242667Y0134819D01*
X0242144Y0133914D01*
X0241874Y0132904D01*
Y0131859D01*
X0242144Y013085D01*
X0242667Y0129945D01*
X0243406Y0129206D01*
X0244311Y0128684D01*
X024532Y0128413D01*
X0246365D01*
X0247374Y0128684D01*
X0248279Y0129206D01*
X0249018Y0129945D01*
X024954Y013085D01*
X0249811Y0131859D01*
Y0132904D01*
X024954Y0133914D01*
X0249018Y0134819D01*
X0248279Y0135557D01*
X0247374Y013608D01*
X0246365Y013635D01*
D02*
G37*
G36*
X0013373Y0128745D02*
Y0125882D01*
X0016236D01*
X001602Y0126686D01*
X0015576Y0127456D01*
X0014947Y0128085D01*
X0014176Y012853D01*
X0013373Y0128745D01*
D02*
G37*
G36*
X0012373D02*
X0011569Y012853D01*
X0010798Y0128085D01*
X001017Y0127456D01*
X0009725Y0126686D01*
X0009509Y0125882D01*
X0012373D01*
Y0128745D01*
D02*
G37*
G36*
X0166455Y013376D02*
X016541D01*
X0164401Y0133489D01*
X0163496Y0132967D01*
X0162757Y0132228D01*
X0162235Y0131323D01*
X0161964Y0130314D01*
Y0129269D01*
X0162235Y012826D01*
X0162757Y0127355D01*
X0163496Y0126616D01*
X0164401Y0126093D01*
X016541Y0125823D01*
X0166455D01*
X0167465Y0126093D01*
X016837Y0126616D01*
X0169108Y0127355D01*
X0169631Y012826D01*
X0169901Y0129269D01*
Y0130314D01*
X0169631Y0131323D01*
X0169108Y0132228D01*
X016837Y0132967D01*
X0167465Y0133489D01*
X0166455Y013376D01*
D02*
G37*
G36*
X0016236Y0124882D02*
X0013373D01*
Y0122019D01*
X0014176Y0122234D01*
X0014947Y0122679D01*
X0015576Y0123308D01*
X001602Y0124078D01*
X0016236Y0124882D01*
D02*
G37*
G36*
X0012373D02*
X0009509D01*
X0009725Y0124078D01*
X001017Y0123308D01*
X0010798Y0122679D01*
X0011569Y0122234D01*
X0012373Y0122019D01*
Y0124882D01*
D02*
G37*
G36*
X002625Y012876D02*
X0019495D01*
Y0122004D01*
X002625D01*
Y012876D01*
D02*
G37*
G36*
X0034111Y0128858D02*
X0033196D01*
X0032312Y0128621D01*
X0031519Y0128164D01*
X0030872Y0127516D01*
X0030414Y0126724D01*
X0030177Y012584D01*
Y0124924D01*
X0030414Y012404D01*
X0030872Y0123247D01*
X0031519Y01226D01*
X0032312Y0122142D01*
X0033196Y0121906D01*
X0034111D01*
X0034995Y0122142D01*
X0035788Y01226D01*
X0036435Y0123247D01*
X0036893Y012404D01*
X003713Y0124924D01*
Y012584D01*
X0036893Y0126724D01*
X0036435Y0127516D01*
X0035788Y0128164D01*
X0034995Y0128621D01*
X0034111Y0128858D01*
D02*
G37*
G36*
X0013433Y0108745D02*
Y0105882D01*
X0016296D01*
X0016081Y0106686D01*
X0015636Y0107456D01*
X0015007Y0108085D01*
X0014237Y010853D01*
X0013433Y0108745D01*
D02*
G37*
G36*
X0012433D02*
X0011629Y010853D01*
X0010859Y0108085D01*
X001023Y0107456D01*
X0009785Y0106686D01*
X000957Y0105882D01*
X0012433D01*
Y0108745D01*
D02*
G37*
G36*
X0016296Y0104882D02*
X0013433D01*
Y0102019D01*
X0014237Y0102234D01*
X0015007Y0102679D01*
X0015636Y0103308D01*
X0016081Y0104078D01*
X0016296Y0104882D01*
D02*
G37*
G36*
X0012433D02*
X000957D01*
X0009785Y0104078D01*
X001023Y0103308D01*
X0010859Y0102679D01*
X0011629Y0102234D01*
X0012433Y0102019D01*
Y0104882D01*
D02*
G37*
G36*
X0034111Y0108858D02*
X0033196D01*
X0032312Y0108621D01*
X0031519Y0108164D01*
X0030872Y0107516D01*
X0030414Y0106724D01*
X0030177Y010584D01*
Y0104924D01*
X0030414Y010404D01*
X0030872Y0103247D01*
X0031519Y01026D01*
X0032312Y0102142D01*
X0033196Y0101906D01*
X0034111D01*
X0034995Y0102142D01*
X0035788Y01026D01*
X0036435Y0103247D01*
X0036893Y010404D01*
X003713Y0104924D01*
Y010584D01*
X0036893Y0106724D01*
X0036435Y0107516D01*
X0035788Y0108164D01*
X0034995Y0108621D01*
X0034111Y0108858D01*
D02*
G37*
G36*
X025392Y0180579D02*
X0252946D01*
X0252006Y0180327D01*
X0251163Y017984D01*
X0250475Y0179152D01*
X0249988Y0178309D01*
X0249736Y0177369D01*
Y0176395D01*
X0249988Y0175455D01*
X0250475Y0174612D01*
X0251163Y0173924D01*
X0252006Y0173437D01*
X0252253Y0173371D01*
X025264Y0172791D01*
X0266894Y0158537D01*
Y0121727D01*
X0260588Y0115421D01*
X0246933D01*
X0246153Y0115266D01*
X0245491Y0114824D01*
X0243588Y0112921D01*
X0075933D01*
X0075153Y0112766D01*
X0074491Y0112324D01*
X0062588Y0100421D01*
X0056778D01*
X0046875Y0110324D01*
X0046875Y0110324D01*
X0043875Y0113324D01*
X0043213Y0113766D01*
X0042433Y0113921D01*
X0031604D01*
X0030824Y0113766D01*
X0030163Y0113324D01*
X0025869Y010903D01*
X0025869Y010903D01*
X0025688Y010876D01*
X0019555D01*
Y0102004D01*
X0025272D01*
Y0100695D01*
X0017899Y0093322D01*
X0017455Y0093441D01*
X001641D01*
X0015401Y009317D01*
X0014496Y0092648D01*
X0013757Y0091909D01*
X0013235Y0091004D01*
X0012964Y0089995D01*
Y008895D01*
X0013235Y0087941D01*
X0013757Y0087036D01*
X0014496Y0086297D01*
X0015401Y0085774D01*
X001641Y0085504D01*
X0017455D01*
X0018465Y0085774D01*
X001937Y0086297D01*
X0020109Y0087036D01*
X0020631Y0087941D01*
X0020901Y008895D01*
Y0089995D01*
X0020783Y0090438D01*
X0028753Y0098409D01*
X0029195Y009907D01*
X002935Y009985D01*
Y0106744D01*
X0032449Y0109843D01*
X0041588D01*
X0043991Y010744D01*
X0043991Y010744D01*
X0054491Y009694D01*
X0055153Y0096498D01*
X0055933Y0096343D01*
X0063433D01*
X0064213Y0096498D01*
X0064875Y009694D01*
X0076778Y0108843D01*
X0244433D01*
X0245213Y0108998D01*
X0245875Y010944D01*
X0247778Y0111343D01*
X0261433D01*
X0262213Y0111498D01*
X0262875Y011194D01*
X0270375Y011944D01*
X0270817Y0120101D01*
X0270972Y0120882D01*
Y0159382D01*
X0270817Y0160162D01*
X0270375Y0160824D01*
X0256463Y0174736D01*
X0256878Y0175455D01*
X025713Y0176395D01*
Y0177369D01*
X0256878Y0178309D01*
X0256391Y0179152D01*
X0255703Y017984D01*
X025486Y0180327D01*
X025392Y0180579D01*
D02*
G37*
G36*
X011013Y0100579D02*
X0106933D01*
Y0097382D01*
X011013D01*
Y0100579D01*
D02*
G37*
G36*
X0105933D02*
X0102736D01*
Y0097382D01*
X0105933D01*
Y0100579D01*
D02*
G37*
G36*
X011692D02*
X0115946D01*
X0115006Y0100327D01*
X0114163Y009984D01*
X0113475Y0099152D01*
X0112988Y0098309D01*
X0112736Y0097369D01*
Y0096395D01*
X0112805Y0096138D01*
X0110592Y0093924D01*
X011013Y0094116D01*
Y0096382D01*
X0106933D01*
Y0093185D01*
X0109199D01*
X010939Y0092723D01*
X0108588Y0091921D01*
X0075433D01*
X0074653Y0091766D01*
X0073991Y0091324D01*
X0060991Y0078324D01*
X0060549Y0077662D01*
X0060394Y0076882D01*
X0060394Y0076882D01*
Y0056882D01*
X0060549Y0056102D01*
X0060991Y005544D01*
X0070894Y0045537D01*
Y0040994D01*
X0070301Y0040401D01*
X0069868Y0039651D01*
X0069644Y0038815D01*
Y0037949D01*
X0069868Y0037112D01*
X0070301Y0036362D01*
X0070913Y003575D01*
X0071663Y0035317D01*
X00725Y0035093D01*
X0073366D01*
X0074202Y0035317D01*
X0074952Y003575D01*
X0075565Y0036362D01*
X0075998Y0037112D01*
X0076222Y0037949D01*
Y0038815D01*
X0075998Y0039651D01*
X0075565Y0040401D01*
X0074972Y0040994D01*
Y0046382D01*
X0074817Y0047162D01*
X0074375Y0047824D01*
X0064472Y0057727D01*
Y0076037D01*
X0076278Y0087843D01*
X0109433D01*
X0110213Y0087998D01*
X0110875Y008844D01*
X0110875Y008844D01*
X0115689Y0093254D01*
X0115946Y0093185D01*
X011692D01*
X011786Y0093437D01*
X0118703Y0093924D01*
X0119391Y0094612D01*
X0119878Y0095455D01*
X012013Y0096395D01*
Y0097369D01*
X0119878Y0098309D01*
X0119391Y0099152D01*
X0118703Y009984D01*
X011786Y0100327D01*
X011692Y0100579D01*
D02*
G37*
G36*
X0158433Y0107012D02*
X0080433D01*
X0079618Y010685D01*
X0078927Y0106388D01*
X0064551Y0092012D01*
X0063433D01*
X0063282Y0091982D01*
X0063015D01*
X0062769Y009188D01*
X0062618Y009185D01*
X006249Y0091764D01*
X0062243Y0091662D01*
X0062055Y0091474D01*
X0061927Y0091388D01*
X0061841Y009126D01*
X0061653Y0091071D01*
X0061551Y0090825D01*
X0061465Y0090697D01*
X0061435Y0090546D01*
X0061333Y00903D01*
Y0090033D01*
X0061303Y0089882D01*
X0061333Y0089731D01*
Y0089464D01*
X0061435Y0089218D01*
X0061465Y0089067D01*
X0061551Y0088938D01*
X0061653Y0088692D01*
X0061841Y0088504D01*
X0061927Y0088376D01*
X0062055Y008829D01*
X0062243Y0088102D01*
X006249Y0088D01*
X0062618Y0087914D01*
X0062769Y0087884D01*
X0063015Y0087782D01*
X0063282D01*
X0063433Y0087752D01*
X0065433D01*
X0066248Y0087914D01*
X0066939Y0088376D01*
X0081315Y0102752D01*
X0157551D01*
X0162778Y0097525D01*
X0162736Y0097369D01*
Y0096395D01*
X0162988Y0095455D01*
X0163475Y0094612D01*
X0164163Y0093924D01*
X0165006Y0093437D01*
X0165946Y0093185D01*
X016692D01*
X016786Y0093437D01*
X0168703Y0093924D01*
X0169391Y0094612D01*
X0169878Y0095455D01*
X017013Y0096395D01*
Y0097369D01*
X0169878Y0098309D01*
X0169391Y0099152D01*
X0168703Y009984D01*
X016786Y0100327D01*
X016692Y0100579D01*
X0165946D01*
X016579Y0100537D01*
X0159939Y0106388D01*
X0159248Y010685D01*
X0158433Y0107012D01*
D02*
G37*
G36*
X012692Y0100579D02*
X0125946D01*
X0125006Y0100327D01*
X0124163Y009984D01*
X0123475Y0099152D01*
X0122988Y0098309D01*
X0122736Y0097369D01*
Y0096395D01*
X0122988Y0095455D01*
X0123475Y0094612D01*
X0124163Y0093924D01*
X0125006Y0093437D01*
X0125946Y0093185D01*
X012692D01*
X012786Y0093437D01*
X0128703Y0093924D01*
X0129391Y0094612D01*
X0129878Y0095455D01*
X013013Y0096395D01*
Y0097369D01*
X0129878Y0098309D01*
X0129391Y0099152D01*
X0128703Y009984D01*
X012786Y0100327D01*
X012692Y0100579D01*
D02*
G37*
G36*
X0105933Y0096382D02*
X0102736D01*
Y0093185D01*
X0105933D01*
Y0096382D01*
D02*
G37*
G36*
X0007455Y0093441D02*
X000641D01*
X0005401Y009317D01*
X0004496Y0092648D01*
X0003757Y0091909D01*
X0003235Y0091004D01*
X0002964Y0089995D01*
Y008895D01*
X0003235Y0087941D01*
X0003757Y0087036D01*
X0004496Y0086297D01*
X0005401Y0085774D01*
X000641Y0085504D01*
X0007455D01*
X0008465Y0085774D01*
X000937Y0086297D01*
X0010108Y0087036D01*
X0010631Y0087941D01*
X0010901Y008895D01*
Y0089995D01*
X0010631Y0091004D01*
X0010108Y0091909D01*
X000937Y0092648D01*
X0008465Y009317D01*
X0007455Y0093441D01*
D02*
G37*
G36*
X0104351Y0084982D02*
X0103515D01*
X0103368Y0084921D01*
X0079497D01*
X0079351Y0084982D01*
X0078515D01*
X0077743Y0084662D01*
X0077153Y0084071D01*
X0076833Y00833D01*
Y0082464D01*
X0077153Y0081692D01*
X0077743Y0081102D01*
X0078515Y0080782D01*
X0079351D01*
X0079497Y0080843D01*
X0103368D01*
X0103515Y0080782D01*
X0104351D01*
X0105122Y0081102D01*
X0105713Y0081692D01*
X0106033Y0082464D01*
Y00833D01*
X0105713Y0084071D01*
X0105122Y0084662D01*
X0104351Y0084982D01*
D02*
G37*
G36*
X003796Y0083382D02*
X0037933D01*
Y0079882D01*
X0041433D01*
Y0079909D01*
X004116Y0080926D01*
X0040634Y0081838D01*
X0039889Y0082583D01*
X0038977Y0083109D01*
X003796Y0083382D01*
D02*
G37*
G36*
X0036933D02*
X0036906D01*
X0035889Y0083109D01*
X0034977Y0082583D01*
X0034232Y0081838D01*
X0033705Y0080926D01*
X0033433Y0079909D01*
Y0079882D01*
X0036933D01*
Y0083382D01*
D02*
G37*
G36*
X0041433Y0078882D02*
X0037933D01*
Y0075382D01*
X003796D01*
X0038977Y0075655D01*
X0039889Y0076181D01*
X0040634Y0076926D01*
X004116Y0077838D01*
X0041433Y0078855D01*
Y0078882D01*
D02*
G37*
G36*
X0036933D02*
X0033433D01*
Y0078855D01*
X0033705Y0077838D01*
X0034232Y0076926D01*
X0034977Y0076181D01*
X0035889Y0075655D01*
X0036906Y0075382D01*
X0036933D01*
Y0078882D01*
D02*
G37*
G36*
X0007455Y0073441D02*
X0007433D01*
Y0069972D01*
X0010901D01*
Y0069995D01*
X0010631Y0071004D01*
X0010108Y0071909D01*
X000937Y0072648D01*
X0008465Y0073171D01*
X0007455Y0073441D01*
D02*
G37*
G36*
X0006433D02*
X000641D01*
X0005401Y0073171D01*
X0004496Y0072648D01*
X0003757Y0071909D01*
X0003235Y0071004D01*
X0002964Y0069995D01*
Y0069972D01*
X0006433D01*
Y0073441D01*
D02*
G37*
G36*
X013692Y0100579D02*
X0135946D01*
X0135006Y0100327D01*
X0134163Y009984D01*
X0133475Y0099152D01*
X0132988Y0098309D01*
X0132736Y0097369D01*
Y0096395D01*
X0132988Y0095455D01*
X0133475Y0094612D01*
X0133563Y0094524D01*
X0113927Y0074888D01*
X0113927Y0074888D01*
X0113157Y0074118D01*
X0113122Y0074066D01*
X0112475Y0073224D01*
X0112045Y0072185D01*
X0111899Y0071071D01*
X0112045Y0069957D01*
X011162Y0069677D01*
X0111159Y0070139D01*
X0111159Y0070139D01*
X0111097Y007018D01*
X0110283Y0070805D01*
X0109266Y0071226D01*
X0108175Y0071369D01*
X0107085Y0071226D01*
X0106068Y0070805D01*
X0105253Y0070179D01*
X0105192Y0070139D01*
X0105192D01*
X0105151Y0070077D01*
X0104526Y0069262D01*
X0104105Y0068246D01*
X0103961Y0067155D01*
X0104105Y0066064D01*
X0104526Y0065048D01*
X0105151Y0064233D01*
X0105192Y0064172D01*
X0105654Y006371D01*
X0105373Y0063285D01*
X0104259Y0063432D01*
X0103145Y0063285D01*
X0102107Y0062855D01*
X0101264Y0062208D01*
X0101212Y0062174D01*
X0097927Y0058888D01*
X0097927Y0058888D01*
X0097051Y0058012D01*
X0090433D01*
X0090282Y0057982D01*
X0090015D01*
X0089769Y005788D01*
X0089618Y005785D01*
X008949Y0057764D01*
X0089243Y0057662D01*
X0089055Y0057474D01*
X0088927Y0057388D01*
X0088841Y005726D01*
X0088653Y0057071D01*
X0088551Y0056825D01*
X0088465Y0056697D01*
X0088435Y0056546D01*
X0088333Y00563D01*
Y0056033D01*
X0088303Y0055882D01*
X0088333Y0055731D01*
Y0055464D01*
X0088435Y0055218D01*
X0088465Y0055067D01*
X0088551Y0054939D01*
X0088653Y0054692D01*
X0088841Y0054504D01*
X0088927Y0054376D01*
X0089055Y005429D01*
X0089243Y0054102D01*
X008949Y0054D01*
X0089618Y0053914D01*
X0089769Y0053884D01*
X0090015Y0053782D01*
X0090282D01*
X0090433Y0053752D01*
X0097933D01*
X0098748Y0053914D01*
X0099439Y0054376D01*
X0100939Y0055876D01*
X0100939Y0055876D01*
X0103919Y0058856D01*
X0104598D01*
X0107768Y0055686D01*
X010783Y0055645D01*
X0108644Y005502D01*
X0109661Y0054599D01*
X0110752Y0054455D01*
X0111842Y0054599D01*
X0112859Y005502D01*
X0113674Y0055645D01*
X0113735Y0055686D01*
Y0055686D01*
X0113776Y0055748D01*
X0114401Y0056563D01*
X0114822Y0057579D01*
X0114966Y005867D01*
X0114822Y005976D01*
X0114564Y0060383D01*
X0114947Y0060766D01*
X011557Y0060508D01*
X0116661Y0060364D01*
X0117751Y0060508D01*
X0118768Y0060929D01*
X0119583Y0061554D01*
X0119644Y0061595D01*
Y0061595D01*
X0119685Y0061657D01*
X012031Y0062472D01*
X0120731Y0063488D01*
X0120875Y0064579D01*
X0120731Y006567D01*
X012031Y0066686D01*
X0119685Y0067501D01*
X0119644Y0067562D01*
X0119644Y0067562D01*
X0116169Y0071037D01*
X0116169Y0071037D01*
X0116173Y0071041D01*
X0116161Y0071071D01*
X0116173Y0071101D01*
X0116169Y0071105D01*
X0116939Y0071876D01*
X0116939Y0071876D01*
X0137324Y009226D01*
X0137786Y0092952D01*
X0137885Y0093451D01*
X0138703Y0093924D01*
X0139391Y0094612D01*
X0139878Y0095455D01*
X014013Y0096395D01*
Y0097369D01*
X0139878Y0098309D01*
X0139391Y0099152D01*
X0138703Y009984D01*
X013786Y0100327D01*
X013692Y0100579D01*
D02*
G37*
G36*
X0079351Y0076982D02*
X0078515D01*
X0077743Y0076662D01*
X0077153Y0076071D01*
X0076833Y00753D01*
Y0074464D01*
X0077153Y0073692D01*
X0077743Y0073102D01*
X0078515Y0072782D01*
X0079351D01*
X0079497Y0072843D01*
X0095588D01*
X0098592Y0069839D01*
X0098653Y0069692D01*
X0099243Y0069102D01*
X0100015Y0068782D01*
X0100851D01*
X0101622Y0069102D01*
X0102213Y0069692D01*
X0102533Y0070464D01*
Y00713D01*
X0102213Y0072071D01*
X0101622Y0072662D01*
X0101476Y0072723D01*
X0097875Y0076324D01*
X0097213Y0076766D01*
X0096433Y0076921D01*
X0079497D01*
X0079351Y0076982D01*
D02*
G37*
G36*
X0017455Y0073441D02*
X001641D01*
X0015401Y0073171D01*
X0014496Y0072648D01*
X0013757Y0071909D01*
X0013235Y0071004D01*
X0012964Y0069995D01*
Y006895D01*
X0013235Y0067941D01*
X0013757Y0067036D01*
X0014496Y0066297D01*
X0015401Y0065774D01*
X001641Y0065504D01*
X0017455D01*
X0018465Y0065774D01*
X001937Y0066297D01*
X0020109Y0067036D01*
X0020631Y0067941D01*
X0020901Y006895D01*
Y0069995D01*
X0020631Y0071004D01*
X0020109Y0071909D01*
X001937Y0072648D01*
X0018465Y0073171D01*
X0017455Y0073441D01*
D02*
G37*
G36*
X0010901Y0068972D02*
X0007433D01*
Y0065504D01*
X0007455D01*
X0008465Y0065774D01*
X000937Y0066297D01*
X0010108Y0067036D01*
X0010631Y0067941D01*
X0010901Y006895D01*
Y0068972D01*
D02*
G37*
G36*
X0006433D02*
X0002964D01*
Y006895D01*
X0003235Y0067941D01*
X0003757Y0067036D01*
X0004496Y0066297D01*
X0005401Y0065774D01*
X000641Y0065504D01*
X0006433D01*
Y0068972D01*
D02*
G37*
G36*
X003796Y0073382D02*
X0036906D01*
X0035889Y0073109D01*
X0034977Y0072583D01*
X0034232Y0071838D01*
X0033705Y0070926D01*
X0033433Y0069908D01*
Y0068855D01*
X0033705Y0067838D01*
X0034232Y0066926D01*
X0034977Y0066181D01*
X0035889Y0065654D01*
X0036906Y0065382D01*
X003796D01*
X0038977Y0065654D01*
X0039889Y0066181D01*
X0040634Y0066926D01*
X004116Y0067838D01*
X0041433Y0068855D01*
Y0069908D01*
X004116Y0070926D01*
X0040634Y0071838D01*
X0039889Y0072583D01*
X0038977Y0073109D01*
X003796Y0073382D01*
D02*
G37*
G36*
Y0063382D02*
X0036906D01*
X0035889Y0063109D01*
X0034977Y0062583D01*
X0034232Y0061838D01*
X0033705Y0060926D01*
X0033433Y0059908D01*
Y0058855D01*
X0033705Y0057838D01*
X0034232Y0056926D01*
X0034977Y0056181D01*
X0035889Y0055655D01*
X0036906Y0055382D01*
X003796D01*
X0038977Y0055655D01*
X0039889Y0056181D01*
X0040634Y0056926D01*
X004116Y0057838D01*
X0041433Y0058855D01*
Y0059908D01*
X004116Y0060926D01*
X0040634Y0061838D01*
X0039889Y0062583D01*
X0038977Y0063109D01*
X003796Y0063382D01*
D02*
G37*
G36*
X0007455Y0062441D02*
X000641D01*
X0005401Y006217D01*
X0004496Y0061648D01*
X0003757Y0060909D01*
X0003235Y0060004D01*
X0002964Y0058995D01*
Y005795D01*
X0003235Y0056941D01*
X0003757Y0056036D01*
X0004496Y0055297D01*
X0005401Y0054774D01*
X000641Y0054504D01*
X0007455D01*
X0008465Y0054774D01*
X000937Y0055297D01*
X0010108Y0056036D01*
X0010631Y0056941D01*
X0010901Y005795D01*
Y0058995D01*
X0010631Y0060004D01*
X0010108Y0060909D01*
X000937Y0061648D01*
X0008465Y006217D01*
X0007455Y0062441D01*
D02*
G37*
G36*
X014692Y0100579D02*
X0145946D01*
X0145006Y0100327D01*
X0144163Y009984D01*
X0143475Y0099152D01*
X0142988Y0098309D01*
X0142736Y0097369D01*
Y0096395D01*
X0142988Y0095455D01*
X0143475Y0094612D01*
X0144163Y0093924D01*
X0144303Y0093843D01*
Y0078264D01*
X0115551Y0049512D01*
X0090815D01*
X0074439Y0065888D01*
X0074311Y0065974D01*
X0074123Y0066162D01*
X0073876Y0066264D01*
X0073748Y006635D01*
X0073597Y006638D01*
X0073351Y0066482D01*
X0073084D01*
X0072933Y0066512D01*
X0072782Y0066482D01*
X0072515D01*
X0072269Y006638D01*
X0072118Y006635D01*
X007199Y0066264D01*
X0071743Y0066162D01*
X0071555Y0065974D01*
X0071427Y0065888D01*
X0071341Y006576D01*
X0071153Y0065571D01*
X0071051Y0065325D01*
X0070965Y0065197D01*
X0070935Y0065046D01*
X0070833Y00648D01*
Y0064533D01*
X0070803Y0064382D01*
X0070833Y0064231D01*
Y0063964D01*
X0070935Y0063718D01*
X0070965Y0063567D01*
X0071051Y0063438D01*
X0071153Y0063192D01*
X0071341Y0063004D01*
X0071427Y0062876D01*
X0088427Y0045876D01*
X0089118Y0045414D01*
X0089933Y0045252D01*
X0116433D01*
X0117248Y0045414D01*
X0117939Y0045876D01*
X0147939Y0075876D01*
X0148401Y0076567D01*
X0148563Y0077382D01*
Y0093843D01*
X0148703Y0093924D01*
X0149391Y0094612D01*
X0149878Y0095455D01*
X015013Y0096395D01*
Y0097369D01*
X0149878Y0098309D01*
X0149391Y0099152D01*
X0148703Y009984D01*
X014786Y0100327D01*
X014692Y0100579D01*
D02*
G37*
G36*
X003796Y0053382D02*
X0036906D01*
X0035889Y0053109D01*
X0034977Y0052583D01*
X0034232Y0051838D01*
X0033705Y0050926D01*
X0033433Y0049909D01*
Y0048855D01*
X0033705Y0047838D01*
X0034232Y0046926D01*
X0034977Y0046181D01*
X0035889Y0045654D01*
X0036906Y0045382D01*
X003796D01*
X0038977Y0045654D01*
X0039889Y0046181D01*
X0040634Y0046926D01*
X004116Y0047838D01*
X0041433Y0048855D01*
Y0049909D01*
X004116Y0050926D01*
X0040634Y0051838D01*
X0039889Y0052583D01*
X0038977Y0053109D01*
X003796Y0053382D01*
D02*
G37*
G36*
X0007455Y0042441D02*
X0007433D01*
Y0038972D01*
X0010901D01*
Y0038995D01*
X0010631Y0040004D01*
X0010108Y0040909D01*
X000937Y0041648D01*
X0008465Y0042171D01*
X0007455Y0042441D01*
D02*
G37*
G36*
X0006433D02*
X000641D01*
X0005401Y0042171D01*
X0004496Y0041648D01*
X0003757Y0040909D01*
X0003235Y0040004D01*
X0002964Y0038995D01*
Y0038972D01*
X0006433D01*
Y0042441D01*
D02*
G37*
G36*
X003796Y0043382D02*
X0036906D01*
X0035889Y0043109D01*
X0034977Y0042583D01*
X0034232Y0041838D01*
X0033705Y0040926D01*
X0033433Y0039908D01*
Y0038855D01*
X0033705Y0037838D01*
X0034232Y0036926D01*
X0034977Y0036181D01*
X0035889Y0035655D01*
X0036906Y0035382D01*
X003796D01*
X0038977Y0035655D01*
X0039889Y0036181D01*
X0040634Y0036926D01*
X004116Y0037838D01*
X0041433Y0038855D01*
Y0039908D01*
X004116Y0040926D01*
X0040634Y0041838D01*
X0039889Y0042583D01*
X0038977Y0043109D01*
X003796Y0043382D01*
D02*
G37*
G36*
X0063366Y0041671D02*
X00625D01*
X0061664Y0041447D01*
X0060913Y0041014D01*
X0060301Y0040401D01*
X0059868Y0039651D01*
X0059644Y0038815D01*
Y0037949D01*
X0059868Y0037112D01*
X0060301Y0036362D01*
X0060913Y003575D01*
X0061664Y0035317D01*
X00625Y0035093D01*
X0063366D01*
X0064202Y0035317D01*
X0064952Y003575D01*
X0065565Y0036362D01*
X0065998Y0037112D01*
X0066222Y0037949D01*
Y0038815D01*
X0065998Y0039651D01*
X0065565Y0040401D01*
X0064952Y0041014D01*
X0064202Y0041447D01*
X0063366Y0041671D01*
D02*
G37*
G36*
X0017455Y0042441D02*
X001641D01*
X0015401Y0042171D01*
X0014496Y0041648D01*
X0013757Y0040909D01*
X0013235Y0040004D01*
X0012964Y0038995D01*
Y003795D01*
X0013235Y0036941D01*
X0013757Y0036036D01*
X0014496Y0035297D01*
X0015401Y0034774D01*
X001641Y0034504D01*
X0017455D01*
X0018465Y0034774D01*
X001937Y0035297D01*
X0020109Y0036036D01*
X0020631Y0036941D01*
X0020901Y003795D01*
Y0038995D01*
X0020631Y0040004D01*
X0020109Y0040909D01*
X001937Y0041648D01*
X0018465Y0042171D01*
X0017455Y0042441D01*
D02*
G37*
G36*
X0010901Y0037972D02*
X0007433D01*
Y0034504D01*
X0007455D01*
X0008465Y0034774D01*
X000937Y0035297D01*
X0010108Y0036036D01*
X0010631Y0036941D01*
X0010901Y003795D01*
Y0037972D01*
D02*
G37*
G36*
X0006433D02*
X0002964D01*
Y003795D01*
X0003235Y0036941D01*
X0003757Y0036036D01*
X0004496Y0035297D01*
X0005401Y0034774D01*
X000641Y0034504D01*
X0006433D01*
Y0037972D01*
D02*
G37*
G36*
X017692Y0100579D02*
X0175946D01*
X0175006Y0100327D01*
X0174163Y009984D01*
X0173475Y0099152D01*
X0172988Y0098309D01*
X0172736Y0097369D01*
Y0096395D01*
X0172988Y0095455D01*
X0173475Y0094612D01*
X0174163Y0093924D01*
X0175006Y0093437D01*
X0175946Y0093185D01*
X017692D01*
X0177571Y009336D01*
X0185592Y0085339D01*
X0185653Y0085192D01*
X0186243Y0084602D01*
X018639Y0084541D01*
X0222894Y0048037D01*
Y0035446D01*
X0222833Y00353D01*
Y0034464D01*
X0223153Y0033692D01*
X0223743Y0033102D01*
X0224515Y0032782D01*
X0225351D01*
X0226122Y0033102D01*
X0226713Y0033692D01*
X0227033Y0034464D01*
Y00353D01*
X0226972Y0035446D01*
Y0048882D01*
X0226817Y0049662D01*
X0226375Y0050324D01*
X0189274Y0087425D01*
X0189213Y0087571D01*
X0188622Y0088162D01*
X0188476Y0088223D01*
X018013Y0096569D01*
Y0097369D01*
X0179878Y0098309D01*
X0179391Y0099152D01*
X0178703Y009984D01*
X017786Y0100327D01*
X017692Y0100579D01*
D02*
G37*
G36*
X003796Y0093382D02*
X0036906D01*
X0035889Y0093109D01*
X0034977Y0092583D01*
X0034232Y0091838D01*
X0033705Y0090926D01*
X0033433Y0089908D01*
Y0088855D01*
X0033705Y0087838D01*
X0034232Y0086926D01*
X0034977Y0086181D01*
X0035889Y0085654D01*
X0036906Y0085382D01*
X003796D01*
X0038425Y0085506D01*
X0044394Y0079537D01*
Y0037382D01*
X0044549Y0036601D01*
X0044991Y003594D01*
X0052991Y002794D01*
X0053653Y0027498D01*
X0054433Y0027343D01*
X0073933D01*
X0074713Y0027498D01*
X0075375Y002794D01*
X0082528Y0035093D01*
X0086222D01*
Y0041671D01*
X0079644D01*
Y0037977D01*
X0073088Y0031421D01*
X0055278D01*
X0048472Y0038227D01*
Y0080382D01*
X0048317Y0081162D01*
X0047875Y0081824D01*
X0041308Y008839D01*
X0041433Y0088855D01*
Y0089908D01*
X004116Y0090926D01*
X0040634Y0091838D01*
X0039889Y0092583D01*
X0038977Y0093109D01*
X003796Y0093382D01*
D02*
G37*
G36*
X015692Y0100579D02*
X0155946D01*
X0155006Y0100327D01*
X0154163Y009984D01*
X0153475Y0099152D01*
X0152988Y0098309D01*
X0152736Y0097369D01*
Y0096395D01*
X0152988Y0095455D01*
X0153475Y0094612D01*
X0154163Y0093924D01*
X0154394Y009379D01*
Y0076227D01*
X0147588Y0069421D01*
X0145998D01*
X0145851Y0069482D01*
X0145015D01*
X0144243Y0069162D01*
X0143653Y0068571D01*
X0143333Y00678D01*
Y0066964D01*
X0143653Y0066192D01*
X0144243Y0065602D01*
X0145015Y0065282D01*
X0145851D01*
X0145998Y0065343D01*
X0148433D01*
X0149213Y0065498D01*
X0149875Y006594D01*
X0157875Y007394D01*
X0158317Y0074602D01*
X0158472Y0075382D01*
Y0091306D01*
X0158934Y0091497D01*
X0166491Y008394D01*
X0167153Y0083498D01*
X0167933Y0083343D01*
X0177088D01*
X0212394Y0048037D01*
Y0035382D01*
X0212549Y0034602D01*
X0212991Y003394D01*
X0218592Y0028339D01*
X0218653Y0028192D01*
X0219243Y0027602D01*
X0220015Y0027282D01*
X0220851D01*
X0221622Y0027602D01*
X0222213Y0028192D01*
X0222533Y0028964D01*
Y00298D01*
X0222213Y0030571D01*
X0221622Y0031162D01*
X0221476Y0031223D01*
X0216472Y0036226D01*
Y0048882D01*
X0216317Y0049662D01*
X0215875Y0050324D01*
X0179375Y0086824D01*
X0179375Y0086824D01*
X0178713Y0087266D01*
X0177933Y0087421D01*
X0177933Y0087421D01*
X0168778D01*
X0160061Y0096138D01*
X016013Y0096395D01*
Y0097369D01*
X0159878Y0098309D01*
X0159391Y0099152D01*
X0158703Y009984D01*
X015786Y0100327D01*
X015692Y0100579D01*
D02*
G37*
G36*
X003796Y0033382D02*
X0036906D01*
X0035889Y0033109D01*
X0034977Y0032583D01*
X0034232Y0031838D01*
X0033705Y0030926D01*
X0033433Y0029908D01*
Y0028855D01*
X0033705Y0027838D01*
X0034232Y0026926D01*
X0034977Y0026181D01*
X0035889Y0025655D01*
X0036906Y0025382D01*
X003796D01*
X0038977Y0025655D01*
X0039889Y0026181D01*
X0040634Y0026926D01*
X004116Y0027838D01*
X0041433Y0028855D01*
Y0029908D01*
X004116Y0030926D01*
X0040634Y0031838D01*
X0039889Y0032583D01*
X0038977Y0033109D01*
X003796Y0033382D01*
D02*
G37*
G36*
X0206433Y0027931D02*
X0205457Y0027737D01*
X020463Y0027184D01*
X0204377Y0026931D01*
X020294D01*
X0201964Y0026737D01*
X0201137Y0026184D01*
X0198884Y0023931D01*
X016313D01*
Y0025079D01*
X0155736D01*
Y0017685D01*
X016313D01*
Y0018833D01*
X0185556D01*
X0185655Y0018333D01*
X0185243Y0018162D01*
X0184653Y0017571D01*
X0184337Y0016809D01*
X0182694Y0015166D01*
X0122672D01*
X011534Y0022498D01*
X0115533Y0022964D01*
Y00238D01*
X0115213Y0024571D01*
X0114622Y0025162D01*
X0113851Y0025482D01*
X0113015D01*
X0112243Y0025162D01*
X0111653Y0024571D01*
X0111333Y00238D01*
Y0022964D01*
X0111653Y0022192D01*
X0111767Y0022077D01*
Y0021763D01*
X0111903Y002108D01*
X011229Y0020501D01*
X011229Y0020501D01*
X0120671Y001212D01*
X012125Y0011733D01*
X0121933Y0011598D01*
X0183433D01*
X0184116Y0011733D01*
X0184695Y001212D01*
X018686Y0014286D01*
X0187622Y0014602D01*
X0188213Y0015192D01*
X0188533Y0015964D01*
Y00168D01*
X0188213Y0017571D01*
X0187622Y0018162D01*
X018721Y0018333D01*
X018731Y0018833D01*
X019994D01*
X0200915Y0019027D01*
X0201742Y0019579D01*
X0203996Y0021833D01*
X0205433D01*
X0206408Y0022027D01*
X0207235Y002258D01*
X0208235Y002358D01*
X0208788Y0024406D01*
X0208982Y0025382D01*
X0208788Y0026357D01*
X0208235Y0027184D01*
X0207408Y0027737D01*
X0206433Y0027931D01*
D02*
G37*
G36*
X0017455Y003135D02*
X001641D01*
X0015401Y003108D01*
X0014496Y0030558D01*
X0013757Y0029819D01*
X0013235Y0028914D01*
X0012964Y0027904D01*
Y0026859D01*
X0013235Y002585D01*
X0013757Y0024945D01*
X0014496Y0024206D01*
X0015401Y0023684D01*
X001641Y0023413D01*
X0017455D01*
X0018465Y0023684D01*
X001937Y0024206D01*
X0020109Y0024945D01*
X0020631Y002585D01*
X0020901Y0026859D01*
Y0027904D01*
X0020631Y0028914D01*
X0020109Y0029819D01*
X001937Y0030558D01*
X0018465Y003108D01*
X0017455Y003135D01*
D02*
G37*
G36*
X0007455D02*
X000641D01*
X0005401Y003108D01*
X0004496Y0030558D01*
X0003757Y0029819D01*
X0003235Y0028914D01*
X0002964Y0027904D01*
Y0026859D01*
X0003235Y002585D01*
X0003757Y0024945D01*
X0004496Y0024206D01*
X0005401Y0023684D01*
X000641Y0023413D01*
X0007455D01*
X0008465Y0023684D01*
X000937Y0024206D01*
X0010108Y0024945D01*
X0010631Y002585D01*
X0010901Y0026859D01*
Y0027904D01*
X0010631Y0028914D01*
X0010108Y0029819D01*
X000937Y0030558D01*
X0008465Y003108D01*
X0007455Y003135D01*
D02*
G37*
G36*
X0149933Y0025075D02*
Y0021882D01*
X0153126D01*
X0152878Y0022809D01*
X0152391Y0023652D01*
X0151703Y002434D01*
X015086Y0024827D01*
X0149933Y0025075D01*
D02*
G37*
G36*
X0148933Y0025075D02*
X0148006Y0024827D01*
X0147163Y002434D01*
X0146475Y0023652D01*
X0145988Y0022809D01*
X014574Y0021882D01*
X0148933D01*
Y0025075D01*
D02*
G37*
G36*
X0153126Y0020882D02*
X0149933D01*
Y0017689D01*
X015086Y0017937D01*
X0151703Y0018424D01*
X0152391Y0019112D01*
X0152878Y0019955D01*
X0153126Y0020882D01*
D02*
G37*
G36*
X0148933D02*
X014574D01*
X0145988Y0019955D01*
X0146475Y0019112D01*
X0147163Y0018424D01*
X0148006Y0017937D01*
X0148933Y0017689D01*
Y0020882D01*
D02*
G37*
G36*
X013992Y0025079D02*
X0138946D01*
X0138006Y0024827D01*
X0137163Y002434D01*
X0136475Y0023652D01*
X0135988Y0022809D01*
X0135736Y0021869D01*
Y0020895D01*
X0135988Y0019955D01*
X0136475Y0019112D01*
X0137163Y0018424D01*
X0138006Y0017937D01*
X0138946Y0017685D01*
X013992D01*
X014086Y0017937D01*
X0141703Y0018424D01*
X0142391Y0019112D01*
X0142878Y0019955D01*
X014313Y0020895D01*
Y0021869D01*
X0142878Y0022809D01*
X0142391Y0023652D01*
X0141703Y002434D01*
X014086Y0024827D01*
X013992Y0025079D01*
D02*
G37*
G36*
X012992D02*
X0128946D01*
X0128006Y0024827D01*
X0127163Y002434D01*
X0126475Y0023652D01*
X0125988Y0022809D01*
X0125736Y0021869D01*
Y0020895D01*
X0125988Y0019955D01*
X0126475Y0019112D01*
X0127163Y0018424D01*
X0128006Y0017937D01*
X0128946Y0017685D01*
X012992D01*
X013086Y0017937D01*
X0131703Y0018424D01*
X0132391Y0019112D01*
X0132878Y0019955D01*
X013313Y0020895D01*
Y0021869D01*
X0132878Y0022809D01*
X0132391Y0023652D01*
X0131703Y002434D01*
X013086Y0024827D01*
X012992Y0025079D01*
D02*
G37*
G36*
X0205433Y0018948D02*
Y0017382D01*
X0206999D01*
X0206713Y0018071D01*
X0206122Y0018662D01*
X0205433Y0018948D01*
D02*
G37*
G36*
X0204433D02*
X0203743Y0018662D01*
X0203153Y0018071D01*
X0202867Y0017382D01*
X0204433D01*
Y0018948D01*
D02*
G37*
G36*
X003796Y0023382D02*
X0036906D01*
X0035889Y0023109D01*
X0034977Y0022583D01*
X0034232Y0021838D01*
X0033705Y0020926D01*
X0033433Y0019908D01*
Y0018855D01*
X0033705Y0017838D01*
X0034232Y0016926D01*
X0034977Y0016181D01*
X0035889Y0015654D01*
X0036906Y0015382D01*
X003796D01*
X0038977Y0015654D01*
X0039889Y0016181D01*
X0040634Y0016926D01*
X004116Y0017838D01*
X0041433Y0018855D01*
Y0019908D01*
X004116Y0020926D01*
X0040634Y0021838D01*
X0039889Y0022583D01*
X0038977Y0023109D01*
X003796Y0023382D01*
D02*
G37*
G36*
X0206999Y0016382D02*
X0205433D01*
Y0014816D01*
X0206122Y0015102D01*
X0206713Y0015692D01*
X0206999Y0016382D01*
D02*
G37*
G36*
X0204433D02*
X0202867D01*
X0203153Y0015692D01*
X0203743Y0015102D01*
X0204433Y0014816D01*
Y0016382D01*
D02*
G37*
G36*
X0007455Y001135D02*
X0007433D01*
Y0007882D01*
X0010901D01*
Y0007904D01*
X0010631Y0008914D01*
X0010108Y0009819D01*
X000937Y0010558D01*
X0008465Y001108D01*
X0007455Y001135D01*
D02*
G37*
G36*
X0006433D02*
X000641D01*
X0005401Y001108D01*
X0004496Y0010558D01*
X0003757Y0009819D01*
X0003235Y0008914D01*
X0002964Y0007904D01*
Y0007882D01*
X0006433D01*
Y001135D01*
D02*
G37*
G36*
X0017455D02*
X001641D01*
X0015401Y001108D01*
X0014496Y0010558D01*
X0013757Y0009819D01*
X0013235Y0008914D01*
X0012964Y0007904D01*
Y0006859D01*
X0013235Y000585D01*
X0013757Y0004945D01*
X0014496Y0004206D01*
X0015401Y0003684D01*
X001641Y0003413D01*
X0017455D01*
X0018465Y0003684D01*
X001937Y0004206D01*
X0020109Y0004945D01*
X0020631Y000585D01*
X0020901Y0006859D01*
Y0007904D01*
X0020631Y0008914D01*
X0020109Y0009819D01*
X001937Y0010558D01*
X0018465Y001108D01*
X0017455Y001135D01*
D02*
G37*
G36*
X0010901Y0006882D02*
X0007433D01*
Y0003413D01*
X0007455D01*
X0008465Y0003684D01*
X000937Y0004206D01*
X0010108Y0004945D01*
X0010631Y000585D01*
X0010901Y0006859D01*
Y0006882D01*
D02*
G37*
G36*
X0006433D02*
X0002964D01*
Y0006859D01*
X0003235Y000585D01*
X0003757Y0004945D01*
X0004496Y0004206D01*
X0005401Y0003684D01*
X000641Y0003413D01*
X0006433D01*
Y0006882D01*
D02*
G37*
G36*
X0293933Y0010575D02*
Y0007382D01*
X0297126D01*
X0296878Y0008309D01*
X0296391Y0009152D01*
X0295703Y000984D01*
X029486Y0010327D01*
X0293933Y0010575D01*
D02*
G37*
G36*
X0292933D02*
X0292006Y0010327D01*
X0291163Y000984D01*
X0290475Y0009152D01*
X0289988Y0008309D01*
X028974Y0007382D01*
X0292933D01*
Y0010575D01*
D02*
G37*
G36*
X0297126Y0006382D02*
X0293933D01*
Y0003189D01*
X029486Y0003437D01*
X0295703Y0003924D01*
X0296391Y0004612D01*
X0296878Y0005455D01*
X0297126Y0006382D01*
D02*
G37*
G36*
X0292933D02*
X028974D01*
X0289988Y0005455D01*
X0290475Y0004612D01*
X0291163Y0003924D01*
X0292006Y0003437D01*
X0292933Y0003189D01*
Y0006382D01*
D02*
G37*
G36*
X028392Y0010579D02*
X0282946D01*
X0282006Y0010327D01*
X0281163Y000984D01*
X0280475Y0009152D01*
X0279988Y0008309D01*
X0279736Y0007369D01*
Y0006395D01*
X0279988Y0005455D01*
X0280475Y0004612D01*
X0281163Y0003924D01*
X0282006Y0003437D01*
X0282946Y0003185D01*
X028392D01*
X028486Y0003437D01*
X0285703Y0003924D01*
X0286391Y0004612D01*
X0286878Y0005455D01*
X028713Y0006395D01*
Y0007369D01*
X0286878Y0008309D01*
X0286391Y0009152D01*
X0285703Y000984D01*
X028486Y0010327D01*
X028392Y0010579D01*
D02*
G37*
G36*
X027392D02*
X0272946D01*
X0272006Y0010327D01*
X0271163Y000984D01*
X0270475Y0009152D01*
X0269988Y0008309D01*
X0269736Y0007369D01*
Y0006395D01*
X0269988Y0005455D01*
X0270475Y0004612D01*
X0271163Y0003924D01*
X0272006Y0003437D01*
X0272946Y0003185D01*
X027392D01*
X027486Y0003437D01*
X0275703Y0003924D01*
X0276391Y0004612D01*
X0276878Y0005455D01*
X027713Y0006395D01*
Y0007369D01*
X0276878Y0008309D01*
X0276391Y0009152D01*
X0275703Y000984D01*
X027486Y0010327D01*
X027392Y0010579D01*
D02*
G37*
G36*
X026392D02*
X0262946D01*
X0262006Y0010327D01*
X0261163Y000984D01*
X0260475Y0009152D01*
X0259988Y0008309D01*
X0259736Y0007369D01*
Y0006395D01*
X0259988Y0005455D01*
X0260475Y0004612D01*
X0261163Y0003924D01*
X0262006Y0003437D01*
X0262946Y0003185D01*
X026392D01*
X026486Y0003437D01*
X0265703Y0003924D01*
X0266391Y0004612D01*
X0266878Y0005455D01*
X026713Y0006395D01*
Y0007369D01*
X0266878Y0008309D01*
X0266391Y0009152D01*
X0265703Y000984D01*
X026486Y0010327D01*
X026392Y0010579D01*
D02*
G37*
G36*
X025392D02*
X0252946D01*
X0252006Y0010327D01*
X0251163Y000984D01*
X0250475Y0009152D01*
X0249988Y0008309D01*
X0249736Y0007369D01*
Y0006395D01*
X0249988Y0005455D01*
X0250475Y0004612D01*
X0251163Y0003924D01*
X0252006Y0003437D01*
X0252946Y0003185D01*
X025392D01*
X025486Y0003437D01*
X0255703Y0003924D01*
X0256391Y0004612D01*
X0256878Y0005455D01*
X025713Y0006395D01*
Y0007369D01*
X0256878Y0008309D01*
X0256391Y0009152D01*
X0255703Y000984D01*
X025486Y0010327D01*
X025392Y0010579D01*
D02*
G37*
G36*
X024713D02*
X0239736D01*
Y0003185D01*
X024713D01*
Y0010579D01*
D02*
G37*
%LPD*%
D10*
X0209161Y0330277D02*
G03*
X0212242Y0330277I000154J000154D01*
G01*
X0205686Y0333752D02*
G03*
X0202732Y0333752I-0001477J-0001477D01*
G01*
X0202732Y0333752D02*
G03*
X0202732Y0330798I0001477J-0001477D01*
G01*
X0208263Y0322313D02*
G03*
X0208263Y0325267I-0001477J0001477D01*
G01*
X0205308Y0322313D02*
G03*
X0208263Y0322313I0001477J0001477D01*
G01*
X0199777Y0327843D02*
G03*
X0196823Y0327843I-0001477J-0001477D01*
G01*
X0196823Y0327843D02*
G03*
X0196823Y0324889I0001477J-0001477D01*
G01*
X0200298Y0318333D02*
G03*
X0200298Y0321414I-000154J000154D01*
G01*
X015183Y0352063D02*
G03*
X0149652Y0349885I0J-0002178D01*
G01*
X0147563Y0346063D02*
G03*
X0149652Y0348152I0J0002089D01*
G01*
X0145474D02*
G03*
X0147563Y0346063I0002089J0D01*
G01*
X0145474Y0355974D02*
G03*
X0143384Y0358063I-0002089J0D01*
G01*
X0143384D02*
G03*
X0141295Y0355974I0J-0002089D01*
G01*
X0139117Y0352063D02*
G03*
X0141295Y0354241I0J0002178D01*
G01*
X0234528Y0286063D02*
X0249528Y0301063D01*
X0156528Y0286063D02*
X0234528D01*
X0148528Y0294063D02*
X0156528Y0286063D01*
X0249528Y0301063D02*
X0251528D01*
X0113528Y0340563D02*
X0125028Y0352063D01*
X0225028Y0343563D02*
X0242028Y0326563D01*
X0198528Y0343563D02*
X0225028D01*
X0179143Y0297178D02*
X0199528Y0317563D01*
X0212242Y0330277D02*
X0215528Y0333563D01*
X0205686Y0333752D02*
X0209161Y0330277D01*
X0205686Y0333752D02*
X0205686Y0333752D01*
X0202732Y0333752D02*
X0202732Y0333752D01*
X0202732Y0330798D02*
X0202732Y0330798D01*
X0208263Y0325267D01*
X0208263Y0325267D02*
X0208263Y0325267D01*
X0208263Y0322313D02*
X0208263Y0322313D01*
X0205308Y0322313D02*
X0205308Y0322313D01*
X0199777Y0327843D02*
X0205308Y0322313D01*
X0199777Y0327843D02*
X0199777Y0327843D01*
X0196823Y0327843D02*
X0196823Y0327843D01*
X0196823Y0324889D02*
X0196823Y0324889D01*
X0200298Y0321414D01*
X0200298Y0321414D02*
X0200298Y0321414D01*
X0199528Y0317563D02*
X0200298Y0318333D01*
X0215528Y0333563D02*
X0217028Y0335063D01*
X0178528Y0294063D02*
X0179143Y0294678D01*
X0217028Y0335063D02*
X0224528D01*
X0179143Y0294678D02*
Y0297178D01*
X015183Y0352063D02*
X0156028D01*
X0149652Y0348152D02*
Y0349885D01*
X0147563Y0346063D02*
X0147563D01*
X0145474Y0348152D02*
Y0355974D01*
X0143384Y0358063D02*
X0143384D01*
X0141295Y0354241D02*
Y0355974D01*
X0138028Y0352063D02*
X0139117D01*
X0156028D02*
X0198028D01*
X0125028D02*
X0138028D01*
X0198028D02*
X0215028Y0369063D01*
X0168528Y0313563D02*
X0198528Y0343563D01*
X0168528Y0294063D02*
Y0313563D01*
X0215028Y0369063D02*
X0265028D01*
X0277528Y0381563D01*
X0164938Y0198974D02*
X0175528Y0209563D01*
X0106617Y0198974D02*
X0164938D01*
X0101528Y0204063D02*
X0106617Y0198974D01*
X0105799Y0060668D02*
G03*
X0102719Y0060668I-000154J-000154D01*
G01*
X0109274Y0057192D02*
G03*
X0112229Y0057192I0001477J0001477D01*
G01*
X0112229Y0057192D02*
G03*
X0112229Y0060147I-0001477J0001477D01*
G01*
X0106698Y0068632D02*
G03*
X0106698Y0065678I0001477J-0001477D01*
G01*
X0109653Y0068632D02*
G03*
X0106698Y0068632I-0001477J-0001477D01*
G01*
X0115183Y0063102D02*
G03*
X0118138Y0063102I0001477J0001477D01*
G01*
X0118138Y0063102D02*
G03*
X0118138Y0066056I-0001477J0001477D01*
G01*
X0114663Y0072612D02*
G03*
X0114663Y0069531I000154J-000154D01*
G01*
X016313Y0038882D02*
G03*
X0165309Y004106I0J0002178D01*
G01*
X0167398Y0044882D02*
G03*
X0165309Y0042793I0J-0002089D01*
G01*
X0169487D02*
G03*
X0167398Y0044882I-0002089J0D01*
G01*
X0169487Y0034971D02*
G03*
X0171576Y0032882I0002089J0D01*
G01*
X0171576D02*
G03*
X0173665Y0034971I0J0002089D01*
G01*
X0175844Y0038882D02*
G03*
X0173665Y0036704I0J-0002178D01*
G01*
X0080433Y0104882D02*
X0065433Y0089882D01*
X0158433Y0104882D02*
X0080433D01*
X0166433Y0096882D02*
X0158433Y0104882D01*
X0065433Y0089882D02*
X0063433D01*
X0201433Y0050382D02*
X0189933Y0038882D01*
X0089933Y0047382D02*
X0072933Y0064382D01*
X0116433Y0047382D02*
X0089933D01*
X0135818Y0093767D02*
X0115433Y0073382D01*
X0102719Y0060668D02*
X0099433Y0057382D01*
X0109274Y0057192D02*
X0105799Y0060668D01*
X0109274Y0057192D02*
X0109274Y0057192D01*
X0112229Y0057192D02*
X0112229Y0057192D01*
X0112229Y0060147D02*
X0112229Y0060147D01*
X0106698Y0065678D01*
X0106698Y0065678D02*
X0106698Y0065678D01*
X0106698Y0068632D02*
X0106698Y0068632D01*
X0109653Y0068632D02*
X0109653Y0068632D01*
X0115183Y0063102D02*
X0109653Y0068632D01*
X0115183Y0063102D02*
X0115183Y0063102D01*
X0118138Y0063102D02*
X0118138Y0063102D01*
X0118138Y0066056D02*
X0118138Y0066056D01*
X0114663Y0069531D01*
X0114663Y0069531D02*
X0114663Y0069531D01*
X0115433Y0073382D02*
X0114663Y0072612D01*
X0099433Y0057382D02*
X0097933Y0055882D01*
X0136433Y0096882D02*
X0135818Y0096267D01*
X0097933Y0055882D02*
X0090433D01*
X0135818Y0096267D02*
Y0093767D01*
X016313Y0038882D02*
X0158933D01*
X0165309Y0042793D02*
Y004106D01*
X0167398Y0044882D02*
X0167398D01*
X0169487Y0042793D02*
Y0034971D01*
X0171576Y0032882D02*
X0171576D01*
X0173665Y0036704D02*
Y0034971D01*
X0176933Y0038882D02*
X0175844D01*
X0158933D02*
X0116933D01*
X0189933D02*
X0176933D01*
X0116933D02*
X0099933Y0021882D01*
X0146433Y0077382D02*
X0116433Y0047382D01*
X0146433Y0096882D02*
Y0077382D01*
X0099933Y0021882D02*
X0049933D01*
X0037433Y0009382D01*
X0150022Y0191971D02*
X0139433Y0181382D01*
X0208344Y0191971D02*
X0150022D01*
X0213433Y0186882D02*
X0208344Y0191971D01*
D11*
X0108612Y0365647D02*
X0109528Y0366563D01*
X0108528Y0365563D02*
X0108612Y0365647D01*
X0115021Y0369563D02*
X0155528D01*
X0112021Y0366563D02*
X0115021Y0369563D01*
X0109528Y0366563D02*
X0112021D01*
X0200368Y0261154D02*
X020756D01*
X020802Y0263678D01*
Y0265063D01*
X0205528D02*
X020802D01*
X020756Y0261154D02*
X0240618D01*
X0187618D02*
X0190528Y0264063D01*
X0187528Y0261154D02*
X0187618D01*
X0203278Y0264063D02*
X0204278Y0265063D01*
X0200368Y0261154D02*
X0203278Y0264063D01*
X0204278Y0265063D02*
X0205528D01*
X0190528Y0264063D02*
X0203278D01*
X0187618Y0261154D02*
X0200368D01*
X0211063Y0267442D02*
X0211528Y0268563D01*
X020902Y026607D02*
X0210028Y0265063D01*
X0206535Y026607D02*
X020902D01*
X0205528Y0266563D02*
X0207528Y0268563D01*
X0235028D01*
X0210028Y0266406D02*
X0211063Y0267442D01*
X0205528Y0265063D02*
Y0266563D01*
X0235028Y0268563D02*
X0236528Y0267063D01*
X0238028Y0268563D01*
X0235028Y0268509D02*
X0236489Y0267047D01*
Y0266601D02*
X0236528Y0266563D01*
X0236489Y0266601D02*
Y0267047D01*
X0235028Y0268509D02*
Y0268563D01*
X0236566Y0267047D02*
X0238028Y0268509D01*
X0236566Y0266601D02*
Y0267047D01*
X0236528Y0266563D02*
X0236566Y0266601D01*
X0238028Y0268509D02*
Y0268563D01*
X0252528Y0273063D02*
X0261528D01*
X0240618Y0261154D02*
X0252528Y0273063D01*
X0261528D02*
X0265528Y0269063D01*
Y0227563D02*
Y0269063D01*
X0257528Y0219563D02*
X0265528Y0227563D01*
X0088443Y0257888D02*
X0100118Y0269563D01*
X0150618D01*
X0245118Y0219563D02*
X0257528D01*
X0235028Y0229654D02*
X0245118Y0219563D01*
X0067528Y0240063D02*
X0068172Y0239419D01*
X0085353Y0257888D02*
X0088443D01*
X0067528Y0240063D02*
X0085353Y0257888D01*
X0159028Y0261154D02*
X0165937Y0268063D01*
X0150618Y0269563D02*
X0159028Y0261154D01*
X0180618Y0268063D02*
X0187528Y0261154D01*
X0165937Y0268063D02*
X0180618D01*
X0206349Y0025298D02*
X0205433Y0024382D01*
X0206433Y0025382D02*
X0206349Y0025298D01*
X019994Y0021382D02*
X0159433D01*
X020294Y0024382D02*
X019994Y0021382D01*
X0205433Y0024382D02*
X020294D01*
X0114592Y0129791D02*
X01074D01*
X010694Y0127267D01*
Y0125882D01*
X0109433D02*
X010694D01*
X01074Y0129791D02*
X0074342D01*
X0127342D02*
X0124433Y0126882D01*
X0127433Y0129791D02*
X0127342D01*
X0111683Y0126882D02*
X0110683Y0125882D01*
X0114592Y0129791D02*
X0111683Y0126882D01*
X0110683Y0125882D02*
X0109433D01*
X0124433Y0126882D02*
X0111683D01*
X0127342Y0129791D02*
X0114592D01*
X0103897Y0123503D02*
X0103433Y0122382D01*
X010594Y0124874D02*
X0104933Y0125882D01*
X0108426Y0124874D02*
X010594D01*
X0109433Y0124382D02*
X0107433Y0122382D01*
X0079933D01*
X0104933Y0124539D02*
X0103897Y0123503D01*
X0109433Y0125882D02*
Y0124382D01*
X0079933Y0122382D02*
X0078433Y0123882D01*
X0076933Y0122382D01*
X0079933Y0122436D02*
X0078471Y0123898D01*
Y0124344D02*
X0078433Y0124382D01*
X0078471Y0124344D02*
Y0123898D01*
X0079933Y0122436D02*
Y0122382D01*
X0078395Y0123898D02*
X0076933Y0122436D01*
X0078395Y0124344D02*
Y0123898D01*
X0078433Y0124382D02*
X0078395Y0124344D01*
X0076933Y0122436D02*
Y0122382D01*
X0062433Y0117882D02*
X0053433D01*
X0074342Y0129791D02*
X0062433Y0117882D01*
X0053433D02*
X0049433Y0121882D01*
Y0163382D02*
Y0121882D01*
X0057433Y0171382D02*
X0049433Y0163382D01*
X0226518Y0133057D02*
X0214842Y0121382D01*
X0164342D01*
X0069842Y0171382D02*
X0057433D01*
X0079933Y0161291D02*
X0069842Y0171382D01*
X0247433Y0150882D02*
X0246789Y0151526D01*
X0229608Y0133057D02*
X0226518D01*
X0247433Y0150882D02*
X0229608Y0133057D01*
X0155933Y0129791D02*
X0149023Y0122882D01*
X0164342Y0121382D02*
X0155933Y0129791D01*
X0134342Y0122882D02*
X0127433Y0129791D01*
X0149023Y0122882D02*
X0134342D01*
D12*
X0260528Y0361563D02*
X0268528Y0353563D01*
Y0310563D02*
Y0353563D01*
Y0310563D02*
X0277528Y0301563D01*
X0100528Y0342063D02*
Y0355563D01*
X0094528Y0361563D02*
X0100528Y0355563D01*
Y0342063D02*
X0137028Y0305563D01*
X0090028Y0342063D02*
X0127566Y0304525D01*
X0090028Y0342063D02*
Y0356063D01*
X0096528Y0374063D02*
X0110028D01*
X0026028Y0218563D02*
Y0303563D01*
X0096528Y0374063D01*
X0020028Y0224563D02*
Y0309063D01*
X0098028Y0387063D02*
X0203528D01*
X0020028Y0309063D02*
X0098028Y0387063D01*
X0215028Y0375563D02*
X0257028D01*
X0203528Y0387063D02*
X0215028Y0375563D01*
X0253748Y0259283D02*
Y0265563D01*
X0248528Y0254063D02*
X0253748Y0259283D01*
X0112307Y0254063D02*
X0248528D01*
X0303028Y0326972D02*
X0308528Y0321472D01*
X0212278Y0231592D02*
X0221807Y0222063D01*
X0142248Y0227063D02*
X0148248Y0221063D01*
X01364Y0232911D02*
X0142248Y0227063D01*
X0242028Y0344563D02*
Y0352563D01*
X0252528Y0314063D02*
Y0334063D01*
X0242028Y0344563D02*
X0252528Y0334063D01*
X0239528Y0301063D02*
X0252528Y0314063D01*
X0205528Y0301063D02*
X0239528D01*
X0198528Y0294063D02*
X0205528Y0301063D01*
X0211028Y0308063D02*
X0236028D01*
X0241028Y0361563D02*
X0260528D01*
X0232028Y0352563D02*
X0241028Y0361563D01*
X0158528Y0315563D02*
X0166528Y0323563D01*
X0158528Y0294063D02*
Y0315563D01*
X0166528Y0323563D02*
X0169528D01*
X0218528Y0316063D02*
X0236028D01*
X0214528Y0320063D02*
X0218528Y0316063D01*
X0138028Y0294063D02*
X0138528D01*
X0127566Y0304525D02*
X0138028Y0294063D01*
X0137028Y0305563D02*
X0147028D01*
X0158528Y0294063D01*
X0103528Y0262842D02*
X0112307Y0254063D01*
X0251528Y0292563D02*
X0259028D01*
X0070528Y0280063D02*
X0239028D01*
X0251528Y0292563D01*
X0068028Y0277563D02*
X0070528Y0280063D01*
X0078028Y0268563D02*
X0084028Y0274563D01*
X0241814D02*
X0252814Y0285563D01*
X0084028Y0274563D02*
X0241814D01*
X0161528Y0214063D02*
X0163028Y0215563D01*
X0200748D02*
X0211528Y0204784D01*
X0163028Y0215563D02*
X0200748D01*
X0100028Y0259343D02*
X0103528Y0262842D01*
X0100028Y0242063D02*
Y0259343D01*
X0298118Y0311563D02*
X0307274Y0320719D01*
X0280173Y0311563D02*
X0298118D01*
X0284028Y0388063D02*
X0291028Y0381063D01*
X0269528Y0388063D02*
X0284028D01*
X0257028Y0375563D02*
X0269528Y0388063D01*
X0195248Y0221063D02*
X0205748Y0231563D01*
X0211528D01*
X0212307Y0232343D01*
X0213028D01*
X0136028Y0236283D02*
X01364Y0235911D01*
Y0232911D02*
Y0235911D01*
X0169807Y0227063D02*
Y0233433D01*
X0177528Y0241154D01*
X0148248Y0221063D02*
X0195248D01*
X0198307Y0235343D02*
X0202528Y0239563D01*
X0177528Y0241154D02*
X0183339Y0235343D01*
X0198307D01*
X0241528Y0213563D02*
X0295028D01*
X0233028Y0222063D02*
X0241528Y0213563D01*
X0221807Y0222063D02*
X0233028D01*
X0295028Y0213563D02*
X0302028Y0206563D01*
X00873Y0229335D02*
X0100028Y0242063D01*
X0097807Y0223563D02*
X0109528Y0235283D01*
X0063028Y0223563D02*
X0097807D01*
X0053028Y0233563D02*
Y0239784D01*
Y0233563D02*
X0063028Y0223563D01*
X0134229Y0235283D02*
X0135229Y0236283D01*
X0136028D01*
X0109528Y0235283D02*
X0134229D01*
X0291028Y0346563D02*
Y0381063D01*
X0298028Y0332472D02*
Y0339563D01*
X0291028Y0346563D02*
X0298028Y0339563D01*
X0269528Y0282063D02*
X0272528Y0279063D01*
X0283356D02*
X028765Y0283357D01*
X0272528Y0279063D02*
X0283356D01*
X0259028Y0292563D02*
X0269528Y0282063D01*
Y0282063D02*
Y0282063D01*
X028765Y0291094D02*
X0298028Y0301472D01*
X028765Y0283357D02*
Y0291094D01*
X0046028Y0270063D02*
X0053528Y0277563D01*
X0068028D01*
X0069118Y0268563D02*
X0078028D01*
X0046028Y0231563D02*
Y0270063D01*
Y0231563D02*
X0060878Y0216712D01*
Y0214712D02*
X0061528Y0214063D01*
X0060878Y0214712D02*
Y0216712D01*
X0303028Y0305063D02*
X0307274Y030931D01*
X0303028Y028807D02*
Y0305063D01*
X0307274Y030931D02*
Y0320719D01*
X0308028Y0321472D01*
X0252814Y0285563D02*
X0253748D01*
X0053028Y0267342D02*
X0068307D01*
X0012528Y0217063D02*
X0020028Y0224563D01*
X0021528Y0214063D02*
X0026028Y0218563D01*
X0303028Y0378563D02*
X0308028Y0383563D01*
X0303028Y0357472D02*
Y0378563D01*
Y0357472D02*
X0308028Y0352472D01*
X0303028Y0347472D02*
X0307528Y0351972D01*
X0303028Y0326972D02*
Y0347472D01*
X0253643Y0245563D02*
X0253748D01*
X0251143Y0248063D02*
X0253643Y0245563D01*
X0149028Y0241154D02*
X0155937Y0248063D01*
X0251143D01*
X0302651Y0286186D02*
Y0287693D01*
X0012528Y0203063D02*
Y0217063D01*
X0240248Y0239563D02*
X0253748Y0226063D01*
X0016528Y0199063D02*
X0056528D01*
X0012528Y0203063D02*
X0016528Y0199063D01*
X0212793Y0205444D02*
X0214014D01*
X0212674Y0205563D02*
X0212793Y0205444D01*
X0214014D02*
X0214133Y0205563D01*
X0056528Y0199063D02*
X0061528Y0204063D01*
X0202528Y0239563D02*
X0240248D01*
X0214133Y0205563D02*
X0220937D01*
X0302651Y0287693D02*
X0303028Y028807D01*
X0302028Y0285563D02*
X0302651Y0286186D01*
X0220937Y0205563D02*
X0225028Y0209653D01*
X0054433Y0029382D02*
X0046433Y0037382D01*
Y0080382D02*
Y0037382D01*
Y0080382D02*
X0037433Y0089382D01*
X0214433Y0048882D02*
Y0035382D01*
X0220433Y0029382D02*
X0214433Y0035382D01*
Y0048882D02*
X0177933Y0085382D01*
X0224933Y0048882D02*
X0187395Y008642D01*
X0224933Y0048882D02*
Y0034882D01*
X0218433Y0016882D02*
X0204933D01*
X0288933Y0172382D02*
Y0087382D01*
X0218433Y0016882D01*
X0294933Y0166382D02*
Y0081882D01*
X0216933Y0003882D02*
X0111433D01*
X0294933Y0081882D02*
X0216933Y0003882D01*
X0099933Y0015382D02*
X0057933D01*
X0111433Y0003882D02*
X0099933Y0015382D01*
X0061212Y0131661D02*
Y0125382D01*
X0066433Y0136882D02*
X0061212Y0131661D01*
X0202653Y0136882D02*
X0066433D01*
X0011933Y0063973D02*
X0006433Y0069472D01*
X0102683Y0159352D02*
X0093153Y0168882D01*
X0172713Y0163882D02*
X0166712Y0169882D01*
X0178561Y0158034D02*
X0172713Y0163882D01*
X0072933Y0046382D02*
Y0038382D01*
X0062433Y0076882D02*
Y0056882D01*
X0072933Y0046382D02*
X0062433Y0056882D01*
X0075433Y0089882D02*
X0062433Y0076882D01*
X0109433Y0089882D02*
X0075433D01*
X0116433Y0096882D02*
X0109433Y0089882D01*
X0103933Y0082882D02*
X0078933D01*
X0073933Y0029382D02*
X0054433D01*
X0082933Y0038382D02*
X0073933Y0029382D01*
X0156433Y0075382D02*
X0148433Y0067382D01*
X0156433Y0096882D02*
Y0075382D01*
X0148433Y0067382D02*
X0145433D01*
X0096433Y0074882D02*
X0078933D01*
X0100433Y0070882D02*
X0096433Y0074882D01*
X0176933Y0096882D02*
X0176433D01*
X0187395Y008642D02*
X0176933Y0096882D01*
X0177933Y0085382D02*
X0167933D01*
X0156433Y0096882D01*
X0211433Y0128102D02*
X0202653Y0136882D01*
X0063433Y0098382D02*
X0055933D01*
X0244433Y0110882D02*
X0075933D01*
X0063433Y0098382D01*
X0246933Y0113382D02*
X0244433Y0110882D01*
X0236933Y0122382D02*
X0230933Y0116382D01*
X0073147D02*
X0062147Y0105382D01*
X0230933Y0116382D02*
X0073147D01*
X0153433Y0176882D02*
X0151933Y0175382D01*
X0114213D02*
X0103433Y0186161D01*
X0151933Y0175382D02*
X0114213D01*
X0214933Y0131602D02*
X0211433Y0128102D01*
X0214933Y0148882D02*
Y0131602D01*
X0016842Y0079382D02*
X0007686Y0070226D01*
X0034787Y0079382D02*
X0016842D01*
X0030933Y0002882D02*
X0023933Y0009882D01*
X0045433Y0002882D02*
X0030933D01*
X0057933Y0015382D02*
X0045433Y0002882D01*
X0119712Y0169882D02*
X0109213Y0159382D01*
X0103433D01*
X0102653Y0158602D01*
X0101933D01*
X0178933Y0154661D02*
X0178561Y0155034D01*
Y0158034D02*
Y0155034D01*
X0145153Y0163882D02*
Y0157512D01*
X0137433Y0149791D01*
X0166712Y0169882D02*
X0119712D01*
X0116653Y0155602D02*
X0112433Y0151382D01*
X0137433Y0149791D02*
X0131622Y0155602D01*
X0116653D01*
X0073433Y0177382D02*
X0019933D01*
X0081933Y0168882D02*
X0073433Y0177382D01*
X0093153Y0168882D02*
X0081933D01*
X0019933Y0177382D02*
X0012933Y0184382D01*
X0227661Y016161D02*
X0214933Y0148882D01*
X0217153Y0167382D02*
X0205433Y0155661D01*
X0251933Y0167382D02*
X0217153D01*
X0261933Y0157382D02*
Y0151161D01*
Y0157382D02*
X0251933Y0167382D01*
X0180732Y0155661D02*
X0179732Y0154661D01*
X0178933D01*
X0205433Y0155661D02*
X0180732D01*
X0023933Y0044382D02*
Y0009882D01*
X0016933Y0058473D02*
Y0051382D01*
X0023933Y0044382D02*
X0016933Y0051382D01*
X0045433Y0108882D02*
X0042433Y0111882D01*
X0031604D02*
X0027311Y0107588D01*
X0042433Y0111882D02*
X0031604D01*
X0055933Y0098382D02*
X0045433Y0108882D01*
Y0108882D02*
Y0108882D01*
X0027311Y009985D02*
X0016933Y0089473D01*
X0027311Y0107588D02*
Y009985D01*
X0268933Y0120882D02*
X0261433Y0113382D01*
X0246933D01*
X0245842Y0122382D02*
X0236933D01*
X0268933Y0159382D02*
Y0120882D01*
Y0159382D02*
X0254082Y0174232D01*
Y0176233D02*
X0253433Y0176882D01*
X0254082Y0176233D02*
Y0174232D01*
X0011933Y0085882D02*
X0007686Y0081635D01*
X0011933Y0102875D02*
Y0085882D01*
X0007686Y0081635D02*
Y0070226D01*
X0006933Y0069472D01*
X0062147Y0105382D02*
X0061212D01*
X0261933Y0123602D02*
X0246653D01*
X0302433Y0173882D02*
X0294933Y0166382D01*
X0293433Y0176882D02*
X0288933Y0172382D01*
X0011933Y0012382D02*
X0006933Y0007382D01*
X0011933Y0033472D02*
Y0012382D01*
Y0033472D02*
X0006933Y0038472D01*
X0011933Y0043472D02*
X0007433Y0038972D01*
X0011933Y0063973D02*
Y0043472D01*
X0061317Y0145382D02*
X0061212D01*
X0063818Y0142882D02*
X0061317Y0145382D01*
X0165933Y0149791D02*
X0159023Y0142882D01*
X0063818D01*
X001231Y0104759D02*
Y0103252D01*
X0302433Y0187882D02*
Y0173882D01*
X0074713Y0151382D02*
X0061212Y0164882D01*
X0298433Y0191882D02*
X0258433D01*
X0302433Y0187882D02*
X0298433Y0191882D01*
X0102167Y0185501D02*
X0100947D01*
X0102286Y0185382D02*
X0102167Y0185501D01*
X0100947D02*
X0100828Y0185382D01*
X0258433Y0191882D02*
X0253433Y0186882D01*
X0112433Y0151382D02*
X0074713D01*
X0100828Y0185382D02*
X0094024D01*
X001231Y0103252D02*
X0011933Y0102875D01*
X0012933Y0105382D02*
X001231Y0104759D01*
X0094024Y0185382D02*
X0089933Y0181291D01*
D13*
X0128528Y0374563D02*
X0131528Y0377563D01*
X0193028D01*
X0201409Y0367682D02*
Y0369182D01*
Y0367682D02*
X0201528Y0367563D01*
X0193028Y0377563D02*
X0201409Y0369182D01*
X0186433Y0016382D02*
X0183433Y0013382D01*
X0121933D01*
X0113552Y0023263D02*
Y0021763D01*
Y0023263D02*
X0113433Y0023382D01*
X0121933Y0013382D02*
X0113552Y0021763D01*
D14*
X0208528Y0294063D02*
D03*
X0155528Y0369563D02*
D03*
X0071528Y0384063D02*
D03*
X0161528Y0214063D02*
D03*
X0106433Y0096882D02*
D03*
X0159433Y0021382D02*
D03*
X0243433Y0006882D02*
D03*
X0153433Y0176882D02*
D03*
D15*
X0198528Y0294063D02*
D03*
X0188528D02*
D03*
X0178528D02*
D03*
X0168528D02*
D03*
X0158528D02*
D03*
X0148528D02*
D03*
X0138528D02*
D03*
X0165528Y0369563D02*
D03*
X0175528D02*
D03*
X0185528D02*
D03*
X0061528Y0384063D02*
D03*
X0051528D02*
D03*
X0041528D02*
D03*
X0031528D02*
D03*
X0021528D02*
D03*
X0151528Y0214063D02*
D03*
X0141528D02*
D03*
X0131528D02*
D03*
X0121528D02*
D03*
X0111528D02*
D03*
X0101528D02*
D03*
X0091528D02*
D03*
X0081528D02*
D03*
X0071528D02*
D03*
X0061528D02*
D03*
X0051528D02*
D03*
X0041528D02*
D03*
X0031528D02*
D03*
X0021528D02*
D03*
X0116433Y0096882D02*
D03*
X0126433D02*
D03*
X0136433D02*
D03*
X0146433D02*
D03*
X0156433D02*
D03*
X0166433D02*
D03*
X0176433D02*
D03*
X0149433Y0021382D02*
D03*
X0139433D02*
D03*
X0129433D02*
D03*
X0253433Y0006882D02*
D03*
X0263433D02*
D03*
X0273433D02*
D03*
X0283433D02*
D03*
X0293433D02*
D03*
X0163433Y0176882D02*
D03*
X0173433D02*
D03*
X0183433D02*
D03*
X0193433D02*
D03*
X0203433D02*
D03*
X0213433D02*
D03*
X0223433D02*
D03*
X0233433D02*
D03*
X0243433D02*
D03*
X0253433D02*
D03*
X0263433D02*
D03*
X0273433D02*
D03*
X0283433D02*
D03*
X0293433D02*
D03*
D16*
X0187528Y0241154D02*
D03*
X0177528D02*
D03*
X0187528Y0261154D02*
D03*
X0177528D02*
D03*
X0159028Y0241154D02*
D03*
X0149028D02*
D03*
X0159028Y0261154D02*
D03*
X0149028D02*
D03*
X0308028Y0332472D02*
D03*
X0298028D02*
D03*
X0308028Y0352472D02*
D03*
X0298028D02*
D03*
X0308028Y0301472D02*
D03*
X0298028D02*
D03*
X0308028Y0321472D02*
D03*
X0298028D02*
D03*
X0308028Y0363563D02*
D03*
X0298028D02*
D03*
X0308028Y0383563D02*
D03*
X0298028D02*
D03*
X0225028Y0229654D02*
D03*
X0235028D02*
D03*
X0225028Y0209653D02*
D03*
X0235028D02*
D03*
X0089118Y0268563D02*
D03*
Y0258563D02*
D03*
X0069118Y0268563D02*
D03*
Y0258563D02*
D03*
X0067528Y0230063D02*
D03*
Y0240063D02*
D03*
X0087528Y0230063D02*
D03*
Y0240063D02*
D03*
X0127433Y0149791D02*
D03*
X0137433D02*
D03*
X0127433Y0129791D02*
D03*
X0137433D02*
D03*
X0155933Y0149791D02*
D03*
X0165933D02*
D03*
X0155933Y0129791D02*
D03*
X0165933D02*
D03*
X0006933Y0058473D02*
D03*
X0016933D02*
D03*
X0006933Y0038472D02*
D03*
X0016933D02*
D03*
X0006933Y0089473D02*
D03*
X0016933D02*
D03*
X0006933Y0069472D02*
D03*
X0016933D02*
D03*
X0006933Y0027382D02*
D03*
X0016933D02*
D03*
X0006933Y0007382D02*
D03*
X0016933D02*
D03*
X0089933Y0161291D02*
D03*
X0079933D02*
D03*
X0089933Y0181291D02*
D03*
X0079933D02*
D03*
X0225842Y0122382D02*
D03*
Y0132382D02*
D03*
X0245842Y0122382D02*
D03*
Y0132382D02*
D03*
X0247433Y0160882D02*
D03*
Y0150882D02*
D03*
X0227433Y0160882D02*
D03*
Y0150882D02*
D03*
D17*
X0277528Y0381563D02*
D03*
Y0371563D02*
D03*
Y0361563D02*
D03*
Y0351563D02*
D03*
Y0321563D02*
D03*
Y0311563D02*
D03*
Y0301563D02*
D03*
Y0341563D02*
D03*
Y0331563D02*
D03*
X0071528Y0204063D02*
D03*
X0061528D02*
D03*
X0101528D02*
D03*
X0091528D02*
D03*
X0081528D02*
D03*
X0051528D02*
D03*
X0041528D02*
D03*
X0031528D02*
D03*
X0021528D02*
D03*
X0121528D02*
D03*
X0111528D02*
D03*
X0037433Y0009382D02*
D03*
Y0019382D02*
D03*
Y0029382D02*
D03*
Y0039382D02*
D03*
Y0069382D02*
D03*
Y0079382D02*
D03*
Y0089382D02*
D03*
Y0049382D02*
D03*
Y0059382D02*
D03*
X0243433Y0186882D02*
D03*
X0253433D02*
D03*
X0213433D02*
D03*
X0223433D02*
D03*
X0233433D02*
D03*
X0263433D02*
D03*
X0273433D02*
D03*
X0283433D02*
D03*
X0293433D02*
D03*
X0193433D02*
D03*
X0203433D02*
D03*
D18*
X0241528Y0384063D02*
D03*
X0231528D02*
D03*
X0242028Y0352563D02*
D03*
X0252028D02*
D03*
X0073433Y0006882D02*
D03*
X0083433D02*
D03*
X0072933Y0038382D02*
D03*
X0062933D02*
D03*
D19*
X0221528Y0384063D02*
D03*
X0232028Y0352563D02*
D03*
X0093433Y0006882D02*
D03*
X0082933Y0038382D02*
D03*
D20*
X0253748Y0226063D02*
D03*
X0281307D02*
D03*
X0253748Y0265563D02*
D03*
X0281307D02*
D03*
X0253748Y0245563D02*
D03*
X0281307D02*
D03*
X0253748Y0285563D02*
D03*
X0281307D02*
D03*
Y0206563D02*
D03*
X0253748D02*
D03*
X0103528Y0262842D02*
D03*
Y0235283D02*
D03*
X0169807Y0227063D02*
D03*
X0142248D02*
D03*
X0136028Y0263843D02*
D03*
Y0236283D02*
D03*
X0053028Y0267342D02*
D03*
Y0239784D02*
D03*
X0213028Y0204784D02*
D03*
Y0232343D02*
D03*
X0061212Y0164882D02*
D03*
X0033653D02*
D03*
X0061212Y0125382D02*
D03*
X0033653D02*
D03*
X0061212Y0145382D02*
D03*
X0033653D02*
D03*
X0061212Y0105382D02*
D03*
X0033653D02*
D03*
Y0184382D02*
D03*
X0061212D02*
D03*
X0211433Y0128102D02*
D03*
Y0155661D02*
D03*
X0145153Y0163882D02*
D03*
X0172713D02*
D03*
X0178933Y0127102D02*
D03*
Y0154661D02*
D03*
X0261933Y0123602D02*
D03*
Y0151161D02*
D03*
X0101933Y0186161D02*
D03*
Y0158602D02*
D03*
D21*
X0302028Y0206563D02*
D03*
X0302009Y0226063D02*
D03*
X0302106Y0245563D02*
D03*
X0302088Y0265563D02*
D03*
X0302028Y0285563D02*
D03*
X0012933Y0184382D02*
D03*
X0012951Y0164882D02*
D03*
X0012854Y0145382D02*
D03*
X0012873Y0125382D02*
D03*
X0012933Y0105382D02*
D03*
D22*
X0292028Y0206563D02*
D03*
X0292009Y0226063D02*
D03*
X0292106Y0245563D02*
D03*
X0292088Y0265563D02*
D03*
X0292028Y0285563D02*
D03*
X0022933Y0184382D02*
D03*
X0022951Y0164882D02*
D03*
X0022854Y0145382D02*
D03*
X0022873Y0125382D02*
D03*
X0022933Y0105382D02*
D03*
D23*
X0112021Y0366563D02*
D03*
X0108612Y0365647D02*
D03*
X0207528Y0268563D02*
D03*
X0205528Y0265063D02*
D03*
X0210028D02*
D03*
X0108528Y0365563D02*
D03*
X0251528Y0301063D02*
D03*
X0090028Y0356063D02*
D03*
X0094528Y0361563D02*
D03*
X0238028Y0268563D02*
D03*
X0235028D02*
D03*
X0236528Y0266563D02*
D03*
X0110028Y0374063D02*
D03*
X0128528Y0374563D02*
D03*
X0201528Y0367563D02*
D03*
X0113528Y0340563D02*
D03*
X0242028Y0326563D02*
D03*
X0236028Y0308063D02*
D03*
X0169528Y0323563D02*
D03*
X0214528Y0320063D02*
D03*
X0211028Y0308063D02*
D03*
X0236028Y0316063D02*
D03*
X0127528Y0304563D02*
D03*
X0224528Y0335063D02*
D03*
X0175528Y0209563D02*
D03*
X020294Y0024382D02*
D03*
X0206349Y0025298D02*
D03*
X0107433Y0122382D02*
D03*
X0109433Y0125882D02*
D03*
X0104933D02*
D03*
X0206433Y0025382D02*
D03*
X0063433Y0089882D02*
D03*
X0224933Y0034882D02*
D03*
X0220433Y0029382D02*
D03*
X0076933Y0122382D02*
D03*
X0079933D02*
D03*
X0078433Y0124382D02*
D03*
X0204933Y0016882D02*
D03*
X0186433Y0016382D02*
D03*
X0113433Y0023382D02*
D03*
X0201433Y0050382D02*
D03*
X0072933Y0064382D02*
D03*
X0078933Y0082882D02*
D03*
X0145433Y0067382D02*
D03*
X0100433Y0070882D02*
D03*
X0103933Y0082882D02*
D03*
X0078933Y0074882D02*
D03*
X0187433Y0086382D02*
D03*
X0090433Y0055882D02*
D03*
X0139433Y0181382D02*
D03*
M02*
