G04*
G04 #@! TF.GenerationSoftware,Altium Limited,Altium Designer,24.4.1 (13)*
G04*
G04 Layer_Physical_Order=2*
G04 Layer_Color=16711680*
%FSTAX25Y25*%
%MOIN*%
G70*
G04*
G04 #@! TF.SameCoordinates,020C5614-C29D-4F9E-ABEE-A2FB782F7328*
G04*
G04*
G04 #@! TF.FilePolarity,Positive*
G04*
G01*
G75*
%ADD10C,0.02178*%
%ADD11C,0.02178*%
%ADD12C,0.01500*%
%ADD13C,0.03000*%
%ADD14C,0.02000*%
%ADD15R,0.05394X0.05394*%
%ADD16C,0.05394*%
%ADD17C,0.05937*%
%ADD18C,0.06000*%
%ADD19C,0.04578*%
%ADD20R,0.04578X0.04578*%
%ADD21C,0.04953*%
%ADD22C,0.04756*%
%ADD23R,0.04756X0.04756*%
%ADD24C,0.02200*%
G36*
X0251007Y0388954D02*
X0239655Y0377602D01*
X0199345D01*
X0188442Y0388505D01*
X0188222Y0388652D01*
X0188102Y0389332D01*
X0188163Y0389416D01*
X0250815Y0389416D01*
X0251007Y0388954D01*
D02*
G37*
G36*
X0296971Y0197592D02*
X0150695Y0197592D01*
X0150504Y0198054D01*
X0160506Y0208057D01*
X0160592Y0208185D01*
X016078Y0208373D01*
X0160882Y020862D01*
X0160968Y0208748D01*
X0160998Y0208899D01*
X01611Y0209145D01*
Y0209412D01*
X016113Y0209563D01*
X01611Y0209714D01*
Y0209981D01*
X0160998Y0210227D01*
X0160968Y0210378D01*
X0160882Y0210506D01*
X016078Y0210753D01*
X0160592Y0210941D01*
X0160506Y0211069D01*
X0160378Y0211155D01*
X016019Y0211343D01*
X0159943Y0211445D01*
X0159815Y0211531D01*
X0159664Y0211561D01*
X0159418Y0211663D01*
X0159151D01*
X0159Y0211693D01*
X0158849Y0211663D01*
X0158582D01*
X0158336Y0211561D01*
X0158185Y0211531D01*
X0158057Y0211445D01*
X015781Y0211343D01*
X0157622Y0211155D01*
X0157494Y0211069D01*
X0147529Y0201104D01*
X0108351D01*
X010816Y0201566D01*
X0108201Y0201607D01*
X0108727Y0202519D01*
X0109Y0203536D01*
Y020459D01*
X0108727Y0205607D01*
X0108201Y0206519D01*
X0107456Y0207264D01*
X0106544Y020779D01*
X0105527Y0208063D01*
X0104473D01*
X0103456Y020779D01*
X0102544Y0207264D01*
X0101799Y0206519D01*
X0101273Y0205607D01*
X0101Y020459D01*
Y0203536D01*
X0101273Y0202519D01*
X0101799Y0201607D01*
X010184Y0201566D01*
X0101649Y0201104D01*
X0098351D01*
X009816Y0201566D01*
X0098201Y0201607D01*
X0098727Y0202519D01*
X0099Y0203536D01*
Y020459D01*
X0098727Y0205607D01*
X0098201Y0206519D01*
X0097456Y0207264D01*
X0096544Y020779D01*
X0095527Y0208063D01*
X0094473D01*
X0093456Y020779D01*
X0092544Y0207264D01*
X0091799Y0206519D01*
X0091273Y0205607D01*
X0091Y020459D01*
Y0203536D01*
X0091273Y0202519D01*
X0091799Y0201607D01*
X009184Y0201566D01*
X0091649Y0201104D01*
X0090971D01*
X0088903Y0203173D01*
X0089Y0203536D01*
Y020459D01*
X0088727Y0205607D01*
X0088201Y0206519D01*
X0087456Y0207264D01*
X0086544Y020779D01*
X0085527Y0208063D01*
X0084473D01*
X0083456Y020779D01*
X0082544Y0207264D01*
X0081799Y0206519D01*
X0081273Y0205607D01*
X0081Y020459D01*
Y0203536D01*
X0081273Y0202519D01*
X0081799Y0201607D01*
X0082544Y0200862D01*
X0083456Y0200336D01*
X0084473Y0200063D01*
X0085527D01*
X008589Y020016D01*
X0087996Y0198054D01*
X0087805Y0197592D01*
X0041706Y0197592D01*
X0041515Y0198054D01*
X0043724Y0200264D01*
X0044473Y0200063D01*
X0045527D01*
X0046544Y0200336D01*
X0047456Y0200862D01*
X0048201Y0201607D01*
X0048727Y0202519D01*
X0049Y0203536D01*
Y020459D01*
X0048727Y0205607D01*
X0048201Y0206519D01*
X0047456Y0207264D01*
X0046544Y020779D01*
X0045527Y0208063D01*
X0044473D01*
X0043456Y020779D01*
X0042544Y0207264D01*
X0041799Y0206519D01*
X0041273Y0205607D01*
X0041Y020459D01*
Y0203536D01*
X0041201Y0202787D01*
X0038761Y0200347D01*
X003753D01*
X0037401Y020083D01*
X0037456Y0200862D01*
X0038201Y0201607D01*
X0038727Y0202519D01*
X0039Y0203536D01*
Y020459D01*
X0038727Y0205607D01*
X0038201Y0206519D01*
X0037456Y0207264D01*
X0036544Y020779D01*
X0035527Y0208063D01*
X0034473D01*
X0033456Y020779D01*
X0032544Y0207264D01*
X0031799Y0206519D01*
X0031273Y0205607D01*
X0031Y020459D01*
Y0203536D01*
X0031273Y0202519D01*
X0031799Y0201607D01*
X0032544Y0200862D01*
X0032599Y020083D01*
X003247Y0200347D01*
X002753D01*
X0027401Y020083D01*
X0027456Y0200862D01*
X0028201Y0201607D01*
X0028727Y0202519D01*
X0029Y0203536D01*
Y020459D01*
X0028727Y0205607D01*
X0028201Y0206519D01*
X0027456Y0207264D01*
X0026544Y020779D01*
X0025527Y0208063D01*
X0024473D01*
X0023456Y020779D01*
X0022544Y0207264D01*
X0021799Y0206519D01*
X0021273Y0205607D01*
X0021Y020459D01*
Y0203536D01*
X0021273Y0202519D01*
X0021799Y0201607D01*
X0022544Y0200862D01*
X0022599Y020083D01*
X002247Y0200347D01*
X001753D01*
X0017401Y020083D01*
X0017456Y0200862D01*
X0018201Y0201607D01*
X0018727Y0202519D01*
X0019Y0203536D01*
Y020459D01*
X0018727Y0205607D01*
X0018201Y0206519D01*
X0017456Y0207264D01*
X0016544Y020779D01*
X0015527Y0208063D01*
X0014473D01*
X0013456Y020779D01*
X0012544Y0207264D01*
X0012284Y0207004D01*
X0011784Y0207211D01*
Y0211344D01*
X0012284Y0211551D01*
X001273Y0211105D01*
X0013573Y0210618D01*
X0014513Y0210366D01*
X0015487D01*
X0016427Y0210618D01*
X001727Y0211105D01*
X0017958Y0211793D01*
X0018445Y0212636D01*
X0018697Y0213576D01*
Y021455D01*
X0018445Y021549D01*
X0017958Y0216333D01*
X001727Y0217021D01*
X0016427Y0217508D01*
X0015487Y021776D01*
X0014513D01*
X0013573Y0217508D01*
X001273Y0217021D01*
X0012284Y0216575D01*
X0011784Y0216782D01*
Y0289383D01*
X00121Y0290145D01*
Y0290981D01*
X001178Y0291753D01*
X001119Y0292343D01*
X0010418Y0292663D01*
X0009582D01*
X0008811Y0292343D01*
X000822Y0291753D01*
X00079Y0290981D01*
Y0290145D01*
X0008216Y0289383D01*
Y0207211D01*
X0007716Y0207004D01*
X0007456Y0207264D01*
X0006544Y020779D01*
X0005527Y0208063D01*
X00055D01*
Y0204063D01*
Y0200063D01*
X0005527D01*
X0006544Y0200336D01*
X0007456Y0200862D01*
X0007716Y0201122D01*
X0007918Y0201098D01*
X000824Y0200939D01*
X0008352Y020038D01*
X0008738Y0199801D01*
X0010485Y0198054D01*
X0010294Y0197592D01*
X0001529D01*
Y020117D01*
X0002029Y0201377D01*
X0002544Y0200862D01*
X0003456Y0200336D01*
X0004473Y0200063D01*
X00045D01*
Y0204063D01*
Y0208063D01*
X0004473D01*
X0003456Y020779D01*
X0002544Y0207264D01*
X0002029Y0206749D01*
X0001529Y0206956D01*
X0001529Y0389416D01*
X0082919Y0389416D01*
X008298Y0389332D01*
X008286Y0388652D01*
X008264Y0388505D01*
X008264Y0388505D01*
X0010776Y031664D01*
X0010472D01*
X0010418Y0316663D01*
X0009582D01*
X0008811Y0316343D01*
X000822Y0315753D01*
X00079Y0314981D01*
Y0314145D01*
X000822Y0313373D01*
X0008811Y0312783D01*
X0009582Y0312463D01*
X0010418D01*
X0010657Y0312562D01*
X001162D01*
X0012401Y0312717D01*
X0013062Y0313159D01*
X0084927Y0385024D01*
X0186155D01*
X0197058Y0374121D01*
X019772Y0373679D01*
X01985Y0373524D01*
X01985Y0373524D01*
X02405D01*
X024128Y0373679D01*
X0241942Y0374121D01*
X0253845Y0386024D01*
X0260261D01*
X0260327Y0385524D01*
X0259456Y038529D01*
X0258544Y0384764D01*
X0257799Y0384019D01*
X0257273Y0383107D01*
X0257Y038209D01*
Y0381036D01*
X0257097Y0380673D01*
X0247618Y0371193D01*
X01985D01*
X0197685Y0371031D01*
X0196994Y0370569D01*
X0180618Y0354193D01*
X0135302D01*
X0135241Y0354181D01*
X0134188Y0354042D01*
X013315Y0353612D01*
X0132259Y0352928D01*
X0131575Y0352037D01*
X0131076Y0352139D01*
Y0355974D01*
X0131061Y0356046D01*
X0130927Y0357065D01*
X0130506Y0358081D01*
X0129837Y0358954D01*
X0128964Y0359624D01*
X0127947Y0360045D01*
X0126929Y0360179D01*
X0126857Y0360193D01*
X0126784Y0360179D01*
X0125766Y0360045D01*
X012475Y0359624D01*
X0123877Y0358954D01*
X0123207Y0358081D01*
X0122786Y0357065D01*
X0122652Y0356046D01*
X0122637Y0355974D01*
Y0354241D01*
X0122632D01*
X0122619Y0354211D01*
X0122589Y0354199D01*
Y0354193D01*
X01085D01*
X0107685Y0354031D01*
X0106994Y0353569D01*
X0095494Y0342069D01*
X0095408Y0341941D01*
X009522Y0341753D01*
X0095118Y0341506D01*
X0095032Y0341378D01*
X0095002Y0341227D01*
X00949Y0340981D01*
Y0340714D01*
X009487Y0340563D01*
X00949Y0340412D01*
Y0340145D01*
X0095002Y0339899D01*
X0095032Y0339748D01*
X0095118Y033962D01*
X009522Y0339373D01*
X0095408Y0339185D01*
X0095494Y0339057D01*
X0095622Y0338971D01*
X0095811Y0338783D01*
X0096057Y0338681D01*
X0096185Y0338595D01*
X0096336Y0338565D01*
X0096582Y0338463D01*
X0096849D01*
X0097Y0338433D01*
X0097151Y0338463D01*
X0097418D01*
X0097664Y0338565D01*
X0097815Y0338595D01*
X0097943Y0338681D01*
X009819Y0338783D01*
X0098378Y0338971D01*
X0098506Y0339057D01*
X0109382Y0349933D01*
X0122589D01*
X012265Y0349945D01*
X0123703Y0350084D01*
X0124741Y0350514D01*
X0125633Y0351198D01*
X0126317Y0352089D01*
X0126816Y0351987D01*
Y0348152D01*
X012683Y034808D01*
X0126964Y0347061D01*
X0127385Y0346045D01*
X0128055Y0345172D01*
X0128928Y0344502D01*
X0129944Y0344081D01*
X0130962Y0343947D01*
X0131035Y0343933D01*
X0131107Y0343947D01*
X0132126Y0344081D01*
X0133142Y0344502D01*
X0134015Y0345172D01*
X0134685Y0346045D01*
X0135106Y0347061D01*
X013524Y034808D01*
X0135254Y0348152D01*
Y0349885D01*
X013526D01*
X0135273Y0349915D01*
X0135302Y0349927D01*
Y0349933D01*
X01815D01*
X0182315Y0350095D01*
X0183006Y0350557D01*
X0199382Y0366933D01*
X02485D01*
X0249315Y0367095D01*
X0250006Y0367557D01*
X026011Y037766D01*
X0260473Y0377563D01*
X0261527D01*
X0262544Y0377836D01*
X0263456Y0378362D01*
X0264201Y0379107D01*
X0264727Y0380019D01*
X0265Y0381036D01*
Y038209D01*
X0264727Y0383107D01*
X0264201Y0384019D01*
X0263456Y0384764D01*
X0262544Y038529D01*
X0261673Y0385524D01*
X0261739Y0386024D01*
X0266655D01*
X0272461Y0380218D01*
Y0346563D01*
X0272616Y0345783D01*
X0273058Y0345121D01*
X0279461Y0338718D01*
Y0335878D01*
X0279063Y0335648D01*
X0278324Y0334909D01*
X0277802Y0334004D01*
X0277532Y0332995D01*
Y033195D01*
X0277802Y0330941D01*
X0278324Y0330036D01*
X0279063Y0329297D01*
X0279968Y0328774D01*
X0280978Y0328504D01*
X0282023D01*
X0283032Y0328774D01*
X0283937Y0329297D01*
X0284676Y0330036D01*
X0285198Y0330941D01*
X0285469Y033195D01*
Y0332995D01*
X0285198Y0334004D01*
X0284676Y0334909D01*
X0283937Y0335648D01*
X0283539Y0335878D01*
Y0339563D01*
X0283384Y0340343D01*
X0282942Y0341005D01*
X0282942Y0341005D01*
X0276539Y0347408D01*
Y0381063D01*
X0276384Y0381843D01*
X0275942Y0382505D01*
X0275942Y0382505D01*
X0269493Y0388954D01*
X0269685Y0389416D01*
X0296971D01*
Y0197592D01*
D02*
G37*
G36*
X0251007Y0192891D02*
X0239655Y0181539D01*
X0199345D01*
X0188442Y0192442D01*
X0188222Y0192589D01*
X0188102Y0193269D01*
X0188163Y0193352D01*
X0250815Y0193352D01*
X0251007Y0192891D01*
D02*
G37*
G36*
X0296971Y0001529D02*
X0150695Y0001529D01*
X0150504Y0001991D01*
X0160506Y0011994D01*
X0160592Y0012122D01*
X016078Y001231D01*
X0160882Y0012557D01*
X0160968Y0012685D01*
X0160998Y0012836D01*
X01611Y0013082D01*
Y0013349D01*
X016113Y00135D01*
X01611Y0013651D01*
Y0013918D01*
X0160998Y0014164D01*
X0160968Y0014315D01*
X0160882Y0014443D01*
X016078Y001469D01*
X0160592Y0014878D01*
X0160506Y0015006D01*
X0160378Y0015092D01*
X016019Y001528D01*
X0159943Y0015382D01*
X0159815Y0015468D01*
X0159664Y0015498D01*
X0159418Y00156D01*
X0159151D01*
X0159Y001563D01*
X0158849Y00156D01*
X0158582D01*
X0158336Y0015498D01*
X0158185Y0015468D01*
X0158057Y0015382D01*
X015781Y001528D01*
X0157622Y0015092D01*
X0157494Y0015006D01*
X0147529Y0005041D01*
X0108351D01*
X010816Y0005503D01*
X0108201Y0005544D01*
X0108727Y0006456D01*
X0109Y0007473D01*
Y0008527D01*
X0108727Y0009544D01*
X0108201Y0010456D01*
X0107456Y0011201D01*
X0106544Y0011727D01*
X0105527Y0012D01*
X0104473D01*
X0103456Y0011727D01*
X0102544Y0011201D01*
X0101799Y0010456D01*
X0101273Y0009544D01*
X0101Y0008527D01*
Y0007473D01*
X0101273Y0006456D01*
X0101799Y0005544D01*
X010184Y0005503D01*
X0101649Y0005041D01*
X0098351D01*
X009816Y0005503D01*
X0098201Y0005544D01*
X0098727Y0006456D01*
X0099Y0007473D01*
Y0008527D01*
X0098727Y0009544D01*
X0098201Y0010456D01*
X0097456Y0011201D01*
X0096544Y0011727D01*
X0095527Y0012D01*
X0094473D01*
X0093456Y0011727D01*
X0092544Y0011201D01*
X0091799Y0010456D01*
X0091273Y0009544D01*
X0091Y0008527D01*
Y0007473D01*
X0091273Y0006456D01*
X0091799Y0005544D01*
X009184Y0005503D01*
X0091649Y0005041D01*
X0090971D01*
X0088903Y000711D01*
X0089Y0007473D01*
Y0008527D01*
X0088727Y0009544D01*
X0088201Y0010456D01*
X0087456Y0011201D01*
X0086544Y0011727D01*
X0085527Y0012D01*
X0084473D01*
X0083456Y0011727D01*
X0082544Y0011201D01*
X0081799Y0010456D01*
X0081273Y0009544D01*
X0081Y0008527D01*
Y0007473D01*
X0081273Y0006456D01*
X0081799Y0005544D01*
X0082544Y0004799D01*
X0083456Y0004273D01*
X0084473Y0004D01*
X0085527D01*
X008589Y0004097D01*
X0087996Y0001991D01*
X0087805Y0001529D01*
X0041706Y0001529D01*
X0041515Y0001991D01*
X0043724Y0004201D01*
X0044473Y0004D01*
X0045527D01*
X0046544Y0004273D01*
X0047456Y0004799D01*
X0048201Y0005544D01*
X0048727Y0006456D01*
X0049Y0007473D01*
Y0008527D01*
X0048727Y0009544D01*
X0048201Y0010456D01*
X0047456Y0011201D01*
X0046544Y0011727D01*
X0045527Y0012D01*
X0044473D01*
X0043456Y0011727D01*
X0042544Y0011201D01*
X0041799Y0010456D01*
X0041273Y0009544D01*
X0041Y0008527D01*
Y0007473D01*
X0041201Y0006724D01*
X0038761Y0004284D01*
X003753D01*
X0037401Y0004767D01*
X0037456Y0004799D01*
X0038201Y0005544D01*
X0038727Y0006456D01*
X0039Y0007473D01*
Y0008527D01*
X0038727Y0009544D01*
X0038201Y0010456D01*
X0037456Y0011201D01*
X0036544Y0011727D01*
X0035527Y0012D01*
X0034473D01*
X0033456Y0011727D01*
X0032544Y0011201D01*
X0031799Y0010456D01*
X0031273Y0009544D01*
X0031Y0008527D01*
Y0007473D01*
X0031273Y0006456D01*
X0031799Y0005544D01*
X0032544Y0004799D01*
X0032599Y0004767D01*
X003247Y0004284D01*
X002753D01*
X0027401Y0004767D01*
X0027456Y0004799D01*
X0028201Y0005544D01*
X0028727Y0006456D01*
X0029Y0007473D01*
Y0008527D01*
X0028727Y0009544D01*
X0028201Y0010456D01*
X0027456Y0011201D01*
X0026544Y0011727D01*
X0025527Y0012D01*
X0024473D01*
X0023456Y0011727D01*
X0022544Y0011201D01*
X0021799Y0010456D01*
X0021273Y0009544D01*
X0021Y0008527D01*
Y0007473D01*
X0021273Y0006456D01*
X0021799Y0005544D01*
X0022544Y0004799D01*
X0022599Y0004767D01*
X002247Y0004284D01*
X001753D01*
X0017401Y0004767D01*
X0017456Y0004799D01*
X0018201Y0005544D01*
X0018727Y0006456D01*
X0019Y0007473D01*
Y0008527D01*
X0018727Y0009544D01*
X0018201Y0010456D01*
X0017456Y0011201D01*
X0016544Y0011727D01*
X0015527Y0012D01*
X0014473D01*
X0013456Y0011727D01*
X0012544Y0011201D01*
X0012284Y0010941D01*
X0011784Y0011148D01*
Y0015281D01*
X0012284Y0015488D01*
X001273Y0015042D01*
X0013573Y0014555D01*
X0014513Y0014303D01*
X0015487D01*
X0016427Y0014555D01*
X001727Y0015042D01*
X0017958Y001573D01*
X0018445Y0016573D01*
X0018697Y0017513D01*
Y0018487D01*
X0018445Y0019427D01*
X0017958Y002027D01*
X001727Y0020958D01*
X0016427Y0021445D01*
X0015487Y0021697D01*
X0014513D01*
X0013573Y0021445D01*
X001273Y0020958D01*
X0012284Y0020513D01*
X0011784Y002072D01*
Y009332D01*
X00121Y0094082D01*
Y0094918D01*
X001178Y009569D01*
X001119Y009628D01*
X0010418Y00966D01*
X0009582D01*
X0008811Y009628D01*
X000822Y009569D01*
X00079Y0094918D01*
Y0094082D01*
X0008216Y009332D01*
Y0011148D01*
X0007716Y0010941D01*
X0007456Y0011201D01*
X0006544Y0011727D01*
X0005527Y0012D01*
X00055D01*
Y0008D01*
Y0004D01*
X0005527D01*
X0006544Y0004273D01*
X0007456Y0004799D01*
X0007716Y0005059D01*
X0007918Y0005035D01*
X000824Y0004876D01*
X0008352Y0004317D01*
X0008738Y0003738D01*
X0010485Y0001991D01*
X0010294Y0001529D01*
X0001529D01*
Y0005107D01*
X0002029Y0005314D01*
X0002544Y0004799D01*
X0003456Y0004273D01*
X0004473Y0004D01*
X00045D01*
Y0008D01*
Y0012D01*
X0004473D01*
X0003456Y0011727D01*
X0002544Y0011201D01*
X0002029Y0010686D01*
X0001529Y0010893D01*
X0001529Y0193352D01*
X0082919Y0193352D01*
X008298Y0193269D01*
X008286Y0192589D01*
X008264Y0192442D01*
X008264Y0192442D01*
X0010776Y0120578D01*
X0010472D01*
X0010418Y01206D01*
X0009582D01*
X0008811Y012028D01*
X000822Y011969D01*
X00079Y0118918D01*
Y0118082D01*
X000822Y0117311D01*
X0008811Y011672D01*
X0009582Y01164D01*
X0010418D01*
X0010657Y0116499D01*
X001162D01*
X0012401Y0116654D01*
X0013062Y0117096D01*
X0084927Y0188961D01*
X0186155D01*
X0197058Y0178058D01*
X019772Y0177616D01*
X01985Y0177461D01*
X01985Y0177461D01*
X02405D01*
X024128Y0177616D01*
X0241942Y0178058D01*
X0253845Y0189961D01*
X0260261D01*
X0260327Y0189461D01*
X0259456Y0189227D01*
X0258544Y0188701D01*
X0257799Y0187956D01*
X0257273Y0187044D01*
X0257Y0186027D01*
Y0184973D01*
X0257097Y018461D01*
X0247618Y017513D01*
X01985D01*
X0197685Y0174968D01*
X0196994Y0174506D01*
X0180618Y015813D01*
X0135302D01*
X0135241Y0158118D01*
X0134188Y0157979D01*
X013315Y0157549D01*
X0132259Y0156865D01*
X0131575Y0155974D01*
X0131076Y0156076D01*
Y0159911D01*
X0131061Y0159983D01*
X0130927Y0161002D01*
X0130506Y0162018D01*
X0129837Y0162891D01*
X0128964Y0163561D01*
X0127947Y0163982D01*
X0126929Y0164116D01*
X0126857Y016413D01*
X0126784Y0164116D01*
X0125766Y0163982D01*
X012475Y0163561D01*
X0123877Y0162891D01*
X0123207Y0162018D01*
X0122786Y0161002D01*
X0122652Y0159983D01*
X0122637Y0159911D01*
Y0158178D01*
X0122632D01*
X0122619Y0158148D01*
X0122589Y0158136D01*
Y015813D01*
X01085D01*
X0107685Y0157968D01*
X0106994Y0157506D01*
X0095494Y0146006D01*
X0095408Y0145878D01*
X009522Y014569D01*
X0095118Y0145443D01*
X0095032Y0145315D01*
X0095002Y0145164D01*
X00949Y0144918D01*
Y0144651D01*
X009487Y01445D01*
X00949Y0144349D01*
Y0144082D01*
X0095002Y0143836D01*
X0095032Y0143685D01*
X0095118Y0143557D01*
X009522Y014331D01*
X0095408Y0143122D01*
X0095494Y0142994D01*
X0095622Y0142908D01*
X0095811Y014272D01*
X0096057Y0142618D01*
X0096185Y0142532D01*
X0096336Y0142502D01*
X0096582Y01424D01*
X0096849D01*
X0097Y014237D01*
X0097151Y01424D01*
X0097418D01*
X0097664Y0142502D01*
X0097815Y0142532D01*
X0097943Y0142618D01*
X009819Y014272D01*
X0098378Y0142908D01*
X0098506Y0142994D01*
X0109382Y015387D01*
X0122589D01*
X012265Y0153882D01*
X0123703Y0154021D01*
X0124741Y0154451D01*
X0125633Y0155135D01*
X0126317Y0156026D01*
X0126816Y0155924D01*
Y0152089D01*
X012683Y0152017D01*
X0126964Y0150998D01*
X0127385Y0149982D01*
X0128055Y0149109D01*
X0128928Y014844D01*
X0129944Y0148018D01*
X0130962Y0147884D01*
X0131035Y014787D01*
X0131107Y0147884D01*
X0132126Y0148018D01*
X0133142Y014844D01*
X0134015Y0149109D01*
X0134685Y0149982D01*
X0135106Y0150998D01*
X013524Y0152017D01*
X0135254Y0152089D01*
Y0153822D01*
X013526D01*
X0135273Y0153852D01*
X0135302Y0153864D01*
Y015387D01*
X01815D01*
X0182315Y0154032D01*
X0183006Y0154494D01*
X0199382Y017087D01*
X02485D01*
X0249315Y0171032D01*
X0250006Y0171494D01*
X026011Y0181597D01*
X0260473Y01815D01*
X0261527D01*
X0262544Y0181773D01*
X0263456Y0182299D01*
X0264201Y0183044D01*
X0264727Y0183956D01*
X0265Y0184973D01*
Y0186027D01*
X0264727Y0187044D01*
X0264201Y0187956D01*
X0263456Y0188701D01*
X0262544Y0189227D01*
X0261673Y0189461D01*
X0261739Y0189961D01*
X0266655D01*
X0272461Y0184155D01*
Y01505D01*
X0272616Y014972D01*
X0273058Y0149058D01*
X0279461Y0142655D01*
Y0139815D01*
X0279063Y0139585D01*
X0278324Y0138846D01*
X0277802Y0137941D01*
X0277532Y0136932D01*
Y0135887D01*
X0277802Y0134878D01*
X0278324Y0133973D01*
X0279063Y0133234D01*
X0279968Y0132711D01*
X0280978Y0132441D01*
X0282023D01*
X0283032Y0132711D01*
X0283937Y0133234D01*
X0284676Y0133973D01*
X0285198Y0134878D01*
X0285469Y0135887D01*
Y0136932D01*
X0285198Y0137941D01*
X0284676Y0138846D01*
X0283937Y0139585D01*
X0283539Y0139815D01*
Y01435D01*
X0283384Y014428D01*
X0282942Y0144942D01*
X0282942Y0144942D01*
X0276539Y0151345D01*
Y0185D01*
X0276384Y018578D01*
X0275942Y0186442D01*
X0275942Y0186442D01*
X0269493Y0192891D01*
X0269685Y0193352D01*
X0296971D01*
Y0001529D01*
D02*
G37*
%LPC*%
G36*
X0225433Y0387352D02*
X0224567D01*
X022373Y0387128D01*
X022298Y0386695D01*
X0222368Y0386083D01*
X0221935Y0385332D01*
X0221711Y0384496D01*
Y038363D01*
X0221935Y0382793D01*
X0222368Y0382044D01*
X022298Y0381431D01*
X022373Y0380998D01*
X0224567Y0380774D01*
X0225433D01*
X022627Y0380998D01*
X022702Y0381431D01*
X0227632Y0382044D01*
X0228065Y0382793D01*
X0228289Y038363D01*
Y0384496D01*
X0228065Y0385332D01*
X0227632Y0386083D01*
X022702Y0386695D01*
X022627Y0387128D01*
X0225433Y0387352D01*
D02*
G37*
G36*
X0215433D02*
X0214567D01*
X0213731Y0387128D01*
X0212981Y0386695D01*
X0212368Y0386083D01*
X0211935Y0385332D01*
X0211711Y0384496D01*
Y038363D01*
X0211935Y0382793D01*
X0212368Y0382044D01*
X0212981Y0381431D01*
X0213731Y0380998D01*
X0214567Y0380774D01*
X0215433D01*
X0216269Y0380998D01*
X021702Y0381431D01*
X0217632Y0382044D01*
X0218065Y0382793D01*
X0218289Y038363D01*
Y0384496D01*
X0218065Y0385332D01*
X0217632Y0386083D01*
X021702Y0386695D01*
X0216269Y0387128D01*
X0215433Y0387352D01*
D02*
G37*
G36*
X0208289D02*
X0201711D01*
Y0380774D01*
X0208289D01*
Y0387352D01*
D02*
G37*
G36*
X0058697Y038776D02*
X0051303D01*
Y0380366D01*
X0058697D01*
Y038776D01*
D02*
G37*
G36*
X0045487D02*
X0044513D01*
X0043573Y0387508D01*
X004273Y0387021D01*
X0042042Y0386333D01*
X0041555Y038549D01*
X0041303Y038455D01*
Y0383576D01*
X0041555Y0382636D01*
X0042042Y0381793D01*
X004273Y0381105D01*
X0043573Y0380618D01*
X0044513Y0380366D01*
X0045487D01*
X0046427Y0380618D01*
X004727Y0381105D01*
X0047958Y0381793D01*
X0048445Y0382636D01*
X0048697Y0383576D01*
Y038455D01*
X0048445Y038549D01*
X0047958Y0386333D01*
X004727Y0387021D01*
X0046427Y0387508D01*
X0045487Y038776D01*
D02*
G37*
G36*
X0035487D02*
X0034513D01*
X0033573Y0387508D01*
X003273Y0387021D01*
X0032042Y0386333D01*
X0031555Y038549D01*
X0031303Y038455D01*
Y0383576D01*
X0031555Y0382636D01*
X0032042Y0381793D01*
X003273Y0381105D01*
X0033573Y0380618D01*
X0034513Y0380366D01*
X0035487D01*
X0036427Y0380618D01*
X003727Y0381105D01*
X0037958Y0381793D01*
X0038445Y0382636D01*
X0038697Y0383576D01*
Y038455D01*
X0038445Y038549D01*
X0037958Y0386333D01*
X003727Y0387021D01*
X0036427Y0387508D01*
X0035487Y038776D01*
D02*
G37*
G36*
X0025487D02*
X0024513D01*
X0023573Y0387508D01*
X002273Y0387021D01*
X0022042Y0386333D01*
X0021555Y038549D01*
X0021303Y038455D01*
Y0383576D01*
X0021555Y0382636D01*
X0022042Y0381793D01*
X002273Y0381105D01*
X0023573Y0380618D01*
X0024513Y0380366D01*
X0025487D01*
X0026427Y0380618D01*
X002727Y0381105D01*
X0027958Y0381793D01*
X0028445Y0382636D01*
X0028697Y0383576D01*
Y038455D01*
X0028445Y038549D01*
X0027958Y0386333D01*
X002727Y0387021D01*
X0026427Y0387508D01*
X0025487Y038776D01*
D02*
G37*
G36*
X0015487D02*
X0014513D01*
X0013573Y0387508D01*
X001273Y0387021D01*
X0012042Y0386333D01*
X0011555Y038549D01*
X0011303Y038455D01*
Y0383576D01*
X0011555Y0382636D01*
X0012042Y0381793D01*
X001273Y0381105D01*
X0013573Y0380618D01*
X0014513Y0380366D01*
X0015487D01*
X0016427Y0380618D01*
X001727Y0381105D01*
X0017958Y0381793D01*
X0018445Y0382636D01*
X0018697Y0383576D01*
Y038455D01*
X0018445Y038549D01*
X0017958Y0386333D01*
X001727Y0387021D01*
X0016427Y0387508D01*
X0015487Y038776D01*
D02*
G37*
G36*
X0282023Y0387531D02*
X0280978D01*
X0279968Y0387261D01*
X0279063Y0386739D01*
X0278324Y0386D01*
X0277802Y0385095D01*
X0277532Y0384085D01*
Y0383041D01*
X0277802Y0382031D01*
X0278324Y0381126D01*
X0279063Y0380387D01*
X0279968Y0379865D01*
X0280978Y0379594D01*
X0282023D01*
X0283032Y0379865D01*
X0283937Y0380387D01*
X0284676Y0381126D01*
X0285198Y0382031D01*
X0285469Y0383041D01*
Y0384085D01*
X0285198Y0385095D01*
X0284676Y0386D01*
X0283937Y0386739D01*
X0283032Y0387261D01*
X0282023Y0387531D01*
D02*
G37*
G36*
X0261527Y0375563D02*
X0260473D01*
X0259456Y037529D01*
X0258544Y0374764D01*
X0257799Y0374019D01*
X0257273Y0373107D01*
X0257Y037209D01*
Y0371036D01*
X0257273Y0370019D01*
X0257799Y0369107D01*
X0258544Y0368362D01*
X0259456Y0367836D01*
X0260473Y0367563D01*
X0261527D01*
X0262544Y0367836D01*
X0263456Y0368362D01*
X0264201Y0369107D01*
X0264727Y0370019D01*
X0265Y0371036D01*
Y037209D01*
X0264727Y0373107D01*
X0264201Y0374019D01*
X0263456Y0374764D01*
X0262544Y037529D01*
X0261527Y0375563D01*
D02*
G37*
G36*
X0169487Y037326D02*
X0168513D01*
X0167573Y0373008D01*
X016673Y0372521D01*
X0166042Y0371833D01*
X0165555Y037099D01*
X0165303Y037005D01*
Y0369076D01*
X0165555Y0368136D01*
X0166042Y0367293D01*
X016673Y0366605D01*
X0167573Y0366118D01*
X0168513Y0365866D01*
X0169487D01*
X0170427Y0366118D01*
X017127Y0366605D01*
X0171958Y0367293D01*
X0172445Y0368136D01*
X0172697Y0369076D01*
Y037005D01*
X0172445Y037099D01*
X0171958Y0371833D01*
X017127Y0372521D01*
X0170427Y0373008D01*
X0169487Y037326D01*
D02*
G37*
G36*
X0159487D02*
X0158513D01*
X0157573Y0373008D01*
X015673Y0372521D01*
X0156042Y0371833D01*
X0155555Y037099D01*
X0155303Y037005D01*
Y0369076D01*
X0155555Y0368136D01*
X0156042Y0367293D01*
X015673Y0366605D01*
X0157573Y0366118D01*
X0158513Y0365866D01*
X0159487D01*
X0160427Y0366118D01*
X016127Y0366605D01*
X0161958Y0367293D01*
X0162445Y0368136D01*
X0162697Y0369076D01*
Y037005D01*
X0162445Y037099D01*
X0161958Y0371833D01*
X016127Y0372521D01*
X0160427Y0373008D01*
X0159487Y037326D01*
D02*
G37*
G36*
X0142697D02*
X0135303D01*
Y0372112D01*
X0098493D01*
X0097518Y0371918D01*
X0096691Y0371365D01*
X0094437Y0369112D01*
X0093D01*
X0092024Y0368918D01*
X0091198Y0368365D01*
X0090198Y0367365D01*
X0089645Y0366539D01*
X0089451Y0365563D01*
X0089645Y0364588D01*
X0090198Y0363761D01*
X0091025Y0363208D01*
X0092Y0363014D01*
X0092975Y0363208D01*
X0093802Y0363761D01*
X0094056Y0364014D01*
X0095493D01*
X0096469Y0364208D01*
X0097296Y0364761D01*
X0099549Y0367014D01*
X0135303D01*
Y0365866D01*
X0142697D01*
Y037326D01*
D02*
G37*
G36*
X0174Y0380693D02*
X0118D01*
X0117185Y0380531D01*
X0116494Y0380069D01*
X0114994Y0378569D01*
X0114908Y0378441D01*
X011472Y0378253D01*
X0114618Y0378006D01*
X0114532Y0377878D01*
X0114502Y0377727D01*
X01144Y0377481D01*
Y0377214D01*
X011437Y0377063D01*
X01144Y0376912D01*
Y0376645D01*
X0114502Y0376399D01*
X0114532Y0376248D01*
X0114618Y037612D01*
X011472Y0375873D01*
X0114908Y0375685D01*
X0114994Y0375557D01*
X0115122Y0375471D01*
X011531Y0375283D01*
X0115557Y0375181D01*
X0115685Y0375095D01*
X0115836Y0375065D01*
X0116082Y0374963D01*
X0116349D01*
X01165Y0374933D01*
X0116651Y0374963D01*
X0116918D01*
X0117164Y0375065D01*
X0117315Y0375095D01*
X0117443Y0375181D01*
X011769Y0375283D01*
X0117878Y0375471D01*
X0118006Y0375557D01*
X0118882Y0376433D01*
X0173118D01*
X0183375Y0366176D01*
X0183503Y036609D01*
X018381Y0365783D01*
X0184582Y0365463D01*
X0185418D01*
X018619Y0365783D01*
X018678Y0366373D01*
X01871Y0367145D01*
Y0367981D01*
X018678Y0368753D01*
X0186473Y036906D01*
X0186387Y0369188D01*
X0175506Y0380069D01*
X0174815Y0380531D01*
X0174Y0380693D01*
D02*
G37*
G36*
X0292022Y0367531D02*
X0290978D01*
X0289968Y0367261D01*
X0289063Y0366739D01*
X0288324Y0366D01*
X0287802Y0365095D01*
X0287531Y0364086D01*
Y0363041D01*
X0287802Y0362031D01*
X0288324Y0361126D01*
X0289063Y0360387D01*
X0289968Y0359865D01*
X0290978Y0359594D01*
X0292022D01*
X0293032Y0359865D01*
X0293937Y0360387D01*
X0294676Y0361126D01*
X0295198Y0362031D01*
X0295468Y0363041D01*
Y0364086D01*
X0295198Y0365095D01*
X0294676Y0366D01*
X0293937Y0366739D01*
X0293032Y0367261D01*
X0292022Y0367531D01*
D02*
G37*
G36*
X0282023D02*
X0280978D01*
X0279968Y0367261D01*
X0279063Y0366739D01*
X0278324Y0366D01*
X0277802Y0365095D01*
X0277532Y0364086D01*
Y0363041D01*
X0277802Y0362031D01*
X0278324Y0361126D01*
X0279063Y0360387D01*
X0279968Y0359865D01*
X0280978Y0359594D01*
X0282023D01*
X0283032Y0359865D01*
X0283937Y0360387D01*
X0284676Y0361126D01*
X0285198Y0362031D01*
X0285469Y0363041D01*
Y0364086D01*
X0285198Y0365095D01*
X0284676Y0366D01*
X0283937Y0366739D01*
X0283032Y0367261D01*
X0282023Y0367531D01*
D02*
G37*
G36*
X0261527Y0365563D02*
X0260473D01*
X0259456Y036529D01*
X0258544Y0364764D01*
X0257799Y0364019D01*
X0257273Y0363107D01*
X0257Y036209D01*
Y0361036D01*
X0257273Y0360019D01*
X0257799Y0359107D01*
X0258544Y0358362D01*
X0259456Y0357836D01*
X0260473Y0357563D01*
X0261527D01*
X0262544Y0357836D01*
X0263456Y0358362D01*
X0264201Y0359107D01*
X0264727Y0360019D01*
X0265Y0361036D01*
Y036209D01*
X0264727Y0363107D01*
X0264201Y0364019D01*
X0263456Y0364764D01*
X0262544Y036529D01*
X0261527Y0365563D01*
D02*
G37*
G36*
X0235933Y0355852D02*
X0235067D01*
X023423Y0355628D01*
X0233481Y0355195D01*
X0232868Y0354583D01*
X0232435Y0353833D01*
X0232211Y0352996D01*
Y035213D01*
X0232435Y0351293D01*
X0232868Y0350544D01*
X0233481Y0349931D01*
X023423Y0349498D01*
X0235067Y0349274D01*
X0235933D01*
X023677Y0349498D01*
X023752Y0349931D01*
X0238132Y0350544D01*
X0238565Y0351293D01*
X0238789Y035213D01*
Y0352996D01*
X0238565Y0353833D01*
X0238132Y0354583D01*
X023752Y0355195D01*
X023677Y0355628D01*
X0235933Y0355852D01*
D02*
G37*
G36*
X0282023Y0356441D02*
X0280978D01*
X0279968Y0356171D01*
X0279063Y0355648D01*
X0278324Y0354909D01*
X0277802Y0354004D01*
X0277532Y0352995D01*
Y035195D01*
X0277802Y0350941D01*
X0278324Y0350036D01*
X0279063Y0349297D01*
X0279968Y0348774D01*
X0280978Y0348504D01*
X0282023D01*
X0283032Y0348774D01*
X0283937Y0349297D01*
X0284676Y0350036D01*
X0285198Y0350941D01*
X0285469Y035195D01*
Y0352995D01*
X0285198Y0354004D01*
X0284676Y0354909D01*
X0283937Y0355648D01*
X0283032Y0356171D01*
X0282023Y0356441D01*
D02*
G37*
G36*
X0261527Y0355563D02*
X0260473D01*
X0259456Y035529D01*
X0258544Y0354764D01*
X0257799Y0354019D01*
X0257273Y0353107D01*
X0257Y035209D01*
Y0351036D01*
X0257273Y0350019D01*
X0257799Y0349107D01*
X0258544Y0348362D01*
X0259456Y0347836D01*
X0260473Y0347563D01*
X0261527D01*
X0262544Y0347836D01*
X0263456Y0348362D01*
X0264201Y0349107D01*
X0264727Y0350019D01*
X0265Y0351036D01*
Y035209D01*
X0264727Y0353107D01*
X0264201Y0354019D01*
X0263456Y0354764D01*
X0262544Y035529D01*
X0261527Y0355563D01*
D02*
G37*
G36*
Y0345563D02*
X0260473D01*
X0259456Y034529D01*
X0258544Y0344764D01*
X0257799Y0344019D01*
X0257273Y0343107D01*
X0257Y034209D01*
Y0341036D01*
X0257273Y0340019D01*
X0257799Y0339107D01*
X0258544Y0338362D01*
X0259456Y0337836D01*
X0260473Y0337563D01*
X0261527D01*
X0262544Y0337836D01*
X0263456Y0338362D01*
X0264201Y0339107D01*
X0264727Y0340019D01*
X0265Y0341036D01*
Y034209D01*
X0264727Y0343107D01*
X0264201Y0344019D01*
X0263456Y0344764D01*
X0262544Y034529D01*
X0261527Y0345563D01*
D02*
G37*
G36*
X0208Y0337193D02*
X02005D01*
X0199685Y0337031D01*
X0198994Y0336569D01*
X0197494Y0335069D01*
X0197494Y0335069D01*
X0194513Y0332089D01*
X0193835D01*
X0190665Y0335259D01*
X0190603Y03353D01*
X0189788Y0335925D01*
X0188772Y0336346D01*
X0187681Y033649D01*
X0186591Y0336346D01*
X0185574Y0335925D01*
X0184759Y03353D01*
X0184698Y0335259D01*
Y0335259D01*
X0184657Y0335197D01*
X0184032Y0334382D01*
X0183611Y0333366D01*
X0183467Y0332275D01*
X0183611Y0331184D01*
X0183869Y0330562D01*
X0183486Y0330179D01*
X0182863Y0330437D01*
X0181772Y033058D01*
X0180682Y0330437D01*
X0179665Y0330016D01*
X017885Y0329391D01*
X0178789Y032935D01*
Y032935D01*
X0178748Y0329288D01*
X0178123Y0328473D01*
X0177702Y0327457D01*
X0177558Y0326366D01*
X0177702Y0325275D01*
X0178123Y0324259D01*
X0178748Y0323444D01*
X0178789Y0323383D01*
X0178789Y0323383D01*
X0182264Y0319908D01*
X0182264Y0319908D01*
X018226Y0319903D01*
X0182272Y0319873D01*
X018226Y0319844D01*
X0182264Y0319839D01*
X0181494Y0319069D01*
X0181494Y0319069D01*
X0161109Y0298684D01*
X0160647Y0297993D01*
X0160548Y0297493D01*
X015973Y0297021D01*
X0159042Y0296333D01*
X0158555Y029549D01*
X0158303Y029455D01*
Y0293576D01*
X0158555Y0292636D01*
X0159042Y0291793D01*
X015973Y0291105D01*
X0160573Y0290618D01*
X0161513Y0290366D01*
X0162487D01*
X0163427Y0290618D01*
X016427Y0291105D01*
X0164958Y0291793D01*
X0165445Y0292636D01*
X0165697Y0293576D01*
Y029455D01*
X0165445Y029549D01*
X0164958Y0296333D01*
X016487Y0296421D01*
X0184506Y0316057D01*
X0184506Y0316057D01*
X0185276Y0316827D01*
X0185311Y0316879D01*
X0185958Y0317721D01*
X0186388Y0318759D01*
X0186534Y0319873D01*
X0186388Y0320988D01*
X0186812Y0321268D01*
X0187274Y0320806D01*
X0187274Y0320806D01*
X0187336Y0320765D01*
X0188151Y032014D01*
X0189167Y0319719D01*
X0190258Y0319576D01*
X0191348Y0319719D01*
X0192365Y032014D01*
X019318Y0320765D01*
X0193241Y0320806D01*
X0193241D01*
X0193282Y0320868D01*
X0193907Y0321683D01*
X0194328Y0322699D01*
X0194472Y032379D01*
X0194328Y0324881D01*
X0193907Y0325897D01*
X0193282Y0326712D01*
X0193241Y0326773D01*
X0192779Y0327235D01*
X019306Y032766D01*
X0194174Y0327513D01*
X0195288Y032766D01*
X0196326Y032809D01*
X0197169Y0328737D01*
X0197221Y0328771D01*
X0200506Y0332057D01*
X0200506Y0332057D01*
X0201382Y0332933D01*
X0208D01*
X0208151Y0332963D01*
X0208418D01*
X0208664Y0333065D01*
X0208815Y0333095D01*
X0208943Y0333181D01*
X020919Y0333283D01*
X0209378Y0333471D01*
X0209506Y0333557D01*
X0209592Y0333685D01*
X020978Y0333874D01*
X0209882Y033412D01*
X0209968Y0334248D01*
X0209998Y0334399D01*
X02101Y0334645D01*
Y0334912D01*
X021013Y0335063D01*
X02101Y0335214D01*
Y0335481D01*
X0209998Y0335727D01*
X0209968Y0335878D01*
X0209882Y0336006D01*
X020978Y0336253D01*
X0209592Y0336441D01*
X0209506Y0336569D01*
X0209378Y0336655D01*
X020919Y0336843D01*
X0208943Y0336945D01*
X0208815Y0337031D01*
X0208664Y0337061D01*
X0208418Y0337163D01*
X0208151D01*
X0208Y0337193D01*
D02*
G37*
G36*
X0292022Y0336441D02*
X0290978D01*
X0289968Y0336171D01*
X0289063Y0335648D01*
X0288324Y0334909D01*
X0287802Y0334004D01*
X0287531Y0332995D01*
Y033195D01*
X0287802Y0330941D01*
X0288324Y0330036D01*
X0289063Y0329297D01*
X0289968Y0328774D01*
X0290978Y0328504D01*
X0292022D01*
X0293032Y0328774D01*
X0293937Y0329297D01*
X0294676Y0330036D01*
X0295198Y0330941D01*
X0295468Y033195D01*
Y0332995D01*
X0295198Y0334004D01*
X0294676Y0334909D01*
X0293937Y0335648D01*
X0293032Y0336171D01*
X0292022Y0336441D01*
D02*
G37*
G36*
X0261527Y0335563D02*
X0260473D01*
X0259456Y033529D01*
X0258544Y0334764D01*
X0257799Y0334019D01*
X0257273Y0333107D01*
X0257Y033209D01*
Y0331036D01*
X0257273Y0330019D01*
X0257799Y0329107D01*
X0258544Y0328362D01*
X0259456Y0327836D01*
X0260473Y0327563D01*
X0261527D01*
X0262544Y0327836D01*
X0263456Y0328362D01*
X0264201Y0329107D01*
X0264727Y0330019D01*
X0265Y0331036D01*
Y033209D01*
X0264727Y0333107D01*
X0264201Y0334019D01*
X0263456Y0334764D01*
X0262544Y033529D01*
X0261527Y0335563D01*
D02*
G37*
G36*
X02085Y0345693D02*
X0182D01*
X0181185Y0345531D01*
X0180494Y0345069D01*
X0150494Y0315069D01*
X0150032Y0314378D01*
X014987Y0313563D01*
Y0297102D01*
X014973Y0297021D01*
X0149042Y0296333D01*
X0148555Y029549D01*
X0148303Y029455D01*
Y0293576D01*
X0148555Y0292636D01*
X0149042Y0291793D01*
X014973Y0291105D01*
X0150573Y0290618D01*
X0151513Y0290366D01*
X0152487D01*
X0153427Y0290618D01*
X015427Y0291105D01*
X0154958Y0291793D01*
X0155445Y0292636D01*
X0155697Y0293576D01*
Y029455D01*
X0155445Y029549D01*
X0154958Y0296333D01*
X015427Y0297021D01*
X015413Y0297102D01*
Y0312681D01*
X0182882Y0341433D01*
X0207618D01*
X0223994Y0325057D01*
X0224122Y0324971D01*
X022431Y0324783D01*
X0224557Y0324681D01*
X0224685Y0324595D01*
X0224836Y0324565D01*
X0225082Y0324463D01*
X0225349D01*
X02255Y0324433D01*
X0225651Y0324463D01*
X0225918D01*
X0226164Y0324565D01*
X0226315Y0324595D01*
X0226443Y0324681D01*
X022669Y0324783D01*
X0226878Y0324971D01*
X0227006Y0325057D01*
X0227092Y0325185D01*
X022728Y0325374D01*
X0227382Y032562D01*
X0227468Y0325748D01*
X0227498Y0325899D01*
X02276Y0326145D01*
Y0326412D01*
X022763Y0326563D01*
X02276Y0326714D01*
Y0326981D01*
X0227498Y0327227D01*
X0227468Y0327378D01*
X0227382Y0327506D01*
X022728Y0327753D01*
X0227092Y0327941D01*
X0227006Y0328069D01*
X0210006Y0345069D01*
X0209315Y0345531D01*
X02085Y0345693D01*
D02*
G37*
G36*
X0078418Y0363663D02*
X0077582D01*
X007681Y0363343D01*
X007622Y0362753D01*
X00759Y0361981D01*
Y0361145D01*
X007622Y0360373D01*
X007681Y0359783D01*
X0076957Y0359722D01*
X0081961Y0354718D01*
Y0342063D01*
X0082116Y0341283D01*
X0082558Y0340621D01*
X0119058Y0304121D01*
X0119058Y0304121D01*
X011972Y0303679D01*
X01205Y0303524D01*
X01205Y0303524D01*
X0129655D01*
X0138372Y0294807D01*
X0138303Y029455D01*
Y0293576D01*
X0138555Y0292636D01*
X0139042Y0291793D01*
X013973Y0291105D01*
X0140573Y0290618D01*
X0141513Y0290366D01*
X0142487D01*
X0143427Y0290618D01*
X014427Y0291105D01*
X0144958Y0291793D01*
X0145445Y0292636D01*
X0145697Y0293576D01*
Y029455D01*
X0145445Y029549D01*
X0144958Y0296333D01*
X014427Y0297021D01*
X0144039Y0297154D01*
Y0314718D01*
X0150845Y0321524D01*
X0152435D01*
X0152582Y0321463D01*
X0153418D01*
X015419Y0321783D01*
X015478Y0322374D01*
X01551Y0323145D01*
Y0323981D01*
X015478Y0324753D01*
X015419Y0325343D01*
X0153418Y0325663D01*
X0152582D01*
X0152435Y0325602D01*
X015D01*
X014922Y0325447D01*
X0148558Y0325005D01*
X0140558Y0317005D01*
X0140116Y0316343D01*
X0139961Y0315563D01*
Y0299639D01*
X0139499Y0299448D01*
X0131942Y0307005D01*
X013128Y0307447D01*
X01305Y0307602D01*
X0121345D01*
X0086039Y0342908D01*
Y0355563D01*
X0085884Y0356343D01*
X0085442Y0357005D01*
X0079841Y0362606D01*
X007978Y0362753D01*
X0079189Y0363343D01*
X0078418Y0363663D01*
D02*
G37*
G36*
X0261527Y0325563D02*
X0260473D01*
X0259456Y032529D01*
X0258544Y0324764D01*
X0257799Y0324019D01*
X0257273Y0323107D01*
X0257Y032209D01*
Y0321036D01*
X0257273Y0320019D01*
X0257799Y0319107D01*
X0258544Y0318362D01*
X0259456Y0317836D01*
X0260473Y0317563D01*
X0261527D01*
X0262544Y0317836D01*
X0263456Y0318362D01*
X0264201Y0319107D01*
X0264727Y0320019D01*
X0265Y0321036D01*
Y032209D01*
X0264727Y0323107D01*
X0264201Y0324019D01*
X0263456Y0324764D01*
X0262544Y032529D01*
X0261527Y0325563D01*
D02*
G37*
G36*
X0282023Y0325441D02*
X0280978D01*
X0279968Y032517D01*
X0279063Y0324648D01*
X0278324Y0323909D01*
X0277802Y0323004D01*
X0277532Y0321995D01*
Y032095D01*
X0277802Y0319941D01*
X0278324Y0319036D01*
X0279063Y0318297D01*
X0279968Y0317774D01*
X0280978Y0317504D01*
X0282023D01*
X0283032Y0317774D01*
X0283937Y0318297D01*
X0284676Y0319036D01*
X0285198Y0319941D01*
X0285469Y032095D01*
Y0321995D01*
X0285198Y0323004D01*
X0284676Y0323909D01*
X0283937Y0324648D01*
X0283032Y032517D01*
X0282023Y0325441D01*
D02*
G37*
G36*
X0198418Y0322163D02*
X0197582D01*
X019681Y0321843D01*
X019622Y0321253D01*
X01959Y0320481D01*
Y0319645D01*
X019622Y0318874D01*
X019681Y0318283D01*
X0196957Y0318222D01*
X0200558Y0314621D01*
X020122Y0314179D01*
X0202Y0314024D01*
X0218935D01*
X0219082Y0313963D01*
X0219918D01*
X022069Y0314283D01*
X022128Y0314874D01*
X02216Y0315645D01*
Y0316481D01*
X022128Y0317253D01*
X022069Y0317843D01*
X0219918Y0318163D01*
X0219082D01*
X0218935Y0318102D01*
X0202845D01*
X0199841Y0321106D01*
X019978Y0321253D01*
X019919Y0321843D01*
X0198418Y0322163D01*
D02*
G37*
G36*
X0261527Y0315563D02*
X02615D01*
Y0312063D01*
X0265D01*
Y031209D01*
X0264727Y0313107D01*
X0264201Y0314019D01*
X0263456Y0314764D01*
X0262544Y031529D01*
X0261527Y0315563D01*
D02*
G37*
G36*
X02605D02*
X0260473D01*
X0259456Y031529D01*
X0258544Y0314764D01*
X0257799Y0314019D01*
X0257273Y0313107D01*
X0257Y031209D01*
Y0312063D01*
X02605D01*
Y0315563D01*
D02*
G37*
G36*
X0219918Y0310163D02*
X0219082D01*
X0218935Y0310102D01*
X0195065D01*
X0194918Y0310163D01*
X0194082D01*
X019331Y0309843D01*
X019272Y0309253D01*
X01924Y0308481D01*
Y0307645D01*
X019272Y0306873D01*
X019331Y0306283D01*
X0194082Y0305963D01*
X0194918D01*
X0195065Y0306024D01*
X0218935D01*
X0219082Y0305963D01*
X0219918D01*
X022069Y0306283D01*
X022128Y0306873D01*
X02216Y0307645D01*
Y0308481D01*
X022128Y0309253D01*
X022069Y0309843D01*
X0219918Y0310163D01*
D02*
G37*
G36*
X0265Y0311063D02*
X02615D01*
Y0307563D01*
X0261527D01*
X0262544Y0307836D01*
X0263456Y0308362D01*
X0264201Y0309107D01*
X0264727Y0310019D01*
X0265Y0311036D01*
Y0311063D01*
D02*
G37*
G36*
X02605D02*
X0257D01*
Y0311036D01*
X0257273Y0310019D01*
X0257799Y0309107D01*
X0258544Y0308362D01*
X0259456Y0307836D01*
X0260473Y0307563D01*
X02605D01*
Y0311063D01*
D02*
G37*
G36*
X0225933Y0355852D02*
X0225067D01*
X0224231Y0355628D01*
X0223481Y0355195D01*
X0222868Y0354583D01*
X0222435Y0353833D01*
X0222211Y0352996D01*
Y035213D01*
X0222435Y0351293D01*
X0222868Y0350544D01*
X0223461Y0349951D01*
Y0344563D01*
X0223616Y0343783D01*
X0224058Y0343121D01*
X0233961Y0333218D01*
Y0314908D01*
X0222155Y0303102D01*
X0189D01*
X018822Y0302947D01*
X0187558Y0302505D01*
X0187558Y0302505D01*
X0182744Y0297691D01*
X0182487Y029776D01*
X0181513D01*
X0180573Y0297508D01*
X017973Y0297021D01*
X0179042Y0296333D01*
X0178555Y029549D01*
X0178303Y029455D01*
Y0293576D01*
X0178555Y0292636D01*
X0179042Y0291793D01*
X017973Y0291105D01*
X0180573Y0290618D01*
X0181513Y0290366D01*
X0182487D01*
X0183427Y0290618D01*
X018427Y0291105D01*
X0184958Y0291793D01*
X0185445Y0292636D01*
X0185697Y0293576D01*
Y029455D01*
X0185628Y0294807D01*
X0189845Y0299024D01*
X0223D01*
X022378Y0299179D01*
X0224442Y0299621D01*
X0237442Y0312621D01*
X0237884Y0313283D01*
X0238039Y0314063D01*
X0238039Y0314063D01*
Y0334063D01*
X0237884Y0334843D01*
X0237442Y0335505D01*
X0227539Y0345408D01*
Y0349951D01*
X0228132Y0350544D01*
X0228565Y0351293D01*
X0228789Y035213D01*
Y0352996D01*
X0228565Y0353833D01*
X0228132Y0354583D01*
X0227519Y0355195D01*
X0226769Y0355628D01*
X0225933Y0355852D01*
D02*
G37*
G36*
X0244Y0363602D02*
X02245D01*
X022372Y0363447D01*
X0223058Y0363005D01*
X0215905Y0355852D01*
X0212211D01*
Y0349274D01*
X0218789D01*
Y0352968D01*
X0225345Y0359524D01*
X0243155D01*
X0249961Y0352718D01*
Y0310563D01*
X0250116Y0309783D01*
X0250558Y0309121D01*
X0257125Y0302555D01*
X0257Y030209D01*
Y0301036D01*
X0257273Y0300019D01*
X0257799Y0299107D01*
X0258544Y0298362D01*
X0259456Y0297836D01*
X0260473Y0297563D01*
X0261527D01*
X0262544Y0297836D01*
X0263456Y0298362D01*
X0264201Y0299107D01*
X0264727Y0300019D01*
X0265Y0301036D01*
Y030209D01*
X0264727Y0303107D01*
X0264201Y0304019D01*
X0263456Y0304764D01*
X0262544Y030529D01*
X0261527Y0305563D01*
X0260473D01*
X0260008Y0305438D01*
X0254039Y0311408D01*
Y0353563D01*
X0253884Y0354343D01*
X0253442Y0355005D01*
X0245442Y0363005D01*
X024478Y0363447D01*
X0244Y0363602D01*
D02*
G37*
G36*
X0292022Y0305441D02*
X0290978D01*
X0289968Y030517D01*
X0289063Y0304648D01*
X0288324Y0303909D01*
X0287802Y0303004D01*
X0287531Y0301995D01*
Y030095D01*
X0287802Y0299941D01*
X0288324Y0299036D01*
X0289063Y0298297D01*
X0289968Y0297774D01*
X0290978Y0297504D01*
X0292022D01*
X0293032Y0297774D01*
X0293937Y0298297D01*
X0294676Y0299036D01*
X0295198Y0299941D01*
X0295468Y030095D01*
Y0301995D01*
X0295198Y0303004D01*
X0294676Y0303909D01*
X0293937Y0304648D01*
X0293032Y030517D01*
X0292022Y0305441D01*
D02*
G37*
G36*
X0282023D02*
X0280978D01*
X0279968Y030517D01*
X0279063Y0304648D01*
X0278324Y0303909D01*
X0277802Y0303004D01*
X0277532Y0301995D01*
Y030095D01*
X027765Y0300507D01*
X026968Y0292536D01*
X0269238Y0291875D01*
X0269083Y0291094D01*
Y0284201D01*
X0265984Y0281102D01*
X0256845D01*
X0254442Y0283505D01*
X0254442Y0283505D01*
X0243942Y0294005D01*
X024328Y0294447D01*
X02425Y0294602D01*
X0235D01*
X023422Y0294447D01*
X0233558Y0294005D01*
X0221655Y0282102D01*
X0054D01*
X005322Y0281947D01*
X0052558Y0281505D01*
X0050655Y0279602D01*
X0037D01*
X003622Y0279447D01*
X0035558Y0279005D01*
X0028058Y0271505D01*
X0027616Y0270843D01*
X0027461Y0270063D01*
Y0231563D01*
X0027616Y0230783D01*
X0028058Y0230121D01*
X004197Y0216209D01*
X0041555Y021549D01*
X0041303Y021455D01*
Y0213576D01*
X0041555Y0212636D01*
X0042042Y0211793D01*
X004273Y0211105D01*
X0043573Y0210618D01*
X0044513Y0210366D01*
X0045487D01*
X0046427Y0210618D01*
X004727Y0211105D01*
X0047958Y0211793D01*
X0048445Y0212636D01*
X0048697Y0213576D01*
Y021455D01*
X0048445Y021549D01*
X0047958Y0216333D01*
X004727Y0217021D01*
X0046427Y0217508D01*
X004618Y0217574D01*
X0045793Y0218154D01*
X0031539Y0232408D01*
Y0269218D01*
X0037845Y0275524D01*
X00515D01*
X005228Y0275679D01*
X0052942Y0276121D01*
X0054845Y0278024D01*
X02225D01*
X022328Y0278179D01*
X0223942Y0278621D01*
X0235845Y0290524D01*
X0241655D01*
X0251558Y0280621D01*
X0251558Y0280621D01*
X0254558Y0277621D01*
X025522Y0277179D01*
X0256Y0277024D01*
X0266828D01*
X0267609Y0277179D01*
X026827Y0277621D01*
X0272564Y0281915D01*
X0272564Y0281915D01*
X0272745Y0282185D01*
X0278878D01*
Y0288941D01*
X0273161D01*
Y029025D01*
X0280534Y0297623D01*
X0280978Y0297504D01*
X0282023D01*
X0283032Y0297774D01*
X0283937Y0298297D01*
X0284676Y0299036D01*
X0285198Y0299941D01*
X0285469Y030095D01*
Y0301995D01*
X0285198Y0303004D01*
X0284676Y0303909D01*
X0283937Y0304648D01*
X0283032Y030517D01*
X0282023Y0305441D01*
D02*
G37*
G36*
X0172487Y029776D02*
X0171513D01*
X0170573Y0297508D01*
X016973Y0297021D01*
X0169042Y0296333D01*
X0168555Y029549D01*
X0168303Y029455D01*
Y0293576D01*
X0168555Y0292636D01*
X0169042Y0291793D01*
X016973Y0291105D01*
X0170573Y0290618D01*
X0171513Y0290366D01*
X0172487D01*
X0173427Y0290618D01*
X017427Y0291105D01*
X0174958Y0291793D01*
X0175445Y0292636D01*
X0175697Y0293576D01*
Y029455D01*
X0175445Y029549D01*
X0174958Y0296333D01*
X017427Y0297021D01*
X0173427Y0297508D01*
X0172487Y029776D01*
D02*
G37*
G36*
X0073918Y0358163D02*
X0073082D01*
X0072311Y0357843D01*
X007172Y0357253D01*
X00714Y0356481D01*
Y0355645D01*
X0071461Y0355499D01*
Y0342063D01*
X0071616Y0341283D01*
X0072058Y0340621D01*
X0109159Y030352D01*
X010922Y0303374D01*
X010981Y0302783D01*
X0109957Y0302722D01*
X0118303Y0294376D01*
Y0293576D01*
X0118555Y0292636D01*
X0119042Y0291793D01*
X011973Y0291105D01*
X0120573Y0290618D01*
X0121513Y0290366D01*
X0122487D01*
X0123427Y0290618D01*
X012427Y0291105D01*
X0124958Y0291793D01*
X0125445Y0292636D01*
X0125697Y0293576D01*
Y029455D01*
X0125445Y029549D01*
X0124958Y0296333D01*
X012427Y0297021D01*
X0123427Y0297508D01*
X0122487Y029776D01*
X0121513D01*
X0120862Y0297585D01*
X0112841Y0305606D01*
X011278Y0305753D01*
X011219Y0306343D01*
X0112043Y0306404D01*
X0075539Y0342908D01*
Y0355499D01*
X00756Y0355645D01*
Y0356481D01*
X007528Y0357253D01*
X007469Y0357843D01*
X0073918Y0358163D01*
D02*
G37*
G36*
X0235Y0303193D02*
X0233D01*
X0232185Y0303031D01*
X0231494Y0302569D01*
X0217118Y0288193D01*
X0140882D01*
X0135655Y029342D01*
X0135697Y0293576D01*
Y029455D01*
X0135445Y029549D01*
X0134958Y0296333D01*
X013427Y0297021D01*
X0133427Y0297508D01*
X0132487Y029776D01*
X0131513D01*
X0130573Y0297508D01*
X012973Y0297021D01*
X0129042Y0296333D01*
X0128555Y029549D01*
X0128303Y029455D01*
Y0293576D01*
X0128555Y0292636D01*
X0129042Y0291793D01*
X012973Y0291105D01*
X0130573Y0290618D01*
X0131513Y0290366D01*
X0132487D01*
X0132643Y0290408D01*
X0138494Y0284557D01*
X0139185Y0284095D01*
X014Y0283933D01*
X0218D01*
X0218815Y0284095D01*
X0219506Y0284557D01*
X0233882Y0298933D01*
X0235D01*
X0235151Y0298963D01*
X0235418D01*
X0235664Y0299065D01*
X0235815Y0299095D01*
X0235943Y0299181D01*
X023619Y0299283D01*
X0236378Y0299471D01*
X0236506Y0299557D01*
X0236592Y0299685D01*
X023678Y0299873D01*
X0236882Y030012D01*
X0236968Y0300248D01*
X0236998Y0300399D01*
X02371Y0300645D01*
Y0300912D01*
X023713Y0301063D01*
X02371Y0301214D01*
Y0301481D01*
X0236998Y0301727D01*
X0236968Y0301878D01*
X0236882Y0302006D01*
X023678Y0302253D01*
X0236592Y0302441D01*
X0236506Y0302569D01*
X0236378Y0302655D01*
X023619Y0302843D01*
X0235943Y0302945D01*
X0235815Y0303031D01*
X0235664Y0303061D01*
X0235418Y0303163D01*
X0235151D01*
X0235Y0303193D01*
D02*
G37*
G36*
X0265237Y0289039D02*
X0264322D01*
X0263438Y0288803D01*
X0262645Y0288345D01*
X0261998Y0287698D01*
X026154Y0286905D01*
X0261303Y0286021D01*
Y0285105D01*
X026154Y0284221D01*
X0261998Y0283429D01*
X0262645Y0282781D01*
X0263438Y0282324D01*
X0264322Y0282087D01*
X0265237D01*
X0266121Y0282324D01*
X0266914Y0282781D01*
X0267561Y0283429D01*
X0268019Y0284221D01*
X0268256Y0285105D01*
Y0286021D01*
X0268019Y0286905D01*
X0267561Y0287698D01*
X0266914Y0288345D01*
X0266121Y0288803D01*
X0265237Y0289039D01*
D02*
G37*
G36*
X0237678D02*
X0236763D01*
X0235879Y0288803D01*
X0235086Y0288345D01*
X0234439Y0287698D01*
X0233981Y0286905D01*
X0233744Y0286021D01*
Y0285905D01*
X0224442Y0276602D01*
X00675D01*
X006672Y0276447D01*
X0066058Y0276005D01*
X0060655Y0270602D01*
X0055996D01*
X0055766Y0271D01*
X0055027Y0271739D01*
X0054122Y0272261D01*
X0053113Y0272532D01*
X0052068D01*
X0051059Y0272261D01*
X0050154Y0271739D01*
X0049415Y0271D01*
X0048893Y0270095D01*
X0048701Y0269382D01*
X0039337D01*
X0039282Y0269477D01*
X0038635Y0270124D01*
X0037842Y0270582D01*
X0036958Y0270819D01*
X0036042D01*
X0035158Y0270582D01*
X0034365Y0270124D01*
X0033718Y0269477D01*
X0033261Y0268684D01*
X0033024Y02678D01*
Y0266885D01*
X0033261Y0266001D01*
X0033718Y0265208D01*
X0034365Y0264561D01*
X0035158Y0264103D01*
X0036042Y0263866D01*
X0036958D01*
X0037842Y0264103D01*
X0038635Y0264561D01*
X0039282Y0265208D01*
X0039337Y0265303D01*
X00503D01*
X0051059Y0264865D01*
X0052068Y0264595D01*
X0053113D01*
X0054122Y0264865D01*
X0055027Y0265387D01*
X0055766Y0266126D01*
X0055996Y0266524D01*
X00615D01*
X006228Y0266679D01*
X0062942Y0267121D01*
X0068345Y0272524D01*
X0070514D01*
X0070648Y0272024D01*
X0070154Y0271739D01*
X0069415Y0271D01*
X0068893Y0270095D01*
X0068622Y0269086D01*
Y0268041D01*
X0068893Y0267031D01*
X0069415Y0266126D01*
X0070154Y0265387D01*
X0071059Y0264865D01*
X0072068Y0264595D01*
X0073113D01*
X0074122Y0264865D01*
X0075027Y0265387D01*
X0075766Y0266126D01*
X0076289Y0267031D01*
X0076559Y0268041D01*
Y0269086D01*
X0076289Y0270095D01*
X0075766Y0271D01*
X0075027Y0271739D01*
X0074533Y0272024D01*
X0074667Y0272524D01*
X0083098D01*
X0083147Y0272024D01*
X0082615Y0271918D01*
X0081788Y0271365D01*
X0072954Y0262531D01*
X0072068D01*
X0071059Y0262261D01*
X0070154Y0261739D01*
X0069415Y0261D01*
X006909Y0260437D01*
X0068825D01*
X0067849Y0260243D01*
X0067023Y025969D01*
X0051364Y0244032D01*
X0050477D01*
X0049468Y0243761D01*
X0048563Y0243239D01*
X0047824Y02425D01*
X0047302Y0241595D01*
X0047032Y0240585D01*
Y0239541D01*
X0047302Y0238531D01*
X0047824Y0237626D01*
X0048563Y0236887D01*
X0049468Y0236365D01*
X0050477Y0236094D01*
X0051522D01*
X0052532Y0236365D01*
X0053437Y0236887D01*
X0054176Y0237626D01*
X0054698Y0238531D01*
X0054969Y0239541D01*
Y0240427D01*
X0069881Y0255339D01*
X0070238D01*
X0071059Y0254865D01*
X0072068Y0254594D01*
X0073113D01*
X0074122Y0254865D01*
X0075027Y0255387D01*
X0075766Y0256126D01*
X0076289Y0257031D01*
X0076559Y0258041D01*
Y0258927D01*
X0084646Y0267014D01*
X0117099D01*
X0117255Y0266514D01*
X0116718Y0265977D01*
X0116261Y0265184D01*
X0116024Y02643D01*
Y0263385D01*
X0116261Y0262501D01*
X0116718Y0261708D01*
X0117366Y0261061D01*
X0118158Y0260603D01*
X0119042Y0260366D01*
X0119958D01*
X0120842Y0260603D01*
X0121634Y0261061D01*
X0122282Y0261708D01*
X012274Y0262501D01*
X0122976Y0263385D01*
Y02643D01*
X012274Y0265184D01*
X0122282Y0265977D01*
X0121745Y0266514D01*
X0121901Y0267014D01*
X0133035D01*
X0138531Y0261517D01*
Y0260631D01*
X0138802Y0259622D01*
X0139324Y0258717D01*
X0140063Y0257978D01*
X0140968Y0257455D01*
X0141978Y0257185D01*
X0143023D01*
X0144032Y0257455D01*
X0144937Y0257978D01*
X0145676Y0258717D01*
X0146198Y0259622D01*
X0146468Y0260631D01*
Y0261517D01*
X0150465Y0265514D01*
X0160009D01*
X0160074Y0265014D01*
X0159468Y0264852D01*
X0158563Y0264329D01*
X0157824Y026359D01*
X0157302Y0262685D01*
X0157032Y0261676D01*
Y0260631D01*
X0157302Y0259622D01*
X0157824Y0258717D01*
X0158563Y0257978D01*
X0159468Y0257455D01*
X0160477Y0257185D01*
X0161522D01*
X0162532Y0257455D01*
X0163437Y0257978D01*
X0164176Y0258717D01*
X0164698Y0259622D01*
X0164969Y0260631D01*
Y0261676D01*
X0164698Y0262685D01*
X0164176Y026359D01*
X0163437Y0264329D01*
X0162532Y0264852D01*
X0161926Y0265014D01*
X0161992Y0265514D01*
X0163035D01*
X0167032Y0261517D01*
Y0260631D01*
X0167302Y0259622D01*
X0167824Y0258717D01*
X0168563Y0257978D01*
X0169468Y0257455D01*
X0170477Y0257185D01*
X0171522D01*
X0172532Y0257455D01*
X0173437Y0257978D01*
X0174063Y0258605D01*
X0224091D01*
X0225066Y0258799D01*
X0225893Y0259351D01*
X023347Y0266928D01*
X0233918Y0266669D01*
X0233744Y0266021D01*
Y0265105D01*
X0233981Y0264221D01*
X0234439Y0263428D01*
X0235086Y0262781D01*
X0235181Y0262726D01*
Y0260128D01*
X0231155Y0256102D01*
X0096624D01*
X0090448Y0262279D01*
X0090476Y0262385D01*
Y02633D01*
X009024Y0264184D01*
X0089782Y0264977D01*
X0089135Y0265624D01*
X0088342Y0266082D01*
X0087458Y0266319D01*
X0086542D01*
X0085658Y0266082D01*
X0084865Y0265624D01*
X0084218Y0264977D01*
X008376Y0264184D01*
X0083524Y02633D01*
Y0262385D01*
X0083552Y0262279D01*
X0082058Y0260785D01*
X0081616Y0260123D01*
X0081461Y0259343D01*
Y0242908D01*
X007236Y0233807D01*
X0071522Y0234032D01*
X0070477D01*
X0069468Y0233761D01*
X0068563Y0233239D01*
X0067824Y02325D01*
X0067302Y0231595D01*
X0067032Y0230586D01*
Y0229541D01*
X0067302Y0228531D01*
X0067824Y0227626D01*
X0068563Y0226887D01*
X0069468Y0226365D01*
X0070477Y0226095D01*
X0071522D01*
X0072532Y0226365D01*
X0073437Y0226887D01*
X0074176Y0227626D01*
X0074698Y0228531D01*
X0074968Y0229541D01*
Y0230586D01*
X0074955Y0230634D01*
X0084942Y0240621D01*
X0085384Y0241283D01*
X0085539Y0242063D01*
Y0258498D01*
X0086436Y0259395D01*
X0086542Y0259366D01*
X0087458D01*
X0087564Y0259395D01*
X0094338Y0252621D01*
X0094999Y0252179D01*
X009578Y0252024D01*
X0232D01*
X023278Y0252179D01*
X0233442Y0252621D01*
X0238662Y0257842D01*
X0239104Y0258503D01*
X023926Y0259283D01*
Y0262726D01*
X0239355Y0262781D01*
X0240002Y0263428D01*
X024046Y0264221D01*
X0240697Y0265105D01*
Y0266021D01*
X024046Y0266905D01*
X0240002Y0267698D01*
X0239355Y0268345D01*
X0238562Y0268802D01*
X0237678Y0269039D01*
X0236763D01*
X0236115Y0268866D01*
X0235856Y0269314D01*
X0237056Y0270514D01*
X0243944D01*
X0246451Y0268007D01*
Y0228619D01*
X0239944Y0222112D01*
X0237839D01*
X0237773Y0222612D01*
X0238562Y0222824D01*
X0239355Y0223281D01*
X0240002Y0223928D01*
X024046Y0224721D01*
X0240697Y0225605D01*
Y0226521D01*
X024046Y0227405D01*
X0240002Y0228198D01*
X0239355Y0228845D01*
X0238562Y0229303D01*
X0237678Y0229539D01*
X0236763D01*
X0236656Y0229511D01*
X0225162Y0241005D01*
X0224501Y0241447D01*
X0223721Y0241602D01*
X0186D01*
X0186Y0241602D01*
X018522Y0241447D01*
X0184558Y0241005D01*
X0180935Y0237382D01*
X0173404D01*
X017327Y0237882D01*
X0173437Y0237978D01*
X0174176Y0238717D01*
X0174698Y0239622D01*
X0174969Y0240631D01*
Y0241676D01*
X0174698Y0242685D01*
X0174176Y024359D01*
X0173437Y0244329D01*
X0172532Y0244852D01*
X0171522Y0245122D01*
X0170477D01*
X0169468Y0244852D01*
X0168563Y0244329D01*
X0167824Y024359D01*
X0167302Y0242685D01*
X0167032Y0241676D01*
Y0240631D01*
X0167302Y0239622D01*
X0167824Y0238717D01*
X0168563Y0237978D01*
X016873Y0237882D01*
X0168596Y0237382D01*
X0167656D01*
X016485Y0240188D01*
X0164969Y0240631D01*
Y0241676D01*
X0164698Y0242685D01*
X0164176Y024359D01*
X0163437Y0244329D01*
X0162532Y0244852D01*
X0161522Y0245122D01*
X0160477D01*
X0159468Y0244852D01*
X0158563Y0244329D01*
X0157824Y024359D01*
X0157302Y0242685D01*
X0157032Y0241676D01*
Y0240631D01*
X015715Y0240188D01*
X0151838Y0234875D01*
X0151396Y0234213D01*
X015124Y0233433D01*
Y02299D01*
X0151145Y0229845D01*
X0150498Y0229198D01*
X015004Y0228405D01*
X0149803Y0227521D01*
Y0226605D01*
X015004Y0225721D01*
X0150498Y0224928D01*
X0151145Y0224281D01*
X0151938Y0223823D01*
X0152822Y0223587D01*
X0153737D01*
X0154621Y0223823D01*
X0155414Y0224281D01*
X0156061Y0224928D01*
X0156519Y0225721D01*
X0156756Y0226605D01*
Y0227521D01*
X0156519Y0228405D01*
X0156061Y0229198D01*
X0155414Y0229845D01*
X0155319Y02299D01*
Y0232589D01*
X0160034Y0237304D01*
X0160477Y0237185D01*
X0161522D01*
X0161966Y0237304D01*
X0165369Y0233901D01*
X0166031Y0233459D01*
X0166811Y0233303D01*
X018178D01*
X018256Y0233459D01*
X0183221Y0233901D01*
X0186845Y0237524D01*
X0222876D01*
X0233773Y0226627D01*
X0233744Y0226521D01*
Y0225605D01*
X0233981Y0224721D01*
X0234439Y0223928D01*
X0235086Y0223281D01*
X0235879Y0222824D01*
X0236668Y0222612D01*
X0236602Y0222112D01*
X0229646D01*
X0222468Y022929D01*
Y0230176D01*
X0222198Y0231185D01*
X0221676Y023209D01*
X0220937Y0232829D01*
X0220032Y0233352D01*
X0219022Y0233622D01*
X0217977D01*
X0216968Y0233352D01*
X0216063Y0232829D01*
X0215324Y023209D01*
X0214802Y0231185D01*
X0214531Y0230176D01*
Y0229131D01*
X0214802Y0228122D01*
X0215324Y0227217D01*
X0216063Y0226478D01*
X0216968Y0225956D01*
X0217977Y0225685D01*
X0218864D01*
X0226788Y0217761D01*
X0227615Y0217208D01*
X0228591Y0217014D01*
X0241D01*
X0241975Y0217208D01*
X0242802Y0217761D01*
X0250802Y0225761D01*
X0251355Y0226588D01*
X0251549Y0227563D01*
Y0269063D01*
X0251355Y0270039D01*
X0250802Y0270865D01*
X0246802Y0274865D01*
X0245975Y0275418D01*
X0245Y0275612D01*
X0236D01*
X0235024Y0275418D01*
X0234198Y0274865D01*
X0223035Y0263703D01*
X0220997D01*
X0220948Y0264203D01*
X0220975Y0264208D01*
X0221802Y0264761D01*
X0221841Y0264799D01*
X0222393Y0265626D01*
X0222436Y026584D01*
X0223302Y0266706D01*
X0223855Y0267533D01*
X0224049Y0268509D01*
Y0268563D01*
X0223855Y0269538D01*
X0223302Y0270365D01*
X0222476Y0270918D01*
X02215Y0271112D01*
X0220525Y0270918D01*
X022Y0270567D01*
X0219476Y0270918D01*
X02185Y0271112D01*
X0191D01*
X0190024Y0270918D01*
X0189198Y0270365D01*
X0187198Y0268365D01*
X0186645Y0267538D01*
X0186598Y02673D01*
X0185948Y0266865D01*
X0185694Y0266612D01*
X0174D01*
X0173024Y0266418D01*
X0172198Y0265865D01*
X0171454Y0265122D01*
X0170636D01*
X0165893Y0269865D01*
X0165066Y0270418D01*
X0164091Y0270612D01*
X0149409D01*
X0148434Y0270418D01*
X0147607Y0269865D01*
X0142864Y0265122D01*
X0142136D01*
X0135893Y0271365D01*
X0135066Y0271918D01*
X0134534Y0272024D01*
X0134583Y0272524D01*
X0225286D01*
X0226066Y0272679D01*
X0226728Y0273121D01*
X023592Y0282313D01*
X0236763Y0282087D01*
X0237678D01*
X0238562Y0282324D01*
X0239355Y0282781D01*
X0240002Y0283429D01*
X024046Y0284221D01*
X0240697Y0285105D01*
Y0286021D01*
X024046Y0286905D01*
X0240002Y0287698D01*
X0239355Y0288345D01*
X0238562Y0288803D01*
X0237678Y0289039D01*
D02*
G37*
G36*
X0278938Y0268941D02*
X0272182D01*
Y0262185D01*
X0278938D01*
Y0268941D01*
D02*
G37*
G36*
X0265237Y0269039D02*
X0264322D01*
X0263438Y0268802D01*
X0262645Y0268345D01*
X0261998Y0267698D01*
X026154Y0266905D01*
X0261303Y0266021D01*
Y0265105D01*
X026154Y0264221D01*
X0261998Y0263428D01*
X0262645Y0262781D01*
X0263438Y0262323D01*
X0264322Y0262087D01*
X0265237D01*
X0266121Y0262323D01*
X0266914Y0262781D01*
X0267561Y0263428D01*
X0268019Y0264221D01*
X0268256Y0265105D01*
Y0266021D01*
X0268019Y0266905D01*
X0267561Y0267698D01*
X0266914Y0268345D01*
X0266121Y0268802D01*
X0265237Y0269039D01*
D02*
G37*
G36*
X0133022Y0265122D02*
X0131977D01*
X0130968Y0264852D01*
X0130063Y0264329D01*
X0129324Y026359D01*
X0128802Y0262685D01*
X0128532Y0261676D01*
Y0260631D01*
X0128802Y0259622D01*
X0129324Y0258717D01*
X0130063Y0257978D01*
X0130968Y0257455D01*
X0131977Y0257185D01*
X0133022D01*
X0134032Y0257455D01*
X0134937Y0257978D01*
X0135676Y0258717D01*
X0136198Y0259622D01*
X0136469Y0260631D01*
Y0261676D01*
X0136198Y0262685D01*
X0135676Y026359D01*
X0134937Y0264329D01*
X0134032Y0264852D01*
X0133022Y0265122D01*
D02*
G37*
G36*
X0053113Y0262531D02*
X0052068D01*
X0051059Y0262261D01*
X0050154Y0261739D01*
X0049415Y0261D01*
X0048893Y0260095D01*
X0048622Y0259085D01*
Y0258041D01*
X0048893Y0257031D01*
X0049415Y0256126D01*
X0050154Y0255387D01*
X0051059Y0254865D01*
X0052068Y0254594D01*
X0053113D01*
X0054122Y0254865D01*
X0055027Y0255387D01*
X0055766Y0256126D01*
X0056289Y0257031D01*
X0056559Y0258041D01*
Y0259085D01*
X0056289Y0260095D01*
X0055766Y0261D01*
X0055027Y0261739D01*
X0054122Y0262261D01*
X0053113Y0262531D01*
D02*
G37*
G36*
X0278957Y0248941D02*
X0272201D01*
Y0242185D01*
X0278957D01*
Y0248941D01*
D02*
G37*
G36*
X0265237Y0249039D02*
X0264322D01*
X0263438Y0248802D01*
X0262645Y0248345D01*
X0261998Y0247698D01*
X026154Y0246905D01*
X0261303Y0246021D01*
Y0245105D01*
X026154Y0244221D01*
X0261998Y0243428D01*
X0262645Y0242781D01*
X0263438Y0242323D01*
X0264322Y0242087D01*
X0265237D01*
X0266121Y0242323D01*
X0266914Y0242781D01*
X0267561Y0243428D01*
X0268019Y0244221D01*
X0268256Y0245105D01*
Y0246021D01*
X0268019Y0246905D01*
X0267561Y0247698D01*
X0266914Y0248345D01*
X0266121Y0248802D01*
X0265237Y0249039D01*
D02*
G37*
G36*
X0234615Y0250102D02*
X0139409D01*
X0138629Y0249947D01*
X0137968Y0249505D01*
X0133466Y0245003D01*
X0133022Y0245122D01*
X0131977D01*
X0130968Y0244852D01*
X0130063Y0244329D01*
X0129324Y024359D01*
X0128802Y0242685D01*
X0128532Y0241676D01*
Y0240631D01*
X0128802Y0239622D01*
X0129324Y0238717D01*
X0130063Y0237978D01*
X0130968Y0237456D01*
X0131977Y0237185D01*
X0133022D01*
X0134032Y0237456D01*
X0134937Y0237978D01*
X0135676Y0238717D01*
X0136198Y0239622D01*
X0136469Y0240631D01*
Y0241676D01*
X013635Y0242119D01*
X0140254Y0246024D01*
X0233742D01*
X0233744Y0246021D01*
Y0245105D01*
X0233981Y0244221D01*
X0234439Y0243428D01*
X0235086Y0242781D01*
X0235879Y0242323D01*
X0236763Y0242087D01*
X0237678D01*
X0238562Y0242323D01*
X0239355Y0242781D01*
X0240002Y0243428D01*
X024046Y0244221D01*
X0240697Y0245105D01*
Y0246021D01*
X024046Y0246905D01*
X0240002Y0247698D01*
X0239355Y0248345D01*
X0238562Y0248802D01*
X0237678Y0249039D01*
X0236763D01*
X0236574Y0248989D01*
X0236057Y0249505D01*
X0235396Y0249947D01*
X0234615Y0250102D01*
D02*
G37*
G36*
X0143023Y0245122D02*
X0141978D01*
X0140968Y0244852D01*
X0140063Y0244329D01*
X0139324Y024359D01*
X0138802Y0242685D01*
X0138531Y0241676D01*
Y0240631D01*
X0138802Y0239622D01*
X0139324Y0238717D01*
X0140063Y0237978D01*
X0140968Y0237456D01*
X0141978Y0237185D01*
X0143023D01*
X0144032Y0237456D01*
X0144937Y0237978D01*
X0145676Y0238717D01*
X0146198Y0239622D01*
X0146468Y0240631D01*
Y0241676D01*
X0146198Y0242685D01*
X0145676Y024359D01*
X0144937Y0244329D01*
X0144032Y0244852D01*
X0143023Y0245122D01*
D02*
G37*
G36*
X0071522Y0244032D02*
X0070477D01*
X0069468Y0243761D01*
X0068563Y0243239D01*
X0067824Y02425D01*
X0067302Y0241595D01*
X0067032Y0240585D01*
Y0239541D01*
X0067302Y0238531D01*
X0067824Y0237626D01*
X0068563Y0236887D01*
X0069468Y0236365D01*
X0070477Y0236094D01*
X0071522D01*
X0072532Y0236365D01*
X0073437Y0236887D01*
X0074176Y0237626D01*
X0074698Y0238531D01*
X0074968Y0239541D01*
Y0240585D01*
X0074698Y0241595D01*
X0074176Y02425D01*
X0073437Y0243239D01*
X0072532Y0243761D01*
X0071522Y0244032D01*
D02*
G37*
G36*
X0051522Y0234032D02*
X0050477D01*
X0049468Y0233761D01*
X0048563Y0233239D01*
X0047824Y02325D01*
X0047302Y0231595D01*
X0047032Y0230586D01*
Y0229541D01*
X0047302Y0228531D01*
X0047824Y0227626D01*
X0048563Y0226887D01*
X0049468Y0226365D01*
X0050477Y0226095D01*
X0051522D01*
X0052532Y0226365D01*
X0053437Y0226887D01*
X0054176Y0227626D01*
X0054698Y0228531D01*
X0054969Y0229541D01*
Y0230586D01*
X0054698Y0231595D01*
X0054176Y02325D01*
X0053437Y0233239D01*
X0052532Y0233761D01*
X0051522Y0234032D01*
D02*
G37*
G36*
X0209022Y0233622D02*
X0207978D01*
X0206968Y0233352D01*
X0206063Y0232829D01*
X0205324Y023209D01*
X0204802Y0231185D01*
X0204532Y0230176D01*
Y0229131D01*
X0204802Y0228122D01*
X0205324Y0227217D01*
X0206063Y0226478D01*
X0206968Y0225956D01*
X0207978Y0225685D01*
X0209022D01*
X0210032Y0225956D01*
X0210937Y0226478D01*
X0211676Y0227217D01*
X0212198Y0228122D01*
X0212469Y0229131D01*
Y0230176D01*
X0212198Y0231185D01*
X0211676Y023209D01*
X0210937Y0232829D01*
X0210032Y0233352D01*
X0209022Y0233622D01*
D02*
G37*
G36*
X027886Y0229441D02*
X0272104D01*
Y0222685D01*
X027886D01*
Y0229441D01*
D02*
G37*
G36*
X0265237Y0229539D02*
X0264322D01*
X0263438Y0229303D01*
X0262645Y0228845D01*
X0261998Y0228198D01*
X026154Y0227405D01*
X0261303Y0226521D01*
Y0225605D01*
X026154Y0224721D01*
X0261998Y0223928D01*
X0262645Y0223281D01*
X0263438Y0222824D01*
X0264322Y0222587D01*
X0265237D01*
X0266121Y0222824D01*
X0266914Y0223281D01*
X0267561Y0223928D01*
X0268019Y0224721D01*
X0268256Y0225605D01*
Y0226521D01*
X0268019Y0227405D01*
X0267561Y0228198D01*
X0266914Y0228845D01*
X0266121Y0229303D01*
X0265237Y0229539D01*
D02*
G37*
G36*
X0135487Y021776D02*
X0134513D01*
X0133573Y0217508D01*
X013273Y0217021D01*
X0132042Y0216333D01*
X0131555Y021549D01*
X0131303Y021455D01*
Y0213576D01*
X0131555Y0212636D01*
X0132042Y0211793D01*
X013273Y0211105D01*
X0133573Y0210618D01*
X0134513Y0210366D01*
X0135487D01*
X0136427Y0210618D01*
X013727Y0211105D01*
X0137958Y0211793D01*
X0138445Y0212636D01*
X0138697Y0213576D01*
Y021455D01*
X0138445Y021549D01*
X0137958Y0216333D01*
X013727Y0217021D01*
X0136427Y0217508D01*
X0135487Y021776D01*
D02*
G37*
G36*
X0125487D02*
X0124513D01*
X0123573Y0217508D01*
X012273Y0217021D01*
X0122042Y0216333D01*
X0121555Y021549D01*
X0121303Y021455D01*
Y0213576D01*
X0121555Y0212636D01*
X0122042Y0211793D01*
X012273Y0211105D01*
X0123573Y0210618D01*
X0124513Y0210366D01*
X0125487D01*
X0126427Y0210618D01*
X012727Y0211105D01*
X0127958Y0211793D01*
X0128445Y0212636D01*
X0128697Y0213576D01*
Y021455D01*
X0128445Y021549D01*
X0127958Y0216333D01*
X012727Y0217021D01*
X0126427Y0217508D01*
X0125487Y021776D01*
D02*
G37*
G36*
X0115487D02*
X0114513D01*
X0113573Y0217508D01*
X011273Y0217021D01*
X0112042Y0216333D01*
X0111555Y021549D01*
X0111303Y021455D01*
Y0213576D01*
X0111555Y0212636D01*
X0112042Y0211793D01*
X011273Y0211105D01*
X0113573Y0210618D01*
X0114513Y0210366D01*
X0115487D01*
X0116427Y0210618D01*
X011727Y0211105D01*
X0117958Y0211793D01*
X0118445Y0212636D01*
X0118697Y0213576D01*
Y021455D01*
X0118445Y021549D01*
X0117958Y0216333D01*
X011727Y0217021D01*
X0116427Y0217508D01*
X0115487Y021776D01*
D02*
G37*
G36*
X0105487D02*
X0104513D01*
X0103573Y0217508D01*
X010273Y0217021D01*
X0102042Y0216333D01*
X0101555Y021549D01*
X0101303Y021455D01*
Y0213576D01*
X0101555Y0212636D01*
X0102042Y0211793D01*
X010273Y0211105D01*
X0103573Y0210618D01*
X0104513Y0210366D01*
X0105487D01*
X0106427Y0210618D01*
X010727Y0211105D01*
X0107958Y0211793D01*
X0108445Y0212636D01*
X0108697Y0213576D01*
Y021455D01*
X0108445Y021549D01*
X0107958Y0216333D01*
X010727Y0217021D01*
X0106427Y0217508D01*
X0105487Y021776D01*
D02*
G37*
G36*
X0095487D02*
X0094513D01*
X0093573Y0217508D01*
X009273Y0217021D01*
X0092042Y0216333D01*
X0091555Y021549D01*
X0091303Y021455D01*
Y0213576D01*
X0091555Y0212636D01*
X0092042Y0211793D01*
X009273Y0211105D01*
X0093573Y0210618D01*
X0094513Y0210366D01*
X0095487D01*
X0096427Y0210618D01*
X009727Y0211105D01*
X0097958Y0211793D01*
X0098445Y0212636D01*
X0098697Y0213576D01*
Y021455D01*
X0098445Y021549D01*
X0097958Y0216333D01*
X009727Y0217021D01*
X0096427Y0217508D01*
X0095487Y021776D01*
D02*
G37*
G36*
X0085487D02*
X0084513D01*
X0083573Y0217508D01*
X008273Y0217021D01*
X0082042Y0216333D01*
X0081555Y021549D01*
X0081303Y021455D01*
Y0213576D01*
X0081555Y0212636D01*
X0082042Y0211793D01*
X008273Y0211105D01*
X0083573Y0210618D01*
X0084513Y0210366D01*
X0085487D01*
X0086427Y0210618D01*
X008727Y0211105D01*
X0087958Y0211793D01*
X0088445Y0212636D01*
X0088697Y0213576D01*
Y021455D01*
X0088445Y021549D01*
X0087958Y0216333D01*
X008727Y0217021D01*
X0086427Y0217508D01*
X0085487Y021776D01*
D02*
G37*
G36*
X0075487D02*
X0074513D01*
X0073573Y0217508D01*
X007273Y0217021D01*
X0072042Y0216333D01*
X0071555Y021549D01*
X0071303Y021455D01*
Y0213576D01*
X0071555Y0212636D01*
X0072042Y0211793D01*
X007273Y0211105D01*
X0073573Y0210618D01*
X0074513Y0210366D01*
X0075487D01*
X0076427Y0210618D01*
X007727Y0211105D01*
X0077958Y0211793D01*
X0078445Y0212636D01*
X0078697Y0213576D01*
Y021455D01*
X0078445Y021549D01*
X0077958Y0216333D01*
X007727Y0217021D01*
X0076427Y0217508D01*
X0075487Y021776D01*
D02*
G37*
G36*
X0065487D02*
X0064513D01*
X0063573Y0217508D01*
X006273Y0217021D01*
X0062042Y0216333D01*
X0061555Y021549D01*
X0061303Y021455D01*
Y0213576D01*
X0061555Y0212636D01*
X0062042Y0211793D01*
X006273Y0211105D01*
X0063573Y0210618D01*
X0064513Y0210366D01*
X0065487D01*
X0066427Y0210618D01*
X006727Y0211105D01*
X0067958Y0211793D01*
X0068445Y0212636D01*
X0068697Y0213576D01*
Y021455D01*
X0068445Y021549D01*
X0067958Y0216333D01*
X006727Y0217021D01*
X0066427Y0217508D01*
X0065487Y021776D01*
D02*
G37*
G36*
X0055487D02*
X0054513D01*
X0053573Y0217508D01*
X005273Y0217021D01*
X0052042Y0216333D01*
X0051555Y021549D01*
X0051303Y021455D01*
Y0213576D01*
X0051555Y0212636D01*
X0052042Y0211793D01*
X005273Y0211105D01*
X0053573Y0210618D01*
X0054513Y0210366D01*
X0055487D01*
X0056427Y0210618D01*
X005727Y0211105D01*
X0057958Y0211793D01*
X0058445Y0212636D01*
X0058697Y0213576D01*
Y021455D01*
X0058445Y021549D01*
X0057958Y0216333D01*
X005727Y0217021D01*
X0056427Y0217508D01*
X0055487Y021776D01*
D02*
G37*
G36*
X0035487D02*
X0034513D01*
X0033573Y0217508D01*
X003273Y0217021D01*
X0032042Y0216333D01*
X0031555Y021549D01*
X0031303Y021455D01*
Y0213576D01*
X0031555Y0212636D01*
X0032042Y0211793D01*
X003273Y0211105D01*
X0033573Y0210618D01*
X0034513Y0210366D01*
X0035487D01*
X0036427Y0210618D01*
X003727Y0211105D01*
X0037958Y0211793D01*
X0038445Y0212636D01*
X0038697Y0213576D01*
Y021455D01*
X0038445Y021549D01*
X0037958Y0216333D01*
X003727Y0217021D01*
X0036427Y0217508D01*
X0035487Y021776D01*
D02*
G37*
G36*
X0025487D02*
X0024513D01*
X0023573Y0217508D01*
X002273Y0217021D01*
X0022042Y0216333D01*
X0021555Y021549D01*
X0021303Y021455D01*
Y0213576D01*
X0021555Y0212636D01*
X0022042Y0211793D01*
X002273Y0211105D01*
X0023573Y0210618D01*
X0024513Y0210366D01*
X0025487D01*
X0026427Y0210618D01*
X002727Y0211105D01*
X0027958Y0211793D01*
X0028445Y0212636D01*
X0028697Y0213576D01*
Y021455D01*
X0028445Y021549D01*
X0027958Y0216333D01*
X002727Y0217021D01*
X0026427Y0217508D01*
X0025487Y021776D01*
D02*
G37*
G36*
X0219022Y0213622D02*
X0217977D01*
X0216968Y0213352D01*
X0216063Y0212829D01*
X0215324Y021209D01*
X0214802Y0211185D01*
X0214531Y0210176D01*
Y0209131D01*
X0214802Y0208122D01*
X0215324Y0207217D01*
X0216063Y0206478D01*
X0216968Y0205956D01*
X0217977Y0205685D01*
X0219022D01*
X0220032Y0205956D01*
X0220937Y0206478D01*
X0221676Y0207217D01*
X0222198Y0208122D01*
X0222468Y0209131D01*
Y0210176D01*
X0222198Y0211185D01*
X0221676Y021209D01*
X0220937Y0212829D01*
X0220032Y0213352D01*
X0219022Y0213622D01*
D02*
G37*
G36*
X0148697Y021776D02*
X0141303D01*
Y0210366D01*
X0148697D01*
Y0213524D01*
X0183376D01*
X0193188Y0203711D01*
X0193261Y0203442D01*
X0193718Y0202649D01*
X0194366Y0202002D01*
X0195158Y0201544D01*
X0196042Y0201307D01*
X0196958D01*
X0197842Y0201544D01*
X0198635Y0202002D01*
X0199282Y0202649D01*
X019974Y0203442D01*
X0199761Y0203524D01*
X0204409D01*
X020519Y0203679D01*
X0205851Y0204121D01*
X0207534Y0205804D01*
X0207978Y0205685D01*
X0209022D01*
X0210032Y0205956D01*
X0210937Y0206478D01*
X0211676Y0207217D01*
X0212198Y0208122D01*
X0212469Y0209131D01*
Y0210176D01*
X0212198Y0211185D01*
X0211676Y021209D01*
X0210937Y0212829D01*
X0210032Y0213352D01*
X0209022Y0213622D01*
X0207978D01*
X0206968Y0213352D01*
X0206063Y0212829D01*
X0205324Y021209D01*
X0204802Y0211185D01*
X0204532Y0210176D01*
Y0209131D01*
X020465Y0208688D01*
X0203565Y0207602D01*
X0198571D01*
X0197842Y0208023D01*
X0196958Y020826D01*
X0196042D01*
X0195158Y0208023D01*
X0194832Y0207835D01*
X0185662Y0217005D01*
X0185001Y0217447D01*
X0184221Y0217602D01*
X0148697D01*
Y021776D01*
D02*
G37*
G36*
X0278878Y0209941D02*
X0272122D01*
Y0203185D01*
X0278878D01*
Y0209941D01*
D02*
G37*
G36*
X0265237Y0210039D02*
X0264322D01*
X0263438Y0209803D01*
X0262645Y0209345D01*
X0261998Y0208698D01*
X026154Y0207905D01*
X0261303Y0207021D01*
Y0206105D01*
X026154Y0205221D01*
X0261998Y0204429D01*
X0262645Y0203781D01*
X0263438Y0203324D01*
X0264322Y0203087D01*
X0265237D01*
X0266121Y0203324D01*
X0266914Y0203781D01*
X0267561Y0204429D01*
X0268019Y0205221D01*
X0268256Y0206105D01*
Y0207021D01*
X0268019Y0207905D01*
X0267561Y0208698D01*
X0266914Y0209345D01*
X0266121Y0209803D01*
X0265237Y0210039D01*
D02*
G37*
G36*
X0237678D02*
X0236763D01*
X0235879Y0209803D01*
X0235086Y0209345D01*
X0234439Y0208698D01*
X0233981Y0207905D01*
X0233744Y0207021D01*
Y0206105D01*
X0233981Y0205221D01*
X0234439Y0204429D01*
X0235086Y0203781D01*
X0235879Y0203324D01*
X0236763Y0203087D01*
X0237678D01*
X0238562Y0203324D01*
X0239355Y0203781D01*
X0240002Y0204429D01*
X024046Y0205221D01*
X0240697Y0206105D01*
Y0207021D01*
X024046Y0207905D01*
X0240002Y0208698D01*
X0239355Y0209345D01*
X0238562Y0209803D01*
X0237678Y0210039D01*
D02*
G37*
G36*
X0075527Y0208063D02*
X0074473D01*
X0073456Y020779D01*
X0072544Y0207264D01*
X0071799Y0206519D01*
X0071273Y0205607D01*
X0071Y020459D01*
Y0203536D01*
X0071273Y0202519D01*
X0071799Y0201607D01*
X0072544Y0200862D01*
X0073456Y0200336D01*
X0074473Y0200063D01*
X0075527D01*
X0076544Y0200336D01*
X0077456Y0200862D01*
X0078201Y0201607D01*
X0078727Y0202519D01*
X0079Y0203536D01*
Y020459D01*
X0078727Y0205607D01*
X0078201Y0206519D01*
X0077456Y0207264D01*
X0076544Y020779D01*
X0075527Y0208063D01*
D02*
G37*
G36*
X0065527D02*
X0064473D01*
X0063456Y020779D01*
X0062544Y0207264D01*
X0061799Y0206519D01*
X0061273Y0205607D01*
X0061Y020459D01*
Y0203536D01*
X0061273Y0202519D01*
X0061799Y0201607D01*
X0062544Y0200862D01*
X0063456Y0200336D01*
X0064473Y0200063D01*
X0065527D01*
X0066544Y0200336D01*
X0067456Y0200862D01*
X0068201Y0201607D01*
X0068727Y0202519D01*
X0069Y0203536D01*
Y020459D01*
X0068727Y0205607D01*
X0068201Y0206519D01*
X0067456Y0207264D01*
X0066544Y020779D01*
X0065527Y0208063D01*
D02*
G37*
G36*
X0055527D02*
X0054473D01*
X0053456Y020779D01*
X0052544Y0207264D01*
X0051799Y0206519D01*
X0051273Y0205607D01*
X0051Y020459D01*
Y0203536D01*
X0051273Y0202519D01*
X0051799Y0201607D01*
X0052544Y0200862D01*
X0053456Y0200336D01*
X0054473Y0200063D01*
X0055527D01*
X0056544Y0200336D01*
X0057456Y0200862D01*
X0058201Y0201607D01*
X0058727Y0202519D01*
X0059Y0203536D01*
Y020459D01*
X0058727Y0205607D01*
X0058201Y0206519D01*
X0057456Y0207264D01*
X0056544Y020779D01*
X0055527Y0208063D01*
D02*
G37*
G36*
X0225433Y0191289D02*
X0224567D01*
X022373Y0191065D01*
X022298Y0190632D01*
X0222368Y019002D01*
X0221935Y0189269D01*
X0221711Y0188433D01*
Y0187567D01*
X0221935Y0186731D01*
X0222368Y0185981D01*
X022298Y0185368D01*
X022373Y0184935D01*
X0224567Y0184711D01*
X0225433D01*
X022627Y0184935D01*
X022702Y0185368D01*
X0227632Y0185981D01*
X0228065Y0186731D01*
X0228289Y0187567D01*
Y0188433D01*
X0228065Y0189269D01*
X0227632Y019002D01*
X022702Y0190632D01*
X022627Y0191065D01*
X0225433Y0191289D01*
D02*
G37*
G36*
X0215433D02*
X0214567D01*
X0213731Y0191065D01*
X0212981Y0190632D01*
X0212368Y019002D01*
X0211935Y0189269D01*
X0211711Y0188433D01*
Y0187567D01*
X0211935Y0186731D01*
X0212368Y0185981D01*
X0212981Y0185368D01*
X0213731Y0184935D01*
X0214567Y0184711D01*
X0215433D01*
X0216269Y0184935D01*
X021702Y0185368D01*
X0217632Y0185981D01*
X0218065Y0186731D01*
X0218289Y0187567D01*
Y0188433D01*
X0218065Y0189269D01*
X0217632Y019002D01*
X021702Y0190632D01*
X0216269Y0191065D01*
X0215433Y0191289D01*
D02*
G37*
G36*
X0208289D02*
X0201711D01*
Y0184711D01*
X0208289D01*
Y0191289D01*
D02*
G37*
G36*
X0058697Y0191697D02*
X0051303D01*
Y0184303D01*
X0058697D01*
Y0191697D01*
D02*
G37*
G36*
X0045487D02*
X0044513D01*
X0043573Y0191445D01*
X004273Y0190958D01*
X0042042Y019027D01*
X0041555Y0189427D01*
X0041303Y0188487D01*
Y0187513D01*
X0041555Y0186573D01*
X0042042Y018573D01*
X004273Y0185042D01*
X0043573Y0184555D01*
X0044513Y0184303D01*
X0045487D01*
X0046427Y0184555D01*
X004727Y0185042D01*
X0047958Y018573D01*
X0048445Y0186573D01*
X0048697Y0187513D01*
Y0188487D01*
X0048445Y0189427D01*
X0047958Y019027D01*
X004727Y0190958D01*
X0046427Y0191445D01*
X0045487Y0191697D01*
D02*
G37*
G36*
X0035487D02*
X0034513D01*
X0033573Y0191445D01*
X003273Y0190958D01*
X0032042Y019027D01*
X0031555Y0189427D01*
X0031303Y0188487D01*
Y0187513D01*
X0031555Y0186573D01*
X0032042Y018573D01*
X003273Y0185042D01*
X0033573Y0184555D01*
X0034513Y0184303D01*
X0035487D01*
X0036427Y0184555D01*
X003727Y0185042D01*
X0037958Y018573D01*
X0038445Y0186573D01*
X0038697Y0187513D01*
Y0188487D01*
X0038445Y0189427D01*
X0037958Y019027D01*
X003727Y0190958D01*
X0036427Y0191445D01*
X0035487Y0191697D01*
D02*
G37*
G36*
X0025487D02*
X0024513D01*
X0023573Y0191445D01*
X002273Y0190958D01*
X0022042Y019027D01*
X0021555Y0189427D01*
X0021303Y0188487D01*
Y0187513D01*
X0021555Y0186573D01*
X0022042Y018573D01*
X002273Y0185042D01*
X0023573Y0184555D01*
X0024513Y0184303D01*
X0025487D01*
X0026427Y0184555D01*
X002727Y0185042D01*
X0027958Y018573D01*
X0028445Y0186573D01*
X0028697Y0187513D01*
Y0188487D01*
X0028445Y0189427D01*
X0027958Y019027D01*
X002727Y0190958D01*
X0026427Y0191445D01*
X0025487Y0191697D01*
D02*
G37*
G36*
X0015487D02*
X0014513D01*
X0013573Y0191445D01*
X001273Y0190958D01*
X0012042Y019027D01*
X0011555Y0189427D01*
X0011303Y0188487D01*
Y0187513D01*
X0011555Y0186573D01*
X0012042Y018573D01*
X001273Y0185042D01*
X0013573Y0184555D01*
X0014513Y0184303D01*
X0015487D01*
X0016427Y0184555D01*
X001727Y0185042D01*
X0017958Y018573D01*
X0018445Y0186573D01*
X0018697Y0187513D01*
Y0188487D01*
X0018445Y0189427D01*
X0017958Y019027D01*
X001727Y0190958D01*
X0016427Y0191445D01*
X0015487Y0191697D01*
D02*
G37*
G36*
X0282023Y0191469D02*
X0280978D01*
X0279968Y0191198D01*
X0279063Y0190676D01*
X0278324Y0189937D01*
X0277802Y0189032D01*
X0277532Y0188022D01*
Y0186978D01*
X0277802Y0185968D01*
X0278324Y0185063D01*
X0279063Y0184324D01*
X0279968Y0183802D01*
X0280978Y0183531D01*
X0282023D01*
X0283032Y0183802D01*
X0283937Y0184324D01*
X0284676Y0185063D01*
X0285198Y0185968D01*
X0285469Y0186978D01*
Y0188022D01*
X0285198Y0189032D01*
X0284676Y0189937D01*
X0283937Y0190676D01*
X0283032Y0191198D01*
X0282023Y0191469D01*
D02*
G37*
G36*
X0261527Y01795D02*
X0260473D01*
X0259456Y0179227D01*
X0258544Y0178701D01*
X0257799Y0177956D01*
X0257273Y0177044D01*
X0257Y0176027D01*
Y0174973D01*
X0257273Y0173956D01*
X0257799Y0173044D01*
X0258544Y0172299D01*
X0259456Y0171773D01*
X0260473Y01715D01*
X0261527D01*
X0262544Y0171773D01*
X0263456Y0172299D01*
X0264201Y0173044D01*
X0264727Y0173956D01*
X0265Y0174973D01*
Y0176027D01*
X0264727Y0177044D01*
X0264201Y0177956D01*
X0263456Y0178701D01*
X0262544Y0179227D01*
X0261527Y01795D01*
D02*
G37*
G36*
X0169487Y0177197D02*
X0168513D01*
X0167573Y0176945D01*
X016673Y0176458D01*
X0166042Y017577D01*
X0165555Y0174927D01*
X0165303Y0173987D01*
Y0173013D01*
X0165555Y0172073D01*
X0166042Y017123D01*
X016673Y0170542D01*
X0167573Y0170055D01*
X0168513Y0169803D01*
X0169487D01*
X0170427Y0170055D01*
X017127Y0170542D01*
X0171958Y017123D01*
X0172445Y0172073D01*
X0172697Y0173013D01*
Y0173987D01*
X0172445Y0174927D01*
X0171958Y017577D01*
X017127Y0176458D01*
X0170427Y0176945D01*
X0169487Y0177197D01*
D02*
G37*
G36*
X0159487D02*
X0158513D01*
X0157573Y0176945D01*
X015673Y0176458D01*
X0156042Y017577D01*
X0155555Y0174927D01*
X0155303Y0173987D01*
Y0173013D01*
X0155555Y0172073D01*
X0156042Y017123D01*
X015673Y0170542D01*
X0157573Y0170055D01*
X0158513Y0169803D01*
X0159487D01*
X0160427Y0170055D01*
X016127Y0170542D01*
X0161958Y017123D01*
X0162445Y0172073D01*
X0162697Y0173013D01*
Y0173987D01*
X0162445Y0174927D01*
X0161958Y017577D01*
X016127Y0176458D01*
X0160427Y0176945D01*
X0159487Y0177197D01*
D02*
G37*
G36*
X0142697D02*
X0135303D01*
Y0176049D01*
X0098493D01*
X0097518Y0175855D01*
X0096691Y0175302D01*
X0094437Y0173049D01*
X0093D01*
X0092024Y0172855D01*
X0091198Y0172302D01*
X0090198Y0171302D01*
X0089645Y0170475D01*
X0089451Y01695D01*
X0089645Y0168525D01*
X0090198Y0167698D01*
X0091025Y0167145D01*
X0092Y0166951D01*
X0092975Y0167145D01*
X0093802Y0167698D01*
X0094056Y0167951D01*
X0095493D01*
X0096469Y0168145D01*
X0097296Y0168698D01*
X0099549Y0170951D01*
X0135303D01*
Y0169803D01*
X0142697D01*
Y0177197D01*
D02*
G37*
G36*
X0174Y018463D02*
X0118D01*
X0117185Y0184468D01*
X0116494Y0184006D01*
X0114994Y0182506D01*
X0114908Y0182378D01*
X011472Y018219D01*
X0114618Y0181943D01*
X0114532Y0181815D01*
X0114502Y0181664D01*
X01144Y0181418D01*
Y0181151D01*
X011437Y0181D01*
X01144Y0180849D01*
Y0180582D01*
X0114502Y0180336D01*
X0114532Y0180185D01*
X0114618Y0180057D01*
X011472Y0179811D01*
X0114908Y0179622D01*
X0114994Y0179494D01*
X0115122Y0179408D01*
X011531Y017922D01*
X0115557Y0179118D01*
X0115685Y0179032D01*
X0115836Y0179002D01*
X0116082Y01789D01*
X0116349D01*
X01165Y017887D01*
X0116651Y01789D01*
X0116918D01*
X0117164Y0179002D01*
X0117315Y0179032D01*
X0117443Y0179118D01*
X011769Y017922D01*
X0117878Y0179408D01*
X0118006Y0179494D01*
X0118882Y018037D01*
X0173118D01*
X0183375Y0170113D01*
X0183503Y0170027D01*
X018381Y016972D01*
X0184582Y01694D01*
X0185418D01*
X018619Y016972D01*
X018678Y017031D01*
X01871Y0171082D01*
Y0171918D01*
X018678Y017269D01*
X0186473Y0172997D01*
X0186387Y0173125D01*
X0175506Y0184006D01*
X0174815Y0184468D01*
X0174Y018463D01*
D02*
G37*
G36*
X0292022Y0171468D02*
X0290978D01*
X0289968Y0171198D01*
X0289063Y0170676D01*
X0288324Y0169937D01*
X0287802Y0169032D01*
X0287531Y0168023D01*
Y0166978D01*
X0287802Y0165968D01*
X0288324Y0165063D01*
X0289063Y0164324D01*
X0289968Y0163802D01*
X0290978Y0163531D01*
X0292022D01*
X0293032Y0163802D01*
X0293937Y0164324D01*
X0294676Y0165063D01*
X0295198Y0165968D01*
X0295468Y0166978D01*
Y0168023D01*
X0295198Y0169032D01*
X0294676Y0169937D01*
X0293937Y0170676D01*
X0293032Y0171198D01*
X0292022Y0171468D01*
D02*
G37*
G36*
X0282023D02*
X0280978D01*
X0279968Y0171198D01*
X0279063Y0170676D01*
X0278324Y0169937D01*
X0277802Y0169032D01*
X0277532Y0168023D01*
Y0166978D01*
X0277802Y0165968D01*
X0278324Y0165063D01*
X0279063Y0164324D01*
X0279968Y0163802D01*
X0280978Y0163531D01*
X0282023D01*
X0283032Y0163802D01*
X0283937Y0164324D01*
X0284676Y0165063D01*
X0285198Y0165968D01*
X0285469Y0166978D01*
Y0168023D01*
X0285198Y0169032D01*
X0284676Y0169937D01*
X0283937Y0170676D01*
X0283032Y0171198D01*
X0282023Y0171468D01*
D02*
G37*
G36*
X0261527Y01695D02*
X0260473D01*
X0259456Y0169227D01*
X0258544Y0168701D01*
X0257799Y0167956D01*
X0257273Y0167044D01*
X0257Y0166027D01*
Y0164973D01*
X0257273Y0163956D01*
X0257799Y0163044D01*
X0258544Y0162299D01*
X0259456Y0161773D01*
X0260473Y01615D01*
X0261527D01*
X0262544Y0161773D01*
X0263456Y0162299D01*
X0264201Y0163044D01*
X0264727Y0163956D01*
X0265Y0164973D01*
Y0166027D01*
X0264727Y0167044D01*
X0264201Y0167956D01*
X0263456Y0168701D01*
X0262544Y0169227D01*
X0261527Y01695D01*
D02*
G37*
G36*
X0235933Y0159789D02*
X0235067D01*
X023423Y0159565D01*
X0233481Y0159132D01*
X0232868Y0158519D01*
X0232435Y015777D01*
X0232211Y0156933D01*
Y0156067D01*
X0232435Y015523D01*
X0232868Y0154481D01*
X0233481Y0153868D01*
X023423Y0153435D01*
X0235067Y0153211D01*
X0235933D01*
X023677Y0153435D01*
X023752Y0153868D01*
X0238132Y0154481D01*
X0238565Y015523D01*
X0238789Y0156067D01*
Y0156933D01*
X0238565Y015777D01*
X0238132Y0158519D01*
X023752Y0159132D01*
X023677Y0159565D01*
X0235933Y0159789D01*
D02*
G37*
G36*
X0282023Y0160378D02*
X0280978D01*
X0279968Y0160108D01*
X0279063Y0159585D01*
X0278324Y0158846D01*
X0277802Y0157941D01*
X0277532Y0156932D01*
Y0155887D01*
X0277802Y0154878D01*
X0278324Y0153973D01*
X0279063Y0153234D01*
X0279968Y0152711D01*
X0280978Y0152441D01*
X0282023D01*
X0283032Y0152711D01*
X0283937Y0153234D01*
X0284676Y0153973D01*
X0285198Y0154878D01*
X0285469Y0155887D01*
Y0156932D01*
X0285198Y0157941D01*
X0284676Y0158846D01*
X0283937Y0159585D01*
X0283032Y0160108D01*
X0282023Y0160378D01*
D02*
G37*
G36*
X0261527Y01595D02*
X0260473D01*
X0259456Y0159227D01*
X0258544Y0158701D01*
X0257799Y0157956D01*
X0257273Y0157044D01*
X0257Y0156027D01*
Y0154973D01*
X0257273Y0153956D01*
X0257799Y0153044D01*
X0258544Y0152299D01*
X0259456Y0151773D01*
X0260473Y01515D01*
X0261527D01*
X0262544Y0151773D01*
X0263456Y0152299D01*
X0264201Y0153044D01*
X0264727Y0153956D01*
X0265Y0154973D01*
Y0156027D01*
X0264727Y0157044D01*
X0264201Y0157956D01*
X0263456Y0158701D01*
X0262544Y0159227D01*
X0261527Y01595D01*
D02*
G37*
G36*
Y01495D02*
X0260473D01*
X0259456Y0149227D01*
X0258544Y0148701D01*
X0257799Y0147956D01*
X0257273Y0147044D01*
X0257Y0146027D01*
Y0144973D01*
X0257273Y0143956D01*
X0257799Y0143044D01*
X0258544Y0142299D01*
X0259456Y0141773D01*
X0260473Y01415D01*
X0261527D01*
X0262544Y0141773D01*
X0263456Y0142299D01*
X0264201Y0143044D01*
X0264727Y0143956D01*
X0265Y0144973D01*
Y0146027D01*
X0264727Y0147044D01*
X0264201Y0147956D01*
X0263456Y0148701D01*
X0262544Y0149227D01*
X0261527Y01495D01*
D02*
G37*
G36*
X0208Y014113D02*
X02005D01*
X0199685Y0140968D01*
X0198994Y0140506D01*
X0197494Y0139006D01*
X0197494Y0139006D01*
X0194513Y0136026D01*
X0193835D01*
X0190665Y0139196D01*
X0190603Y0139237D01*
X0189788Y0139862D01*
X0188772Y0140283D01*
X0187681Y0140427D01*
X0186591Y0140283D01*
X0185574Y0139862D01*
X0184759Y0139237D01*
X0184698Y0139196D01*
Y0139196D01*
X0184657Y0139134D01*
X0184032Y0138319D01*
X0183611Y0137303D01*
X0183467Y0136212D01*
X0183611Y0135121D01*
X0183869Y0134499D01*
X0183486Y0134116D01*
X0182863Y0134374D01*
X0181772Y0134518D01*
X0180682Y0134374D01*
X0179665Y0133953D01*
X017885Y0133328D01*
X0178789Y0133287D01*
Y0133287D01*
X0178748Y0133225D01*
X0178123Y013241D01*
X0177702Y0131394D01*
X0177558Y0130303D01*
X0177702Y0129212D01*
X0178123Y0128196D01*
X0178748Y0127381D01*
X0178789Y012732D01*
X0178789Y012732D01*
X0182264Y0123845D01*
X0182264Y0123845D01*
X018226Y012384D01*
X0182272Y0123811D01*
X018226Y0123781D01*
X0182264Y0123776D01*
X0181494Y0123006D01*
X0181494Y0123006D01*
X0161109Y0102621D01*
X0160647Y010193D01*
X0160548Y010143D01*
X015973Y0100958D01*
X0159042Y010027D01*
X0158555Y0099427D01*
X0158303Y0098487D01*
Y0097513D01*
X0158555Y0096573D01*
X0159042Y009573D01*
X015973Y0095042D01*
X0160573Y0094555D01*
X0161513Y0094303D01*
X0162487D01*
X0163427Y0094555D01*
X016427Y0095042D01*
X0164958Y009573D01*
X0165445Y0096573D01*
X0165697Y0097513D01*
Y0098487D01*
X0165445Y0099427D01*
X0164958Y010027D01*
X016487Y0100358D01*
X0184506Y0119994D01*
X0184506Y0119994D01*
X0185276Y0120764D01*
X0185311Y0120816D01*
X0185958Y0121658D01*
X0186388Y0122696D01*
X0186534Y0123811D01*
X0186388Y0124925D01*
X0186812Y0125205D01*
X0187274Y0124743D01*
X0187274Y0124743D01*
X0187336Y0124702D01*
X0188151Y0124077D01*
X0189167Y0123656D01*
X0190258Y0123512D01*
X0191348Y0123656D01*
X0192365Y0124077D01*
X019318Y0124702D01*
X0193241Y0124743D01*
X0193241D01*
X0193282Y0124805D01*
X0193907Y012562D01*
X0194328Y0126636D01*
X0194472Y0127727D01*
X0194328Y0128818D01*
X0193907Y0129834D01*
X0193282Y0130649D01*
X0193241Y013071D01*
X0192779Y0131172D01*
X019306Y0131597D01*
X0194174Y013145D01*
X0195288Y0131597D01*
X0196326Y0132027D01*
X0197169Y0132674D01*
X0197221Y0132708D01*
X0200506Y0135994D01*
X0200506Y0135994D01*
X0201382Y013687D01*
X0208D01*
X0208151Y01369D01*
X0208418D01*
X0208664Y0137002D01*
X0208815Y0137032D01*
X0208943Y0137118D01*
X020919Y013722D01*
X0209378Y0137408D01*
X0209506Y0137494D01*
X0209592Y0137622D01*
X020978Y0137811D01*
X0209882Y0138057D01*
X0209968Y0138185D01*
X0209998Y0138336D01*
X02101Y0138582D01*
Y0138849D01*
X021013Y0139D01*
X02101Y0139151D01*
Y0139418D01*
X0209998Y0139664D01*
X0209968Y0139815D01*
X0209882Y0139943D01*
X020978Y014019D01*
X0209592Y0140378D01*
X0209506Y0140506D01*
X0209378Y0140592D01*
X020919Y014078D01*
X0208943Y0140882D01*
X0208815Y0140968D01*
X0208664Y0140998D01*
X0208418Y01411D01*
X0208151D01*
X0208Y014113D01*
D02*
G37*
G36*
X0292022Y0140378D02*
X0290978D01*
X0289968Y0140108D01*
X0289063Y0139585D01*
X0288324Y0138846D01*
X0287802Y0137941D01*
X0287531Y0136932D01*
Y0135887D01*
X0287802Y0134878D01*
X0288324Y0133973D01*
X0289063Y0133234D01*
X0289968Y0132711D01*
X0290978Y0132441D01*
X0292022D01*
X0293032Y0132711D01*
X0293937Y0133234D01*
X0294676Y0133973D01*
X0295198Y0134878D01*
X0295468Y0135887D01*
Y0136932D01*
X0295198Y0137941D01*
X0294676Y0138846D01*
X0293937Y0139585D01*
X0293032Y0140108D01*
X0292022Y0140378D01*
D02*
G37*
G36*
X0261527Y01395D02*
X0260473D01*
X0259456Y0139227D01*
X0258544Y0138701D01*
X0257799Y0137956D01*
X0257273Y0137044D01*
X0257Y0136027D01*
Y0134973D01*
X0257273Y0133956D01*
X0257799Y0133044D01*
X0258544Y0132299D01*
X0259456Y0131773D01*
X0260473Y01315D01*
X0261527D01*
X0262544Y0131773D01*
X0263456Y0132299D01*
X0264201Y0133044D01*
X0264727Y0133956D01*
X0265Y0134973D01*
Y0136027D01*
X0264727Y0137044D01*
X0264201Y0137956D01*
X0263456Y0138701D01*
X0262544Y0139227D01*
X0261527Y01395D01*
D02*
G37*
G36*
X02085Y014963D02*
X0182D01*
X0181185Y0149468D01*
X0180494Y0149006D01*
X0150494Y0119006D01*
X0150032Y0118315D01*
X014987Y01175D01*
Y0101039D01*
X014973Y0100958D01*
X0149042Y010027D01*
X0148555Y0099427D01*
X0148303Y0098487D01*
Y0097513D01*
X0148555Y0096573D01*
X0149042Y009573D01*
X014973Y0095042D01*
X0150573Y0094555D01*
X0151513Y0094303D01*
X0152487D01*
X0153427Y0094555D01*
X015427Y0095042D01*
X0154958Y009573D01*
X0155445Y0096573D01*
X0155697Y0097513D01*
Y0098487D01*
X0155445Y0099427D01*
X0154958Y010027D01*
X015427Y0100958D01*
X015413Y0101039D01*
Y0116618D01*
X0182882Y014537D01*
X0207618D01*
X0223994Y0128994D01*
X0224122Y0128908D01*
X022431Y012872D01*
X0224557Y0128618D01*
X0224685Y0128532D01*
X0224836Y0128502D01*
X0225082Y01284D01*
X0225349D01*
X02255Y012837D01*
X0225651Y01284D01*
X0225918D01*
X0226164Y0128502D01*
X0226315Y0128532D01*
X0226443Y0128618D01*
X022669Y012872D01*
X0226878Y0128908D01*
X0227006Y0128994D01*
X0227092Y0129122D01*
X022728Y0129311D01*
X0227382Y0129557D01*
X0227468Y0129685D01*
X0227498Y0129836D01*
X02276Y0130082D01*
Y0130349D01*
X022763Y01305D01*
X02276Y0130651D01*
Y0130918D01*
X0227498Y0131164D01*
X0227468Y0131315D01*
X0227382Y0131443D01*
X022728Y013169D01*
X0227092Y0131878D01*
X0227006Y0132006D01*
X0210006Y0149006D01*
X0209315Y0149468D01*
X02085Y014963D01*
D02*
G37*
G36*
X0078418Y01676D02*
X0077582D01*
X007681Y016728D01*
X007622Y016669D01*
X00759Y0165918D01*
Y0165082D01*
X007622Y0164311D01*
X007681Y016372D01*
X0076957Y0163659D01*
X0081961Y0158655D01*
Y0146D01*
X0082116Y014522D01*
X0082558Y0144558D01*
X0119058Y0108058D01*
X0119058Y0108058D01*
X011972Y0107616D01*
X01205Y0107461D01*
X01205Y0107461D01*
X0129655D01*
X0138372Y0098744D01*
X0138303Y0098487D01*
Y0097513D01*
X0138555Y0096573D01*
X0139042Y009573D01*
X013973Y0095042D01*
X0140573Y0094555D01*
X0141513Y0094303D01*
X0142487D01*
X0143427Y0094555D01*
X014427Y0095042D01*
X0144958Y009573D01*
X0145445Y0096573D01*
X0145697Y0097513D01*
Y0098487D01*
X0145445Y0099427D01*
X0144958Y010027D01*
X014427Y0100958D01*
X0144039Y0101092D01*
Y0118655D01*
X0150845Y0125461D01*
X0152435D01*
X0152582Y01254D01*
X0153418D01*
X015419Y012572D01*
X015478Y0126311D01*
X01551Y0127082D01*
Y0127918D01*
X015478Y012869D01*
X015419Y012928D01*
X0153418Y01296D01*
X0152582D01*
X0152435Y0129539D01*
X015D01*
X014922Y0129384D01*
X0148558Y0128942D01*
X0140558Y0120942D01*
X0140116Y012028D01*
X0139961Y01195D01*
Y0103576D01*
X0139499Y0103385D01*
X0131942Y0110942D01*
X013128Y0111384D01*
X01305Y0111539D01*
X0121345D01*
X0086039Y0146845D01*
Y01595D01*
X0085884Y016028D01*
X0085442Y0160942D01*
X0079841Y0166543D01*
X007978Y016669D01*
X0079189Y016728D01*
X0078418Y01676D01*
D02*
G37*
G36*
X0261527Y01295D02*
X0260473D01*
X0259456Y0129227D01*
X0258544Y0128701D01*
X0257799Y0127956D01*
X0257273Y0127044D01*
X0257Y0126027D01*
Y0124973D01*
X0257273Y0123956D01*
X0257799Y0123044D01*
X0258544Y0122299D01*
X0259456Y0121773D01*
X0260473Y01215D01*
X0261527D01*
X0262544Y0121773D01*
X0263456Y0122299D01*
X0264201Y0123044D01*
X0264727Y0123956D01*
X0265Y0124973D01*
Y0126027D01*
X0264727Y0127044D01*
X0264201Y0127956D01*
X0263456Y0128701D01*
X0262544Y0129227D01*
X0261527Y01295D01*
D02*
G37*
G36*
X0282023Y0129378D02*
X0280978D01*
X0279968Y0129107D01*
X0279063Y0128585D01*
X0278324Y0127846D01*
X0277802Y0126941D01*
X0277532Y0125932D01*
Y0124887D01*
X0277802Y0123878D01*
X0278324Y0122973D01*
X0279063Y0122234D01*
X0279968Y0121711D01*
X0280978Y0121441D01*
X0282023D01*
X0283032Y0121711D01*
X0283937Y0122234D01*
X0284676Y0122973D01*
X0285198Y0123878D01*
X0285469Y0124887D01*
Y0125932D01*
X0285198Y0126941D01*
X0284676Y0127846D01*
X0283937Y0128585D01*
X0283032Y0129107D01*
X0282023Y0129378D01*
D02*
G37*
G36*
X0198418Y01261D02*
X0197582D01*
X019681Y012578D01*
X019622Y012519D01*
X01959Y0124418D01*
Y0123582D01*
X019622Y012281D01*
X019681Y012222D01*
X0196957Y0122159D01*
X0200558Y0118558D01*
X020122Y0118116D01*
X0202Y0117961D01*
X0218935D01*
X0219082Y01179D01*
X0219918D01*
X022069Y011822D01*
X022128Y011881D01*
X02216Y0119582D01*
Y0120418D01*
X022128Y012119D01*
X022069Y012178D01*
X0219918Y01221D01*
X0219082D01*
X0218935Y0122039D01*
X0202845D01*
X0199841Y0125043D01*
X019978Y012519D01*
X019919Y012578D01*
X0198418Y01261D01*
D02*
G37*
G36*
X0261527Y01195D02*
X02615D01*
Y0116D01*
X0265D01*
Y0116027D01*
X0264727Y0117044D01*
X0264201Y0117956D01*
X0263456Y0118701D01*
X0262544Y0119227D01*
X0261527Y01195D01*
D02*
G37*
G36*
X02605D02*
X0260473D01*
X0259456Y0119227D01*
X0258544Y0118701D01*
X0257799Y0117956D01*
X0257273Y0117044D01*
X0257Y0116027D01*
Y0116D01*
X02605D01*
Y01195D01*
D02*
G37*
G36*
X0219918Y01141D02*
X0219082D01*
X0218935Y0114039D01*
X0195065D01*
X0194918Y01141D01*
X0194082D01*
X019331Y011378D01*
X019272Y011319D01*
X01924Y0112418D01*
Y0111582D01*
X019272Y011081D01*
X019331Y011022D01*
X0194082Y01099D01*
X0194918D01*
X0195065Y0109961D01*
X0218935D01*
X0219082Y01099D01*
X0219918D01*
X022069Y011022D01*
X022128Y011081D01*
X02216Y0111582D01*
Y0112418D01*
X022128Y011319D01*
X022069Y011378D01*
X0219918Y01141D01*
D02*
G37*
G36*
X0265Y0115D02*
X02615D01*
Y01115D01*
X0261527D01*
X0262544Y0111773D01*
X0263456Y0112299D01*
X0264201Y0113044D01*
X0264727Y0113956D01*
X0265Y0114973D01*
Y0115D01*
D02*
G37*
G36*
X02605D02*
X0257D01*
Y0114973D01*
X0257273Y0113956D01*
X0257799Y0113044D01*
X0258544Y0112299D01*
X0259456Y0111773D01*
X0260473Y01115D01*
X02605D01*
Y0115D01*
D02*
G37*
G36*
X0225933Y0159789D02*
X0225067D01*
X0224231Y0159565D01*
X0223481Y0159132D01*
X0222868Y0158519D01*
X0222435Y015777D01*
X0222211Y0156933D01*
Y0156067D01*
X0222435Y015523D01*
X0222868Y0154481D01*
X0223461Y0153888D01*
Y01485D01*
X0223616Y014772D01*
X0224058Y0147058D01*
X0233961Y0137155D01*
Y0118845D01*
X0222155Y0107039D01*
X0189D01*
X018822Y0106884D01*
X0187558Y0106442D01*
X0187558Y0106442D01*
X0182744Y0101628D01*
X0182487Y0101697D01*
X0181513D01*
X0180573Y0101445D01*
X017973Y0100958D01*
X0179042Y010027D01*
X0178555Y0099427D01*
X0178303Y0098487D01*
Y0097513D01*
X0178555Y0096573D01*
X0179042Y009573D01*
X017973Y0095042D01*
X0180573Y0094555D01*
X0181513Y0094303D01*
X0182487D01*
X0183427Y0094555D01*
X018427Y0095042D01*
X0184958Y009573D01*
X0185445Y0096573D01*
X0185697Y0097513D01*
Y0098487D01*
X0185628Y0098744D01*
X0189845Y0102961D01*
X0223D01*
X022378Y0103116D01*
X0224442Y0103558D01*
X0237442Y0116558D01*
X0237884Y011722D01*
X0238039Y0118D01*
X0238039Y0118D01*
Y0138D01*
X0237884Y013878D01*
X0237442Y0139442D01*
X0227539Y0149345D01*
Y0153888D01*
X0228132Y0154481D01*
X0228565Y015523D01*
X0228789Y0156067D01*
Y0156933D01*
X0228565Y015777D01*
X0228132Y0158519D01*
X0227519Y0159132D01*
X0226769Y0159565D01*
X0225933Y0159789D01*
D02*
G37*
G36*
X0244Y0167539D02*
X02245D01*
X022372Y0167384D01*
X0223058Y0166942D01*
X0215905Y0159789D01*
X0212211D01*
Y0153211D01*
X0218789D01*
Y0156905D01*
X0225345Y0163461D01*
X0243155D01*
X0249961Y0156655D01*
Y01145D01*
X0250116Y011372D01*
X0250558Y0113058D01*
X0257125Y0106492D01*
X0257Y0106027D01*
Y0104973D01*
X0257273Y0103956D01*
X0257799Y0103044D01*
X0258544Y0102299D01*
X0259456Y0101773D01*
X0260473Y01015D01*
X0261527D01*
X0262544Y0101773D01*
X0263456Y0102299D01*
X0264201Y0103044D01*
X0264727Y0103956D01*
X0265Y0104973D01*
Y0106027D01*
X0264727Y0107044D01*
X0264201Y0107956D01*
X0263456Y0108701D01*
X0262544Y0109227D01*
X0261527Y01095D01*
X0260473D01*
X0260008Y0109375D01*
X0254039Y0115345D01*
Y01575D01*
X0253884Y015828D01*
X0253442Y0158942D01*
X0245442Y0166942D01*
X024478Y0167384D01*
X0244Y0167539D01*
D02*
G37*
G36*
X0292022Y0109378D02*
X0290978D01*
X0289968Y0109107D01*
X0289063Y0108585D01*
X0288324Y0107846D01*
X0287802Y0106941D01*
X0287531Y0105932D01*
Y0104887D01*
X0287802Y0103878D01*
X0288324Y0102973D01*
X0289063Y0102234D01*
X0289968Y0101711D01*
X0290978Y0101441D01*
X0292022D01*
X0293032Y0101711D01*
X0293937Y0102234D01*
X0294676Y0102973D01*
X0295198Y0103878D01*
X0295468Y0104887D01*
Y0105932D01*
X0295198Y0106941D01*
X0294676Y0107846D01*
X0293937Y0108585D01*
X0293032Y0109107D01*
X0292022Y0109378D01*
D02*
G37*
G36*
X0282023D02*
X0280978D01*
X0279968Y0109107D01*
X0279063Y0108585D01*
X0278324Y0107846D01*
X0277802Y0106941D01*
X0277532Y0105932D01*
Y0104887D01*
X027765Y0104444D01*
X026968Y0096473D01*
X0269238Y0095812D01*
X0269083Y0095031D01*
Y0088138D01*
X0265984Y0085039D01*
X0256845D01*
X0254442Y0087442D01*
X0254442Y0087442D01*
X0243942Y0097942D01*
X024328Y0098384D01*
X02425Y0098539D01*
X0235D01*
X023422Y0098384D01*
X0233558Y0097942D01*
X0221655Y0086039D01*
X0054D01*
X005322Y0085884D01*
X0052558Y0085442D01*
X0050655Y0083539D01*
X0037D01*
X003622Y0083384D01*
X0035558Y0082942D01*
X0028058Y0075442D01*
X0027616Y007478D01*
X0027461Y0074D01*
Y00355D01*
X0027616Y003472D01*
X0028058Y0034058D01*
X004197Y0020146D01*
X0041555Y0019427D01*
X0041303Y0018487D01*
Y0017513D01*
X0041555Y0016573D01*
X0042042Y001573D01*
X004273Y0015042D01*
X0043573Y0014555D01*
X0044513Y0014303D01*
X0045487D01*
X0046427Y0014555D01*
X004727Y0015042D01*
X0047958Y001573D01*
X0048445Y0016573D01*
X0048697Y0017513D01*
Y0018487D01*
X0048445Y0019427D01*
X0047958Y002027D01*
X004727Y0020958D01*
X0046427Y0021445D01*
X004618Y0021511D01*
X0045793Y0022091D01*
X0031539Y0036345D01*
Y0073155D01*
X0037845Y0079461D01*
X00515D01*
X005228Y0079616D01*
X0052942Y0080058D01*
X0054845Y0081961D01*
X02225D01*
X022328Y0082116D01*
X0223942Y0082558D01*
X0235845Y0094461D01*
X0241655D01*
X0251558Y0084558D01*
X0251558Y0084558D01*
X0254558Y0081558D01*
X025522Y0081116D01*
X0256Y0080961D01*
X0266828D01*
X0267609Y0081116D01*
X026827Y0081558D01*
X0272564Y0085852D01*
X0272564Y0085852D01*
X0272745Y0086122D01*
X0278878D01*
Y0092878D01*
X0273161D01*
Y0094187D01*
X0280534Y010156D01*
X0280978Y0101441D01*
X0282023D01*
X0283032Y0101711D01*
X0283937Y0102234D01*
X0284676Y0102973D01*
X0285198Y0103878D01*
X0285469Y0104887D01*
Y0105932D01*
X0285198Y0106941D01*
X0284676Y0107846D01*
X0283937Y0108585D01*
X0283032Y0109107D01*
X0282023Y0109378D01*
D02*
G37*
G36*
X0172487Y0101697D02*
X0171513D01*
X0170573Y0101445D01*
X016973Y0100958D01*
X0169042Y010027D01*
X0168555Y0099427D01*
X0168303Y0098487D01*
Y0097513D01*
X0168555Y0096573D01*
X0169042Y009573D01*
X016973Y0095042D01*
X0170573Y0094555D01*
X0171513Y0094303D01*
X0172487D01*
X0173427Y0094555D01*
X017427Y0095042D01*
X0174958Y009573D01*
X0175445Y0096573D01*
X0175697Y0097513D01*
Y0098487D01*
X0175445Y0099427D01*
X0174958Y010027D01*
X017427Y0100958D01*
X0173427Y0101445D01*
X0172487Y0101697D01*
D02*
G37*
G36*
X0073918Y01621D02*
X0073082D01*
X0072311Y016178D01*
X007172Y016119D01*
X00714Y0160418D01*
Y0159582D01*
X0071461Y0159435D01*
Y0146D01*
X0071616Y014522D01*
X0072058Y0144558D01*
X0109159Y0107457D01*
X010922Y010731D01*
X010981Y010672D01*
X0109957Y0106659D01*
X0118303Y0098313D01*
Y0097513D01*
X0118555Y0096573D01*
X0119042Y009573D01*
X011973Y0095042D01*
X0120573Y0094555D01*
X0121513Y0094303D01*
X0122487D01*
X0123427Y0094555D01*
X012427Y0095042D01*
X0124958Y009573D01*
X0125445Y0096573D01*
X0125697Y0097513D01*
Y0098487D01*
X0125445Y0099427D01*
X0124958Y010027D01*
X012427Y0100958D01*
X0123427Y0101445D01*
X0122487Y0101697D01*
X0121513D01*
X0120862Y0101522D01*
X0112841Y0109543D01*
X011278Y010969D01*
X011219Y011028D01*
X0112043Y0110341D01*
X0075539Y0146845D01*
Y0159435D01*
X00756Y0159582D01*
Y0160418D01*
X007528Y016119D01*
X007469Y016178D01*
X0073918Y01621D01*
D02*
G37*
G36*
X0235Y010713D02*
X0233D01*
X0232185Y0106968D01*
X0231494Y0106506D01*
X0217118Y009213D01*
X0140882D01*
X0135655Y0097357D01*
X0135697Y0097513D01*
Y0098487D01*
X0135445Y0099427D01*
X0134958Y010027D01*
X013427Y0100958D01*
X0133427Y0101445D01*
X0132487Y0101697D01*
X0131513D01*
X0130573Y0101445D01*
X012973Y0100958D01*
X0129042Y010027D01*
X0128555Y0099427D01*
X0128303Y0098487D01*
Y0097513D01*
X0128555Y0096573D01*
X0129042Y009573D01*
X012973Y0095042D01*
X0130573Y0094555D01*
X0131513Y0094303D01*
X0132487D01*
X0132643Y0094345D01*
X0138494Y0088494D01*
X0139185Y0088032D01*
X014Y008787D01*
X0218D01*
X0218815Y0088032D01*
X0219506Y0088494D01*
X0233882Y010287D01*
X0235D01*
X0235151Y01029D01*
X0235418D01*
X0235664Y0103002D01*
X0235815Y0103032D01*
X0235943Y0103118D01*
X023619Y010322D01*
X0236378Y0103408D01*
X0236506Y0103494D01*
X0236592Y0103622D01*
X023678Y0103811D01*
X0236882Y0104057D01*
X0236968Y0104185D01*
X0236998Y0104336D01*
X02371Y0104582D01*
Y0104849D01*
X023713Y0105D01*
X02371Y0105151D01*
Y0105418D01*
X0236998Y0105664D01*
X0236968Y0105815D01*
X0236882Y0105943D01*
X023678Y010619D01*
X0236592Y0106378D01*
X0236506Y0106506D01*
X0236378Y0106592D01*
X023619Y010678D01*
X0235943Y0106882D01*
X0235815Y0106968D01*
X0235664Y0106998D01*
X0235418Y01071D01*
X0235151D01*
X0235Y010713D01*
D02*
G37*
G36*
X0265237Y0092976D02*
X0264322D01*
X0263438Y0092739D01*
X0262645Y0092282D01*
X0261998Y0091635D01*
X026154Y0090842D01*
X0261303Y0089958D01*
Y0089042D01*
X026154Y0088158D01*
X0261998Y0087366D01*
X0262645Y0086718D01*
X0263438Y0086261D01*
X0264322Y0086024D01*
X0265237D01*
X0266121Y0086261D01*
X0266914Y0086718D01*
X0267561Y0087366D01*
X0268019Y0088158D01*
X0268256Y0089042D01*
Y0089958D01*
X0268019Y0090842D01*
X0267561Y0091635D01*
X0266914Y0092282D01*
X0266121Y0092739D01*
X0265237Y0092976D01*
D02*
G37*
G36*
X0237678D02*
X0236763D01*
X0235879Y0092739D01*
X0235086Y0092282D01*
X0234439Y0091635D01*
X0233981Y0090842D01*
X0233744Y0089958D01*
Y0089842D01*
X0224442Y0080539D01*
X00675D01*
X006672Y0080384D01*
X0066058Y0079942D01*
X0060655Y0074539D01*
X0055996D01*
X0055766Y0074937D01*
X0055027Y0075676D01*
X0054122Y0076198D01*
X0053113Y0076468D01*
X0052068D01*
X0051059Y0076198D01*
X0050154Y0075676D01*
X0049415Y0074937D01*
X0048893Y0074032D01*
X0048701Y0073319D01*
X0039337D01*
X0039282Y0073414D01*
X0038635Y0074061D01*
X0037842Y0074519D01*
X0036958Y0074756D01*
X0036042D01*
X0035158Y0074519D01*
X0034365Y0074061D01*
X0033718Y0073414D01*
X0033261Y0072621D01*
X0033024Y0071737D01*
Y0070822D01*
X0033261Y0069938D01*
X0033718Y0069145D01*
X0034365Y0068498D01*
X0035158Y006804D01*
X0036042Y0067803D01*
X0036958D01*
X0037842Y006804D01*
X0038635Y0068498D01*
X0039282Y0069145D01*
X0039337Y006924D01*
X00503D01*
X0051059Y0068802D01*
X0052068Y0068532D01*
X0053113D01*
X0054122Y0068802D01*
X0055027Y0069324D01*
X0055766Y0070063D01*
X0055996Y0070461D01*
X00615D01*
X006228Y0070616D01*
X0062942Y0071058D01*
X0068345Y0076461D01*
X0070514D01*
X0070648Y0075961D01*
X0070154Y0075676D01*
X0069415Y0074937D01*
X0068893Y0074032D01*
X0068622Y0073023D01*
Y0071978D01*
X0068893Y0070968D01*
X0069415Y0070063D01*
X0070154Y0069324D01*
X0071059Y0068802D01*
X0072068Y0068532D01*
X0073113D01*
X0074122Y0068802D01*
X0075027Y0069324D01*
X0075766Y0070063D01*
X0076289Y0070968D01*
X0076559Y0071978D01*
Y0073023D01*
X0076289Y0074032D01*
X0075766Y0074937D01*
X0075027Y0075676D01*
X0074533Y0075961D01*
X0074667Y0076461D01*
X0083098D01*
X0083147Y0075961D01*
X0082615Y0075855D01*
X0081788Y0075302D01*
X0072954Y0066469D01*
X0072068D01*
X0071059Y0066198D01*
X0070154Y0065676D01*
X0069415Y0064937D01*
X006909Y0064374D01*
X0068825D01*
X0067849Y006418D01*
X0067023Y0063627D01*
X0051364Y0047969D01*
X0050477D01*
X0049468Y0047698D01*
X0048563Y0047176D01*
X0047824Y0046437D01*
X0047302Y0045532D01*
X0047032Y0044523D01*
Y0043478D01*
X0047302Y0042468D01*
X0047824Y0041563D01*
X0048563Y0040824D01*
X0049468Y0040302D01*
X0050477Y0040031D01*
X0051522D01*
X0052532Y0040302D01*
X0053437Y0040824D01*
X0054176Y0041563D01*
X0054698Y0042468D01*
X0054969Y0043478D01*
Y0044364D01*
X0069881Y0059276D01*
X0070238D01*
X0071059Y0058802D01*
X0072068Y0058531D01*
X0073113D01*
X0074122Y0058802D01*
X0075027Y0059324D01*
X0075766Y0060063D01*
X0076289Y0060968D01*
X0076559Y0061978D01*
Y0062864D01*
X0084646Y0070951D01*
X0117099D01*
X0117255Y0070451D01*
X0116718Y0069914D01*
X0116261Y0069121D01*
X0116024Y0068237D01*
Y0067322D01*
X0116261Y0066438D01*
X0116718Y0065645D01*
X0117366Y0064998D01*
X0118158Y006454D01*
X0119042Y0064303D01*
X0119958D01*
X0120842Y006454D01*
X0121634Y0064998D01*
X0122282Y0065645D01*
X012274Y0066438D01*
X0122976Y0067322D01*
Y0068237D01*
X012274Y0069121D01*
X0122282Y0069914D01*
X0121745Y0070451D01*
X0121901Y0070951D01*
X0133035D01*
X0138531Y0065454D01*
Y0064568D01*
X0138802Y0063559D01*
X0139324Y0062654D01*
X0140063Y0061915D01*
X0140968Y0061392D01*
X0141978Y0061122D01*
X0143023D01*
X0144032Y0061392D01*
X0144937Y0061915D01*
X0145676Y0062654D01*
X0146198Y0063559D01*
X0146468Y0064568D01*
Y0065454D01*
X0150465Y0069451D01*
X0160009D01*
X0160074Y0068951D01*
X0159468Y0068789D01*
X0158563Y0068266D01*
X0157824Y0067527D01*
X0157302Y0066622D01*
X0157032Y0065613D01*
Y0064568D01*
X0157302Y0063559D01*
X0157824Y0062654D01*
X0158563Y0061915D01*
X0159468Y0061392D01*
X0160477Y0061122D01*
X0161522D01*
X0162532Y0061392D01*
X0163437Y0061915D01*
X0164176Y0062654D01*
X0164698Y0063559D01*
X0164969Y0064568D01*
Y0065613D01*
X0164698Y0066622D01*
X0164176Y0067527D01*
X0163437Y0068266D01*
X0162532Y0068789D01*
X0161926Y0068951D01*
X0161992Y0069451D01*
X0163035D01*
X0167032Y0065454D01*
Y0064568D01*
X0167302Y0063559D01*
X0167824Y0062654D01*
X0168563Y0061915D01*
X0169468Y0061392D01*
X0170477Y0061122D01*
X0171522D01*
X0172532Y0061392D01*
X0173437Y0061915D01*
X0174063Y0062542D01*
X0224091D01*
X0225066Y0062736D01*
X0225893Y0063288D01*
X023347Y0070865D01*
X0233918Y0070606D01*
X0233744Y0069958D01*
Y0069042D01*
X0233981Y0068158D01*
X0234439Y0067365D01*
X0235086Y0066718D01*
X0235181Y0066663D01*
Y0064065D01*
X0231155Y0060039D01*
X0096624D01*
X0090448Y0066215D01*
X0090476Y0066322D01*
Y0067237D01*
X009024Y0068121D01*
X0089782Y0068914D01*
X0089135Y0069561D01*
X0088342Y0070019D01*
X0087458Y0070256D01*
X0086542D01*
X0085658Y0070019D01*
X0084865Y0069561D01*
X0084218Y0068914D01*
X008376Y0068121D01*
X0083524Y0067237D01*
Y0066322D01*
X0083552Y0066215D01*
X0082058Y0064722D01*
X0081616Y006406D01*
X0081461Y006328D01*
Y0046845D01*
X007236Y0037744D01*
X0071522Y0037969D01*
X0070477D01*
X0069468Y0037698D01*
X0068563Y0037176D01*
X0067824Y0036437D01*
X0067302Y0035532D01*
X0067032Y0034523D01*
Y0033478D01*
X0067302Y0032468D01*
X0067824Y0031563D01*
X0068563Y0030824D01*
X0069468Y0030302D01*
X0070477Y0030031D01*
X0071522D01*
X0072532Y0030302D01*
X0073437Y0030824D01*
X0074176Y0031563D01*
X0074698Y0032468D01*
X0074968Y0033478D01*
Y0034523D01*
X0074955Y0034572D01*
X0084942Y0044558D01*
X0085384Y004522D01*
X0085539Y0046D01*
Y0062435D01*
X0086436Y0063332D01*
X0086542Y0063303D01*
X0087458D01*
X0087564Y0063332D01*
X0094338Y0056558D01*
X0094999Y0056116D01*
X009578Y0055961D01*
X0232D01*
X023278Y0056116D01*
X0233442Y0056558D01*
X0238662Y0061779D01*
X0239104Y006244D01*
X023926Y0063221D01*
Y0066663D01*
X0239355Y0066718D01*
X0240002Y0067365D01*
X024046Y0068158D01*
X0240697Y0069042D01*
Y0069958D01*
X024046Y0070842D01*
X0240002Y0071635D01*
X0239355Y0072282D01*
X0238562Y0072739D01*
X0237678Y0072976D01*
X0236763D01*
X0236115Y0072803D01*
X0235856Y0073251D01*
X0237056Y0074451D01*
X0243944D01*
X0246451Y0071944D01*
Y0032556D01*
X0239944Y0026049D01*
X0237839D01*
X0237773Y0026549D01*
X0238562Y0026761D01*
X0239355Y0027218D01*
X0240002Y0027865D01*
X024046Y0028658D01*
X0240697Y0029542D01*
Y0030458D01*
X024046Y0031342D01*
X0240002Y0032135D01*
X0239355Y0032782D01*
X0238562Y0033239D01*
X0237678Y0033476D01*
X0236763D01*
X0236656Y0033448D01*
X0225162Y0044942D01*
X0224501Y0045384D01*
X0223721Y0045539D01*
X0186D01*
X0186Y0045539D01*
X018522Y0045384D01*
X0184558Y0044942D01*
X0180935Y0041319D01*
X0173404D01*
X017327Y0041819D01*
X0173437Y0041915D01*
X0174176Y0042654D01*
X0174698Y0043559D01*
X0174969Y0044568D01*
Y0045613D01*
X0174698Y0046622D01*
X0174176Y0047527D01*
X0173437Y0048266D01*
X0172532Y0048789D01*
X0171522Y0049059D01*
X0170477D01*
X0169468Y0048789D01*
X0168563Y0048266D01*
X0167824Y0047527D01*
X0167302Y0046622D01*
X0167032Y0045613D01*
Y0044568D01*
X0167302Y0043559D01*
X0167824Y0042654D01*
X0168563Y0041915D01*
X016873Y0041819D01*
X0168596Y0041319D01*
X0167656D01*
X016485Y0044125D01*
X0164969Y0044568D01*
Y0045613D01*
X0164698Y0046622D01*
X0164176Y0047527D01*
X0163437Y0048266D01*
X0162532Y0048789D01*
X0161522Y0049059D01*
X0160477D01*
X0159468Y0048789D01*
X0158563Y0048266D01*
X0157824Y0047527D01*
X0157302Y0046622D01*
X0157032Y0045613D01*
Y0044568D01*
X015715Y0044125D01*
X0151838Y0038812D01*
X0151396Y0038151D01*
X015124Y003737D01*
Y0033837D01*
X0151145Y0033782D01*
X0150498Y0033135D01*
X015004Y0032342D01*
X0149803Y0031458D01*
Y0030542D01*
X015004Y0029658D01*
X0150498Y0028866D01*
X0151145Y0028218D01*
X0151938Y0027761D01*
X0152822Y0027524D01*
X0153737D01*
X0154621Y0027761D01*
X0155414Y0028218D01*
X0156061Y0028866D01*
X0156519Y0029658D01*
X0156756Y0030542D01*
Y0031458D01*
X0156519Y0032342D01*
X0156061Y0033135D01*
X0155414Y0033782D01*
X0155319Y0033837D01*
Y0036525D01*
X0160034Y0041241D01*
X0160477Y0041122D01*
X0161522D01*
X0161966Y0041241D01*
X0165369Y0037838D01*
X0166031Y0037396D01*
X0166811Y003724D01*
X018178D01*
X018256Y0037396D01*
X0183221Y0037838D01*
X0186845Y0041461D01*
X0222876D01*
X0233773Y0030564D01*
X0233744Y0030458D01*
Y0029542D01*
X0233981Y0028658D01*
X0234439Y0027865D01*
X0235086Y0027218D01*
X0235879Y0026761D01*
X0236668Y0026549D01*
X0236602Y0026049D01*
X0229646D01*
X0222468Y0033227D01*
Y0034113D01*
X0222198Y0035122D01*
X0221676Y0036027D01*
X0220937Y0036766D01*
X0220032Y0037289D01*
X0219022Y0037559D01*
X0217977D01*
X0216968Y0037289D01*
X0216063Y0036766D01*
X0215324Y0036027D01*
X0214802Y0035122D01*
X0214531Y0034113D01*
Y0033068D01*
X0214802Y0032059D01*
X0215324Y0031154D01*
X0216063Y0030415D01*
X0216968Y0029893D01*
X0217977Y0029622D01*
X0218864D01*
X0226788Y0021698D01*
X0227615Y0021145D01*
X0228591Y0020951D01*
X0241D01*
X0241975Y0021145D01*
X0242802Y0021698D01*
X0250802Y0029698D01*
X0251355Y0030525D01*
X0251549Y00315D01*
Y0073D01*
X0251355Y0073975D01*
X0250802Y0074802D01*
X0246802Y0078802D01*
X0245975Y0079355D01*
X0245Y0079549D01*
X0236D01*
X0235024Y0079355D01*
X0234198Y0078802D01*
X0223035Y006764D01*
X0220997D01*
X0220948Y006814D01*
X0220975Y0068145D01*
X0221802Y0068698D01*
X0221841Y0068736D01*
X0222393Y0069563D01*
X0222436Y0069777D01*
X0223302Y0070644D01*
X0223855Y007147D01*
X0224049Y0072446D01*
Y00725D01*
X0223855Y0073475D01*
X0223302Y0074302D01*
X0222476Y0074855D01*
X02215Y0075049D01*
X0220525Y0074855D01*
X022Y0074505D01*
X0219476Y0074855D01*
X02185Y0075049D01*
X0191D01*
X0190024Y0074855D01*
X0189198Y0074302D01*
X0187198Y0072302D01*
X0186645Y0071475D01*
X0186598Y0071237D01*
X0185948Y0070802D01*
X0185694Y0070549D01*
X0174D01*
X0173024Y0070355D01*
X0172198Y0069802D01*
X0171454Y0069059D01*
X0170636D01*
X0165893Y0073802D01*
X0165066Y0074355D01*
X0164091Y0074549D01*
X0149409D01*
X0148434Y0074355D01*
X0147607Y0073802D01*
X0142864Y0069059D01*
X0142136D01*
X0135893Y0075302D01*
X0135066Y0075855D01*
X0134534Y0075961D01*
X0134583Y0076461D01*
X0225286D01*
X0226066Y0076616D01*
X0226728Y0077058D01*
X023592Y008625D01*
X0236763Y0086024D01*
X0237678D01*
X0238562Y0086261D01*
X0239355Y0086718D01*
X0240002Y0087366D01*
X024046Y0088158D01*
X0240697Y0089042D01*
Y0089958D01*
X024046Y0090842D01*
X0240002Y0091635D01*
X0239355Y0092282D01*
X0238562Y0092739D01*
X0237678Y0092976D01*
D02*
G37*
G36*
X0278938Y0072878D02*
X0272182D01*
Y0066122D01*
X0278938D01*
Y0072878D01*
D02*
G37*
G36*
X0265237Y0072976D02*
X0264322D01*
X0263438Y0072739D01*
X0262645Y0072282D01*
X0261998Y0071635D01*
X026154Y0070842D01*
X0261303Y0069958D01*
Y0069042D01*
X026154Y0068158D01*
X0261998Y0067365D01*
X0262645Y0066718D01*
X0263438Y0066261D01*
X0264322Y0066024D01*
X0265237D01*
X0266121Y0066261D01*
X0266914Y0066718D01*
X0267561Y0067365D01*
X0268019Y0068158D01*
X0268256Y0069042D01*
Y0069958D01*
X0268019Y0070842D01*
X0267561Y0071635D01*
X0266914Y0072282D01*
X0266121Y0072739D01*
X0265237Y0072976D01*
D02*
G37*
G36*
X0133022Y0069059D02*
X0131977D01*
X0130968Y0068789D01*
X0130063Y0068266D01*
X0129324Y0067527D01*
X0128802Y0066622D01*
X0128532Y0065613D01*
Y0064568D01*
X0128802Y0063559D01*
X0129324Y0062654D01*
X0130063Y0061915D01*
X0130968Y0061392D01*
X0131977Y0061122D01*
X0133022D01*
X0134032Y0061392D01*
X0134937Y0061915D01*
X0135676Y0062654D01*
X0136198Y0063559D01*
X0136469Y0064568D01*
Y0065613D01*
X0136198Y0066622D01*
X0135676Y0067527D01*
X0134937Y0068266D01*
X0134032Y0068789D01*
X0133022Y0069059D01*
D02*
G37*
G36*
X0053113Y0066469D02*
X0052068D01*
X0051059Y0066198D01*
X0050154Y0065676D01*
X0049415Y0064937D01*
X0048893Y0064032D01*
X0048622Y0063023D01*
Y0061978D01*
X0048893Y0060968D01*
X0049415Y0060063D01*
X0050154Y0059324D01*
X0051059Y0058802D01*
X0052068Y0058531D01*
X0053113D01*
X0054122Y0058802D01*
X0055027Y0059324D01*
X0055766Y0060063D01*
X0056289Y0060968D01*
X0056559Y0061978D01*
Y0063023D01*
X0056289Y0064032D01*
X0055766Y0064937D01*
X0055027Y0065676D01*
X0054122Y0066198D01*
X0053113Y0066469D01*
D02*
G37*
G36*
X0278957Y0052878D02*
X0272201D01*
Y0046122D01*
X0278957D01*
Y0052878D01*
D02*
G37*
G36*
X0265237Y0052976D02*
X0264322D01*
X0263438Y005274D01*
X0262645Y0052282D01*
X0261998Y0051635D01*
X026154Y0050842D01*
X0261303Y0049958D01*
Y0049042D01*
X026154Y0048158D01*
X0261998Y0047365D01*
X0262645Y0046718D01*
X0263438Y0046261D01*
X0264322Y0046024D01*
X0265237D01*
X0266121Y0046261D01*
X0266914Y0046718D01*
X0267561Y0047365D01*
X0268019Y0048158D01*
X0268256Y0049042D01*
Y0049958D01*
X0268019Y0050842D01*
X0267561Y0051635D01*
X0266914Y0052282D01*
X0266121Y005274D01*
X0265237Y0052976D01*
D02*
G37*
G36*
X0234615Y0054039D02*
X0139409D01*
X0138629Y0053884D01*
X0137968Y0053442D01*
X0133466Y004894D01*
X0133022Y0049059D01*
X0131977D01*
X0130968Y0048789D01*
X0130063Y0048266D01*
X0129324Y0047527D01*
X0128802Y0046622D01*
X0128532Y0045613D01*
Y0044568D01*
X0128802Y0043559D01*
X0129324Y0042654D01*
X0130063Y0041915D01*
X0130968Y0041392D01*
X0131977Y0041122D01*
X0133022D01*
X0134032Y0041392D01*
X0134937Y0041915D01*
X0135676Y0042654D01*
X0136198Y0043559D01*
X0136469Y0044568D01*
Y0045613D01*
X013635Y0046056D01*
X0140254Y0049961D01*
X0233742D01*
X0233744Y0049958D01*
Y0049042D01*
X0233981Y0048158D01*
X0234439Y0047365D01*
X0235086Y0046718D01*
X0235879Y0046261D01*
X0236763Y0046024D01*
X0237678D01*
X0238562Y0046261D01*
X0239355Y0046718D01*
X0240002Y0047365D01*
X024046Y0048158D01*
X0240697Y0049042D01*
Y0049958D01*
X024046Y0050842D01*
X0240002Y0051635D01*
X0239355Y0052282D01*
X0238562Y005274D01*
X0237678Y0052976D01*
X0236763D01*
X0236574Y0052926D01*
X0236057Y0053442D01*
X0235396Y0053884D01*
X0234615Y0054039D01*
D02*
G37*
G36*
X0143023Y0049059D02*
X0141978D01*
X0140968Y0048789D01*
X0140063Y0048266D01*
X0139324Y0047527D01*
X0138802Y0046622D01*
X0138531Y0045613D01*
Y0044568D01*
X0138802Y0043559D01*
X0139324Y0042654D01*
X0140063Y0041915D01*
X0140968Y0041392D01*
X0141978Y0041122D01*
X0143023D01*
X0144032Y0041392D01*
X0144937Y0041915D01*
X0145676Y0042654D01*
X0146198Y0043559D01*
X0146468Y0044568D01*
Y0045613D01*
X0146198Y0046622D01*
X0145676Y0047527D01*
X0144937Y0048266D01*
X0144032Y0048789D01*
X0143023Y0049059D01*
D02*
G37*
G36*
X0071522Y0047969D02*
X0070477D01*
X0069468Y0047698D01*
X0068563Y0047176D01*
X0067824Y0046437D01*
X0067302Y0045532D01*
X0067032Y0044523D01*
Y0043478D01*
X0067302Y0042468D01*
X0067824Y0041563D01*
X0068563Y0040824D01*
X0069468Y0040302D01*
X0070477Y0040031D01*
X0071522D01*
X0072532Y0040302D01*
X0073437Y0040824D01*
X0074176Y0041563D01*
X0074698Y0042468D01*
X0074968Y0043478D01*
Y0044523D01*
X0074698Y0045532D01*
X0074176Y0046437D01*
X0073437Y0047176D01*
X0072532Y0047698D01*
X0071522Y0047969D01*
D02*
G37*
G36*
X0051522Y0037969D02*
X0050477D01*
X0049468Y0037698D01*
X0048563Y0037176D01*
X0047824Y0036437D01*
X0047302Y0035532D01*
X0047032Y0034523D01*
Y0033478D01*
X0047302Y0032468D01*
X0047824Y0031563D01*
X0048563Y0030824D01*
X0049468Y0030302D01*
X0050477Y0030031D01*
X0051522D01*
X0052532Y0030302D01*
X0053437Y0030824D01*
X0054176Y0031563D01*
X0054698Y0032468D01*
X0054969Y0033478D01*
Y0034523D01*
X0054698Y0035532D01*
X0054176Y0036437D01*
X0053437Y0037176D01*
X0052532Y0037698D01*
X0051522Y0037969D01*
D02*
G37*
G36*
X0209022Y0037559D02*
X0207978D01*
X0206968Y0037289D01*
X0206063Y0036766D01*
X0205324Y0036027D01*
X0204802Y0035122D01*
X0204532Y0034113D01*
Y0033068D01*
X0204802Y0032059D01*
X0205324Y0031154D01*
X0206063Y0030415D01*
X0206968Y0029893D01*
X0207978Y0029622D01*
X0209022D01*
X0210032Y0029893D01*
X0210937Y0030415D01*
X0211676Y0031154D01*
X0212198Y0032059D01*
X0212469Y0033068D01*
Y0034113D01*
X0212198Y0035122D01*
X0211676Y0036027D01*
X0210937Y0036766D01*
X0210032Y0037289D01*
X0209022Y0037559D01*
D02*
G37*
G36*
X027886Y0033378D02*
X0272104D01*
Y0026622D01*
X027886D01*
Y0033378D01*
D02*
G37*
G36*
X0265237Y0033476D02*
X0264322D01*
X0263438Y0033239D01*
X0262645Y0032782D01*
X0261998Y0032135D01*
X026154Y0031342D01*
X0261303Y0030458D01*
Y0029542D01*
X026154Y0028658D01*
X0261998Y0027865D01*
X0262645Y0027218D01*
X0263438Y0026761D01*
X0264322Y0026524D01*
X0265237D01*
X0266121Y0026761D01*
X0266914Y0027218D01*
X0267561Y0027865D01*
X0268019Y0028658D01*
X0268256Y0029542D01*
Y0030458D01*
X0268019Y0031342D01*
X0267561Y0032135D01*
X0266914Y0032782D01*
X0266121Y0033239D01*
X0265237Y0033476D01*
D02*
G37*
G36*
X0135487Y0021697D02*
X0134513D01*
X0133573Y0021445D01*
X013273Y0020958D01*
X0132042Y002027D01*
X0131555Y0019427D01*
X0131303Y0018487D01*
Y0017513D01*
X0131555Y0016573D01*
X0132042Y001573D01*
X013273Y0015042D01*
X0133573Y0014555D01*
X0134513Y0014303D01*
X0135487D01*
X0136427Y0014555D01*
X013727Y0015042D01*
X0137958Y001573D01*
X0138445Y0016573D01*
X0138697Y0017513D01*
Y0018487D01*
X0138445Y0019427D01*
X0137958Y002027D01*
X013727Y0020958D01*
X0136427Y0021445D01*
X0135487Y0021697D01*
D02*
G37*
G36*
X0125487D02*
X0124513D01*
X0123573Y0021445D01*
X012273Y0020958D01*
X0122042Y002027D01*
X0121555Y0019427D01*
X0121303Y0018487D01*
Y0017513D01*
X0121555Y0016573D01*
X0122042Y001573D01*
X012273Y0015042D01*
X0123573Y0014555D01*
X0124513Y0014303D01*
X0125487D01*
X0126427Y0014555D01*
X012727Y0015042D01*
X0127958Y001573D01*
X0128445Y0016573D01*
X0128697Y0017513D01*
Y0018487D01*
X0128445Y0019427D01*
X0127958Y002027D01*
X012727Y0020958D01*
X0126427Y0021445D01*
X0125487Y0021697D01*
D02*
G37*
G36*
X0115487D02*
X0114513D01*
X0113573Y0021445D01*
X011273Y0020958D01*
X0112042Y002027D01*
X0111555Y0019427D01*
X0111303Y0018487D01*
Y0017513D01*
X0111555Y0016573D01*
X0112042Y001573D01*
X011273Y0015042D01*
X0113573Y0014555D01*
X0114513Y0014303D01*
X0115487D01*
X0116427Y0014555D01*
X011727Y0015042D01*
X0117958Y001573D01*
X0118445Y0016573D01*
X0118697Y0017513D01*
Y0018487D01*
X0118445Y0019427D01*
X0117958Y002027D01*
X011727Y0020958D01*
X0116427Y0021445D01*
X0115487Y0021697D01*
D02*
G37*
G36*
X0105487D02*
X0104513D01*
X0103573Y0021445D01*
X010273Y0020958D01*
X0102042Y002027D01*
X0101555Y0019427D01*
X0101303Y0018487D01*
Y0017513D01*
X0101555Y0016573D01*
X0102042Y001573D01*
X010273Y0015042D01*
X0103573Y0014555D01*
X0104513Y0014303D01*
X0105487D01*
X0106427Y0014555D01*
X010727Y0015042D01*
X0107958Y001573D01*
X0108445Y0016573D01*
X0108697Y0017513D01*
Y0018487D01*
X0108445Y0019427D01*
X0107958Y002027D01*
X010727Y0020958D01*
X0106427Y0021445D01*
X0105487Y0021697D01*
D02*
G37*
G36*
X0095487D02*
X0094513D01*
X0093573Y0021445D01*
X009273Y0020958D01*
X0092042Y002027D01*
X0091555Y0019427D01*
X0091303Y0018487D01*
Y0017513D01*
X0091555Y0016573D01*
X0092042Y001573D01*
X009273Y0015042D01*
X0093573Y0014555D01*
X0094513Y0014303D01*
X0095487D01*
X0096427Y0014555D01*
X009727Y0015042D01*
X0097958Y001573D01*
X0098445Y0016573D01*
X0098697Y0017513D01*
Y0018487D01*
X0098445Y0019427D01*
X0097958Y002027D01*
X009727Y0020958D01*
X0096427Y0021445D01*
X0095487Y0021697D01*
D02*
G37*
G36*
X0085487D02*
X0084513D01*
X0083573Y0021445D01*
X008273Y0020958D01*
X0082042Y002027D01*
X0081555Y0019427D01*
X0081303Y0018487D01*
Y0017513D01*
X0081555Y0016573D01*
X0082042Y001573D01*
X008273Y0015042D01*
X0083573Y0014555D01*
X0084513Y0014303D01*
X0085487D01*
X0086427Y0014555D01*
X008727Y0015042D01*
X0087958Y001573D01*
X0088445Y0016573D01*
X0088697Y0017513D01*
Y0018487D01*
X0088445Y0019427D01*
X0087958Y002027D01*
X008727Y0020958D01*
X0086427Y0021445D01*
X0085487Y0021697D01*
D02*
G37*
G36*
X0075487D02*
X0074513D01*
X0073573Y0021445D01*
X007273Y0020958D01*
X0072042Y002027D01*
X0071555Y0019427D01*
X0071303Y0018487D01*
Y0017513D01*
X0071555Y0016573D01*
X0072042Y001573D01*
X007273Y0015042D01*
X0073573Y0014555D01*
X0074513Y0014303D01*
X0075487D01*
X0076427Y0014555D01*
X007727Y0015042D01*
X0077958Y001573D01*
X0078445Y0016573D01*
X0078697Y0017513D01*
Y0018487D01*
X0078445Y0019427D01*
X0077958Y002027D01*
X007727Y0020958D01*
X0076427Y0021445D01*
X0075487Y0021697D01*
D02*
G37*
G36*
X0065487D02*
X0064513D01*
X0063573Y0021445D01*
X006273Y0020958D01*
X0062042Y002027D01*
X0061555Y0019427D01*
X0061303Y0018487D01*
Y0017513D01*
X0061555Y0016573D01*
X0062042Y001573D01*
X006273Y0015042D01*
X0063573Y0014555D01*
X0064513Y0014303D01*
X0065487D01*
X0066427Y0014555D01*
X006727Y0015042D01*
X0067958Y001573D01*
X0068445Y0016573D01*
X0068697Y0017513D01*
Y0018487D01*
X0068445Y0019427D01*
X0067958Y002027D01*
X006727Y0020958D01*
X0066427Y0021445D01*
X0065487Y0021697D01*
D02*
G37*
G36*
X0055487D02*
X0054513D01*
X0053573Y0021445D01*
X005273Y0020958D01*
X0052042Y002027D01*
X0051555Y0019427D01*
X0051303Y0018487D01*
Y0017513D01*
X0051555Y0016573D01*
X0052042Y001573D01*
X005273Y0015042D01*
X0053573Y0014555D01*
X0054513Y0014303D01*
X0055487D01*
X0056427Y0014555D01*
X005727Y0015042D01*
X0057958Y001573D01*
X0058445Y0016573D01*
X0058697Y0017513D01*
Y0018487D01*
X0058445Y0019427D01*
X0057958Y002027D01*
X005727Y0020958D01*
X0056427Y0021445D01*
X0055487Y0021697D01*
D02*
G37*
G36*
X0035487D02*
X0034513D01*
X0033573Y0021445D01*
X003273Y0020958D01*
X0032042Y002027D01*
X0031555Y0019427D01*
X0031303Y0018487D01*
Y0017513D01*
X0031555Y0016573D01*
X0032042Y001573D01*
X003273Y0015042D01*
X0033573Y0014555D01*
X0034513Y0014303D01*
X0035487D01*
X0036427Y0014555D01*
X003727Y0015042D01*
X0037958Y001573D01*
X0038445Y0016573D01*
X0038697Y0017513D01*
Y0018487D01*
X0038445Y0019427D01*
X0037958Y002027D01*
X003727Y0020958D01*
X0036427Y0021445D01*
X0035487Y0021697D01*
D02*
G37*
G36*
X0025487D02*
X0024513D01*
X0023573Y0021445D01*
X002273Y0020958D01*
X0022042Y002027D01*
X0021555Y0019427D01*
X0021303Y0018487D01*
Y0017513D01*
X0021555Y0016573D01*
X0022042Y001573D01*
X002273Y0015042D01*
X0023573Y0014555D01*
X0024513Y0014303D01*
X0025487D01*
X0026427Y0014555D01*
X002727Y0015042D01*
X0027958Y001573D01*
X0028445Y0016573D01*
X0028697Y0017513D01*
Y0018487D01*
X0028445Y0019427D01*
X0027958Y002027D01*
X002727Y0020958D01*
X0026427Y0021445D01*
X0025487Y0021697D01*
D02*
G37*
G36*
X0219022Y0017559D02*
X0217977D01*
X0216968Y0017289D01*
X0216063Y0016766D01*
X0215324Y0016027D01*
X0214802Y0015122D01*
X0214531Y0014113D01*
Y0013068D01*
X0214802Y0012059D01*
X0215324Y0011154D01*
X0216063Y0010415D01*
X0216968Y0009893D01*
X0217977Y0009622D01*
X0219022D01*
X0220032Y0009893D01*
X0220937Y0010415D01*
X0221676Y0011154D01*
X0222198Y0012059D01*
X0222468Y0013068D01*
Y0014113D01*
X0222198Y0015122D01*
X0221676Y0016027D01*
X0220937Y0016766D01*
X0220032Y0017289D01*
X0219022Y0017559D01*
D02*
G37*
G36*
X0148697Y0021697D02*
X0141303D01*
Y0014303D01*
X0148697D01*
Y0017461D01*
X0183376D01*
X0193188Y0007648D01*
X0193261Y0007379D01*
X0193718Y0006586D01*
X0194366Y0005939D01*
X0195158Y0005481D01*
X0196042Y0005244D01*
X0196958D01*
X0197842Y0005481D01*
X0198635Y0005939D01*
X0199282Y0006586D01*
X019974Y0007379D01*
X0199761Y0007461D01*
X0204409D01*
X020519Y0007616D01*
X0205851Y0008058D01*
X0207534Y0009741D01*
X0207978Y0009622D01*
X0209022D01*
X0210032Y0009893D01*
X0210937Y0010415D01*
X0211676Y0011154D01*
X0212198Y0012059D01*
X0212469Y0013068D01*
Y0014113D01*
X0212198Y0015122D01*
X0211676Y0016027D01*
X0210937Y0016766D01*
X0210032Y0017289D01*
X0209022Y0017559D01*
X0207978D01*
X0206968Y0017289D01*
X0206063Y0016766D01*
X0205324Y0016027D01*
X0204802Y0015122D01*
X0204532Y0014113D01*
Y0013068D01*
X020465Y0012625D01*
X0203565Y0011539D01*
X0198571D01*
X0197842Y001196D01*
X0196958Y0012197D01*
X0196042D01*
X0195158Y001196D01*
X0194832Y0011772D01*
X0185662Y0020942D01*
X0185001Y0021384D01*
X0184221Y0021539D01*
X0148697D01*
Y0021697D01*
D02*
G37*
G36*
X0278878Y0013878D02*
X0272122D01*
Y0007122D01*
X0278878D01*
Y0013878D01*
D02*
G37*
G36*
X0265237Y0013976D02*
X0264322D01*
X0263438Y0013739D01*
X0262645Y0013282D01*
X0261998Y0012635D01*
X026154Y0011842D01*
X0261303Y0010958D01*
Y0010042D01*
X026154Y0009158D01*
X0261998Y0008365D01*
X0262645Y0007718D01*
X0263438Y0007261D01*
X0264322Y0007024D01*
X0265237D01*
X0266121Y0007261D01*
X0266914Y0007718D01*
X0267561Y0008365D01*
X0268019Y0009158D01*
X0268256Y0010042D01*
Y0010958D01*
X0268019Y0011842D01*
X0267561Y0012635D01*
X0266914Y0013282D01*
X0266121Y0013739D01*
X0265237Y0013976D01*
D02*
G37*
G36*
X0237678D02*
X0236763D01*
X0235879Y0013739D01*
X0235086Y0013282D01*
X0234439Y0012635D01*
X0233981Y0011842D01*
X0233744Y0010958D01*
Y0010042D01*
X0233981Y0009158D01*
X0234439Y0008365D01*
X0235086Y0007718D01*
X0235879Y0007261D01*
X0236763Y0007024D01*
X0237678D01*
X0238562Y0007261D01*
X0239355Y0007718D01*
X0240002Y0008365D01*
X024046Y0009158D01*
X0240697Y0010042D01*
Y0010958D01*
X024046Y0011842D01*
X0240002Y0012635D01*
X0239355Y0013282D01*
X0238562Y0013739D01*
X0237678Y0013976D01*
D02*
G37*
G36*
X0075527Y0012D02*
X0074473D01*
X0073456Y0011727D01*
X0072544Y0011201D01*
X0071799Y0010456D01*
X0071273Y0009544D01*
X0071Y0008527D01*
Y0007473D01*
X0071273Y0006456D01*
X0071799Y0005544D01*
X0072544Y0004799D01*
X0073456Y0004273D01*
X0074473Y0004D01*
X0075527D01*
X0076544Y0004273D01*
X0077456Y0004799D01*
X0078201Y0005544D01*
X0078727Y0006456D01*
X0079Y0007473D01*
Y0008527D01*
X0078727Y0009544D01*
X0078201Y0010456D01*
X0077456Y0011201D01*
X0076544Y0011727D01*
X0075527Y0012D01*
D02*
G37*
G36*
X0065527D02*
X0064473D01*
X0063456Y0011727D01*
X0062544Y0011201D01*
X0061799Y0010456D01*
X0061273Y0009544D01*
X0061Y0008527D01*
Y0007473D01*
X0061273Y0006456D01*
X0061799Y0005544D01*
X0062544Y0004799D01*
X0063456Y0004273D01*
X0064473Y0004D01*
X0065527D01*
X0066544Y0004273D01*
X0067456Y0004799D01*
X0068201Y0005544D01*
X0068727Y0006456D01*
X0069Y0007473D01*
Y0008527D01*
X0068727Y0009544D01*
X0068201Y0010456D01*
X0067456Y0011201D01*
X0066544Y0011727D01*
X0065527Y0012D01*
D02*
G37*
G36*
X0055527D02*
X0054473D01*
X0053456Y0011727D01*
X0052544Y0011201D01*
X0051799Y0010456D01*
X0051273Y0009544D01*
X0051Y0008527D01*
Y0007473D01*
X0051273Y0006456D01*
X0051799Y0005544D01*
X0052544Y0004799D01*
X0053456Y0004273D01*
X0054473Y0004D01*
X0055527D01*
X0056544Y0004273D01*
X0057456Y0004799D01*
X0058201Y0005544D01*
X0058727Y0006456D01*
X0059Y0007473D01*
Y0008527D01*
X0058727Y0009544D01*
X0058201Y0010456D01*
X0057456Y0011201D01*
X0056544Y0011727D01*
X0055527Y0012D01*
D02*
G37*
%LPD*%
D10*
X0192634Y0134214D02*
G03*
X0195714Y0134214I000154J000154D01*
G01*
X0189159Y0137689D02*
G03*
X0186204Y0137689I-0001477J-0001477D01*
G01*
X0186204Y0137689D02*
G03*
X0186204Y0134735I0001477J-0001477D01*
G01*
X0191735Y012625D02*
G03*
X0191735Y0129204I-0001477J0001477D01*
G01*
X018878Y012625D02*
G03*
X0191735Y012625I0001477J0001477D01*
G01*
X018325Y013178D02*
G03*
X0180295Y013178I-0001477J-0001477D01*
G01*
X0180295Y013178D02*
G03*
X0180295Y0128826I0001477J-0001477D01*
G01*
X018377Y012227D02*
G03*
X018377Y0125351I-000154J000154D01*
G01*
X0135302Y0156D02*
G03*
X0133124Y0153822I0J-0002178D01*
G01*
X0131035Y015D02*
G03*
X0133124Y0152089I0J0002089D01*
G01*
X0128946D02*
G03*
X0131035Y015I0002089J0D01*
G01*
X0128946Y0159911D02*
G03*
X0126857Y0162I-0002089J0D01*
G01*
X0126857D02*
G03*
X0124767Y0159911I0J-0002089D01*
G01*
X0122589Y0156D02*
G03*
X0124767Y0158178I0J0002178D01*
G01*
X0218Y009D02*
X0233Y0105D01*
X014Y009D02*
X0218D01*
X0132Y0098D02*
X014Y009D01*
X0233Y0105D02*
X0235D01*
X0097Y01445D02*
X01085Y0156D01*
X02085Y01475D02*
X02255Y01305D01*
X0182Y01475D02*
X02085D01*
X0162615Y0101115D02*
X0183Y01215D01*
X0195714Y0134214D02*
X0199Y01375D01*
X0189159Y0137689D02*
X0192634Y0134214D01*
X0189159Y0137689D02*
X0189159Y0137689D01*
X0186204Y0137689D02*
X0186204Y0137689D01*
X0186204Y0134735D02*
X0186204Y0134735D01*
X0191735Y0129204D01*
X0191735Y0129204D02*
X0191735Y0129204D01*
X0191735Y012625D02*
X0191735Y012625D01*
X018878Y012625D02*
X018878Y012625D01*
X018325Y013178D02*
X018878Y012625D01*
X018325Y013178D02*
X018325Y013178D01*
X0180295Y013178D02*
X0180295Y013178D01*
X0180295Y0128826D02*
X0180295Y0128826D01*
X018377Y0125351D01*
X018377Y0125351D02*
X018377Y0125351D01*
X0183Y01215D02*
X018377Y012227D01*
X0199Y01375D02*
X02005Y0139D01*
X0162Y0098D02*
X0162615Y0098615D01*
X02005Y0139D02*
X0208D01*
X0162615Y0098615D02*
Y0101115D01*
X0135302Y0156D02*
X01395D01*
X0133124Y0152089D02*
Y0153822D01*
X0131035Y015D02*
X0131035D01*
X0128946Y0152089D02*
Y0159911D01*
X0126857Y0162D02*
X0126857D01*
X0124767Y0158178D02*
Y0159911D01*
X01215Y0156D02*
X0122589D01*
X01395D02*
X01815D01*
X01085D02*
X01215D01*
X01815D02*
X01985Y0173D01*
X0152Y01175D02*
X0182Y01475D01*
X0152Y0098D02*
Y01175D01*
X01985Y0173D02*
X02485D01*
X0261Y01855D01*
X0148411Y0002911D02*
X0159Y00135D01*
X0090089Y0002911D02*
X0148411D01*
X0085Y0008D02*
X0090089Y0002911D01*
X0192634Y0330277D02*
G03*
X0195714Y0330277I000154J000154D01*
G01*
X0189159Y0333752D02*
G03*
X0186204Y0333752I-0001477J-0001477D01*
G01*
X0186204Y0333752D02*
G03*
X0186204Y0330798I0001477J-0001477D01*
G01*
X0191735Y0322313D02*
G03*
X0191735Y0325267I-0001477J0001477D01*
G01*
X018878Y0322313D02*
G03*
X0191735Y0322313I0001477J0001477D01*
G01*
X018325Y0327843D02*
G03*
X0180295Y0327843I-0001477J-0001477D01*
G01*
X0180295Y0327843D02*
G03*
X0180295Y0324889I0001477J-0001477D01*
G01*
X018377Y0318333D02*
G03*
X018377Y0321414I-000154J000154D01*
G01*
X0135302Y0352063D02*
G03*
X0133124Y0349885I0J-0002178D01*
G01*
X0131035Y0346063D02*
G03*
X0133124Y0348152I0J0002089D01*
G01*
X0128946D02*
G03*
X0131035Y0346063I0002089J0D01*
G01*
X0128946Y0355974D02*
G03*
X0126857Y0358063I-0002089J0D01*
G01*
X0126857D02*
G03*
X0124767Y0355974I0J-0002089D01*
G01*
X0122589Y0352063D02*
G03*
X0124767Y0354241I0J0002178D01*
G01*
X0218Y0286063D02*
X0233Y0301063D01*
X014Y0286063D02*
X0218D01*
X0132Y0294063D02*
X014Y0286063D01*
X0233Y0301063D02*
X0235D01*
X0097Y0340563D02*
X01085Y0352063D01*
X02085Y0343563D02*
X02255Y0326563D01*
X0182Y0343563D02*
X02085D01*
X0162615Y0297178D02*
X0183Y0317563D01*
X0195714Y0330277D02*
X0199Y0333563D01*
X0189159Y0333752D02*
X0192634Y0330277D01*
X0189159Y0333752D02*
X0189159Y0333752D01*
X0186204Y0333752D02*
X0186204Y0333752D01*
X0186204Y0330798D02*
X0186204Y0330798D01*
X0191735Y0325267D01*
X0191735Y0325267D02*
X0191735Y0325267D01*
X0191735Y0322313D02*
X0191735Y0322313D01*
X018878Y0322313D02*
X018878Y0322313D01*
X018325Y0327843D02*
X018878Y0322313D01*
X018325Y0327843D02*
X018325Y0327843D01*
X0180295Y0327843D02*
X0180295Y0327843D01*
X0180295Y0324889D02*
X0180295Y0324889D01*
X018377Y0321414D01*
X018377Y0321414D02*
X018377Y0321414D01*
X0183Y0317563D02*
X018377Y0318333D01*
X0199Y0333563D02*
X02005Y0335063D01*
X0162Y0294063D02*
X0162615Y0294678D01*
X02005Y0335063D02*
X0208D01*
X0162615Y0294678D02*
Y0297178D01*
X0135302Y0352063D02*
X01395D01*
X0133124Y0348152D02*
Y0349885D01*
X0131035Y0346063D02*
X0131035D01*
X0128946Y0348152D02*
Y0355974D01*
X0126857Y0358063D02*
X0126857D01*
X0124767Y0354241D02*
Y0355974D01*
X01215Y0352063D02*
X0122589D01*
X01395D02*
X01815D01*
X01085D02*
X01215D01*
X01815D02*
X01985Y0369063D01*
X0152Y0313563D02*
X0182Y0343563D01*
X0152Y0294063D02*
Y0313563D01*
X01985Y0369063D02*
X02485D01*
X0261Y0381563D01*
X0148411Y0198974D02*
X0159Y0209563D01*
X0090089Y0198974D02*
X0148411D01*
X0085Y0204063D02*
X0090089Y0198974D01*
D11*
X0118Y01825D02*
X0174D01*
X0184881Y0171619D01*
X01165Y0181D02*
X0118Y01825D01*
Y0378563D02*
X0174D01*
X0184881Y0367682D01*
X01165Y0377063D02*
X0118Y0378563D01*
D12*
X001Y0005D02*
Y00945D01*
X00125Y00025D02*
X00395D01*
X001Y0005D02*
X00125Y00025D01*
X00395D02*
X0045Y0008D01*
X001Y0201063D02*
Y0290563D01*
X00125Y0198563D02*
X00395D01*
X001Y0201063D02*
X00125Y0198563D01*
X00395D02*
X0045Y0204063D01*
D13*
X0092084Y0169584D02*
X0093Y01705D01*
X0092Y01695D02*
X0092084Y0169584D01*
X0098493Y01735D02*
X0139D01*
X0095493Y01705D02*
X0098493Y01735D01*
X0093Y01705D02*
X0095493D01*
X0183841Y0065091D02*
X0191033D01*
X0191493Y0067615D01*
Y0069D01*
X0189D02*
X0191493D01*
X0191033Y0065091D02*
X0224091D01*
X0171091D02*
X0174Y0068D01*
X0171Y0065091D02*
X0171091D01*
X018675Y0068D02*
X018775Y0069D01*
X0183841Y0065091D02*
X018675Y0068D01*
X018775Y0069D02*
X0189D01*
X0174Y0068D02*
X018675D01*
X0171091Y0065091D02*
X0183841D01*
X0194536Y0071379D02*
X0195Y00725D01*
X0192493Y0070007D02*
X01935Y0069D01*
X0190007Y0070007D02*
X0192493D01*
X0189Y00705D02*
X0191Y00725D01*
X02185D01*
X01935Y0070343D02*
X0194536Y0071379D01*
X0189Y0069D02*
Y00705D01*
X02185Y00725D02*
X022Y0071D01*
X02215Y00725D01*
X02185Y0072446D02*
X0219962Y0070984D01*
Y0070538D02*
X022Y00705D01*
X0219962Y0070538D02*
Y0070984D01*
X02185Y0072446D02*
Y00725D01*
X0220038Y0070984D02*
X02215Y0072446D01*
X0220038Y0070538D02*
Y0070984D01*
X022Y00705D02*
X0220038Y0070538D01*
X02215Y0072446D02*
Y00725D01*
X0236Y0077D02*
X0245D01*
X0224091Y0065091D02*
X0236Y0077D01*
X0245D02*
X0249Y0073D01*
Y00315D02*
Y0073D01*
X0241Y00235D02*
X0249Y00315D01*
X0071916Y0061825D02*
X0083591Y00735D01*
X0134091D01*
X0228591Y00235D02*
X0241D01*
X02185Y0033591D02*
X0228591Y00235D01*
X0051Y0044D02*
X0051644Y0043356D01*
X0068825Y0061825D02*
X0071916D01*
X0051Y0044D02*
X0068825Y0061825D01*
X01425Y0065091D02*
X0149409Y0072D01*
X0134091Y00735D02*
X01425Y0065091D01*
X0164091Y0072D02*
X0171Y0065091D01*
X0149409Y0072D02*
X0164091D01*
X0092084Y0365647D02*
X0093Y0366563D01*
X0092Y0365563D02*
X0092084Y0365647D01*
X0098493Y0369563D02*
X0139D01*
X0095493Y0366563D02*
X0098493Y0369563D01*
X0093Y0366563D02*
X0095493D01*
X0183841Y0261154D02*
X0191033D01*
X0191493Y0263678D01*
Y0265063D01*
X0189D02*
X0191493D01*
X0191033Y0261154D02*
X0224091D01*
X0171091D02*
X0174Y0264063D01*
X0171Y0261154D02*
X0171091D01*
X018675Y0264063D02*
X018775Y0265063D01*
X0183841Y0261154D02*
X018675Y0264063D01*
X018775Y0265063D02*
X0189D01*
X0174Y0264063D02*
X018675D01*
X0171091Y0261154D02*
X0183841D01*
X0194536Y0267442D02*
X0195Y0268563D01*
X0192493Y026607D02*
X01935Y0265063D01*
X0190007Y026607D02*
X0192493D01*
X0189Y0266563D02*
X0191Y0268563D01*
X02185D01*
X01935Y0266406D02*
X0194536Y0267442D01*
X0189Y0265063D02*
Y0266563D01*
X02185Y0268563D02*
X022Y0267063D01*
X02215Y0268563D01*
X02185Y0268509D02*
X0219962Y0267047D01*
Y0266601D02*
X022Y0266563D01*
X0219962Y0266601D02*
Y0267047D01*
X02185Y0268509D02*
Y0268563D01*
X0220038Y0267047D02*
X02215Y0268509D01*
X0220038Y0266601D02*
Y0267047D01*
X022Y0266563D02*
X0220038Y0266601D01*
X02215Y0268509D02*
Y0268563D01*
X0236Y0273063D02*
X0245D01*
X0224091Y0261154D02*
X0236Y0273063D01*
X0245D02*
X0249Y0269063D01*
Y0227563D02*
Y0269063D01*
X0241Y0219563D02*
X0249Y0227563D01*
X0071916Y0257888D02*
X0083591Y0269563D01*
X0134091D01*
X0228591Y0219563D02*
X0241D01*
X02185Y0229654D02*
X0228591Y0219563D01*
X0051Y0240063D02*
X0051644Y0239419D01*
X0068825Y0257888D02*
X0071916D01*
X0051Y0240063D02*
X0068825Y0257888D01*
X01425Y0261154D02*
X0149409Y0268063D01*
X0134091Y0269563D02*
X01425Y0261154D01*
X0164091Y0268063D02*
X0171Y0261154D01*
X0149409Y0268063D02*
X0164091D01*
D14*
X001162Y0118538D02*
X0084082Y0191D01*
X0010038Y0118538D02*
X001162D01*
X0084082Y0191D02*
X0187D01*
X001Y01185D02*
X0010038Y0118538D01*
X00815Y0178D02*
X00935D01*
X0005Y01015D02*
X00815Y0178D01*
X0005Y0018D02*
Y01015D01*
X0244Y01655D02*
X0252Y01575D01*
Y01145D02*
Y01575D01*
Y01145D02*
X0261Y01055D01*
X0084Y0146D02*
Y01595D01*
X0078Y01655D02*
X0084Y01595D01*
Y0146D02*
X01205Y01095D01*
X00735Y0146D02*
X0111038Y0108462D01*
X00735Y0146D02*
Y016D01*
X01985Y01795D02*
X02405D01*
X0187Y0191D02*
X01985Y01795D01*
X0237221Y0063221D02*
Y00695D01*
X0232Y0058D02*
X0237221Y0063221D01*
X009578Y0058D02*
X0232D01*
X02865Y013091D02*
X0292Y0125409D01*
X019575Y003553D02*
X0205279Y0026D01*
X0125721Y0031D02*
X013172Y0025D01*
X0119872Y0036848D02*
X0125721Y0031D01*
X02255Y01485D02*
Y01565D01*
X0236Y0118D02*
Y0138D01*
X02255Y01485D02*
X0236Y0138D01*
X0223Y0105D02*
X0236Y0118D01*
X0189Y0105D02*
X0223D01*
X0182Y0098D02*
X0189Y0105D01*
X01945Y0112D02*
X02195D01*
X02245Y01655D02*
X0244D01*
X02155Y01565D02*
X02245Y01655D01*
X0142Y01195D02*
X015Y01275D01*
X0142Y0098D02*
Y01195D01*
X015Y01275D02*
X0153D01*
X0202Y012D02*
X02195D01*
X0198Y0124D02*
X0202Y012D01*
X01215Y0098D02*
X0122D01*
X0111038Y0108462D02*
X01215Y0098D01*
X01205Y01095D02*
X01305D01*
X0142Y0098D01*
X0087Y006678D02*
X009578Y0058D01*
X0235Y00965D02*
X02425D01*
X0054Y0084D02*
X02225D01*
X0235Y00965D01*
X00515Y00815D02*
X0054Y0084D01*
X00615Y00725D02*
X00675Y00785D01*
X0225286D02*
X0236286Y00895D01*
X00675Y00785D02*
X0225286D01*
X0145Y0018D02*
X01465Y00195D01*
X0184221D02*
X0195Y0008721D01*
X01465Y00195D02*
X0184221D01*
X00835Y006328D02*
X0087Y006678D01*
X00835Y0046D02*
Y006328D01*
X0281591Y01155D02*
X0290747Y0124656D01*
X0263646Y01155D02*
X0281591D01*
X02675Y0192D02*
X02745Y0185D01*
X0253Y0192D02*
X02675D01*
X02405Y01795D02*
X0253Y0192D01*
X017872Y0025D02*
X018922Y00355D01*
X0195D01*
X019578Y003628D01*
X01965D01*
X01195Y004022D02*
X0119872Y0039848D01*
Y0036848D02*
Y0039848D01*
X0153279Y0031D02*
Y003737D01*
X0161Y0045091D01*
X013172Y0025D02*
X017872D01*
X018178Y003928D02*
X0186Y00435D01*
X0161Y0045091D02*
X0166811Y003928D01*
X018178D01*
X0225Y00175D02*
X02785D01*
X02165Y0026D02*
X0225Y00175D01*
X0205279Y0026D02*
X02165D01*
X02785Y00175D02*
X02855Y00105D01*
X0070772Y0033272D02*
X00835Y0046D01*
X0081279Y00275D02*
X0093Y003922D01*
X00465Y00275D02*
X0081279D01*
X00365Y00375D02*
Y004372D01*
Y00375D02*
X00465Y00275D01*
X0117701Y003922D02*
X0118701Y004022D01*
X01195D01*
X0093Y003922D02*
X0117701D01*
X02745Y01505D02*
Y0185D01*
X02815Y0136409D02*
Y01435D01*
X02745Y01505D02*
X02815Y01435D01*
X0253Y0086D02*
X0256Y0083D01*
X0266828D02*
X0271122Y0087294D01*
X0256Y0083D02*
X0266828D01*
X02425Y00965D02*
X0253Y0086D01*
Y0086D02*
Y0086D01*
X0271122Y0095031D02*
X02815Y010541D01*
X0271122Y0087294D02*
Y0095031D01*
X00295Y0074D02*
X0037Y00815D01*
X00515D01*
X0052591Y00725D02*
X00615D01*
X00295Y00355D02*
Y0074D01*
Y00355D02*
X0044351Y0020649D01*
Y0018649D02*
X0045Y0018D01*
X0044351Y0018649D02*
Y0020649D01*
X02865Y0109D02*
X0290747Y0113247D01*
X02865Y0092007D02*
Y0109D01*
X0290747Y0113247D02*
Y0124656D01*
X02915Y0125409D01*
X0236286Y00895D02*
X0237221D01*
X00365Y007128D02*
X005178D01*
X02865Y01825D02*
X02915Y01875D01*
X02865Y0161409D02*
Y01825D01*
Y0161409D02*
X02915Y015641D01*
X02865Y0151409D02*
X0291Y015591D01*
X02865Y013091D02*
Y0151409D01*
X0237115Y00495D02*
X0237221D01*
X0234615Y0052D02*
X0237115Y00495D01*
X01325Y0045091D02*
X0139409Y0052D01*
X0234615D01*
X0286123Y0090123D02*
Y009163D01*
X0223721Y00435D02*
X0237221Y003D01*
X0196265Y0009381D02*
X0197486D01*
X0196147Y00095D02*
X0196265Y0009381D01*
X0197486D02*
X0197605Y00095D01*
X0186Y00435D02*
X0223721D01*
X0197605Y00095D02*
X0204409D01*
X0286123Y009163D02*
X02865Y0092007D01*
X02855Y00895D02*
X0286123Y0090123D01*
X0204409Y00095D02*
X02085Y0013591D01*
X001162Y0314601D02*
X0084082Y0387063D01*
X0010038Y0314601D02*
X001162D01*
X0084082Y0387063D02*
X0187D01*
X001Y0314563D02*
X0010038Y0314601D01*
X00815Y0374063D02*
X00935D01*
X0005Y0297563D02*
X00815Y0374063D01*
X0005Y0214063D02*
Y0297563D01*
X0244Y0361563D02*
X0252Y0353563D01*
Y0310563D02*
Y0353563D01*
Y0310563D02*
X0261Y0301563D01*
X0084Y0342063D02*
Y0355563D01*
X0078Y0361563D02*
X0084Y0355563D01*
Y0342063D02*
X01205Y0305563D01*
X00735Y0342063D02*
X0111038Y0304525D01*
X00735Y0342063D02*
Y0356063D01*
X01985Y0375563D02*
X02405D01*
X0187Y0387063D02*
X01985Y0375563D01*
X0237221Y0259283D02*
Y0265563D01*
X0232Y0254063D02*
X0237221Y0259283D01*
X009578Y0254063D02*
X0232D01*
X02865Y0326973D02*
X0292Y0321473D01*
X019575Y0231592D02*
X0205279Y0222063D01*
X0125721Y0227063D02*
X013172Y0221063D01*
X0119872Y0232911D02*
X0125721Y0227063D01*
X02255Y0344563D02*
Y0352563D01*
X0236Y0314063D02*
Y0334063D01*
X02255Y0344563D02*
X0236Y0334063D01*
X0223Y0301063D02*
X0236Y0314063D01*
X0189Y0301063D02*
X0223D01*
X0182Y0294063D02*
X0189Y0301063D01*
X01945Y0308063D02*
X02195D01*
X02245Y0361563D02*
X0244D01*
X02155Y0352563D02*
X02245Y0361563D01*
X0142Y0315563D02*
X015Y0323563D01*
X0142Y0294063D02*
Y0315563D01*
X015Y0323563D02*
X0153D01*
X0202Y0316063D02*
X02195D01*
X0198Y0320063D02*
X0202Y0316063D01*
X01215Y0294063D02*
X0122D01*
X0111038Y0304525D02*
X01215Y0294063D01*
X01205Y0305563D02*
X01305D01*
X0142Y0294063D01*
X0087Y0262842D02*
X009578Y0254063D01*
X0235Y0292563D02*
X02425D01*
X0054Y0280063D02*
X02225D01*
X0235Y0292563D01*
X00515Y0277563D02*
X0054Y0280063D01*
X00615Y0268563D02*
X00675Y0274563D01*
X0225286D02*
X0236286Y0285563D01*
X00675Y0274563D02*
X0225286D01*
X0145Y0214063D02*
X01465Y0215563D01*
X0184221D02*
X0195Y0204784D01*
X01465Y0215563D02*
X0184221D01*
X00835Y0259343D02*
X0087Y0262842D01*
X00835Y0242063D02*
Y0259343D01*
X0281591Y0311563D02*
X0290747Y0320719D01*
X0263646Y0311563D02*
X0281591D01*
X02675Y0388063D02*
X02745Y0381063D01*
X0253Y0388063D02*
X02675D01*
X02405Y0375563D02*
X0253Y0388063D01*
X017872Y0221063D02*
X018922Y0231563D01*
X0195D01*
X019578Y0232343D01*
X01965D01*
X01195Y0236283D02*
X0119872Y0235911D01*
Y0232911D02*
Y0235911D01*
X0153279Y0227063D02*
Y0233433D01*
X0161Y0241154D01*
X013172Y0221063D02*
X017872D01*
X018178Y0235343D02*
X0186Y0239563D01*
X0161Y0241154D02*
X0166811Y0235343D01*
X018178D01*
X0225Y0213563D02*
X02785D01*
X02165Y0222063D02*
X0225Y0213563D01*
X0205279Y0222063D02*
X02165D01*
X02785Y0213563D02*
X02855Y0206563D01*
X0070772Y0229335D02*
X00835Y0242063D01*
X0081279Y0223563D02*
X0093Y0235283D01*
X00465Y0223563D02*
X0081279D01*
X00365Y0233563D02*
Y0239784D01*
Y0233563D02*
X00465Y0223563D01*
X0117701Y0235283D02*
X0118701Y0236283D01*
X01195D01*
X0093Y0235283D02*
X0117701D01*
X02745Y0346563D02*
Y0381063D01*
X02815Y0332472D02*
Y0339563D01*
X02745Y0346563D02*
X02815Y0339563D01*
X0253Y0282063D02*
X0256Y0279063D01*
X0266828D02*
X0271122Y0283357D01*
X0256Y0279063D02*
X0266828D01*
X02425Y0292563D02*
X0253Y0282063D01*
Y0282063D02*
Y0282063D01*
X0271122Y0291094D02*
X02815Y0301472D01*
X0271122Y0283357D02*
Y0291094D01*
X00295Y0270063D02*
X0037Y0277563D01*
X00515D01*
X0052591Y0268563D02*
X00615D01*
X00295Y0231563D02*
Y0270063D01*
Y0231563D02*
X0044351Y0216712D01*
Y0214712D02*
X0045Y0214063D01*
X0044351Y0214712D02*
Y0216712D01*
X02865Y0305063D02*
X0290747Y030931D01*
X02865Y028807D02*
Y0305063D01*
X0290747Y030931D02*
Y0320719D01*
X02915Y0321473D01*
X0236286Y0285563D02*
X0237221D01*
X00365Y0267342D02*
X005178D01*
X02865Y0378563D02*
X02915Y0383563D01*
X02865Y0357472D02*
Y0378563D01*
Y0357472D02*
X02915Y0352472D01*
X02865Y0347473D02*
X0291Y0351973D01*
X02865Y0326973D02*
Y0347473D01*
X0237115Y0245563D02*
X0237221D01*
X0234615Y0248063D02*
X0237115Y0245563D01*
X01325Y0241154D02*
X0139409Y0248063D01*
X0234615D01*
X0286123Y0286186D02*
Y0287693D01*
X0223721Y0239563D02*
X0237221Y0226063D01*
X0196265Y0205444D02*
X0197486D01*
X0196147Y0205563D02*
X0196265Y0205444D01*
X0197486D02*
X0197605Y0205563D01*
X0186Y0239563D02*
X0223721D01*
X0197605Y0205563D02*
X0204409D01*
X0286123Y0287693D02*
X02865Y028807D01*
X02855Y0285563D02*
X0286123Y0286186D01*
X0204409Y0205563D02*
X02085Y0209654D01*
D15*
X0192Y0098D02*
D03*
X0139Y01735D02*
D03*
X0055Y0188D02*
D03*
X0145Y0018D02*
D03*
X0192Y0294063D02*
D03*
X0139Y0369563D02*
D03*
X0055Y0384063D02*
D03*
X0145Y0214063D02*
D03*
D16*
X0182Y0098D02*
D03*
X0172D02*
D03*
X0162D02*
D03*
X0152D02*
D03*
X0142D02*
D03*
X0132D02*
D03*
X0122D02*
D03*
X0149Y01735D02*
D03*
X0159D02*
D03*
X0169D02*
D03*
X0045Y0188D02*
D03*
X0035D02*
D03*
X0025D02*
D03*
X0015D02*
D03*
X0005D02*
D03*
X0135Y0018D02*
D03*
X0125D02*
D03*
X0115D02*
D03*
X0105D02*
D03*
X0095D02*
D03*
X0085D02*
D03*
X0075D02*
D03*
X0065D02*
D03*
X0055D02*
D03*
X0045D02*
D03*
X0035D02*
D03*
X0025D02*
D03*
X0015D02*
D03*
X0005D02*
D03*
X0182Y0294063D02*
D03*
X0172D02*
D03*
X0162D02*
D03*
X0152D02*
D03*
X0142D02*
D03*
X0132D02*
D03*
X0122D02*
D03*
X0149Y0369563D02*
D03*
X0159D02*
D03*
X0169D02*
D03*
X0045Y0384063D02*
D03*
X0035D02*
D03*
X0025D02*
D03*
X0015D02*
D03*
X0005D02*
D03*
X0135Y0214063D02*
D03*
X0125D02*
D03*
X0115D02*
D03*
X0105D02*
D03*
X0095D02*
D03*
X0085D02*
D03*
X0075D02*
D03*
X0065D02*
D03*
X0055D02*
D03*
X0045D02*
D03*
X0035D02*
D03*
X0025D02*
D03*
X0015D02*
D03*
X0005D02*
D03*
D17*
X0171Y0045091D02*
D03*
X0161D02*
D03*
X0171Y0065091D02*
D03*
X0161D02*
D03*
X01425Y0045091D02*
D03*
X01325D02*
D03*
X01425Y0065091D02*
D03*
X01325D02*
D03*
X02915Y0136409D02*
D03*
X02815D02*
D03*
X02915Y015641D02*
D03*
X02815D02*
D03*
X02915Y010541D02*
D03*
X02815D02*
D03*
X02915Y0125409D02*
D03*
X02815D02*
D03*
X02915Y01675D02*
D03*
X02815D02*
D03*
X02915Y01875D02*
D03*
X02815D02*
D03*
X02085Y0033591D02*
D03*
X02185D02*
D03*
X02085Y0013591D02*
D03*
X02185D02*
D03*
X0072591Y00725D02*
D03*
Y00625D02*
D03*
X0052591Y00725D02*
D03*
Y00625D02*
D03*
X0051Y0034D02*
D03*
Y0044D02*
D03*
X0071Y0034D02*
D03*
Y0044D02*
D03*
X0171Y0241154D02*
D03*
X0161D02*
D03*
X0171Y0261154D02*
D03*
X0161D02*
D03*
X01425Y0241154D02*
D03*
X01325D02*
D03*
X01425Y0261154D02*
D03*
X01325D02*
D03*
X02915Y0332472D02*
D03*
X02815D02*
D03*
X02915Y0352472D02*
D03*
X02815D02*
D03*
X02915Y0301472D02*
D03*
X02815D02*
D03*
X02915Y0321473D02*
D03*
X02815D02*
D03*
X02915Y0363563D02*
D03*
X02815D02*
D03*
X02915Y0383563D02*
D03*
X02815D02*
D03*
X02085Y0229654D02*
D03*
X02185D02*
D03*
X02085Y0209654D02*
D03*
X02185D02*
D03*
X0072591Y0268563D02*
D03*
Y0258563D02*
D03*
X0052591Y0268563D02*
D03*
Y0258563D02*
D03*
X0051Y0230063D02*
D03*
Y0240063D02*
D03*
X0071Y0230063D02*
D03*
Y0240063D02*
D03*
D18*
X0261Y01855D02*
D03*
Y01755D02*
D03*
Y01655D02*
D03*
Y01555D02*
D03*
Y01255D02*
D03*
Y01155D02*
D03*
Y01055D02*
D03*
Y01455D02*
D03*
Y01355D02*
D03*
X0055Y0008D02*
D03*
X0045D02*
D03*
X0085D02*
D03*
X0075D02*
D03*
X0065D02*
D03*
X0035D02*
D03*
X0025D02*
D03*
X0015D02*
D03*
X0005D02*
D03*
X0105D02*
D03*
X0095D02*
D03*
X0261Y0381563D02*
D03*
Y0371563D02*
D03*
Y0361563D02*
D03*
Y0351563D02*
D03*
Y0321563D02*
D03*
Y0311563D02*
D03*
Y0301563D02*
D03*
Y0341563D02*
D03*
Y0331563D02*
D03*
X0055Y0204063D02*
D03*
X0045D02*
D03*
X0085D02*
D03*
X0075D02*
D03*
X0065D02*
D03*
X0035D02*
D03*
X0025D02*
D03*
X0015D02*
D03*
X0005D02*
D03*
X0105D02*
D03*
X0095D02*
D03*
D19*
X0225Y0188D02*
D03*
X0215D02*
D03*
X02255Y01565D02*
D03*
X02355D02*
D03*
X0225Y0384063D02*
D03*
X0215D02*
D03*
X02255Y0352563D02*
D03*
X02355D02*
D03*
D20*
X0205Y0188D02*
D03*
X02155Y01565D02*
D03*
X0205Y0384063D02*
D03*
X02155Y0352563D02*
D03*
D21*
X0237221Y003D02*
D03*
X0264779D02*
D03*
X0237221Y00695D02*
D03*
X0264779D02*
D03*
X0237221Y00495D02*
D03*
X0264779D02*
D03*
X0237221Y00895D02*
D03*
X0264779D02*
D03*
Y00105D02*
D03*
X0237221D02*
D03*
X0087Y006678D02*
D03*
Y003922D02*
D03*
X0153279Y0031D02*
D03*
X0125721D02*
D03*
X01195Y006778D02*
D03*
Y004022D02*
D03*
X00365Y007128D02*
D03*
Y004372D02*
D03*
X01965Y0008721D02*
D03*
Y003628D02*
D03*
X0237221Y0226063D02*
D03*
X0264779D02*
D03*
X0237221Y0265563D02*
D03*
X0264779D02*
D03*
X0237221Y0245563D02*
D03*
X0264779D02*
D03*
X0237221Y0285563D02*
D03*
X0264779D02*
D03*
Y0206563D02*
D03*
X0237221D02*
D03*
X0087Y0262842D02*
D03*
Y0235283D02*
D03*
X0153279Y0227063D02*
D03*
X0125721D02*
D03*
X01195Y0263843D02*
D03*
Y0236283D02*
D03*
X00365Y0267342D02*
D03*
Y0239784D02*
D03*
X01965Y0204784D02*
D03*
Y0232343D02*
D03*
D22*
X02855Y00105D02*
D03*
X0285482Y003D02*
D03*
X0285579Y00495D02*
D03*
X028556Y00695D02*
D03*
X02855Y00895D02*
D03*
Y0206563D02*
D03*
X0285482Y0226063D02*
D03*
X0285579Y0245563D02*
D03*
X028556Y0265563D02*
D03*
X02855Y0285563D02*
D03*
D23*
X02755Y00105D02*
D03*
X0275482Y003D02*
D03*
X0275579Y00495D02*
D03*
X027556Y00695D02*
D03*
X02755Y00895D02*
D03*
Y0206563D02*
D03*
X0275482Y0226063D02*
D03*
X0275579Y0245563D02*
D03*
X027556Y0265563D02*
D03*
X02755Y0285563D02*
D03*
D24*
X0238Y0188D02*
D03*
X01165Y0181D02*
D03*
X001Y01185D02*
D03*
Y00945D02*
D03*
X0095493Y01705D02*
D03*
X0092084Y0169584D02*
D03*
X0191Y00725D02*
D03*
X0189Y0069D02*
D03*
X01935D02*
D03*
X0092Y01695D02*
D03*
X0235Y0105D02*
D03*
X00735Y016D02*
D03*
X0078Y01655D02*
D03*
X02215Y00725D02*
D03*
X02185D02*
D03*
X022Y00705D02*
D03*
X00935Y0178D02*
D03*
X0185Y01715D02*
D03*
X0097Y01445D02*
D03*
X02255Y01305D02*
D03*
X02195Y0112D02*
D03*
X0153Y01275D02*
D03*
X0198Y0124D02*
D03*
X01945Y0112D02*
D03*
X02195Y012D02*
D03*
X0111Y01085D02*
D03*
X0208Y0139D02*
D03*
X0159Y00135D02*
D03*
X0238Y0384063D02*
D03*
X01165Y0377063D02*
D03*
X001Y0314563D02*
D03*
Y0290563D02*
D03*
X0095493Y0366563D02*
D03*
X0092084Y0365647D02*
D03*
X0191Y0268563D02*
D03*
X0189Y0265063D02*
D03*
X01935D02*
D03*
X0092Y0365563D02*
D03*
X0235Y0301063D02*
D03*
X00735Y0356063D02*
D03*
X0078Y0361563D02*
D03*
X02215Y0268563D02*
D03*
X02185D02*
D03*
X022Y0266563D02*
D03*
X00935Y0374063D02*
D03*
X0185Y0367563D02*
D03*
X0097Y0340563D02*
D03*
X02255Y0326563D02*
D03*
X02195Y0308063D02*
D03*
X0153Y0323563D02*
D03*
X0198Y0320063D02*
D03*
X01945Y0308063D02*
D03*
X02195Y0316063D02*
D03*
X0111Y0304563D02*
D03*
X0208Y0335063D02*
D03*
X0159Y0209563D02*
D03*
M02*
