G04*
G04 #@! TF.GenerationSoftware,Altium Limited,Altium Designer,24.4.1 (13)*
G04*
G04 Layer_Physical_Order=1*
G04 Layer_Color=255*
%FSTAX25Y25*%
%MOIN*%
G70*
G04*
G04 #@! TF.SameCoordinates,D68B6D5F-11C5-45A1-AF62-CA48ED7D446B*
G04*
G04*
G04 #@! TF.FilePolarity,Positive*
G04*
G01*
G75*
%ADD10C,0.02178*%
%ADD11C,0.03000*%
%ADD12C,0.02000*%
%ADD13C,0.01500*%
%ADD14R,0.05394X0.05394*%
%ADD15C,0.05394*%
%ADD16C,0.05937*%
%ADD17C,0.06000*%
%ADD18C,0.04578*%
%ADD19R,0.04578X0.04578*%
%ADD20C,0.04953*%
%ADD21C,0.04756*%
%ADD22R,0.04756X0.04756*%
%ADD23C,0.02200*%
G36*
X0313498Y0197592D02*
X0192223D01*
X0192031Y0198054D01*
X0206034Y0212057D01*
X0206496Y0212748D01*
X0206658Y0213563D01*
Y0244681D01*
X0229534Y0267557D01*
X0229996Y0268248D01*
X0230158Y0269063D01*
Y031794D01*
X0229996Y0318756D01*
X0229534Y0319446D01*
X0179512Y0369469D01*
X017949Y0369483D01*
X0179225Y0369749D01*
Y037005D01*
X0178973Y037099D01*
X0178486Y0371833D01*
X0177798Y0372521D01*
X0176955Y0373008D01*
X0176014Y037326D01*
X0175041D01*
X0174101Y0373008D01*
X0173258Y0372521D01*
X017257Y0371833D01*
X0172083Y037099D01*
X0171831Y037005D01*
Y0369076D01*
X0172083Y0368136D01*
X017257Y0367293D01*
X0173258Y0366605D01*
X0174101Y0366118D01*
X0175041Y0365866D01*
X0176014D01*
X0176862Y0366093D01*
X0225898Y0317058D01*
Y0269945D01*
X0203022Y0247069D01*
X020256Y0246378D01*
X0202398Y0245563D01*
Y0214445D01*
X0189056Y0201104D01*
X0124917D01*
X0124717Y0201537D01*
X0124974Y0201933D01*
X0179528D01*
X0180343Y0202095D01*
X0181034Y0202557D01*
X0199866Y0221389D01*
X0200328Y022208D01*
X020049Y0222895D01*
Y0268231D01*
X0200328Y0269046D01*
X0199866Y0269737D01*
X0190534Y0279069D01*
X0189843Y0279531D01*
X0189028Y0279693D01*
X017941D01*
X0171197Y0287906D01*
Y0291504D01*
X0171486Y0291793D01*
X0171973Y0292636D01*
X0172224Y0293576D01*
Y029455D01*
X0171973Y029549D01*
X0171486Y0296333D01*
X0170798Y0297021D01*
X0169955Y0297508D01*
X0169014Y029776D01*
X0168041D01*
X0167101Y0297508D01*
X0166258Y0297021D01*
X0165569Y0296333D01*
X0165083Y029549D01*
X0164831Y029455D01*
Y0293576D01*
X0165083Y0292636D01*
X0165569Y0291793D01*
X0166258Y0291105D01*
X0166937Y0290713D01*
Y0287024D01*
X0167099Y0286209D01*
X0167561Y0285518D01*
X0177022Y0276057D01*
X0177713Y0275595D01*
X0178528Y0275433D01*
X0188145D01*
X019623Y0267349D01*
Y0223777D01*
X0178645Y0206193D01*
X0124917D01*
X0124729Y0206519D01*
X0123984Y0207264D01*
X0123072Y020779D01*
X0122054Y0208063D01*
X0121001D01*
X0119984Y020779D01*
X0119072Y0207264D01*
X0118327Y0206519D01*
X01178Y0205607D01*
X0117528Y020459D01*
Y0203536D01*
X01178Y0202519D01*
X0118327Y0201607D01*
X0118368Y0201566D01*
X0118177Y0201104D01*
X0117499D01*
X011543Y0203173D01*
X0115528Y0203536D01*
Y020459D01*
X0115255Y0205607D01*
X0114728Y0206519D01*
X0113984Y0207264D01*
X0113072Y020779D01*
X0112054Y0208063D01*
X0111001D01*
X0109984Y020779D01*
X0109072Y0207264D01*
X0108327Y0206519D01*
X01078Y0205607D01*
X0107528Y020459D01*
Y0203536D01*
X01078Y0202519D01*
X0108327Y0201607D01*
X0109072Y0200862D01*
X0109984Y0200336D01*
X0111001Y0200063D01*
X0112054D01*
X0112418Y020016D01*
X0114524Y0198054D01*
X0114333Y0197592D01*
X0001557D01*
Y0222574D01*
X0001557Y0222756D01*
X0001568Y0223234D01*
X0001568Y0223234D01*
X0001545Y0223722D01*
X0001627Y022434D01*
X0001927Y0225065D01*
X0002404Y0225687D01*
X0003026Y0226164D01*
X0003712Y0226448D01*
X0004199Y0226523D01*
D01*
X0004673Y0226534D01*
X0008028D01*
Y0226527D01*
X0009498Y0226672D01*
X0010912Y02271D01*
X0012215Y0227797D01*
X0013357Y0228734D01*
X0014294Y0229876D01*
X001499Y0231179D01*
X0015419Y0232593D01*
X0015564Y0234063D01*
X0015557D01*
X0015557Y0389416D01*
X0268843Y0389416D01*
X0269034Y0388953D01*
X0258183Y0378102D01*
X0237372D01*
X0233807Y0381668D01*
Y0381691D01*
X0234159Y0382044D01*
X0234593Y0382793D01*
X0234817Y038363D01*
Y0384496D01*
X0234593Y0385332D01*
X0234159Y0386083D01*
X0233547Y0386695D01*
X0232797Y0387128D01*
X0231961Y0387352D01*
X0231095D01*
X0230258Y0387128D01*
X0229508Y0386695D01*
X0228896Y0386083D01*
X0228463Y0385332D01*
X0228239Y0384496D01*
Y038363D01*
X0228463Y0382793D01*
X0228896Y0382044D01*
X0229508Y0381431D01*
X0229728Y0381304D01*
Y0380823D01*
X0229884Y0380043D01*
X0230326Y0379381D01*
X0235086Y0374621D01*
X0235747Y0374179D01*
X0236528Y0374024D01*
X0259028D01*
X0259808Y0374179D01*
X026047Y0374621D01*
X0271872Y0386024D01*
X0276789D01*
X0276855Y0385524D01*
X0275984Y038529D01*
X0275072Y0384764D01*
X0274327Y0384019D01*
X02738Y0383107D01*
X0273528Y038209D01*
Y0381036D01*
X02738Y0380019D01*
X0274327Y0379107D01*
X0275072Y0378362D01*
X0275984Y0377836D01*
X0277001Y0377563D01*
X0278054D01*
X0279072Y0377836D01*
X0279984Y0378362D01*
X0280729Y0379107D01*
X0281255Y0380019D01*
X0281528Y0381036D01*
Y038209D01*
X0281255Y0383107D01*
X0280729Y0384019D01*
X0279984Y0384764D01*
X0279072Y038529D01*
X0278201Y0385524D01*
X0278266Y0386024D01*
X0283183D01*
X0295988Y0373218D01*
Y0366968D01*
X0295591Y0366739D01*
X0294852Y0366D01*
X029433Y0365095D01*
X0294059Y0364085D01*
Y036304D01*
X029433Y0362031D01*
X0294852Y0361126D01*
X0295591Y0360387D01*
X0296496Y0359865D01*
X0297505Y0359594D01*
X029855D01*
X0299559Y0359865D01*
X0300464Y0360387D01*
X0301203Y0361126D01*
X0301726Y0362031D01*
X0301996Y036304D01*
Y0364085D01*
X0301726Y0365095D01*
X0301203Y0366D01*
X0300464Y0366739D01*
X0300067Y0366968D01*
Y0374063D01*
X0299912Y0374843D01*
X029947Y0375505D01*
X0286021Y0388953D01*
X0286212Y0389416D01*
X0313498D01*
Y0197592D01*
D02*
G37*
G36*
X0313404Y016837D02*
X0313404Y0168189D01*
X0313393Y0167711D01*
X0313393Y0167711D01*
X0313415Y0167223D01*
X0313334Y0166605D01*
X0313034Y016588D01*
X0312557Y0165258D01*
X0311935Y0164781D01*
X0311248Y0164497D01*
X0310762Y0164422D01*
X0310288Y0164411D01*
X0306933D01*
Y0164418D01*
X0305463Y0164273D01*
X0304049Y0163845D01*
X0302746Y0163148D01*
X0301604Y0162211D01*
X0300667Y0161069D01*
X029997Y0159766D01*
X0299541Y0158352D01*
X0299397Y0156882D01*
X0299404D01*
X0299404Y0001529D01*
X0046118Y0001529D01*
X0045926Y0001991D01*
X0056778Y0012843D01*
X0077588D01*
X0081154Y0009277D01*
Y0009254D01*
X0080801Y0008901D01*
X0080368Y0008151D01*
X0080144Y0007315D01*
Y0006449D01*
X0080368Y0005612D01*
X0080801Y0004862D01*
X0081414Y000425D01*
X0082164Y0003817D01*
X0083Y0003593D01*
X0083866D01*
X0084702Y0003817D01*
X0085452Y000425D01*
X0086065Y0004862D01*
X0086498Y0005612D01*
X0086722Y0006449D01*
Y0007315D01*
X0086498Y0008151D01*
X0086065Y0008901D01*
X0085452Y0009514D01*
X0085232Y0009641D01*
Y0010122D01*
X0085077Y0010902D01*
X0084635Y0011564D01*
X0079875Y0016324D01*
X0079213Y0016766D01*
X0078433Y0016921D01*
X0055933D01*
X0055153Y0016766D01*
X0054491Y0016324D01*
X0043088Y0004921D01*
X0038172D01*
X0038106Y0005421D01*
X0038977Y0005655D01*
X0039889Y0006181D01*
X0040634Y0006926D01*
X004116Y0007838D01*
X0041433Y0008855D01*
Y0009909D01*
X004116Y0010926D01*
X0040634Y0011838D01*
X0039889Y0012583D01*
X0038977Y0013109D01*
X003796Y0013382D01*
X0036906D01*
X0035889Y0013109D01*
X0034977Y0012583D01*
X0034232Y0011838D01*
X0033705Y0010926D01*
X0033433Y0009909D01*
Y0008855D01*
X0033705Y0007838D01*
X0034232Y0006926D01*
X0034977Y0006181D01*
X0035889Y0005655D01*
X003676Y0005421D01*
X0036694Y0004921D01*
X0031778D01*
X0018972Y0017727D01*
Y0023977D01*
X001937Y0024206D01*
X0020109Y0024945D01*
X0020631Y002585D01*
X0020901Y0026859D01*
Y0027904D01*
X0020631Y0028914D01*
X0020109Y0029819D01*
X001937Y0030558D01*
X0018465Y003108D01*
X0017455Y003135D01*
X001641D01*
X0015401Y003108D01*
X0014496Y0030558D01*
X0013757Y0029819D01*
X0013235Y0028914D01*
X0012964Y0027904D01*
Y0026859D01*
X0013235Y002585D01*
X0013757Y0024945D01*
X0014496Y0024206D01*
X0014894Y0023977D01*
Y0016882D01*
X0015049Y0016102D01*
X0015491Y001544D01*
X002894Y0001991D01*
X0028748Y0001529D01*
X0001462D01*
Y0193352D01*
X0122738D01*
X0122929Y0192891D01*
X0108927Y0178888D01*
X0108465Y0178197D01*
X0108303Y0177382D01*
Y0146264D01*
X0085427Y0123388D01*
X0084965Y0122697D01*
X0084803Y0121882D01*
Y0073005D01*
X0084965Y0072189D01*
X0085427Y0071498D01*
X0135449Y0021476D01*
X0135471Y0021462D01*
X0135736Y0021196D01*
Y0020895D01*
X0135988Y0019955D01*
X0136475Y0019112D01*
X0137163Y0018424D01*
X0138006Y0017937D01*
X0138946Y0017685D01*
X013992D01*
X014086Y0017937D01*
X0141703Y0018424D01*
X0142391Y0019112D01*
X0142878Y0019955D01*
X014313Y0020895D01*
Y0021869D01*
X0142878Y0022809D01*
X0142391Y0023652D01*
X0141703Y002434D01*
X014086Y0024827D01*
X013992Y0025079D01*
X0138946D01*
X0138098Y0024852D01*
X0089063Y0073887D01*
Y0121D01*
X0111939Y0143876D01*
X0112401Y0144567D01*
X0112563Y0145382D01*
Y01765D01*
X0125904Y0189841D01*
X0190044D01*
X0190243Y0189408D01*
X0189987Y0189012D01*
X0135433D01*
X0134618Y018885D01*
X0133927Y0188388D01*
X0115095Y0169556D01*
X0114633Y0168865D01*
X0114471Y016805D01*
Y0122714D01*
X0114633Y0121899D01*
X0115095Y0121208D01*
X0124427Y0111876D01*
X0125118Y0111414D01*
X0125933Y0111252D01*
X0135551D01*
X0143764Y0103039D01*
Y0099441D01*
X0143475Y0099152D01*
X0142988Y0098309D01*
X0142736Y0097369D01*
Y0096395D01*
X0142988Y0095455D01*
X0143475Y0094612D01*
X0144163Y0093924D01*
X0145006Y0093437D01*
X0145946Y0093185D01*
X014692D01*
X014786Y0093437D01*
X0148703Y0093924D01*
X0149391Y0094612D01*
X0149878Y0095455D01*
X015013Y0096395D01*
Y0097369D01*
X0149878Y0098309D01*
X0149391Y0099152D01*
X0148703Y009984D01*
X0148024Y0100232D01*
Y0103921D01*
X0147862Y0104736D01*
X01474Y0105427D01*
X0137939Y0114888D01*
X0137248Y011535D01*
X0136433Y0115512D01*
X0126815D01*
X0118731Y0123596D01*
Y0167168D01*
X0136315Y0184752D01*
X0190044D01*
X0190232Y0184426D01*
X0190977Y0183681D01*
X0191889Y0183154D01*
X0192906Y0182882D01*
X0193959D01*
X0194977Y0183154D01*
X0195889Y0183681D01*
X0196634Y0184426D01*
X019716Y0185338D01*
X0197433Y0186355D01*
Y0187408D01*
X019716Y0188426D01*
X0196634Y0189338D01*
X0196593Y0189379D01*
X0196784Y0189841D01*
X0197461D01*
X019953Y0187772D01*
X0199433Y0187408D01*
Y0186355D01*
X0199706Y0185338D01*
X0200232Y0184426D01*
X0200977Y0183681D01*
X0201889Y0183154D01*
X0202906Y0182882D01*
X0203959D01*
X0204977Y0183154D01*
X0205889Y0183681D01*
X0206634Y0184426D01*
X020716Y0185338D01*
X0207433Y0186355D01*
Y0187408D01*
X020716Y0188426D01*
X0206634Y0189338D01*
X0205889Y0190083D01*
X0204977Y0190609D01*
X0203959Y0190882D01*
X0202906D01*
X0202543Y0190785D01*
X0200437Y0192891D01*
X0200628Y0193352D01*
X0313404D01*
Y016837D01*
D02*
G37*
%LPC*%
G36*
X0022028Y0387756D02*
Y0384563D01*
X0025221D01*
X0024973Y038549D01*
X0024486Y0386333D01*
X0023798Y0387021D01*
X0022955Y0387508D01*
X0022028Y0387756D01*
D02*
G37*
G36*
X0021028D02*
X0020101Y0387508D01*
X0019258Y0387021D01*
X001857Y0386333D01*
X0018083Y038549D01*
X0017834Y0384563D01*
X0021028D01*
Y0387756D01*
D02*
G37*
G36*
X030855Y0387531D02*
X0308528D01*
Y0384063D01*
X0311996D01*
Y0384085D01*
X0311726Y0385095D01*
X0311203Y0386D01*
X0310464Y0386739D01*
X0309559Y0387261D01*
X030855Y0387531D01*
D02*
G37*
G36*
X0307528D02*
X0307505D01*
X0306496Y0387261D01*
X0305591Y0386739D01*
X0304852Y0386D01*
X030433Y0385095D01*
X0304059Y0384085D01*
Y0384063D01*
X0307528D01*
Y0387531D01*
D02*
G37*
G36*
X0075225Y038776D02*
X0067831D01*
Y0381297D01*
X0067369Y0381106D01*
X0065156Y0383319D01*
X0065224Y0383576D01*
Y038455D01*
X0064973Y038549D01*
X0064486Y0386333D01*
X0063798Y0387021D01*
X0062955Y0387508D01*
X0062014Y038776D01*
X0061041D01*
X0060101Y0387508D01*
X0059258Y0387021D01*
X005857Y0386333D01*
X0058083Y038549D01*
X0057831Y038455D01*
Y0383576D01*
X0058083Y0382636D01*
X005857Y0381793D01*
X0059258Y0381105D01*
X0060101Y0380618D01*
X0061041Y0380366D01*
X0062014D01*
X0062272Y0380435D01*
X0088047Y0354659D01*
X0088709Y0354217D01*
X0089261Y0354107D01*
X008961Y0353963D01*
X0090445D01*
X0091217Y0354283D01*
X0091808Y0354873D01*
X0092128Y0355645D01*
Y0356481D01*
X0091808Y0357253D01*
X0091217Y0357843D01*
X0090445Y0358163D01*
X0090311D01*
X006857Y0379904D01*
X0068762Y0380366D01*
X0072341D01*
X0092548Y0360159D01*
X0093209Y0359717D01*
X0093761Y0359608D01*
X009411Y0359463D01*
X0094945D01*
X0095717Y0359783D01*
X0096308Y0360373D01*
X0096628Y0361145D01*
Y0361981D01*
X0096308Y0362753D01*
X0095717Y0363343D01*
X0094945Y0363663D01*
X0094811D01*
X0075225Y038325D01*
Y038776D01*
D02*
G37*
G36*
X0241961Y0387352D02*
X0241095D01*
X0240258Y0387128D01*
X0239508Y0386695D01*
X0238896Y0386083D01*
X0238463Y0385332D01*
X0238239Y0384496D01*
Y038363D01*
X0238463Y0382793D01*
X0238896Y0382044D01*
X0239508Y0381431D01*
X0240258Y0380998D01*
X0241095Y0380774D01*
X0241961D01*
X0242797Y0380998D01*
X0243547Y0381431D01*
X024416Y0382044D01*
X0244592Y0382793D01*
X0244817Y038363D01*
Y0384496D01*
X0244592Y0385332D01*
X024416Y0386083D01*
X0243547Y0386695D01*
X0242797Y0387128D01*
X0241961Y0387352D01*
D02*
G37*
G36*
X0224817D02*
X0218239D01*
Y0380774D01*
X0224817D01*
Y0387352D01*
D02*
G37*
G36*
X0025221Y0383563D02*
X0022028D01*
Y038037D01*
X0022955Y0380618D01*
X0023798Y0381105D01*
X0024486Y0381793D01*
X0024973Y0382636D01*
X0025221Y0383563D01*
D02*
G37*
G36*
X0021028D02*
X0017834D01*
X0018083Y0382636D01*
X001857Y0381793D01*
X0019258Y0381105D01*
X0020101Y0380618D01*
X0021028Y038037D01*
Y0383563D01*
D02*
G37*
G36*
X0052014Y038776D02*
X0051041D01*
X0050101Y0387508D01*
X0049258Y0387021D01*
X004857Y0386333D01*
X0048083Y038549D01*
X0047831Y038455D01*
Y0383576D01*
X0048083Y0382636D01*
X004857Y0381793D01*
X0049258Y0381105D01*
X0050101Y0380618D01*
X0051041Y0380366D01*
X0052014D01*
X0052955Y0380618D01*
X0053798Y0381105D01*
X0054486Y0381793D01*
X0054973Y0382636D01*
X0055225Y0383576D01*
Y038455D01*
X0054973Y038549D01*
X0054486Y0386333D01*
X0053798Y0387021D01*
X0052955Y0387508D01*
X0052014Y038776D01*
D02*
G37*
G36*
X0042014D02*
X0041041D01*
X0040101Y0387508D01*
X0039258Y0387021D01*
X003857Y0386333D01*
X0038083Y038549D01*
X0037831Y038455D01*
Y0383576D01*
X0038083Y0382636D01*
X003857Y0381793D01*
X0039258Y0381105D01*
X0040101Y0380618D01*
X0041041Y0380366D01*
X0042014D01*
X0042955Y0380618D01*
X0043798Y0381105D01*
X0044486Y0381793D01*
X0044973Y0382636D01*
X0045224Y0383576D01*
Y038455D01*
X0044973Y038549D01*
X0044486Y0386333D01*
X0043798Y0387021D01*
X0042955Y0387508D01*
X0042014Y038776D01*
D02*
G37*
G36*
X0032014D02*
X0031041D01*
X0030101Y0387508D01*
X0029258Y0387021D01*
X0028569Y0386333D01*
X0028083Y038549D01*
X0027831Y038455D01*
Y0383576D01*
X0028083Y0382636D01*
X0028569Y0381793D01*
X0029258Y0381105D01*
X0030101Y0380618D01*
X0031041Y0380366D01*
X0032014D01*
X0032955Y0380618D01*
X0033798Y0381105D01*
X0034486Y0381793D01*
X0034973Y0382636D01*
X0035225Y0383576D01*
Y038455D01*
X0034973Y038549D01*
X0034486Y0386333D01*
X0033798Y0387021D01*
X0032955Y0387508D01*
X0032014Y038776D01*
D02*
G37*
G36*
X0311996Y0383063D02*
X0308528D01*
Y0379594D01*
X030855D01*
X0309559Y0379865D01*
X0310464Y0380387D01*
X0311203Y0381126D01*
X0311726Y0382031D01*
X0311996Y038304D01*
Y0383063D01*
D02*
G37*
G36*
X0307528D02*
X0304059D01*
Y038304D01*
X030433Y0382031D01*
X0304852Y0381126D01*
X0305591Y0380387D01*
X0306496Y0379865D01*
X0307505Y0379594D01*
X0307528D01*
Y0383063D01*
D02*
G37*
G36*
X029855Y0387531D02*
X0297505D01*
X0296496Y0387261D01*
X0295591Y0386739D01*
X0294852Y0386D01*
X029433Y0385095D01*
X0294059Y0384085D01*
Y038304D01*
X029433Y0382031D01*
X0294852Y0381126D01*
X0295591Y0380387D01*
X0296496Y0379865D01*
X0297505Y0379594D01*
X029855D01*
X0299559Y0379865D01*
X0300464Y0380387D01*
X0301203Y0381126D01*
X0301726Y0382031D01*
X0301996Y038304D01*
Y0384085D01*
X0301726Y0385095D01*
X0301203Y0386D01*
X0300464Y0386739D01*
X0299559Y0387261D01*
X029855Y0387531D01*
D02*
G37*
G36*
X0110528Y0376129D02*
Y0374563D01*
X0112094D01*
X0111808Y0375253D01*
X0111217Y0375843D01*
X0110528Y0376129D01*
D02*
G37*
G36*
X0109528D02*
X0108838Y0375843D01*
X0108247Y0375253D01*
X0107962Y0374563D01*
X0109528D01*
Y0376129D01*
D02*
G37*
G36*
X0112094Y0373563D02*
X0110528D01*
Y0371997D01*
X0111217Y0372283D01*
X0111808Y0372873D01*
X0112094Y0373563D01*
D02*
G37*
G36*
X0109528D02*
X0107962D01*
X0108247Y0372873D01*
X0108838Y0372283D01*
X0109528Y0371997D01*
Y0373563D01*
D02*
G37*
G36*
X0166028Y0373256D02*
Y0370063D01*
X0169221D01*
X0168973Y037099D01*
X0168486Y0371833D01*
X0167798Y0372521D01*
X0166955Y0373008D01*
X0166028Y0373256D01*
D02*
G37*
G36*
X0165028Y0373256D02*
X0164101Y0373008D01*
X0163258Y0372521D01*
X0162569Y0371833D01*
X0162083Y037099D01*
X0161834Y0370063D01*
X0165028D01*
Y0373256D01*
D02*
G37*
G36*
Y0369063D02*
X0161834D01*
X0162083Y0368136D01*
X0162569Y0367293D01*
X0163258Y0366605D01*
X0164101Y0366118D01*
X0165028Y036587D01*
Y0369063D01*
D02*
G37*
G36*
X0169221D02*
X0166028D01*
Y036587D01*
X0166955Y0366118D01*
X0167798Y0366605D01*
X0168486Y0367293D01*
X0168973Y0368136D01*
X0169221Y0369063D01*
D02*
G37*
G36*
X0179028Y0381193D02*
X0148028D01*
X0147213Y0381031D01*
X0146521Y0380569D01*
X0140522Y0374569D01*
X0140522Y0374569D01*
X0136018Y0370066D01*
X0135984Y0370014D01*
X0135337Y0369172D01*
X0134907Y0368134D01*
X0134761Y036702D01*
X0134907Y0365906D01*
X0135001Y036568D01*
X013459Y0365365D01*
X0134342Y0365556D01*
X0133325Y0365977D01*
X0132235Y036612D01*
X0131144Y0365977D01*
X0130128Y0365556D01*
X0129313Y036493D01*
X0129251Y0364889D01*
Y0364889D01*
X012921Y0364828D01*
X0128585Y0364013D01*
X0128164Y0362997D01*
X012802Y0361906D01*
X0128164Y0360815D01*
X0128585Y0359799D01*
X0128775Y035955D01*
X012846Y035914D01*
X0128235Y0359233D01*
X0127121Y035938D01*
X0126007Y0359233D01*
X0124969Y0358803D01*
X0124126Y0358157D01*
X0124074Y0358122D01*
X012035Y0354397D01*
X012035Y0354397D01*
X0120021Y0354069D01*
X011956Y0353378D01*
X0119398Y0352563D01*
Y0224945D01*
X011217Y0217718D01*
X0112014Y021776D01*
X0111041D01*
X0110101Y0217508D01*
X0109258Y0217021D01*
X010857Y0216333D01*
X0108083Y021549D01*
X0107831Y021455D01*
Y0213576D01*
X0108083Y0212636D01*
X010857Y0211793D01*
X0109258Y0211105D01*
X0110101Y0210618D01*
X0111041Y0210366D01*
X0112014D01*
X0112955Y0210618D01*
X0113798Y0211105D01*
X0114486Y0211793D01*
X0114973Y0212636D01*
X0115225Y0213576D01*
Y021455D01*
X0115183Y0214706D01*
X0123034Y0222557D01*
X0123496Y0223248D01*
X0123658Y0224063D01*
Y0351681D01*
X0127087Y035511D01*
X0127091Y0355105D01*
X0127121Y0355118D01*
X0127151Y0355105D01*
X0127508Y0354756D01*
X0136635Y034563D01*
X0136635Y034563D01*
X0136696Y0345589D01*
X0137511Y0344964D01*
X0138527Y0344543D01*
X0139618Y0344399D01*
X0140709Y0344543D01*
X0141725Y0344964D01*
X014254Y0345589D01*
X0142602Y034563D01*
X0142602D01*
X0142642Y0345691D01*
X0143268Y0346506D01*
X0143689Y0347523D01*
X0143832Y0348613D01*
X0143689Y0349704D01*
X0143431Y0350327D01*
X0143814Y035071D01*
X0144436Y0350452D01*
X0145527Y0350308D01*
X0146618Y0350452D01*
X0147634Y0350873D01*
X0148449Y0351498D01*
X0148511Y0351539D01*
X0148511D01*
X0148551Y03516D01*
X0149177Y0352415D01*
X0149598Y0353432D01*
X0149741Y0354522D01*
X0149598Y0355613D01*
X0149177Y0356629D01*
X0148552Y0357444D01*
X0148511Y0357506D01*
X0139336Y036668D01*
Y0367359D01*
X0143534Y0371557D01*
X0143534Y0371557D01*
X014891Y0376933D01*
X0178145D01*
X0182859Y037222D01*
Y0372122D01*
X018257Y0371833D01*
X0182083Y037099D01*
X0181831Y037005D01*
Y0369076D01*
X0182083Y0368136D01*
X018257Y0367293D01*
X0183258Y0366605D01*
X0184101Y0366118D01*
X0185041Y0365866D01*
X0186014D01*
X0186955Y0366118D01*
X0187798Y0366605D01*
X0188486Y0367293D01*
X0188973Y0368136D01*
X0189225Y0369076D01*
Y037005D01*
X0188973Y037099D01*
X0188486Y0371833D01*
X0187798Y0372521D01*
X0187119Y0372913D01*
Y0373102D01*
X0186957Y0373917D01*
X0186495Y0374608D01*
X0180534Y0380569D01*
X0179843Y0381031D01*
X0179028Y0381193D01*
D02*
G37*
G36*
X0159224Y037326D02*
X0151831D01*
Y0365866D01*
X0159224D01*
Y037326D01*
D02*
G37*
G36*
X030855Y0367531D02*
X0307505D01*
X0306496Y0367261D01*
X0305591Y0366739D01*
X0304852Y0366D01*
X030433Y0365095D01*
X0304059Y0364085D01*
Y036304D01*
X030433Y0362031D01*
X0304852Y0361126D01*
X0305591Y0360387D01*
X0306496Y0359865D01*
X0307505Y0359594D01*
X030855D01*
X0309559Y0359865D01*
X0310464Y0360387D01*
X0311203Y0361126D01*
X0311726Y0362031D01*
X0311996Y036304D01*
Y0364085D01*
X0311726Y0365095D01*
X0311203Y0366D01*
X0310464Y0366739D01*
X0309559Y0367261D01*
X030855Y0367531D01*
D02*
G37*
G36*
Y0356441D02*
X0308528D01*
Y0352972D01*
X0311996D01*
Y0352995D01*
X0311726Y0354004D01*
X0311203Y0354909D01*
X0310464Y0355648D01*
X0309559Y0356171D01*
X030855Y0356441D01*
D02*
G37*
G36*
X0307528D02*
X0307505D01*
X0306496Y0356171D01*
X0305591Y0355648D01*
X0304852Y0354909D01*
X030433Y0354004D01*
X0304059Y0352995D01*
Y0352972D01*
X0307528D01*
Y0356441D01*
D02*
G37*
G36*
X0278054Y0375563D02*
X0277001D01*
X0275984Y037529D01*
X0275072Y0374764D01*
X0274327Y0374019D01*
X02738Y0373107D01*
X0273528Y037209D01*
Y0371036D01*
X02738Y0370019D01*
X0274093Y0369512D01*
X0255391Y035081D01*
X025499Y0351117D01*
X0255093Y0351293D01*
X0255317Y035213D01*
Y0352996D01*
X0255093Y0353833D01*
X025466Y0354583D01*
X0254047Y0355195D01*
X0253297Y0355628D01*
X0252461Y0355852D01*
X0251595D01*
X0251332Y0355782D01*
X0238289Y0368825D01*
X023771Y0369212D01*
X0237028Y0369347D01*
X0202708D01*
X0201945Y0369663D01*
X020111D01*
X0200338Y0369343D01*
X0199747Y0368753D01*
X0199428Y0367981D01*
Y0367145D01*
X0199747Y0366373D01*
X0200338Y0365783D01*
X020111Y0365463D01*
X0201945D01*
X0202708Y0365779D01*
X0236289D01*
X0248809Y0353258D01*
X0248739Y0352996D01*
Y035213D01*
X0248963Y0351293D01*
X0249396Y0350543D01*
X0250008Y0349931D01*
X0250758Y0349498D01*
X0251595Y0349274D01*
X0252461D01*
X0253297Y0349498D01*
X0253474Y03496D01*
X0253781Y03492D01*
X0252683Y0348102D01*
X0249372D01*
X0245317Y0352158D01*
Y0352996D01*
X0245093Y0353833D01*
X0244659Y0354583D01*
X0244047Y0355195D01*
X0243297Y0355628D01*
X0242461Y0355852D01*
X0241595D01*
X0240758Y0355628D01*
X0240008Y0355195D01*
X0239396Y0354583D01*
X0238963Y0353833D01*
X0238739Y0352996D01*
Y035213D01*
X0238963Y0351293D01*
X0239396Y0350543D01*
X0240008Y0349931D01*
X0240758Y0349498D01*
X0241595Y0349274D01*
X0242433D01*
X0247086Y0344621D01*
X0247747Y0344179D01*
X0248528Y0344024D01*
X0253528D01*
X0254308Y0344179D01*
X025497Y0344621D01*
X0273219Y0362871D01*
X0273668Y0362612D01*
X0273528Y036209D01*
Y0361036D01*
X0273625Y0360673D01*
X0250145Y0337193D01*
X0224528D01*
X0224377Y0337163D01*
X022411D01*
X0223864Y0337061D01*
X0223712Y0337031D01*
X0223584Y0336945D01*
X0223338Y0336843D01*
X022315Y0336655D01*
X0223022Y0336569D01*
X0222936Y0336441D01*
X0222747Y0336252D01*
X0222645Y0336006D01*
X022256Y0335878D01*
X022253Y0335727D01*
X0222428Y0335481D01*
Y0335214D01*
X0222398Y0335063D01*
X0222428Y0334912D01*
Y0334645D01*
X022253Y0334399D01*
X022256Y0334248D01*
X0222645Y033412D01*
X0222747Y0333873D01*
X0222936Y0333685D01*
X0223022Y0333557D01*
X022315Y0333471D01*
X0223338Y0333283D01*
X0223584Y0333181D01*
X0223712Y0333095D01*
X0223864Y0333065D01*
X022411Y0332963D01*
X0224377D01*
X0224528Y0332933D01*
X0251028D01*
X0251843Y0333095D01*
X0252534Y0333557D01*
X0276638Y035766D01*
X0277001Y0357563D01*
X0278054D01*
X0279072Y0357836D01*
X0279984Y0358362D01*
X0280729Y0359107D01*
X0281255Y0360019D01*
X0281528Y0361036D01*
Y036209D01*
X0281255Y0363107D01*
X0280729Y0364019D01*
X0279984Y0364764D01*
X0279072Y036529D01*
X0278054Y0365563D01*
X0277001D01*
X0276479Y0365423D01*
X027622Y0365871D01*
X0277477Y0367128D01*
X0277767Y0367563D01*
X0278054D01*
X0279072Y0367836D01*
X0279984Y0368362D01*
X0280729Y0369107D01*
X0281255Y0370019D01*
X0281528Y0371036D01*
Y037209D01*
X0281255Y0373107D01*
X0280729Y0374019D01*
X0279984Y0374764D01*
X0279072Y037529D01*
X0278054Y0375563D01*
D02*
G37*
G36*
X0235317Y0355852D02*
X0228739D01*
Y0349274D01*
X0235317D01*
Y0355852D01*
D02*
G37*
G36*
X0311996Y0351972D02*
X0308528D01*
Y0348504D01*
X030855D01*
X0309559Y0348774D01*
X0310464Y0349297D01*
X0311203Y0350036D01*
X0311726Y0350941D01*
X0311996Y035195D01*
Y0351972D01*
D02*
G37*
G36*
X0307528D02*
X0304059D01*
Y035195D01*
X030433Y0350941D01*
X0304852Y0350036D01*
X0305591Y0349297D01*
X0306496Y0348774D01*
X0307505Y0348504D01*
X0307528D01*
Y0351972D01*
D02*
G37*
G36*
X029855Y0356441D02*
X0297505D01*
X0296496Y0356171D01*
X0295591Y0355648D01*
X0294852Y0354909D01*
X029433Y0354004D01*
X0294059Y0352995D01*
Y035195D01*
X029433Y0350941D01*
X0294852Y0350036D01*
X0295591Y0349297D01*
X0296496Y0348774D01*
X0297505Y0348504D01*
X029855D01*
X0299559Y0348774D01*
X0300464Y0349297D01*
X0301203Y0350036D01*
X0301726Y0350941D01*
X0301996Y035195D01*
Y0352995D01*
X0301726Y0354004D01*
X0301203Y0354909D01*
X0300464Y0355648D01*
X0299559Y0356171D01*
X029855Y0356441D01*
D02*
G37*
G36*
X0278054Y0355563D02*
X0277001D01*
X0275984Y035529D01*
X0275072Y0354764D01*
X0274327Y0354019D01*
X02738Y0353107D01*
X0273528Y035209D01*
Y0351036D01*
X0273625Y0350673D01*
X0251649Y0328697D01*
X0242032D01*
X024186Y0328663D01*
X024161D01*
X0241379Y0328567D01*
X0241217Y0328535D01*
X0241079Y0328443D01*
X0240838Y0328343D01*
X0240654Y0328159D01*
X0240526Y0328073D01*
X0240522Y0328069D01*
X0240436Y0327941D01*
X0240247Y0327752D01*
X0240145Y0327506D01*
X024006Y0327378D01*
X024003Y0327227D01*
X0239928Y0326981D01*
Y0326714D01*
X0239898Y0326563D01*
X0239928Y0326412D01*
Y0326145D01*
X024003Y0325899D01*
X024006Y0325748D01*
X0240145Y032562D01*
X0240247Y0325373D01*
X0240436Y0325185D01*
X0240522Y0325057D01*
X024065Y0324971D01*
X0240838Y0324783D01*
X0241084Y0324681D01*
X0241213Y0324595D01*
X0241364Y0324565D01*
X024161Y0324463D01*
X0241877D01*
X0242028Y0324433D01*
X0242049Y0324437D01*
X0252532D01*
X0253347Y0324599D01*
X0254038Y0325061D01*
X0276638Y034766D01*
X0277001Y0347563D01*
X0278054D01*
X0279072Y0347836D01*
X0279984Y0348362D01*
X0280729Y0349107D01*
X0281255Y0350019D01*
X0281528Y0351036D01*
Y035209D01*
X0281255Y0353107D01*
X0280729Y0354019D01*
X0279984Y0354764D01*
X0279072Y035529D01*
X0278054Y0355563D01*
D02*
G37*
G36*
Y0345563D02*
X0277001D01*
X0275984Y034529D01*
X0275072Y0344764D01*
X0274327Y0344019D01*
X02738Y0343107D01*
X0273528Y034209D01*
Y0341036D01*
X0273652Y0340571D01*
X0251183Y0318102D01*
X0236592D01*
X0236445Y0318163D01*
X023561D01*
X0234838Y0317843D01*
X0234247Y0317252D01*
X0233928Y0316481D01*
Y0315645D01*
X0234247Y0314873D01*
X0234838Y0314283D01*
X023561Y0313963D01*
X0236445D01*
X0236592Y0314024D01*
X0252028D01*
X0252808Y0314179D01*
X025347Y0314621D01*
X0276536Y0337688D01*
X0277001Y0337563D01*
X0278054D01*
X0279072Y0337836D01*
X0279984Y0338362D01*
X0280729Y0339107D01*
X0281255Y0340019D01*
X0281528Y0341036D01*
Y034209D01*
X0281255Y0343107D01*
X0280729Y0344019D01*
X0279984Y0344764D01*
X0279072Y034529D01*
X0278054Y0345563D01*
D02*
G37*
G36*
X030855Y0336441D02*
X0307505D01*
X0306496Y0336171D01*
X0305591Y0335648D01*
X0304852Y0334909D01*
X030433Y0334004D01*
X0304059Y0332995D01*
Y033195D01*
X030433Y0330941D01*
X0304852Y0330036D01*
X0305591Y0329297D01*
X0306496Y0328774D01*
X0307505Y0328504D01*
X030855D01*
X0309559Y0328774D01*
X0310464Y0329297D01*
X0311203Y0330036D01*
X0311726Y0330941D01*
X0311996Y033195D01*
Y0332995D01*
X0311726Y0334004D01*
X0311203Y0334909D01*
X0310464Y0335648D01*
X0309559Y0336171D01*
X030855Y0336441D01*
D02*
G37*
G36*
X029855D02*
X0297505D01*
X0296496Y0336171D01*
X0295591Y0335648D01*
X0294852Y0334909D01*
X029433Y0334004D01*
X0294059Y0332995D01*
Y033195D01*
X029433Y0330941D01*
X0294852Y0330036D01*
X0295591Y0329297D01*
X0296496Y0328774D01*
X0297505Y0328504D01*
X029855D01*
X0299559Y0328774D01*
X0300464Y0329297D01*
X0301203Y0330036D01*
X0301726Y0330941D01*
X0301996Y033195D01*
Y0332995D01*
X0301726Y0334004D01*
X0301203Y0334909D01*
X0300464Y0335648D01*
X0299559Y0336171D01*
X029855Y0336441D01*
D02*
G37*
G36*
X0278054Y0335563D02*
X0277001D01*
X0275984Y033529D01*
X0275072Y0334764D01*
X0274327Y0334019D01*
X02738Y0333107D01*
X0273528Y033209D01*
Y0331803D01*
X0273093Y0331512D01*
X0251683Y0310102D01*
X0236592D01*
X0236445Y0310163D01*
X023561D01*
X0234838Y0309843D01*
X0234247Y0309253D01*
X0233928Y0308481D01*
Y0307645D01*
X0234247Y0306873D01*
X0234838Y0306283D01*
X023561Y0305963D01*
X0236445D01*
X0236592Y0306024D01*
X0252528D01*
X0253308Y0306179D01*
X025397Y0306621D01*
X0275477Y0328128D01*
X0275984Y0327836D01*
X0277001Y0327563D01*
X0278054D01*
X0279072Y0327836D01*
X0279984Y0328362D01*
X0280729Y0329107D01*
X0281255Y0330019D01*
X0281528Y0331036D01*
Y033209D01*
X0281255Y0333107D01*
X0280729Y0334019D01*
X0279984Y0334764D01*
X0279072Y033529D01*
X0278054Y0335563D01*
D02*
G37*
G36*
X030855Y0325441D02*
X0308528D01*
Y0321972D01*
X0311996D01*
Y0321995D01*
X0311726Y0323004D01*
X0311203Y0323909D01*
X0310464Y0324648D01*
X0309559Y032517D01*
X030855Y0325441D01*
D02*
G37*
G36*
X0307528D02*
X0307505D01*
X0306496Y032517D01*
X0305591Y0324648D01*
X0304852Y0323909D01*
X030433Y0323004D01*
X0304059Y0321995D01*
Y0321972D01*
X0307528D01*
Y0325441D01*
D02*
G37*
G36*
X0169945Y0325663D02*
X016911D01*
X0168338Y0325343D01*
X0167747Y0324752D01*
X0167428Y0323981D01*
Y0323145D01*
X0167747Y0322373D01*
X0168338Y0321783D01*
X016911Y0321463D01*
X0169945D01*
X0170092Y0321524D01*
X0210183D01*
X0212687Y031902D01*
X0212747Y0318873D01*
X0213338Y0318283D01*
X021411Y0317963D01*
X0214945D01*
X0215717Y0318283D01*
X0216308Y0318873D01*
X0216628Y0319645D01*
Y0320481D01*
X0216308Y0321252D01*
X0215717Y0321843D01*
X021557Y0321904D01*
X021247Y0325005D01*
X0211808Y0325447D01*
X0211028Y0325602D01*
X0170092D01*
X0169945Y0325663D01*
D02*
G37*
G36*
X0278054Y0325563D02*
X0277001D01*
X0275984Y032529D01*
X0275072Y0324764D01*
X0274327Y0324019D01*
X02738Y0323107D01*
X0273528Y032209D01*
Y0321036D01*
X0273625Y0320673D01*
X0256145Y0303193D01*
X0251528D01*
X0251377Y0303163D01*
X025111D01*
X0250864Y0303061D01*
X0250712Y0303031D01*
X0250584Y0302945D01*
X0250338Y0302843D01*
X025015Y0302655D01*
X0250022Y0302569D01*
X0249936Y0302441D01*
X0249747Y0302253D01*
X0249645Y0302006D01*
X024956Y0301878D01*
X024953Y0301727D01*
X0249428Y0301481D01*
Y0301214D01*
X0249398Y0301063D01*
X0249428Y0300912D01*
Y0300645D01*
X024953Y0300399D01*
X024956Y0300248D01*
X0249645Y030012D01*
X0249747Y0299873D01*
X0249936Y0299685D01*
X0250022Y0299557D01*
X025015Y0299471D01*
X0250338Y0299283D01*
X0250584Y0299181D01*
X0250712Y0299095D01*
X0250864Y0299065D01*
X025111Y0298963D01*
X0251377D01*
X0251528Y0298933D01*
X0257028D01*
X0257843Y0299095D01*
X0258534Y0299557D01*
X0276638Y031766D01*
X0277001Y0317563D01*
X0278054D01*
X0279072Y0317836D01*
X0279984Y0318362D01*
X0280729Y0319107D01*
X0281255Y0320019D01*
X0281528Y0321036D01*
Y032209D01*
X0281255Y0323107D01*
X0280729Y0324019D01*
X0279984Y0324764D01*
X0279072Y032529D01*
X0278054Y0325563D01*
D02*
G37*
G36*
X0311996Y0320972D02*
X0308528D01*
Y0317504D01*
X030855D01*
X0309559Y0317774D01*
X0310464Y0318297D01*
X0311203Y0319036D01*
X0311726Y0319941D01*
X0311996Y032095D01*
Y0320972D01*
D02*
G37*
G36*
X0307528D02*
X0304059D01*
Y032095D01*
X030433Y0319941D01*
X0304852Y0319036D01*
X0305591Y0318297D01*
X0306496Y0317774D01*
X0307505Y0317504D01*
X0307528D01*
Y0320972D01*
D02*
G37*
G36*
X029855Y0325441D02*
X0297505D01*
X0296496Y032517D01*
X0295591Y0324648D01*
X0294852Y0323909D01*
X029433Y0323004D01*
X0294059Y0321995D01*
Y032095D01*
X029433Y0319941D01*
X0294852Y0319036D01*
X0295591Y0318297D01*
X0296496Y0317774D01*
X0297505Y0317504D01*
X029855D01*
X0299559Y0317774D01*
X0300464Y0318297D01*
X0301203Y0319036D01*
X0301726Y0319941D01*
X0301996Y032095D01*
Y0321995D01*
X0301726Y0323004D01*
X0301203Y0323909D01*
X0300464Y0324648D01*
X0299559Y032517D01*
X029855Y0325441D01*
D02*
G37*
G36*
X0278054Y0315563D02*
X0278028D01*
Y0312063D01*
X0281528D01*
Y031209D01*
X0281255Y0313107D01*
X0280729Y0314019D01*
X0279984Y0314764D01*
X0279072Y031529D01*
X0278054Y0315563D01*
D02*
G37*
G36*
X0277028D02*
X0277001D01*
X0275984Y031529D01*
X0275072Y0314764D01*
X0274327Y0314019D01*
X02738Y0313107D01*
X0273528Y031209D01*
Y0312063D01*
X0277028D01*
Y0315563D01*
D02*
G37*
G36*
X0281528Y0311063D02*
X0278028D01*
Y0307563D01*
X0278054D01*
X0279072Y0307836D01*
X0279984Y0308362D01*
X0280729Y0309107D01*
X0281255Y0310019D01*
X0281528Y0311036D01*
Y0311063D01*
D02*
G37*
G36*
X0277028D02*
X0273528D01*
Y0311036D01*
X02738Y0310019D01*
X0274327Y0309107D01*
X0275072Y0308362D01*
X0275984Y0307836D01*
X0277001Y0307563D01*
X0277028D01*
Y0311063D01*
D02*
G37*
G36*
X0152528Y0330102D02*
X0141528D01*
X0140747Y0329947D01*
X0140086Y0329505D01*
X0134086Y0323505D01*
X0133644Y0322843D01*
X0133489Y0322063D01*
Y0313408D01*
X0126485Y0306404D01*
X0126338Y0306343D01*
X0125747Y0305752D01*
X0125428Y0304981D01*
Y0304145D01*
X0125747Y0303373D01*
X0126338Y0302783D01*
X012711Y0302463D01*
X0127945D01*
X0128717Y0302783D01*
X0129308Y0303373D01*
X0129369Y030352D01*
X013697Y0311121D01*
X0137412Y0311783D01*
X0137567Y0312563D01*
Y0321218D01*
X0142372Y0326024D01*
X0151683D01*
X0171086Y0306621D01*
X0171747Y0306179D01*
X0172528Y0306024D01*
X0210463D01*
X021061Y0305963D01*
X0211445D01*
X0212217Y0306283D01*
X0212808Y0306873D01*
X0213128Y0307645D01*
Y0308481D01*
X0212808Y0309253D01*
X0212217Y0309843D01*
X0211445Y0310163D01*
X021061D01*
X0210463Y0310102D01*
X0173372D01*
X015397Y0329505D01*
X0153308Y0329947D01*
X0152528Y0330102D01*
D02*
G37*
G36*
X0278054Y0305563D02*
X0277001D01*
X0275984Y030529D01*
X0275072Y0304764D01*
X0274327Y0304019D01*
X02738Y0303107D01*
X0273528Y030209D01*
Y0301668D01*
X0265725Y0293865D01*
X0265173Y0293038D01*
X0264979Y0292063D01*
Y0244619D01*
X025948Y023912D01*
X0246591D01*
X0239077Y0246634D01*
Y0266257D01*
X023983Y0266761D01*
X0240383Y0267587D01*
X0240577Y0268563D01*
X0240383Y0269538D01*
X023983Y0270365D01*
X0239003Y0270918D01*
X0238028Y0271112D01*
X0235028D01*
X0234052Y0270918D01*
X0233225Y0270365D01*
X0232673Y0269538D01*
X0232479Y0268563D01*
X0232517Y0268371D01*
Y0268079D01*
X0232711Y0267103D01*
X0233263Y0266277D01*
X0233979Y0265561D01*
Y0245579D01*
X0234173Y0244603D01*
X0234725Y0243776D01*
X0241931Y0236571D01*
X0237987Y0232628D01*
X0237666D01*
X0237464Y0232829D01*
X023656Y0233352D01*
X023555Y0233622D01*
X0234505D01*
X0233496Y0233352D01*
X0232591Y0232829D01*
X0231852Y023209D01*
X023133Y0231185D01*
X0231059Y0230176D01*
Y0229131D01*
X023133Y0228122D01*
X0231852Y0227217D01*
X0232591Y0226478D01*
X0233496Y0225956D01*
X0234505Y0225685D01*
X023555D01*
X023656Y0225956D01*
X0237464Y0226478D01*
X0238203Y0227217D01*
X0238384Y022753D01*
X0239043D01*
X0240019Y0227724D01*
X0240846Y0228276D01*
X0246591Y0234022D01*
X0260535D01*
X0261511Y0234216D01*
X0262338Y0234768D01*
X026933Y0241761D01*
X0269883Y0242587D01*
X0270077Y0243563D01*
Y0291007D01*
X027671Y0297641D01*
X0277001Y0297563D01*
X0278054D01*
X0279072Y0297836D01*
X0279984Y0298362D01*
X0280729Y0299107D01*
X0281255Y0300019D01*
X0281528Y0301036D01*
Y030209D01*
X0281255Y0303107D01*
X0280729Y0304019D01*
X0279984Y0304764D01*
X0279072Y030529D01*
X0278054Y0305563D01*
D02*
G37*
G36*
X030855Y0305441D02*
X0307505D01*
X0306496Y030517D01*
X0305591Y0304648D01*
X0304852Y0303909D01*
X030433Y0303004D01*
X0304059Y0301995D01*
Y030095D01*
X030433Y0299941D01*
X0304852Y0299036D01*
X0305591Y0298297D01*
X0306496Y0297774D01*
X0307505Y0297504D01*
X030855D01*
X0309559Y0297774D01*
X0310464Y0298297D01*
X0311203Y0299036D01*
X0311726Y0299941D01*
X0311996Y030095D01*
Y0301995D01*
X0311726Y0303004D01*
X0311203Y0303909D01*
X0310464Y0304648D01*
X0309559Y030517D01*
X030855Y0305441D01*
D02*
G37*
G36*
X029855D02*
X0297505D01*
X0296496Y030517D01*
X0295591Y0304648D01*
X0294852Y0303909D01*
X029433Y0303004D01*
X0294059Y0301995D01*
Y030095D01*
X029433Y0299941D01*
X0294852Y0299036D01*
X0295591Y0298297D01*
X0296496Y0297774D01*
X0297505Y0297504D01*
X029855D01*
X0299559Y0297774D01*
X0300464Y0298297D01*
X0301203Y0299036D01*
X0301726Y0299941D01*
X0301996Y030095D01*
Y0301995D01*
X0301726Y0303004D01*
X0301203Y0303909D01*
X0300464Y0304648D01*
X0299559Y030517D01*
X029855Y0305441D01*
D02*
G37*
G36*
X0212225Y029776D02*
X0209028D01*
Y0294563D01*
X0212225D01*
Y029776D01*
D02*
G37*
G36*
X0208028D02*
X0204831D01*
Y0294563D01*
X0208028D01*
Y029776D01*
D02*
G37*
G36*
X0212225Y0293563D02*
X0209028D01*
Y0290366D01*
X0212225D01*
Y0293563D01*
D02*
G37*
G36*
X0208028D02*
X0204831D01*
Y0290366D01*
X0208028D01*
Y0293563D01*
D02*
G37*
G36*
X0199014Y029776D02*
X0198041D01*
X0197101Y0297508D01*
X0196258Y0297021D01*
X019557Y0296333D01*
X0195083Y029549D01*
X0194831Y029455D01*
Y0293576D01*
X0195083Y0292636D01*
X019557Y0291793D01*
X0196258Y0291105D01*
X0197101Y0290618D01*
X0198041Y0290366D01*
X0199014D01*
X0199955Y0290618D01*
X0200798Y0291105D01*
X0201486Y0291793D01*
X0201973Y0292636D01*
X0202224Y0293576D01*
Y029455D01*
X0201973Y029549D01*
X0201486Y0296333D01*
X0200798Y0297021D01*
X0199955Y0297508D01*
X0199014Y029776D01*
D02*
G37*
G36*
X0147795Y0322408D02*
Y0322408D01*
X0146313Y0322213D01*
X0144931Y032164D01*
X0143745Y032073D01*
X0142835Y0319544D01*
X0142263Y0318163D01*
X0142068Y031668D01*
X0142076D01*
Y0308652D01*
X0142086Y0308604D01*
X0141983Y0308086D01*
X0141662Y0307607D01*
X0141183Y0307286D01*
X0140665Y0307183D01*
X0140617Y0307193D01*
X0138528D01*
X0137713Y0307031D01*
X0137022Y0306569D01*
X0127522Y0297069D01*
X012706Y0296378D01*
X0126898Y0295563D01*
Y0222445D01*
X012217Y0217718D01*
X0122014Y021776D01*
X0121041D01*
X0120101Y0217508D01*
X0119258Y0217021D01*
X011857Y0216333D01*
X0118083Y021549D01*
X0117831Y021455D01*
Y0213576D01*
X0118083Y0212636D01*
X011857Y0211793D01*
X0119258Y0211105D01*
X0120101Y0210618D01*
X0121041Y0210366D01*
X0122014D01*
X0122955Y0210618D01*
X0123798Y0211105D01*
X0124486Y0211793D01*
X0124973Y0212636D01*
X0125224Y0213576D01*
Y021455D01*
X0125183Y0214706D01*
X0130534Y0220057D01*
X0130996Y0220748D01*
X0131158Y0221563D01*
Y0294681D01*
X013941Y0302933D01*
X0140617D01*
Y0302925D01*
X0142099Y030312D01*
X0143481Y0303692D01*
X0144667Y0304602D01*
X0145577Y0305788D01*
X0146149Y030717D01*
X0146344Y0308652D01*
X0146336D01*
Y031668D01*
X0146326Y0316729D01*
X0146429Y0317246D01*
X014675Y0317726D01*
X0147229Y0318046D01*
X0147747Y0318149D01*
X0147795Y031814D01*
X0147844Y0318149D01*
X0148361Y0318046D01*
X0148841Y0317726D01*
X0149161Y0317246D01*
X0149264Y0316729D01*
X0149254Y031668D01*
Y0308652D01*
X0149246D01*
X0149441Y030717D01*
X0150013Y0305788D01*
X0150924Y0304602D01*
X015211Y0303692D01*
X0153491Y030312D01*
X0154973Y0302925D01*
Y0302933D01*
X0166645D01*
X0174873Y0294706D01*
X0174831Y029455D01*
Y0293576D01*
X0175083Y0292636D01*
X0175569Y0291793D01*
X0176258Y0291105D01*
X0177101Y0290618D01*
X0178041Y0290366D01*
X0179014D01*
X0179955Y0290618D01*
X0180798Y0291105D01*
X0181486Y0291793D01*
X0181973Y0292636D01*
X0182225Y0293576D01*
Y029455D01*
X0181973Y029549D01*
X0181486Y0296333D01*
X0180798Y0297021D01*
X0179955Y0297508D01*
X0179014Y029776D01*
X0178041D01*
X0177885Y0297718D01*
X0169034Y0306569D01*
X0168343Y0307031D01*
X0167528Y0307193D01*
X0154973D01*
X0154925Y0307183D01*
X0154408Y0307286D01*
X0153928Y0307607D01*
X0153608Y0308086D01*
X0153505Y0308604D01*
X0153514Y0308652D01*
Y031668D01*
X0153523D01*
X0153327Y0318163D01*
X0152755Y0319544D01*
X0151845Y032073D01*
X0150659Y032164D01*
X0149277Y0322213D01*
X0147795Y0322408D01*
D02*
G37*
G36*
X0159014Y029776D02*
X0158041D01*
X0157101Y0297508D01*
X0156258Y0297021D01*
X015557Y0296333D01*
X0155083Y029549D01*
X0154831Y029455D01*
Y0293576D01*
X0155083Y0292636D01*
X015557Y0291793D01*
X0156258Y0291105D01*
X0157101Y0290618D01*
X0158041Y0290366D01*
X0159014D01*
X0159955Y0290618D01*
X0160798Y0291105D01*
X0161486Y0291793D01*
X0161973Y0292636D01*
X0162224Y0293576D01*
Y029455D01*
X0161973Y029549D01*
X0161486Y0296333D01*
X0160798Y0297021D01*
X0159955Y0297508D01*
X0159014Y029776D01*
D02*
G37*
G36*
X0139014D02*
X0138041D01*
X0137101Y0297508D01*
X0136258Y0297021D01*
X013557Y0296333D01*
X0135083Y029549D01*
X0134831Y029455D01*
Y0293576D01*
X0135083Y0292636D01*
X013557Y0291793D01*
X0136258Y0291105D01*
X0137101Y0290618D01*
X0138041Y0290366D01*
X0139014D01*
X0139955Y0290618D01*
X0140798Y0291105D01*
X0141486Y0291793D01*
X0141973Y0292636D01*
X0142225Y0293576D01*
Y029455D01*
X0141973Y029549D01*
X0141486Y0296333D01*
X0140798Y0297021D01*
X0139955Y0297508D01*
X0139014Y029776D01*
D02*
G37*
G36*
X0302528Y0288926D02*
Y0286063D01*
X0305391D01*
X0305175Y0286867D01*
X0304731Y0287637D01*
X0304102Y0288266D01*
X0303331Y0288711D01*
X0302528Y0288926D01*
D02*
G37*
G36*
X0301528D02*
X0300724Y0288711D01*
X0299954Y0288266D01*
X0299325Y0287637D01*
X029888Y0286867D01*
X0298665Y0286063D01*
X0301528D01*
Y0288926D01*
D02*
G37*
G36*
X0305391Y0285063D02*
X0302528D01*
Y02822D01*
X0303331Y0282415D01*
X0304102Y028286D01*
X0304731Y0283489D01*
X0305175Y0284259D01*
X0305391Y0285063D01*
D02*
G37*
G36*
X0301528D02*
X0298665D01*
X029888Y0284259D01*
X0299325Y0283489D01*
X0299954Y028286D01*
X0300724Y0282415D01*
X0301528Y02822D01*
Y0285063D01*
D02*
G37*
G36*
X0281765Y0289039D02*
X028085D01*
X0279965Y0288803D01*
X0279173Y0288345D01*
X0278525Y0287698D01*
X0278068Y0286905D01*
X0277831Y0286021D01*
Y0285105D01*
X0278068Y0284221D01*
X0278525Y0283428D01*
X0279173Y0282781D01*
X0279965Y0282324D01*
X028085Y0282087D01*
X0281765D01*
X0282649Y0282324D01*
X0283442Y0282781D01*
X0284089Y0283428D01*
X0284144Y0283524D01*
X028865D01*
Y0282185D01*
X0295406D01*
Y0288941D01*
X028865D01*
Y0287602D01*
X0284144D01*
X0284089Y0287698D01*
X0283442Y0288345D01*
X0282649Y0288803D01*
X0281765Y0289039D01*
D02*
G37*
G36*
X0254206D02*
X0253291D01*
X0252406Y0288803D01*
X0251614Y0288345D01*
X0250966Y0287698D01*
X0250509Y0286905D01*
X0250272Y0286021D01*
Y0285105D01*
X0250509Y0284221D01*
X0250966Y0283428D01*
X0251614Y0282781D01*
X0252406Y0282324D01*
X0253291Y0282087D01*
X0254206D01*
X025509Y0282324D01*
X0255883Y0282781D01*
X025653Y0283428D01*
X0256988Y0284221D01*
X0257224Y0285105D01*
Y0286021D01*
X0256988Y0286905D01*
X025653Y0287698D01*
X0255883Y0288345D01*
X025509Y0288803D01*
X0254206Y0289039D01*
D02*
G37*
G36*
X0302588Y0268926D02*
Y0266063D01*
X0305451D01*
X0305236Y0266867D01*
X0304791Y0267637D01*
X0304162Y0268266D01*
X0303392Y0268711D01*
X0302588Y0268926D01*
D02*
G37*
G36*
X0301588D02*
X0300784Y0268711D01*
X0300014Y0268266D01*
X0299385Y0267637D01*
X029894Y0266867D01*
X0298725Y0266063D01*
X0301588D01*
Y0268926D01*
D02*
G37*
G36*
X0089641Y0272532D02*
X0088596D01*
X0087586Y0272261D01*
X0086681Y0271739D01*
X0085943Y0271D01*
X008542Y0270095D01*
X008515Y0269085D01*
Y026804D01*
X008542Y0267031D01*
X0085943Y0266126D01*
X0086681Y0265387D01*
X0087586Y0264865D01*
X0088596Y0264595D01*
X0089641D01*
X009065Y0264865D01*
X0091555Y0265387D01*
X0092294Y0266126D01*
X0092816Y0267031D01*
X0093087Y026804D01*
Y0269085D01*
X0092816Y0270095D01*
X0092294Y0271D01*
X0091555Y0271739D01*
X009065Y0272261D01*
X0089641Y0272532D01*
D02*
G37*
G36*
X0069641D02*
X0068596D01*
X0067586Y0272261D01*
X0066681Y0271739D01*
X0065943Y0271D01*
X006542Y0270095D01*
X006515Y0269085D01*
Y026804D01*
X006542Y0267031D01*
X0065943Y0266126D01*
X0066681Y0265387D01*
X0067586Y0264865D01*
X0068596Y0264595D01*
X0069641D01*
X007065Y0264865D01*
X0071555Y0265387D01*
X0072294Y0266126D01*
X0072816Y0267031D01*
X0073087Y026804D01*
Y0269085D01*
X0072816Y0270095D01*
X0072294Y0271D01*
X0071555Y0271739D01*
X007065Y0272261D01*
X0069641Y0272532D01*
D02*
G37*
G36*
X0189014Y029776D02*
X0188041D01*
X0187101Y0297508D01*
X0186258Y0297021D01*
X018557Y0296333D01*
X0185083Y029549D01*
X0184831Y029455D01*
Y0293576D01*
X0185083Y0292636D01*
X018557Y0291793D01*
X0186258Y0291105D01*
X0186572Y0290923D01*
X0186631Y029063D01*
X0187183Y0289803D01*
X0204979Y0272007D01*
Y0269619D01*
X0204625Y0269265D01*
X0204073Y0268438D01*
X0203879Y0267463D01*
Y0267019D01*
X0203725Y0266865D01*
X0203173Y0266038D01*
X0202979Y0265063D01*
X0203173Y0264088D01*
X0203725Y0263261D01*
X0204552Y0262708D01*
X0205528Y0262514D01*
X0210028D01*
X0211003Y0262708D01*
X021183Y0263261D01*
X0212383Y0264088D01*
X0212577Y0265063D01*
Y0266063D01*
X0212383Y0267038D01*
X021183Y0267865D01*
X0210077Y0269619D01*
Y0273063D01*
X0209883Y0274039D01*
X020933Y0274865D01*
X0191821Y0292374D01*
X0191973Y0292636D01*
X0192225Y0293576D01*
Y029455D01*
X0191973Y029549D01*
X0191486Y0296333D01*
X0190798Y0297021D01*
X0189955Y0297508D01*
X0189014Y029776D01*
D02*
G37*
G36*
X0305451Y0265063D02*
X0302588D01*
Y02622D01*
X0303392Y0262415D01*
X0304162Y026286D01*
X0304791Y0263489D01*
X0305236Y0264259D01*
X0305451Y0265063D01*
D02*
G37*
G36*
X0301588D02*
X0298725D01*
X029894Y0264259D01*
X0299385Y0263489D01*
X0300014Y026286D01*
X0300784Y0262415D01*
X0301588Y02622D01*
Y0265063D01*
D02*
G37*
G36*
X0281765Y0269039D02*
X028085D01*
X0279965Y0268802D01*
X0279173Y0268345D01*
X0278525Y0267698D01*
X0278068Y0266905D01*
X0277831Y0266021D01*
Y0265105D01*
X0278068Y0264221D01*
X0278525Y0263428D01*
X0279173Y0262781D01*
X0279965Y0262323D01*
X028085Y0262087D01*
X0281765D01*
X0282649Y0262323D01*
X0283442Y0262781D01*
X0284089Y0263428D01*
X0284144Y0263524D01*
X028871D01*
Y0262185D01*
X0295466D01*
Y0268941D01*
X028871D01*
Y0267602D01*
X0284144D01*
X0284089Y0267698D01*
X0283442Y0268345D01*
X0282649Y0268802D01*
X0281765Y0269039D01*
D02*
G37*
G36*
X0254206D02*
X0253291D01*
X0252406Y0268802D01*
X0251614Y0268345D01*
X0250966Y0267698D01*
X0250509Y0266905D01*
X0250272Y0266021D01*
Y0265105D01*
X0250509Y0264221D01*
X0250966Y0263428D01*
X0251614Y0262781D01*
X0252406Y0262323D01*
X0253291Y0262087D01*
X0254206D01*
X025509Y0262323D01*
X0255883Y0262781D01*
X025653Y0263428D01*
X0256988Y0264221D01*
X0257224Y0265105D01*
Y0266021D01*
X0256988Y0266905D01*
X025653Y0267698D01*
X0255883Y0268345D01*
X025509Y0268802D01*
X0254206Y0269039D01*
D02*
G37*
G36*
X0128945Y0376663D02*
X012811D01*
X0127338Y0376343D01*
X0126747Y0375752D01*
X0126432Y037499D01*
X0097766Y0346325D01*
X0097379Y0345746D01*
X0097243Y0345063D01*
Y0226302D01*
X0090984Y0220043D01*
X0090598Y0219464D01*
X0090462Y0218781D01*
Y0217605D01*
X0090101Y0217508D01*
X0089258Y0217021D01*
X0088569Y0216333D01*
X0088083Y021549D01*
X0087831Y021455D01*
Y0213576D01*
X0088083Y0212636D01*
X0088569Y0211793D01*
X0089258Y0211105D01*
X0090101Y0210618D01*
X0091041Y0210366D01*
X0092014D01*
X0092955Y0210618D01*
X0093798Y0211105D01*
X0094486Y0211793D01*
X0094973Y0212636D01*
X0095224Y0213576D01*
Y021455D01*
X0094973Y021549D01*
X0094486Y0216333D01*
X009403Y0216788D01*
Y0218042D01*
X0100289Y0224301D01*
X0100676Y022488D01*
X0100812Y0225563D01*
X0100812Y0225563D01*
Y023243D01*
X0101274Y0232621D01*
X0101393Y0232502D01*
X0102186Y0232044D01*
X0103028Y0231818D01*
Y0235283D01*
Y0238749D01*
X0102186Y0238523D01*
X0101393Y0238065D01*
X0101274Y0237946D01*
X0100812Y0238137D01*
Y0259989D01*
X0101274Y026018D01*
X0101393Y0260061D01*
X0102186Y0259603D01*
X010307Y0259366D01*
X0103985D01*
X0104869Y0259603D01*
X0105662Y0260061D01*
X0106309Y0260708D01*
X0106767Y0261501D01*
X0107004Y0262385D01*
Y02633D01*
X0106767Y0264184D01*
X0106309Y0264977D01*
X0105662Y0265624D01*
X0104869Y0266082D01*
X0103985Y0266319D01*
X010307D01*
X0102186Y0266082D01*
X0101393Y0265624D01*
X0101274Y0265505D01*
X0100812Y0265696D01*
Y0344324D01*
X0128955Y0372467D01*
X0129717Y0372783D01*
X0130308Y0373373D01*
X0130628Y0374145D01*
Y0374981D01*
X0130308Y0375752D01*
X0129717Y0376343D01*
X0128945Y0376663D01*
D02*
G37*
G36*
X018805Y0265122D02*
X0187005D01*
X0185996Y0264852D01*
X0185091Y0264329D01*
X0184352Y026359D01*
X018383Y0262685D01*
X0183559Y0261676D01*
Y0260631D01*
X018383Y0259622D01*
X0184352Y0258717D01*
X0185091Y0257978D01*
X0185996Y0257455D01*
X0187005Y0257185D01*
X018805D01*
X0189059Y0257455D01*
X0189964Y0257978D01*
X0190703Y0258717D01*
X0191226Y0259622D01*
X0191496Y0260631D01*
Y0261676D01*
X0191226Y0262685D01*
X0190703Y026359D01*
X0189964Y0264329D01*
X0189059Y0264852D01*
X018805Y0265122D01*
D02*
G37*
G36*
X017805D02*
X0177005D01*
X0175996Y0264852D01*
X0175091Y0264329D01*
X0174352Y026359D01*
X017383Y0262685D01*
X0173559Y0261676D01*
Y0260631D01*
X017383Y0259622D01*
X0174352Y0258717D01*
X0175091Y0257978D01*
X0175996Y0257455D01*
X0177005Y0257185D01*
X017805D01*
X017906Y0257455D01*
X0179964Y0257978D01*
X0180703Y0258717D01*
X0181226Y0259622D01*
X0181496Y0260631D01*
Y0261676D01*
X0181226Y0262685D01*
X0180703Y026359D01*
X0179964Y0264329D01*
X017906Y0264852D01*
X017805Y0265122D01*
D02*
G37*
G36*
X015955D02*
X0158505D01*
X0157496Y0264852D01*
X0156591Y0264329D01*
X0155852Y026359D01*
X015533Y0262685D01*
X0155059Y0261676D01*
Y0260631D01*
X015533Y0259622D01*
X0155852Y0258717D01*
X0156591Y0257978D01*
X0157496Y0257455D01*
X0158505Y0257185D01*
X015955D01*
X0160559Y0257455D01*
X0161464Y0257978D01*
X0162203Y0258717D01*
X0162726Y0259622D01*
X0162996Y0260631D01*
Y0261676D01*
X0162726Y0262685D01*
X0162203Y026359D01*
X0161464Y0264329D01*
X0160559Y0264852D01*
X015955Y0265122D01*
D02*
G37*
G36*
X014955D02*
X0148505D01*
X0147496Y0264852D01*
X0146591Y0264329D01*
X0145852Y026359D01*
X014533Y0262685D01*
X0145059Y0261676D01*
Y0260631D01*
X014533Y0259622D01*
X0145852Y0258717D01*
X0146591Y0257978D01*
X0147496Y0257455D01*
X0148505Y0257185D01*
X014955D01*
X0150559Y0257455D01*
X0151464Y0257978D01*
X0152203Y0258717D01*
X0152726Y0259622D01*
X0152996Y0260631D01*
Y0261676D01*
X0152726Y0262685D01*
X0152203Y026359D01*
X0151464Y0264329D01*
X0150559Y0264852D01*
X014955Y0265122D01*
D02*
G37*
G36*
X0089641Y0262531D02*
X0088596D01*
X0087586Y0262261D01*
X0086681Y0261739D01*
X0085943Y0261D01*
X008542Y0260095D01*
X008515Y0259085D01*
Y025804D01*
X008542Y0257031D01*
X0085943Y0256126D01*
X0086681Y0255387D01*
X0087586Y0254865D01*
X0088596Y0254594D01*
X0089641D01*
X009065Y0254865D01*
X0091555Y0255387D01*
X0092294Y0256126D01*
X0092816Y0257031D01*
X0093087Y025804D01*
Y0259085D01*
X0092816Y0260095D01*
X0092294Y0261D01*
X0091555Y0261739D01*
X009065Y0262261D01*
X0089641Y0262531D01*
D02*
G37*
G36*
X0069641D02*
X0068596D01*
X0067586Y0262261D01*
X0066681Y0261739D01*
X0065943Y0261D01*
X006542Y0260095D01*
X006515Y0259085D01*
Y025804D01*
X006542Y0257031D01*
X0065943Y0256126D01*
X0066681Y0255387D01*
X0067586Y0254865D01*
X0068596Y0254594D01*
X0069641D01*
X007065Y0254865D01*
X0071555Y0255387D01*
X0072294Y0256126D01*
X0072816Y0257031D01*
X0073087Y025804D01*
Y0259085D01*
X0072816Y0260095D01*
X0072294Y0261D01*
X0071555Y0261739D01*
X007065Y0262261D01*
X0069641Y0262531D01*
D02*
G37*
G36*
X0302606Y0248926D02*
Y0246063D01*
X030547D01*
X0305254Y0246867D01*
X0304809Y0247637D01*
X0304181Y0248266D01*
X030341Y0248711D01*
X0302606Y0248926D01*
D02*
G37*
G36*
X0301606D02*
X0300803Y0248711D01*
X0300032Y0248266D01*
X0299403Y0247637D01*
X0298959Y0246867D01*
X0298743Y0246063D01*
X0301606D01*
Y0248926D01*
D02*
G37*
G36*
X030547Y0245063D02*
X0302606D01*
Y02422D01*
X030341Y0242415D01*
X0304181Y024286D01*
X0304809Y0243489D01*
X0305254Y0244259D01*
X030547Y0245063D01*
D02*
G37*
G36*
X0301606D02*
X0298743D01*
X0298959Y0244259D01*
X0299403Y0243489D01*
X0300032Y024286D01*
X0300803Y0242415D01*
X0301606Y02422D01*
Y0245063D01*
D02*
G37*
G36*
X0281765Y0249039D02*
X028085D01*
X0279965Y0248802D01*
X0279173Y0248345D01*
X0278525Y0247697D01*
X0278068Y0246905D01*
X0277831Y0246021D01*
Y0245105D01*
X0278068Y0244221D01*
X0278525Y0243428D01*
X0279173Y0242781D01*
X0279965Y0242323D01*
X028085Y0242087D01*
X0281765D01*
X0282649Y0242323D01*
X0283442Y0242781D01*
X0284089Y0243428D01*
X0284144Y0243524D01*
X0288728D01*
Y0242185D01*
X0295484D01*
Y0248941D01*
X0288728D01*
Y0247602D01*
X0284144D01*
X0284089Y0247697D01*
X0283442Y0248345D01*
X0282649Y0248802D01*
X0281765Y0249039D01*
D02*
G37*
G36*
X0254206D02*
X0253291D01*
X0252406Y0248802D01*
X0251614Y0248345D01*
X0250966Y0247697D01*
X0250509Y0246905D01*
X0250272Y0246021D01*
Y0245105D01*
X0250509Y0244221D01*
X0250966Y0243428D01*
X0251614Y0242781D01*
X0252406Y0242323D01*
X0253291Y0242087D01*
X0254206D01*
X025509Y0242323D01*
X0255883Y0242781D01*
X025653Y0243428D01*
X0256988Y0244221D01*
X0257224Y0245105D01*
Y0246021D01*
X0256988Y0246905D01*
X025653Y0247697D01*
X0255883Y0248345D01*
X025509Y0248802D01*
X0254206Y0249039D01*
D02*
G37*
G36*
X0053528Y0243249D02*
Y0240283D01*
X0056493D01*
X0056267Y0241125D01*
X0055809Y0241918D01*
X0055162Y0242565D01*
X0054369Y0243023D01*
X0053528Y0243249D01*
D02*
G37*
G36*
X0052528D02*
X0051686Y0243023D01*
X0050893Y0242565D01*
X0050246Y0241918D01*
X0049788Y0241125D01*
X0049563Y0240283D01*
X0052528D01*
Y0243249D01*
D02*
G37*
G36*
X018805Y0245122D02*
X0187005D01*
X0185996Y0244852D01*
X0185091Y0244329D01*
X0184352Y024359D01*
X018383Y0242685D01*
X0183559Y0241676D01*
Y0240631D01*
X018383Y0239622D01*
X0184352Y0238717D01*
X0185091Y0237978D01*
X0185996Y0237456D01*
X0187005Y0237185D01*
X018805D01*
X0189059Y0237456D01*
X0189964Y0237978D01*
X0190703Y0238717D01*
X0191226Y0239622D01*
X0191496Y0240631D01*
Y0241676D01*
X0191226Y0242685D01*
X0190703Y024359D01*
X0189964Y0244329D01*
X0189059Y0244852D01*
X018805Y0245122D01*
D02*
G37*
G36*
X017805D02*
X0177005D01*
X0175996Y0244852D01*
X0175091Y0244329D01*
X0174352Y024359D01*
X017383Y0242685D01*
X0173559Y0241676D01*
Y0240631D01*
X017383Y0239622D01*
X0174352Y0238717D01*
X0175091Y0237978D01*
X0175996Y0237456D01*
X0177005Y0237185D01*
X017805D01*
X017906Y0237456D01*
X0179964Y0237978D01*
X0180703Y0238717D01*
X0181226Y0239622D01*
X0181496Y0240631D01*
Y0241676D01*
X0181226Y0242685D01*
X0180703Y024359D01*
X0179964Y0244329D01*
X017906Y0244852D01*
X017805Y0245122D01*
D02*
G37*
G36*
X015955D02*
X0158505D01*
X0157496Y0244852D01*
X0156591Y0244329D01*
X0155852Y024359D01*
X015533Y0242685D01*
X0155059Y0241676D01*
Y0240631D01*
X015533Y0239622D01*
X0155852Y0238717D01*
X0156591Y0237978D01*
X0157496Y0237456D01*
X0158505Y0237185D01*
X015955D01*
X0160559Y0237456D01*
X0161464Y0237978D01*
X0162203Y0238717D01*
X0162726Y0239622D01*
X0162996Y0240631D01*
Y0241676D01*
X0162726Y0242685D01*
X0162203Y024359D01*
X0161464Y0244329D01*
X0160559Y0244852D01*
X015955Y0245122D01*
D02*
G37*
G36*
X0136485Y0267319D02*
X013557D01*
X0134686Y0267082D01*
X0133893Y0266624D01*
X0133246Y0265977D01*
X0132788Y0265184D01*
X0132551Y02643D01*
Y0263385D01*
X0132788Y0262501D01*
X0133246Y0261708D01*
X0133893Y0261061D01*
X0134686Y0260603D01*
X0135484Y0260389D01*
X0135818Y0259889D01*
X0146988Y0248718D01*
Y0244559D01*
X0146591Y0244329D01*
X0145852Y024359D01*
X014533Y0242685D01*
X0145059Y0241676D01*
Y0240631D01*
X0145254Y0239903D01*
X0139175Y0233824D01*
X013881Y0234149D01*
X0139267Y0234942D01*
X0139493Y0235784D01*
X0136528D01*
Y0232818D01*
X013737Y0233044D01*
X0138162Y0233502D01*
X0138487Y0233136D01*
X0133266Y0227915D01*
X0132879Y0227336D01*
X0132743Y0226654D01*
Y0218053D01*
X0132292Y0217686D01*
X0132014Y021776D01*
X0131041D01*
X0130101Y0217508D01*
X0129258Y0217021D01*
X0128569Y0216333D01*
X0128083Y021549D01*
X0127831Y021455D01*
Y0213576D01*
X0128083Y0212636D01*
X0128569Y0211793D01*
X0129258Y0211105D01*
X0130101Y0210618D01*
X0131041Y0210366D01*
X0132014D01*
X0132955Y0210618D01*
X0133798Y0211105D01*
X0134486Y0211793D01*
X0134973Y0212636D01*
X0135224Y0213576D01*
Y021455D01*
X0135079Y0215091D01*
X0135789Y0215801D01*
X0136176Y021638D01*
X0136312Y0217063D01*
Y0225915D01*
X0138377Y022798D01*
X0138825Y0227721D01*
X0138783Y0227563D01*
X0141748D01*
Y0230528D01*
X014159Y0230486D01*
X0141332Y0230934D01*
X0147777Y023738D01*
X0148505Y0237185D01*
X014955D01*
X0150559Y0237456D01*
X0151464Y0237978D01*
X0152203Y0238717D01*
X0152726Y0239622D01*
X0152996Y0240631D01*
Y0241676D01*
X0152726Y0242685D01*
X0152203Y024359D01*
X0151464Y0244329D01*
X0151067Y0244559D01*
Y0249563D01*
X0150912Y0250343D01*
X015047Y0251005D01*
X0139209Y0262265D01*
X0139189Y0262366D01*
X0139267Y0262501D01*
X0139504Y0263385D01*
Y02643D01*
X0139267Y0265184D01*
X013881Y0265977D01*
X0138162Y0266624D01*
X013737Y0267082D01*
X0136485Y0267319D01*
D02*
G37*
G36*
X0136528Y0239749D02*
Y0236784D01*
X0139493D01*
X0139267Y0237625D01*
X013881Y0238418D01*
X0138162Y0239065D01*
X013737Y0239523D01*
X0136528Y0239749D01*
D02*
G37*
G36*
X0135528D02*
X0134686Y0239523D01*
X0133893Y0239065D01*
X0133246Y0238418D01*
X0132788Y0237625D01*
X0132563Y0236784D01*
X0135528D01*
Y0239749D01*
D02*
G37*
G36*
X0056493Y0239283D02*
X0053528D01*
Y0236318D01*
X0054369Y0236544D01*
X0055162Y0237002D01*
X0055809Y0237649D01*
X0056267Y0238442D01*
X0056493Y0239283D01*
D02*
G37*
G36*
X0052528D02*
X0049563D01*
X0049788Y0238442D01*
X0050246Y0237649D01*
X0050893Y0237002D01*
X0051686Y0236544D01*
X0052528Y0236318D01*
Y0239283D01*
D02*
G37*
G36*
X008805Y0244032D02*
X0087005D01*
X0085996Y0243761D01*
X0085091Y0243239D01*
X0084352Y02425D01*
X008383Y0241595D01*
X0083559Y0240585D01*
Y0239541D01*
X008383Y0238531D01*
X0084352Y0237626D01*
X0085091Y0236887D01*
X0085996Y0236365D01*
X0087005Y0236094D01*
X008805D01*
X008906Y0236365D01*
X0089964Y0236887D01*
X0090703Y0237626D01*
X0091226Y0238531D01*
X0091496Y0239541D01*
Y0240585D01*
X0091226Y0241595D01*
X0090703Y02425D01*
X0089964Y0243239D01*
X008906Y0243761D01*
X008805Y0244032D01*
D02*
G37*
G36*
X0112021Y0369112D02*
X0109528D01*
X0108552Y0368918D01*
X0107725Y0368365D01*
X0106725Y0367365D01*
X0041225Y0301865D01*
X0040673Y0301038D01*
X0040479Y0300063D01*
Y0264563D01*
X0040673Y0263587D01*
X0041225Y0262761D01*
X006339Y0240596D01*
X0057907Y0235112D01*
X0042028D01*
X0041052Y0234918D01*
X0040225Y0234365D01*
X0029725Y0223865D01*
X0029173Y0223038D01*
X0028979Y0222063D01*
Y0216742D01*
X0028569Y0216333D01*
X0028083Y021549D01*
X0027831Y021455D01*
Y0213576D01*
X0028083Y0212636D01*
X0028569Y0211793D01*
X0028979Y0211384D01*
Y0207171D01*
X0028327Y0206519D01*
X00278Y0205607D01*
X0027528Y020459D01*
Y0203536D01*
X00278Y0202519D01*
X0028327Y0201607D01*
X0029072Y0200862D01*
X0029984Y0200336D01*
X0031001Y0200063D01*
X0032054D01*
X0033072Y0200336D01*
X0033984Y0200862D01*
X0034729Y0201607D01*
X0035255Y0202519D01*
X0035528Y0203536D01*
Y020459D01*
X0035255Y0205607D01*
X0034729Y0206519D01*
X0034077Y0207171D01*
Y0211384D01*
X0034486Y0211793D01*
X0034973Y0212636D01*
X0035225Y0213576D01*
Y021455D01*
X0034973Y021549D01*
X0034486Y0216333D01*
X0034077Y0216742D01*
Y0221007D01*
X0043084Y0230014D01*
X0058962D01*
X0059938Y0230208D01*
X0060765Y0230761D01*
X006629Y0236286D01*
X0067005Y0236094D01*
X006805D01*
X0069059Y0236365D01*
X0069964Y0236887D01*
X0070703Y0237626D01*
X0071226Y0238531D01*
X0071496Y0239541D01*
Y0240585D01*
X0071226Y0241595D01*
X0070703Y02425D01*
X0069964Y0243239D01*
X0069059Y0243761D01*
X006805Y0244032D01*
X0067164D01*
X0045577Y0265619D01*
Y0299007D01*
X011033Y0363761D01*
X0110583Y0364014D01*
X0112021D01*
X0112996Y0364208D01*
X0113823Y0364761D01*
X0114376Y0365587D01*
X011457Y0366563D01*
X0114376Y0367538D01*
X0113823Y0368365D01*
X0112996Y0368918D01*
X0112021Y0369112D01*
D02*
G37*
G36*
X0104028Y0238749D02*
Y0235784D01*
X0106993D01*
X0106767Y0236625D01*
X0106309Y0237418D01*
X0105662Y0238065D01*
X0104869Y0238523D01*
X0104028Y0238749D01*
D02*
G37*
G36*
X0213528Y0235808D02*
Y0232842D01*
X0216493D01*
X0216267Y0233684D01*
X0215809Y0234477D01*
X0215162Y0235124D01*
X021437Y0235582D01*
X0213528Y0235808D01*
D02*
G37*
G36*
X0212528D02*
X0211686Y0235582D01*
X0210893Y0235124D01*
X0210246Y0234477D01*
X0209788Y0233684D01*
X0209563Y0232842D01*
X0212528D01*
Y0235808D01*
D02*
G37*
G36*
X0135528Y0235784D02*
X0132563D01*
X0132788Y0234942D01*
X0133246Y0234149D01*
X0133893Y0233502D01*
X0134686Y0233044D01*
X0135528Y0232818D01*
Y0235784D01*
D02*
G37*
G36*
X0106993Y0234784D02*
X0104028D01*
Y0231818D01*
X0104869Y0232044D01*
X0105662Y0232502D01*
X0106309Y0233149D01*
X0106767Y0233942D01*
X0106993Y0234784D01*
D02*
G37*
G36*
X0216493Y0231842D02*
X0213528D01*
Y0228877D01*
X021437Y0229103D01*
X0215162Y0229561D01*
X0215809Y0230208D01*
X0216267Y0231001D01*
X0216493Y0231842D01*
D02*
G37*
G36*
X0212528D02*
X0209563D01*
X0209788Y0231001D01*
X0210246Y0230208D01*
X0210893Y0229561D01*
X0211686Y0229103D01*
X0212528Y0228877D01*
Y0231842D01*
D02*
G37*
G36*
X0170265Y0230539D02*
X016935D01*
X0168465Y0230303D01*
X0167673Y0229845D01*
X0167025Y0229198D01*
X0166823Y0228847D01*
X0154528D01*
X0154528Y0228847D01*
X0153845Y0228712D01*
X0153266Y0228325D01*
X0153266Y0228325D01*
X0142556Y0217615D01*
X0142014Y021776D01*
X0141041D01*
X0140101Y0217508D01*
X0139258Y0217021D01*
X0138569Y0216333D01*
X0138083Y021549D01*
X0137831Y021455D01*
Y0213576D01*
X0138083Y0212636D01*
X0138569Y0211793D01*
X0139258Y0211105D01*
X0140101Y0210618D01*
X0141041Y0210366D01*
X0142014D01*
X0142955Y0210618D01*
X0143798Y0211105D01*
X0144486Y0211793D01*
X0144973Y0212636D01*
X0145224Y0213576D01*
Y021455D01*
X0145079Y0215091D01*
X0155267Y0225279D01*
X0166823D01*
X0167025Y0224928D01*
X0167673Y0224281D01*
X0168465Y0223823D01*
X016935Y0223587D01*
X0170265D01*
X0171149Y0223823D01*
X0171942Y0224281D01*
X0172589Y0224928D01*
X0173047Y0225721D01*
X0173284Y0226605D01*
Y0227521D01*
X0173047Y0228405D01*
X0172589Y0229198D01*
X0171942Y0229845D01*
X0171149Y0230303D01*
X0170265Y0230539D01*
D02*
G37*
G36*
X0142748Y0230528D02*
Y0227563D01*
X0145713D01*
X0145488Y0228405D01*
X014503Y0229198D01*
X0144383Y0229845D01*
X014359Y0230303D01*
X0142748Y0230528D01*
D02*
G37*
G36*
X0302509Y0229426D02*
Y0226563D01*
X0305373D01*
X0305157Y0227367D01*
X0304712Y0228137D01*
X0304083Y0228766D01*
X0303313Y0229211D01*
X0302509Y0229426D01*
D02*
G37*
G36*
X0301509D02*
X0300706Y0229211D01*
X0299935Y0228766D01*
X0299306Y0228137D01*
X0298862Y0227367D01*
X0298646Y0226563D01*
X0301509D01*
Y0229426D01*
D02*
G37*
G36*
X008805Y0234032D02*
X0087005D01*
X0085996Y0233761D01*
X0085091Y0233239D01*
X0084352Y02325D01*
X008383Y0231595D01*
X0083559Y0230585D01*
Y022954D01*
X0083678Y0229097D01*
X0080086Y0225505D01*
X0079644Y0224843D01*
X0079488Y0224063D01*
Y0217154D01*
X0079258Y0217021D01*
X007857Y0216333D01*
X0078083Y021549D01*
X0077831Y021455D01*
Y0213576D01*
X0078083Y0212636D01*
X007857Y0211793D01*
X0079258Y0211105D01*
X0080101Y0210618D01*
X0081041Y0210366D01*
X0082014D01*
X0082955Y0210618D01*
X0083798Y0211105D01*
X0084486Y0211793D01*
X0084973Y0212636D01*
X0085224Y0213576D01*
Y021455D01*
X0084973Y021549D01*
X0084486Y0216333D01*
X0083798Y0217021D01*
X0083567Y0217154D01*
Y0223218D01*
X0086562Y0226213D01*
X0087005Y0226095D01*
X008805D01*
X008906Y0226365D01*
X0089964Y0226887D01*
X0090703Y0227626D01*
X0091226Y0228531D01*
X0091496Y022954D01*
Y0230585D01*
X0091226Y0231595D01*
X0090703Y02325D01*
X0089964Y0233239D01*
X008906Y0233761D01*
X008805Y0234032D01*
D02*
G37*
G36*
X006805D02*
X0067005D01*
X0065996Y0233761D01*
X0065091Y0233239D01*
X0064352Y02325D01*
X006383Y0231595D01*
X0063559Y0230585D01*
Y022954D01*
X006383Y0228531D01*
X0064352Y0227626D01*
X0065091Y0226887D01*
X0065996Y0226365D01*
X0067005Y0226095D01*
X006805D01*
X0069059Y0226365D01*
X0069964Y0226887D01*
X0070703Y0227626D01*
X0071226Y0228531D01*
X0071496Y022954D01*
Y0230585D01*
X0071226Y0231595D01*
X0070703Y02325D01*
X0069964Y0233239D01*
X0069059Y0233761D01*
X006805Y0234032D01*
D02*
G37*
G36*
X022555Y0233622D02*
X0224505D01*
X0223496Y0233352D01*
X0222591Y0232829D01*
X0221852Y023209D01*
X022133Y0231185D01*
X0221059Y0230176D01*
Y0229131D01*
X022133Y0228122D01*
X0221852Y0227217D01*
X0222591Y0226478D01*
X0223496Y0225956D01*
X0224505Y0225685D01*
X022555D01*
X0226559Y0225956D01*
X0227464Y0226478D01*
X0228203Y0227217D01*
X0228726Y0228122D01*
X0228996Y0229131D01*
Y0230176D01*
X0228726Y0231185D01*
X0228203Y023209D01*
X0227464Y0232829D01*
X0226559Y0233352D01*
X022555Y0233622D01*
D02*
G37*
G36*
X0145713Y0226563D02*
X0142748D01*
Y0223598D01*
X014359Y0223823D01*
X0144383Y0224281D01*
X014503Y0224928D01*
X0145488Y0225721D01*
X0145713Y0226563D01*
D02*
G37*
G36*
X0141748D02*
X0138783D01*
X0139009Y0225721D01*
X0139466Y0224928D01*
X0140114Y0224281D01*
X0140906Y0223823D01*
X0141748Y0223598D01*
Y0226563D01*
D02*
G37*
G36*
X0305373Y0225563D02*
X0302509D01*
Y02227D01*
X0303313Y0222915D01*
X0304083Y022336D01*
X0304712Y0223989D01*
X0305157Y0224759D01*
X0305373Y0225563D01*
D02*
G37*
G36*
X0301509D02*
X0298646D01*
X0298862Y0224759D01*
X0299306Y0223989D01*
X0299935Y022336D01*
X0300706Y0222915D01*
X0301509Y02227D01*
Y0225563D01*
D02*
G37*
G36*
X0281765Y0229539D02*
X028085D01*
X0279965Y0229303D01*
X0279173Y0228845D01*
X0278525Y0228198D01*
X0278068Y0227405D01*
X0277831Y0226521D01*
Y0225605D01*
X0278068Y0224721D01*
X0278525Y0223928D01*
X0279173Y0223281D01*
X0279965Y0222824D01*
X028085Y0222587D01*
X0281765D01*
X0282649Y0222824D01*
X0283442Y0223281D01*
X0284089Y0223928D01*
X0284144Y0224024D01*
X0288631D01*
Y0222685D01*
X0295387D01*
Y0229441D01*
X0288631D01*
Y0228102D01*
X0284144D01*
X0284089Y0228198D01*
X0283442Y0228845D01*
X0282649Y0229303D01*
X0281765Y0229539D01*
D02*
G37*
G36*
X0254206D02*
X0253291D01*
X0252406Y0229303D01*
X0251614Y0228845D01*
X0250966Y0228198D01*
X0250509Y0227405D01*
X0250272Y0226521D01*
Y0225605D01*
X0250509Y0224721D01*
X0250966Y0223928D01*
X0251614Y0223281D01*
X0252406Y0222824D01*
X0253291Y0222587D01*
X0254206D01*
X025509Y0222824D01*
X0255883Y0223281D01*
X025653Y0223928D01*
X0256988Y0224721D01*
X0257224Y0225605D01*
Y0226521D01*
X0256988Y0227405D01*
X025653Y0228198D01*
X0255883Y0228845D01*
X025509Y0229303D01*
X0254206Y0229539D01*
D02*
G37*
G36*
X0113528Y0342693D02*
X0113376Y0342663D01*
X011311D01*
X0112864Y0342561D01*
X0112713Y0342531D01*
X0112584Y0342445D01*
X0112338Y0342343D01*
X011215Y0342155D01*
X0112022Y0342069D01*
X0111936Y0341941D01*
X0111747Y0341753D01*
X0111645Y0341506D01*
X011156Y0341378D01*
X011153Y0341227D01*
X0111428Y0340981D01*
Y0340714D01*
X0111398Y0340563D01*
Y0226945D01*
X010217Y0217718D01*
X0102014Y021776D01*
X0101041D01*
X0100101Y0217508D01*
X0099258Y0217021D01*
X009857Y0216333D01*
X0098083Y021549D01*
X0097831Y021455D01*
Y0213576D01*
X0098083Y0212636D01*
X009857Y0211793D01*
X0099258Y0211105D01*
X0100101Y0210618D01*
X0101041Y0210366D01*
X0102014D01*
X0102955Y0210618D01*
X0103798Y0211105D01*
X0104486Y0211793D01*
X0104973Y0212636D01*
X0105225Y0213576D01*
Y021455D01*
X0105183Y0214706D01*
X0115034Y0224557D01*
X0115496Y0225248D01*
X0115658Y0226063D01*
Y0340563D01*
X0115628Y0340714D01*
Y0340981D01*
X0115526Y0341227D01*
X0115496Y0341378D01*
X011541Y0341506D01*
X0115308Y0341753D01*
X011512Y0341941D01*
X0115034Y0342069D01*
X0114906Y0342155D01*
X0114717Y0342343D01*
X0114471Y0342445D01*
X0114343Y0342531D01*
X0114192Y0342561D01*
X0113945Y0342663D01*
X0113679D01*
X0113528Y0342693D01*
D02*
G37*
G36*
X0022028Y0217756D02*
Y0214563D01*
X0025221D01*
X0024973Y021549D01*
X0024486Y0216333D01*
X0023798Y0217021D01*
X0022955Y0217508D01*
X0022028Y0217756D01*
D02*
G37*
G36*
X0021028D02*
X0020101Y0217508D01*
X0019258Y0217021D01*
X001857Y0216333D01*
X0018083Y021549D01*
X0017834Y0214563D01*
X0021028D01*
Y0217756D01*
D02*
G37*
G36*
X0025221Y0213563D02*
X0022028D01*
Y021037D01*
X0022955Y0210618D01*
X0023798Y0211105D01*
X0024486Y0211793D01*
X0024973Y0212636D01*
X0025221Y0213563D01*
D02*
G37*
G36*
X0021028D02*
X0017834D01*
X0018083Y0212636D01*
X001857Y0211793D01*
X0019258Y0211105D01*
X0020101Y0210618D01*
X0021028Y021037D01*
Y0213563D01*
D02*
G37*
G36*
X0165225Y021776D02*
X0157831D01*
Y0210366D01*
X0165225D01*
Y021776D01*
D02*
G37*
G36*
X0152014D02*
X0151041D01*
X0150101Y0217508D01*
X0149258Y0217021D01*
X014857Y0216333D01*
X0148083Y021549D01*
X0147831Y021455D01*
Y0213576D01*
X0148083Y0212636D01*
X014857Y0211793D01*
X0149258Y0211105D01*
X0150101Y0210618D01*
X0151041Y0210366D01*
X0152014D01*
X0152955Y0210618D01*
X0153798Y0211105D01*
X0154486Y0211793D01*
X0154973Y0212636D01*
X0155225Y0213576D01*
Y021455D01*
X0154973Y021549D01*
X0154486Y0216333D01*
X0153798Y0217021D01*
X0152955Y0217508D01*
X0152014Y021776D01*
D02*
G37*
G36*
X0053485Y0270819D02*
X005257D01*
X0051686Y0270582D01*
X0050893Y0270124D01*
X0050246Y0269477D01*
X0049788Y0268684D01*
X0049551Y02678D01*
Y0266885D01*
X0049788Y0266001D01*
X0050246Y0265208D01*
X0050893Y0264561D01*
X0051471Y0264227D01*
Y026408D01*
X0051626Y02633D01*
X0052068Y0262638D01*
X0072988Y0241718D01*
Y0223408D01*
X0070086Y0220505D01*
X0069644Y0219843D01*
X0069489Y0219063D01*
Y0217154D01*
X0069258Y0217021D01*
X0068569Y0216333D01*
X0068083Y021549D01*
X0067831Y021455D01*
Y0213576D01*
X0068083Y0212636D01*
X0068569Y0211793D01*
X0069258Y0211105D01*
X0070101Y0210618D01*
X0071041Y0210366D01*
X0072014D01*
X0072955Y0210618D01*
X0073798Y0211105D01*
X0074486Y0211793D01*
X0074973Y0212636D01*
X0075225Y0213576D01*
Y021455D01*
X0074973Y021549D01*
X0074486Y0216333D01*
X0073798Y0217021D01*
X0073567Y0217154D01*
Y0218218D01*
X007647Y0221121D01*
X0076912Y0221783D01*
X0077067Y0222563D01*
Y0242563D01*
X0076912Y0243343D01*
X007647Y0244005D01*
X005555Y0264925D01*
Y0264948D01*
X0055809Y0265208D01*
X0056267Y0266001D01*
X0056504Y0266885D01*
Y02678D01*
X0056267Y0268684D01*
X0055809Y0269477D01*
X0055162Y0270124D01*
X0054369Y0270582D01*
X0053485Y0270819D01*
D02*
G37*
G36*
X0062014Y021776D02*
X0061041D01*
X0060101Y0217508D01*
X0059258Y0217021D01*
X005857Y0216333D01*
X0058083Y021549D01*
X0057831Y021455D01*
Y0213576D01*
X0058083Y0212636D01*
X005857Y0211793D01*
X0059258Y0211105D01*
X0060101Y0210618D01*
X0061041Y0210366D01*
X0062014D01*
X0062955Y0210618D01*
X0063798Y0211105D01*
X0064486Y0211793D01*
X0064973Y0212636D01*
X0065224Y0213576D01*
Y021455D01*
X0064973Y021549D01*
X0064486Y0216333D01*
X0063798Y0217021D01*
X0062955Y0217508D01*
X0062014Y021776D01*
D02*
G37*
G36*
X0052014D02*
X0051041D01*
X0050101Y0217508D01*
X0049258Y0217021D01*
X004857Y0216333D01*
X0048083Y021549D01*
X0047831Y021455D01*
Y0213576D01*
X0048083Y0212636D01*
X004857Y0211793D01*
X0049258Y0211105D01*
X0050101Y0210618D01*
X0051041Y0210366D01*
X0052014D01*
X0052955Y0210618D01*
X0053798Y0211105D01*
X0054486Y0211793D01*
X0054973Y0212636D01*
X0055225Y0213576D01*
Y021455D01*
X0054973Y021549D01*
X0054486Y0216333D01*
X0053798Y0217021D01*
X0052955Y0217508D01*
X0052014Y021776D01*
D02*
G37*
G36*
X0149014Y029776D02*
X0148041D01*
X0147101Y0297508D01*
X0146258Y0297021D01*
X014557Y0296333D01*
X0145083Y029549D01*
X0144831Y029455D01*
Y0293576D01*
X0145083Y0292636D01*
X014557Y0291793D01*
X0146258Y0291105D01*
X0146398Y0291024D01*
Y0286563D01*
X014656Y0285748D01*
X0147021Y0285057D01*
X0166398Y0265681D01*
Y0238563D01*
X016656Y0237748D01*
X0167022Y0237057D01*
X0175898Y0228181D01*
Y0212951D01*
X0174021Y0211075D01*
X0173924Y0210929D01*
X0173747Y0210753D01*
X0173652Y0210522D01*
X017356Y0210384D01*
X0173527Y0210222D01*
X0173428Y0209981D01*
Y020972D01*
X0173398Y0209569D01*
Y0209563D01*
X0173428Y0209412D01*
Y0209145D01*
X017353Y0208899D01*
X017356Y0208748D01*
X0173645Y020862D01*
X0173747Y0208373D01*
X0173936Y0208185D01*
X0174021Y0208057D01*
X017415Y0207971D01*
X0174338Y0207783D01*
X0174584Y0207681D01*
X0174713Y0207595D01*
X0174864Y0207565D01*
X017511Y0207463D01*
X0175376D01*
X0175528Y0207433D01*
X0175679Y0207463D01*
X0175945D01*
X0176192Y0207565D01*
X0176343Y0207595D01*
X0176471Y0207681D01*
X0176717Y0207783D01*
X0176906Y0207971D01*
X0177034Y0208057D01*
X0177046Y0208074D01*
X0179534Y0210563D01*
X0179996Y0211254D01*
X0180158Y0212069D01*
Y0229063D01*
X0179996Y0229878D01*
X0179534Y0230569D01*
X0170658Y0239445D01*
Y0266563D01*
X0170496Y0267378D01*
X0170034Y0268069D01*
X0150658Y0287445D01*
Y0291024D01*
X0150798Y0291105D01*
X0151486Y0291793D01*
X0151973Y0292636D01*
X0152225Y0293576D01*
Y029455D01*
X0151973Y029549D01*
X0151486Y0296333D01*
X0150798Y0297021D01*
X0149955Y0297508D01*
X0149014Y029776D01*
D02*
G37*
G36*
X0302528Y0209926D02*
Y0207063D01*
X0305391D01*
X0305175Y0207867D01*
X0304731Y0208637D01*
X0304102Y0209266D01*
X0303331Y0209711D01*
X0302528Y0209926D01*
D02*
G37*
G36*
X0301528D02*
X0300724Y0209711D01*
X0299954Y0209266D01*
X0299325Y0208637D01*
X029888Y0207867D01*
X0298665Y0207063D01*
X0301528D01*
Y0209926D01*
D02*
G37*
G36*
X0022054Y0208063D02*
X0022028D01*
Y0204563D01*
X0025528D01*
Y020459D01*
X0025255Y0205607D01*
X0024728Y0206519D01*
X0023984Y0207264D01*
X0023072Y020779D01*
X0022054Y0208063D01*
D02*
G37*
G36*
X0021028D02*
X0021001D01*
X0019984Y020779D01*
X0019072Y0207264D01*
X0018327Y0206519D01*
X00178Y0205607D01*
X0017528Y020459D01*
Y0204563D01*
X0021028D01*
Y0208063D01*
D02*
G37*
G36*
X0305391Y0206063D02*
X0302528D01*
Y02032D01*
X0303331Y0203415D01*
X0304102Y020386D01*
X0304731Y0204489D01*
X0305175Y0205259D01*
X0305391Y0206063D01*
D02*
G37*
G36*
X0301528D02*
X0298665D01*
X029888Y0205259D01*
X0299325Y0204489D01*
X0299954Y020386D01*
X0300724Y0203415D01*
X0301528Y02032D01*
Y0206063D01*
D02*
G37*
G36*
X0281765Y0210039D02*
X028085D01*
X0279965Y0209803D01*
X0279173Y0209345D01*
X0278525Y0208698D01*
X0278068Y0207905D01*
X0277831Y0207021D01*
Y0206105D01*
X0278068Y0205221D01*
X0278525Y0204428D01*
X0279173Y0203781D01*
X0279965Y0203324D01*
X028085Y0203087D01*
X0281765D01*
X0282649Y0203324D01*
X0283442Y0203781D01*
X0284089Y0204428D01*
X0284144Y0204524D01*
X028865D01*
Y0203185D01*
X0295406D01*
Y0209941D01*
X028865D01*
Y0208602D01*
X0284144D01*
X0284089Y0208698D01*
X0283442Y0209345D01*
X0282649Y0209803D01*
X0281765Y0210039D01*
D02*
G37*
G36*
X0249528Y0218102D02*
X0228028D01*
X0227247Y0217947D01*
X0226586Y0217505D01*
X0226586Y0217505D01*
X0224071Y021499D01*
X0223629Y0214329D01*
X0223474Y0213548D01*
Y0213339D01*
X0222591Y0212829D01*
X0221852Y021209D01*
X022133Y0211185D01*
X0221059Y0210176D01*
Y0209131D01*
X022133Y0208122D01*
X0221852Y0207217D01*
X0222591Y0206478D01*
X0223496Y0205956D01*
X0224505Y0205685D01*
X022555D01*
X0226559Y0205956D01*
X0227464Y0206478D01*
X0228203Y0207217D01*
X0228726Y0208122D01*
X0228996Y0209131D01*
Y0210176D01*
X0228726Y0211185D01*
X0228203Y021209D01*
X0227571Y0212722D01*
X0228872Y0214024D01*
X0234073D01*
X0234139Y0213524D01*
X0233496Y0213352D01*
X0232591Y0212829D01*
X0231852Y021209D01*
X023133Y0211185D01*
X0231059Y0210176D01*
Y0209131D01*
X023133Y0208122D01*
X0231852Y0207217D01*
X0232591Y0206478D01*
X0233496Y0205956D01*
X0234505Y0205685D01*
X023555D01*
X023656Y0205956D01*
X0237464Y0206478D01*
X0238203Y0207217D01*
X0238726Y0208122D01*
X0238996Y0209131D01*
Y0210176D01*
X0238726Y0211185D01*
X0238203Y021209D01*
X0237464Y0212829D01*
X023656Y0213352D01*
X0235917Y0213524D01*
X0235983Y0214024D01*
X0248683D01*
X0251209Y0211498D01*
Y020894D01*
X0250966Y0208698D01*
X0250509Y0207905D01*
X0250272Y0207021D01*
Y0206105D01*
X0250509Y0205221D01*
X0250966Y0204428D01*
X0251614Y0203781D01*
X0252406Y0203324D01*
X0253291Y0203087D01*
X0254206D01*
X025509Y0203324D01*
X0255883Y0203781D01*
X025653Y0204428D01*
X0256988Y0205221D01*
X0257224Y0206105D01*
Y0207021D01*
X0256988Y0207905D01*
X025653Y0208698D01*
X0255883Y0209345D01*
X0255287Y0209688D01*
Y0212343D01*
X0255132Y0213123D01*
X025469Y0213784D01*
X025097Y0217505D01*
X0250308Y0217947D01*
X0249528Y0218102D01*
D02*
G37*
G36*
X0213485Y020826D02*
X021257D01*
X0211686Y0208023D01*
X0210893Y0207565D01*
X0210246Y0206918D01*
X0209788Y0206125D01*
X0209551Y0205241D01*
Y0204326D01*
X0209788Y0203442D01*
X0210246Y0202649D01*
X0210893Y0202002D01*
X0211686Y0201544D01*
X021257Y0201307D01*
X0213485D01*
X021437Y0201544D01*
X0215162Y0202002D01*
X0215809Y0202649D01*
X0216267Y0203442D01*
X0216504Y0204326D01*
Y0205241D01*
X0216267Y0206125D01*
X0215809Y0206918D01*
X0215162Y0207565D01*
X021437Y0208023D01*
X0213485Y020826D01*
D02*
G37*
G36*
X0102054Y0208063D02*
X0101001D01*
X0099984Y020779D01*
X0099072Y0207264D01*
X0098327Y0206519D01*
X00978Y0205607D01*
X0097528Y020459D01*
Y0203536D01*
X00978Y0202519D01*
X0098327Y0201607D01*
X0099072Y0200862D01*
X0099984Y0200336D01*
X0101001Y0200063D01*
X0102054D01*
X0103072Y0200336D01*
X0103984Y0200862D01*
X0104728Y0201607D01*
X0105255Y0202519D01*
X0105528Y0203536D01*
Y020459D01*
X0105255Y0205607D01*
X0104728Y0206519D01*
X0103984Y0207264D01*
X0103072Y020779D01*
X0102054Y0208063D01*
D02*
G37*
G36*
X0092054D02*
X0091001D01*
X0089984Y020779D01*
X0089072Y0207264D01*
X0088327Y0206519D01*
X00878Y0205607D01*
X0087528Y020459D01*
Y0203536D01*
X00878Y0202519D01*
X0088327Y0201607D01*
X0089072Y0200862D01*
X0089984Y0200336D01*
X0091001Y0200063D01*
X0092054D01*
X0093072Y0200336D01*
X0093984Y0200862D01*
X0094728Y0201607D01*
X0095255Y0202519D01*
X0095528Y0203536D01*
Y020459D01*
X0095255Y0205607D01*
X0094728Y0206519D01*
X0093984Y0207264D01*
X0093072Y020779D01*
X0092054Y0208063D01*
D02*
G37*
G36*
X0082054D02*
X0081001D01*
X0079984Y020779D01*
X0079072Y0207264D01*
X0078327Y0206519D01*
X00778Y0205607D01*
X0077528Y020459D01*
Y0203536D01*
X00778Y0202519D01*
X0078327Y0201607D01*
X0079072Y0200862D01*
X0079984Y0200336D01*
X0081001Y0200063D01*
X0082054D01*
X0083072Y0200336D01*
X0083984Y0200862D01*
X0084728Y0201607D01*
X0085255Y0202519D01*
X0085528Y0203536D01*
Y020459D01*
X0085255Y0205607D01*
X0084728Y0206519D01*
X0083984Y0207264D01*
X0083072Y020779D01*
X0082054Y0208063D01*
D02*
G37*
G36*
X0072054D02*
X0071001D01*
X0069984Y020779D01*
X0069072Y0207264D01*
X0068327Y0206519D01*
X00678Y0205607D01*
X0067528Y020459D01*
Y0203536D01*
X00678Y0202519D01*
X0068327Y0201607D01*
X0069072Y0200862D01*
X0069984Y0200336D01*
X0071001Y0200063D01*
X0072054D01*
X0073072Y0200336D01*
X0073984Y0200862D01*
X0074729Y0201607D01*
X0075255Y0202519D01*
X0075528Y0203536D01*
Y020459D01*
X0075255Y0205607D01*
X0074729Y0206519D01*
X0073984Y0207264D01*
X0073072Y020779D01*
X0072054Y0208063D01*
D02*
G37*
G36*
X0062054D02*
X0061001D01*
X0059984Y020779D01*
X0059072Y0207264D01*
X0058327Y0206519D01*
X00578Y0205607D01*
X0057528Y020459D01*
Y0203536D01*
X00578Y0202519D01*
X0058327Y0201607D01*
X0059072Y0200862D01*
X0059984Y0200336D01*
X0061001Y0200063D01*
X0062054D01*
X0063072Y0200336D01*
X0063984Y0200862D01*
X0064728Y0201607D01*
X0065255Y0202519D01*
X0065528Y0203536D01*
Y020459D01*
X0065255Y0205607D01*
X0064728Y0206519D01*
X0063984Y0207264D01*
X0063072Y020779D01*
X0062054Y0208063D01*
D02*
G37*
G36*
X0052054D02*
X0051001D01*
X0049984Y020779D01*
X0049072Y0207264D01*
X0048327Y0206519D01*
X00478Y0205607D01*
X0047528Y020459D01*
Y0203536D01*
X00478Y0202519D01*
X0048327Y0201607D01*
X0049072Y0200862D01*
X0049984Y0200336D01*
X0051001Y0200063D01*
X0052054D01*
X0053072Y0200336D01*
X0053984Y0200862D01*
X0054729Y0201607D01*
X0055255Y0202519D01*
X0055528Y0203536D01*
Y020459D01*
X0055255Y0205607D01*
X0054729Y0206519D01*
X0053984Y0207264D01*
X0053072Y020779D01*
X0052054Y0208063D01*
D02*
G37*
G36*
X0042014Y021776D02*
X0041041D01*
X0040101Y0217508D01*
X0039258Y0217021D01*
X003857Y0216333D01*
X0038083Y021549D01*
X0037831Y021455D01*
Y0213576D01*
X0038083Y0212636D01*
X003857Y0211793D01*
X0039258Y0211105D01*
X0039489Y0210971D01*
Y0207505D01*
X0039072Y0207264D01*
X0038327Y0206519D01*
X00378Y0205607D01*
X0037528Y020459D01*
Y0203536D01*
X00378Y0202519D01*
X0038327Y0201607D01*
X0039072Y0200862D01*
X0039984Y0200336D01*
X0041001Y0200063D01*
X0042054D01*
X0043072Y0200336D01*
X0043984Y0200862D01*
X0044728Y0201607D01*
X0045255Y0202519D01*
X0045528Y0203536D01*
Y020459D01*
X0045255Y0205607D01*
X0044728Y0206519D01*
X0043984Y0207264D01*
X0043567Y0207505D01*
Y0210971D01*
X0043798Y0211105D01*
X0044486Y0211793D01*
X0044973Y0212636D01*
X0045224Y0213576D01*
Y021455D01*
X0044973Y021549D01*
X0044486Y0216333D01*
X0043798Y0217021D01*
X0042955Y0217508D01*
X0042014Y021776D01*
D02*
G37*
G36*
X0025528Y0203563D02*
X0022028D01*
Y0200063D01*
X0022054D01*
X0023072Y0200336D01*
X0023984Y0200862D01*
X0024728Y0201607D01*
X0025255Y0202519D01*
X0025528Y0203536D01*
Y0203563D01*
D02*
G37*
G36*
X0021028D02*
X0017528D01*
Y0203536D01*
X00178Y0202519D01*
X0018327Y0201607D01*
X0019072Y0200862D01*
X0019984Y0200336D01*
X0021001Y0200063D01*
X0021028D01*
Y0203563D01*
D02*
G37*
G36*
X0293959Y0190882D02*
X0293933D01*
Y0187382D01*
X0297433D01*
Y0187408D01*
X029716Y0188426D01*
X0296634Y0189338D01*
X0295889Y0190083D01*
X0294977Y0190609D01*
X0293959Y0190882D01*
D02*
G37*
G36*
X0292933D02*
X0292906D01*
X0291889Y0190609D01*
X0290977Y0190083D01*
X0290232Y0189338D01*
X0289705Y0188426D01*
X0289433Y0187408D01*
Y0187382D01*
X0292933D01*
Y0190882D01*
D02*
G37*
G36*
X0034111Y0187858D02*
X0033196D01*
X0032312Y0187621D01*
X0031519Y0187164D01*
X0030872Y0186516D01*
X0030817Y0186421D01*
X0026311D01*
Y018776D01*
X0019555D01*
Y0181004D01*
X0026311D01*
Y0182343D01*
X0030817D01*
X0030872Y0182247D01*
X0031519Y01816D01*
X0032312Y0181142D01*
X0033196Y0180905D01*
X0034111D01*
X0034995Y0181142D01*
X0035788Y01816D01*
X0036435Y0182247D01*
X0036893Y018304D01*
X003713Y0183924D01*
Y018484D01*
X0036893Y0185724D01*
X0036435Y0186516D01*
X0035788Y0187164D01*
X0034995Y0187621D01*
X0034111Y0187858D01*
D02*
G37*
G36*
X0013433Y0187745D02*
Y0184882D01*
X0016296D01*
X0016081Y0185686D01*
X0015636Y0186456D01*
X0015007Y0187085D01*
X0014237Y018753D01*
X0013433Y0187745D01*
D02*
G37*
G36*
X0012433D02*
X0011629Y018753D01*
X0010859Y0187085D01*
X001023Y0186456D01*
X0009785Y0185686D01*
X000957Y0184882D01*
X0012433D01*
Y0187745D01*
D02*
G37*
G36*
X0297433Y0186382D02*
X0293933D01*
Y0182882D01*
X0293959D01*
X0294977Y0183154D01*
X0295889Y0183681D01*
X0296634Y0184426D01*
X029716Y0185338D01*
X0297433Y0186355D01*
Y0186382D01*
D02*
G37*
G36*
X0292933D02*
X0289433D01*
Y0186355D01*
X0289705Y0185338D01*
X0290232Y0184426D01*
X0290977Y0183681D01*
X0291889Y0183154D01*
X0292906Y0182882D01*
X0292933D01*
Y0186382D01*
D02*
G37*
G36*
X026396Y0190882D02*
X0262906D01*
X0261889Y0190609D01*
X0260977Y0190083D01*
X0260232Y0189338D01*
X0259705Y0188426D01*
X0259433Y0187408D01*
Y0186355D01*
X0259705Y0185338D01*
X0260232Y0184426D01*
X0260977Y0183681D01*
X0261889Y0183154D01*
X0262906Y0182882D01*
X026396D01*
X0264977Y0183154D01*
X0265889Y0183681D01*
X0266634Y0184426D01*
X026716Y0185338D01*
X0267433Y0186355D01*
Y0187408D01*
X026716Y0188426D01*
X0266634Y0189338D01*
X0265889Y0190083D01*
X0264977Y0190609D01*
X026396Y0190882D01*
D02*
G37*
G36*
X0253959D02*
X0252906D01*
X0251889Y0190609D01*
X0250977Y0190083D01*
X0250232Y0189338D01*
X0249706Y0188426D01*
X0249433Y0187408D01*
Y0186355D01*
X0249706Y0185338D01*
X0250232Y0184426D01*
X0250977Y0183681D01*
X0251889Y0183154D01*
X0252906Y0182882D01*
X0253959D01*
X0254977Y0183154D01*
X0255889Y0183681D01*
X0256634Y0184426D01*
X025716Y0185338D01*
X0257433Y0186355D01*
Y0187408D01*
X025716Y0188426D01*
X0256634Y0189338D01*
X0255889Y0190083D01*
X0254977Y0190609D01*
X0253959Y0190882D01*
D02*
G37*
G36*
X0243959D02*
X0242906D01*
X0241889Y0190609D01*
X0240977Y0190083D01*
X0240232Y0189338D01*
X0239705Y0188426D01*
X0239433Y0187408D01*
Y0186355D01*
X0239705Y0185338D01*
X0240232Y0184426D01*
X0240977Y0183681D01*
X0241889Y0183154D01*
X0242906Y0182882D01*
X0243959D01*
X0244977Y0183154D01*
X0245889Y0183681D01*
X0246634Y0184426D01*
X024716Y0185338D01*
X0247433Y0186355D01*
Y0187408D01*
X024716Y0188426D01*
X0246634Y0189338D01*
X0245889Y0190083D01*
X0244977Y0190609D01*
X0243959Y0190882D01*
D02*
G37*
G36*
X023396D02*
X0232906D01*
X0231889Y0190609D01*
X0230977Y0190083D01*
X0230232Y0189338D01*
X0229706Y0188426D01*
X0229433Y0187408D01*
Y0186355D01*
X0229706Y0185338D01*
X0230232Y0184426D01*
X0230977Y0183681D01*
X0231889Y0183154D01*
X0232906Y0182882D01*
X023396D01*
X0234977Y0183154D01*
X0235889Y0183681D01*
X0236634Y0184426D01*
X023716Y0185338D01*
X0237433Y0186355D01*
Y0187408D01*
X023716Y0188426D01*
X0236634Y0189338D01*
X0235889Y0190083D01*
X0234977Y0190609D01*
X023396Y0190882D01*
D02*
G37*
G36*
X0223959D02*
X0222906D01*
X0221889Y0190609D01*
X0220977Y0190083D01*
X0220232Y0189338D01*
X0219706Y0188426D01*
X0219433Y0187408D01*
Y0186355D01*
X0219706Y0185338D01*
X0220232Y0184426D01*
X0220977Y0183681D01*
X0221889Y0183154D01*
X0222906Y0182882D01*
X0223959D01*
X0224977Y0183154D01*
X0225889Y0183681D01*
X0226634Y0184426D01*
X022716Y0185338D01*
X0227433Y0186355D01*
Y0187408D01*
X022716Y0188426D01*
X0226634Y0189338D01*
X0225889Y0190083D01*
X0224977Y0190609D01*
X0223959Y0190882D01*
D02*
G37*
G36*
X021396D02*
X0212906D01*
X0211889Y0190609D01*
X0210977Y0190083D01*
X0210232Y0189338D01*
X0209705Y0188426D01*
X0209433Y0187408D01*
Y0186355D01*
X0209705Y0185338D01*
X0210232Y0184426D01*
X0210977Y0183681D01*
X0211889Y0183154D01*
X0212906Y0182882D01*
X021396D01*
X0214977Y0183154D01*
X0215889Y0183681D01*
X0216634Y0184426D01*
X021716Y0185338D01*
X0217433Y0186355D01*
Y0187408D01*
X021716Y0188426D01*
X0216634Y0189338D01*
X0215889Y0190083D01*
X0214977Y0190609D01*
X021396Y0190882D01*
D02*
G37*
G36*
X0102391Y0189638D02*
X0101475D01*
X0100591Y0189401D01*
X0099798Y0188943D01*
X0099151Y0188296D01*
X0098694Y0187503D01*
X0098457Y0186619D01*
Y0185704D01*
X0098694Y018482D01*
X0099151Y0184027D01*
X0099798Y018338D01*
X0100591Y0182922D01*
X0101475Y0182685D01*
X0102391D01*
X0103275Y0182922D01*
X0104068Y018338D01*
X0104715Y0184027D01*
X0105172Y018482D01*
X0105409Y0185704D01*
Y0186619D01*
X0105172Y0187503D01*
X0104715Y0188296D01*
X0104068Y0188943D01*
X0103275Y0189401D01*
X0102391Y0189638D01*
D02*
G37*
G36*
X0016296Y0183882D02*
X0013433D01*
Y0181019D01*
X0014237Y0181234D01*
X0015007Y0181679D01*
X0015636Y0182308D01*
X0016081Y0183078D01*
X0016296Y0183882D01*
D02*
G37*
G36*
X0012433D02*
X000957D01*
X0009785Y0183078D01*
X001023Y0182308D01*
X0010859Y0181679D01*
X0011629Y0181234D01*
X0012433Y0181019D01*
Y0183882D01*
D02*
G37*
G36*
X0293933Y0180575D02*
Y0177382D01*
X0297126D01*
X0296878Y0178309D01*
X0296391Y0179152D01*
X0295703Y017984D01*
X029486Y0180327D01*
X0293933Y0180575D01*
D02*
G37*
G36*
X0292933D02*
X0292006Y0180327D01*
X0291163Y017984D01*
X0290475Y0179152D01*
X0289988Y0178309D01*
X028974Y0177382D01*
X0292933D01*
Y0180575D01*
D02*
G37*
G36*
X0297126Y0176382D02*
X0293933D01*
Y0173189D01*
X029486Y0173437D01*
X0295703Y0173924D01*
X0296391Y0174612D01*
X0296878Y0175455D01*
X0297126Y0176382D01*
D02*
G37*
G36*
X0292933D02*
X028974D01*
X0289988Y0175455D01*
X0290475Y0174612D01*
X0291163Y0173924D01*
X0292006Y0173437D01*
X0292933Y0173189D01*
Y0176382D01*
D02*
G37*
G36*
X0273959Y0190882D02*
X0272906D01*
X0271889Y0190609D01*
X0270977Y0190083D01*
X0270232Y0189338D01*
X0269706Y0188426D01*
X0269433Y0187408D01*
Y0186355D01*
X0269706Y0185338D01*
X0270232Y0184426D01*
X0270977Y0183681D01*
X0271394Y018344D01*
Y0179973D01*
X0271163Y017984D01*
X0270475Y0179152D01*
X0269988Y0178309D01*
X0269736Y0177369D01*
Y0176395D01*
X0269988Y0175455D01*
X0270475Y0174612D01*
X0271163Y0173924D01*
X0272006Y0173437D01*
X0272946Y0173185D01*
X027392D01*
X027486Y0173437D01*
X0275703Y0173924D01*
X0276391Y0174612D01*
X0276878Y0175455D01*
X027713Y0176395D01*
Y0177369D01*
X0276878Y0178309D01*
X0276391Y0179152D01*
X0275703Y017984D01*
X0275472Y0179973D01*
Y018344D01*
X0275889Y0183681D01*
X0276634Y0184426D01*
X027716Y0185338D01*
X0277433Y0186355D01*
Y0187408D01*
X027716Y0188426D01*
X0276634Y0189338D01*
X0275889Y0190083D01*
X0274977Y0190609D01*
X0273959Y0190882D01*
D02*
G37*
G36*
X026392Y0180579D02*
X0262946D01*
X0262006Y0180327D01*
X0261163Y017984D01*
X0260475Y0179152D01*
X0259988Y0178309D01*
X0259736Y0177369D01*
Y0176395D01*
X0259988Y0175455D01*
X0260475Y0174612D01*
X0261163Y0173924D01*
X0262006Y0173437D01*
X0262946Y0173185D01*
X026392D01*
X026486Y0173437D01*
X0265703Y0173924D01*
X0266391Y0174612D01*
X0266878Y0175455D01*
X026713Y0176395D01*
Y0177369D01*
X0266878Y0178309D01*
X0266391Y0179152D01*
X0265703Y017984D01*
X026486Y0180327D01*
X026392Y0180579D01*
D02*
G37*
G36*
X025392D02*
X0252946D01*
X0252006Y0180327D01*
X0251163Y017984D01*
X0250475Y0179152D01*
X0249988Y0178309D01*
X0249736Y0177369D01*
Y0176395D01*
X0249988Y0175455D01*
X0250475Y0174612D01*
X0251163Y0173924D01*
X0252006Y0173437D01*
X0252946Y0173185D01*
X025392D01*
X025486Y0173437D01*
X0255703Y0173924D01*
X0256391Y0174612D01*
X0256878Y0175455D01*
X025713Y0176395D01*
Y0177369D01*
X0256878Y0178309D01*
X0256391Y0179152D01*
X0255703Y017984D01*
X025486Y0180327D01*
X025392Y0180579D01*
D02*
G37*
G36*
X021392D02*
X0212946D01*
X0212006Y0180327D01*
X0211163Y017984D01*
X0210475Y0179152D01*
X0209988Y0178309D01*
X0209736Y0177369D01*
Y0176395D01*
X0209778Y0176239D01*
X0199927Y0166388D01*
X0199465Y0165697D01*
X0199303Y0164882D01*
Y0050382D01*
X0199333Y0050231D01*
Y0049964D01*
X0199435Y0049718D01*
X0199465Y0049567D01*
X0199551Y0049439D01*
X0199653Y0049192D01*
X0199841Y0049004D01*
X0199927Y0048876D01*
X0200055Y004879D01*
X0200243Y0048602D01*
X020049Y00485D01*
X0200618Y0048414D01*
X0200769Y0048384D01*
X0201015Y0048282D01*
X0201282D01*
X0201433Y0048252D01*
X0201584Y0048282D01*
X0201851D01*
X0202097Y0048384D01*
X0202248Y0048414D01*
X0202376Y00485D01*
X0202623Y0048602D01*
X0202811Y004879D01*
X0202939Y0048876D01*
X0203025Y0049004D01*
X0203213Y0049192D01*
X0203315Y0049439D01*
X0203401Y0049567D01*
X0203431Y0049718D01*
X0203533Y0049964D01*
Y0050231D01*
X0203563Y0050382D01*
Y0164D01*
X021279Y0173227D01*
X0212946Y0173185D01*
X021392D01*
X021486Y0173437D01*
X0215703Y0173924D01*
X0216391Y0174612D01*
X0216878Y0175455D01*
X021713Y0176395D01*
Y0177369D01*
X0216878Y0178309D01*
X0216391Y0179152D01*
X0215703Y017984D01*
X021486Y0180327D01*
X021392Y0180579D01*
D02*
G37*
G36*
X020392D02*
X0202946D01*
X0202006Y0180327D01*
X0201163Y017984D01*
X0200475Y0179152D01*
X0199988Y0178309D01*
X0199736Y0177369D01*
Y0176395D01*
X0199778Y0176239D01*
X0191927Y0168388D01*
X0191465Y0167697D01*
X0191303Y0166882D01*
Y0039264D01*
X0187874Y0035835D01*
X018787Y0035839D01*
X018784Y0035827D01*
X018781Y0035839D01*
X0187452Y0036189D01*
X0178326Y0045315D01*
X0178326Y0045315D01*
X0178264Y0045356D01*
X017745Y0045981D01*
X0176433Y0046402D01*
X0175343Y0046546D01*
X0174252Y0046402D01*
X0173235Y0045981D01*
X0172421Y0045356D01*
X0172359Y0045315D01*
X0172359D01*
X0172318Y0045254D01*
X0171693Y0044439D01*
X0171272Y0043422D01*
X0171128Y0042332D01*
X0171272Y0041241D01*
X017153Y0040618D01*
X0171147Y0040235D01*
X0170524Y0040493D01*
X0169433Y0040637D01*
X0168343Y0040493D01*
X0167326Y0040072D01*
X0166511Y0039447D01*
X016645Y0039406D01*
X016645D01*
X0166409Y0039345D01*
X0165784Y003853D01*
X0165363Y0037513D01*
X0165219Y0036423D01*
X0165363Y0035332D01*
X0165784Y0034315D01*
X0166409Y0033501D01*
X016645Y0033439D01*
X0175625Y0024265D01*
Y0023586D01*
X0171427Y0019388D01*
X0171427Y0019388D01*
X0166051Y0014012D01*
X0136815D01*
X0132102Y0018725D01*
Y0018823D01*
X0132391Y0019112D01*
X0132878Y0019955D01*
X013313Y0020895D01*
Y0021869D01*
X0132878Y0022809D01*
X0132391Y0023652D01*
X0131703Y002434D01*
X013086Y0024827D01*
X012992Y0025079D01*
X0128946D01*
X0128006Y0024827D01*
X0127163Y002434D01*
X0126475Y0023652D01*
X0125988Y0022809D01*
X0125736Y0021869D01*
Y0020895D01*
X0125988Y0019955D01*
X0126475Y0019112D01*
X0127163Y0018424D01*
X0127842Y0018032D01*
Y0017843D01*
X0128004Y0017028D01*
X0128466Y0016337D01*
X0134427Y0010376D01*
X0135118Y0009914D01*
X0135933Y0009752D01*
X0166933D01*
X0167748Y0009914D01*
X0168439Y0010376D01*
X0174439Y0016376D01*
X0174439Y0016376D01*
X0178942Y0020879D01*
X0178977Y0020931D01*
X0179623Y0021773D01*
X0180053Y0022811D01*
X01802Y0023925D01*
X0180053Y0025039D01*
X017996Y0025265D01*
X0180371Y002558D01*
X0180619Y0025389D01*
X0181635Y0024968D01*
X0182726Y0024825D01*
X0183817Y0024968D01*
X0184833Y0025389D01*
X0185648Y0026015D01*
X0185709Y0026056D01*
Y0026056D01*
X018575Y0026117D01*
X0186376Y0026932D01*
X0186797Y0027948D01*
X018694Y0029039D01*
X0186797Y003013D01*
X0186376Y0031146D01*
X0186185Y0031394D01*
X01865Y0031805D01*
X0186726Y0031712D01*
X018784Y0031565D01*
X0188954Y0031712D01*
X0189992Y0032142D01*
X0190834Y0032788D01*
X0190886Y0032823D01*
X0194611Y0036548D01*
X0194611Y0036548D01*
X0194939Y0036876D01*
X0195401Y0037567D01*
X0195563Y0038382D01*
Y0166D01*
X020279Y0173227D01*
X0202946Y0173185D01*
X020392D01*
X020486Y0173437D01*
X0205703Y0173924D01*
X0206391Y0174612D01*
X0206878Y0175455D01*
X020713Y0176395D01*
Y0177369D01*
X0206878Y0178309D01*
X0206391Y0179152D01*
X0205703Y017984D01*
X020486Y0180327D01*
X020392Y0180579D01*
D02*
G37*
G36*
X019392D02*
X0192946D01*
X0192006Y0180327D01*
X0191163Y017984D01*
X0190475Y0179152D01*
X0189988Y0178309D01*
X0189736Y0177369D01*
Y0176395D01*
X0189778Y0176239D01*
X0184427Y0170888D01*
X0183965Y0170197D01*
X0183803Y0169382D01*
Y0096264D01*
X0175551Y0088012D01*
X0174344D01*
Y008802D01*
X0172861Y0087825D01*
X017148Y0087253D01*
X0170294Y0086343D01*
X0169384Y0085156D01*
X0168812Y0083775D01*
X0168616Y0082293D01*
X0168624D01*
Y0074265D01*
X0168634Y0074216D01*
X0168531Y0073699D01*
X0168211Y0073219D01*
X0167731Y0072899D01*
X0167214Y0072796D01*
X0167165Y0072805D01*
X0167117Y0072796D01*
X01666Y0072899D01*
X016612Y0073219D01*
X0165799Y0073699D01*
X0165697Y0074216D01*
X0165706Y0074265D01*
Y0082293D01*
X0165714D01*
X0165519Y0083775D01*
X0164947Y0085156D01*
X0164037Y0086343D01*
X0162851Y0087253D01*
X0161469Y0087825D01*
X0159987Y008802D01*
Y0088012D01*
X0148315D01*
X0140088Y0096239D01*
X014013Y0096395D01*
Y0097369D01*
X0139878Y0098309D01*
X0139391Y0099152D01*
X0138703Y009984D01*
X013786Y0100327D01*
X013692Y0100579D01*
X0135946D01*
X0135006Y0100327D01*
X0134163Y009984D01*
X0133475Y0099152D01*
X0132988Y0098309D01*
X0132736Y0097369D01*
Y0096395D01*
X0132988Y0095455D01*
X0133475Y0094612D01*
X0134163Y0093924D01*
X0135006Y0093437D01*
X0135946Y0093185D01*
X013692D01*
X0137076Y0093227D01*
X0145927Y0084376D01*
X0146618Y0083914D01*
X0147433Y0083752D01*
X0159987D01*
X0160036Y0083762D01*
X0160553Y0083659D01*
X0161032Y0083338D01*
X0161353Y0082859D01*
X0161456Y0082341D01*
X0161446Y0082293D01*
Y0074265D01*
X0161438D01*
X0161633Y0072782D01*
X0162205Y0071401D01*
X0163116Y0070215D01*
X0164302Y0069305D01*
X0165683Y0068732D01*
X0167165Y0068537D01*
Y0068537D01*
X0168648Y0068732D01*
X0170029Y0069305D01*
X0171215Y0070215D01*
X0172125Y0071401D01*
X0172698Y0072782D01*
X0172893Y0074265D01*
X0172885D01*
Y0082293D01*
X0172875Y0082341D01*
X0172978Y0082859D01*
X0173298Y0083338D01*
X0173778Y0083659D01*
X0174295Y0083762D01*
X0174344Y0083752D01*
X0176433D01*
X0177248Y0083914D01*
X0177939Y0084376D01*
X0187439Y0093876D01*
X0187901Y0094567D01*
X0188063Y0095382D01*
Y01685D01*
X019279Y0173227D01*
X0192946Y0173185D01*
X019392D01*
X019486Y0173437D01*
X0195703Y0173924D01*
X0196391Y0174612D01*
X0196878Y0175455D01*
X019713Y0176395D01*
Y0177369D01*
X0196878Y0178309D01*
X0196391Y0179152D01*
X0195703Y017984D01*
X019486Y0180327D01*
X019392Y0180579D01*
D02*
G37*
G36*
X018392D02*
X0182946D01*
X0182006Y0180327D01*
X0181163Y017984D01*
X0180475Y0179152D01*
X0179988Y0178309D01*
X0179736Y0177369D01*
Y0176395D01*
X0179881Y0175854D01*
X0179171Y0175144D01*
X0178785Y0174565D01*
X0178649Y0173882D01*
Y016503D01*
X0176584Y0162965D01*
X0176135Y0163224D01*
X0176178Y0163382D01*
X0173212D01*
Y0160417D01*
X017337Y0160459D01*
X0173629Y0160011D01*
X0167183Y0153565D01*
X0166455Y015376D01*
X016541D01*
X0164401Y0153489D01*
X0163496Y0152967D01*
X0162757Y0152228D01*
X0162235Y0151323D01*
X0161964Y0150314D01*
Y0149269D01*
X0162235Y0148259D01*
X0162757Y0147355D01*
X0163496Y0146616D01*
X0163894Y0146386D01*
Y0141382D01*
X0164049Y0140602D01*
X0164491Y013994D01*
X0175752Y0128679D01*
X0175771Y0128579D01*
X0175694Y0128444D01*
X0175457Y012756D01*
Y0126645D01*
X0175694Y012576D01*
X0176151Y0124968D01*
X0176798Y0124321D01*
X0177591Y0123863D01*
X0178475Y0123626D01*
X0179391D01*
X0180275Y0123863D01*
X0181068Y0124321D01*
X0181715Y0124968D01*
X0182172Y012576D01*
X0182409Y0126645D01*
Y012756D01*
X0182172Y0128444D01*
X0181715Y0129237D01*
X0181068Y0129884D01*
X0180275Y0130342D01*
X0179477Y0130556D01*
X0179142Y0131056D01*
X0167972Y0142227D01*
Y0146386D01*
X016837Y0146616D01*
X0169108Y0147355D01*
X0169631Y0148259D01*
X0169901Y0149269D01*
Y0150314D01*
X0169706Y0151041D01*
X0175786Y0157121D01*
X0176151Y0156796D01*
X0175694Y0156003D01*
X0175468Y0155161D01*
X0178433D01*
Y0158126D01*
X0177591Y0157901D01*
X0176798Y0157443D01*
X0176474Y0157809D01*
X0181695Y016303D01*
X0182081Y0163609D01*
X0182217Y0164291D01*
Y0172892D01*
X0182669Y0173259D01*
X0182946Y0173185D01*
X018392D01*
X018486Y0173437D01*
X0185703Y0173924D01*
X0186391Y0174612D01*
X0186878Y0175455D01*
X018713Y0176395D01*
Y0177369D01*
X0186878Y0178309D01*
X0186391Y0179152D01*
X0185703Y017984D01*
X018486Y0180327D01*
X018392Y0180579D01*
D02*
G37*
G36*
X017392D02*
X0172946D01*
X0172006Y0180327D01*
X0171163Y017984D01*
X0170475Y0179152D01*
X0169988Y0178309D01*
X0169736Y0177369D01*
Y0176395D01*
X0169881Y0175854D01*
X0159694Y0165666D01*
X0148137D01*
X0147935Y0166016D01*
X0147288Y0166664D01*
X0146495Y0167121D01*
X0145611Y0167358D01*
X0144696D01*
X0143812Y0167121D01*
X0143019Y0166664D01*
X0142372Y0166016D01*
X0141914Y0165224D01*
X0141677Y016434D01*
Y0163424D01*
X0141914Y016254D01*
X0142372Y0161747D01*
X0143019Y01611D01*
X0143812Y0160642D01*
X0144696Y0160406D01*
X0145611D01*
X0146495Y0160642D01*
X0147288Y01611D01*
X0147935Y0161747D01*
X0148137Y0162098D01*
X0160433D01*
X0160433Y0162098D01*
X0161116Y0162233D01*
X0161695Y016262D01*
X0161695Y016262D01*
X0172405Y017333D01*
X0172946Y0173185D01*
X017392D01*
X017486Y0173437D01*
X0175703Y0173924D01*
X0176391Y0174612D01*
X0176878Y0175455D01*
X017713Y0176395D01*
Y0177369D01*
X0176878Y0178309D01*
X0176391Y0179152D01*
X0175703Y017984D01*
X017486Y0180327D01*
X017392Y0180579D01*
D02*
G37*
G36*
X016392D02*
X0162946D01*
X0162006Y0180327D01*
X0161163Y017984D01*
X0160475Y0179152D01*
X0159988Y0178309D01*
X0159736Y0177369D01*
Y0176395D01*
X0159988Y0175455D01*
X0160475Y0174612D01*
X0161163Y0173924D01*
X0162006Y0173437D01*
X0162946Y0173185D01*
X016392D01*
X016486Y0173437D01*
X0165703Y0173924D01*
X0166391Y0174612D01*
X0166878Y0175455D01*
X016713Y0176395D01*
Y0177369D01*
X0166878Y0178309D01*
X0166391Y0179152D01*
X0165703Y017984D01*
X016486Y0180327D01*
X016392Y0180579D01*
D02*
G37*
G36*
X015713D02*
X0149736D01*
Y0173185D01*
X015713D01*
Y0180579D01*
D02*
G37*
G36*
X006167Y0187858D02*
X0060755D01*
X0059871Y0187621D01*
X0059078Y0187164D01*
X0058431Y0186516D01*
X0057973Y0185724D01*
X0057736Y018484D01*
Y0183924D01*
X0057973Y018304D01*
X0058431Y0182247D01*
X0059078Y01816D01*
X0059673Y0181256D01*
Y0178602D01*
X0059829Y0177822D01*
X0060271Y017716D01*
X0063991Y017344D01*
X0064653Y0172998D01*
X0065433Y0172843D01*
X0086933D01*
X0087713Y0172998D01*
X0088375Y017344D01*
X0088375Y017344D01*
X009089Y0175955D01*
X0091332Y0176616D01*
X0091487Y0177397D01*
Y0177606D01*
X009237Y0178116D01*
X0093108Y0178855D01*
X0093631Y017976D01*
X0093901Y0180769D01*
Y0181814D01*
X0093631Y0182823D01*
X0093108Y0183728D01*
X009237Y0184467D01*
X0091465Y0184989D01*
X0090455Y018526D01*
X0089411D01*
X0088401Y0184989D01*
X0087496Y0184467D01*
X0086757Y0183728D01*
X0086235Y0182823D01*
X0085964Y0181814D01*
Y0180769D01*
X0086235Y017976D01*
X0086757Y0178855D01*
X008739Y0178222D01*
X0086088Y0176921D01*
X0080888D01*
X0080822Y0177421D01*
X0081465Y0177593D01*
X008237Y0178116D01*
X0083109Y0178855D01*
X0083631Y017976D01*
X0083901Y0180769D01*
Y0181814D01*
X0083631Y0182823D01*
X0083109Y0183728D01*
X008237Y0184467D01*
X0081465Y0184989D01*
X0080455Y018526D01*
X007941D01*
X0078401Y0184989D01*
X0077496Y0184467D01*
X0076757Y0183728D01*
X0076235Y0182823D01*
X0075964Y0181814D01*
Y0180769D01*
X0076235Y017976D01*
X0076757Y0178855D01*
X0077496Y0178116D01*
X0078401Y0177593D01*
X0079044Y0177421D01*
X0078978Y0176921D01*
X0066278D01*
X0063752Y0179447D01*
Y0182005D01*
X0063994Y0182247D01*
X0064452Y018304D01*
X0064689Y0183924D01*
Y018484D01*
X0064452Y0185724D01*
X0063994Y0186516D01*
X0063347Y0187164D01*
X0062554Y0187621D01*
X006167Y0187858D01*
D02*
G37*
G36*
X0034111Y0168358D02*
X0033196D01*
X0032312Y0168121D01*
X0031519Y0167664D01*
X0030872Y0167016D01*
X0030817Y0166921D01*
X0026329D01*
Y016826D01*
X0019573D01*
Y0161504D01*
X0026329D01*
Y0162843D01*
X0030817D01*
X0030872Y0162747D01*
X0031519Y01621D01*
X0032312Y0161642D01*
X0033196Y0161406D01*
X0034111D01*
X0034995Y0161642D01*
X0035788Y01621D01*
X0036435Y0162747D01*
X0036893Y016354D01*
X003713Y0164424D01*
Y016534D01*
X0036893Y0166224D01*
X0036435Y0167016D01*
X0035788Y0167664D01*
X0034995Y0168121D01*
X0034111Y0168358D01*
D02*
G37*
G36*
X0013451Y0168245D02*
Y0165382D01*
X0016314D01*
X0016099Y0166186D01*
X0015654Y0166956D01*
X0015025Y0167585D01*
X0014255Y016803D01*
X0013451Y0168245D01*
D02*
G37*
G36*
X0012451D02*
X0011648Y016803D01*
X0010877Y0167585D01*
X0010248Y0166956D01*
X0009804Y0166186D01*
X0009588Y0165382D01*
X0012451D01*
Y0168245D01*
D02*
G37*
G36*
X023392Y0180579D02*
X0232946D01*
X0232006Y0180327D01*
X0231163Y017984D01*
X0230475Y0179152D01*
X0229988Y0178309D01*
X0229736Y0177369D01*
Y0176395D01*
X0229988Y0175455D01*
X0230475Y0174612D01*
X0231163Y0173924D01*
X0231394Y0173791D01*
Y0167727D01*
X0228399Y0164732D01*
X0227955Y016485D01*
X022691D01*
X0225901Y016458D01*
X0224996Y0164058D01*
X0224257Y0163319D01*
X0223735Y0162414D01*
X0223464Y0161404D01*
Y0160359D01*
X0223735Y015935D01*
X0224257Y0158445D01*
X0224996Y0157706D01*
X0225901Y0157184D01*
X022691Y0156913D01*
X0227955D01*
X0228965Y0157184D01*
X022987Y0157706D01*
X0230609Y0158445D01*
X0231131Y015935D01*
X0231401Y0160359D01*
Y0161404D01*
X0231283Y0161848D01*
X0234875Y016544D01*
X0235317Y0166102D01*
X0235472Y0166882D01*
Y0173791D01*
X0235703Y0173924D01*
X0236391Y0174612D01*
X0236878Y0175455D01*
X023713Y0176395D01*
Y0177369D01*
X0236878Y0178309D01*
X0236391Y0179152D01*
X0235703Y017984D01*
X023486Y0180327D01*
X023392Y0180579D01*
D02*
G37*
G36*
X0173212Y0167347D02*
Y0164382D01*
X0176178D01*
X0175952Y0165224D01*
X0175494Y0166016D01*
X0174847Y0166664D01*
X0174054Y0167121D01*
X0173212Y0167347D01*
D02*
G37*
G36*
X0172212Y0167347D02*
X0171371Y0167121D01*
X0170578Y0166664D01*
X0169931Y0166016D01*
X0169473Y0165224D01*
X0169247Y0164382D01*
X0172212D01*
Y0167347D01*
D02*
G37*
G36*
X0016314Y0164382D02*
X0013451D01*
Y0161519D01*
X0014255Y0161734D01*
X0015025Y0162179D01*
X0015654Y0162808D01*
X0016099Y0163578D01*
X0016314Y0164382D01*
D02*
G37*
G36*
X0012451D02*
X0009588D01*
X0009804Y0163578D01*
X0010248Y0162808D01*
X0010877Y0162179D01*
X0011648Y0161734D01*
X0012451Y0161519D01*
Y0164382D01*
D02*
G37*
G36*
X006167Y0168358D02*
X0060755D01*
X0059871Y0168121D01*
X0059078Y0167664D01*
X0058431Y0167016D01*
X0057973Y0166224D01*
X0057736Y016534D01*
Y0164424D01*
X0057973Y016354D01*
X0058431Y0162747D01*
X0059078Y01621D01*
X0059871Y0161642D01*
X0060755Y0161406D01*
X006167D01*
X0062554Y0161642D01*
X0063347Y01621D01*
X0063994Y0162747D01*
X0064452Y016354D01*
X0064689Y0164424D01*
Y016534D01*
X0064452Y0166224D01*
X0063994Y0167016D01*
X0063347Y0167664D01*
X0062554Y0168121D01*
X006167Y0168358D01*
D02*
G37*
G36*
X0172212Y0163382D02*
X0169247D01*
X0169473Y016254D01*
X0169931Y0161747D01*
X0170578Y01611D01*
X0171371Y0160642D01*
X0172212Y0160417D01*
Y0163382D01*
D02*
G37*
G36*
X0102433Y0162067D02*
Y0159102D01*
X0105398D01*
X0105172Y0159944D01*
X0104715Y0160737D01*
X0104068Y0161384D01*
X0103275Y0161842D01*
X0102433Y0162067D01*
D02*
G37*
G36*
X0101433D02*
X0100591Y0161842D01*
X0099798Y0161384D01*
X0099151Y0160737D01*
X0098694Y0159944D01*
X0098468Y0159102D01*
X0101433D01*
Y0162067D01*
D02*
G37*
G36*
X022392Y0180579D02*
X0222946D01*
X0222006Y0180327D01*
X0221163Y017984D01*
X0220475Y0179152D01*
X0219988Y0178309D01*
X0219736Y0177369D01*
Y0176395D01*
X0219988Y0175455D01*
X0220475Y0174612D01*
X022093Y0174156D01*
Y0172903D01*
X0214671Y0166644D01*
X0214284Y0166065D01*
X0214149Y0165382D01*
X0214149Y0165382D01*
Y0158515D01*
X0213687Y0158324D01*
X0213567Y0158443D01*
X0212775Y0158901D01*
X0211933Y0159126D01*
Y0155661D01*
Y0152196D01*
X0212775Y0152422D01*
X0213567Y015288D01*
X0213687Y0152999D01*
X0214149Y0152807D01*
Y0130956D01*
X0213687Y0130765D01*
X0213567Y0130884D01*
X0212775Y0131342D01*
X0211891Y0131579D01*
X0210975D01*
X0210091Y0131342D01*
X0209298Y0130884D01*
X0208651Y0130237D01*
X0208193Y0129444D01*
X0207957Y012856D01*
Y0127645D01*
X0208193Y012676D01*
X0208651Y0125968D01*
X0209298Y0125321D01*
X0210091Y0124863D01*
X0210975Y0124626D01*
X0211891D01*
X0212775Y0124863D01*
X0213567Y0125321D01*
X0213687Y012544D01*
X0214149Y0125248D01*
Y0046621D01*
X0186006Y0018478D01*
X0185243Y0018162D01*
X0184653Y0017571D01*
X0184333Y00168D01*
Y0015964D01*
X0184653Y0015192D01*
X0185243Y0014602D01*
X0186015Y0014282D01*
X0186851D01*
X0187622Y0014602D01*
X0188213Y0015192D01*
X0188529Y0015955D01*
X0217195Y004462D01*
X0217581Y0045199D01*
X0217717Y0045882D01*
Y0164643D01*
X0223976Y0170902D01*
X0224363Y0171481D01*
X0224499Y0172163D01*
Y017334D01*
X022486Y0173437D01*
X0225703Y0173924D01*
X0226391Y0174612D01*
X0226878Y0175455D01*
X022713Y0176395D01*
Y0177369D01*
X0226878Y0178309D01*
X0226391Y0179152D01*
X0225703Y017984D01*
X022486Y0180327D01*
X022392Y0180579D01*
D02*
G37*
G36*
X0090455Y016526D02*
X0089411D01*
X0088401Y0164989D01*
X0087496Y0164467D01*
X0086757Y0163728D01*
X0086235Y0162823D01*
X0085964Y0161814D01*
Y0160769D01*
X0086235Y0159759D01*
X0086757Y0158855D01*
X0087496Y0158116D01*
X0088401Y0157593D01*
X0089411Y0157323D01*
X0090455D01*
X0091465Y0157593D01*
X009237Y0158116D01*
X0093108Y0158855D01*
X0093631Y0159759D01*
X0093901Y0160769D01*
Y0161814D01*
X0093631Y0162823D01*
X0093108Y0163728D01*
X009237Y0164467D01*
X0091465Y0164989D01*
X0090455Y016526D01*
D02*
G37*
G36*
X0080455D02*
X007941D01*
X0078401Y0164989D01*
X0077496Y0164467D01*
X0076757Y0163728D01*
X0076577Y0163415D01*
X0075917D01*
X0074942Y0163221D01*
X0074115Y0162669D01*
X0068369Y0156923D01*
X0054425D01*
X005345Y0156729D01*
X0052623Y0156177D01*
X004563Y0149184D01*
X0045078Y0148357D01*
X0044884Y0147382D01*
Y0099938D01*
X003825Y0093304D01*
X003796Y0093382D01*
X0036906D01*
X0035889Y0093109D01*
X0034977Y0092583D01*
X0034232Y0091838D01*
X0033705Y0090926D01*
X0033433Y0089908D01*
Y0088855D01*
X0033705Y0087838D01*
X0034232Y0086926D01*
X0034977Y0086181D01*
X0035889Y0085654D01*
X0036906Y0085382D01*
X003796D01*
X0038977Y0085654D01*
X0039889Y0086181D01*
X0040634Y0086926D01*
X004116Y0087838D01*
X0041433Y0088855D01*
Y0089277D01*
X0049235Y0097079D01*
X0049788Y0097906D01*
X0049982Y0098882D01*
Y0146326D01*
X0055481Y0151825D01*
X0068369D01*
X0075884Y0144311D01*
Y0124688D01*
X007513Y0124184D01*
X0074578Y0123357D01*
X0074384Y0122382D01*
X0074578Y0121406D01*
X007513Y012058D01*
X0075958Y0120027D01*
X0076933Y0119833D01*
X0079933D01*
X0080908Y0120027D01*
X0081735Y012058D01*
X0082288Y0121406D01*
X0082482Y0122382D01*
X0082444Y0122574D01*
Y0122866D01*
X008225Y0123842D01*
X0081697Y0124668D01*
X0080982Y0125384D01*
Y0145366D01*
X0080788Y0146342D01*
X0080235Y0147169D01*
X007303Y0154374D01*
X0076973Y0158317D01*
X0077295D01*
X0077496Y0158116D01*
X0078401Y0157593D01*
X007941Y0157323D01*
X0080455D01*
X0081465Y0157593D01*
X008237Y0158116D01*
X0083109Y0158855D01*
X0083631Y0159759D01*
X0083901Y0160769D01*
Y0161814D01*
X0083631Y0162823D01*
X0083109Y0163728D01*
X008237Y0164467D01*
X0081465Y0164989D01*
X0080455Y016526D01*
D02*
G37*
G36*
X0247955Y016485D02*
X0246911D01*
X0245901Y016458D01*
X0244996Y0164058D01*
X0244257Y0163319D01*
X0243735Y0162414D01*
X0243464Y0161404D01*
Y0160359D01*
X0243735Y015935D01*
X0244257Y0158445D01*
X0244996Y0157706D01*
X0245901Y0157184D01*
X0246911Y0156913D01*
X0247955D01*
X0248965Y0157184D01*
X024987Y0157706D01*
X0250608Y0158445D01*
X0251131Y015935D01*
X0251401Y0160359D01*
Y0161404D01*
X0251131Y0162414D01*
X0250608Y0163319D01*
X024987Y0164058D01*
X0248965Y016458D01*
X0247955Y016485D01*
D02*
G37*
G36*
X0210933Y0159126D02*
X0210091Y0158901D01*
X0209298Y0158443D01*
X0208651Y0157796D01*
X0208193Y0157003D01*
X0207968Y0156161D01*
X0210933D01*
Y0159126D01*
D02*
G37*
G36*
X0179433Y0158126D02*
Y0155161D01*
X0182398D01*
X0182172Y0156003D01*
X0181715Y0156796D01*
X0181068Y0157443D01*
X0180275Y0157901D01*
X0179433Y0158126D01*
D02*
G37*
G36*
X0105398Y0158102D02*
X0102433D01*
Y0155137D01*
X0103275Y0155363D01*
X0104068Y0155821D01*
X0104715Y0156468D01*
X0105172Y0157261D01*
X0105398Y0158102D01*
D02*
G37*
G36*
X0101433D02*
X0098468D01*
X0098694Y0157261D01*
X0099151Y0156468D01*
X0099798Y0155821D01*
X0100591Y0155363D01*
X0101433Y0155137D01*
Y0158102D01*
D02*
G37*
G36*
X028396Y0190882D02*
X0282906D01*
X0281889Y0190609D01*
X0280977Y0190083D01*
X0280232Y0189338D01*
X0279706Y0188426D01*
X0279433Y0187408D01*
Y0186355D01*
X0279706Y0185338D01*
X0280232Y0184426D01*
X0280884Y0183774D01*
Y0179561D01*
X0280475Y0179152D01*
X0279988Y0178309D01*
X0279736Y0177369D01*
Y0176395D01*
X0279988Y0175455D01*
X0280475Y0174612D01*
X0280884Y0174203D01*
Y0169938D01*
X0271877Y0160931D01*
X0255998D01*
X0255023Y0160737D01*
X0254196Y0160184D01*
X024867Y0154659D01*
X0247955Y015485D01*
X0246911D01*
X0245901Y015458D01*
X0244996Y0154058D01*
X0244257Y0153319D01*
X0243735Y0152414D01*
X0243464Y0151404D01*
Y0150359D01*
X0243735Y014935D01*
X0244257Y0148445D01*
X0244996Y0147706D01*
X0245901Y0147184D01*
X0246911Y0146913D01*
X0247797D01*
X0269384Y0125326D01*
Y0091938D01*
X020463Y0027184D01*
X0204377Y0026931D01*
X020294D01*
X0201964Y0026737D01*
X0201137Y0026184D01*
X0200585Y0025357D01*
X0200391Y0024382D01*
X0200585Y0023406D01*
X0201137Y002258D01*
X0201964Y0022027D01*
X020294Y0021833D01*
X0205433D01*
X0206408Y0022027D01*
X0207235Y002258D01*
X0208235Y002358D01*
X0273735Y0089079D01*
X0274288Y0089906D01*
X0274482Y0090882D01*
Y0126382D01*
X0274288Y0127357D01*
X0273735Y0128184D01*
X025157Y0150349D01*
X0257054Y0155833D01*
X0272933D01*
X0273908Y0156027D01*
X0274735Y0156579D01*
X0285235Y0167079D01*
X0285788Y0167906D01*
X0285982Y0168882D01*
Y0174203D01*
X0286391Y0174612D01*
X0286878Y0175455D01*
X028713Y0176395D01*
Y0177369D01*
X0286878Y0178309D01*
X0286391Y0179152D01*
X0285982Y0179561D01*
Y0183774D01*
X0286634Y0184426D01*
X028716Y0185338D01*
X0287433Y0186355D01*
Y0187408D01*
X028716Y0188426D01*
X0286634Y0189338D01*
X0285889Y0190083D01*
X0284977Y0190609D01*
X028396Y0190882D01*
D02*
G37*
G36*
X0210933Y0155161D02*
X0207968D01*
X0208193Y015432D01*
X0208651Y0153527D01*
X0209298Y015288D01*
X0210091Y0152422D01*
X0210933Y0152196D01*
Y0155161D01*
D02*
G37*
G36*
X0262433Y0154627D02*
Y0151661D01*
X0265398D01*
X0265172Y0152503D01*
X0264715Y0153296D01*
X0264068Y0153943D01*
X0263275Y0154401D01*
X0262433Y0154627D01*
D02*
G37*
G36*
X0261433D02*
X0260591Y0154401D01*
X0259798Y0153943D01*
X0259151Y0153296D01*
X0258694Y0152503D01*
X0258468Y0151661D01*
X0261433D01*
Y0154627D01*
D02*
G37*
G36*
X0182398Y0154161D02*
X0179433D01*
Y0151196D01*
X0180275Y0151422D01*
X0181068Y015188D01*
X0181715Y0152527D01*
X0182172Y015332D01*
X0182398Y0154161D01*
D02*
G37*
G36*
X0178433D02*
X0175468D01*
X0175694Y015332D01*
X0176151Y0152527D01*
X0176798Y015188D01*
X0177591Y0151422D01*
X0178433Y0151196D01*
Y0154161D01*
D02*
G37*
G36*
X0265398Y0150661D02*
X0262433D01*
Y0147696D01*
X0263275Y0147922D01*
X0264068Y014838D01*
X0264715Y0149027D01*
X0265172Y014982D01*
X0265398Y0150661D01*
D02*
G37*
G36*
X0261433D02*
X0258468D01*
X0258694Y014982D01*
X0259151Y0149027D01*
X0259798Y014838D01*
X0260591Y0147922D01*
X0261433Y0147696D01*
Y0150661D01*
D02*
G37*
G36*
X0034111Y0148858D02*
X0033196D01*
X0032312Y0148621D01*
X0031519Y0148164D01*
X0030872Y0147516D01*
X0030817Y0147421D01*
X0026232D01*
Y014876D01*
X0019476D01*
Y0142004D01*
X0026232D01*
Y0143343D01*
X0030817D01*
X0030872Y0143247D01*
X0031519Y01426D01*
X0032312Y0142142D01*
X0033196Y0141905D01*
X0034111D01*
X0034995Y0142142D01*
X0035788Y01426D01*
X0036435Y0143247D01*
X0036893Y014404D01*
X003713Y0144924D01*
Y014584D01*
X0036893Y0146724D01*
X0036435Y0147516D01*
X0035788Y0148164D01*
X0034995Y0148621D01*
X0034111Y0148858D01*
D02*
G37*
G36*
X0227955Y015485D02*
X022691D01*
X0225901Y015458D01*
X0224996Y0154058D01*
X0224257Y0153319D01*
X0223735Y0152414D01*
X0223464Y0151404D01*
Y0150359D01*
X0223735Y014935D01*
X0224257Y0148445D01*
X0224996Y0147706D01*
X0225901Y0147184D01*
X022691Y0146913D01*
X0227955D01*
X0228965Y0147184D01*
X022987Y0147706D01*
X0230609Y0148445D01*
X0231131Y014935D01*
X0231401Y0150359D01*
Y0151404D01*
X0231131Y0152414D01*
X0230609Y0153319D01*
X022987Y0154058D01*
X0228965Y015458D01*
X0227955Y015485D01*
D02*
G37*
G36*
X0013354Y0148745D02*
Y0145882D01*
X0016217D01*
X0016002Y0146686D01*
X0015557Y0147456D01*
X0014928Y0148085D01*
X0014158Y014853D01*
X0013354Y0148745D01*
D02*
G37*
G36*
X0012354D02*
X001155Y014853D01*
X001078Y0148085D01*
X0010151Y0147456D01*
X0009706Y0146686D01*
X0009491Y0145882D01*
X0012354D01*
Y0148745D01*
D02*
G37*
G36*
X0156455Y015376D02*
X0155411D01*
X0154401Y0153489D01*
X0153496Y0152967D01*
X0152757Y0152228D01*
X0152235Y0151323D01*
X0151964Y0150314D01*
Y0149269D01*
X0152235Y0148259D01*
X0152757Y0147355D01*
X0153496Y0146616D01*
X0154401Y0146093D01*
X0155411Y0145823D01*
X0156455D01*
X0157465Y0146093D01*
X015837Y0146616D01*
X0159108Y0147355D01*
X0159631Y0148259D01*
X0159901Y0149269D01*
Y0150314D01*
X0159631Y0151323D01*
X0159108Y0152228D01*
X015837Y0152967D01*
X0157465Y0153489D01*
X0156455Y015376D01*
D02*
G37*
G36*
X0137955D02*
X013691D01*
X0135901Y0153489D01*
X0134996Y0152967D01*
X0134257Y0152228D01*
X0133735Y0151323D01*
X0133464Y0150314D01*
Y0149269D01*
X0133735Y0148259D01*
X0134257Y0147355D01*
X0134996Y0146616D01*
X0135901Y0146093D01*
X013691Y0145823D01*
X0137955D01*
X0138965Y0146093D01*
X013987Y0146616D01*
X0140609Y0147355D01*
X0141131Y0148259D01*
X0141401Y0149269D01*
Y0150314D01*
X0141131Y0151323D01*
X0140609Y0152228D01*
X013987Y0152967D01*
X0138965Y0153489D01*
X0137955Y015376D01*
D02*
G37*
G36*
X0127955D02*
X012691D01*
X0125901Y0153489D01*
X0124996Y0152967D01*
X0124257Y0152228D01*
X0123735Y0151323D01*
X0123464Y0150314D01*
Y0149269D01*
X0123735Y0148259D01*
X0124257Y0147355D01*
X0124996Y0146616D01*
X0125901Y0146093D01*
X012691Y0145823D01*
X0127955D01*
X0128965Y0146093D01*
X012987Y0146616D01*
X0130608Y0147355D01*
X0131131Y0148259D01*
X0131401Y0149269D01*
Y0150314D01*
X0131131Y0151323D01*
X0130608Y0152228D01*
X012987Y0152967D01*
X0128965Y0153489D01*
X0127955Y015376D01*
D02*
G37*
G36*
X0016217Y0144882D02*
X0013354D01*
Y0142019D01*
X0014158Y0142234D01*
X0014928Y0142679D01*
X0015557Y0143308D01*
X0016002Y0144078D01*
X0016217Y0144882D01*
D02*
G37*
G36*
X0012354D02*
X0009491D01*
X0009706Y0144078D01*
X0010151Y0143308D01*
X001078Y0142679D01*
X001155Y0142234D01*
X0012354Y0142019D01*
Y0144882D01*
D02*
G37*
G36*
X006167Y0148858D02*
X0060755D01*
X0059871Y0148621D01*
X0059078Y0148164D01*
X0058431Y0147516D01*
X0057973Y0146724D01*
X0057736Y014584D01*
Y0144924D01*
X0057973Y014404D01*
X0058431Y0143247D01*
X0059078Y01426D01*
X0059871Y0142142D01*
X0060755Y0141905D01*
X006167D01*
X0062554Y0142142D01*
X0063347Y01426D01*
X0063994Y0143247D01*
X0064452Y014404D01*
X0064689Y0144924D01*
Y014584D01*
X0064452Y0146724D01*
X0063994Y0147516D01*
X0063347Y0148164D01*
X0062554Y0148621D01*
X006167Y0148858D01*
D02*
G37*
G36*
X0246365Y013635D02*
X024532D01*
X0244311Y013608D01*
X0243406Y0135557D01*
X0242667Y0134819D01*
X0242144Y0133914D01*
X0241874Y0132904D01*
Y0131859D01*
X0242144Y013085D01*
X0242667Y0129945D01*
X0243406Y0129206D01*
X0244311Y0128684D01*
X024532Y0128413D01*
X0246365D01*
X0247374Y0128684D01*
X0248279Y0129206D01*
X0249018Y0129945D01*
X024954Y013085D01*
X0249811Y0131859D01*
Y0132904D01*
X024954Y0133914D01*
X0249018Y0134819D01*
X0248279Y0135557D01*
X0247374Y013608D01*
X0246365Y013635D01*
D02*
G37*
G36*
X0226365D02*
X022532D01*
X0224311Y013608D01*
X0223406Y0135557D01*
X0222667Y0134819D01*
X0222144Y0133914D01*
X0221874Y0132904D01*
Y0131859D01*
X0222144Y013085D01*
X0222667Y0129945D01*
X0223406Y0129206D01*
X0224311Y0128684D01*
X022532Y0128413D01*
X0226365D01*
X0227374Y0128684D01*
X0228279Y0129206D01*
X0229018Y0129945D01*
X022954Y013085D01*
X0229811Y0131859D01*
Y0132904D01*
X022954Y0133914D01*
X0229018Y0134819D01*
X0228279Y0135557D01*
X0227374Y013608D01*
X0226365Y013635D01*
D02*
G37*
G36*
X0034111Y0128858D02*
X0033196D01*
X0032312Y0128621D01*
X0031519Y0128164D01*
X0030872Y0127516D01*
X0030817Y0127421D01*
X002625D01*
Y012876D01*
X0019495D01*
Y0122004D01*
X002625D01*
Y0123343D01*
X0030817D01*
X0030872Y0123247D01*
X0031519Y01226D01*
X0032312Y0122142D01*
X0033196Y0121906D01*
X0034111D01*
X0034995Y0122142D01*
X0035788Y01226D01*
X0036435Y0123247D01*
X0036893Y012404D01*
X003713Y0124924D01*
Y012584D01*
X0036893Y0126724D01*
X0036435Y0127516D01*
X0035788Y0128164D01*
X0034995Y0128621D01*
X0034111Y0128858D01*
D02*
G37*
G36*
X0013373Y0128745D02*
Y0125882D01*
X0016236D01*
X001602Y0126686D01*
X0015576Y0127456D01*
X0014947Y0128085D01*
X0014176Y012853D01*
X0013373Y0128745D01*
D02*
G37*
G36*
X0012373D02*
X0011569Y012853D01*
X0010798Y0128085D01*
X001017Y0127456D01*
X0009725Y0126686D01*
X0009509Y0125882D01*
X0012373D01*
Y0128745D01*
D02*
G37*
G36*
X0166455Y013376D02*
X016541D01*
X0164401Y0133489D01*
X0163496Y0132967D01*
X0162757Y0132228D01*
X0162235Y0131323D01*
X0161964Y0130314D01*
Y0129269D01*
X0162235Y012826D01*
X0162757Y0127355D01*
X0163496Y0126616D01*
X0164401Y0126093D01*
X016541Y0125823D01*
X0166455D01*
X0167465Y0126093D01*
X016837Y0126616D01*
X0169108Y0127355D01*
X0169631Y012826D01*
X0169901Y0129269D01*
Y0130314D01*
X0169631Y0131323D01*
X0169108Y0132228D01*
X016837Y0132967D01*
X0167465Y0133489D01*
X0166455Y013376D01*
D02*
G37*
G36*
X0156455D02*
X0155411D01*
X0154401Y0133489D01*
X0153496Y0132967D01*
X0152757Y0132228D01*
X0152235Y0131323D01*
X0151964Y0130314D01*
Y0129269D01*
X0152235Y012826D01*
X0152757Y0127355D01*
X0153496Y0126616D01*
X0154401Y0126093D01*
X0155411Y0125823D01*
X0156455D01*
X0157465Y0126093D01*
X015837Y0126616D01*
X0159108Y0127355D01*
X0159631Y012826D01*
X0159901Y0129269D01*
Y0130314D01*
X0159631Y0131323D01*
X0159108Y0132228D01*
X015837Y0132967D01*
X0157465Y0133489D01*
X0156455Y013376D01*
D02*
G37*
G36*
X0137955D02*
X013691D01*
X0135901Y0133489D01*
X0134996Y0132967D01*
X0134257Y0132228D01*
X0133735Y0131323D01*
X0133464Y0130314D01*
Y0129269D01*
X0133735Y012826D01*
X0134257Y0127355D01*
X0134996Y0126616D01*
X0135901Y0126093D01*
X013691Y0125823D01*
X0137955D01*
X0138965Y0126093D01*
X013987Y0126616D01*
X0140609Y0127355D01*
X0141131Y012826D01*
X0141401Y0129269D01*
Y0130314D01*
X0141131Y0131323D01*
X0140609Y0132228D01*
X013987Y0132967D01*
X0138965Y0133489D01*
X0137955Y013376D01*
D02*
G37*
G36*
X0127955D02*
X012691D01*
X0125901Y0133489D01*
X0124996Y0132967D01*
X0124257Y0132228D01*
X0123735Y0131323D01*
X0123464Y0130314D01*
Y0129269D01*
X0123735Y012826D01*
X0124257Y0127355D01*
X0124996Y0126616D01*
X0125901Y0126093D01*
X012691Y0125823D01*
X0127955D01*
X0128965Y0126093D01*
X012987Y0126616D01*
X0130608Y0127355D01*
X0131131Y012826D01*
X0131401Y0129269D01*
Y0130314D01*
X0131131Y0131323D01*
X0130608Y0132228D01*
X012987Y0132967D01*
X0128965Y0133489D01*
X0127955Y013376D01*
D02*
G37*
G36*
X0016236Y0124882D02*
X0013373D01*
Y0122019D01*
X0014176Y0122234D01*
X0014947Y0122679D01*
X0015576Y0123308D01*
X001602Y0124078D01*
X0016236Y0124882D01*
D02*
G37*
G36*
X0012373D02*
X0009509D01*
X0009725Y0124078D01*
X001017Y0123308D01*
X0010798Y0122679D01*
X0011569Y0122234D01*
X0012373Y0122019D01*
Y0124882D01*
D02*
G37*
G36*
X006167Y0128858D02*
X0060755D01*
X0059871Y0128621D01*
X0059078Y0128164D01*
X0058431Y0127516D01*
X0057973Y0126724D01*
X0057736Y012584D01*
Y0124924D01*
X0057973Y012404D01*
X0058431Y0123247D01*
X0059078Y01226D01*
X0059871Y0122142D01*
X0060755Y0121906D01*
X006167D01*
X0062554Y0122142D01*
X0063347Y01226D01*
X0063994Y0123247D01*
X0064452Y012404D01*
X0064689Y0124924D01*
Y012584D01*
X0064452Y0126724D01*
X0063994Y0127516D01*
X0063347Y0128164D01*
X0062554Y0128621D01*
X006167Y0128858D01*
D02*
G37*
G36*
X024392Y0180579D02*
X0242946D01*
X0242006Y0180327D01*
X0241163Y017984D01*
X0240475Y0179152D01*
X0239988Y0178309D01*
X0239736Y0177369D01*
Y0176395D01*
X0239988Y0175455D01*
X0240475Y0174612D01*
X0241163Y0173924D01*
X0241394Y0173791D01*
Y0172727D01*
X0238491Y0169824D01*
X0238049Y0169162D01*
X0237894Y0168382D01*
Y0148382D01*
X0238049Y0147601D01*
X0238491Y014694D01*
X0259411Y012602D01*
Y0125997D01*
X0259151Y0125737D01*
X0258694Y0124944D01*
X0258457Y012406D01*
Y0123145D01*
X0258694Y012226D01*
X0259151Y0121468D01*
X0259798Y0120821D01*
X0260591Y0120363D01*
X0261475Y0120126D01*
X0262391D01*
X0263275Y0120363D01*
X0264068Y0120821D01*
X0264715Y0121468D01*
X0265172Y012226D01*
X0265409Y0123145D01*
Y012406D01*
X0265172Y0124944D01*
X0264715Y0125737D01*
X0264068Y0126384D01*
X026349Y0126718D01*
Y0126865D01*
X0263334Y0127645D01*
X0262892Y0128306D01*
X0241972Y0149226D01*
Y0167537D01*
X0244875Y017044D01*
X0245317Y0171101D01*
X0245472Y0171882D01*
Y0173791D01*
X0245703Y0173924D01*
X0246391Y0174612D01*
X0246878Y0175455D01*
X024713Y0176395D01*
Y0177369D01*
X0246878Y0178309D01*
X0246391Y0179152D01*
X0245703Y017984D01*
X024486Y0180327D01*
X024392Y0180579D01*
D02*
G37*
G36*
X0246365Y012635D02*
X024532D01*
X0244311Y012608D01*
X0243406Y0125557D01*
X0242667Y0124819D01*
X0242144Y0123914D01*
X0241874Y0122904D01*
Y0121859D01*
X0242144Y012085D01*
X0242667Y0119945D01*
X0243406Y0119206D01*
X0244311Y0118684D01*
X024532Y0118413D01*
X0246365D01*
X0247374Y0118684D01*
X0248279Y0119206D01*
X0249018Y0119945D01*
X024954Y012085D01*
X0249811Y0121859D01*
Y0122904D01*
X024954Y0123914D01*
X0249018Y0124819D01*
X0248279Y0125557D01*
X0247374Y012608D01*
X0246365Y012635D01*
D02*
G37*
G36*
X0226365D02*
X022532D01*
X0224311Y012608D01*
X0223406Y0125557D01*
X0222667Y0124819D01*
X0222144Y0123914D01*
X0221874Y0122904D01*
Y0121859D01*
X0222144Y012085D01*
X0222667Y0119945D01*
X0223406Y0119206D01*
X0224311Y0118684D01*
X022532Y0118413D01*
X0226365D01*
X0227374Y0118684D01*
X0228279Y0119206D01*
X0229018Y0119945D01*
X022954Y012085D01*
X0229811Y0121859D01*
Y0122904D01*
X022954Y0123914D01*
X0229018Y0124819D01*
X0228279Y0125557D01*
X0227374Y012608D01*
X0226365Y012635D01*
D02*
G37*
G36*
X0034111Y0108858D02*
X0033196D01*
X0032312Y0108621D01*
X0031519Y0108164D01*
X0030872Y0107516D01*
X0030817Y0107421D01*
X0026311D01*
Y010876D01*
X0019555D01*
Y0102004D01*
X0026311D01*
Y0103343D01*
X0030817D01*
X0030872Y0103247D01*
X0031519Y01026D01*
X0032312Y0102142D01*
X0033196Y0101906D01*
X0034111D01*
X0034995Y0102142D01*
X0035788Y01026D01*
X0036435Y0103247D01*
X0036893Y010404D01*
X003713Y0104924D01*
Y010584D01*
X0036893Y0106724D01*
X0036435Y0107516D01*
X0035788Y0108164D01*
X0034995Y0108621D01*
X0034111Y0108858D01*
D02*
G37*
G36*
X0013433Y0108745D02*
Y0105882D01*
X0016296D01*
X0016081Y0106686D01*
X0015636Y0107456D01*
X0015007Y0108085D01*
X0014237Y010853D01*
X0013433Y0108745D01*
D02*
G37*
G36*
X0012433D02*
X0011629Y010853D01*
X0010859Y0108085D01*
X001023Y0107456D01*
X0009785Y0106686D01*
X000957Y0105882D01*
X0012433D01*
Y0108745D01*
D02*
G37*
G36*
X0016296Y0104882D02*
X0013433D01*
Y0102019D01*
X0014237Y0102234D01*
X0015007Y0102679D01*
X0015636Y0103308D01*
X0016081Y0104078D01*
X0016296Y0104882D01*
D02*
G37*
G36*
X0012433D02*
X000957D01*
X0009785Y0104078D01*
X001023Y0103308D01*
X0010859Y0102679D01*
X0011629Y0102234D01*
X0012433Y0102019D01*
Y0104882D01*
D02*
G37*
G36*
X006167Y0108858D02*
X0060755D01*
X0059871Y0108621D01*
X0059078Y0108164D01*
X0058431Y0107516D01*
X0057973Y0106724D01*
X0057736Y010584D01*
Y0104924D01*
X0057973Y010404D01*
X0058431Y0103247D01*
X0059078Y01026D01*
X0059871Y0102142D01*
X0060755Y0101906D01*
X006167D01*
X0062554Y0102142D01*
X0063347Y01026D01*
X0063994Y0103247D01*
X0064452Y010404D01*
X0064689Y0104924D01*
Y010584D01*
X0064452Y0106724D01*
X0063994Y0107516D01*
X0063347Y0108164D01*
X0062554Y0108621D01*
X006167Y0108858D01*
D02*
G37*
G36*
X011013Y0100579D02*
X0106933D01*
Y0097382D01*
X011013D01*
Y0100579D01*
D02*
G37*
G36*
X0105933D02*
X0102736D01*
Y0097382D01*
X0105933D01*
Y0100579D01*
D02*
G37*
G36*
X017692D02*
X0175946D01*
X0175006Y0100327D01*
X0174163Y009984D01*
X0173475Y0099152D01*
X0172988Y0098309D01*
X0172736Y0097369D01*
Y0096395D01*
X0172988Y0095455D01*
X0173475Y0094612D01*
X0174163Y0093924D01*
X0175006Y0093437D01*
X0175946Y0093185D01*
X017692D01*
X017786Y0093437D01*
X0178703Y0093924D01*
X0179391Y0094612D01*
X0179878Y0095455D01*
X018013Y0096395D01*
Y0097369D01*
X0179878Y0098309D01*
X0179391Y0099152D01*
X0178703Y009984D01*
X017786Y0100327D01*
X017692Y0100579D01*
D02*
G37*
G36*
X0139433Y0183512D02*
X0139282Y0183482D01*
X0139015D01*
X0138769Y018338D01*
X0138618Y018335D01*
X013849Y0183264D01*
X0138243Y0183162D01*
X0138055Y0182974D01*
X0137927Y0182888D01*
X0137915Y018287D01*
X0135427Y0180382D01*
X0134965Y0179691D01*
X0134803Y0178876D01*
Y0161882D01*
X0134965Y0161067D01*
X0135427Y0160376D01*
X0144303Y01515D01*
Y0124382D01*
X0144465Y0123567D01*
X0144927Y0122876D01*
X0164303Y01035D01*
Y0099921D01*
X0164163Y009984D01*
X0163475Y0099152D01*
X0162988Y0098309D01*
X0162736Y0097369D01*
Y0096395D01*
X0162988Y0095455D01*
X0163475Y0094612D01*
X0164163Y0093924D01*
X0165006Y0093437D01*
X0165946Y0093185D01*
X016692D01*
X016786Y0093437D01*
X0168703Y0093924D01*
X0169391Y0094612D01*
X0169878Y0095455D01*
X017013Y0096395D01*
Y0097369D01*
X0169878Y0098309D01*
X0169391Y0099152D01*
X0168703Y009984D01*
X0168563Y0099921D01*
Y0104382D01*
X0168401Y0105197D01*
X0167939Y0105888D01*
X0148563Y0125264D01*
Y0152382D01*
X0148401Y0153197D01*
X0147939Y0153888D01*
X0139063Y0162764D01*
Y0177994D01*
X0140939Y017987D01*
X0141037Y0180016D01*
X0141213Y0180192D01*
X0141309Y0180423D01*
X0141401Y0180561D01*
X0141433Y0180723D01*
X0141533Y0180964D01*
Y0181225D01*
X0141563Y0181376D01*
Y0181382D01*
X0141533Y0181533D01*
Y01818D01*
X0141431Y0182046D01*
X0141401Y0182197D01*
X0141315Y0182325D01*
X0141213Y0182571D01*
X0141025Y018276D01*
X0140939Y0182888D01*
X0140811Y0182974D01*
X0140622Y0183162D01*
X0140376Y0183264D01*
X0140248Y018335D01*
X0140097Y018338D01*
X0139851Y0183482D01*
X0139584D01*
X0139433Y0183512D01*
D02*
G37*
G36*
X015692Y0100579D02*
X0155946D01*
X0155006Y0100327D01*
X0154163Y009984D01*
X0153475Y0099152D01*
X0152988Y0098309D01*
X0152736Y0097369D01*
Y0096395D01*
X0152988Y0095455D01*
X0153475Y0094612D01*
X0154163Y0093924D01*
X0155006Y0093437D01*
X0155946Y0093185D01*
X015692D01*
X015786Y0093437D01*
X0158703Y0093924D01*
X0159391Y0094612D01*
X0159878Y0095455D01*
X016013Y0096395D01*
Y0097369D01*
X0159878Y0098309D01*
X0159391Y0099152D01*
X0158703Y009984D01*
X015786Y0100327D01*
X015692Y0100579D01*
D02*
G37*
G36*
X0109433Y0128431D02*
X0104933D01*
X0103957Y0128237D01*
X010313Y0127684D01*
X0102578Y0126857D01*
X0102384Y0125882D01*
Y0124882D01*
X0102578Y0123906D01*
X010313Y012308D01*
X0104884Y0121326D01*
Y0117882D01*
X0105078Y0116906D01*
X0105631Y0116079D01*
X0123139Y0098571D01*
X0122988Y0098309D01*
X0122736Y0097369D01*
Y0096395D01*
X0122988Y0095455D01*
X0123475Y0094612D01*
X0124163Y0093924D01*
X0125006Y0093437D01*
X0125946Y0093185D01*
X012692D01*
X012786Y0093437D01*
X0128703Y0093924D01*
X0129391Y0094612D01*
X0129878Y0095455D01*
X013013Y0096395D01*
Y0097369D01*
X0129878Y0098309D01*
X0129391Y0099152D01*
X0128703Y009984D01*
X0128388Y0100022D01*
X012833Y0100315D01*
X0127777Y0101142D01*
X0109982Y0118938D01*
Y0121326D01*
X0110335Y0121679D01*
X0110888Y0122506D01*
X0111082Y0123482D01*
Y0123926D01*
X0111235Y012408D01*
X0111788Y0124906D01*
X0111982Y0125882D01*
X0111788Y0126857D01*
X0111235Y0127684D01*
X0110408Y0128237D01*
X0109433Y0128431D01*
D02*
G37*
G36*
X011692Y0100579D02*
X0115946D01*
X0115006Y0100327D01*
X0114163Y009984D01*
X0113475Y0099152D01*
X0112988Y0098309D01*
X0112736Y0097369D01*
Y0096395D01*
X0112988Y0095455D01*
X0113475Y0094612D01*
X0114163Y0093924D01*
X0115006Y0093437D01*
X0115946Y0093185D01*
X011692D01*
X011786Y0093437D01*
X0118703Y0093924D01*
X0119391Y0094612D01*
X0119878Y0095455D01*
X012013Y0096395D01*
Y0097369D01*
X0119878Y0098309D01*
X0119391Y0099152D01*
X0118703Y009984D01*
X011786Y0100327D01*
X011692Y0100579D01*
D02*
G37*
G36*
X011013Y0096382D02*
X0106933D01*
Y0093185D01*
X011013D01*
Y0096382D01*
D02*
G37*
G36*
X0105933D02*
X0102736D01*
Y0093185D01*
X0105933D01*
Y0096382D01*
D02*
G37*
G36*
X0017455Y0093441D02*
X001641D01*
X0015401Y009317D01*
X0014496Y0092648D01*
X0013757Y0091909D01*
X0013235Y0091004D01*
X0012964Y0089995D01*
Y008895D01*
X0013235Y0087941D01*
X0013757Y0087036D01*
X0014496Y0086297D01*
X0015401Y0085774D01*
X001641Y0085504D01*
X0017455D01*
X0018465Y0085774D01*
X001937Y0086297D01*
X0020109Y0087036D01*
X0020631Y0087941D01*
X0020901Y008895D01*
Y0089995D01*
X0020631Y0091004D01*
X0020109Y0091909D01*
X001937Y0092648D01*
X0018465Y009317D01*
X0017455Y0093441D01*
D02*
G37*
G36*
X0007455D02*
X000641D01*
X0005401Y009317D01*
X0004496Y0092648D01*
X0003757Y0091909D01*
X0003235Y0091004D01*
X0002964Y0089995D01*
Y008895D01*
X0003235Y0087941D01*
X0003757Y0087036D01*
X0004496Y0086297D01*
X0005401Y0085774D01*
X000641Y0085504D01*
X0007455D01*
X0008465Y0085774D01*
X000937Y0086297D01*
X0010108Y0087036D01*
X0010631Y0087941D01*
X0010901Y008895D01*
Y0089995D01*
X0010631Y0091004D01*
X0010108Y0091909D01*
X000937Y0092648D01*
X0008465Y009317D01*
X0007455Y0093441D01*
D02*
G37*
G36*
X0079351Y0084982D02*
X0078515D01*
X0078368Y0084921D01*
X0062433D01*
X0061653Y0084766D01*
X0060991Y0084324D01*
X0039484Y0062817D01*
X0038977Y0063109D01*
X003796Y0063382D01*
X0036906D01*
X0035889Y0063109D01*
X0034977Y0062583D01*
X0034232Y0061838D01*
X0033705Y0060926D01*
X0033433Y0059908D01*
Y0058855D01*
X0033705Y0057838D01*
X0034232Y0056926D01*
X0034977Y0056181D01*
X0035889Y0055655D01*
X0036906Y0055382D01*
X003796D01*
X0038977Y0055655D01*
X0039889Y0056181D01*
X0040634Y0056926D01*
X004116Y0057838D01*
X0041433Y0058855D01*
Y0059142D01*
X0041868Y0059433D01*
X0063278Y0080843D01*
X0078368D01*
X0078515Y0080782D01*
X0079351D01*
X0080123Y0081102D01*
X0080713Y0081692D01*
X0081033Y0082464D01*
Y00833D01*
X0080713Y0084071D01*
X0080123Y0084662D01*
X0079351Y0084982D01*
D02*
G37*
G36*
X003796Y0083382D02*
X0037933D01*
Y0079882D01*
X0041433D01*
Y0079909D01*
X004116Y0080926D01*
X0040634Y0081838D01*
X0039889Y0082583D01*
X0038977Y0083109D01*
X003796Y0083382D01*
D02*
G37*
G36*
X0036933D02*
X0036906D01*
X0035889Y0083109D01*
X0034977Y0082583D01*
X0034232Y0081838D01*
X0033705Y0080926D01*
X0033433Y0079909D01*
Y0079882D01*
X0036933D01*
Y0083382D01*
D02*
G37*
G36*
X0041433Y0078882D02*
X0037933D01*
Y0075382D01*
X003796D01*
X0038977Y0075655D01*
X0039889Y0076181D01*
X0040634Y0076926D01*
X004116Y0077838D01*
X0041433Y0078855D01*
Y0078882D01*
D02*
G37*
G36*
X0036933D02*
X0033433D01*
Y0078855D01*
X0033705Y0077838D01*
X0034232Y0076926D01*
X0034977Y0076181D01*
X0035889Y0075655D01*
X0036906Y0075382D01*
X0036933D01*
Y0078882D01*
D02*
G37*
G36*
X0063433Y0092012D02*
X0057933D01*
X0057118Y009185D01*
X0056427Y0091388D01*
X0038323Y0073285D01*
X003796Y0073382D01*
X0036906D01*
X0035889Y0073109D01*
X0034977Y0072583D01*
X0034232Y0071838D01*
X0033705Y0070926D01*
X0033433Y0069908D01*
Y0068855D01*
X0033705Y0067838D01*
X0034232Y0066926D01*
X0034977Y0066181D01*
X0035889Y0065654D01*
X0036906Y0065382D01*
X003796D01*
X0038977Y0065654D01*
X0039889Y0066181D01*
X0040634Y0066926D01*
X004116Y0067838D01*
X0041433Y0068855D01*
Y0069908D01*
X0041335Y0070272D01*
X0058815Y0087752D01*
X0063433D01*
X0063584Y0087782D01*
X0063851D01*
X0064097Y0087884D01*
X0064248Y0087914D01*
X0064376Y0088D01*
X0064622Y0088102D01*
X0064811Y008829D01*
X0064939Y0088376D01*
X0065025Y0088504D01*
X0065213Y0088692D01*
X0065315Y0088938D01*
X0065401Y0089067D01*
X0065431Y0089218D01*
X0065533Y0089464D01*
Y0089731D01*
X0065563Y0089882D01*
X0065533Y0090033D01*
Y00903D01*
X0065431Y0090546D01*
X0065401Y0090697D01*
X0065315Y0090825D01*
X0065213Y0091071D01*
X0065025Y009126D01*
X0064939Y0091388D01*
X0064811Y0091474D01*
X0064622Y0091662D01*
X0064376Y0091764D01*
X0064248Y009185D01*
X0064097Y009188D01*
X0063851Y0091982D01*
X0063584D01*
X0063433Y0092012D01*
D02*
G37*
G36*
X0079351Y0076982D02*
X0078515D01*
X0078368Y0076921D01*
X0062933D01*
X0062153Y0076766D01*
X0061491Y0076324D01*
X0038425Y0053257D01*
X003796Y0053382D01*
X0036906D01*
X0035889Y0053109D01*
X0034977Y0052583D01*
X0034232Y0051838D01*
X0033705Y0050926D01*
X0033433Y0049909D01*
Y0048855D01*
X0033705Y0047838D01*
X0034232Y0046926D01*
X0034977Y0046181D01*
X0035889Y0045654D01*
X0036906Y0045382D01*
X003796D01*
X0038977Y0045654D01*
X0039889Y0046181D01*
X0040634Y0046926D01*
X004116Y0047838D01*
X0041433Y0048855D01*
Y0049909D01*
X0041308Y0050374D01*
X0063778Y0072843D01*
X0078368D01*
X0078515Y0072782D01*
X0079351D01*
X0080123Y0073102D01*
X0080713Y0073692D01*
X0081033Y0074464D01*
Y00753D01*
X0080713Y0076071D01*
X0080123Y0076662D01*
X0079351Y0076982D01*
D02*
G37*
G36*
X0007455Y0073441D02*
X0007433D01*
Y0069972D01*
X0010901D01*
Y0069995D01*
X0010631Y0071004D01*
X0010108Y0071909D01*
X000937Y0072648D01*
X0008465Y0073171D01*
X0007455Y0073441D01*
D02*
G37*
G36*
X0006433D02*
X000641D01*
X0005401Y0073171D01*
X0004496Y0072648D01*
X0003757Y0071909D01*
X0003235Y0071004D01*
X0002964Y0069995D01*
Y0069972D01*
X0006433D01*
Y0073441D01*
D02*
G37*
G36*
X0017455D02*
X001641D01*
X0015401Y0073171D01*
X0014496Y0072648D01*
X0013757Y0071909D01*
X0013235Y0071004D01*
X0012964Y0069995D01*
Y006895D01*
X0013235Y0067941D01*
X0013757Y0067036D01*
X0014496Y0066297D01*
X0015401Y0065774D01*
X001641Y0065504D01*
X0017455D01*
X0018465Y0065774D01*
X001937Y0066297D01*
X0020109Y0067036D01*
X0020631Y0067941D01*
X0020901Y006895D01*
Y0069995D01*
X0020631Y0071004D01*
X0020109Y0071909D01*
X001937Y0072648D01*
X0018465Y0073171D01*
X0017455Y0073441D01*
D02*
G37*
G36*
X0010901Y0068972D02*
X0007433D01*
Y0065504D01*
X0007455D01*
X0008465Y0065774D01*
X000937Y0066297D01*
X0010108Y0067036D01*
X0010631Y0067941D01*
X0010901Y006895D01*
Y0068972D01*
D02*
G37*
G36*
X0006433D02*
X0002964D01*
Y006895D01*
X0003235Y0067941D01*
X0003757Y0067036D01*
X0004496Y0066297D01*
X0005401Y0065774D01*
X000641Y0065504D01*
X0006433D01*
Y0068972D01*
D02*
G37*
G36*
X0100851Y0072982D02*
X0100015D01*
X0099243Y0072662D01*
X0098653Y0072071D01*
X0098333Y00713D01*
Y0070464D01*
X0098653Y0069692D01*
X0099243Y0069102D01*
X009939Y0069041D01*
X0102491Y006594D01*
X0103153Y0065498D01*
X0103933Y0065343D01*
X0144868D01*
X0145015Y0065282D01*
X0145851D01*
X0146623Y0065602D01*
X0147213Y0066192D01*
X0147533Y0066964D01*
Y00678D01*
X0147213Y0068571D01*
X0146623Y0069162D01*
X0145851Y0069482D01*
X0145015D01*
X0144868Y0069421D01*
X0104778D01*
X0102274Y0071925D01*
X0102213Y0072071D01*
X0101622Y0072662D01*
X0100851Y0072982D01*
D02*
G37*
G36*
X0187851Y0088482D02*
X0187015D01*
X0186243Y0088162D01*
X0185653Y0087571D01*
X0185592Y0087425D01*
X0177991Y0079824D01*
X0177549Y0079162D01*
X0177394Y0078382D01*
Y0069727D01*
X0172588Y0064921D01*
X0163278D01*
X0143875Y0084324D01*
X0143213Y0084766D01*
X0142433Y0084921D01*
X0104498D01*
X0104351Y0084982D01*
X0103515D01*
X0102743Y0084662D01*
X0102153Y0084071D01*
X0101833Y00833D01*
Y0082464D01*
X0102153Y0081692D01*
X0102743Y0081102D01*
X0103515Y0080782D01*
X0104351D01*
X0104498Y0080843D01*
X0141588D01*
X0160991Y006144D01*
X0161653Y0060998D01*
X0162433Y0060843D01*
X0173433D01*
X0174213Y0060998D01*
X0174875Y006144D01*
X0180875Y006744D01*
X0181317Y0068102D01*
X0181472Y0068882D01*
Y0077537D01*
X0188476Y0084541D01*
X0188622Y0084602D01*
X0189213Y0085192D01*
X0189533Y0085964D01*
Y00868D01*
X0189213Y0087571D01*
X0188622Y0088162D01*
X0187851Y0088482D01*
D02*
G37*
G36*
X0017455Y0062441D02*
X001641D01*
X0015401Y006217D01*
X0014496Y0061648D01*
X0013757Y0060909D01*
X0013235Y0060004D01*
X0012964Y0058995D01*
Y005795D01*
X0013235Y0056941D01*
X0013757Y0056036D01*
X0014496Y0055297D01*
X0015401Y0054774D01*
X001641Y0054504D01*
X0017455D01*
X0018465Y0054774D01*
X001937Y0055297D01*
X0020109Y0056036D01*
X0020631Y0056941D01*
X0020901Y005795D01*
Y0058995D01*
X0020631Y0060004D01*
X0020109Y0060909D01*
X001937Y0061648D01*
X0018465Y006217D01*
X0017455Y0062441D01*
D02*
G37*
G36*
X0007455D02*
X000641D01*
X0005401Y006217D01*
X0004496Y0061648D01*
X0003757Y0060909D01*
X0003235Y0060004D01*
X0002964Y0058995D01*
Y005795D01*
X0003235Y0056941D01*
X0003757Y0056036D01*
X0004496Y0055297D01*
X0005401Y0054774D01*
X000641Y0054504D01*
X0007455D01*
X0008465Y0054774D01*
X000937Y0055297D01*
X0010108Y0056036D01*
X0010631Y0056941D01*
X0010901Y005795D01*
Y0058995D01*
X0010631Y0060004D01*
X0010108Y0060909D01*
X000937Y0061648D01*
X0008465Y006217D01*
X0007455Y0062441D01*
D02*
G37*
G36*
X0072933Y0066512D02*
X0072912Y0066508D01*
X0062429D01*
X0061614Y0066346D01*
X0060923Y0065884D01*
X0038323Y0043284D01*
X003796Y0043382D01*
X0036906D01*
X0035889Y0043109D01*
X0034977Y0042583D01*
X0034232Y0041838D01*
X0033705Y0040926D01*
X0033433Y0039908D01*
Y0038855D01*
X0033705Y0037838D01*
X0034232Y0036926D01*
X0034977Y0036181D01*
X0035889Y0035655D01*
X0036906Y0035382D01*
X003796D01*
X0038977Y0035655D01*
X0039889Y0036181D01*
X0040634Y0036926D01*
X004116Y0037838D01*
X0041433Y0038855D01*
Y0039908D01*
X0041335Y0040272D01*
X0063311Y0062248D01*
X0072929D01*
X0073101Y0062282D01*
X0073351D01*
X0073581Y0062378D01*
X0073744Y006241D01*
X0073882Y0062502D01*
X0074123Y0062602D01*
X0074307Y0062786D01*
X0074435Y0062872D01*
X0074439Y0062876D01*
X0074525Y0063004D01*
X0074713Y0063192D01*
X0074815Y0063438D01*
X0074901Y0063567D01*
X0074931Y0063718D01*
X0075033Y0063964D01*
Y0064231D01*
X0075063Y0064382D01*
X0075033Y0064533D01*
Y00648D01*
X0074931Y0065046D01*
X0074901Y0065197D01*
X0074815Y0065325D01*
X0074713Y0065571D01*
X0074525Y006576D01*
X0074439Y0065888D01*
X0074311Y0065974D01*
X0074123Y0066162D01*
X0073876Y0066264D01*
X0073748Y006635D01*
X0073597Y006638D01*
X0073351Y0066482D01*
X0073084D01*
X0072933Y0066512D01*
D02*
G37*
G36*
X0007455Y0042441D02*
X0007433D01*
Y0038972D01*
X0010901D01*
Y0038995D01*
X0010631Y0040004D01*
X0010108Y0040909D01*
X000937Y0041648D01*
X0008465Y0042171D01*
X0007455Y0042441D01*
D02*
G37*
G36*
X0006433D02*
X000641D01*
X0005401Y0042171D01*
X0004496Y0041648D01*
X0003757Y0040909D01*
X0003235Y0040004D01*
X0002964Y0038995D01*
Y0038972D01*
X0006433D01*
Y0042441D01*
D02*
G37*
G36*
X0086222Y0041671D02*
X0079644D01*
Y0035093D01*
X0086222D01*
Y0041671D01*
D02*
G37*
G36*
X0090433Y0058012D02*
X0063933D01*
X0063118Y005785D01*
X0062427Y0057388D01*
X0038323Y0033285D01*
X003796Y0033382D01*
X0036906D01*
X0035889Y0033109D01*
X0034977Y0032583D01*
X0034232Y0031838D01*
X0033705Y0030926D01*
X0033433Y0029908D01*
Y0028855D01*
X0033705Y0027838D01*
X0034232Y0026926D01*
X0034977Y0026181D01*
X0035889Y0025655D01*
X0036906Y0025382D01*
X003796D01*
X0038482Y0025522D01*
X0038741Y0025074D01*
X0037484Y0023817D01*
X0037193Y0023382D01*
X0036906D01*
X0035889Y0023109D01*
X0034977Y0022583D01*
X0034232Y0021838D01*
X0033705Y0020926D01*
X0033433Y0019908D01*
Y0018855D01*
X0033705Y0017838D01*
X0034232Y0016926D01*
X0034977Y0016181D01*
X0035889Y0015654D01*
X0036906Y0015382D01*
X003796D01*
X0038977Y0015654D01*
X0039889Y0016181D01*
X0040634Y0016926D01*
X004116Y0017838D01*
X0041433Y0018855D01*
Y0019908D01*
X004116Y0020926D01*
X0040868Y0021433D01*
X005957Y0040135D01*
X005997Y0039828D01*
X0059868Y0039651D01*
X0059644Y0038815D01*
Y0037949D01*
X0059868Y0037112D01*
X0060301Y0036362D01*
X0060913Y003575D01*
X0061664Y0035317D01*
X00625Y0035093D01*
X0063366D01*
X0063628Y0035163D01*
X0076671Y002212D01*
X007725Y0021733D01*
X0077933Y0021598D01*
X0112253D01*
X0113015Y0021282D01*
X0113851D01*
X0114622Y0021602D01*
X0115213Y0022192D01*
X0115533Y0022964D01*
Y00238D01*
X0115213Y0024571D01*
X0114622Y0025162D01*
X0113851Y0025482D01*
X0113015D01*
X0112253Y0025166D01*
X0078672D01*
X0066152Y0037687D01*
X0066222Y0037949D01*
Y0038815D01*
X0065998Y0039651D01*
X0065565Y0040401D01*
X0064952Y0041014D01*
X0064202Y0041447D01*
X0063366Y0041671D01*
X00625D01*
X0061664Y0041447D01*
X0061487Y0041345D01*
X006118Y0041745D01*
X0062278Y0042843D01*
X0065588D01*
X0069644Y0038787D01*
Y0037949D01*
X0069868Y0037112D01*
X0070301Y0036362D01*
X0070913Y003575D01*
X0071663Y0035317D01*
X00725Y0035093D01*
X0073366D01*
X0074202Y0035317D01*
X0074952Y003575D01*
X0075565Y0036362D01*
X0075998Y0037112D01*
X0076222Y0037949D01*
Y0038815D01*
X0075998Y0039651D01*
X0075565Y0040401D01*
X0074952Y0041014D01*
X0074202Y0041447D01*
X0073366Y0041671D01*
X0072528D01*
X0067875Y0046324D01*
X0067213Y0046766D01*
X0066433Y0046921D01*
X0061433D01*
X0060653Y0046766D01*
X0059991Y0046324D01*
X0041741Y0028074D01*
X0041293Y0028333D01*
X0041433Y0028855D01*
Y0029908D01*
X0041335Y0030272D01*
X0064815Y0053752D01*
X0090433D01*
X0090584Y0053782D01*
X0090851D01*
X0091097Y0053884D01*
X0091248Y0053914D01*
X0091376Y0054D01*
X0091623Y0054102D01*
X0091811Y005429D01*
X0091939Y0054376D01*
X0092025Y0054504D01*
X0092213Y0054692D01*
X0092315Y0054939D01*
X0092401Y0055067D01*
X0092431Y0055218D01*
X0092533Y0055464D01*
Y0055731D01*
X0092563Y0055882D01*
X0092533Y0056033D01*
Y00563D01*
X0092431Y0056546D01*
X0092401Y0056697D01*
X0092315Y0056825D01*
X0092213Y0057071D01*
X0092025Y005726D01*
X0091939Y0057388D01*
X0091811Y0057474D01*
X0091623Y0057662D01*
X0091376Y0057764D01*
X0091248Y005785D01*
X0091097Y005788D01*
X0090851Y0057982D01*
X0090584D01*
X0090433Y0058012D01*
D02*
G37*
G36*
X0017455Y0042441D02*
X001641D01*
X0015401Y0042171D01*
X0014496Y0041648D01*
X0013757Y0040909D01*
X0013235Y0040004D01*
X0012964Y0038995D01*
Y003795D01*
X0013235Y0036941D01*
X0013757Y0036036D01*
X0014496Y0035297D01*
X0015401Y0034774D01*
X001641Y0034504D01*
X0017455D01*
X0018465Y0034774D01*
X001937Y0035297D01*
X0020109Y0036036D01*
X0020631Y0036941D01*
X0020901Y003795D01*
Y0038995D01*
X0020631Y0040004D01*
X0020109Y0040909D01*
X001937Y0041648D01*
X0018465Y0042171D01*
X0017455Y0042441D01*
D02*
G37*
G36*
X0010901Y0037972D02*
X0007433D01*
Y0034504D01*
X0007455D01*
X0008465Y0034774D01*
X000937Y0035297D01*
X0010108Y0036036D01*
X0010631Y0036941D01*
X0010901Y003795D01*
Y0037972D01*
D02*
G37*
G36*
X0006433D02*
X0002964D01*
Y003795D01*
X0003235Y0036941D01*
X0003757Y0036036D01*
X0004496Y0035297D01*
X0005401Y0034774D01*
X000641Y0034504D01*
X0006433D01*
Y0037972D01*
D02*
G37*
G36*
X0007455Y003135D02*
X000641D01*
X0005401Y003108D01*
X0004496Y0030558D01*
X0003757Y0029819D01*
X0003235Y0028914D01*
X0002964Y0027904D01*
Y0026859D01*
X0003235Y002585D01*
X0003757Y0024945D01*
X0004496Y0024206D01*
X0005401Y0023684D01*
X000641Y0023413D01*
X0007455D01*
X0008465Y0023684D01*
X000937Y0024206D01*
X0010108Y0024945D01*
X0010631Y002585D01*
X0010901Y0026859D01*
Y0027904D01*
X0010631Y0028914D01*
X0010108Y0029819D01*
X000937Y0030558D01*
X0008465Y003108D01*
X0007455Y003135D01*
D02*
G37*
G36*
X0149933Y0025075D02*
Y0021882D01*
X0153126D01*
X0152878Y0022809D01*
X0152391Y0023652D01*
X0151703Y002434D01*
X015086Y0024827D01*
X0149933Y0025075D01*
D02*
G37*
G36*
X0148933Y0025075D02*
X0148006Y0024827D01*
X0147163Y002434D01*
X0146475Y0023652D01*
X0145988Y0022809D01*
X014574Y0021882D01*
X0148933D01*
Y0025075D01*
D02*
G37*
G36*
X0153126Y0020882D02*
X0149933D01*
Y0017689D01*
X015086Y0017937D01*
X0151703Y0018424D01*
X0152391Y0019112D01*
X0152878Y0019955D01*
X0153126Y0020882D01*
D02*
G37*
G36*
X0148933D02*
X014574D01*
X0145988Y0019955D01*
X0146475Y0019112D01*
X0147163Y0018424D01*
X0148006Y0017937D01*
X0148933Y0017689D01*
Y0020882D01*
D02*
G37*
G36*
X016313Y0025079D02*
X0155736D01*
Y0017685D01*
X016313D01*
Y0025079D01*
D02*
G37*
G36*
X0205433Y0018948D02*
Y0017382D01*
X0206999D01*
X0206713Y0018071D01*
X0206122Y0018662D01*
X0205433Y0018948D01*
D02*
G37*
G36*
X0204433D02*
X0203743Y0018662D01*
X0203153Y0018071D01*
X0202867Y0017382D01*
X0204433D01*
Y0018948D01*
D02*
G37*
G36*
X0206999Y0016382D02*
X0205433D01*
Y0014816D01*
X0206122Y0015102D01*
X0206713Y0015692D01*
X0206999Y0016382D01*
D02*
G37*
G36*
X0204433D02*
X0202867D01*
X0203153Y0015692D01*
X0203743Y0015102D01*
X0204433Y0014816D01*
Y0016382D01*
D02*
G37*
G36*
X0225351Y0036982D02*
X0224515D01*
X0223743Y0036662D01*
X0223153Y0036071D01*
X0222833Y00353D01*
Y0034464D01*
X0223153Y0033692D01*
X0223743Y0033102D01*
X0224515Y0032782D01*
X0224649D01*
X024639Y0011041D01*
X0246199Y0010579D01*
X024262D01*
X0222413Y0030786D01*
X0221752Y0031228D01*
X0221199Y0031337D01*
X0220851Y0031482D01*
X0220015D01*
X0219243Y0031162D01*
X0218653Y0030571D01*
X0218333Y00298D01*
Y0028964D01*
X0218653Y0028192D01*
X0219243Y0027602D01*
X0220015Y0027282D01*
X0220149D01*
X0239736Y0007695D01*
Y0003185D01*
X024713D01*
Y0009648D01*
X0247592Y0009839D01*
X0249805Y0007626D01*
X0249736Y0007369D01*
Y0006395D01*
X0249988Y0005455D01*
X0250475Y0004612D01*
X0251163Y0003924D01*
X0252006Y0003437D01*
X0252946Y0003185D01*
X025392D01*
X025486Y0003437D01*
X0255703Y0003924D01*
X0256391Y0004612D01*
X0256878Y0005455D01*
X025713Y0006395D01*
Y0007369D01*
X0256878Y0008309D01*
X0256391Y0009152D01*
X0255703Y000984D01*
X025486Y0010327D01*
X025392Y0010579D01*
X0252946D01*
X0252689Y001051D01*
X0226913Y0036286D01*
X0226252Y0036728D01*
X0225699Y0036837D01*
X0225351Y0036982D01*
D02*
G37*
G36*
X0007455Y001135D02*
X0007433D01*
Y0007882D01*
X0010901D01*
Y0007904D01*
X0010631Y0008914D01*
X0010108Y0009819D01*
X000937Y0010558D01*
X0008465Y001108D01*
X0007455Y001135D01*
D02*
G37*
G36*
X0006433D02*
X000641D01*
X0005401Y001108D01*
X0004496Y0010558D01*
X0003757Y0009819D01*
X0003235Y0008914D01*
X0002964Y0007904D01*
Y0007882D01*
X0006433D01*
Y001135D01*
D02*
G37*
G36*
X0293933Y0010575D02*
Y0007382D01*
X0297126D01*
X0296878Y0008309D01*
X0296391Y0009152D01*
X0295703Y000984D01*
X029486Y0010327D01*
X0293933Y0010575D01*
D02*
G37*
G36*
X0292933D02*
X0292006Y0010327D01*
X0291163Y000984D01*
X0290475Y0009152D01*
X0289988Y0008309D01*
X028974Y0007382D01*
X0292933D01*
Y0010575D01*
D02*
G37*
G36*
X0096722Y0010171D02*
X0090144D01*
Y0003593D01*
X0096722D01*
Y0010171D01*
D02*
G37*
G36*
X0073866D02*
X0073D01*
X0072163Y0009947D01*
X0071413Y0009514D01*
X0070801Y0008901D01*
X0070368Y0008151D01*
X0070144Y0007315D01*
Y0006449D01*
X0070368Y0005612D01*
X0070801Y0004862D01*
X0071413Y000425D01*
X0072163Y0003817D01*
X0073Y0003593D01*
X0073866D01*
X0074702Y0003817D01*
X0075452Y000425D01*
X0076065Y0004862D01*
X0076498Y0005612D01*
X0076722Y0006449D01*
Y0007315D01*
X0076498Y0008151D01*
X0076065Y0008901D01*
X0075452Y0009514D01*
X0074702Y0009947D01*
X0073866Y0010171D01*
D02*
G37*
G36*
X0017455Y001135D02*
X001641D01*
X0015401Y001108D01*
X0014496Y0010558D01*
X0013757Y0009819D01*
X0013235Y0008914D01*
X0012964Y0007904D01*
Y0006859D01*
X0013235Y000585D01*
X0013757Y0004945D01*
X0014496Y0004206D01*
X0015401Y0003684D01*
X001641Y0003413D01*
X0017455D01*
X0018465Y0003684D01*
X001937Y0004206D01*
X0020109Y0004945D01*
X0020631Y000585D01*
X0020901Y0006859D01*
Y0007904D01*
X0020631Y0008914D01*
X0020109Y0009819D01*
X001937Y0010558D01*
X0018465Y001108D01*
X0017455Y001135D01*
D02*
G37*
G36*
X0010901Y0006882D02*
X0007433D01*
Y0003413D01*
X0007455D01*
X0008465Y0003684D01*
X000937Y0004206D01*
X0010108Y0004945D01*
X0010631Y000585D01*
X0010901Y0006859D01*
Y0006882D01*
D02*
G37*
G36*
X0006433D02*
X0002964D01*
Y0006859D01*
X0003235Y000585D01*
X0003757Y0004945D01*
X0004496Y0004206D01*
X0005401Y0003684D01*
X000641Y0003413D01*
X0006433D01*
Y0006882D01*
D02*
G37*
G36*
X0297126Y0006382D02*
X0293933D01*
Y0003189D01*
X029486Y0003437D01*
X0295703Y0003924D01*
X0296391Y0004612D01*
X0296878Y0005455D01*
X0297126Y0006382D01*
D02*
G37*
G36*
X0292933D02*
X028974D01*
X0289988Y0005455D01*
X0290475Y0004612D01*
X0291163Y0003924D01*
X0292006Y0003437D01*
X0292933Y0003189D01*
Y0006382D01*
D02*
G37*
G36*
X028392Y0010579D02*
X0282946D01*
X0282006Y0010327D01*
X0281163Y000984D01*
X0280475Y0009152D01*
X0279988Y0008309D01*
X0279736Y0007369D01*
Y0006395D01*
X0279988Y0005455D01*
X0280475Y0004612D01*
X0281163Y0003924D01*
X0282006Y0003437D01*
X0282946Y0003185D01*
X028392D01*
X028486Y0003437D01*
X0285703Y0003924D01*
X0286391Y0004612D01*
X0286878Y0005455D01*
X028713Y0006395D01*
Y0007369D01*
X0286878Y0008309D01*
X0286391Y0009152D01*
X0285703Y000984D01*
X028486Y0010327D01*
X028392Y0010579D01*
D02*
G37*
G36*
X027392D02*
X0272946D01*
X0272006Y0010327D01*
X0271163Y000984D01*
X0270475Y0009152D01*
X0269988Y0008309D01*
X0269736Y0007369D01*
Y0006395D01*
X0269988Y0005455D01*
X0270475Y0004612D01*
X0271163Y0003924D01*
X0272006Y0003437D01*
X0272946Y0003185D01*
X027392D01*
X027486Y0003437D01*
X0275703Y0003924D01*
X0276391Y0004612D01*
X0276878Y0005455D01*
X027713Y0006395D01*
Y0007369D01*
X0276878Y0008309D01*
X0276391Y0009152D01*
X0275703Y000984D01*
X027486Y0010327D01*
X027392Y0010579D01*
D02*
G37*
G36*
X026392D02*
X0262946D01*
X0262006Y0010327D01*
X0261163Y000984D01*
X0260475Y0009152D01*
X0259988Y0008309D01*
X0259736Y0007369D01*
Y0006395D01*
X0259988Y0005455D01*
X0260475Y0004612D01*
X0261163Y0003924D01*
X0262006Y0003437D01*
X0262946Y0003185D01*
X026392D01*
X026486Y0003437D01*
X0265703Y0003924D01*
X0266391Y0004612D01*
X0266878Y0005455D01*
X026713Y0006395D01*
Y0007369D01*
X0266878Y0008309D01*
X0266391Y0009152D01*
X0265703Y000984D01*
X026486Y0010327D01*
X026392Y0010579D01*
D02*
G37*
%LPD*%
D10*
X0151384Y0308652D02*
G03*
X0154973Y0305063I0003589J0D01*
G01*
X0151384Y031668D02*
G03*
X0147795Y0320269I-0003589J0D01*
G01*
X0147795D02*
G03*
X0144206Y031668I0J-0003589D01*
G01*
X0140617Y0305063D02*
G03*
X0144206Y0308652I0J0003589D01*
G01*
X0137525Y036856D02*
G03*
X0137525Y0365479I000154J-000154D01*
G01*
X0147004Y0353045D02*
G03*
X0147004Y0356I-0001477J0001477D01*
G01*
X014405Y0353045D02*
G03*
X0147004Y0353045I0001477J0001477D01*
G01*
X0133712Y0363383D02*
G03*
X0130757Y0363383I-0001477J-0001477D01*
G01*
X0130757Y0363383D02*
G03*
X0130757Y0360429I0001477J-0001477D01*
G01*
X0141095Y0347136D02*
G03*
X0141095Y0350091I-0001477J0001477D01*
G01*
X0138141Y0347136D02*
G03*
X0141095Y0347136I0001477J0001477D01*
G01*
X0128661Y0356616D02*
G03*
X0125581Y0356616I-000154J-000154D01*
G01*
X0257028Y0301063D02*
X0277528Y0321563D01*
X0251528Y0301063D02*
X0257028D01*
X0154973Y0305063D02*
X0166028D01*
X0151384Y0308652D02*
Y031668D01*
X0147795Y0320269D02*
X0147795D01*
X0144206Y0308652D02*
Y031668D01*
X0139528Y0305063D02*
X0140617D01*
X0148528Y0286563D02*
Y0294063D01*
X0168528Y0238563D02*
Y0266563D01*
X0148528Y0286563D02*
X0168528Y0266563D01*
X0137525Y036856D02*
X0142028Y0373063D01*
X0137525Y0365479D02*
X0147004Y0356D01*
X0147004Y0356D02*
X0147004Y0356D01*
X0147004Y0353045D02*
X0147004Y0353045D01*
X014405Y0353045D02*
X014405Y0353045D01*
X0133712Y0363383D02*
X014405Y0353045D01*
X0133712Y0363383D02*
X0133712Y0363383D01*
X0130757Y0363383D02*
X0130757Y0363383D01*
X0130757Y0360429D02*
X0130757Y0360429D01*
X0141095Y0350091D01*
X0141095Y0350091D02*
X0141095Y0350091D01*
X0141095Y0347136D02*
X0141095Y0347136D01*
X0138141Y0347136D02*
X0138141Y0347136D01*
X0128661Y0356616D02*
X0138141Y0347136D01*
X0128661Y0356616D02*
X0128661Y0356616D01*
X0121856Y0352891D02*
X0125581Y0356616D01*
X0142028Y0373063D02*
X0148028Y0379063D01*
X0121528Y0352563D02*
X0121856Y0352891D01*
X0148028Y0379063D02*
X0179028D01*
X0121528Y0224063D02*
Y0352563D01*
X0101528Y0214063D02*
X0113528Y0226063D01*
Y0340563D01*
X0242028Y0326563D02*
X0242032Y0326567D01*
X0252532D01*
X0204528Y0245563D02*
X0228028Y0269063D01*
X0178005Y0367963D02*
X0228028Y031794D01*
Y0269063D02*
Y031794D01*
X0224528Y0335063D02*
X0251028D01*
X0252532Y0326567D02*
X0277528Y0351563D01*
X0251028Y0335063D02*
X0277528Y0361563D01*
X0138528Y0305063D02*
X0139528D01*
X0129028Y0295563D02*
X0138528Y0305063D01*
X0129028Y0221563D02*
Y0295563D01*
X0167528Y0305063D02*
X0178528Y0294063D01*
Y0294933D01*
X0166028Y0305063D02*
X0167528D01*
X0111528Y0214063D02*
X0121528Y0224063D01*
X0178528Y0277563D02*
X0189028D01*
X019836Y0268231D01*
Y0222895D02*
Y0268231D01*
X0169067Y0287024D02*
X0178528Y0277563D01*
X0169067Y0287024D02*
Y0293524D01*
X0175528Y0209563D02*
Y0209569D01*
X0178028Y0212069D01*
Y0229063D01*
X0168528Y0238563D02*
X0178028Y0229063D01*
X0168528Y0294063D02*
X0169067Y0293524D01*
X0116617Y0198974D02*
X0189938D01*
X0204528Y0213563D02*
Y0245563D01*
X0189938Y0198974D02*
X0204528Y0213563D01*
X0179528Y0204063D02*
X019836Y0222895D01*
X0121528Y0204063D02*
X0179528D01*
X0176028Y0369933D02*
Y036994D01*
X0177998Y0367963D02*
X0178005D01*
X0176028Y0369933D02*
X0177998Y0367963D01*
X0184989Y0370102D02*
X0185528Y0369563D01*
X0184989Y0370102D02*
Y0373102D01*
X0179028Y0379063D02*
X0184989Y0373102D01*
X0111528Y0204063D02*
X0116617Y0198974D01*
X0121528Y0214063D02*
X0129028Y0221563D01*
X0163576Y0082293D02*
G03*
X0159987Y0085882I-0003589J0D01*
G01*
X0163576Y0074265D02*
G03*
X0167165Y0070675I0003589J0D01*
G01*
X0167165D02*
G03*
X0170755Y0074265I0J0003589D01*
G01*
X0174344Y0085882D02*
G03*
X0170755Y0082293I0J-0003589D01*
G01*
X0177436Y0022385D02*
G03*
X0177436Y0025466I-000154J000154D01*
G01*
X0167956Y00379D02*
G03*
X0167956Y0034945I0001477J-0001477D01*
G01*
X0170911Y00379D02*
G03*
X0167956Y00379I-0001477J-0001477D01*
G01*
X0181249Y0027562D02*
G03*
X0184203Y0027562I0001477J0001477D01*
G01*
X0184203Y0027562D02*
G03*
X0184203Y0030516I-0001477J0001477D01*
G01*
X0173865Y0043809D02*
G03*
X0173865Y0040854I0001477J-0001477D01*
G01*
X017682Y0043809D02*
G03*
X0173865Y0043809I-0001477J-0001477D01*
G01*
X01863Y0034329D02*
G03*
X018938Y0034329I000154J000154D01*
G01*
X0057933Y0089882D02*
X0037433Y0069382D01*
X0063433Y0089882D02*
X0057933D01*
X0159987Y0085882D02*
X0148933D01*
X0163576Y0082293D02*
Y0074265D01*
X0167165Y0070675D02*
X0167165D01*
X0170755Y0082293D02*
Y0074265D01*
X0175433Y0085882D02*
X0174344D01*
X0166433Y0104382D02*
Y0096882D01*
X0146433Y0152382D02*
Y0124382D01*
X0166433Y0104382D02*
X0146433Y0124382D01*
X0177436Y0022385D02*
X0172933Y0017882D01*
X0177436Y0025466D02*
X0167956Y0034945D01*
X0167956Y0034945D02*
X0167956Y0034945D01*
X0167956Y00379D02*
X0167956Y00379D01*
X0170911Y00379D02*
X0170911Y00379D01*
X0181249Y0027562D02*
X0170911Y00379D01*
X0181249Y0027562D02*
X0181249Y0027562D01*
X0184203Y0027562D02*
X0184203Y0027562D01*
X0184203Y0030516D02*
X0184203Y0030516D01*
X0173865Y0040854D01*
X0173865Y0040854D02*
X0173865Y0040854D01*
X0173865Y0043809D02*
X0173865Y0043809D01*
X017682Y0043809D02*
X017682Y0043809D01*
X01863Y0034329D02*
X017682Y0043809D01*
X01863Y0034329D02*
X01863Y0034329D01*
X0193105Y0038054D02*
X018938Y0034329D01*
X0172933Y0017882D02*
X0166933Y0011882D01*
X0193433Y0038382D02*
X0193105Y0038054D01*
X0166933Y0011882D02*
X0135933D01*
X0193433Y0166882D02*
Y0038382D01*
X0213433Y0176882D02*
X0201433Y0164882D01*
Y0050382D01*
X0072933Y0064382D02*
X0072929Y0064378D01*
X0062429D01*
X0110433Y0145382D02*
X0086933Y0121882D01*
X0136955Y0022982D02*
X0086933Y0073005D01*
Y0121882D02*
Y0073005D01*
X0090433Y0055882D02*
X0063933D01*
X0062429Y0064378D02*
X0037433Y0039382D01*
X0063933Y0055882D02*
X0037433Y0029382D01*
X0176433Y0085882D02*
X0175433D01*
X0185933Y0095382D02*
X0176433Y0085882D01*
X0185933Y0169382D02*
Y0095382D01*
X0147433Y0085882D02*
X0136433Y0096882D01*
Y0096012D01*
X0148933Y0085882D02*
X0147433D01*
X0203433Y0176882D02*
X0193433Y0166882D01*
X0136433Y0113382D02*
X0125933D01*
X0116601Y0122714D01*
Y016805D02*
Y0122714D01*
X0145894Y0103921D02*
X0136433Y0113382D01*
X0145894Y0103921D02*
Y0097421D01*
X0139433Y0181382D02*
Y0181376D01*
X0136933Y0178876D01*
Y0161882D01*
X0146433Y0152382D02*
X0136933Y0161882D01*
X0146433Y0096882D02*
X0145894Y0097421D01*
X0198344Y0191971D02*
X0125022D01*
X0110433Y0177382D02*
Y0145382D01*
X0125022Y0191971D02*
X0110433Y0177382D01*
X0135433Y0186882D02*
X0116601Y016805D01*
X0193433Y0186882D02*
X0135433D01*
X0138933Y0021012D02*
Y0021005D01*
X0136962Y0022982D02*
X0136955D01*
X0138933Y0021012D02*
X0136962Y0022982D01*
X0129972Y0020843D02*
X0129433Y0021382D01*
X0129972Y0020843D02*
Y0017843D01*
X0135933Y0011882D02*
X0129972Y0017843D01*
X0203433Y0186882D02*
X0198344Y0191971D01*
X0193433Y0176882D02*
X0185933Y0169382D01*
D11*
X0108612Y0365647D02*
X0109528Y0366563D01*
X0108528Y0365563D02*
X0108612Y0365647D01*
X0109528Y0366563D02*
X0112021D01*
X0207528Y0268563D02*
X0210028Y0266063D01*
Y0265063D02*
Y0266063D01*
X0207528Y0268563D02*
Y0273063D01*
X0206428Y0267463D02*
X0207528Y0268563D01*
X0206428Y0265963D02*
Y0267463D01*
X0205528Y0265063D02*
X0210028D01*
X0205528D02*
X0206428Y0265963D01*
X0043028Y0300063D02*
X0108528Y0365563D01*
X0043028Y0264563D02*
Y0300063D01*
Y0264563D02*
X0067528Y0240063D01*
X0066462D02*
X0067528D01*
X0235066Y0268079D02*
X0236528Y0266617D01*
X0235028Y0268563D02*
X0238028D01*
X0188986Y0291605D02*
Y0293605D01*
X0188528Y0294063D02*
X0188986Y0293605D01*
Y0291605D02*
X0207528Y0273063D01*
X0236528Y0245579D02*
Y0266563D01*
Y0245579D02*
X0245535Y0236571D01*
X0236528Y0266563D02*
Y0266617D01*
X0235066Y0268079D02*
Y0268525D01*
X0235028Y0268563D02*
X0235066Y0268525D01*
X0267528Y0292063D02*
X0277891Y0302426D01*
X0267528Y0243563D02*
Y0292063D01*
X0058962Y0232563D02*
X0066462Y0240063D01*
X0042028Y0232563D02*
X0058962D01*
X0031528Y0214063D02*
Y0222063D01*
X0042028Y0232563D01*
X0031528Y0204063D02*
Y0214063D01*
X0235028Y0229654D02*
X0235453Y0230079D01*
X0239043D01*
X0245535Y0236571D01*
X0260535D01*
X0267528Y0243563D01*
X0206349Y0025298D02*
X0205433Y0024382D01*
X0206433Y0025382D02*
X0206349Y0025298D01*
X0205433Y0024382D02*
X020294D01*
X0107433Y0122382D02*
X0104933Y0124882D01*
Y0125882D02*
Y0124882D01*
X0107433Y0122382D02*
Y0117882D01*
X0108533Y0123482D02*
X0107433Y0122382D01*
X0108533Y0124982D02*
Y0123482D01*
X0109433Y0125882D02*
X0104933D01*
X0109433D02*
X0108533Y0124982D01*
X0271933Y0090882D02*
X0206433Y0025382D01*
X0271933Y0126382D02*
Y0090882D01*
Y0126382D02*
X0247433Y0150882D01*
X0248498D02*
X0247433D01*
X0079895Y0122866D02*
X0078433Y0124328D01*
X0079933Y0122382D02*
X0076933D01*
X0125975Y009934D02*
Y009734D01*
X0126433Y0096882D02*
X0125975Y009734D01*
Y009934D02*
X0107433Y0117882D01*
X0078433Y0145366D02*
Y0124382D01*
Y0145366D02*
X0069425Y0154374D01*
X0078433Y0124382D02*
Y0124328D01*
X0079895Y0122866D02*
Y012242D01*
X0079933Y0122382D02*
X0079895Y012242D01*
X0047433Y0098882D02*
X003707Y0088519D01*
X0047433Y0147382D02*
Y0098882D01*
X0255998Y0158382D02*
X0248498Y0150882D01*
X0272933Y0158382D02*
X0255998D01*
X0283433Y0176882D02*
Y0168882D01*
X0272933Y0158382D01*
X0283433Y0186882D02*
Y0176882D01*
X0079933Y0161291D02*
X0079508Y0160866D01*
X0075917D01*
X0069425Y0154374D01*
X0054425D01*
X0047433Y0147382D01*
D12*
X0021528Y0225063D02*
X0036248Y0239784D01*
X0053028D01*
X0021528Y0214063D02*
Y0225063D01*
X0089989Y0356101D02*
X0090028Y0356063D01*
X0089489Y0356101D02*
X0089989D01*
X0094489Y0361601D02*
X0094528Y0361563D01*
X0071528Y0384063D02*
X0093989Y0361601D01*
X0094489D01*
X0061528Y0384063D02*
X0089489Y0356101D01*
X0231768Y0380823D02*
Y0383823D01*
Y0380823D02*
X0236528Y0376063D01*
X0259028D01*
X0231528Y0384063D02*
X0231768Y0383823D01*
X0302028Y0226063D02*
Y0285563D01*
Y0209063D02*
Y0226063D01*
X0253528Y0346063D02*
X0276035Y036857D01*
X0277528Y0370481D02*
Y0371563D01*
X0248528Y0346063D02*
X0253528D01*
X0276035Y0368988D02*
X0277528Y0370481D01*
X0276035Y036857D02*
Y0368988D01*
X0242028Y0352563D02*
X0248528Y0346063D01*
X0236028Y0308063D02*
X0252528D01*
X0169528Y0323563D02*
X0211028D01*
X0214528Y0320063D01*
X0141528Y0328063D02*
X0152528D01*
X0172528Y0308063D02*
X0211028D01*
X0152528Y0328063D02*
X0172528Y0308063D01*
X0135528Y0322063D02*
X0141528Y0328063D01*
X0135528Y0312563D02*
Y0322063D01*
X0127528Y0304563D02*
X0135528Y0312563D01*
X0252528Y0308063D02*
X0274535Y033007D01*
X0236028Y0316063D02*
X0252028D01*
X0277528Y0341563D01*
X0274535Y033007D02*
X0274953D01*
X0276445Y0331563D02*
X0277528D01*
X0274953Y033007D02*
X0276445Y0331563D01*
X0259028Y0376063D02*
X0271028Y0388063D01*
X0284028D02*
X0298028Y0374063D01*
X0271028Y0388063D02*
X0284028D01*
X005351Y026408D02*
X0075028Y0242563D01*
Y0222563D02*
Y0242563D01*
X0053028Y0267342D02*
X005351Y026686D01*
Y026408D02*
Y026686D01*
X0081528Y0214063D02*
Y0224063D01*
X0087528Y0230063D01*
X0071528Y0214063D02*
Y0219063D01*
X0075028Y0222563D01*
X0298028Y0363563D02*
Y0374063D01*
X0149028Y0241154D02*
Y0249563D01*
X013726Y026133D02*
X0149028Y0249563D01*
X0136028Y0263043D02*
Y0263843D01*
Y0263043D02*
X013726Y0261811D01*
Y026133D02*
Y0261811D01*
X0281307Y0245563D02*
X0292106D01*
X0280975Y0206563D02*
X0292028D01*
X0302028Y0285563D02*
X0302651Y0286186D01*
X0281307Y0265563D02*
X0292088D01*
X0281307Y0285563D02*
X0292028D01*
X0225028Y0209653D02*
X0225513Y0210139D01*
Y0213548D01*
X0228028Y0216063D02*
X0249528D01*
X0225513Y0213548D02*
X0228028Y0216063D01*
X0249528D02*
X0253248Y0212343D01*
Y0208563D02*
Y0212343D01*
X0280807Y0226063D02*
X0292028D01*
X0041528Y0204063D02*
Y0214063D01*
X0021528Y0204063D02*
Y0214063D01*
X0293433Y0165882D02*
X0278713Y0151161D01*
X0261933D01*
X0293433Y0176882D02*
Y0165882D01*
X0224971Y0034844D02*
X0224933Y0034882D01*
X0225471Y0034844D02*
X0224971D01*
X0220471Y0029344D02*
X0220433Y0029382D01*
X0243433Y0006882D02*
X0220971Y0029344D01*
X0220471D01*
X0253433Y0006882D02*
X0225471Y0034844D01*
X0083193Y0010122D02*
Y0007122D01*
Y0010122D02*
X0078433Y0014882D01*
X0055933D01*
X0083433Y0006882D02*
X0083193Y0007122D01*
X0012933Y0164882D02*
Y0105382D01*
Y0181882D02*
Y0164882D01*
X0061433Y0044882D02*
X0038926Y0022375D01*
X0037433Y0020464D02*
Y0019382D01*
X0066433Y0044882D02*
X0061433D01*
X0038926Y0021957D02*
X0037433Y0020464D01*
X0038926Y0022375D02*
Y0021957D01*
X0072933Y0038382D02*
X0066433Y0044882D01*
X0078933Y0082882D02*
X0062433D01*
X0145433Y0067382D02*
X0103933D01*
X0100433Y0070882D01*
X0173433Y0062882D02*
X0162433D01*
X0142433Y0082882D02*
X0103933D01*
X0162433Y0062882D02*
X0142433Y0082882D01*
X0179433Y0068882D02*
X0173433Y0062882D01*
X0179433Y0078382D02*
Y0068882D01*
X0187433Y0086382D02*
X0179433Y0078382D01*
X0062433Y0082882D02*
X0040426Y0060874D01*
X0078933Y0074882D02*
X0062933D01*
X0037433Y0049382D01*
X0040426Y0060874D02*
X0040008D01*
X0038515Y0059382D02*
X0037433D01*
X0040008Y0060874D02*
X0038515Y0059382D01*
X0055933Y0014882D02*
X0043933Y0002882D01*
X0030933D02*
X0016933Y0016882D01*
X0043933Y0002882D02*
X0030933D01*
X026145Y0126865D02*
X0239933Y0148382D01*
Y0168382D02*
Y0148382D01*
X0261933Y0123602D02*
X026145Y0124085D01*
Y0126865D02*
Y0124085D01*
X0233433Y0176882D02*
Y0166882D01*
X0227433Y0160882D01*
X0243433Y0176882D02*
Y0171882D01*
X0239933Y0168382D01*
X0016933Y0027382D02*
Y0016882D01*
X0165933Y0149791D02*
Y0141382D01*
X01777Y0129614D02*
X0165933Y0141382D01*
X0178933Y0127901D02*
Y0127102D01*
Y0127901D02*
X01777Y0129134D01*
Y0129614D02*
Y0129134D01*
X0033653Y0145382D02*
X0022854D01*
X0033986Y0184382D02*
X0022933D01*
X0012933Y0105382D02*
X001231Y0104759D01*
X0033653Y0125382D02*
X0022873D01*
X0033653Y0105382D02*
X0022933D01*
X0089933Y0181291D02*
X0089448Y0180806D01*
Y0177397D01*
X0086933Y0174882D02*
X0065433D01*
X0089448Y0177397D02*
X0086933Y0174882D01*
X0065433D02*
X0061712Y0178602D01*
Y0182382D02*
Y0178602D01*
X0034153Y0164882D02*
X0022933D01*
X0273433Y0186882D02*
Y0176882D01*
X0293433Y0186882D02*
Y0176882D01*
D13*
X0099028Y0225563D02*
Y0345063D01*
X0128528Y0374563D01*
X0201528Y0367563D02*
X0237028D01*
X0252028Y0352563D01*
X0154528Y0227063D02*
X0169807D01*
X0141528Y0214063D02*
X0154528Y0227063D01*
X0134528Y0226654D02*
X0149028Y0241154D01*
X0134528Y0217063D02*
Y0226654D01*
X0131528Y0214063D02*
X0134528Y0217063D01*
X0092246Y0218781D02*
X0099028Y0225563D01*
X0092246Y0214781D02*
Y0218781D01*
X0091528Y0214063D02*
X0092246Y0214781D01*
X0215933Y0165382D02*
Y0045882D01*
X0186433Y0016382D01*
X0113433Y0023382D02*
X0077933D01*
X0062933Y0038382D01*
X0160433Y0163882D02*
X0145153D01*
X0173433Y0176882D02*
X0160433Y0163882D01*
X0180433Y0164291D02*
X0165933Y0149791D01*
X0180433Y0173882D02*
Y0164291D01*
X0183433Y0176882D02*
X0180433Y0173882D01*
X0222714Y0172163D02*
X0215933Y0165382D01*
X0222714Y0176163D02*
Y0172163D01*
X0223433Y0176882D02*
X0222714Y0176163D01*
D14*
X0208528Y0294063D02*
D03*
X0155528Y0369563D02*
D03*
X0071528Y0384063D02*
D03*
X0161528Y0214063D02*
D03*
X0106433Y0096882D02*
D03*
X0159433Y0021382D02*
D03*
X0243433Y0006882D02*
D03*
X0153433Y0176882D02*
D03*
D15*
X0198528Y0294063D02*
D03*
X0188528D02*
D03*
X0178528D02*
D03*
X0168528D02*
D03*
X0158528D02*
D03*
X0148528D02*
D03*
X0138528D02*
D03*
X0165528Y0369563D02*
D03*
X0175528D02*
D03*
X0185528D02*
D03*
X0061528Y0384063D02*
D03*
X0051528D02*
D03*
X0041528D02*
D03*
X0031528D02*
D03*
X0021528D02*
D03*
X0151528Y0214063D02*
D03*
X0141528D02*
D03*
X0131528D02*
D03*
X0121528D02*
D03*
X0111528D02*
D03*
X0101528D02*
D03*
X0091528D02*
D03*
X0081528D02*
D03*
X0071528D02*
D03*
X0061528D02*
D03*
X0051528D02*
D03*
X0041528D02*
D03*
X0031528D02*
D03*
X0021528D02*
D03*
X0116433Y0096882D02*
D03*
X0126433D02*
D03*
X0136433D02*
D03*
X0146433D02*
D03*
X0156433D02*
D03*
X0166433D02*
D03*
X0176433D02*
D03*
X0149433Y0021382D02*
D03*
X0139433D02*
D03*
X0129433D02*
D03*
X0253433Y0006882D02*
D03*
X0263433D02*
D03*
X0273433D02*
D03*
X0283433D02*
D03*
X0293433D02*
D03*
X0163433Y0176882D02*
D03*
X0173433D02*
D03*
X0183433D02*
D03*
X0193433D02*
D03*
X0203433D02*
D03*
X0213433D02*
D03*
X0223433D02*
D03*
X0233433D02*
D03*
X0243433D02*
D03*
X0253433D02*
D03*
X0263433D02*
D03*
X0273433D02*
D03*
X0283433D02*
D03*
X0293433D02*
D03*
D16*
X0187528Y0241154D02*
D03*
X0177528D02*
D03*
X0187528Y0261154D02*
D03*
X0177528D02*
D03*
X0159028Y0241154D02*
D03*
X0149028D02*
D03*
X0159028Y0261154D02*
D03*
X0149028D02*
D03*
X0308028Y0332472D02*
D03*
X0298028D02*
D03*
X0308028Y0352472D02*
D03*
X0298028D02*
D03*
X0308028Y0301472D02*
D03*
X0298028D02*
D03*
X0308028Y0321472D02*
D03*
X0298028D02*
D03*
X0308028Y0363563D02*
D03*
X0298028D02*
D03*
X0308028Y0383563D02*
D03*
X0298028D02*
D03*
X0225028Y0229654D02*
D03*
X0235028D02*
D03*
X0225028Y0209653D02*
D03*
X0235028D02*
D03*
X0089118Y0268563D02*
D03*
Y0258563D02*
D03*
X0069118Y0268563D02*
D03*
Y0258563D02*
D03*
X0067528Y0230063D02*
D03*
Y0240063D02*
D03*
X0087528Y0230063D02*
D03*
Y0240063D02*
D03*
X0127433Y0149791D02*
D03*
X0137433D02*
D03*
X0127433Y0129791D02*
D03*
X0137433D02*
D03*
X0155933Y0149791D02*
D03*
X0165933D02*
D03*
X0155933Y0129791D02*
D03*
X0165933D02*
D03*
X0006933Y0058473D02*
D03*
X0016933D02*
D03*
X0006933Y0038472D02*
D03*
X0016933D02*
D03*
X0006933Y0089473D02*
D03*
X0016933D02*
D03*
X0006933Y0069472D02*
D03*
X0016933D02*
D03*
X0006933Y0027382D02*
D03*
X0016933D02*
D03*
X0006933Y0007382D02*
D03*
X0016933D02*
D03*
X0089933Y0161291D02*
D03*
X0079933D02*
D03*
X0089933Y0181291D02*
D03*
X0079933D02*
D03*
X0225842Y0122382D02*
D03*
Y0132382D02*
D03*
X0245842Y0122382D02*
D03*
Y0132382D02*
D03*
X0247433Y0160882D02*
D03*
Y0150882D02*
D03*
X0227433Y0160882D02*
D03*
Y0150882D02*
D03*
D17*
X0277528Y0381563D02*
D03*
Y0371563D02*
D03*
Y0361563D02*
D03*
Y0351563D02*
D03*
Y0321563D02*
D03*
Y0311563D02*
D03*
Y0301563D02*
D03*
Y0341563D02*
D03*
Y0331563D02*
D03*
X0071528Y0204063D02*
D03*
X0061528D02*
D03*
X0101528D02*
D03*
X0091528D02*
D03*
X0081528D02*
D03*
X0051528D02*
D03*
X0041528D02*
D03*
X0031528D02*
D03*
X0021528D02*
D03*
X0121528D02*
D03*
X0111528D02*
D03*
X0037433Y0009382D02*
D03*
Y0019382D02*
D03*
Y0029382D02*
D03*
Y0039382D02*
D03*
Y0069382D02*
D03*
Y0079382D02*
D03*
Y0089382D02*
D03*
Y0049382D02*
D03*
Y0059382D02*
D03*
X0243433Y0186882D02*
D03*
X0253433D02*
D03*
X0213433D02*
D03*
X0223433D02*
D03*
X0233433D02*
D03*
X0263433D02*
D03*
X0273433D02*
D03*
X0283433D02*
D03*
X0293433D02*
D03*
X0193433D02*
D03*
X0203433D02*
D03*
D18*
X0241528Y0384063D02*
D03*
X0231528D02*
D03*
X0242028Y0352563D02*
D03*
X0252028D02*
D03*
X0073433Y0006882D02*
D03*
X0083433D02*
D03*
X0072933Y0038382D02*
D03*
X0062933D02*
D03*
D19*
X0221528Y0384063D02*
D03*
X0232028Y0352563D02*
D03*
X0093433Y0006882D02*
D03*
X0082933Y0038382D02*
D03*
D20*
X0253748Y0226063D02*
D03*
X0281307D02*
D03*
X0253748Y0265563D02*
D03*
X0281307D02*
D03*
X0253748Y0245563D02*
D03*
X0281307D02*
D03*
X0253748Y0285563D02*
D03*
X0281307D02*
D03*
Y0206563D02*
D03*
X0253748D02*
D03*
X0103528Y0262842D02*
D03*
Y0235283D02*
D03*
X0169807Y0227063D02*
D03*
X0142248D02*
D03*
X0136028Y0263843D02*
D03*
Y0236283D02*
D03*
X0053028Y0267342D02*
D03*
Y0239784D02*
D03*
X0213028Y0204784D02*
D03*
Y0232343D02*
D03*
X0061212Y0164882D02*
D03*
X0033653D02*
D03*
X0061212Y0125382D02*
D03*
X0033653D02*
D03*
X0061212Y0145382D02*
D03*
X0033653D02*
D03*
X0061212Y0105382D02*
D03*
X0033653D02*
D03*
Y0184382D02*
D03*
X0061212D02*
D03*
X0211433Y0128102D02*
D03*
Y0155661D02*
D03*
X0145153Y0163882D02*
D03*
X0172713D02*
D03*
X0178933Y0127102D02*
D03*
Y0154661D02*
D03*
X0261933Y0123602D02*
D03*
Y0151161D02*
D03*
X0101933Y0186161D02*
D03*
Y0158602D02*
D03*
D21*
X0302028Y0206563D02*
D03*
X0302009Y0226063D02*
D03*
X0302106Y0245563D02*
D03*
X0302088Y0265563D02*
D03*
X0302028Y0285563D02*
D03*
X0012933Y0184382D02*
D03*
X0012951Y0164882D02*
D03*
X0012854Y0145382D02*
D03*
X0012873Y0125382D02*
D03*
X0012933Y0105382D02*
D03*
D22*
X0292028Y0206563D02*
D03*
X0292009Y0226063D02*
D03*
X0292106Y0245563D02*
D03*
X0292088Y0265563D02*
D03*
X0292028Y0285563D02*
D03*
X0022933Y0184382D02*
D03*
X0022951Y0164882D02*
D03*
X0022854Y0145382D02*
D03*
X0022873Y0125382D02*
D03*
X0022933Y0105382D02*
D03*
D23*
X0112021Y0366563D02*
D03*
X0108612Y0365647D02*
D03*
X0207528Y0268563D02*
D03*
X0205528Y0265063D02*
D03*
X0210028D02*
D03*
X0108528Y0365563D02*
D03*
X0251528Y0301063D02*
D03*
X0090028Y0356063D02*
D03*
X0094528Y0361563D02*
D03*
X0238028Y0268563D02*
D03*
X0235028D02*
D03*
X0236528Y0266563D02*
D03*
X0110028Y0374063D02*
D03*
X0128528Y0374563D02*
D03*
X0201528Y0367563D02*
D03*
X0113528Y0340563D02*
D03*
X0242028Y0326563D02*
D03*
X0236028Y0308063D02*
D03*
X0169528Y0323563D02*
D03*
X0214528Y0320063D02*
D03*
X0211028Y0308063D02*
D03*
X0236028Y0316063D02*
D03*
X0127528Y0304563D02*
D03*
X0224528Y0335063D02*
D03*
X0175528Y0209563D02*
D03*
X020294Y0024382D02*
D03*
X0206349Y0025298D02*
D03*
X0107433Y0122382D02*
D03*
X0109433Y0125882D02*
D03*
X0104933D02*
D03*
X0206433Y0025382D02*
D03*
X0063433Y0089882D02*
D03*
X0224933Y0034882D02*
D03*
X0220433Y0029382D02*
D03*
X0076933Y0122382D02*
D03*
X0079933D02*
D03*
X0078433Y0124382D02*
D03*
X0204933Y0016882D02*
D03*
X0186433Y0016382D02*
D03*
X0113433Y0023382D02*
D03*
X0201433Y0050382D02*
D03*
X0072933Y0064382D02*
D03*
X0078933Y0082882D02*
D03*
X0145433Y0067382D02*
D03*
X0100433Y0070882D02*
D03*
X0103933Y0082882D02*
D03*
X0078933Y0074882D02*
D03*
X0187433Y0086382D02*
D03*
X0090433Y0055882D02*
D03*
X0139433Y0181382D02*
D03*
M02*
